<?xml version="1.0" standalone="no"?>
<!DOCTYPE svg PUBLIC "-//W3C//DTD SVG 1.1//EN" "http://www.w3.org/Graphics/SVG/1.1/DTD/svg11.dtd" >
<svg xmlns="http://www.w3.org/2000/svg">
<metadata></metadata>
<defs>
<font id="ff_editorregular" horiz-adv-x="1024" >
<font-face units-per-em="1024" ascent="1024" descent="0" />
<missing-glyph horiz-adv-x="600" />
<glyph unicode=" "  horiz-adv-x="600" />
<glyph unicode="&#x09;" horiz-adv-x="600" />
<glyph unicode="&#xa0;" horiz-adv-x="600" />
<glyph unicode="&#x2000;" horiz-adv-x="512" />
<glyph unicode="&#x2001;" />
<glyph unicode="&#x2002;" horiz-adv-x="512" />
<glyph unicode="&#x2003;" />
<glyph unicode="&#x2004;" horiz-adv-x="341" />
<glyph unicode="&#x2005;" horiz-adv-x="256" />
<glyph unicode="&#x2006;" horiz-adv-x="170" />
<glyph unicode="&#x2007;" horiz-adv-x="170" />
<glyph unicode="&#x2008;" horiz-adv-x="128" />
<glyph unicode="&#x2009;" horiz-adv-x="204" />
<glyph unicode="&#x200a;" horiz-adv-x="56" />
<glyph unicode="&#x202f;" horiz-adv-x="204" />
<glyph unicode="&#x205f;" horiz-adv-x="256" />
<glyph unicode="&#x25fc;" horiz-adv-x="500" d="M0 0z" />
<glyph unicode="&#xe000;" d="M557 842l272 -271q19 -19 19 -45.5t-19 -45.5t-45.5 -19t-45.5 19l-162 162v-421q0 -26 -19 -45t-45 -19t-45 19t-19 45v421l-162 -162q-19 -19 -45.5 -19t-45.5 19t-19 45.5t19 45.5l272 271q19 19 45 19t45 -19z" />
<glyph unicode="&#xe001;" d="M571 829l271 -272q19 -19 19 -45t-19 -45l-271 -272q-19 -19 -45.5 -19t-45.5 19t-19 45.5t19 45.5l162 162h-421q-26 0 -45 19t-19 45t19 45t45 19h421l-162 162q-19 19 -19 45.5t19 45.5t45.5 19t45.5 -19z" />
<glyph unicode="&#xe002;" d="M557 182l272 271q19 19 19 45.5t-19 45.5t-45.5 19t-45.5 -19l-162 -162v421q0 26 -19 45t-45 19t-45 -19t-19 -45v-421l-162 162q-19 19 -45.5 19t-45.5 -19t-19 -45.5t19 -45.5l272 -271q19 -19 45 -19t45 19z" />
<glyph unicode="&#xe003;" d="M382 576h421q26 0 45 -19t19 -45t-19 -45t-45 -19h-421l162 -162q19 -19 19 -45.5t-19 -45.5t-45.5 -19t-45.5 19l-271 272q-19 19 -19 45t19 45l271 272q19 19 45.5 19t45.5 -19t19 -45.5t-19 -45.5z" />
<glyph unicode="&#xe004;" d="M768 384h-512l256 256z" />
<glyph unicode="&#xe005;" d="M640 512l-256 -256v512z" />
<glyph unicode="&#xe006;" d="M512 384l-256 256h512z" />
<glyph unicode="&#xe007;" d="M640 256l-256 256l256 256v-512z" />
<glyph unicode="&#xe008;" d="M512 64q-185 0 -316.5 131.5t-131.5 316.5t131.5 316.5t316.5 131.5t316.5 -131.5t131.5 -316.5t-131.5 -316.5t-316.5 -131.5zM512 550l147 -147q19 -19 45 -19t45 19q19 18 19 45t-19 45l-192 192q-19 19 -45 19t-45 -19l-192 -192q-19 -19 -19 -45t19 -45t45 -19 t45 19z" />
<glyph unicode="&#xe009;" d="M512 960q185 0 316.5 -131.5t131.5 -316.5t-131.5 -316.5t-316.5 -131.5t-316.5 131.5t-131.5 316.5t131.5 316.5t316.5 131.5zM685 557l-192 192q-19 19 -45 19t-45 -19t-19 -45t19 -45l147 -147l-147 -147q-19 -19 -19 -45t19 -45q18 -19 45 -19t45 19l192 192 q19 19 19 45t-19 45z" />
<glyph unicode="&#xe00a;" d="M512 960q185 0 316.5 -131.5t131.5 -316.5t-131.5 -316.5t-316.5 -131.5t-316.5 131.5t-131.5 316.5t131.5 316.5t316.5 131.5zM749 621q-19 19 -45 19t-45 -19l-147 -147l-147 147q-19 19 -45 19t-45 -19t-19 -45t19 -45l192 -192q19 -19 45 -19t45 19l192 192 q19 18 19 45t-19 45z" />
<glyph unicode="&#xe00b;" d="M512 960q185 0 316.5 -131.5t131.5 -316.5t-131.5 -316.5t-316.5 -131.5t-316.5 131.5t-131.5 316.5t131.5 316.5t316.5 131.5zM621 749q-19 19 -45 19t-45 -19l-192 -192q-19 -19 -19 -45t19 -45l192 -192q18 -19 45 -19t45 19q19 19 19 45t-19 45l-147 147l147 147 q19 19 19 45t-19 45z" />
<glyph unicode="&#xe00c;" d="M560 653l192 -192q19 -18 19 -45t-19 -45q-19 -19 -45 -19t-45 19l-147 147l-147 -147q-19 -19 -45 -19t-45 19t-19 45t19 45l192 192q19 19 45 19t45 -19z" />
<glyph unicode="&#xe00d;" d="M461 746l192 -192q19 -19 19 -45t-19 -45l-192 -192q-18 -19 -45 -19t-45 19q-19 19 -19 45t19 45l147 147l-147 147q-19 19 -19 45t19 45t45 19t45 -19z" />
<glyph unicode="&#xe00e;" d="M515 506l-147 147q-19 19 -45 19t-45 -19t-19 -45t19 -45l192 -192q19 -19 45 -19t45 19l192 192q19 18 19 45t-19 45q-19 19 -45 19t-45 -19z" />
<glyph unicode="&#xe00f;" d="M653 746q19 -19 19 -45t-19 -45l-147 -147l147 -147q19 -19 19 -45t-19 -45q-18 -19 -45 -19t-45 19l-192 192q-19 19 -19 45t19 45l192 192q19 19 45 19t45 -19z" />
<glyph unicode="&#xe010;" d="M512 960q185 0 316.5 -131.5t131.5 -316.5t-131.5 -316.5t-316.5 -131.5t-316.5 131.5t-131.5 316.5t131.5 316.5t316.5 131.5zM512 832q-26 0 -45 -19t-19 -45v-192h-192q-26 0 -45 -19t-19 -45t19 -45t45 -19h192v-192q0 -26 19 -45t45 -19t45 19t19 45v192h192 q26 0 45 19t19 45t-19 45t-45 19h-192v192q0 26 -19 45t-45 19z" />
<glyph unicode="&#xe011;" d="M512 832q26 0 45 -19t19 -45v-192h192q26 0 45 -19t19 -45t-19 -45t-45 -19h-192v-192q0 -26 -19 -45t-45 -19t-45 19t-19 45v192h-192q-26 0 -45 19t-19 45t19 45t45 19h192v192q0 26 19 45t45 19z" />
<glyph unicode="&#xe012;" d="M512 960q185 0 316.5 -131.5t131.5 -316.5t-131.5 -316.5t-316.5 -131.5t-316.5 131.5t-131.5 316.5t131.5 316.5t316.5 131.5zM768 576h-512q-26 0 -45 -19t-19 -45t19 -45t45 -19h512q26 0 45 19t19 45t-19 45t-45 19z" />
<glyph unicode="&#xe013;" d="M256 576h512q26 0 45 -19t19 -45t-19 -45t-45 -19h-512q-26 0 -45 19t-19 45t19 45t45 19z" />
<glyph unicode="&#xe014;" d="M512 960q185 0 316.5 -131.5t131.5 -316.5t-131.5 -316.5t-316.5 -131.5t-316.5 131.5t-131.5 316.5t131.5 316.5t316.5 131.5zM781 717q-19 19 -45 19t-45 -19l-275 -274l-83 82q-19 19 -45 19t-45 -19t-19 -45t19 -45l128 -128q18 -19 45 -19t45 19l320 320 q19 19 19 45t-19 45z" />
<glyph unicode="&#xe015;" d="M781 714q19 -19 19 -45t-19 -45l-320 -320q-18 -19 -45 -19t-45 19l-128 128q-19 19 -19 45t19 45t45 19t45 -19l83 -82l275 274q19 19 45 19t45 -19z" />
<glyph unicode="&#xe016;" d="M512 960q185 0 316.5 -131.5t131.5 -316.5t-131.5 -316.5t-316.5 -131.5t-316.5 131.5t-131.5 316.5t131.5 316.5t316.5 131.5zM738 738q-19 19 -45 19t-45 -19l-136 -135l-136 135q-19 19 -45 19t-45 -19t-19 -45t19 -45l135 -136l-135 -136q-19 -19 -19 -45t19 -45 q18 -19 45 -19t45 19l136 136l136 -136q18 -19 45 -19t45 19q19 19 19 45t-19 45l-136 136l136 136q19 19 19 45t-19 45z" />
<glyph unicode="&#xe017;" d="M738 735q19 -19 19 -45t-19 -45l-136 -136l136 -136q19 -19 19 -45t-19 -45q-18 -19 -45 -19t-45 19l-136 136l-136 -136q-18 -19 -45 -19t-45 19q-19 19 -19 45t19 45l135 136l-135 136q-19 19 -19 45t19 45t45 19t45 -19l136 -135l136 135q19 19 45 19t45 -19z" />
<glyph unicode="&#xe018;" d="M512 960q185 0 316.5 -131.5t131.5 -316.5t-131.5 -316.5t-316.5 -131.5t-316.5 131.5t-131.5 316.5t131.5 316.5t316.5 131.5zM512 832q-133 0 -226.5 -93.5t-93.5 -226.5t93.5 -226.5t226.5 -93.5t226.5 93.5t93.5 226.5t-93.5 226.5t-226.5 93.5z" />
<glyph unicode="&#xe019;" d="M512 960q185 0 316.5 -131.5t131.5 -316.5t-131.5 -316.5t-316.5 -131.5t-316.5 131.5t-131.5 316.5t131.5 316.5t316.5 131.5zM512 832q-133 0 -226.5 -93.5t-93.5 -226.5t93.5 -226.5t226.5 -93.5t226.5 93.5t93.5 226.5t-93.5 226.5t-226.5 93.5zM512 512v192 q80 0 136 -56t56 -136h-192z" />
<glyph unicode="&#xe01a;" d="M512 960q185 0 316.5 -131.5t131.5 -316.5t-131.5 -316.5t-316.5 -131.5t-316.5 131.5t-131.5 316.5t131.5 316.5t316.5 131.5zM512 832q-133 0 -226.5 -93.5t-93.5 -226.5t93.5 -226.5t226.5 -93.5t226.5 93.5t93.5 226.5t-93.5 226.5t-226.5 93.5zM512 320v384 q80 0 136 -56t56 -136t-56 -136t-136 -56z" />
<glyph unicode="&#xe01b;" d="M512 960q185 0 316.5 -131.5t131.5 -316.5t-131.5 -316.5t-316.5 -131.5t-316.5 131.5t-131.5 316.5t131.5 316.5t316.5 131.5zM512 832q-133 0 -226.5 -93.5t-93.5 -226.5t93.5 -226.5t226.5 -93.5t226.5 93.5t93.5 226.5t-93.5 226.5t-226.5 93.5zM512 512v192 q80 0 136 -56t56 -136t-56 -136t-136 -56t-136 56t-56 136h192z" />
<glyph unicode="&#xe01c;" d="M512 960q185 0 316.5 -131.5t131.5 -316.5t-131.5 -316.5t-316.5 -131.5t-316.5 131.5t-131.5 316.5t131.5 316.5t316.5 131.5zM512 832q-133 0 -226.5 -93.5t-93.5 -226.5t93.5 -226.5t226.5 -93.5t226.5 93.5t93.5 226.5t-93.5 226.5t-226.5 93.5zM512 704 q80 0 136 -56t56 -136t-56 -136t-136 -56t-136 56t-56 136t56 136t136 56z" />
<glyph unicode="&#xe020;" d="M161 832h702q27 0 45.5 -19t18.5 -45t-18.5 -45t-45.5 -19h-702q-27 0 -45.5 19t-18.5 45t18.5 45t45.5 19zM161 576h510q27 0 45.5 -19t18.5 -45t-18.5 -45t-45.5 -19h-510q-27 0 -45.5 19t-18.5 45t18.5 45t45.5 19zM161 320h638q27 0 45.5 -19t18.5 -45t-18.5 -45 t-45.5 -19h-638q-27 0 -45.5 19t-18.5 45t18.5 45t45.5 19z" />
<glyph unicode="&#xe021;" d="M192 832h640q26 0 45 -19t19 -45t-19 -45t-45 -19h-640q-26 0 -45 19t-19 45t19 45t45 19zM320 576h384q26 0 45 -19t19 -45t-19 -45t-45 -19h-384q-26 0 -45 19t-19 45t19 45t45 19zM256 320h512q26 0 45 -19t19 -45t-19 -45t-45 -19h-512q-26 0 -45 19t-19 45t19 45 t45 19z" />
<glyph unicode="&#xe022;" d="M161 832h702q27 0 45.5 -19t18.5 -45t-18.5 -45t-45.5 -19h-702q-27 0 -45.5 19t-18.5 45t18.5 45t45.5 19zM353 576h510q27 0 45.5 -19t18.5 -45t-18.5 -45t-45.5 -19h-510q-27 0 -45.5 19t-18.5 45t18.5 45t45.5 19zM225 320h638q27 0 45.5 -19t18.5 -45t-18.5 -45 t-45.5 -19h-638q-27 0 -45.5 19t-18.5 45t18.5 45t45.5 19z" />
<glyph unicode="&#xe023;" d="M192 832h640q26 0 45 -19t19 -45t-19 -45t-45 -19h-640q-26 0 -45 19t-19 45t19 45t45 19zM192 576h640q26 0 45 -19t19 -45t-19 -45t-45 -19h-640q-26 0 -45 19t-19 45t19 45t45 19zM192 320h640q26 0 45 -19t19 -45t-19 -45t-45 -19h-640q-26 0 -45 19t-19 45t19 45 t45 19z" />
<glyph unicode="&#xe024;" d="M159 861q38 0 65.5 -27.5t27.5 -65.5t-27.5 -65.5t-65.5 -27.5q-39 0 -66 27.5t-27 65.5t27 65.5t66 27.5zM447 831h447q27 0 45.5 -19t18.5 -45t-18.5 -44.5t-45.5 -18.5h-447q-26 0 -45 18.5t-19 44.5t19 45t45 19zM159 605q38 0 65.5 -27.5t27.5 -65.5t-27.5 -65.5 t-65.5 -27.5q-39 0 -66 27.5t-27 65.5t27 65.5t66 27.5zM447 575h447q27 0 45.5 -19t18.5 -45t-18.5 -44.5t-45.5 -18.5h-447q-26 0 -45 18.5t-19 44.5t19 45t45 19zM159 349q38 0 65.5 -27.5t27.5 -65.5t-27.5 -65.5t-65.5 -27.5q-39 0 -66 27.5t-27 65.5t27 65.5t66 27.5z M447 319h447q27 0 45.5 -19t18.5 -45t-18.5 -44.5t-45.5 -18.5h-447q-26 0 -45 18.5t-19 44.5t19 45t45 19z" />
<glyph unicode="&#xe025;" d="M498 832h447q26 0 45 -19t19 -45t-19 -45t-45 -19h-447q-27 0 -45.5 19t-18.5 45t18.5 45t45.5 19zM181 827q73 0 111 -30t38 -98v-293q0 -8 -10 -12q-43 -15 -130 -15q-101 0 -138 25.5t-37 94.5q0 66 24.5 95t102.5 39l88 12q4 1 4 5v32q0 36 -17 48t-62 12 q-44 0 -92 -8q-10 -2 -11 4l-5 62q-2 10 4 11q50 16 130 16zM230 579h-50q-42 0 -56 -13t-14 -55t13.5 -53t58.5 -11q27 0 47 4q5 3 5 6v117q0 5 -4 5zM498 576h447q26 0 45 -19t19 -45t-19 -45t-45 -19h-447q-27 0 -45.5 19t-18.5 45t18.5 45t45.5 19zM498 320h447 q26 0 45 -19t19 -45t-19 -45t-45 -19h-447q-27 0 -45.5 19t-18.5 45t18.5 45t45.5 19z" />
<glyph unicode="&#xe026;" d="M482 832h447q26 0 45 -19t19 -45t-19 -45t-45 -19h-447q-26 0 -45 19t-19 45t19 45t45 19zM141 821h91q6 0 6 -7v-330q0 -4 4 -4h65q7 0 7 -7v-82q0 -7 -7 -7h-263q-6 0 -6 7v82q0 7 6 7h78q4 0 4 4v236q0 3 -4 3l-84 -19q-7 0 -7 6v82q0 6 7 7l88 20q12 2 15 2zM482 576 h447q26 0 45 -19t19 -45t-19 -45t-45 -19h-447q-26 0 -45 19t-19 45t19 45t45 19zM482 320h447q26 0 45 -19t19 -45t-19 -45t-45 -19h-447q-26 0 -45 19t-19 45t19 45t45 19z" />
<glyph unicode="&#xe027;" d="M180 841q42 0 72 -27.5t30 -65.5t-30 -65.5t-72 -27.5q-43 0 -73 27.5t-30 65.5t30 65.5t73 27.5zM500 822h447q27 0 45.5 -18.5t18.5 -44.5t-18.5 -45t-45.5 -19h-447q-26 0 -45 19t-19 45t19 44.5t45 18.5zM264 605v-205q0 -8 2 -10t10 -3l60 -6v-67l-314 -3v67l67 10 q12 1 12 12v111q0 11 -10 14l-78 7l10 69zM500 566h447q27 0 45.5 -18.5t18.5 -44.5t-18.5 -45t-45.5 -19h-447q-26 0 -45 19t-19 45t19 44.5t45 18.5zM500 309h447q27 0 45.5 -18.5t18.5 -44.5t-18.5 -44.5t-45.5 -18.5h-447q-26 0 -45 18.5t-19 44.5t19 44.5t45 18.5z" />
<glyph unicode="&#xe028;" d="M286 893h221q117 0 188 -51.5t71 -147.5q0 -49 -23 -93.5t-65 -68.5v-2q61 -19 90 -67t29 -105q0 -116 -82.5 -171t-207.5 -55h-221q-59 0 -59 58v644q0 59 59 59zM414 733v-135h95q33 0 50 20t17 50q0 28 -17.5 46.5t-52.5 18.5h-92zM414 449v-158h111q39 0 60 23t21 57 t-20.5 56t-59.5 22h-112z" />
<glyph unicode="&#xe029;" d="M605 893h92q37 0 23 -36l-252 -690q-14 -36 -49 -36h-92q-37 0 -23 36l252 690q14 36 49 36z" />
<glyph unicode="&#xe02a;" d="M773 982q57 0 101 -28t45 -76q0 -44 -26 -71t-69 -27t-69 24t-26 62q0 20 6 38q-23 -5 -41 -43q-19 -36 -45 -151h75q13 0 19 -9q7 -9 4 -21l-8 -29q-4 -18 -23 -18h-85q-50 -235 -114 -378q-47 -100 -117.5 -156.5t-149.5 -56.5q-65 0 -105 30.5t-40 80.5q0 44 28 72.5 t71 28.5t65.5 -31t22.5 -75v-25q14 2 22.5 9t24 52.5t31.5 133.5q32 178 65 315h-58q-10 0 -19 9q-6 10 -5 20l6 29q3 19 23 19h73q24 71 61.5 124.5t72 80.5t74.5 43.5t64 20t46 3.5z" />
<glyph unicode="&#xe02b;" d="M479 931h66q36 0 55 -29l42 -62q16 -23 10 -38.5t-29 -15.5h-28q-18 0 -27.5 6.5t-19.5 24.5l-35 56h-2l-37 -56q-16 -31 -46 -31h-27q-23 0 -29 15.5t10 38.5l42 62q19 29 55 29zM526 702q113 0 176.5 -60.5t63.5 -170.5v-317q0 -48 -47 -48h-39q-47 0 -47 48v23l2 25 h-2q-2 -4 -6.5 -11.5t-21 -26.5t-36 -33t-51.5 -26t-68 -12q-81 0 -136.5 48t-55.5 126q0 41 15.5 74t43.5 54t61.5 35.5t73.5 22t74.5 10.5t71.5 3h24v14q0 53 -30 77.5t-79 24.5q-62 0 -121 -33q-45 -19 -64 20l-11 21q-22 42 18 64q91 48 191 48zM623 378h-24 q-198 0 -198 -98q0 -31 23.5 -54t64.5 -23q58 0 96 48t38 105v22z" />
<glyph unicode="&#xe02c;" d="M512 1024q104 0 198.5 -40.5t163.5 -109.5t109.5 -163.5t40.5 -198.5t-40.5 -198.5t-109.5 -163.5t-163.5 -109.5t-198.5 -40.5t-198.5 40.5t-163.5 109.5t-109.5 163.5t-40.5 198.5t40.5 198.5t109.5 163.5t163.5 109.5t198.5 40.5zM512 896q-159 0 -271.5 -112.5 t-112.5 -271.5t112.5 -271.5t271.5 -112.5t271.5 112.5t112.5 271.5t-112.5 271.5t-271.5 112.5z" />
<glyph unicode="&#xe02d;" d="M707 875q37 0 54 -35l258 -602q9 -22 0 -44.5t-31 -31.5q-10 -5 -23 -5q-38 0 -54 35l-54 127h-300l-54 -127q-10 -22 -32 -31t-45 1q-22 9 -31 31.5t1 44.5l258 602q15 35 53 35zM607 435h200l-100 234zM213 547l146 -339q6 -14 0.5 -28t-19.5 -20q-8 -3 -15 -3 q-24 0 -33 22l-32 75h-160l-32 -75q-6 -14 -20 -19.5t-28 0.5t-19.5 20t0.5 28l145 339q9 20 34 20t33 -20zM131 327h98l-49 114z" />
<glyph unicode="&#xe02e;" d="M806 922l103 -107q40 -41 40 -98t-40 -98l-150 -156q-37 -38 -90 -40t-93 33l72 75q23 -12 39 6l151 155q10 10 10 24.5t-10 24.5l-104 107q-10 10 -23.5 10t-23.5 -10l-151 -155q-16 -18 -6 -39l-73 -75q-34 40 -31.5 94.5t39.5 92.5l150 156q40 40 95.5 40t95.5 -40z M703 710q15 -15 15 -36.5t-15 -36.5l-308 -318q-15 -16 -36 -16t-35 16q-15 15 -15 36.5t15 36.5l308 318q15 16 36 16t35 -16zM447 569l-72 -75q-22 10 -38 -7l-151 -155q-10 -10 -10 -24.5t10 -24.5l104 -107q10 -10 23.5 -10t23.5 10l151 155q16 18 6 40l72 75 q34 -41 32 -95.5t-39 -92.5l-150 -156q-40 -40 -95.5 -40t-95.5 40l-103 107q-40 41 -40 98t40 98l150 156q37 38 89.5 40.5t92.5 -32.5z" />
<glyph unicode="&#xe02f;" d="M431 760q8 0 12 -4q5 -3 5 -10v-96q0 -10 -10 -13q-55 -16 -75 -50q-17 -28 -20 -72h90q15 0 15 -13v-225q0 -13 -15 -13h-226q-14 0 -14 13v224q-2 52 16 95q18 46 50 79q33 34 76 56q40 21 96 29zM816 760q7 0 11 -4q5 -3 5 -10v-96q0 -10 -10 -13q-54 -17 -74 -50 q-18 -30 -21 -72h91q14 0 14 -13v-225q0 -13 -14 -13h-226q-15 0 -15 13v224q-1 49 16 95q17 43 50 79q31 33 76 56q42 21 97 29z" />
<glyph unicode="&#xe030;" d="M911 986l45 -14q17 -5 26 -21.5t4 -33.5l-104 -408l-8 -22q12 -36 2 -73q-23 -72 -88 -107q-72 -37 -167 -7l-78 25l58 52q27 27 54 107q12 37 43 59l7 22l149 394q7 17 23.5 25t33.5 2zM173 972q39 0 73.5 -13t57.5 -32.5t36.5 -35t21.5 -29.5h360q13 0 22 -9t9 -22 t-9 -22t-22 -9h-467v-578h219q25 0 39.5 -22.5t18.5 -42.5h238v51q0 13 9 22t22 9t22 -9t9 -22v-82q0 -14 -9 -22q-10 -10 -22 -10h-267v-32q0 -13 -9.5 -22.5t-22.5 -9.5q-95 0 -165 86q-68 -86 -164 -86q-95 0 -118.5 23.5t-23.5 118.5q0 100 96 173q-41 68 -41 156 t41 156q-96 73 -96 174q0 95 23.5 118t118.5 23zM790 660l76 -24l76 292l-44 14zM749 551l89 -28l23 90l-79 25zM829 478l-99 31q-23 -13 -31 -39q-29 -89 -64 -125q77 -25 128 1.5t68 81.5q8 24 -2 50z" />
<glyph unicode="&#xe031;" d="M896 960q26 0 45 -19t19 -45v-768q0 -26 -19 -45t-45 -19t-45 19t-19 45v768q0 26 19 45t45 19zM414 829l271 -272q19 -19 19 -45t-19 -45l-271 -272q-19 -19 -45.5 -19t-45.5 19t-19 45.5t19 45.5l162 162h-357q-26 0 -45 19t-19 45t19 45t45 19h357l-162 162 q-19 19 -19 45.5t19 45.5t45.5 19t45.5 -19z" />
<glyph unicode="&#xe032;" d="M128 960q26 0 45 -19t19 -45v-768q0 -26 -19 -45t-45 -19t-45 19t-19 45v768q0 26 19 45t45 19zM701 829q19 -19 19 -45.5t-19 -45.5l-162 -162h357q26 0 45 -19t19 -45t-19 -45t-45 -19h-357l162 -162q19 -19 19 -45.5t-19 -45.5t-45.5 -19t-45.5 19l-271 272 q-19 19 -19 45t19 45l271 272q19 19 45.5 19t45.5 -19z" />
<glyph unicode="&#xe033;" d="M196 960h636q26 0 45 -19t19 -45v-192q0 -26 -19 -45t-45 -19h-636q-26 0 -45 19t-19 45v192q0 26 19 45t45 19zM64 544h896q14 0 23 -9t9 -23t-9 -23t-23 -9h-896q-14 0 -23 9t-9 23t9 23t23 9zM196 384h636q26 0 45 -19t19 -45v-192q0 -26 -19 -45t-45 -19h-636 q-26 0 -45 19t-19 45v192q0 26 19 45t45 19z" />
<glyph unicode="&#xe040;" d="M128 1024h768q53 0 90.5 -37.5t37.5 -90.5v-768q0 -53 -37.5 -90.5t-90.5 -37.5h-768q-53 0 -90.5 37.5t-37.5 90.5v768q0 53 37.5 90.5t90.5 37.5zM128 896v-362q120 -9 248.5 -42t205.5 -71l3 -2q167 47 311 58v419h-768zM673 799q52 0 89.5 -37.5t37.5 -90.5t-37 -90 t-90 -37t-90.5 37t-37.5 90t37.5 90.5t90.5 37.5zM673 735q-26 0 -45 -19t-19 -45t19 -44.5t45 -18.5t44.5 18.5t18.5 44.5t-18.5 45t-44.5 19zM128 470v-229q169 88 361 150q-177 66 -361 79zM896 128v285q-160 -13 -373 -78.5t-395 -166.5v-40h768z" />
<glyph unicode="&#xe041;" d="M128 1024h768q53 0 90.5 -37.5t37.5 -90.5v-768q0 -53 -37.5 -90.5t-90.5 -37.5h-768q-53 0 -90.5 37.5t-37.5 90.5v768q0 53 37.5 90.5t90.5 37.5zM128 896v-192h192v192h-192zM384 896v-192h256v192h-256zM704 896v-192h192v192h-192zM128 640v-256h192v256h-192z M384 640v-256h256v256h-256zM704 640v-256h192v256h-192zM128 320v-192h192v192h-192zM384 320v-192h256v192h-256zM704 320v-192h192v192h-192z" />
<glyph unicode="&#xe042;" d="M674 1022q28 0 52 -12q33 -17 51.5 -49t14.5 -69l-19 -213l187 -103q32 -18 48.5 -51t11.5 -70t-30 -64t-61 -35l-209 -47l-40 -210q-7 -37 -33.5 -62.5t-62.5 -32.5q-14 -2 -21 -2q-31 0 -58.5 15.5t-43.5 42.5l-109 184l-213 -26q-5 -1 -14 -1q-33 0 -61 17t-44 46 q-17 32 -13 69t28 65l142 160l-91 194q-16 34 -10 70.5t32 62.5q34 36 85 36q25 0 47 -9l197 -85l156 147q34 32 81 32zM461 703l-268 116l124 -265l-192 -219l289 36l149 -250l55 286l285 65l-256 140l27 291z" />
<glyph unicode="&#xe043;" d="M128 1024h768q53 0 90.5 -37.5t37.5 -90.5v-768q0 -53 -37.5 -90.5t-90.5 -37.5h-768q-53 0 -90.5 37.5t-37.5 90.5v768q0 53 37.5 90.5t90.5 37.5zM128 896v-128h768v128h-768zM128 704v-112h101v112h-101zM261 704v-112h102v112h-102zM395 704v-112h101v112h-101z M528 704v-112h101v112h-101zM661 704v-112h102v112h-102zM795 704v-112h101v112h-101zM128 560v-128h101v128h-101zM261 560v-128h102v128h-102zM395 560v-128h101v128h-101zM528 560v-128h101v128h-101zM661 560v-128h102v128h-102zM795 560v-128h101v128h-101zM128 400 v-128h101v128h-101zM261 400v-128h102v128h-102zM395 400v-128h101v128h-101zM528 400v-128h101v128h-101zM661 400v-128h102v128h-102zM795 400v-128h101v128h-101zM128 240v-112h101v112h-101zM261 240v-112h102v112h-102zM395 240v-112h101v112h-101zM528 240v-112h101 v112h-101zM661 240v-112h102v112h-102zM795 240v-112h101v112h-101z" />
<glyph unicode="&#xe044;" d="M864 992q14 0 23 -9t9 -23v-32q53 0 90.5 -37.5t37.5 -90.5v-640q0 -53 -37.5 -90.5t-90.5 -37.5h-768q-53 0 -90.5 37.5t-37.5 90.5v640q0 53 37.5 90.5t90.5 37.5v32q0 14 9 23t23 9t23 -9t9 -23v-32h77v32q0 14 9.5 23t22.5 9t22.5 -9.5t9.5 -22.5v-32h77v32 q0 14 9 23t23 9q13 0 22.5 -9.5t9.5 -22.5v-32h76v32q0 13 9.5 22.5t22.5 9.5q14 0 23 -9t9 -23v-32h77v32q0 13 9.5 22.5t22.5 9.5t22.5 -9t9.5 -23v-32h77v32q0 14 9 23t23 9zM128 800v-128h768v128h-768zM128 608v-448h768v448h-768zM352 544q14 0 23 -9t9 -23v-256 q0 -14 -9 -23t-23 -9t-23 9t-9 23v256q0 14 9 23t23 9zM512 544h192q17 0 27 -15q10 -16 2 -31l-128 -256q-10 -18 -29 -18q-8 0 -14 3q-12 6 -16.5 19t1.5 24l105 210h-140q-14 0 -23 9t-9 23t9 23t23 9z" />
<glyph unicode="&#xe045;" d="M512 1024q26 0 45 -19t19 -45t-19 -45t-45 -19t-45 19t-19 45t19 45t45 19zM704 1024q26 0 45 -19t19 -45t-19 -45t-45 -19t-45 19t-19 45t19 45t45 19zM896 1024h64q26 0 45 -19t19 -45v-64q0 -26 -19 -45t-45 -19t-45 19t-19 45q-26 0 -45 19t-19 45t19 45t45 19z M70 769q47 36 99 48.5t98 4.5t91 -26.5t80.5 -43.5t62.5 -47.5t42 -38.5l15 -15l109 82l22 -405l-384 131l118 89q-55 72 -98 117q-37 38 -76.5 63t-70 33t-56 10.5t-38.5 0.5zM960 768q26 0 45 -19t19 -45t-19 -45t-45 -19t-45 19t-19 45t19 45t45 19zM960 576q26 0 45 -19 t19 -45t-19 -45t-45 -19t-45 19t-19 45t19 45t45 19zM64 384q26 0 45 -19t19 -45t-19 -45t-45 -19t-45 19t-19 45t19 45t45 19zM960 384q26 0 45 -19t19 -45t-19 -45t-45 -19t-45 19t-19 45t19 45t45 19zM64 192q26 0 45 -19t19 -45q26 0 45 -19t19 -45t-19 -45t-45 -19h-64 q-26 0 -45 19t-19 45v64q0 26 19 45t45 19zM960 192q26 0 45 -19t19 -45v-64q0 -26 -19 -45t-45 -19h-64q-26 0 -45 19t-19 45t19 45t45 19q0 26 19 45t45 19zM320 128q26 0 45 -19t19 -45t-19 -45t-45 -19t-45 19t-19 45t19 45t45 19zM512 128q26 0 45 -19t19 -45t-19 -45 t-45 -19t-45 19t-19 45t19 45t45 19zM704 128q26 0 45 -19t19 -45t-19 -45t-45 -19t-45 19t-19 45t19 45t45 19z" />
<glyph unicode="&#xe046;" d="M827 732h-85q-10 35 -21 68q-10 27 -23 45q-14 18 -37 29q-21 10 -57 10h-170l184 -292v-46l-231 -307h256q25 0 39 3t24 12q9 7 21 25q11 17 18 40q8 25 11 47h92l-22 -302h-650v57l277 374l-256 408v57h630v-228z" />
<glyph unicode="&#xe047;" d="M645 994l30 17q154 -52 251.5 -185t97.5 -301q0 -139 -68.5 -257t-186.5 -186.5t-257 -68.5q-44 0 -97 10q135 15 211.5 87t76.5 162q0 44 -18 80.5t-37.5 56t-57.5 51.5l-48 38q-35 28 -35 58q0 27 37 66q27 21 42.5 35.5t34.5 38t27.5 52.5t8.5 64q0 47 -19.5 88 t-35 57t-40.5 37h83zM370 998q52 0 92.5 -42.5t58.5 -97.5t18 -107q0 -65 -34 -98q-36 -38 -91 -38q-54 0 -94 42t-57 95t-17 102q0 62 30 99q35 45 94 45zM153 891q-25 -53 -25 -103q0 -84 61 -147.5t162 -63.5q6 0 13 0.5t16 1.5t14 1q-14 -32 -14 -52q0 -19 7.5 -38 t13.5 -27.5t20 -26.5q-50 -3 -79 -6t-84.5 -17.5t-93.5 -37.5q-70 -42 -93 -109q-71 120 -71 259q0 105 40.5 200t112.5 166zM436 399q20 0 30 -2q85 -59 116 -94t31 -83q0 -64 -52 -104.5t-146 -40.5q-106 0 -171 46t-65 118q0 94 115 138q66 22 142 22z" />
<glyph unicode="&#xe048;" d="M256 1024h304q55 0 93 -40l208 -224q35 -37 35 -88v-544q0 -53 -37.5 -90.5t-90.5 -37.5h-512q-53 0 -90.5 37.5t-37.5 90.5v768q0 53 37.5 90.5t90.5 37.5zM256 896v-768h512v512h-224q-14 0 -23 9t-9 23v224h-256zM576 704h162l-162 175v-175zM640 448h-256v64h256v-64 zM576 320h-192v64h192v-64z" />
<glyph unicode="&#xe049;" d="M960 1024q48 0 56 -8t8 -56q0 -57 -16 -121t-32 -99l-16 -36q3 -3 7 -8t15 -23t19.5 -38.5t15.5 -53.5t7 -69q0 -57 -16 -105t-32 -67l-16 -20q7 -14 17.5 -39t28.5 -92.5t18 -124.5q0 -48 -8 -56t-56 -8q-57 0 -121 16t-99 32l-36 16q-3 -3 -8 -7t-23 -15t-38.5 -19.5 t-53.5 -15.5t-69 -7q-57 0 -105 16t-67 32l-20 16q-14 -7 -39 -17.5t-92.5 -28.5t-124.5 -18q-48 0 -56 8t-8 56q0 57 16 121t32 99l16 36q-3 3 -7 8t-15 23t-19.5 38.5t-15.5 53.5t-7 69q0 57 16 105t32 67l16 20q-7 14 -17.5 39t-28.5 92.5t-18 124.5q0 48 8 56t56 8 q57 0 121 -16t99 -32l36 -16q3 3 8 7t23 15t38.5 19.5t53.5 15.5t69 7q57 0 105 -16t67 -32l20 -16q14 7 39 17.5t92.5 28.5t124.5 18zM832 896h-640q-26 0 -45 -19t-19 -45v-640q0 -26 19 -45t45 -19h640q26 0 45 19t19 45v640q0 26 -19 45t-45 19zM320 768h384 q26 0 45 -19t19 -45t-19 -45t-45 -19h-128v-320q0 -26 -19 -45t-45 -19t-45 19t-19 45v320h-128q-26 0 -45 19t-19 45t19 45t45 19z" />
<glyph unicode="&#xe04a;" d="M128 1024h768q53 0 90.5 -37.5t37.5 -90.5v-768q0 -53 -37.5 -90.5t-90.5 -37.5h-768q-53 0 -90.5 37.5t-37.5 90.5v768q0 53 37.5 90.5t90.5 37.5zM128 896v-768h768v768h-768zM736 512l-415 -191v382z" />
<glyph unicode="&#xe04b;" d="M512 960q82 0 119.5 -0.5t98.5 -4t86.5 -12t66 -23t55.5 -37.5t37.5 -55.5t29.5 -78.5t13 -104t6 -133t-6 -133t-13 -104t-29.5 -78.5t-37.5 -55.5t-55.5 -37.5t-66 -23t-86.5 -12t-98.5 -4t-119.5 -0.5t-119.5 0.5t-98.5 4t-86.5 12t-66 23t-55.5 37.5t-37.5 55.5 t-29.5 78.5t-13 104t-6 133q0 97 10 166t22.5 118.5t50 80t65 48t97 25t116.5 9t151 1.5zM321 321l415 191l-415 191v-382z" />
<glyph unicode="&#xe04c;" d="M813 882q134 -5 125 -172q-4 -125 -175 -344q-174 -228 -296 -228q-75 0 -127 139l-69 255q-39 139 -83 139q-11 0 -67 -40l-41 52q45 39 126 112q85 74 126 77q50 5 81 -29t43 -108q22 -144 34 -197q28 -132 64 -132q26 0 81 85q54 88 57 130q7 73 -57 73q-32 0 -64 -13 q63 207 242 201z" />
<glyph unicode="&#xe04d;" d="M64 1008h896q20 0 34 -14t14 -34v-896q0 -20 -14 -34t-34 -14h-896q-20 0 -34 14t-14 34v896q0 20 14 34t34 14zM112 912v-228q153 55 368 101v127h-368zM912 912h-368v-368h137q2 67 27 96q-28 26 -28 64q0 37 25.5 62.5t62.5 25.5t62.5 -25.5t25.5 -62.5q0 -38 -28 -64 q24 -28 28 -96h56v368zM728 704q0 -16 12 -28t28 -12t28 12t12 28t-12 28t-28 12t-28 -12t-12 -28zM112 544h368v192q-234 -53 -368 -103v-89zM768 616q-21 0 -29 -15.5t-10 -56.5h78q-2 41 -10 56.5t-29 15.5zM112 112h368v368h-368v-368zM544 480v-201q171 -8 368 -100 v301h-368zM352 432q33 0 56.5 -23.5t23.5 -56.5t-23.5 -56.5t-56.5 -23.5t-56.5 23.5t-23.5 56.5t23.5 56.5t56.5 23.5zM352 320q14 0 23 9t9 23t-9 23t-23 9t-23 -9t-9 -23t9 -23t23 -9zM912 112v14q-198 96 -368 105v-119h368z" />
<glyph unicode="&#xe04e;" d="M55 793v176q185 0 354 -72.5t291.5 -194.5t195.5 -291.5t74 -355.5h-177q-1 150 -59.5 286.5t-157.5 235.5t-235 157.5t-286 58.5zM55 481v176q122 0 233.5 -47.5t192 -128.5t128.5 -192.5t49 -233.5h-176q-2 177 -125 300q-126 126 -302 126zM176 299q51 0 86.5 -35.5 t35.5 -86.5q0 -50 -35.5 -86t-86.5 -36q-50 0 -86 36t-36 86q0 51 36 86.5t86 35.5z" />
<glyph unicode="&#xe04f;" d="M512 1024q104 0 198.5 -40.5t163.5 -109.5t109.5 -163.5t40.5 -198.5t-40.5 -198.5t-109.5 -163.5t-163.5 -109.5t-198.5 -40.5t-198.5 40.5t-163.5 109.5t-109.5 163.5t-40.5 198.5t40.5 198.5t109.5 163.5t163.5 109.5t198.5 40.5zM407 881q-98 -27 -169 -100 q40 -23 82 -38q33 78 87 138zM617 881q55 -61 86 -138q43 15 83 38q-71 73 -169 100zM482 710v161q-66 -57 -104 -146q51 -12 104 -15zM542 871v-161q53 3 104 15q-38 89 -104 146zM199 734q-62 -87 -69 -192h146q4 75 24 144q-54 20 -101 48zM825 734q-47 -28 -101 -48 q20 -69 24 -144h146q-7 105 -69 192zM358 668q-18 -60 -21 -126h145v108q-64 3 -124 18zM666 668q-60 -15 -124 -18v-108h145q-3 66 -21 126zM276 482h-146q7 -105 69 -192q47 28 101 48q-20 69 -24 144zM482 482h-145q3 -66 21 -126q60 15 124 18v108zM542 482v-108 q64 -3 124 -18q18 60 21 126h-145zM894 482h-146q-4 -75 -24 -144q54 -20 101 -48q62 87 69 192zM482 153v161q-53 -3 -104 -15q38 -89 104 -146zM542 314v-161q66 57 104 146q-51 12 -104 15zM320 282q-45 -18 -82 -39q71 -73 169 -100q-55 61 -87 139zM703 281 q-31 -77 -86 -138q98 27 169 100q-40 23 -83 38z" />
<glyph unicode="&#xe050;" d="M192 920h640q53 0 90.5 -37.5t37.5 -90.5v-384q0 -53 -37.5 -90.5t-90.5 -37.5h-138l-217 -166q-11 -10 -29 -10q-14 0 -21 5q-27 13 -27 43v128h-208q-53 0 -90.5 37.5t-37.5 90.5v384q0 53 37.5 90.5t90.5 37.5zM192 792v-384h256q20 0 34 -14t14 -34v-111l195 149 q14 12 37 10h104v384h-640z" />
<glyph unicode="&#xe051;" d="M160 984h448q53 0 90.5 -37.5t37.5 -90.5v-128h128q53 0 90.5 -37.5t37.5 -90.5v-256q0 -53 -37.5 -90.5t-90.5 -37.5h-138l-217 -166q-11 -10 -29 -10q-14 0 -21 5q-27 13 -27 43v128h-80q-53 0 -90.5 37.5t-37.5 90.5v128h-64q-53 0 -90.5 37.5t-37.5 90.5v256 q0 53 37.5 90.5t90.5 37.5zM160 856v-256h64q0 53 37.5 90.5t90.5 37.5h256v128h-448zM352 600v-256h128q20 0 34 -14t14 -34v-111l195 149q14 12 37 10h104v256h-512z" />
<glyph unicode="&#xe052;" d="M768 984q93 0 158.5 -66t65.5 -158q0 -90 -64 -157v-259q0 -53 -37.5 -90.5t-90.5 -37.5h-138l-217 -166q-11 -10 -29 -10q-14 0 -21 5q-27 13 -27 43v128h-208q-53 0 -90.5 37.5t-37.5 90.5v384q0 53 37.5 90.5t90.5 37.5h406q28 57 82 92.5t120 35.5zM768 920 q-78 0 -127 -64q-4 -4 -12 -19l-3 -6q-2 -3 -4 -8t-4 -8q-2 -10 -4 -13l-3 -13q-3 -15 -3 -29q0 -17 3 -32q11 -55 55.5 -91.5t101.5 -36.5q17 0 32 3q2 0 3 1q8 1 24 7l10 5q5 2 15 8q6 3 11 8q4 2 10 8q4 3 12 11q1 2 4 5q33 39 37 88q2 10 2 16q0 66 -47 113t-113 47z M768 856q13 0 22.5 -9.5t9.5 -22.5v-32h32q13 0 22.5 -9.5t9.5 -22.5q0 -14 -9 -23t-23 -9h-32v-32q0 -14 -9 -23t-23 -9t-23 9t-9 23v32h-32q-14 0 -23 9t-9 23q0 13 9.5 22.5t22.5 9.5h32v32q0 13 9.5 22.5t22.5 9.5zM160 728v-384h256q20 0 34 -14t14 -34v-111l195 149 q14 12 37 10h104v195q-16 -3 -32 -3q-84 0 -146.5 55t-74.5 137h-387z" />
<glyph unicode="&#xe053;" d="M768 984q93 0 158.5 -66t65.5 -158q0 -90 -64 -157v-259q0 -53 -37.5 -90.5t-90.5 -37.5h-138l-217 -166q-11 -10 -29 -10q-14 0 -21 5q-27 13 -27 43v128h-208q-53 0 -90.5 37.5t-37.5 90.5v384q0 53 37.5 90.5t90.5 37.5h406q28 57 82 92.5t120 35.5zM768 920 q-78 0 -127 -64q-4 -4 -12 -19l-3 -6q-2 -3 -4 -8t-4 -8q-2 -10 -4 -13l-3 -13q-3 -15 -3 -29q0 -17 3 -32q11 -55 55.5 -91.5t101.5 -36.5q17 0 32 3q2 0 3 1q8 1 24 7l10 5q5 2 15 8q6 3 11 8q4 2 10 8q4 3 12 11q1 2 4 5q33 39 37 88q2 10 2 16q0 66 -47 113t-113 47z M836 828q9 -10 9 -23t-9 -23l-23 -22l23 -23q9 -9 9 -22.5t-9 -22.5q-10 -10 -23 -10t-22 10l-23 22l-23 -22q-9 -10 -22 -10t-23 10q-9 9 -9 22.5t9 22.5l23 23l-23 22q-9 10 -9 23t9 23q10 9 23 9t22 -9l23 -23l23 23q9 9 22 9t23 -9zM160 728v-384h256q20 0 34 -14 t14 -34v-111l195 149q14 12 37 10h104v195q-16 -3 -32 -3q-84 0 -146.5 55t-74.5 137h-387z" />
<glyph unicode="&#xe054;" d="M160 1024h304q55 0 93 -40l141 -152h166q53 0 90.5 -37.5t37.5 -90.5v-256q0 -53 -37.5 -90.5t-90.5 -37.5h-160l-149 -103q-12 -9 -28 -9q-11 0 -22 6q-26 13 -26 42v64h-127q-53 0 -90.5 37.5t-37.5 90.5v256q0 53 37.5 90.5t90.5 37.5h192l-64 64h-320v-768h512v64 l128 64v-128q0 -53 -37.5 -90.5t-90.5 -37.5h-512q-53 0 -90.5 37.5t-37.5 90.5v768q0 53 37.5 90.5t90.5 37.5zM352 704v-256h174h1h1h16v-3q31 -12 31 -45v-52l134 92q11 8 27 8h128v256h-512z" />
<glyph unicode="&#xe055;" d="M416 992h320q19 0 27 -16q10 -17 0 -32l-163 -272h200q21 0 29 -19q9 -19 -5 -34l-512 -576q-11 -11 -24 -11q-8 0 -18 5q-22 14 -12 40l173 403h-207q-18 0 -27 14q-10 14 -3 31l192 448q9 19 30 19z" />
<glyph unicode="&#xe056;" d="M583 943h147q11 0 14 -8q5 -8 0 -16l-74 -126h90q10 0 15 -10q4 -9 -3 -17l-236 -270q-4 -6 -12 -6q-4 0 -9 3q-11 7 -6 20l79 188h-94q-9 0 -13 7q-5 6 -1 15l88 210q5 10 15 10zM832 385v512q53 0 90.5 -37.5t37.5 -90.5v-384q0 -53 -37.5 -90.5t-90.5 -37.5h-138 l-217 -166q-13 -10 -29 -10q-11 0 -21 5q-27 13 -27 43v128h-208q-53 0 -90.5 37.5t-37.5 90.5v384q0 53 37.5 90.5t90.5 37.5h256l-56 -128h-200v-384h256q20 0 34 -14t14 -34v-111l195 150q17 12 37 9h104z" />
<glyph unicode="&#xe057;" d="M312 1024h304q55 0 93 -40l208 -224q35 -37 35 -88v-544q0 -53 -37.5 -90.5t-90.5 -37.5h-576q-26 0 -45 19t-19 45t19 45t45 19h576v512h-224q-13 0 -22.5 9.5t-9.5 22.5v224h-256v-82h-128v82q0 53 37.5 90.5t90.5 37.5zM632 704h162l-162 175v-175zM204 755h192 q11 0 14 -8q5 -8 0 -16l-101 -172h126q10 0 15 -9q4 -10 -3 -17l-308 -353q-4 -5 -12 -5q-6 0 -9 2q-11 8 -6 20l106 252h-130q-9 0 -13 7q-5 6 -1 15l115 274q5 10 15 10z" />
<glyph unicode="&#xe058;" d="M768 992q93 0 158.5 -65.5t65.5 -158.5t-65.5 -158.5t-158.5 -65.5q-90 0 -156 64h-516q-26 0 -45 19t-19 45v192q0 26 19 45t45 19h516q66 64 156 64zM768 608q66 0 113 47t47 113t-47 113t-113 47t-113 -47t-47 -113t47 -113t113 -47zM800 800h32q14 0 23 -9t9 -23 t-9 -23t-23 -9h-32v-32q0 -14 -9 -23t-23 -9t-23 9t-9 23v32h-32q-14 0 -23 9t-9 23t9 23t23 9h32v32q0 14 9 23t23 9t23 -9t9 -23v-32zM448 416h-384q-14 0 -23 9t-9 23t9 23t23 9h384q14 0 23 -9t9 -23t-9 -23t-23 -9zM64 352h704q14 0 23 -9t9 -23t-9 -23t-23 -9h-704 q-14 0 -23 9t-9 23t9 23t23 9zM64 224h512q14 0 23 -9t9 -23t-9 -23t-23 -9h-512q-14 0 -23 9t-9 23t9 23t23 9zM64 96h320q14 0 23 -9t9 -23t-9 -23t-23 -9h-320q-14 0 -23 9t-9 23t9 23t23 9z" />
<glyph unicode="&#xe059;" d="M300 928q84 0 146.5 -55t73.5 -137h4h320q26 0 45 -18.5t19 -45.5q0 -26 -19 -45t-45 -19h-320q-7 0 -21 4q-17 -38 -47 -68h68q26 0 45 -18.5t19 -45.5q0 -26 -19 -45t-45 -19h-320q-27 0 -45.5 19t-18.5 45q0 30 23 48q-40 31 -63.5 77.5t-23.5 98.5q0 93 65.5 158.5 t158.5 65.5zM300 864q-67 0 -113.5 -46.5t-46.5 -113.5q0 -66 46.5 -113t113.5 -47q66 0 113 47t47 113q0 67 -47 113.5t-113 46.5zM300 800q13 0 22.5 -9.5t9.5 -22.5v-32h32q13 0 22.5 -9.5t9.5 -22.5t-9.5 -22.5t-22.5 -9.5h-32v-32q0 -13 -9.5 -22.5t-22.5 -9.5 t-22.5 9.5t-9.5 22.5v32h-32q-13 0 -22.5 9.5t-9.5 22.5q0 14 9 23t23 9h32v32q0 14 9 23t23 9zM806 544q56 0 99 -37t43 -99q0 -27 -8.5 -49t-24.5 -38.5t-26.5 -24t-27.5 -18.5l-8 -5v-14q0 -19 -13.5 -33t-33.5 -14t-34 13.5t-14 33.5v30q0 18 9.5 32.5t19.5 21.5t25 16 q23 15 32 24.5t9 24.5q0 18 -12 28t-20 11.5t-15 1.5q-8 0 -16.5 -1.5t-20 -11.5t-11.5 -28q0 -20 -13.5 -34t-33.5 -14t-34 14t-14 34q0 63 43 99.5t100 36.5zM204 352h320q26 0 45 -18.5t19 -45.5q0 -26 -19 -45t-45 -19h-320q-27 0 -45.5 19t-18.5 45q0 27 18.5 45.5 t45.5 18.5zM806 191q19 0 33 -14t14 -34q0 -19 -13.5 -33t-33.5 -14t-34 13.5t-14 33.5t14 34t34 14z" />
<glyph unicode="&#xe05a;" d="M832 939q26 0 45 -19t19 -45v-32q0 -26 -19 -45t-45 -19t-45 19t-19 45v32q0 26 19 45t45 19zM832 763q23 0 52.5 -8.5t46 -15.5t20.5 -10q9 -5 9 -14v-101q0 -16 -16 -16h-224q-16 0 -16 16v101q0 9 9 14q4 3 20.5 10t46 15.5t52.5 8.5zM192 747q26 0 45 -19t19 -45v-32 q0 -26 -19 -45t-45 -19t-45 19t-19 45v32q0 26 19 45t45 19zM512 619q26 0 45 -19t19 -45v-32q0 -26 -19 -45t-45 -19t-45 19t-19 45v32q0 26 19 45t45 19zM192 571q12 0 26.5 -2.5t26.5 -6t24.5 -8t21 -8t14.5 -6.5l6 -3q9 -5 9 -14v-102q0 -6 -4.5 -11t-11.5 -5h-224 q-7 0 -11.5 5t-4.5 11v102q0 9 9 14l6 3q6 3 14.5 6.5t21 8t24.5 8t26.5 6t26.5 2.5zM705 534h254l1 -1v-446q0 -1 -1 -1h-254q-1 0 -1 1v446q0 1 1 1zM512 443q12 0 26.5 -2.5t26.5 -6t24.5 -8t21 -8t14.5 -6.5l6 -3q9 -5 9 -14v-102q0 -6 -4.5 -11t-11.5 -5h-224 q-7 0 -11.5 5t-4.5 11v102q0 9 9 14l6 3q6 3 14.5 6.5t21 8t24.5 8t26.5 6t26.5 2.5zM65 342h254l1 -1v-254q0 -1 -1 -1h-254q-1 0 -1 1v254q0 1 1 1zM385 214h254l1 -1v-126q0 -1 -1 -1h-254q-1 0 -1 1v126q0 1 1 1z" />
<glyph unicode="&#xe05b;" d="M384 1024h304q55 0 93 -40l208 -224q35 -37 35 -88v-544q0 -53 -37.5 -90.5t-90.5 -37.5h-576q-26 0 -45 19t-19 45t19 45t45 19h576v512h-224q-14 0 -23 9t-9 23v224h-256v-82h-128v82q0 53 37.5 90.5t90.5 37.5zM704 704h162l-162 175v-175zM128 768h192q40 0 68 -28 t28 -68v-192q0 -40 -28 -68t-68 -28h-192q-40 0 -68 28t-28 68v192q0 40 28 68t68 28zM128 672v-192h192v192h-192zM640 576q80 0 136 -56t56 -136t-56 -136t-136 -56t-136 56t-56 136t56 136t136 56zM640 512q-53 0 -90.5 -37.5t-37.5 -90.5t37.5 -90.5t90.5 -37.5 t90.5 37.5t37.5 90.5t-37.5 90.5t-90.5 37.5zM320 336q33 0 56.5 -23.5t23.5 -56.5t-23.5 -56.5t-56.5 -23.5t-56.5 23.5t-23.5 56.5t23.5 56.5t56.5 23.5zM320 304q-20 0 -34 -14t-14 -34t14 -34t34 -14t34 14t14 34t-14 34t-34 14z" />
<glyph unicode="&#xe05c;" d="M960 576v-384q26 0 45 -19t19 -45t-19 -45t-45 -19h-832q-26 0 -45 19t-19 45v768q0 26 19 45t45 19t45 -19t19 -45v-704h64v576q0 26 19 45t45 19h192q26 0 45 -19t19 -45v-576h64v384q0 26 19 45t45 19h192q26 0 45 -19t19 -45zM320 672h192v96h-192v-96zM320 416h192 v192h-192v-192zM704 480h192v96h-192v-96zM704 192h192v224h-192v-224zM320 192h192v160h-192v-160z" />
<glyph unicode="&#xe05d;" d="M199 983l64 -64q9 -9 9 -23v-128q0 -14 -9 -23t-23 -9h-128q-14 0 -23 9t-9 23v192q0 14 9 23t23 9h64q14 0 23 -9zM169 944h-41v-160h96v105zM880 800h-448q-26 0 -45 19t-19 45t19 45t45 19h448q26 0 45 -19t19 -45t-19 -45t-45 -19zM199 631l64 -64q9 -9 9 -23v-128 q0 -14 -9 -23t-23 -9h-128q-14 0 -23 9t-9 23v192q0 14 9 23t23 9h64q14 0 23 -9zM169 592h-41v-160h96v105zM432 576h448q26 0 45 -19t19 -45t-19 -45t-45 -19h-448q-26 0 -45 19t-19 45t19 45t45 19zM199 279l64 -64q9 -9 9 -23v-128q0 -14 -9 -23t-23 -9h-128 q-14 0 -23 9t-9 23v192q0 14 9 23t23 9h64q14 0 23 -9zM169 240h-41v-160h96v105zM432 224h448q26 0 45 -19t19 -45t-19 -45t-45 -19h-448q-26 0 -45 19t-19 45t19 45t45 19z" />
<glyph unicode="&#xe05e;" d="M846 735q14 0 23 9l64 64q10 9 10 22.5t-10 22.5l-64 64q-9 10 -22.5 10t-22.5 -10q-10 -9 -10 -22.5t10 -22.5l41 -41l-41 -42q-10 -9 -10 -22.5t10 -22.5q9 -9 22 -9zM142 767h512q27 0 45.5 18.5t18.5 45.5q0 26 -18.5 45t-45.5 19h-512q-26 0 -45 -19t-19 -45 q0 -27 19 -45.5t45 -18.5zM846 415q14 0 23 9l64 64q10 9 10 22.5t-10 22.5l-64 64q-9 10 -22.5 10t-22.5 -10q-10 -9 -10 -22.5t10 -22.5l41 -41l-41 -42q-10 -9 -10 -22.5t10 -22.5q9 -9 22 -9zM142 447h512q27 0 45.5 18.5t18.5 45.5q0 26 -18.5 45t-45.5 19h-512 q-26 0 -45 -19t-19 -45q0 -27 19 -45.5t45 -18.5zM846 95q14 0 23 9l64 64q10 9 10 22.5t-10 22.5l-64 64q-9 10 -22.5 10t-22.5 -10q-10 -9 -10 -22.5t10 -22.5l41 -41l-41 -42q-10 -9 -10 -22.5t10 -22.5q9 -9 22 -9zM142 127h512q27 0 45.5 18.5t18.5 45.5q0 26 -18.5 45 t-45.5 19h-512q-26 0 -45 -19t-19 -45q0 -27 19 -45.5t45 -18.5z" />
<glyph unicode="&#xe060;" d="M137 927h248q29 0 49 -18l71 -109h382q57 0 97 -37.5t40 -90.5v-447q0 -53 -40 -90.5t-97 -37.5h-750q-57 0 -97 37.5t-40 90.5v575q0 53 40 90t97 37zM128 702h282l-22 31l-43 67h-217v-98zM128 673v-450h768v450h-768z" />
<glyph unicode="&#xe061;" d="M137 927h248q29 0 49 -18l71 -109h382q57 0 97 -37.5t40 -90.5v-447q0 -53 -40 -90.5t-97 -37.5h-750q-57 0 -97 37.5t-40 90.5v575q0 53 40 90t97 37zM128 702h282l-22 31l-43 67h-217v-98zM128 673v-450h768v450h-768zM480 609q14 0 23 -9.5t9 -22.5v-96h96 q14 0 23 -9.5t9 -22.5t-9.5 -22.5t-22.5 -9.5h-96v-96q0 -13 -9.5 -22.5t-22.5 -9.5t-22.5 9.5t-9.5 22.5v96h-96q-13 0 -22.5 9.5t-9.5 22.5t9 22.5t23 9.5h96v96q0 13 9 22.5t23 9.5z" />
<glyph unicode="&#xe062;" d="M137 927h248q29 0 49 -18l71 -109h382q57 0 97 -37.5t40 -90.5v-447q0 -53 -40 -90.5t-97 -37.5h-750q-57 0 -97 37.5t-40 90.5v575q0 53 40 90t97 37zM128 702h282l-22 31l-43 67h-217v-98zM128 673v-450h768v450h-768zM439 600l128 -128q9 -9 9 -22.5t-9 -22.5 q-11 -9 -23 -9t-23 9l-73 73v-115q0 -32 32 -32h192q14 0 23 -9.5t9 -22.5t-9.5 -22.5t-22.5 -9.5h-192q-44 0 -70 26.5t-26 69.5v115l-73 -73q-10 -10 -23 -10t-23 10q-9 9 -9 22.5t9 22.5l128 128q10 10 23 10t23 -10z" />
<glyph unicode="&#xe063;" d="M137 927h248q29 0 49 -18l71 -109h382q57 0 97 -37.5t40 -90.5v-447q0 -53 -40 -90.5t-97 -37.5h-750q-57 0 -97 37.5t-40 90.5v575q0 53 40 90t97 37zM128 800v-98h282l-22 31l-43 67h-217zM128 673v-450h768v450h-768zM416 641h128q27 0 45 -18l64 -64q19 -19 19 -46 v-192q0 -26 -19 -45t-45 -19h-192q-26 0 -45 19t-19 45v256q0 27 19 45.5t45 18.5zM416 577v-256h192v158h-102v98h-90zM538 577v-66h70v2l-64 64h-6z" />
<glyph unicode="&#xe064;" d="M137 928h248q28 0 49 -19l71 -109h382q57 0 97 -37.5t40 -90.5v-448q0 -53 -40 -90.5t-97 -37.5h-750q-57 0 -97 37.5t-40 90.5v576q0 53 40 90.5t97 37.5zM369 832h-232q-16 0 -28.5 -9.5t-12.5 -22.5v-32h315zM96 704v-480q0 -13 12.5 -22.5t28.5 -9.5h750 q16 0 28.5 9.5t12.5 22.5v448q0 13 -12.5 22.5t-28.5 9.5h-791z" />
<glyph unicode="&#xe065;" d="M137 928h248q28 0 49 -19l71 -109h382q57 0 97 -37.5t40 -90.5v-448q0 -53 -40 -90.5t-97 -37.5h-750q-57 0 -97 37.5t-40 90.5v576q0 53 40 90.5t97 37.5zM369 832h-232q-16 0 -28.5 -9.5t-12.5 -22.5v-32h315zM96 704v-480q0 -13 12.5 -22.5t28.5 -9.5h750 q16 0 28.5 9.5t12.5 22.5v448q0 13 -12.5 22.5t-28.5 9.5h-791zM496 608q16 0 16 -16v-112h112q16 0 16 -16t-16 -16h-112v-112q0 -16 -16 -16t-16 16v112h-112q-16 0 -16 16t16 16h112v112q0 16 16 16z" />
<glyph unicode="&#xe066;" d="M137 928h248q28 0 49 -19l71 -109h382q57 0 97 -37.5t40 -90.5v-448q0 -53 -40 -90.5t-97 -37.5h-750q-57 0 -97 37.5t-40 90.5v576q0 53 40 90.5t97 37.5zM369 832h-232q-16 0 -28.5 -9.5t-12.5 -22.5v-32h315zM96 704v-480q0 -13 12.5 -22.5t28.5 -9.5h750 q16 0 28.5 9.5t12.5 22.5v448q0 13 -12.5 22.5t-28.5 9.5h-791zM475 571l96 -96q13 -11 0 -22q-5 -5 -11 -5t-11 5l-69 68v-153q0 -16 16 -16h192q16 0 16 -16t-16 -16h-192q-22 0 -35 13t-13 35v153l-69 -68q-11 -13 -22 0q-13 11 0 22l96 96q11 13 22 0z" />
<glyph unicode="&#xe067;" d="M137 928h248q28 0 49 -19l71 -109h382q57 0 97 -37.5t40 -90.5v-448q0 -53 -40 -90.5t-97 -37.5h-750q-57 0 -97 37.5t-40 90.5v576q0 53 40 90.5t97 37.5zM369 832h-232q-16 0 -28.5 -9.5t-12.5 -22.5v-32h315zM96 704v-480q0 -13 12.5 -22.5t28.5 -9.5h750 q16 0 28.5 9.5t12.5 22.5v448q0 13 -12.5 22.5t-28.5 9.5h-791zM384 624h160q6 0 11 -5l96 -96q5 -5 5 -11v-224q0 -16 -16 -16h-256q-16 0 -16 16v320q0 16 16 16zM400 592v-288h224v201l-87 87h-137zM531 496h77v-16h-96v96h19v-80z" />
<glyph unicode="&#xe068;" d="M102 884h256q16 0 35 -8t27 -14t31 -22q44 -34 61 -34h461q10 0 17.5 -7.5t7.5 -18.5v-614q0 -11 -7 -18.5t-18 -7.5h-922q-11 0 -18 7.5t-7 18.5v641q0 36 20.5 56.5t55.5 20.5zM358 833h-256q-25 0 -25 -26v-90h281q25 0 97 36l20 10q-27 13 -55 36q-44 34 -62 34z M947 754h-430q-9 -4 -28 -12.5t-23 -10.5q-76 -40 -108 -40h-281v-500h870v563z" />
<glyph unicode="&#xe069;" d="M102 884h256q16 0 35 -8t27 -14t31 -22q44 -34 61 -34h461q10 0 17.5 -7.5t7.5 -18.5v-614q0 -11 -7 -18.5t-18 -7.5h-922q-11 0 -18 7.5t-7 18.5v641q0 36 20.5 56.5t55.5 20.5zM358 833h-256q-25 0 -25 -26v-90h281q25 0 97 36l20 10q-27 13 -55 36q-44 34 -62 34z M947 754h-430q-9 -4 -28 -12.5t-23 -10.5q-76 -40 -108 -40h-281v-500h870v563zM512 649q9 0 15.5 -6.5t6.5 -16.5v-131h132q9 0 15.5 -6.5t6.5 -15.5q0 -10 -6.5 -16.5t-15.5 -6.5h-132v-131q0 -9 -6.5 -15.5t-15.5 -6.5t-15.5 6.5t-6.5 15.5v131h-132q-9 0 -15.5 6.5 t-6.5 16.5q0 9 6.5 15.5t15.5 6.5h132v131q0 10 6.5 16.5t15.5 6.5z" />
<glyph unicode="&#xe06a;" d="M102 884h256q16 0 35 -8t27 -14t31 -22q44 -34 61 -34h461q10 0 17.5 -7.5t7.5 -18.5v-614q0 -11 -7 -18.5t-18 -7.5h-922q-11 0 -18 7.5t-7 18.5v641q0 36 20.5 56.5t55.5 20.5zM358 833h-256q-25 0 -25 -26v-90h281q25 0 97 36l20 10q-27 13 -55 36q-44 34 -62 34z M947 754h-430q-9 -4 -28 -12.5t-23 -10.5q-76 -40 -108 -40h-281v-500h870v563zM469 622l6 -3l2 -2l102 -102q16 -16 0 -32q-6 -6 -16 -6q-9 0 -16 6l-64 64v-150q0 -29 25.5 -54.5t54.5 -25.5h154q9 0 15.5 -6.5t6.5 -16.5q0 -9 -6.5 -15.5t-15.5 -6.5h-154 q-48 0 -86.5 38.5t-38.5 86.5v150l-64 -64q-7 -6 -16 -6t-15 6q-16 16 0 32l102 102l2 2q1 1 2.5 2t2.5 1q9 5 17 0z" />
<glyph unicode="&#xe06b;" d="M102 884h256q16 0 35 -8t27 -14t31 -22q44 -34 61 -34h461q10 0 17.5 -7.5t7.5 -18.5v-614q0 -11 -7 -18.5t-18 -7.5h-922q-11 0 -18 7.5t-7 18.5v641q0 36 20.5 56.5t55.5 20.5zM358 833h-256q-25 0 -25 -26v-90h281q25 0 97 36l20 10q-27 13 -55 36q-44 34 -62 34z M947 754h-430q-9 -4 -28 -12.5t-23 -10.5q-76 -40 -108 -40h-281v-500h870v563zM410 646h153q8 0 14 -6l102 -102q6 -6 6 -14v-256q0 -8 -5.5 -13.5t-13.5 -5.5h-256q-8 0 -14 5.5t-6 13.5v358q0 8 6 14t14 6zM429 607v-320h217v212h-95q-13 0 -13 13v95h-109zM564 525h74 l-74 73v-73z" />
<glyph unicode="&#xe06c;" d="M845 915q61 -59 61 -147t-61 -147l-324 -324q-36 -36 -90 -36t-90 36q-37 37 -37 89q0 53 37 90l280 279q13 14 33 14t34 -14t14 -33.5t-14 -33.5l-279 -280q-9 -9 -9 -22t9 -22q9 -8 22 -8t22 8l325 325q32 32 32 79t-32 79q-33 33 -79.5 33t-79.5 -33l-394 -393 q-56 -57 -56 -137.5t56 -136.5q57 -56 137.5 -56t136.5 56l394 394q13 14 33.5 14t34.5 -14q13 -14 13 -34t-13 -34l-394 -394q-87 -85 -205 -85q-119 0 -204 85t-85 205t85 204l393 394q61 61 147 61t147 -61z" />
<glyph unicode="&#xe070;" d="M512 814q76 0 134 -49.5t58 -134.5q0 -36 -11.5 -66t-33 -51.5t-35.5 -32t-37 -24.5q-2 -2 -6 -4t-5 -3v-19q0 -26 -19 -45t-45 -19t-45 19t-19 45v40q0 23 13.5 43.5t25 29t33.5 22.5q32 20 44 32.5t12 32.5q0 19 -8.5 31.5t-21.5 17t-20.5 6t-13.5 1.5q-7 0 -15 -1.5 t-20.5 -6.5t-20.5 -17.5t-8 -30.5q0 -26 -19 -45t-45 -19t-45 19t-19 45q0 86 57.5 135t134.5 49zM512 338q26 0 45 -19t19 -45t-19 -45t-45 -19t-45 19t-19 45t19 45t45 19z" />
<glyph unicode="&#xe071;" d="M512 960q185 0 316.5 -131.5t131.5 -316.5t-131.5 -316.5t-316.5 -131.5t-316.5 131.5t-131.5 316.5t131.5 316.5t316.5 131.5zM512 814q-77 0 -134.5 -49t-57.5 -135q0 -26 19 -45t45 -19t45 19t19 45q0 18 8 30.5t20.5 17.5t20.5 6.5t15 1.5q6 0 13.5 -1.5t20.5 -6 t21.5 -17t8.5 -31.5q0 -20 -12 -32.5t-44 -32.5q-22 -14 -33.5 -22.5t-25 -29t-13.5 -43.5v-40q0 -26 19 -45t45 -19t45 19t19 45v19q1 1 5 3t6 4q23 14 37 24.5t35.5 32t33 51.5t11.5 66q0 84 -58 134t-134 50zM512 338q-26 0 -45 -19t-19 -45t19 -45t45 -19t45 19t19 45 t-19 45t-45 19z" />
<glyph unicode="&#xe072;" d="M473 768q13 3 26 -3t19 -18l65 -119l132 27q31 5 46 -21q15 -27 -6 -50l-93 -98l67 -118q15 -27 -6 -50t-50 -9l-122 58l-91 -100q-8 -9 -23 -13q-13 -3 -27 3q-27 13 -24 44l17 134l-122 56q-28 13 -25 44q1 14 10.5 24.5t23.5 12.5l133 25l15 134q5 32 35 37z" />
<glyph unicode="&#xe073;" d="M512 960q185 0 316.5 -131.5t131.5 -316.5t-131.5 -316.5t-316.5 -131.5t-316.5 131.5t-131.5 316.5t131.5 316.5t316.5 131.5zM458 781q-32 -7 -35 -37l-15 -134l-133 -25q-14 -3 -23.5 -13.5t-10.5 -23.5q-5 -30 24 -44l123 -56l-17 -134q-5 -32 24 -44q13 -6 26 -4 q14 3 24 13l91 100l122 -58q28 -13 50 10q21 22 6 50l-67 117l93 98q21 23 6 51q-14 24 -46 21l-132 -27l-65 118q-14 27 -45 22z" />
<glyph unicode="&#xe074;" d="M512 844q26 0 45 -19t19 -45v-299q0 -26 -19 -45t-45 -19t-45 19t-19 45v299q0 26 19 45t45 19zM512 356q37 0 62.5 -26t25.5 -62q0 -37 -25.5 -62.5t-62.5 -25.5t-62.5 25.5t-25.5 62.5q0 36 25.5 62t62.5 26z" />
<glyph unicode="&#xe075;" d="M512 960q185 0 316.5 -131.5t131.5 -316.5t-131.5 -316.5t-316.5 -131.5t-316.5 131.5t-131.5 316.5t131.5 316.5t316.5 131.5zM512 832q-26 0 -45 -19t-19 -45v-299q0 -26 19 -45t45 -19t45 19t19 45v299q0 26 -19 45t-45 19zM512 344q-37 0 -62.5 -25.5t-25.5 -62.5 t25.5 -62.5t62.5 -25.5t62.5 25.5t25.5 62.5t-25.5 62.5t-62.5 25.5z" />
<glyph unicode="&#xe076;" d="M512 832q9 0 16 -4l249 -144q16 -10 16 -28v-287q0 -18 -16 -28l-249 -144q-7 -4 -16 -4t-16 4l-249 144q-16 10 -16 28v287q0 18 16 28l249 144q7 4 16 4zM584 746l-210 -66q-22 -7 -6 -15l15 -9q12 -7 26 -1l35 12l51 -30l-20 -20q-9 -9 2 -15l15 -9q16 -9 27 4 l114 121q9 9 -2 15l-21 12q-12 7 -26 1zM577 714q-17 -14 -26 -23l-28 -27l-32 19l46 16zM536 517l-250 145q-14 7 -22 -6q-9 -14 6 -22l250 -145v-259l241 139v278zM719 559q11 -1 3 -18l-6 -15q-8 -17 -20 -15q-18 0 -36 -10q-27 -15 -40.5 -39t-13.5 -47t13 -31.5t41 5.5 q18 10 39 36q13 16 21 9l7 -6q9 -7 -2 -22q-29 -38 -67 -61q-46 -26 -73 -14t-27 55q0 42 28 86.5t72 69.5q37 21 61 17zM366 506l-55 33q-15 7 -15 -7v-161q0 -15 15 -23l55 -32q28 -19 50.5 -16.5t22.5 31.5q0 34 -30 60q22 0 22 28q0 50 -65 87zM343 480l23 -13 q18 -11 18 -27t-17 -8l-24 14v34zM343 409l28 -17q20 -10 20 -31q0 -8 -5 -10.5t-15 2.5l-28 16v40z" />
<glyph unicode="&#xe077;" d="M512 960q185 0 316.5 -131.5t131.5 -316.5t-131.5 -316.5t-316.5 -131.5t-316.5 131.5t-131.5 316.5t131.5 316.5t316.5 131.5zM512 837q-6 0 -16 -4l-249 -144q-16 -10 -16 -28v-287q0 -18 16 -28l249 -144q7 -4 16 -4t16 4l249 144q16 10 16 28v287q0 18 -16 28 l-249 144q-10 4 -16 4zM374 685l210 66q14 6 26 -1l21 -12q10 -7 2 -15l-114 -122q-13 -13 -27 -3l-15 9q-11 6 -2 15l20 20l-51 30l-35 -12q-16 -6 -26 1l-15 9q-16 8 6 15zM577 718v1q-25 -10 -40 -15l-46 -16l32 -19l28 27zM536 522l225 130v-278l-241 -140v260l-250 145 q-15 8 -6 22q8 13 22 6zM719 564q-28 3 -61 -17q-44 -25 -72 -69.5t-28 -86.5q0 -43 27 -55t73 14q38 23 67 61q10 14 2 22l-7 6q-8 7 -21 -9q-18 -24 -39 -36q-28 -14 -41 -5.5t-13 31.5t13.5 47t40.5 39q16 9 36 9q13 0 20 16l6 15q8 17 -3 18zM311 543l55 -32 q65 -37 65 -87q0 -28 -22 -28q30 -27 30 -61q0 -20 -10.5 -26.5t-26.5 -3t-36 15.5l-55 32q-15 7 -15 23v161q0 15 15 6zM343 451l24 -14q17 -10 17 8q0 16 -18 26l-23 14v-34zM343 374l28 -16q10 -5 15 -2.5t5 10.5q0 20 -20 31l-28 17v-40z" />
<glyph unicode="&#xe080;" d="M836 726l-191 -107l13 -40h163q40 0 67.5 -28t27.5 -68q0 -51 -41 -79l-130 -94l50 -155q10 -30 0.5 -59.5t-34.5 -47.5q-25 -19 -57 -19q-33 0 -56 19l-132 95l-132 -95q-23 -19 -56 -19q-32 0 -57 19q-25 18 -34.5 47.5t0.5 59.5l50 155l-132 95q-25 19 -34.5 48.5 t-0.5 59.5q10 29 35.5 47.5t56.5 18.5h162l14 41l-192 106v298h640v-298zM260 960v-64h512v64h-512zM260 832v-69l148 -81l17 52q10 29 35 47.5t56 18.5t56 -18.5t35 -47.5l17 -53l148 82v69h-512zM444 483h-232l188 -137l-72 -221l188 137l188 -137l-72 221l188 137h-232 l-72 221z" />
<glyph unicode="&#xe081;" d="M256 1024h512q53 0 90.5 -37.5t37.5 -90.5v-672q-2 0 -6 -1t-5 -1q-15 -22 -42 -28q-11 -18 -11 -34t11 -34q27 -6 42 -28q1 0 5 -1t6 -1v-32q0 -26 -19 -45t-45 -19h-576q-53 0 -90.5 37.5t-37.5 90.5v768q0 53 37.5 90.5t90.5 37.5zM256 896v-640h512v640h-512z M640 704h-256v64h256v-64zM640 576h-256v64h256v-64zM768 192h-480q-14 0 -23 -9t-9 -23t9 -23t23 -9h480v64z" />
<glyph unicode="&#xe082;" d="M128 1024h768q53 0 90.5 -37.5t37.5 -90.5v-512q0 -53 -37.5 -90.5t-90.5 -37.5h-144q-17 -37 -50 -64h130q26 0 45 -19t19 -45v-64q0 -26 -19 -45t-45 -19h-640q-26 0 -45 19t-19 45v64q0 26 19 45t45 19h130q-33 27 -50 64h-144q-53 0 -90.5 37.5t-37.5 90.5v512 q0 53 37.5 90.5t90.5 37.5zM128 896v-512h768v512h-768zM576 704h256v-256h-448v128h-192v256h384v-128zM256 768v-128h128v64h128v64h-256zM448 640v-128h320v128h-320zM677 256h-330q56 -64 165 -64t165 64zM192 128v-64h640v64h-640z" />
<glyph unicode="&#xe083;" d="M307 1024h304q55 0 93 -40l208 -224q35 -38 35 -88v-544q0 -53 -37.5 -90.5t-90.5 -37.5h-512q-53 0 -90.5 37.5t-37.5 90.5v28q0 30 32 43t64 0.5t32 -42.5v-29h512v512h-224q-13 0 -22.5 9t-9.5 23v224h-256v-192q0 -28 -32 -44t-64 -18l-32 -2v256q0 53 37.5 90.5 t90.5 37.5zM627 704h162l-162 175v-175zM416 745q23 -5 25 -28l18 -175l172 -40q22 -5 24 -28q3 -23 -19 -33l-161 -71l15 -175q2 -23 -19 -33q-8 -2 -13 -2q-13 0 -24 11l-117 131l-163 -69q-21 -9 -36 9q-16 17 -4 37l89 152l-116 134q-15 17 -3 37t34 15l173 -37l91 151 q12 19 34 14zM387 615l-53 -88q-12 -20 -34 -15l-101 22l67 -78q16 -17 4 -37l-52 -89l95 40q8 2 12 2q15 0 24 -10l69 -77l-9 103q-2 22 19 32l95 41l-101 24q-22 5 -24 28z" />
<glyph unicode="&#xe084;" d="M512 960q185 0 316.5 -131.5t131.5 -316.5t-131.5 -316.5t-316.5 -131.5t-316.5 131.5t-131.5 316.5t131.5 316.5t316.5 131.5zM512 832q-132 0 -226 -94t-94 -226t94 -226t226 -94t226 94t94 226t-94 226t-226 94zM480 768q14 0 23 -9t9 -23v-237l152 -81q12 -6 16 -19 t-2 -24q-7 -12 -19.5 -16t-24.5 2l-169 91l-3 3q-4 2 -6 4q-1 1 -3 5l-3 5q-1 2 -1 7l-1 2v2v256q0 14 9 23t23 9z" />
<glyph unicode="&#xe085;" d="M694 896q97 0 165.5 -81t68.5 -177q0 -47 -22 -100.5t-53.5 -98.5t-76.5 -93t-82 -81.5t-79 -66.5t-57.5 -44.5t-27.5 -19.5q-8 -6 -18 -6q-8 0 -18 5q-16 11 -28 19.5t-57 43.5t-79.5 66t-81 80.5t-77.5 94t-53 98.5t-22 103q0 96 68.5 177t165.5 81q111 0 182 -87 q71 87 182 87zM694 800q-40 0 -73.5 -21.5t-50.5 -57.5q-18 -36 -58 -36t-58 36q-16 36 -50 57.5t-74 21.5q-55 0 -96.5 -52t-41.5 -110q0 -48 33.5 -107.5t86 -115t102.5 -99t98 -78.5q123 91 221.5 204t98.5 196q0 58 -41.5 110t-96.5 52z" />
<glyph unicode="&#xe086;" d="M128 864h768q53 0 90.5 -37.5t37.5 -90.5v-448q0 -53 -37.5 -90.5t-90.5 -37.5h-768q-53 0 -90.5 37.5t-37.5 90.5v448q0 53 37.5 90.5t90.5 37.5zM188 736l324 -278l324 278h-648zM128 328l233 175l-233 200v-375zM663 503l233 -175v375zM613 460l-80 -68q-10 -8 -21 -8 t-21 8l-80 68l-230 -172h662z" />
<glyph unicode="&#xe090;" d="M192 1024h640q26 0 45 -19t19 -45v-896q0 -40 -36 -58q-13 -6 -28 -6q-21 0 -40 14l-280 224l-280 -224q-19 -14 -40 -14q-14 0 -28 6q-36 18 -36 58v896q0 26 19 45t45 19z" />
<glyph unicode="&#xe091;" d="M32 1024h192q14 0 23 -9t9 -23v-192q0 -14 -9 -23t-23 -9h-192q-14 0 -23 9t-9 23v192q0 14 9 23t23 9zM416 1024h192q14 0 23 -9t9 -23v-192q0 -14 -9 -23t-23 -9h-192q-14 0 -23 9t-9 23v192q0 14 9 23t23 9zM800 1024h192q14 0 23 -9t9 -23v-192q0 -14 -9 -23t-23 -9 h-192q-14 0 -23 9t-9 23v192q0 14 9 23t23 9zM32 640h192q14 0 23 -9t9 -23v-192q0 -14 -9 -23t-23 -9h-192q-14 0 -23 9t-9 23v192q0 14 9 23t23 9zM416 640h192q14 0 23 -9t9 -23v-192q0 -14 -9 -23t-23 -9h-192q-14 0 -23 9t-9 23v192q0 14 9 23t23 9zM800 640h192 q14 0 23 -9t9 -23v-192q0 -14 -9 -23t-23 -9h-192q-14 0 -23 9t-9 23v192q0 14 9 23t23 9zM32 256h192q14 0 23 -9t9 -23v-192q0 -14 -9 -23t-23 -9h-192q-14 0 -23 9t-9 23v192q0 14 9 23t23 9zM416 256h192q14 0 23 -9t9 -23v-192q0 -14 -9 -23t-23 -9h-192q-14 0 -23 9 t-9 23v192q0 14 9 23t23 9zM800 256h192q14 0 23 -9t9 -23v-192q0 -14 -9 -23t-23 -9h-192q-14 0 -23 9t-9 23v192q0 14 9 23t23 9z" />
<glyph unicode="&#xe092;" d="M64 1024h896q26 0 45 -19t19 -45v-896q0 -26 -19 -45t-45 -19h-896q-26 0 -45 19t-19 45v896q0 26 19 45t45 19zM128 896v-770h768v770h-768zM704 736q21 0 40 -14q24 -19 24 -50q0 -21 -14 -40l-256 -320q-18 -22 -46 -24h-4q-26 0 -45 19l-128 128q-19 18 -19 45t19 45 q18 19 45 19t45 -19l78 -77l211 264q20 24 50 24z" />
<glyph unicode="&#xe093;" d="M512 1024q80 0 136 -56t56 -136v-96q0 -80 -56 -136t-136 -56t-136 56t-56 136v96q0 80 56 136t136 56zM512 496q69 0 161.5 -27t131.5 -44t64 -30q27 -13 27 -43v-304q0 -20 -14 -34t-34 -14h-672q-20 0 -34 14t-14 34v304q0 30 27 43q25 13 64 30t131.5 44t161.5 27z M648 392q-22 0 -37 -18l-154 -193l-57 57q-13 13 -33 13t-33 -13q-14 -14 -14 -33q0 -18 14 -34l93 -93q14 -14 34 -14h2q22 2 34 18l187 234q11 13 11 29q0 22 -18 37q-11 10 -29 10z" />
<glyph unicode="&#xe094;" d="M535 885l384 -384q15 -15 7 -35q-8 -19 -30 -19h-96v-288q0 -13 -9 -22.5t-23 -9.5h-160q-14 0 -23 9.5t-9 22.5v224h-128v-224q0 -13 -9 -22.5t-23 -9.5h-160q-14 0 -23 9.5t-9 22.5v288h-96q-22 0 -30 19q-8 20 7 35l384 384q10 10 23 10t23 -10z" />
<glyph unicode="&#xe095;" d="M125 1024h304q55 0 93 -40l126 -135l-110 -110l-157 157h-256v-768h512v167l128 128v-295q0 -53 -37.5 -90.5t-90.5 -37.5h-512q-53 0 -90.5 37.5t-37.5 90.5v768q0 53 37.5 90.5t90.5 37.5zM861 948q27 0 45 -19l96 -96q19 -19 19 -45t-19 -45l-492 -493l-249 -62 l62 249l493 492q18 19 45 19zM810 833l96 -96l51 51l-96 96zM717 740l96 -96l48 48l-96 96zM429 452l96 -96l256 256l-96 96zM381 404l-32 -128l128 32l16 16l-96 96z" />
<glyph unicode="&#xe096;" d="M543 940q6 0 12 -3q18 -8 18 -28v-97q131 -22 218 -124t87 -237q0 -151 -107 -258.5t-259 -107.5t-259 107.5t-107 258.5h122q0 -101 71.5 -172.5t172.5 -71.5t172.5 71.5t71.5 172.5q0 84 -51.5 150t-131.5 87v-84q0 -20 -18 -28q-6 -3 -12 -3q-9 0 -20 7l-183 153 q-11 9 -11 23q0 15 11 24l183 152q10 8 20 8z" />
<glyph unicode="&#xe097;" d="M559 889l28 -114q32 -10 58 -24l101 60l4 -3q33 -27 58 -59l4 -4l-61 -101q15 -27 24 -57l114 -29l1 -5q2 -26 2 -42q0 -15 -2 -41l-1 -5l-114 -29q-9 -30 -24 -57l61 -101l-4 -4q-24 -31 -58 -59l-4 -3l-101 60q-26 -14 -58 -24l-28 -114h-6q-13 -2 -41 -2q-27 0 -41 2 h-6l-28 114q-32 10 -58 24l-101 -60l-4 3q-33 27 -58 59l-4 4l61 101q-15 27 -24 57l-114 29l-1 5q-2 28 -2 41q0 12 2 42l1 5l114 29q9 30 24 57l-61 101l4 4q24 31 58 59l4 3l101 -60q26 14 58 24l28 114h6q40 4 82 0h6zM512 663q-62 0 -106.5 -44.5t-44.5 -107.5 q0 -62 44.5 -106.5t106.5 -44.5q63 0 107 44.5t44 106.5q0 63 -44 107.5t-107 44.5z" />
<glyph unicode="&#xe098;" d="M512 1008q126 0 215 -89t89 -215v-144h16q20 0 34 -14t14 -34v-448q0 -20 -14 -34t-34 -14h-640q-20 0 -34 14t-14 34v448q0 20 14 34t34 14h16v144q0 126 89 215t215 89zM512 912q-86 0 -147 -61t-61 -147v-144h416v144q0 86 -61 147t-147 61zM512 445 q-32 0 -54.5 -22.5t-22.5 -54.5q0 -37 33 -61l-31 -90q-3 -9 3 -17t16 -8h112h1q8 0 14 5.5t6 13.5q0 4 -4 12l-29 84q33 24 33 61q0 32 -22.5 54.5t-54.5 22.5z" />
<glyph unicode="&#xe099;" d="M512 1008q126 0 215 -89t89 -215h-96q0 86 -61 147t-147 61t-147 -61t-61 -147v-144h528q20 0 34 -14t14 -34v-448q0 -20 -14 -34t-34 -14h-640q-20 0 -34 14t-14 34v448q0 20 14 34t34 14h16v144q0 126 89 215t215 89zM512 448q-32 0 -54.5 -22.5t-22.5 -54.5 q0 -37 33 -61l-31 -90q-3 -9 3 -17t16 -8h112h1q8 0 14 5.5t6 13.5q0 4 -4 12l-29 84q33 24 33 61q0 32 -22.5 54.5t-54.5 22.5z" />
<glyph unicode="&#xe09a;" d="M512 960q185 0 316.5 -131.5t131.5 -316.5t-131.5 -316.5t-316.5 -131.5t-316.5 131.5t-131.5 316.5t131.5 316.5t316.5 131.5zM512 711q-50 0 -85 -35.5t-35 -85.5q0 -59 51 -96l-48 -141q-5 -15 4 -27t25 -12h176h2q13 0 21.5 8.5t8.5 21.5q0 11 -6 17l-45 133 q51 37 51 96q0 50 -35 85.5t-85 35.5z" />
<glyph unicode="&#xe09b;" d="M144 960h304q55 0 93 -40l144 -160q35 -37 35 -88v-96h-128v96l-160 160h-288v-640h448v192h128v-192q0 -53 -37.5 -90.5t-90.5 -37.5h-448q-53 0 -90.5 37.5t-37.5 90.5v640q0 53 37.5 90.5t90.5 37.5zM828 665q10 8 23.5 6.5t21.5 -11.5l128 -160q1 -1 1 -3l3 -3 q0 -2 1 -3q0 -1 0.5 -2.5t0.5 -2.5l1 -4v-2v-2v-2l-1 -2q0 -1 -0.5 -2.5t-0.5 -2.5q-1 -1 -1 -3l-3 -3q0 -2 -1 -3l-128 -160q-9 -12 -25 -12q-12 0 -20 7q-10 8 -11.5 21.5t6.5 23.5l86 108h-573q-14 0 -23 9t-9 23t9 23t23 9h573l-86 108q-8 10 -6.5 23.5t11.5 21.5z" />
<glyph unicode="&#xe09c;" d="M536 922q11 -4 21 -14l192 -192q19 -19 19 -45t-19 -45q-18 -19 -45 -19t-45 19l-83 83v-422q0 -26 -19 -45t-45 -19t-45 19t-19 45v422l-83 -83q-19 -19 -45 -19t-45 19t-19 45t19 45l192 192q10 10 21 14q24 11 48 0zM800 543h128q14 0 23 -9.5t9 -22.5v-384 q0 -13 -9 -22.5t-23 -9.5h-832q-14 0 -23 9.5t-9 22.5v384q0 13 9 22.5t23 9.5h128q14 0 23 -9.5t9 -22.5t-9 -22.5t-23 -9.5h-96v-320h768v320h-96q-14 0 -23 9.5t-9 22.5t9 22.5t23 9.5z" />
<glyph unicode="&#xe09d;" d="M96 928h832q14 0 23 -9t9 -23v-448q0 -14 -9 -23t-23 -9h-128q-14 0 -23 9t-9 23t9 23t23 9h96v384h-768v-384h96q14 0 23 -9t9 -23t-9 -23t-23 -9h-128q-14 0 -23 9t-9 23v448q0 14 9 23t23 9zM536 795q11 -4 21 -14l192 -192q19 -19 19 -45t-19 -45q-18 -19 -45 -19 t-45 19l-83 83v-422q0 -26 -19 -45t-45 -19t-45 19t-19 45v422l-83 -83q-19 -19 -45 -19t-45 19t-19 45t19 45l192 192q10 10 21 14q24 11 48 0z" />
<glyph unicode="&#xe09e;" d="M96 928h832q14 0 23 -9t9 -23v-384q0 -14 -9 -23t-23 -9h-128q-14 0 -23 9t-9 23t9 23t23 9h96v320h-768v-320h96q14 0 23 -9t9 -23t-9 -23t-23 -9h-128q-14 0 -23 9t-9 23v384q0 14 9 23t23 9zM512 800q26 0 45 -19t19 -45v-421l83 82q19 19 45 19t45 -19t19 -45 t-19 -45l-192 -192q-10 -10 -21 -14q-12 -5 -24 -5t-24 5q-11 4 -21 14l-192 192q-19 19 -19 45t19 45t45 19t45 -19l83 -82v421q0 26 19 45t45 19z" />
<glyph unicode="&#xe09f;" d="M512 928q26 0 45 -19t19 -45v-421l83 82q19 19 45 19t45 -19t19 -45t-19 -45l-192 -192q-10 -10 -21 -14q-12 -5 -24 -5t-24 5q-11 4 -21 14l-192 192q-19 19 -19 45t19 45t45 19t45 -19l83 -82v421q0 26 19 45t45 19zM800 608h128q14 0 23 -9t9 -23v-448q0 -14 -9 -23 t-23 -9h-832q-14 0 -23 9t-9 23v448q0 14 9 23t23 9h128q14 0 23 -9t9 -23t-9 -23t-23 -9h-96v-384h768v384h-96q-14 0 -23 9t-9 23t9 23t23 9z" />
<glyph unicode="&#xe0a0;" d="M512 960q185 0 316.5 -131.5t131.5 -316.5t-131.5 -316.5t-316.5 -131.5t-316.5 131.5t-131.5 316.5t131.5 316.5t316.5 131.5zM512 832q-133 0 -226.5 -93.5t-93.5 -226.5t93.5 -226.5t226.5 -93.5t226.5 93.5t93.5 226.5t-93.5 226.5t-226.5 93.5zM440 654q10 5 17 -1 l192 -128q7 -5 7 -13t-7 -13l-192 -128q-5 -3 -9 -3q-2 0 -8 2q-8 5 -8 14v256q0 9 8 14z" />
<glyph unicode="&#xe0a1;" d="M512 960q185 0 316.5 -131.5t131.5 -316.5t-131.5 -316.5t-316.5 -131.5t-316.5 131.5t-131.5 316.5t131.5 316.5t316.5 131.5zM512 192q133 0 226.5 93.5t93.5 226.5t-93.5 226.5t-226.5 93.5t-226.5 -93.5t-93.5 -226.5t93.5 -226.5t226.5 -93.5zM400 656h64 q16 0 16 -16v-256q0 -16 -16 -16h-64q-16 0 -16 16v256q0 16 16 16zM560 656h64q16 0 16 -16v-256q0 -16 -16 -16h-64q-16 0 -16 16v256q0 16 16 16z" />
<glyph unicode="&#xe0a2;" d="M512 960q185 0 316.5 -131.5t131.5 -316.5t-131.5 -316.5t-316.5 -131.5t-316.5 131.5t-131.5 316.5t131.5 316.5t316.5 131.5zM512 832q-133 0 -226.5 -93.5t-93.5 -226.5t93.5 -226.5t226.5 -93.5t226.5 93.5t93.5 226.5t-93.5 226.5t-226.5 93.5zM400 656h224 q16 0 16 -16v-256q0 -16 -16 -16h-224q-16 0 -16 16v256q0 16 16 16z" />
<glyph unicode="&#xe0a3;" d="M512 960q185 0 316.5 -131.5t131.5 -316.5t-131.5 -316.5t-316.5 -131.5t-316.5 131.5t-131.5 316.5t131.5 316.5t316.5 131.5zM512 192q133 0 226.5 93.5t93.5 226.5t-93.5 226.5t-226.5 93.5t-226.5 -93.5t-93.5 -226.5t93.5 -226.5t226.5 -93.5zM486 655q10 -5 10 -15 v-256q0 -10 -10 -15q-2 -1 -6 -1q-6 0 -11 5l-128 128q-13 11 0 22l128 128q6 8 17 4zM646 655q10 -5 10 -15v-256q0 -10 -10 -15q-2 -1 -6 -1q-6 0 -11 5l-128 128q-5 5 -5 11t5 11l128 128q6 8 17 4z" />
<glyph unicode="&#xe0a4;" d="M512 960q185 0 316.5 -131.5t131.5 -316.5t-131.5 -316.5t-316.5 -131.5t-316.5 131.5t-131.5 316.5t131.5 316.5t316.5 131.5zM512 832q-133 0 -226.5 -93.5t-93.5 -226.5t93.5 -226.5t226.5 -93.5t226.5 93.5t93.5 226.5t-93.5 226.5t-226.5 93.5zM378 655q11 4 17 -4 l128 -128q5 -5 5 -11t-5 -11l-128 -128q-5 -5 -11 -5q-4 0 -6 1q-10 5 -10 15v256q0 10 10 15zM538 655q11 4 17 -4l128 -128q13 -11 0 -22l-128 -128q-5 -5 -11 -5q-4 0 -6 1q-10 5 -10 15v256q0 10 10 15z" />
<glyph unicode="&#xe0a5;" d="M512 962q133 0 226.5 -94t93.5 -226q0 -28 -7 -67q-11 -49 -40 -97l-208 -355q-27 -46 -65 -46t-65 46l-208 355q-29 48 -40 97q-7 39 -7 67q0 132 93.5 226t226.5 94zM512 866q-93 0 -158.5 -66t-65.5 -158q0 -93 65.5 -158.5t158.5 -65.5t158.5 65.5t65.5 158.5 q0 92 -65.5 158t-158.5 66z" />
<glyph unicode="&#xe0a6;" d="M512 962q133 0 226.5 -94t93.5 -226q0 -28 -7 -67q-11 -49 -40 -97l-208 -355q-27 -46 -65 -46t-65 46l-208 355q-29 48 -40 97q-7 39 -7 67q0 132 93.5 226t226.5 94zM512 866q-93 0 -158.5 -66t-65.5 -158q0 -93 65.5 -158.5t158.5 -65.5t158.5 65.5t65.5 158.5 q0 92 -65.5 158t-158.5 66zM512 770q53 0 90.5 -37.5t37.5 -90.5t-37.5 -90.5t-90.5 -37.5t-90.5 37.5t-37.5 90.5t37.5 90.5t90.5 37.5z" />
<glyph unicode="&#xe0a7;" d="M512 1024q80 0 136 -56t56 -136v-96q0 -80 -56 -136t-136 -56t-136 56t-56 136v96q0 80 56 136t136 56zM512 496q69 0 161.5 -27t131.5 -44t64 -30q27 -13 27 -43v-304q0 -20 -14 -34t-34 -14h-672q-20 0 -34 14t-14 34v304q0 30 27 43q25 13 64 30t131.5 44t161.5 27z " />
<glyph unicode="&#xe0a8;" d="M320 864q61 0 110.5 -49.5t49.5 -116.5v-84q0 -67 -49.5 -116.5t-110.5 -49.5t-110.5 49.5t-49.5 116.5v84q0 67 49.5 116.5t110.5 49.5zM736 800q54 0 98 -45t44 -106v-76q0 -61 -44 -106t-98 -45t-98 45t-44 106v76q0 61 44 106t98 45zM588 320q20 -10 20 -34v-88 q0 -16 -10.5 -27t-25.5 -11h-504q-15 0 -25.5 11t-10.5 27v88q0 24 20 34q160 80 268 80t268 -80zM974 306q18 -10 18 -31v-81q0 -14 -9.5 -24t-22.5 -10h-295q7 21 7 38v88q0 45 -34 76q59 16 98 16q45 0 105.5 -18.5t91.5 -33t41 -20.5z" />
<glyph unicode="&#xe0a9;" d="M192 832h640q26 0 45 -19t19 -45t-19 -45t-45 -19h-640q-26 0 -45 19t-19 45t19 45t45 19zM192 576h640q26 0 45 -19t19 -45t-19 -45t-45 -19h-640q-26 0 -45 19t-19 45t19 45t45 19zM192 320h640q26 0 45 -19t19 -45t-19 -45t-45 -19h-640q-26 0 -45 19t-19 45t19 45 t45 19z" />
<glyph unicode="&#xe0aa;" d="M412 964q146 0 249 -103t103 -249q0 -112 -64 -203q8 -4 11 -8l228 -228q19 -18 19 -44t-19 -44q-18 -19 -44 -19t-44 19l-228 228q-4 3 -8 11q-91 -64 -203 -64q-146 0 -249 103t-103 249t103 249t249 103zM412 900q-119 0 -203.5 -84.5t-84.5 -203.5t84.5 -203.5 t203.5 -84.5t203.5 84.5t84.5 203.5t-84.5 203.5t-203.5 84.5z" />
<glyph unicode="&#xe0ab;" d="M412 964q146 0 249 -103t103 -249q0 -112 -64 -203q8 -4 11 -8l228 -228q19 -18 19 -44t-19 -44q-18 -19 -44 -19t-44 19l-228 228q-4 3 -8 11q-91 -64 -203 -64q-146 0 -249 103t-103 249t103 249t249 103zM412 900q-119 0 -203.5 -84.5t-84.5 -203.5t84.5 -203.5 t203.5 -84.5t203.5 84.5t84.5 203.5t-84.5 203.5t-203.5 84.5zM412 772q13 0 22.5 -9.5t9.5 -22.5v-96h96q13 0 22.5 -9.5t9.5 -22.5q0 -14 -9 -23t-23 -9h-96v-96q0 -14 -9 -23t-23 -9q-13 0 -22.5 9.5t-9.5 22.5v96h-96q-13 0 -22.5 9.5t-9.5 22.5t9.5 22.5t22.5 9.5h96 v96q0 13 9.5 22.5t22.5 9.5z" />
<glyph unicode="&#xe0ac;" d="M412 964q146 0 249 -103t103 -249q0 -112 -64 -203q8 -4 11 -8l228 -228q19 -18 19 -44t-19 -44q-18 -19 -44 -19t-44 19l-228 228q-4 3 -8 11q-91 -64 -203 -64q-146 0 -249 103t-103 249t103 249t249 103zM412 900q-119 0 -203.5 -84.5t-84.5 -203.5t84.5 -203.5 t203.5 -84.5t203.5 84.5t84.5 203.5t-84.5 203.5t-203.5 84.5zM284 644h256q13 0 22.5 -9.5t9.5 -22.5q0 -14 -9 -23t-23 -9h-256q-13 0 -22.5 9.5t-9.5 22.5t9.5 22.5t22.5 9.5z" />
<glyph unicode="&#xe0ad;" d="M128 1024h768q52 0 90 -38t38 -90v-768q0 -52 -38 -90t-90 -38h-768q-52 0 -90 38t-38 90v768q0 52 38 90t90 38zM606 873h-189q-38 0 -80 -9q-44 -11 -84 -43q-59 -57 -59 -127q0 -58 42 -101q39 -47 115 -48q8 0 30 2l-6 -16q-3 -9 -3 -21q0 -21 9 -36q8 -16 18 -29 q-43 -2 -83 -8q-50 -9 -96 -35q-40 -24 -57 -57q-16 -35 -16 -59q0 -54 50 -93q48 -40 148 -42q118 1 181 57q61 52 61 122q-2 50 -22 79q-21 27 -53 54l-32 26l-14 16q-9 11 -9 25q0 15 9 27q10 14 15 20q15 12 28 25q14 14 23 27q20 31 22 82q0 27 -6 48q-8 21 -18 36 q-7 14 -20 28q-10 8 -21 16h59zM359 842q29 -2 51 -18q21 -15 35 -44q29 -58 29 -113q0 -6 -2 -32q-3 -17 -16 -37q-24 -25 -62 -27q-30 0 -52 18q-23 18 -38 44q-30 55 -30 107q0 40 21 71q25 30 64 31zM743 679v-101h-100v-57h1v-2h99v-99h58v99h102v58h-2v1h-100v101h-58 zM404 419q15 0 21 -1q51 -35 78 -62q23 -28 23 -63q0 -45 -34 -73q-37 -29 -102 -29q-74 0 -118 33q-45 33 -45 82q0 25 11 44q10 18 22 29q14 11 26 17q6 2 21 8q35 10 60 13q31 3 37 2z" />
<glyph unicode="&#xe0ae;" d="M938 918v-818l-306 -100l-540 189l545 -67v724l-362 -84v-478l-189 -84v613l546 211z" />
<glyph unicode="&#xe0b0;" d="M949 615q4 -4 4 -14v-198q0 -7 -3 -12q-4 -7 -14 -7h-3l-61 11q-2 0 -3 1v-41q0 -10 -8 -15q-7 -5 -14 -5h-4l-100 17v-29q0 -17 -12.5 -29.5t-29.5 -12.5h-378q-17 0 -29.5 12.5t-12.5 29.5v29l-104 -17q-8 0 -15 5.5t-7 14.5v39l-62 -10q-9 0 -15.5 5t-6.5 14v197 q0 9 7.5 14t16.5 5h4l56 -10v40q0 8 8 13.5t16 5.5h4l98 -17v50q0 17 12.5 29.5t29.5 12.5h378q17 0 29.5 -12.5t12.5 -29.5v-50l102 17q9 0 16.5 -5.5t7.5 -13.5v-41h1l69 11q6 0 10 -4zM701 701h-378v-182q89 -4 202 -47q14 12 36.5 27.5t64 35.5t75.5 25v141zM501 559 q-20 0 -33.5 14t-13.5 34q0 19 14 33t33 14q20 0 34 -14t14 -33q0 -20 -14 -34t-34 -14zM281 628l-102 19q-1 0 -3 -1v-135q34 -49 105 -52v169zM848 356v290q-1 1 -3 1l-101 -18l-1 -56q12 5 21 5q20 0 35 -15t15 -35q0 -27 -23 -42q30 -21 30 -126zM501 638q-13 0 -22 -9 t-9 -22t9 -22.5t22 -9.5t22.5 9.5t9.5 22.5t-9.5 22t-22.5 9zM155 585v3l-60 10h-3v-193l63 10v170zM932 597l-59 -10q-2 0 -4 -2v-166q3 -3 7 -3l56 -10v191zM743 555v-54q8 -7 21 -7q14 0 24 10t10 24t-10 24t-24 10q-10 0 -21 -7zM701 387v157q-67 -11 -159 -78 q82 -33 159 -79zM701 323v46q-4 2 -38 20t-54.5 28t-61 27.5t-72.5 28t-73.5 20t-78.5 11.5v-181h378zM281 376v67q-66 3 -105 44v-141l1 10l103 17q1 1 1 3zM743 373l62 -10q0 59 -8 87t-34 28q-9 0 -20 -7v-95v-3z" />
<glyph unicode="&#xe0b1;" d="M159 806h178q16 0 16 -16v-241q0 -16 -16 -16h-178q-16 0 -16 16v241q0 16 16 16zM411 806h283q16 0 16 -16v-241q0 -16 -16 -16h-283q-16 0 -16 16v241q0 16 16 16zM768 806h115q16 0 16 -16v-241q0 -16 -16 -16h-115q-16 0 -16 16v241q0 16 16 16zM185 764v-131 q19 10 44 20t52.5 19.5t29.5 10.5v81h-126zM437 764v-189h34q0 52 22 66q-22 15 -22 39q0 21 14.5 36t35.5 15t35.5 -14.5t14.5 -35.5q0 -25 -22 -40q22 -14 22 -66h97v189h-231zM794 764v-189h63v189h-63zM521 714q-14 0 -24 -10t-10 -24t10 -24t24 -10t24 10t10 24t-10 24 t-24 10zM311 575v92q-7 -3 -54.5 -21t-71.5 -30v-41h126zM521 635q-22 0 -28 -13t-6 -47h68q0 34 -6 47t-28 13zM159 491h262q16 0 16 -16v-241q0 -16 -16 -16h-262q-16 0 -16 16v241q0 16 16 16zM495 491h115q16 0 16 -16v-241q0 -16 -16 -16h-115q-16 0 -16 16v241 q0 16 16 16zM684 491h199q16 0 16 -16v-241q0 -16 -16 -16h-199q-16 0 -16 16v241q0 16 16 16zM185 449v-189h210v189h-210zM521 449v-97q63 -6 63 -16v113h-63zM710 449v-97q43 -2 86 -10.5t61 -16.5v124h-147zM259 423q19 0 33 -13.5t14 -33.5t-13.5 -34t-33.5 -14t-34 14 t-14 34t14 33.5t34 13.5zM259 407q-13 0 -22.5 -9t-9.5 -22q0 -14 9.5 -23t22.5 -9t22 9.5t9 22.5t-9 22t-22 9zM521 260h63v58q0 15 -63 18v-76zM710 260h147v49q-60 23 -147 27v-76z" />
<glyph unicode="&#xe0b2;" d="M323 838h378q17 0 29.5 -12.5t12.5 -29.5v-378q0 -18 -12.5 -30t-29.5 -12h-378q-17 0 -29.5 12t-12.5 30v378q0 17 12.5 29.5t29.5 12.5zM323 796v-182q89 -5 199 -46q98 75 179 87v141h-378zM502 748q20 0 33.5 -14t13.5 -33t-13.5 -33t-33.5 -14t-34 13.5t-14 33.5 t14 33.5t34 13.5zM502 733q-13 0 -22.5 -9.5t-9.5 -22.5t9.5 -22t22.5 -9t22 9t9 22t-9 22.5t-22 9.5zM127 604l63 53q9 5 15 -2q7 -7 -1 -15l-54 -44l54 -44q8 -8 1 -15q-3 -4 -8 -4q-3 0 -7 2l-63 53q-3 3 -3 8t3 8zM834 657l63 -53q4 -4 4 -8t-4 -8l-63 -53q-4 -2 -7 -2 q-5 0 -8 4q-7 7 1 15l54 44l-54 44q-8 8 -1 15q6 7 15 2zM701 482v157q-72 -12 -162 -78q72 -28 162 -79zM323 418h378v45q-5 3 -38 20t-54 28t-61 28t-72.5 28t-74 20t-78.5 11v-180zM187 313h63q13 0 22 -9.5t9 -22.5v-63q0 -13 -9 -22t-22 -9h-63q-13 0 -22.5 9t-9.5 22 v63q0 13 9.5 22.5t22.5 9.5zM334 313h63q13 0 22 -9.5t9 -22.5v-63q0 -13 -9 -22t-22 -9h-63q-13 0 -22.5 9t-9.5 22v63q0 13 9.5 22.5t22.5 9.5zM481 313h63q13 0 22 -9.5t9 -22.5v-63q0 -13 -9 -22t-22 -9h-63q-13 0 -22.5 9t-9.5 22v63q0 13 9.5 22.5t22.5 9.5zM628 313 h63q13 0 22 -9.5t9 -22.5v-63q0 -13 -9 -22t-22 -9h-63q-13 0 -22.5 9t-9.5 22v63q0 13 9.5 22.5t22.5 9.5zM775 313h63q13 0 22 -9.5t9 -22.5v-63q0 -13 -9 -22t-22 -9h-63q-13 0 -22.5 9t-9.5 22v63q0 13 9.5 22.5t22.5 9.5zM250 292h-63q-11 0 -11 -11v-63q0 -10 11 -10 h63q10 0 10 10v63q0 11 -10 11zM397 292h-63q-11 0 -11 -11v-63q0 -10 11 -10h63q10 0 10 10v63q0 11 -10 11zM544 292h-63q-11 0 -11 -11v-63q0 -10 11 -10h63q10 0 10 10v63q0 11 -10 11zM691 292h-63q-11 0 -11 -11v-63q0 -10 11 -10h63q10 0 10 10v63q0 11 -10 11z M838 292h-63q-11 0 -11 -11v-63q0 -10 11 -10h63q10 0 10 10v63q0 11 -10 11z" />
<glyph unicode="&#xe0c1;" d="M624 823l128 -128q10 -10 10 -23v-448q0 -13 -9.5 -22.5t-22.5 -9.5h-384q-14 0 -23 9t-9 23v77q0 13 9 22.5t23 9.5q13 0 22.5 -9.5t9.5 -22.5v-45h320v403l-109 109h-211v-43q0 -13 -9.5 -22.5t-22.5 -9.5t-22.5 9.5t-9.5 22.5v75q0 14 9 23t23 9h256q13 0 22 -9z M402 464q-28 -43 -59 -79t-51 -36q-13 0 -21.5 7.5t-8.5 17.5q0 63 126 108q33 54 50 100q-24 56 -24 107q0 31 21 44.5t35 -2.5q13 -13 13 -42q0 -49 -22 -106q19 -41 50 -72q45 6 86 6q31 0 45.5 -11t14.5 -26t-12 -26t-29 -11q-62 2 -112 46q-59 -10 -102 -25zM435 689 q0 -37 14 -77q13 42 13 77q0 20 -7 27q-2 2 -4 2q-6 0 -11 -8t-5 -21zM451 557q-15 -33 -33 -66q29 9 68 16q-22 26 -35 50zM598 496q-30 0 -65 -3q38 -28 83 -28q20 0 20 15q0 16 -38 16zM292 370q8 0 29 22t47 60q-85 -37 -85 -78q0 -4 9 -4z" />
<glyph unicode="&#xe0c2;" d="M384 832h256q14 0 23 -9l128 -128q9 -9 9 -23v-448q0 -14 -9 -23t-23 -9h-384q-14 0 -23 9t-9 23v96q0 14 9 23t23 9t23 -9t9 -23v-64h320v403l-109 109h-211v-32q0 -14 -9 -23t-23 -9t-23 9t-9 23v64q0 14 9 23t23 9zM256 704q14 0 23 -9t9 -23v-150l69 104q14 20 36 13 q23 -7 23 -31v-96l134 179q8 10 21.5 12.5t23.5 -5.5t12.5 -21.5t-5.5 -23.5l-192 -256q-15 -19 -36 -11q-22 7 -22 30v86l-69 -104q-9 -14 -27 -14q-6 0 -9 1q-23 7 -23 31v256q0 14 9 23t23 9z" />
<glyph unicode="&#xe0c3;" d="M386 832h256q13 0 22 -9l128 -128q10 -10 10 -23v-448q0 -13 -9.5 -22.5t-22.5 -9.5h-384q-14 0 -23 9t-9 23v96q0 14 9 23t23 9q13 0 22.5 -9.5t9.5 -22.5v-64h320v403l-110 109h-210v-32q0 -13 -9.5 -22.5t-22.5 -9.5q-14 0 -23 9t-9 23v64q0 14 9 23t23 9zM307 701 q12 5 24.5 1t18.5 -16l44 -88l97 97q9 9 22.5 9t22.5 -9q10 -10 10 -23t-10 -23l-111 -111l53 -108q6 -11 2 -24t-16 -19q-7 -3 -14 -3q-20 0 -29 18l-44 88l-97 -97q-9 -9 -22 -9q-14 0 -23 9q-10 10 -10 23t10 23l112 111l-54 108q-6 11 -2 24t16 19z" />
<glyph unicode="&#xe0c4;" d="M386 832h256q13 0 22 -9l128 -128q10 -10 10 -23v-448q0 -13 -9.5 -22.5t-22.5 -9.5h-384q-14 0 -23 9t-9 23v162q0 14 9 23t23 9q13 0 22.5 -9.5t9.5 -22.5v-130h320v403l-110 109l-210 -1q0 -13 -9.5 -22.5t-22.5 -9.5q-14 0 -23 9.5t-9 22.5v33q0 14 9 23t23 9z M322 704h91q37 0 61 -24t24 -61q0 -41 -29 -72q-32 -35 -83 -35h-64q-5 0 -7 1l-26 -105q-7 -24 -31 -24q-5 0 -8 1q-13 3 -20 14.5t-3 24.5l64 256q5 24 31 24zM347 640l-16 -64h55q22 0 36 14q12 12 12 29q0 21 -21 21h-66z" />
<glyph unicode="&#xe0c5;" d="M352 832h256q14 0 23 -9l128 -128q9 -9 9 -23v-448q0 -14 -9 -23t-23 -9h-384q-14 0 -23 9t-9 23v128q0 14 9 23t23 9t23 -9t9 -23v-96h320v403l-109 109h-211v-32q0 -14 -9 -23t-23 -9t-23 9t-9 23v64q0 14 9 23t23 9zM288 640h192q14 0 23 -9t9 -23t-9 -23t-23 -9h-192 q-14 0 -23 9t-9 23t9 23t23 9zM288 512h128q14 0 23 -9t9 -23t-9 -23t-23 -9h-128q-14 0 -23 9t-9 23t9 23t23 9z" />
<glyph unicode="&#xe0d0;" d="M346 832h256q13 0 22 -9l128 -128q10 -10 10 -23v-448q0 -13 -9.5 -22.5t-22.5 -9.5h-384q-14 0 -23 9t-9 23v77q0 13 9 22.5t23 9.5q13 0 22.5 -9.5t9.5 -22.5v-45h320v403l-109 109h-211v-43q0 -13 -9.5 -22.5t-22.5 -9.5t-22.5 9.5t-9.5 22.5v75q0 14 9 23t23 9z" />
<glyph unicode="&#xe0d1;" d="M597 517q31 0 45.5 -11t14.5 -26t-12 -26t-29 -11q-62 2 -112 46q-59 -10 -102 -25q-28 -43 -59 -79t-51 -36q-13 0 -21.5 7.5t-8.5 17.5q0 63 126 108q33 54 50 100q-24 56 -24 107q0 31 21 44.5t35 -2.5q13 -13 13 -42q0 -49 -22 -106q19 -41 50 -72q45 6 86 6z M435 689q0 -37 14 -77q13 42 13 77q0 20 -7 27q-2 2 -4 2q-6 0 -11 -8t-5 -21zM418 491q29 9 68 16q-22 26 -35 50q-15 -33 -33 -66zM616 465q20 0 20 15q0 16 -38 16q-30 0 -65 -3q38 -28 83 -28zM292 370q8 0 29 22t47 60q-85 -37 -85 -78q0 -4 9 -4z" />
<glyph unicode="&#xe0d2;" d="M256 704q14 0 23 -9t9 -23v-150l69 104q14 20 36 13q23 -7 23 -31v-96l134 179q8 10 21.5 12.5t23.5 -5.5t12.5 -21.5t-5.5 -23.5l-192 -256q-15 -19 -36 -11q-22 7 -22 30v86l-69 -104q-9 -14 -27 -14q-6 0 -9 1q-23 7 -23 31v256q0 14 9 23t23 9z" />
<glyph unicode="&#xe0d3;" d="M307 701q12 5 24.5 1t18.5 -16l44 -88l97 97q9 9 22.5 9t22.5 -9q10 -10 10 -23t-10 -23l-111 -111l53 -108q6 -11 2 -24t-16 -19q-7 -3 -14 -3q-20 0 -29 18l-44 88l-97 -97q-9 -9 -22 -9q-14 0 -23 9q-10 10 -10 23t10 23l112 111l-54 108q-6 11 -2 24t16 19z" />
<glyph unicode="&#xe0d4;" d="M322 704h91q37 0 61 -24t24 -61q0 -41 -29 -72q-32 -35 -83 -35h-64q-5 0 -7 1l-26 -105q-7 -24 -31 -24q-5 0 -8 1q-13 3 -20 14.5t-3 24.5l64 256q5 24 31 24zM347 640l-16 -64h55q22 0 36 14q12 12 12 29q0 21 -21 21h-66z" />
<glyph unicode="&#xe0d5;" d="M288 640h192q14 0 23 -9t9 -23t-9 -23t-23 -9h-192q-14 0 -23 9t-9 23t9 23t23 9zM288 512h128q14 0 23 -9t9 -23t-9 -23t-23 -9h-128q-14 0 -23 9t-9 23t9 23t23 9z" />
<glyph unicode="&#xe0e1;" d="M653 905l168 -168q6 -6 6 -15v-588q0 -8 -6 -14.5t-15 -6.5h-504q-8 0 -14.5 6.5t-6.5 14.5v102q0 9 6.5 15t14.5 6q9 0 15 -6t6 -15v-81h462v559l-155 155h-307v-77q0 -8 -6 -14.5t-15 -6.5q-8 0 -14.5 6.5t-6.5 14.5v98q0 9 6.5 15t14.5 6h336q9 0 15 -6zM383 448 q-37 -58 -77.5 -104.5t-67.5 -46.5q-19 0 -30 10.5t-11 23.5q0 41 42.5 78t122.5 66q40 64 65 129q-31 73 -31 141q0 42 29 59.5t48 -3.5q18 -18 18 -56q0 -61 -29 -140q26 -54 64 -92q58 9 113 9q41 -1 60 -16t19 -36q0 -20 -16 -34.5t-39 -14.5q-80 0 -147 59 q-70 -10 -133 -32zM446 781q-6 0 -12.5 -10t-6.5 -26q0 -44 16 -95q16 51 16 95q0 25 -8 33zM446 567q-16 -39 -39 -78q37 10 82 18q-23 25 -43 60zM640 490q-44 0 -80 -4q49 -34 103 -34q10 0 17 6t7 12q0 20 -47 20zM238 328q9 1 35.5 28t59.5 73q-50 -22 -77.5 -47.5 t-27.5 -50.5q3 -3 10 -3z" />
<glyph unicode="&#xe0e2;" d="M344 911h336q9 0 15 -6l168 -168q6 -6 6 -15v-588q0 -9 -6 -15t-15 -6h-504q-9 0 -15 6t-6 15v126q0 9 6 15t15 6t15 -6t6 -15v-105h462v558l-156 156h-306v-63q0 -9 -6 -15t-15 -6t-15 6t-6 15v84q0 9 6 15t15 6zM176 743q9 0 15 -6t6 -15v-267l130 195q9 13 23 8 q15 -5 15 -20v-189l214 286q13 16 30 4q16 -13 4 -30l-252 -336q-10 -12 -24 -7t-14 20v183l-130 -195q-6 -9 -17 -9q-4 0 -6 1q-15 5 -15 20v336q0 9 6 15t15 6z" />
<glyph unicode="&#xe0e3;" d="M345 911h336q9 0 15 -6l168 -168q6 -6 6 -15v-588q0 -9 -6 -15t-15 -6h-504q-9 0 -15 6t-6 15v126q0 9 6 15t15 6t15 -6t6 -15v-105h462v558l-156 156h-306v-63q0 -9 -6 -15t-15 -6t-15 6t-6 15v84q0 9 6 15t15 6zM252 741q7 4 15.5 1t12.5 -11l71 -142l147 148q6 6 15 6 t15 -6t6 -15t-6 -15l-157 -157l77 -155q4 -7 1 -15.5t-11 -12.5q-6 -2 -9 -2q-13 0 -19 12l-71 142l-147 -148q-6 -6 -15 -6t-15 6t-6 15t6 15l157 157l-77 155q-4 7 -1 15.5t11 12.5z" />
<glyph unicode="&#xe0e4;" d="M345 911h336q9 0 15 -6l168 -168q6 -6 6 -15v-588q0 -9 -6 -15t-15 -6h-504q-9 0 -15 6t-6 15v213q0 8 6 14.5t15 6.5t15 -6.5t6 -14.5v-192h462v558l-156 156h-306v-22q0 -9 -6 -15t-15 -6t-15 6t-6 15v43q0 9 6 15t15 6zM261 743h120q40 0 65.5 -25t25.5 -65 q0 -46 -33 -81q-37 -39 -94 -39h-110l-38 -152q-3 -16 -20 -16q-3 0 -5 1q-8 1 -12.5 9t-2.5 16l42 168v1l42 167q4 16 20 16zM277 701l-31 -126h99q38 0 63 25q22 24 22 53q0 9 -2.5 18t-14.5 19.5t-32 10.5h-104z" />
<glyph unicode="&#xe0e5;" d="M302 911h336q9 0 15 -6l168 -168q6 -6 6 -15v-588q0 -9 -6 -15t-15 -6h-504q-9 0 -15 6t-6 15v168q0 9 6 15t15 6t15 -6t6 -15v-147h462v558l-156 156h-306v-63q0 -9 -6 -15t-15 -6t-15 6t-6 15v84q0 9 6 15t15 6zM218 659h252q9 0 15 -6t6 -15t-6 -15t-15 -6h-252 q-9 0 -15 6t-6 15t6 15t15 6zM218 575h252q9 0 15 -6t6 -15t-6 -15t-15 -6h-252q-9 0 -15 6t-6 15t6 15t15 6zM218 491h168q9 0 15 -6t6 -15t-6 -15t-15 -6h-168q-9 0 -15 6t-6 15t6 15t15 6z" />
<glyph unicode="&#xe0f0;" d="M302 911h336q9 0 15 -6l168 -168q6 -6 6 -15v-588q0 -8 -6 -14.5t-15 -6.5h-504q-8 0 -14.5 6.5t-6.5 14.5v102q0 9 6.5 15t14.5 6q9 0 15 -6t6 -15v-81h462v559l-155 155h-307v-77q0 -8 -6 -14.5t-15 -6.5q-8 0 -14.5 6.5t-6.5 14.5v98q0 9 6.5 15t14.5 6z" />
<glyph unicode="&#xe0f1;" d="M639 522q41 -1 60 -16t19 -36q0 -20 -16 -34.5t-39 -14.5q-80 0 -147 59q-70 -10 -133 -32q-37 -58 -77.5 -104.5t-67.5 -46.5q-19 0 -30 10.5t-11 23.5q0 41 42.5 78t122.5 66q40 64 65 129q-31 73 -31 141q0 42 29 59.5t48 -3.5q18 -18 18 -56q0 -61 -29 -140 q26 -54 64 -92q58 9 113 9zM446 781q-6 0 -12.5 -10t-6.5 -26q0 -44 16 -95q16 51 16 95q0 25 -8 33zM407 489q37 10 82 18q-23 25 -43 60q-16 -39 -39 -78zM663 452q10 0 17 6t7 12q0 20 -47 20q-44 0 -80 -4q49 -34 103 -34zM238 328q9 1 35.5 28t59.5 73 q-50 -22 -77.5 -47.5t-27.5 -50.5q3 -3 10 -3z" />
<glyph unicode="&#xe0f2;" d="M176 743q9 0 15 -6t6 -15v-267l130 195q9 13 23 8q15 -5 15 -20v-189l214 286q13 16 30 4q16 -13 4 -30l-252 -336q-10 -12 -24 -7t-14 20v183l-130 -195q-6 -9 -17 -9q-4 0 -6 1q-15 5 -15 20v336q0 9 6 15t15 6z" />
<glyph unicode="&#xe0f3;" d="M252 741q7 4 15.5 1t12.5 -11l71 -142l147 148q6 6 15 6t15 -6t6 -15t-6 -15l-157 -157l77 -155q4 -7 1 -15.5t-11 -12.5q-6 -2 -9 -2q-13 0 -19 12l-71 142l-147 -148q-6 -6 -15 -6t-15 6t-6 15t6 15l157 157l-77 155q-4 7 -1 15.5t11 12.5z" />
<glyph unicode="&#xe0f4;" d="M261 743h120q40 0 65.5 -25t25.5 -65q0 -46 -33 -81q-37 -39 -94 -39h-110l-38 -152q-3 -16 -20 -16q-3 0 -5 1q-8 1 -12.5 9t-2.5 16l42 168v1l42 167q4 16 20 16zM277 701l-31 -126h99q38 0 63 25q22 24 22 53q0 9 -2.5 18t-14.5 19.5t-32 10.5h-104z" />
<glyph unicode="&#xe0f5;" d="M218 659h252q9 0 15 -6t6 -15t-6 -15t-15 -6h-252q-9 0 -15 6t-6 15t6 15t15 6zM218 575h252q9 0 15 -6t6 -15t-6 -15t-15 -6h-252q-9 0 -15 6t-6 15t6 15t15 6zM218 491h168q9 0 15 -6t6 -15t-6 -15t-15 -6h-168q-9 0 -15 6t-6 15t6 15t15 6z" />
<glyph unicode="&#xe0f6;" d="M522 952l368 -1q26 0 43.5 -17.5t17.5 -43.5l1 -367q0 -25 -18.5 -43t-43.5 -18t-43 18t-18 43v219l-286 -284q-18 -18 -43.5 -18t-43.5 18q-17 18 -17 43.5t17 42.5l286 285h-220q-25 0 -43.5 18t-18.5 43q0 26 18 44t44 18zM133 784h203q25 0 43 -18t18 -43t-17.5 -43 t-43.5 -18h-141v-468h468v141q0 25 18 43t44 18q25 0 43 -18t18 -43v-202q0 -25 -18 -43t-43 -18h-592q-25 0 -43 18t-18 43v590q0 25 18 43t43 18z" />
<glyph unicode="&#xe100;" d="M534 985q20 -10 18 -31l-18 -192l169 -93q19 -12 16 -33q-3 -22 -25 -27l-188 -42l-36 -189q-2 -10 -9 -17t-17 -9h-5q-19 0 -28 15l-98 166l-192 -24q-22 -3 -32 17q-10 18 4 36l127 145l-82 174q-8 20 6 36q16 16 36 7l177 -76l141 132q16 15 36 5zM480 876l-94 -89 q-16 -14 -35 -6l-119 51l55 -117q9 -19 -5 -35l-85 -97l128 16h4q18 0 28 -15l66 -112l24 128q5 20 25 25l126 28l-113 63q-19 10 -17 31zM702 535q17 3 25 -10l65 -102l120 19q15 3 24 -12q8 -13 -2 -27l-77 -93l55 -108q8 -14 -3 -27q-12 -12 -27 -6l-112 44l-85 -86 q-9 -7 -17 -7q-4 0 -10 2q-16 7 -14 24l7 120l-108 55q-15 7 -13 24t18 20l116 31l19 119q3 17 19 20zM721 445l-12 -72q-2 -16 -17 -19l-71 -19l65 -33q15 -7 13 -23l-4 -73l52 52q11 11 26 5l68 -26l-34 65q-7 14 3 26l47 57l-73 -12q-15 -3 -24 11zM388 303q11 -4 11 -14 l4 -78l73 -27q10 -3 10 -15q0 -10 -10 -15l-72 -28l-3 -77q-2 -12 -11 -15h-3l-2 -1q-9 0 -13 6l-49 60l-74 -20q-12 -3 -18 6q-7 8 0 18l42 65l-43 64q-6 9 0 19q6 8 17 6l75 -20l49 61q7 8 17 5zM369 245l-28 -36q-6 -8 -17 -6l-44 12l25 -38q7 -8 0 -18l-24 -38l44 12 l4 1q7 0 12 -6l29 -36l2 46q2 11 11 14l42 17l-43 16q-10 3 -10 14z" />
<glyph unicode="&#xe101;" d="M534 985q20 -10 18 -32l-18 -192l169 -93q19 -11 16 -32q-3 -22 -25 -27l-188 -43l-36 -189q-1 -10 -8.5 -16.5t-17.5 -8.5q-2 -1 -5 -1q-18 0 -28 16l-98 165l-192 -24q-23 -2 -32 17q-10 19 4 36l127 145l-82 175q-9 20 6 35q16 16 36 8l177 -77l141 132q17 15 36 6z M702 535q16 3 25 -11l65 -102l120 20q15 2 24 -12q8 -15 -2 -27l-77 -94l55 -107q9 -15 -3 -27q-10 -12 -27 -7l-112 44l-85 -85q-7 -7 -17 -7q-7 0 -10 2q-16 7 -14 23l7 121l-108 54q-15 8 -13 24t18 21l116 30l19 120q3 17 19 20zM721 445l-12 -72q-2 -17 -17 -20 l-71 -19l65 -33q15 -7 13 -22l-4 -74l52 52q11 11 26 6l68 -27l-34 65q-7 15 3 26l47 57l-73 -11q-16 -3 -24 10zM388 302q11 -4 11 -14l4 -77l73 -27q10 -5 10 -15q0 -12 -10 -15l-72 -28l-3 -78q-2 -11 -11 -14q-2 -1 -5 -1q-9 0 -13 6l-49 60l-74 -21q-11 -3 -18 6t0 18 l42 65l-43 65q-7 9 0 18t17 6l75 -20l49 61q7 8 17 5z" />
<glyph unicode="&#xe102;" d="M476 992h192q14 0 23 -9t9 -23v-150q33 22 72 22q53 0 90.5 -37.5t37.5 -90.5t-37.5 -90.5t-90.5 -37.5q-39 0 -72 22v-335q0 -13 -9 -22.5t-23 -9.5h-149q21 -31 21 -71q0 -53 -37.5 -90.5t-90.5 -37.5t-90.5 37.5t-37.5 90.5q0 38 22 71h-150q-13 0 -22.5 9.5 t-9.5 22.5v697q0 13 9.5 22.5t22.5 9.5h192q14 0 23 -9t9 -23v-57q0 -15 -10 -24q-22 -19 -22 -47q0 -26 19 -45t45 -19q27 0 45.5 19t18.5 45q0 29 -21 47q-11 9 -11 24v57q0 13 9.5 22.5t22.5 9.5zM508 928v-12q32 -35 32 -84q0 -53 -37.5 -90.5t-90.5 -37.5t-90.5 37.5 t-37.5 90.5q0 47 32 84v12h-128v-633h160q14 0 23 -9.5t9 -22.5v-32q0 -15 -10 -24q-22 -19 -22 -47q0 -26 19 -45t45 -19q27 0 45.5 19t18.5 45q0 29 -21 47q-11 9 -11 24v32q0 13 9.5 22.5t22.5 9.5h160v345q0 13 9.5 22.5t22.5 9.5h32q15 0 24 -11q21 -21 48 -21 q26 0 45 19t19 45t-19 45t-45 19q-27 0 -48 -21q-9 -11 -24 -11h-32q-13 0 -22.5 9.5t-9.5 22.5v160h-128zM412 672q73 0 124.5 -51.5t51.5 -124.5t-51.5 -124.5t-124.5 -51.5t-124.5 51.5t-51.5 124.5t51.5 124.5t124.5 51.5zM412 640q-59 0 -101.5 -42.5t-42.5 -101.5 t42.5 -101.5t101.5 -42.5q60 0 102 42.5t42 101.5t-42 101.5t-102 42.5zM412 608q16 0 16 -16v-80h80q16 0 16 -16t-16 -16h-80v-80q0 -16 -16 -16q-6 0 -11 4.5t-5 11.5v80h-80q-6 0 -11 4.5t-5 11.5t5 11.5t11 4.5h80v80q0 7 5 11.5t11 4.5z" />
<glyph unicode="&#xe103;" d="M508 992h160q14 0 23 -9t9 -23v-150q33 22 72 22q53 0 90.5 -37.5t37.5 -90.5t-37.5 -90.5t-90.5 -37.5q-39 0 -72 22v-335q0 -13 -9 -22.5t-23 -9.5h-149q21 -31 21 -71q0 -53 -37.5 -90.5t-90.5 -37.5t-90.5 37.5t-37.5 90.5q0 38 22 71h-150q-13 0 -22.5 9.5 t-9.5 22.5v697q0 13 9.5 22.5t22.5 9.5h160q14 0 23 -9t9 -23v-44q0 -13 -7 -21q-25 -30 -25 -63q0 -40 28.5 -68t67.5 -28q40 0 68 28t28 68q0 35 -24 63q-8 10 -8 21v44q0 13 9.5 22.5t22.5 9.5zM412 672q-73 0 -124.5 -51.5t-51.5 -124.5t51.5 -124.5t124.5 -51.5 t124.5 51.5t51.5 124.5t-51.5 124.5t-124.5 51.5zM412 640q60 0 102 -42.5t42 -101.5t-42 -101.5t-102 -42.5q-59 0 -101.5 42.5t-42.5 101.5t42.5 101.5t101.5 42.5zM412 608q-6 0 -11 -4.5t-5 -11.5v-80h-80q-6 0 -11 -4.5t-5 -11.5t5 -11.5t11 -4.5h80v-80q0 -7 5 -11.5 t11 -4.5q16 0 16 16v80h80q16 0 16 16t-16 16h-80v80q0 16 -16 16z" />
<glyph unicode="&#xe104;" d="M616 987q73 0 124.5 -51.5t51.5 -124.5q0 -31 -10 -58q42 -42 42 -102q0 -59 -42.5 -101.5t-101.5 -42.5h-146v-86q74 -6 125 -61t51 -130q0 -80 -56 -136t-136 -56t-136 56t-56 136q0 75 51 130t125 61v86h-174q-53 0 -90.5 37.5t-37.5 90.5q0 39 22 71.5t58 46.5v10 q0 59 42.5 101.5t101.5 42.5q22 0 41 -6q23 39 64 62.5t87 23.5zM616 923q-35 0 -64 -20.5t-41 -54.5l-13 -36l-34 19q-18 12 -40 12q-33 0 -56.5 -23.5t-23.5 -56.5q0 -12 4 -24l12 -37l-39 -4q-24 -2 -40.5 -20.5t-16.5 -42.5q0 -26 19 -45t45 -19h174v28q-28 6 -46 28 t-18 51q0 33 23.5 56.5t56.5 23.5t56.5 -23.5t23.5 -56.5q0 -29 -18.5 -51t-45.5 -28v-28h146q33 0 56.5 23.5t23.5 56.5q0 42 -35 66l-24 16l13 26q14 26 14 52q0 47 -33 79.5t-79 32.5zM518 726q-20 0 -34 -14t-14 -34q0 -35 32 -45v45q0 16 16 16t16 -16v-45q32 11 32 45 q0 20 -14 34t-34 14zM534 356v-48q27 -5 45.5 -27.5t18.5 -50.5q0 -33 -23.5 -56.5t-56.5 -23.5t-56.5 23.5t-23.5 56.5q0 29 18 51t46 27v48q-48 -6 -80 -42t-32 -84q0 -53 37.5 -90.5t90.5 -37.5t90.5 37.5t37.5 90.5q0 48 -32 84t-80 42zM534 275v-45q0 -16 -16 -16 t-16 16v45q-32 -12 -32 -45q0 -20 14 -34t34 -14t34 14t14 34q0 15 -9 27.5t-23 17.5z" />
<glyph unicode="&#xe105;" d="M616 986q73 0 124.5 -51.5t51.5 -124.5q0 -31 -10 -58q42 -40 42 -102q0 -59 -42.5 -101.5t-101.5 -42.5h-114v-91q62 -17 103 -68.5t41 -117.5q0 -79 -56 -135.5t-136 -56.5t-136 56.5t-56 135.5q0 66 40.5 117.5t103.5 68.5v91h-142q-53 0 -90.5 37.5t-37.5 90.5 q0 40 22 72.5t58 46.5v9q0 60 42.5 102t101.5 42q22 0 41 -6q23 40 63.5 63t87.5 23zM518 757q-33 0 -56.5 -23.5t-23.5 -56.5q0 -29 18 -51t46 -27v-292q-28 -5 -46 -27t-18 -51q0 -33 23.5 -56.5t56.5 -23.5t56.5 23.5t23.5 56.5q0 29 -18.5 51t-45.5 27v292q27 5 45.5 27 t18.5 51q0 33 -23.5 56.5t-56.5 23.5zM518 725q20 0 34 -14.5t14 -33.5q0 -33 -32 -45v45q0 16 -16 16t-16 -16v-45q-32 12 -32 45q0 20 14 34t34 14zM534 229v45q32 -12 32 -45q0 -19 -14 -33.5t-34 -14.5t-34 14t-14 34q0 33 32 45v-45q0 -16 16 -16t16 16z" />
<glyph unicode="&#xe106;" d="M192 976h128q14 0 23 -9l64 -64q9 -9 9 -23v-48h160q46 0 79 -33t33 -79v-33q74 -6 125 -61t51 -130t-51 -130t-125 -62v-64q0 -46 -33 -79t-79 -33h-160v-48q0 -14 -9 -23t-23 -9h-192q-14 0 -23 9t-9 23v224q0 14 9 23t23 9h128q14 0 23 -9l64 -64q9 -9 9 -23v-80h160 q33 0 56.5 23.5t23.5 56.5v65q-70 5 -119.5 55t-55.5 120h-65v-80q0 -14 -9 -23t-23 -9h-192q-14 0 -23 9t-9 23v224q0 14 9 23t23 9h128q14 0 23 -9l64 -64q9 -9 9 -23v-48h65q6 70 55.5 120t119.5 56v32q0 33 -23.5 56.5t-56.5 23.5h-160v-80q0 -14 -9 -23t-23 -9h-192 q-14 0 -23 9t-9 23v224q0 14 9 23t23 9zM336 896h48l-48 48v-48zM224 912v-160h128v112h-32q-16 0 -16 16v32h-80zM336 576h48l-48 48v-48zM672 624q-53 0 -90.5 -37.5t-37.5 -90.5t37.5 -90.5t90.5 -37.5t90.5 37.5t37.5 90.5t-37.5 90.5t-90.5 37.5zM224 592v-160h128v112 h-32q-16 0 -16 16v32h-80zM672 576q33 0 56.5 -23.5t23.5 -56.5t-23.5 -56.5t-56.5 -23.5t-56.5 23.5t-23.5 56.5t23.5 56.5t56.5 23.5zM672 544q-20 0 -34 -14t-14 -34t14 -34t34 -14t34 14t14 34t-14 34t-34 14zM336 256h48l-48 48v-48zM224 272v-160h128v112h-32 q-16 0 -16 16v32h-80z" />
<glyph unicode="&#xe107;" d="M192 976h128q14 0 23 -9l64 -64q9 -9 9 -23v-32h160q53 0 90.5 -37.5t37.5 -90.5v-32q0 -2 -1 -3q69 -11 115 -64.5t46 -124.5t-46 -124.5t-115 -64.5q1 -1 1 -3v-64q0 -53 -37.5 -90.5t-90.5 -37.5h-160v-32q0 -14 -9 -23t-23 -9h-192q-14 0 -23 9t-9 23v224q0 14 9 23 t23 9h128q14 0 23 -9l64 -64q9 -9 9 -23v-64h160q26 0 45 19t19 45v64q0 2 1 3q-61 10 -104.5 53.5t-53.5 103.5h-67v-64q0 -14 -9 -23t-23 -9h-192q-14 0 -23 9t-9 23v224q0 14 9 23t23 9h128q14 0 23 -9l64 -64q9 -9 9 -23v-32h67q10 60 53.5 103.5t104.5 53.5q-1 1 -1 3 v32q0 26 -19 45t-45 19h-160v-64q0 -14 -9 -23t-23 -9h-192q-14 0 -23 9t-9 23v224q0 14 9 23t23 9zM320 952q-8 0 -8 -8v-64q0 -8 8 -8h64q8 0 8 8t-8 8h-56v56q0 8 -8 8zM320 632q-8 0 -8 -8v-64q0 -8 8 -8h64q8 0 8 8t-8 8h-56v56q0 8 -8 8zM672 624q-53 0 -90.5 -37.5 t-37.5 -90.5t37.5 -90.5t90.5 -37.5t90.5 37.5t37.5 90.5t-37.5 90.5t-90.5 37.5zM672 592q40 0 68 -28t28 -68t-28 -68t-68 -28t-68 28t-28 68t28 68t68 28zM320 312q-8 0 -8 -8v-64q0 -8 8 -8h64q8 0 8 8t-8 8h-56v56q0 8 -8 8z" />
<glyph unicode="&#xe108;" d="M288 992h448q53 0 90.5 -37.5t37.5 -90.5v-256q0 -53 -37.5 -90.5t-90.5 -37.5h-448q-53 0 -90.5 37.5t-37.5 90.5v256q0 53 37.5 90.5t90.5 37.5zM736 928h-448q-26 0 -45 -19t-19 -45v-256q0 -26 19 -45t45 -19h448q26 0 45 19t19 45v256q0 26 -19 45t-45 19zM656 872 q32 0 54.5 -22.5t22.5 -54.5q0 -29 -17 -49q44 -32 44 -85v-53q0 -10 -7 -17t-17 -7h-160q-10 0 -17 7t-7 17v53q0 53 44 85q-17 20 -17 49q0 32 22.5 54.5t54.5 22.5zM304 864h160q14 0 23 -9t9 -23t-9 -23t-23 -9h-160q-14 0 -23 9t-9 23t9 23t23 9zM656 824 q-12 0 -20.5 -8.5t-8.5 -20.5q0 -13 8.5 -21.5t20.5 -8.5t20.5 8.5t8.5 21.5q0 12 -8.5 20.5t-20.5 8.5zM288 720h192q16 0 16 -16t-16 -16h-192q-16 0 -16 16t16 16zM656 717q-23 0 -39.5 -16.5t-16.5 -39.5v-29h112v29q0 23 -16.5 39.5t-39.5 16.5zM288 656h128 q16 0 16 -16t-16 -16h-128q-16 0 -16 16t16 16zM480 416q53 0 90.5 -37.5t37.5 -90.5q0 -14 -9 -23t-23 -9t-23 9t-9 23q0 26 -19 45t-45 19t-45 -19t-19 -45h32q14 0 23 -9t9 -23v-192q0 -14 -9 -23t-23 -9h-256q-14 0 -23 9t-9 23v192q0 14 9 23t23 9h160q0 53 37.5 90.5 t90.5 37.5zM224 224v-128h192v128h-192zM747 203q13 -11 0 -22l-96 -96q-5 -5 -11 -5t-11 5l-48 48q-13 11 0 22q11 13 22 0l37 -36l85 84q11 13 22 0z" />
<glyph unicode="&#xe109;" d="M288 992h448q53 0 90.5 -37.5t37.5 -90.5v-256q0 -53 -37.5 -90.5t-90.5 -37.5h-448q-53 0 -90.5 37.5t-37.5 90.5v256q0 53 37.5 90.5t90.5 37.5zM656 872q-32 0 -54.5 -22.5t-22.5 -54.5q0 -29 17 -49q-44 -32 -44 -85v-53q0 -10 7 -17t17 -7h160q10 0 17 7t7 17v53 q0 53 -44 85q17 20 17 49q0 32 -22.5 54.5t-54.5 22.5zM464 864h-160q-14 0 -23 -9t-9 -23t9 -23t23 -9h160q14 0 23 9t9 23t-9 23t-23 9zM656 824q12 0 20.5 -8.5t8.5 -20.5q0 -13 -8.5 -21.5t-20.5 -8.5t-20.5 8.5t-8.5 21.5q0 12 8.5 20.5t20.5 8.5zM480 720h-192 q-16 0 -16 -16t16 -16h192q16 0 16 16t-16 16zM656 717q23 0 39.5 -16.5t16.5 -39.5v-29h-112v29q0 23 16.5 39.5t39.5 16.5zM416 656h-128q-16 0 -16 -16t16 -16h128q16 0 16 16t-16 16zM480 416q53 0 90.5 -37.5t37.5 -90.5q0 -14 -9 -23t-23 -9t-23 9t-9 23q0 26 -19 45 t-45 19t-45 -19t-19 -45h32q14 0 23 -9t9 -23v-192q0 -14 -9 -23t-23 -9h-256q-14 0 -23 9t-9 23v192q0 14 9 23t23 9h160q0 53 37.5 90.5t90.5 37.5zM224 224v-128h192v128h-192zM759 215q9 -10 9 -23t-9 -23l-96 -96q-11 -9 -23 -9q-13 0 -23 9l-48 48q-9 10 -9 23t9 23 q10 9 23 9t23 -9l25 -26l73 74q10 9 23 9t23 -9z" />
<glyph unicode="&#xe10a;" d="M176 992h320q14 0 23 -9l192 -192q9 -9 9 -23v-32q0 -14 -9 -23t-23 -9t-23 9t-9 23v16h-160q-16 0 -16 16v160h-272v-832h448v32q0 14 9 23t23 9t23 -9t9 -23v-64q0 -14 -9 -23t-23 -9h-512q-14 0 -23 9t-9 23v896q0 14 9 23t23 9zM512 784h115l-115 115v-115zM443 715 q13 -11 0 -22l-96 -96q-5 -5 -11 -5t-11 5l-48 48q-13 11 0 22q11 13 22 0l37 -36l85 84q11 13 22 0zM560 672h160q14 0 23 -9l128 -128q9 -9 9 -23v-288q0 -14 -9 -23t-23 -9h-288q-14 0 -23 9t-9 23v416q0 14 9 23t23 9zM592 608v-352h224v240h-96q-16 0 -16 16v96h-112z M736 528h51l-51 51v-51zM443 555q13 -11 0 -22l-96 -96q-5 -5 -11 -5t-11 5l-48 48q-13 11 0 22q11 13 22 0l37 -36l85 84q11 13 22 0zM624 464h160q16 0 16 -16t-16 -16h-160q-16 0 -16 16t16 16zM624 400h160q16 0 16 -16t-16 -16h-160q-16 0 -16 16t16 16zM624 336h160 q16 0 16 -16t-16 -16h-160q-16 0 -16 16t16 16z" />
<glyph unicode="&#xe10b;" d="M208 992h416q14 0 23 -9l192 -192q9 -9 9 -23v-704q0 -14 -9 -23t-23 -9h-608q-14 0 -23 9t-9 23v896q0 14 9 23t23 9zM624 944q-16 0 -16 -16v-160q0 -16 16 -16h160q16 0 16 16t-16 16h-144v144q0 16 -16 16zM443 875q-11 13 -22 0l-85 -84l-37 36q-11 13 -22 0 q-13 -11 0 -22l48 -48q5 -5 11 -5t11 5l96 96q13 11 0 22zM443 715q-11 13 -22 0l-85 -84l-37 36q-11 13 -22 0q-13 -11 0 -22l48 -48q5 -5 11 -5t11 5l96 96q13 11 0 22zM624 560h-160q-16 0 -16 -16v-416q0 -16 16 -16h288q16 0 16 16v288q0 4 -1 6q-2 4 -4 5l-128 128 q-1 2 -5 4q-2 1 -6 1zM608 528v-112q0 -16 16 -16h112v-256h-256v384h128zM713 432h-73v73zM688 368h-160q-16 0 -16 -16t16 -16h160q16 0 16 16t-16 16zM688 304h-160q-16 0 -16 -16t16 -16h160q16 0 16 16t-16 16zM688 240h-160q-16 0 -16 -16t16 -16h160q16 0 16 16 t-16 16z" />
<glyph unicode="&#xe10c;" d="M160 992h320q14 0 23 -9l192 -192q9 -9 9 -23v-64q0 -14 -9 -23t-23 -9t-23 9t-9 23v48h-160q-16 0 -16 16v160h-272v-832h448v32q0 14 9 23t23 9t23 -9t9 -23v-64q0 -14 -9 -23t-23 -9h-512q-14 0 -23 9t-9 23v896q0 14 9 23t23 9zM496 784h115l-115 115v-115zM256 688 h224q16 0 16 -16t-16 -16h-224q-16 0 -16 16t16 16zM672 640q93 0 158.5 -65.5t65.5 -158.5t-65.5 -158.5t-158.5 -65.5t-158.5 65.5t-65.5 158.5t65.5 158.5t158.5 65.5zM256 624h192q16 0 16 -16t-16 -16h-192q-16 0 -16 16t16 16zM672 576q-66 0 -113 -47t-47 -113 t47 -113t113 -47t113 47t47 113t-47 113t-113 47zM256 560h160q16 0 16 -16t-16 -16h-160q-16 0 -16 16t16 16zM672 528q46 0 79 -33t33 -79t-33 -79t-79 -33t-79 33t-33 79q0 16 16 16t16 -16q0 -33 23.5 -56.5t56.5 -23.5t56.5 23.5t23.5 56.5q0 22 -11 41l-1 -1l-26 -21 q-6 -5 -13 -3q-7 1 -11 9l-32 64q-5 8 0 15q5 8 14 8zM256 496h144q16 0 16 -16t-16 -16h-144q-16 0 -16 16t16 16zM256 432h144q16 0 16 -16t-16 -16h-144q-16 0 -16 16t16 16zM256 368h32q16 0 16 -16t-16 -16h-32q-16 0 -16 16t16 16zM352 368h32q16 0 16 -16t-16 -16 h-32q-16 0 -16 16t16 16zM256 304q16 0 16 -16t-16 -16t-16 16t16 16zM304 304q16 0 16 -16t-16 -16t-16 16t16 16zM352 304q16 0 16 -16t-16 -16t-16 16t16 16zM400 304q16 0 16 -16t-16 -16t-16 16t16 16zM256 240q16 0 16 -16t-16 -16t-16 16t16 16zM320 240q16 0 16 -16 t-16 -16t-16 16t16 16zM384 240q16 0 16 -16t-16 -16t-16 16t16 16zM448 240q16 0 16 -16t-16 -16t-16 16t16 16zM256 176q16 0 16 -16t-16 -16t-16 16t16 16zM352 176q16 0 16 -16t-16 -16t-16 16t16 16zM448 176q16 0 16 -16t-16 -16t-16 16t16 16zM544 176q16 0 16 -16 t-16 -16t-16 16t16 16z" />
<glyph unicode="&#xe10d;" d="M208 992h416q14 0 23 -9l192 -192q9 -9 9 -23v-704q0 -14 -9 -23t-23 -9h-608q-14 0 -23 9t-9 23v896q0 14 9 23t23 9zM624 944q-16 0 -16 -16v-160q0 -16 16 -16h160q16 0 16 16t-16 16h-144v144q0 16 -16 16zM528 656h-288q-16 0 -16 -16t16 -16h288q16 0 16 16t-16 16 zM528 592h-288q-16 0 -16 -16t16 -16h288q16 0 16 16t-16 16zM464 528h-224q-16 0 -16 -16t16 -16h224q16 0 16 16t-16 16zM272 464h-32q-16 0 -16 -16t16 -16h32q16 0 16 16t-16 16zM368 464h-32q-16 0 -16 -16t16 -16h32q16 0 16 16t-16 16zM624 464q-73 0 -124.5 -51.5 t-51.5 -124.5t51.5 -124.5t124.5 -51.5t124.5 51.5t51.5 124.5t-51.5 124.5t-124.5 51.5zM624 432q59 0 101.5 -42.5t42.5 -101.5t-42.5 -101.5t-101.5 -42.5t-101.5 42.5t-42.5 101.5t42.5 101.5t101.5 42.5zM240 400q-16 0 -16 -16t16 -16t16 16t-16 16zM288 400 q-16 0 -16 -16t16 -16t16 16t-16 16zM336 400q-16 0 -16 -16t16 -16t16 16t-16 16zM384 400q-16 0 -16 -16t16 -16t16 16t-16 16zM624 400q-9 0 -14 -8q-5 -7 0 -15l32 -64q4 -8 11 -9q7 -2 13 3l26 21q1 0 1 1q11 -19 11 -41q0 -33 -23.5 -56.5t-56.5 -23.5t-56.5 23.5 t-23.5 56.5q0 16 -16 16t-16 -16q0 -46 33 -79t79 -33t79 33t33 79t-33 79t-79 33zM240 336q-16 0 -16 -16t16 -16t16 16t-16 16zM304 336q-16 0 -16 -16t16 -16t16 16t-16 16zM368 336q-16 0 -16 -16t16 -16t16 16t-16 16zM240 272q-16 0 -16 -16t16 -16t16 16t-16 16z M336 272q-16 0 -16 -16t16 -16t16 16t-16 16z" />
<glyph unicode="&#xe10e;" d="M168 992h320q14 0 23 -9l192 -192q9 -9 9 -23v-64q14 0 23 -9t9 -23v-16h32v16q0 14 9 23t23 9t23 -9t9 -23v-16h32q16 0 16 -16v-480q0 -16 -16 -16h-160v-80q0 -14 -9 -23t-23 -9h-512q-14 0 -23 9t-9 23v896q0 14 9 23t23 9zM200 928v-832h448v48h-384q-16 0 -16 16 v480q0 16 16 16h32v16q0 14 9 23t23 9t23 -9t9 -23v-16h32v16q0 14 9 23t23 9t23 -9t9 -23v-16h32v16q0 14 9 23t23 9t23 -9t9 -23v-16h32v16q0 14 9 23t23 9t23 -9t9 -23v80h-160q-16 0 -16 16v160h-272zM504 784h115l-115 115v-115zM328 688q-16 0 -16 -16v-80 q0 -16 16 -16t16 16v80q0 16 -16 16zM424 688q-16 0 -16 -16v-80q0 -16 16 -16t16 16v80q0 16 -16 16zM520 688q-16 0 -16 -16v-80q0 -16 16 -16t16 16v80q0 16 -16 16zM616 688q-16 0 -16 -16v-80q0 -16 16 -16t16 16v80q0 16 -16 16zM712 688q-16 0 -16 -16v-80 q0 -16 16 -16t16 16v80q0 16 -16 16zM808 688q-16 0 -16 -16v-80q0 -16 16 -16t16 16v80q0 16 -16 16zM280 528v-352h576v352h-576zM484 464q39 0 58 -11t19 -41q0 -22 -8.5 -31.5t-27.5 -14.5q-1 0 -1 -2t2 -2q39 -9 39 -48q0 -61 -91 -61q-27 0 -38.5 5t-11.5 22 q0 19 12 19q4 0 16 -1.5t18 -1.5q20 0 28.5 5t8.5 18t-8.5 17.5t-31.5 4.5h-12q-11 0 -11 20t11 20h12q36 0 36 21q0 19 -27 19q-5 0 -17 -1t-19 -1q-12 0 -12 15q0 18 12.5 24t43.5 6zM618 461h56q25 0 25 -22v-132q0 -7 8 -7h14q11 0 11 -22t-11 -22h-105q-11 0 -11 21 q0 23 11 23h21q6 0 7 1t1 6v102q0 8 -8 8h-19q-12 0 -12 21q0 23 12 23z" />
<glyph unicode="&#xe10f;" d="M208 992h416q14 0 23 -9l192 -192q9 -9 9 -23v-704q0 -14 -9 -23t-23 -9h-608q-14 0 -23 9t-9 23v896q0 14 9 23t23 9zM624 944q-16 0 -16 -16v-160q0 -16 16 -16h160q16 0 16 16t-16 16h-144v144q0 16 -16 16zM704 672q-14 0 -23 -9t-9 -23h-32q0 14 -9 23t-23 9t-23 -9 t-9 -23h-32q0 14 -9 23t-23 9t-23 -9t-9 -23h-32q0 14 -9 23t-23 9t-23 -9t-9 -23h-32q0 14 -9 23t-23 9t-23 -9t-9 -23h-16q-14 0 -23 -9t-9 -23v-416q0 -14 9 -23t23 -9h480q14 0 23 9t9 23v416q0 14 -9 23t-23 9h-16q0 14 -9 23t-23 9zM320 656q16 0 16 -16v-80 q0 -16 -16 -16t-16 16v80q0 16 16 16zM416 656q16 0 16 -16v-80q0 -16 -16 -16t-16 16v80q0 16 16 16zM512 656q16 0 16 -16v-80q0 -16 -16 -16t-16 16v80q0 16 16 16zM608 656q16 0 16 -16v-80q0 -16 -16 -16t-16 16v80q0 16 16 16zM704 656q16 0 16 -16v-80q0 -16 -16 -16 t-16 16v80q0 16 16 16zM736 624h16q16 0 16 -16v-416q0 -16 -16 -16h-480q-16 0 -16 16v416q0 16 16 16h16v-64q0 -18 16 -27q8 -5 16 -5q14 0 23 9t9 23v64h32v-64q0 -14 9 -23t23 -9t23 9t9 23v64h32v-64q0 -14 9 -23t23 -9t23 9t9 23v64h32v-64q0 -14 9 -23t23 -9t23 9 t9 23v64h32v-64q0 -14 9 -23t23 -9q8 0 16 5q16 9 16 27v64zM288 496v-288h448v288h-448zM428 448q39 0 58 -11t19 -41q0 -21 -8.5 -30.5t-27.5 -14.5q-1 -1 -1 -2q0 -2 1 -2q39 -9 39 -48q0 -62 -90 -62q-27 0 -38.5 5.5t-11.5 21.5q0 19 12 19q4 0 16 -1t18 -1 q20 0 28.5 4.5t8.5 18.5q0 12 -9 16.5t-31 4.5h-13q-10 0 -10 21q0 19 10 19h13q36 0 36 22q0 18 -27 18q-5 0 -17.5 -1t-19.5 -1q-11 0 -11 16q0 17 12.5 23t43.5 6zM562 445h56q25 0 25 -21v-132q0 -8 8 -8h14q11 0 11 -22t-11 -22h-105q-11 0 -11 21q0 23 11 23h21 q8 0 8 8v101q0 5 -1.5 6.5t-6.5 1.5h-19q-12 0 -12 21q0 23 12 23z" />
<glyph unicode="&#xe110;" d="M136 992h320q14 0 23 -9l192 -192q9 -9 9 -23v-64q0 -8 -5 -16h229q16 0 16 -16v-480q0 -16 -16 -16h-229q5 -8 5 -16v-96q0 -14 -9 -23t-23 -9h-512q-14 0 -23 9t-9 23v896q0 14 9 23t23 9zM168 928v-832h448v64q0 8 5 16h-389q-16 0 -16 16v480q0 16 16 16h389 q-5 8 -5 16v48h-160q-16 0 -16 16v160h-272zM472 784h115l-115 115v-115zM776 648h-384q-10 0 -17 -7t-7 -17t7 -17t17 -7h384q10 0 17 7t7 17t-7 17t-17 7zM248 560v-64h64v64h-64zM344 560v-64h64v64h-64zM440 560v-64h64v64h-64zM536 560v-64h64v64h-64zM632 560v-64h64 v64h-64zM728 560v-64h64v64h-64zM824 560v-64h64v64h-64zM248 464v-64h64v64h-64zM344 464v-64h64v64h-64zM440 464v-64h64v64h-64zM536 464v-64h64v64h-64zM632 464v-64h64v64h-64zM728 464v-64h64v64h-64zM824 464v-64h64v64h-64zM248 368v-64h64v64h-64zM344 368v-64h64 v64h-64zM440 368v-64h64v64h-64zM536 368v-64h64v64h-64zM632 368v-64h64v64h-64zM728 368v-64h64v64h-64zM824 368v-64h64v64h-64zM248 272v-64h64v64h-64zM344 272v-64h64v64h-64zM440 272v-64h64v64h-64zM536 272v-64h64v64h-64zM632 272v-64h64v64h-64zM728 272v-64h64 v64h-64zM824 272v-64h64v64h-64z" />
<glyph unicode="&#xe111;" d="M136 992h416q14 0 23 -9l192 -192q9 -9 9 -23v-64h-544q-14 0 -23 -9t-9 -23v-480q0 -14 9 -23t23 -9h544v-96q0 -14 -9 -23t-23 -9h-608q-14 0 -23 9t-9 23v896q0 14 9 23t23 9zM552 944q-16 0 -16 -16v-160q0 -16 16 -16h160q16 0 16 16t-16 16h-144v144q0 16 -16 16z M232 688h672q16 0 16 -16v-480q0 -16 -16 -16h-672q-16 0 -16 16v480q0 16 16 16zM776 648h-384q-10 0 -18 -8q-6 -8 -6 -16q0 -10 7 -17t17 -7h384q10 0 17 7t7 17q0 8 -6 16q-8 8 -18 8zM248 560v-64h64v64h-64zM344 560v-64h64v64h-64zM440 560v-64h64v64h-64zM536 560 v-64h64v64h-64zM632 560v-64h64v64h-64zM728 560v-64h64v64h-64zM824 560v-64h64v64h-64zM248 464v-64h64v64h-64zM344 464v-64h64v64h-64zM440 464v-64h64v64h-64zM536 464v-64h64v64h-64zM632 464v-64h64v64h-64zM728 464v-64h64v64h-64zM824 464v-64h64v64h-64zM248 368 v-64h64v64h-64zM344 368v-64h64v64h-64zM440 368v-64h64v64h-64zM536 368v-64h64v64h-64zM632 368v-64h64v64h-64zM728 368v-64h64v64h-64zM824 368v-64h64v64h-64zM248 272v-64h64v64h-64zM344 272v-64h64v64h-64zM440 272v-64h64v64h-64zM536 272v-64h64v64h-64zM632 272 v-64h64v64h-64zM728 272v-64h64v64h-64zM824 272v-64h64v64h-64z" />
<glyph unicode="&#xe112;" d="M204 992h320q14 0 23 -9l192 -192q9 -9 9 -23v-64q0 -14 -9 -23t-23 -9t-23 9t-9 23v48h-160q-16 0 -16 16v160h-272v-832h448v32q0 14 9 23t23 9t23 -9t9 -23v-64q0 -14 -9 -23t-23 -9h-512q-14 0 -23 9t-9 23v896q0 14 9 23t23 9zM540 784h115l-115 115v-115zM316 704 h256q14 0 23 -9t9 -23t-9 -23t-23 -9h-256q-14 0 -23 9t-9 23t9 23t23 9zM732 664q37 0 62.5 -25.5t25.5 -62.5q0 -34 -23 -59q55 -37 55 -101v-64q0 -10 -7 -17t-17 -7h-8v-136q0 -10 -7 -17t-17 -7h-128q-10 0 -17 7t-7 17v136h-8q-10 0 -17 7t-7 17v64q0 64 55 101 q-23 25 -23 59q0 37 25.5 62.5t62.5 25.5zM732 616q-16 0 -28 -12t-12 -28t12 -28t28 -12t28 12t12 28t-12 28t-28 12zM316 608h160q14 0 23 -9t9 -23t-9 -23t-23 -9h-160q-14 0 -23 9t-9 23t9 23t23 9zM732 488q-30 0 -51 -21t-21 -51v-40h8q10 0 17 -7t7 -17v-136h24v104 q0 16 16 16t16 -16v-104h24v136q0 10 7 17t17 7h8v40q0 30 -21 51t-51 21zM300 464h224q16 0 16 -16t-16 -16h-224q-16 0 -16 16t16 16zM300 400h224q16 0 16 -16t-16 -16h-224q-16 0 -16 16t16 16zM300 336h224q16 0 16 -16t-16 -16h-224q-16 0 -16 16t16 16zM300 272h160 q16 0 16 -16t-16 -16h-160q-16 0 -16 16t16 16z" />
<glyph unicode="&#xe113;" d="M208 992h416q14 0 23 -9l192 -192q9 -9 9 -23v-704q0 -14 -9 -23t-23 -9h-608q-14 0 -23 9t-9 23v896q0 14 9 23t23 9zM624 944q-16 0 -16 -16v-160q0 -16 16 -16h160q16 0 16 16t-16 16h-144v144q0 16 -16 16zM496 672h-224q-14 0 -23 -9t-9 -23t9 -23t23 -9h224 q14 0 23 9t9 23t-9 23t-23 9zM656 632q-37 0 -62.5 -25.5t-25.5 -62.5q0 -34 23 -59q-55 -37 -55 -101v-64q0 -10 7 -17t17 -7h8v-136q0 -10 7 -17t17 -7h128q10 0 17 7t7 17v136h8q10 0 17 7t7 17v64q0 64 -55 101q23 25 23 59q0 37 -25.5 62.5t-62.5 25.5zM656 584 q16 0 28 -12t12 -28t-12 -28t-28 -12t-28 12t-12 28t12 28t28 12zM400 576h-128q-14 0 -23 -9t-9 -23t9 -23t23 -9h128q14 0 23 9t9 23t-9 23t-23 9zM656 456q30 0 51 -21t21 -51v-40h-8q-10 0 -17 -7t-7 -17v-136h-24v104q0 16 -16 16t-16 -16v-104h-24v136q0 10 -7 17 t-17 7h-8v40q0 30 21 51t51 21zM448 432h-192q-16 0 -16 -16t16 -16h192q16 0 16 16t-16 16zM448 368h-192q-16 0 -16 -16t16 -16h192q16 0 16 16t-16 16zM448 304h-192q-16 0 -16 -16t16 -16h192q16 0 16 16t-16 16zM384 240h-128q-16 0 -16 -16t16 -16h128q16 0 16 16 t-16 16z" />
<glyph unicode="&#xe114;" d="M191 992h320q14 0 23 -9l192 -192q9 -9 9 -23v-64q0 -14 -9.5 -23t-22.5 -9t-22.5 9.5t-9.5 22.5v48h-160q-6 0 -11 4.5t-5 11.5v160h-272v-832h448v32q0 13 9.5 22.5t22.5 9.5t22.5 -9t9.5 -23v-64q0 -14 -9.5 -23t-22.5 -9h-512q-13 0 -22.5 9.5t-9.5 22.5v896 q0 13 9.5 22.5t22.5 9.5zM527 784h115l-115 115v-115zM678 618l55 8q12 2 17 -10l21 -52l52 -21q12 -5 10 -17l-7 -56l34 -44q8 -10 0 -20l-34 -44l7 -56q2 -12 -10 -17l-52 -21l-21 -52q-5 -12 -17 -10l-55 8l-45 -35q-5 -3 -10 -3t-9 3l-45 35l-55 -8q-14 -2 -17 10 l-22 52l-52 21q-11 5 -9 17l7 56l-34 44q-8 10 0 20l34 44l-7 56q-2 12 9 17l52 21l22 52q3 12 17 10l55 -8l45 35q9 7 19 0zM623 620l-39 -31q-6 -5 -12 -3l-50 6l-20 -46q-1 -6 -8 -9l-47 -19l7 -50q0 -8 -3 -12l-31 -40l31 -40q3 -5 3 -12l-7 -50l47 -19q7 -3 8 -9 l20 -46l50 6q0 1 2 1q4 0 10 -4l39 -31l40 31q6 5 12 3l50 -6l19 46q3 6 9 9l47 19l-7 50q-1 5 3 12l31 40l-31 40q-4 7 -3 12l7 50l-47 19q-6 3 -9 9l-19 46l-50 -6q-6 -2 -12 3zM623 576q67 0 113.5 -47t46.5 -113t-46.5 -113t-113.5 -47q-66 0 -113 47t-47 113t47 113 t113 47zM623 512q-40 0 -68 -28t-28 -68t28 -68t68 -28t68 28t28 68t-28 68t-68 28zM683 459q11 -11 0 -22l-64 -64q-5 -5 -12 -5q-6 0 -11 5l-32 32q-11 11 0 22q12 13 23 0l20 -20l53 52q12 13 23 0z" />
<glyph unicode="&#xe115;" d="M208 992h416q14 0 23 -9l192 -192q9 -9 9 -23v-704q0 -14 -9 -23t-23 -9h-608q-14 0 -23 9t-9 23v896q0 14 9 23t23 9zM624 944q-16 0 -16 -16v-160q0 -16 16 -16h160q16 0 16 16t-16 16h-144v144q0 16 -16 16zM582 618l-44 35q-10 7 -20 0l-44 -35l-56 8q-12 2 -17 -10 l-21 -52l-52 -21q-12 -5 -10 -17l8 -56l-35 -44q-7 -10 0 -20l35 -44l-8 -56q-2 -12 10 -17l52 -21l21 -52q5 -12 17 -10l56 8l44 -35q4 -3 10 -3t10 3l44 35l56 -8q12 -2 17 10l21 52l52 21q12 5 10 17l-8 56l35 44q7 10 0 20l-35 44l8 56q2 12 -10 17l-52 21l-21 52 q-5 12 -17 10zM528 620l40 -31q5 -5 12 -3l50 6l19 -46q3 -6 9 -9l46 -19l-6 -50q-2 -7 3 -12l31 -40l-31 -40q-5 -5 -3 -12l6 -50l-46 -19q-6 -3 -9 -9l-19 -46l-50 6q-7 2 -12 -3l-40 -31l-40 31q-6 4 -10 4q-1 0 -2 -1l-50 -6l-19 46q-3 6 -9 9l-46 19l6 50q2 7 -3 12 l-31 40l31 40q5 5 3 12l-6 50l46 19q6 3 9 9l19 46l50 -6q7 -2 12 3zM528 576q-66 0 -113 -47t-47 -113t47 -113t113 -47t113 47t47 113t-47 113t-113 47zM528 512q40 0 68 -28t28 -68t-28 -68t-68 -28t-68 28t-28 68t28 68t68 28zM587 459q-11 13 -22 0l-53 -52l-21 20 q-11 13 -22 0q-13 -11 0 -22l32 -32q5 -5 11 -5t11 5l64 64q13 11 0 22z" />
</font>
</defs>
</svg>
