<svg xmlns="http://www.w3.org/2000/svg" viewBox="-7.5 16.5 16 16"><path d="M1.87 20.457v.674A1.36 1.36 0 0 1 .5 22.479c-.757 0-1.37-.603-1.37-1.348v-.674A1.36 1.36 0 0 1 .5 19.109c.757 0 1.37.603 1.37 1.348zm.585 3.468c-.032-.032-.799-.773-1.955-.773-1.156 0-1.923.741-1.955.773a.335.335 0 0 0-.1.238v2.696c0 .128.073.244.189.301l.525.258.317 2.184a.34.34 0 0 0 .339.289h1.37a.34.34 0 0 0 .339-.289l.317-2.184.525-.258a.336.336 0 0 0 .189-.301v-2.696a.33.33 0 0 0-.1-.238zm3.184-2.458v.505c0 .558-.46 1.011-1.028 1.011s-1.028-.453-1.028-1.011v-.505c0-.558.46-1.011 1.028-1.011s1.028.453 1.028 1.011zm-1.028 2.022c-1.272 0-1.37.516-1.37.674v2.022c0 .113.057.218.153.28l.379.249.155 1.526a.34.34 0 0 0 .341.303h.685a.34.34 0 0 0 .341-.303l.155-1.526.379-.249a.336.336 0 0 0 .153-.28v-2.022c0-.158-.099-.674-1.371-.674zm-7.194-2.022v.505c0 .558-.46 1.011-1.028 1.011s-1.028-.453-1.028-1.011v-.505c0-.558.46-1.011 1.028-1.011s1.028.453 1.028 1.011zm-1.028 2.022c-1.271 0-1.37.516-1.37.674v2.022c0 .113.057.218.153.28l.379.249.155 1.526a.34.34 0 0 0 .341.303h.685a.34.34 0 0 0 .341-.303l.155-1.526.379-.249a.336.336 0 0 0 .153-.28v-2.022c-.001-.158-.1-.674-1.371-.674z"/></svg>