<svg xmlns="http://www.w3.org/2000/svg" viewBox="-7.5 16.5 16 16"><path d="M-1.239 20.22h.433c.385 0 .536-.151.719-.484l.57-.87h.031l.553.87c.2.335.335.485.735.485h.436c.485 0 .618-.368.3-.852l-.669-.969c-.216-.318-.466-.452-.852-.452H-.017c-.385 0-.636.134-.853.452l-.668.969c-.32.483-.187.851.299.851zM.712 21.527c-1.354 0-2.389.446-2.979.749-.428.233-.5.588-.285.999l.177.338c.213.429.553.5.999.305.429-.231 1.125-.517 1.893-.517.927 0 1.694.41 1.694 1.605v.213h-.374c-2.033 0-5.314.445-5.314 3.104 0 1.659 1.355 2.729 3.013 2.729 1.999 0 2.855-1.712 2.855-1.712h.034s-.034.142-.034.392v.357c0 .499.248.749.73.749h.607c.499 0 .748-.25.748-.749v-4.942c-.001-2.301-1.41-3.62-3.764-3.62zm1.516 5.404c0 1.106-.82 2.39-2.088 2.39-.907 0-1.371-.588-1.372-1.195 0-1.356 1.944-1.534 3.086-1.534h.374v.339z"/></svg>