<svg xmlns="http://www.w3.org/2000/svg" viewBox="-7.5 16.5 16 16"><path d="M-3.093 18.593c-1.748 0-3.165.43-3.165.962v8.5c0 .51.353.366.904.29.533-.076 1.15-.13 1.81-.13 1.648 0 3.19.293 3.625.695.093.085.143.063.143-.017v-9.337c0-.532-1.568-.963-3.316-.963z"/><path d="M.08 29.39c-.436-.4-1.977-.694-3.626-.694-.66 0-1.276.053-1.81.13-.143.02-.903.138-.903.404v.27c0 .51.354.365.905.288.533-.075 1.15-.13 1.81-.13 1.648 0 3.19.294 3.625.696.092.085.142.063.142-.017v-.71c0-.09-.05-.15-.142-.236zM4.093 18.593c1.748 0 3.165.43 3.165.962v8.5c0 .51-.353.366-.904.29-.533-.076-1.15-.13-1.81-.13-1.648 0-3.19.293-3.625.695-.093.085-.143.063-.143-.017v-9.337c0-.532 1.568-.963 3.316-.963z"/><path d="M.92 29.39c.436-.4 1.977-.694 3.626-.694.66 0 1.276.053 1.81.13.143.02.903.138.903.404v.27c0 .51-.354.365-.905.288-.533-.075-1.15-.13-1.81-.13-1.648 0-3.19.294-3.625.696-.092.085-.142.063-.142-.017v-.71c0-.09.05-.15.142-.236z"/></svg>