<svg xmlns="http://www.w3.org/2000/svg" viewBox="-7.5 16.5 16 16"><path d="M7.493 24.272c-.03-.904-.232-1.783-.6-2.613-.37-.83-.887-1.57-1.538-2.198-.674-.65-1.463-1.152-2.344-1.49-.806-.312-1.65-.47-2.51-.47-1.398 0-2.753.416-3.917 1.2-1.192.805-2.095 1.94-2.613 3.287-.34.88-.495 1.802-.464 2.738.03.904.232 1.783.6 2.613.37.83.887 1.57 1.538 2.198.674.65 1.463 1.152 2.344 1.49.807.312 1.652.47 2.51.47 1.4 0 2.753-.416 3.917-1.2 1.192-.805 2.095-1.94 2.613-3.287.34-.88.496-1.802.465-2.738zm-9.574-4.084c.105.426.158.862.157 1.3 0 .66-.125 1.312-.366 1.94-.24.628-.586 1.195-1.027 1.685-.293.326-.625.614-.99.86-.33-1.072-.292-2.214.117-3.276.408-1.063 1.146-1.936 2.11-2.51zm-.07 5.975c.568-.633 1.015-1.364 1.326-2.173s.47-1.65.47-2.502c.002-.64-.085-1.273-.26-1.89.365-.084.738-.126 1.113-.126.614 0 1.22.114 1.804.338.56.215 1.07.522 1.514.912.3.263.565.56.794.886-.543.34-1.032.753-1.46 1.228-.57.633-1.016 1.364-1.327 2.173-.31.808-.47 1.65-.47 2.5-.002.64.085 1.274.26 1.89-.365.085-.738.127-1.113.127-.615 0-1.222-.114-1.805-.338-.56-.216-1.07-.523-1.514-.913-.3-.263-.565-.56-.794-.886.54-.34 1.03-.75 1.46-1.227zm5.23 2.65c-.105-.427-.158-.863-.157-1.3 0-.66.125-1.312.366-1.94.24-.628.586-1.195 1.027-1.685.293-.326.624-.614.99-.86.33 1.072.292 2.214-.116 3.276-.408 1.062-1.146 1.935-2.11 2.508z"/></svg>