<svg xmlns="http://www.w3.org/2000/svg" viewBox="0 0 16 16"><title>Artboard 1</title><path d="M12.328 3.671C13.431 4.775 14.11 6.303 14.11 8s-.679 3.225-1.782 4.329S9.697 14.111 8 14.111c-1.697 0-3.225-.679-4.329-1.782S1.89 9.697 1.89 8s.679-3.225 1.782-4.329S6.303 1.889 8 1.889c1.697 0 3.225.679 4.328 1.782zm-7.68.955c-.87.87-1.4 2.079-1.4 3.374s.53 2.504 1.4 3.353c.849.87 2.058 1.4 3.353 1.4 1.293 0 2.503-.53 3.373-1.4.849-.849 1.379-2.058 1.379-3.353s-.53-2.504-1.379-3.374A4.863 4.863 0 0 0 8 3.247a4.77 4.77 0 0 0-3.352 1.379z"/></svg>