<svg xmlns="http://www.w3.org/2000/svg" viewBox="-7.5 16.5 16 16"><path d="M.5 17.486c-1.853 0-3.594.73-4.904 2.054a7.004 7.004 0 0 0-2.03 4.96c0 3.868 3.11 7.014 6.934 7.014 1.852 0 3.593-.73 4.903-2.054s2.032-3.087 2.03-4.96c0-3.868-3.11-7.014-6.934-7.014zM4.177 28.22A5.136 5.136 0 0 1 .5 29.76c-2.867 0-5.2-2.36-5.2-5.26a5.26 5.26 0 0 1 1.522-3.72A5.134 5.134 0 0 1 .5 19.24c2.867 0 5.2 2.36 5.2 5.26a5.26 5.26 0 0 1-1.522 3.72z"/><path d="M3.967 24.318h-6.934a.43.43 0 0 0-.306.128.442.442 0 0 0-.127.31c0 2.176 1.75 3.945 3.9 3.945 2.152 0 3.9-1.77 3.9-3.944a.437.437 0 0 0-.433-.438zM.5 27.826c-1.526 0-2.792-1.145-3.003-2.63h6.006c-.21 1.484-1.478 2.63-3.003 2.63zM-2.38 22.875a.433.433 0 0 0 .517-.332.495.495 0 0 1 .478-.388c.23 0 .427.16.478.388a.434.434 0 1 0 .846-.192 1.352 1.352 0 0 0-2.65.002.437.437 0 0 0 .33.523zM1.39 22.875a.43.43 0 0 0 .516-.332c.05-.225.25-.388.478-.388s.428.163.478.388a.435.435 0 0 0 .517.332.437.437 0 0 0 .327-.523 1.353 1.353 0 0 0-1.324-1.074 1.37 1.37 0 0 0-1.324 1.074.44.44 0 0 0 .33.523z"/></svg>