<svg xmlns="http://www.w3.org/2000/svg" viewBox="0 0 48 48"><path d="M35 11c0-1.103-.897-2-2-2H15c-1.103 0-2 .897-2 2v18c0 1.103.897 2 2 2h18c1.103 0 2-.897 2-2V11zm-2.002 14.948a57.922 57.922 0 0 0-7.708-3.788c1.299-.928 4.757-3.224 7.709-3.692l-.001 7.48zM33 11l-.001 6.708c-3.575.514-7.697 3.494-8.541 4.129-2.953-1.114-6.263-2.022-9.458-2.184V11h18zM15 29v-8.596c7.406.388 15 4.899 18 6.416V29H15z"/><path d="M23.5 17.75c1.241 0 2.25-1.009 2.25-2.25s-1.009-2.25-2.25-2.25-2.25 1.009-2.25 2.25 1.009 2.25 2.25 2.25zm0-3.75a1.5 1.5 0 1 1 .001 2.999A1.5 1.5 0 0 1 23.5 14zM9 23.5a.5.5 0 0 0 .321-.885L6.781 20.5l2.539-2.116a.5.5 0 0 0-.641-.769l-3 2.5a.5.5 0 0 0 .001.769l3 2.5A.497.497 0 0 0 9 23.5zM42.32 20.116l-3-2.5a.502.502 0 0 0-.641.769l2.539 2.116-2.539 2.116a.5.5 0 0 0 .641.769l3-2.5a.5.5 0 0 0 0-.77zM11.5 34h-3c-.827 0-1.5.673-1.5 1.5v3c0 .827.673 1.5 1.5 1.5h3c.827 0 1.5-.673 1.5-1.5v-3c0-.827-.673-1.5-1.5-1.5zm.5 4.5a.5.5 0 0 1-.5.5h-3a.5.5 0 0 1-.5-.5v-3a.5.5 0 0 1 .5-.5h3a.5.5 0 0 1 .5.5v3zM18.5 34h-3c-.827 0-1.5.673-1.5 1.5v3c0 .827.673 1.5 1.5 1.5h3c.827 0 1.5-.673 1.5-1.5v-3c0-.827-.673-1.5-1.5-1.5zm.5 4.5a.5.5 0 0 1-.5.5h-3a.5.5 0 0 1-.5-.5v-3a.5.5 0 0 1 .5-.5h3a.5.5 0 0 1 .5.5v3zM25.5 34h-3c-.827 0-1.5.673-1.5 1.5v3c0 .827.673 1.5 1.5 1.5h3c.827 0 1.5-.673 1.5-1.5v-3c0-.827-.673-1.5-1.5-1.5zm.5 4.5c0 .275-.225.5-.5.5h-3a.5.5 0 0 1-.5-.5v-3a.5.5 0 0 1 .5-.5h3c.275 0 .5.225.5.5v3zM32.5 34h-3c-.827 0-1.5.673-1.5 1.5v3c0 .827.673 1.5 1.5 1.5h3c.827 0 1.5-.673 1.5-1.5v-3c0-.827-.673-1.5-1.5-1.5zm.5 4.5c0 .275-.225.5-.5.5h-3a.501.501 0 0 1-.5-.5v-3c0-.275.225-.5.5-.5h3c.275 0 .5.225.5.5v3zM39.5 34h-3c-.827 0-1.5.673-1.5 1.5v3c0 .827.673 1.5 1.5 1.5h3c.827 0 1.5-.673 1.5-1.5v-3c0-.827-.673-1.5-1.5-1.5zm.5 4.5c0 .275-.225.5-.5.5h-3a.501.501 0 0 1-.5-.5v-3c0-.275.225-.5.5-.5h3c.275 0 .5.225.5.5v3z"/></svg>