<svg xmlns="http://www.w3.org/2000/svg" viewBox="-7.5 16.5 16 16"><path d="M5.03 31.086c-.116.055-.24.082-.362.082-.186 0-.37-.062-.52-.183L.5 28.068l-3.647 2.917c-.15.12-.335.183-.52.183-.124 0-.247-.027-.362-.082-.288-.14-.472-.43-.472-.75v-11.67c0-.46.373-.835.834-.835h8.335c.46 0 .834.374.834.835v11.67c0 .32-.183.612-.47.75zM3.4 22.382c-.043-.13-.155-.226-.29-.247l-1.543-.244-.737-1.557c-.06-.127-.19-.21-.33-.21s-.27.082-.33.21l-.738 1.558-1.542.245c-.135.02-.247.117-.29.247-.012.037-.018.075-.018.113 0 .095.037.188.107.258l1.137 1.138-.326 1.633c-.027.14.03.282.144.366.064.046.14.07.215.07.06 0 .12-.016.176-.047L.5 25.1l1.464.813c.055.03.116.046.177.046.077 0 .152-.025.216-.07.115-.085.17-.228.143-.367l-.327-1.632 1.138-1.137c.07-.07.108-.163.108-.258 0-.038-.007-.076-.02-.113z" fill-rule="evenodd" clip-rule="evenodd"/></svg>