<svg xmlns="http://www.w3.org/2000/svg" viewBox="0 0 16 16"><title>Artboard 1</title><path d="M14.868 13.741c0 .632-.506 1.138-1.138 1.138a1.138 1.138 0 0 1-1.159-1.138c0-1.39-.274-2.738-.801-4.023a10.401 10.401 0 0 0-2.211-3.266A10.417 10.417 0 0 0 6.294 4.24a10.543 10.543 0 0 0-4.024-.801c-.632 0-1.138-.527-1.138-1.159s.506-1.158 1.138-1.158c1.706 0 3.35.337 4.909.99a12.935 12.935 0 0 1 4.002 2.718 12.31 12.31 0 0 1 2.697 4.003c.674 1.538.99 3.201.99 4.908zm-4.109-3.602a9.15 9.15 0 0 1 .716 3.602c0 .632-.506 1.138-1.138 1.138a1.138 1.138 0 0 1-1.158-1.138c0-1.854-.716-3.581-2.023-4.887S4.124 6.831 2.27 6.831c-.632 0-1.138-.527-1.138-1.159s.506-1.158 1.138-1.158c1.243 0 2.465.253 3.582.737A8.965 8.965 0 0 1 8.78 7.21a9.083 9.083 0 0 1 1.979 2.929zm-4.36-.527c1.096 1.096 1.685 2.569 1.685 4.128 0 .632-.506 1.138-1.138 1.138a1.138 1.138 0 0 1-1.159-1.138 3.523 3.523 0 0 0-3.518-3.517 1.152 1.152 0 0 1-1.138-1.159c0-.632.506-1.159 1.138-1.159a5.86 5.86 0 0 1 4.13 1.707zm-1.917 3.581c0 .927-.758 1.664-1.664 1.664a1.654 1.654 0 0 1-1.664-1.664c0-.906.737-1.664 1.664-1.664a1.68 1.68 0 0 1 1.664 1.664z" fill="#010101"/></svg>