<svg xmlns="http://www.w3.org/2000/svg" viewBox="-7.5 16.5 16 16"><path d="M7.493 24.272a6.972 6.972 0 0 0-.6-2.613 6.974 6.974 0 0 0-3.882-3.69 6.984 6.984 0 0 0-6.428.732A6.955 6.955 0 0 0-6.03 21.99a6.972 6.972 0 0 0 .137 5.352 6.974 6.974 0 0 0 3.88 3.687 6.98 6.98 0 0 0 6.427-.732A6.955 6.955 0 0 0 7.03 27.01c.34-.88.496-1.802.465-2.738zm-9.574-4.084c.105.426.158.862.157 1.3 0 .66-.125 1.312-.366 1.94a5.417 5.417 0 0 1-1.027 1.685 5.33 5.33 0 0 1-.99.86 4.983 4.983 0 0 1 .117-3.276 4.977 4.977 0 0 1 2.11-2.51zm-.07 5.975c.568-.633 1.015-1.364 1.326-2.173s.47-1.65.47-2.502a6.87 6.87 0 0 0-.26-1.89 5.015 5.015 0 0 1 2.918.212 5.016 5.016 0 0 1 2.307 1.798 6.904 6.904 0 0 0-2.787 3.4c-.31.81-.47 1.652-.47 2.503-.002.64.085 1.274.26 1.89a5.015 5.015 0 0 1-2.918-.212 5.016 5.016 0 0 1-2.308-1.797 6.87 6.87 0 0 0 1.46-1.227zm5.23 2.65a5.33 5.33 0 0 1-.157-1.3c0-.66.125-1.312.366-1.94a5.417 5.417 0 0 1 1.027-1.685 5.3 5.3 0 0 1 .99-.86 4.99 4.99 0 0 1-.116 3.276 4.986 4.986 0 0 1-2.11 2.508z"/></svg>