<svg xmlns="http://www.w3.org/2000/svg" viewBox="-7.5 16.5 16 16"><circle cx="-.333" cy="22.833" r="4.167"/><path d="M3.79 26.958a5.796 5.796 0 0 0 1.71-4.125c0-1.418-.503-2.76-1.424-3.82l.47-.47a.416.416 0 0 0-.59-.59l-1.05 1.05.296.294c.944.944 1.464 2.2 1.464 3.536s-.52 2.59-1.464 3.536c-.944.943-2.2 1.463-3.536 1.463s-2.59-.52-3.536-1.464l-.59.588A5.787 5.787 0 0 0-.75 28.65v1.683h-2.5a.417.417 0 0 0-.418.417v.417H3v-.417a.417.417 0 0 0-.417-.417h-2.5V28.65a5.782 5.782 0 0 0 3.708-1.692z"/></svg>