<svg xmlns="http://www.w3.org/2000/svg" viewBox="0 0 16 16"><title>Artboard 1</title><path d="M3.697 2.931h8.606c.673 0 1.254.251 1.729.739a2.47 2.47 0 0 1 .726 1.795v5.069c0 .699-.237 1.294-.726 1.795a2.34 2.34 0 0 1-1.729.739H3.697a2.337 2.337 0 0 1-1.729-.739 2.472 2.472 0 0 1-.726-1.795V5.466c0-.7.238-1.293.726-1.795a2.334 2.334 0 0 1 1.729-.74zm3.379 2.535H4.001a.59.59 0 0 0-.436.171.627.627 0 0 0-.172.462c0 .185.053.33.172.449a.598.598 0 0 0 .436.185h3.075c.185 0 .33-.066.449-.185a.655.655 0 0 0 .171-.449.688.688 0 0 0-.171-.462.598.598 0 0 0-.449-.171zm.304 2.851H3.697c-.198 0-.304.105-.304.317 0 .211.105.316.304.316H7.38c.211 0 .316-.105.316-.316 0-.212-.105-.317-.316-.317zM6.152 9.584H3.697c-.198 0-.304.105-.304.316s.105.317.304.317h2.455c.211 0 .316-.106.316-.317s-.105-.316-.316-.316zm5.663-3.828c-.29-.304-.646-.449-1.056-.449s-.753.145-1.043.449c-.29.29-.436.646-.436 1.069 0 .396.119.713.33.977-.568.422-.845.99-.845 1.689v1.043c0 .132.053.251.132.343a.436.436 0 0 0 .33.133h3.075c.119 0 .237-.04.33-.133a.527.527 0 0 0 .132-.343V9.491c0-.7-.29-1.267-.845-1.689.211-.264.317-.581.317-.977.002-.422-.131-.779-.421-1.069zM9.69 9.491c0-.304.105-.568.316-.792a1.03 1.03 0 0 1 .753-.317c.304 0 .554.105.766.317.211.224.316.488.316.792v.567H9.69v-.567zm.686-3.062a.491.491 0 0 1 .383-.171c.158 0 .29.053.396.171a.553.553 0 0 1 .172.396.642.642 0 0 1-.172.436.538.538 0 0 1-.396.159.527.527 0 0 1-.383-.159.587.587 0 0 1-.172-.436c0-.158.053-.29.172-.396z"/></svg>