<svg xmlns="http://www.w3.org/2000/svg" viewBox="-7.5 16.5 16 16"><path d="M-3.667 22.104c.615 0 1.114-.466 1.114-1.042v-.52c0-.576-.5-1.043-1.114-1.043-.615 0-1.114.465-1.114 1.04v.522c0 .576.498 1.042 1.113 1.042zM-3.667 22.625a2.49 2.49 0 0 0-1.59.597.254.254 0 0 0-.082.184v3.16c0 .1.06.19.155.234l.428.2.258 2.276c.02.128.138.224.277.224h1.114c.14 0 .257-.095.277-.224L-2.576 27l.427-.2a.26.26 0 0 0 .155-.232v-3.16a.25.25 0 0 0-.082-.185 2.48 2.48 0 0 0-1.59-.598zM4.667 22.104c.615 0 1.114-.466 1.114-1.042v-.52c0-.576-.498-1.043-1.113-1.043s-1.114.465-1.114 1.04v.522c0 .576.498 1.042 1.114 1.042zM6.256 23.222c-.026-.024-.65-.597-1.59-.597s-1.564.573-1.59.597a.254.254 0 0 0-.082.184v3.16c0 .1.06.19.154.234l.428.2.258 2.276c.02.13.137.224.276.224h1.114c.14 0 .256-.095.276-.224L5.757 27l.427-.2a.26.26 0 0 0 .154-.232v-3.16a.25.25 0 0 0-.082-.186zM.5 22.104c.615 0 1.114-.466 1.114-1.042v-.52c0-.576-.5-1.043-1.114-1.043-.615 0-1.114.465-1.114 1.04v.522c0 .576.5 1.042 1.114 1.042zM.5 22.625a2.49 2.49 0 0 0-1.59.597.254.254 0 0 0-.082.184v3.16c0 .1.06.19.154.234l.427.2.257 2.276c.02.128.137.224.276.224h1.114c.14 0 .256-.095.276-.224L1.59 27l.428-.2a.26.26 0 0 0 .154-.232v-3.16a.25.25 0 0 0-.082-.185 2.483 2.483 0 0 0-1.59-.598z"/></svg>