<svg xmlns="http://www.w3.org/2000/svg" viewBox="-7.5 16.5 16 16"><path d="M5.03 31.086a.835.835 0 0 1-.883-.1L.5 28.067l-3.647 2.917a.832.832 0 0 1-.882.1.834.834 0 0 1-.472-.75v-11.67c0-.46.373-.834.834-.834h8.335c.46 0 .834.374.834.835v11.67c0 .32-.183.612-.47.75zM3.4 22.382a.363.363 0 0 0-.29-.247l-1.543-.244-.737-1.557a.366.366 0 0 0-.66 0l-.738 1.558-1.542.245a.366.366 0 0 0-.2.618l1.137 1.138-.326 1.633a.365.365 0 0 0 .536.39L.5 25.1l1.464.813a.36.36 0 0 0 .392-.024.367.367 0 0 0 .143-.367l-.327-1.632 1.138-1.137a.364.364 0 0 0 .09-.37z" fill-rule="evenodd" clip-rule="evenodd"/></svg>