<svg xmlns="http://www.w3.org/2000/svg" viewBox="-7.5 16.5 16 16"><path d="M-2.306 28.227c1.125-.627 2.424-1.475 3.757-2.48 3.176-2.392 5.434-4.838 5.434-5.786 0-.092-.025-.17-.072-.232-.08-.107-.226-.166-.426-.166-.574 0-1.603.377-2.874 1.066-.823-.666-1.87-1.066-3.01-1.066-2.645 0-4.79 2.144-4.79 4.788 0 .655.134 1.278.372 1.846-1.218 1.22-1.967 2.247-1.967 2.792 0 .1.022.186.072.252.08.108.226.197.428.197.596 0 1.713-.45 3.075-1.21zM5.31 20.23c.12.158-.235.65-.915 1.337-.204-.285-.44-.547-.7-.78.89-.497 1.494-.72 1.616-.557zm-10.097 7.61c-.123-.162.258-.68.98-1.4.154.316.342.613.56.887-.85.465-1.42.67-1.54.513zM5.273 24c.01.117.015.233.015.35 0 2.644-2.144 4.788-4.788 4.788-.59 0-1.154-.107-1.675-.302 1.045-.604 2.22-1.384 3.424-2.29 1.148-.866 2.177-1.74 3.024-2.545z"/></svg>