<svg xmlns="http://www.w3.org/2000/svg" viewBox="0 0 16 16"><title>Artboard 1</title><path d="M11.242 2.691h.129c1.163 0 2.106.956 2.106 2.132 0 .517-.194 1.021-.53 1.408a2.949 2.949 0 0 1 1.279 2.416v1.537a.606.606 0 0 1-.607.607h-.142v3.217a.606.606 0 0 1-.607.607H7.522a.606.606 0 0 1-.607-.607V10.79H6.721v3.217a.606.606 0 0 1-.607.607H3.13a.606.606 0 0 1-.607-.607V10.79h-.142a.606.606 0 0 1-.607-.607V8.646c0-.969.491-1.873 1.279-2.416a2.164 2.164 0 0 1-.53-1.408c0-1.176.943-2.132 2.106-2.132 1.15 0 2.093.956 2.093 2.132 0 .517-.194 1.021-.53 1.408.103.065.194.142.284.22.258-.465.62-.866 1.072-1.15a2.33 2.33 0 0 1-.633-1.589c0-1.279 1.021-2.325 2.287-2.325.865 0 1.653.504 2.04 1.305zM2.794 8.646v1.111h.336c.233 0 .413.194.413.426v3.398h.672v-2.635c0-.233.181-.426.413-.426.22 0 .413.194.413.426v2.635H5.7v-3.398c0-.233.194-.426.413-.426h.337V8.646c0-.284-.065-.543-.181-.788a1.806 1.806 0 0 0-1.641-1.072c-1.007 0-1.834.839-1.834 1.86zm.749-3.824c0 .62.478 1.111 1.085 1.111.594 0 1.072-.491 1.072-1.111 0-.607-.478-1.098-1.072-1.098-.607 0-1.085.491-1.085 1.098zm3.579 2.907c.103.297.155.594.155.917v.646h.245c.22 0 .413.194.413.426v3.863h.853v-3.01c0-.052 0-.09.026-.142a.411.411 0 0 1 .323-.271c.013 0 .039-.013.065-.013.052 0 .09.013.142.039a.409.409 0 0 1 .271.388v3.01h.84V9.718c0-.233.194-.426.413-.426h.426V8c0-.426-.129-.827-.336-1.163l-.103-.142c-.052-.078-.116-.142-.168-.22a2.281 2.281 0 0 0-.4-.297 2.12 2.12 0 0 0-.452-.22 2.119 2.119 0 0 0-.634-.102c-1.072 0-1.95.813-2.079 1.873zm.813-4.018c0 .711.568 1.292 1.266 1.292.09 0 .194-.013.284-.039.142-.026.284-.09.4-.168.349-.233.568-.633.568-1.085v-.077a1.585 1.585 0 0 0-.103-.439c-.207-.452-.646-.775-1.15-.775-.696-.001-1.265.581-1.265 1.291zm3.346.026c0 .646-.297 1.214-.749 1.602.284.155.555.349.775.581.026.013.039.013.065.013.607 0 1.085-.491 1.085-1.111 0-.607-.478-1.098-1.085-1.098-.026 0-.052 0-.091.013zM12.121 8v1.718a.419.419 0 0 1-.413.426h-.426v3.436h1.176v-3.398c0-.233.181-.426.413-.426h.336v-1.11c0-.84-.555-1.537-1.305-1.783.141.362.219.737.219 1.137z"/></svg>