<svg xmlns="http://www.w3.org/2000/svg" viewBox="0 0 16 16"><path d="M11.105 5.576L8.928 4.022c-.502-.359-1.352-.359-1.853 0l-2.18 1.555c-.487.348-.869 1.09-.869 1.688v3.744a1.24 1.24 0 0 0 1.239 1.239h5.471a1.24 1.24 0 0 0 1.239-1.239V7.265c-.001-.598-.383-1.34-.87-1.689zm.165 5.433c0 .295-.24.535-.535.535h-5.47a.536.536 0 0 1-.535-.535V7.265c0-.375.269-.897.574-1.116l2.18-1.555c.131-.094.319-.148.517-.148s.386.054.517.148l2.177 1.554c.306.219.575.741.575 1.116v3.745z"/><path d="M9.627 7.923H6.372a.406.406 0 0 0-.405.407c0 .226.181.407.405.407h3.255a.407.407 0 1 0 0-.814z"/></svg>