<svg xmlns="http://www.w3.org/2000/svg" viewBox="-7.5 16.5 16 16"><circle cx="-.333" cy="22.833" r="4.167"/><path d="M3.79 26.958c1.103-1.102 1.71-2.567 1.71-4.125 0-1.418-.503-2.76-1.424-3.82l.47-.47c.08-.08.12-.187.12-.294 0-.108-.04-.214-.12-.296-.082-.08-.19-.122-.296-.122s-.213.04-.295.122l-1.048 1.048.295.295c.944.944 1.464 2.2 1.464 3.536s-.52 2.59-1.464 3.536c-.944.943-2.2 1.463-3.536 1.463s-2.59-.52-3.536-1.464l-.59.588c1.004 1.003 2.308 1.594 3.71 1.692v1.683h-2.5c-.23 0-.418.186-.418.417v.417H3v-.417c0-.23-.187-.417-.417-.417h-2.5V28.65c1.402-.098 2.706-.69 3.708-1.692z"/></svg>