<svg xmlns="http://www.w3.org/2000/svg" viewBox="-7.5 16.5 16 16"><path d="M6.875 20.516v7.97c0 .44-.357.796-.797.796H-5.078c-.44 0-.797-.357-.797-.797v-7.97c0-.44.357-.796.797-.796H6.078c.44 0 .797.356.797.796zM2.85 27.11l-1.595-3.186c-.057-.115-.166-.195-.293-.215-.02-.005-.043-.006-.064-.006-.105 0-.206.04-.282.117l-.453.454-1.324-1.986c-.075-.11-.2-.177-.333-.177-.008 0-.017 0-.025.002-.142.01-.268.092-.332.22l-2.39 4.78c-.03.056-.043.117-.043.178 0 .073.02.146.06.21.073.116.2.188.34.188H2.49c.14 0 .267-.07.34-.19.04-.063.06-.136.06-.208 0-.062-.013-.123-.04-.18zm-.756-4.204c0 .88.714 1.594 1.594 1.594.88 0 1.594-.714 1.594-1.594 0-.88-.714-1.594-1.594-1.594-.88 0-1.594.714-1.594 1.594z"/></svg>