<svg xmlns="http://www.w3.org/2000/svg" viewBox="-7.5 16.5 16 16"><path d="M-3.093 18.593c-1.748 0-3.165.431-3.165.962v8.5c0 .51.353.366.904.289a13.07 13.07 0 0 1 1.809-.129c1.649 0 3.19.293 3.626.695.092.085.142.063.142-.017v-9.337c-.001-.532-1.568-.963-3.316-.963z"/><path d="M.08 29.391c-.436-.401-1.977-.695-3.626-.695-.659 0-1.276.053-1.809.129-.144.02-.904.139-.904.405v.269c0 .51.353.366.904.289a13.07 13.07 0 0 1 1.809-.129c1.649 0 3.19.293 3.626.695.092.085.142.063.142-.017v-.711c0-.09-.05-.15-.142-.235zM4.093 18.593c1.748 0 3.165.431 3.165.962v8.5c0 .51-.353.366-.904.289a13.07 13.07 0 0 0-1.809-.129c-1.649 0-3.19.293-3.626.695-.092.085-.142.063-.142-.017v-9.337c.001-.532 1.568-.963 3.316-.963z"/><path d="M.92 29.391c.436-.401 1.977-.695 3.626-.695.659 0 1.276.053 1.809.129.144.02.904.139.904.405v.269c0 .51-.353.366-.904.289a13.07 13.07 0 0 0-1.809-.129c-1.649 0-3.19.293-3.626.695-.092.085-.142.063-.142-.017v-.711c0-.09.05-.15.142-.235z"/></svg>