<svg xmlns="http://www.w3.org/2000/svg" viewBox="-7.5 16.5 16 16"><path d="M-2.306 28.227c1.125-.627 2.424-1.475 3.757-2.48 3.176-2.392 5.434-4.838 5.434-5.786a.376.376 0 0 0-.072-.232c-.08-.107-.226-.166-.426-.166-.574 0-1.603.377-2.874 1.066a4.788 4.788 0 0 0-7.428 5.568c-1.218 1.22-1.967 2.247-1.967 2.792 0 .1.022.186.072.252.08.108.226.197.428.197.596 0 1.713-.45 3.075-1.21zM5.31 20.23c.12.158-.235.65-.915 1.337a4.808 4.808 0 0 0-.7-.78c.89-.497 1.494-.72 1.616-.557zm-10.097 7.61c-.123-.162.258-.68.98-1.4.154.316.342.613.56.887-.85.465-1.42.67-1.54.513zM5.273 24a4.788 4.788 0 0 1-6.45 4.835 34.433 34.433 0 0 0 3.426-2.29A34.835 34.835 0 0 0 5.273 24z"/></svg>