<svg xmlns="http://www.w3.org/2000/svg" viewBox="0 0 16 16"><title>Artboard 1</title><path d="M3.697 2.93h8.606c.673 0 1.254.252 1.73.74.487.5.725 1.095.725 1.795v5.07c0 .698-.237 1.293-.726 1.794a2.34 2.34 0 0 1-1.73.738H3.698c-.673 0-1.254-.25-1.73-.74a2.472 2.472 0 0 1-.725-1.794V5.466c0-.7.238-1.293.726-1.795a2.334 2.334 0 0 1 1.73-.74zm3.38 2.536H4a.59.59 0 0 0-.435.17.627.627 0 0 0-.172.463c0 .184.053.33.172.448.12.12.264.185.436.185h3.076c.185 0 .33-.066.45-.185a.655.655 0 0 0 .17-.45.688.688 0 0 0-.17-.46.598.598 0 0 0-.45-.172zm.303 2.85H3.697c-.198 0-.304.106-.304.318 0 .21.105.316.304.316H7.38c.21 0 .316-.105.316-.316 0-.212-.105-.317-.316-.317zM6.152 9.585H3.697c-.198 0-.304.105-.304.316s.105.317.304.317h2.455c.21 0 .316-.106.316-.317s-.105-.316-.316-.316zm5.663-3.828c-.29-.304-.646-.45-1.056-.45s-.754.146-1.044.45c-.29.29-.436.646-.436 1.07 0 .395.12.712.33.976-.568.422-.845.99-.845 1.69v1.042c0 .132.053.25.132.343a.436.436 0 0 0 .33.133h3.075c.12 0 .237-.04.33-.133a.527.527 0 0 0 .132-.343V9.49c0-.7-.29-1.266-.845-1.688.21-.264.316-.58.316-.977.002-.422-.13-.78-.42-1.07zM9.69 9.49c0-.303.105-.567.316-.79a1.03 1.03 0 0 1 .753-.318c.303 0 .553.105.765.317.21.223.316.487.316.79v.568H9.69V9.49zm.686-3.06a.49.49 0 0 1 .383-.172c.157 0 .29.053.395.17a.553.553 0 0 1 .172.397.642.642 0 0 1-.172.436.538.538 0 0 1-.396.16.527.527 0 0 1-.384-.16.587.587 0 0 1-.172-.435c0-.158.053-.29.172-.396z"/></svg>