<svg xmlns="http://www.w3.org/2000/svg" viewBox="-7.5 16.5 16 16"><path d="M-2.306 28.227c1.125-.627 2.424-1.475 3.757-2.48 3.175-2.392 5.433-4.838 5.433-5.786a.376.376 0 0 0-.072-.233c-.081-.107-.226-.166-.426-.166-.574 0-1.603.377-2.874 1.066a4.788 4.788 0 0 0-7.428 5.568c-1.218 1.221-1.967 2.247-1.967 2.792 0 .101.022.186.072.252a.523.523 0 0 0 .429.197c.596 0 1.713-.451 3.075-1.21h.001zm7.617-7.997c.119.158-.236.65-.916 1.337a4.808 4.808 0 0 0-.7-.781c.891-.496 1.494-.719 1.616-.556zm-10.098 7.61c-.123-.162.258-.681.98-1.401.154.317.342.614.559.888-.848.465-1.42.67-1.539.513zm10.061-3.839a4.788 4.788 0 0 1-6.449 4.835 34.433 34.433 0 0 0 3.424-2.291 34.835 34.835 0 0 0 3.025-2.544z"/></svg>