<svg xmlns="http://www.w3.org/2000/svg" viewBox="-7.5 16.5 16 16"><path d="M5.024 22.357c.79 0 1.43-.64 1.43-1.43v-.713c0-.79-.64-1.43-1.43-1.43s-1.43.64-1.43 1.43v.714c0 .79.64 1.43 1.43 1.43zM7.062 23.89c-.033-.033-.833-.82-2.038-.82s-2.005.786-2.038.82c-.067.067-.105.158-.105.253V27c0 .135.077.26.198.32l.547.272.33 2.315c.026.176.177.307.355.307h1.43c.177 0 .327-.13.353-.307l.33-2.315.548-.273c.12-.06.197-.185.197-.32v-2.857c0-.095-.038-.186-.105-.253zM-4.024 22.357c.79 0 1.43-.64 1.43-1.43v-.713c0-.79-.64-1.43-1.43-1.43s-1.43.64-1.43 1.43v.714c.002.79.64 1.43 1.43 1.43zM-4.024 23.07c-1.206 0-2.005.786-2.038.82-.067.067-.105.158-.105.253V27c0 .135.076.26.197.32l.547.272.33 2.315c.026.176.177.307.355.307h1.43c.177 0 .327-.13.353-.307l.33-2.315.548-.273c.12-.062.197-.185.197-.32v-2.857c0-.095-.038-.186-.105-.253-.034-.033-.833-.82-2.04-.82zM.5 24.32c.592 0 1.07-.48 1.07-1.07v-.536c0-.592-.48-1.07-1.07-1.07s-1.07.48-1.07 1.07v.536c0 .592.478 1.07 1.07 1.07zM.5 24.857c-1.326 0-1.43.547-1.43.714v2.144c0 .12.06.23.16.297l.395.265.162 1.618c.018.183.172.322.355.322h.714c.183 0 .337-.14.355-.322l.163-1.618.395-.264c.1-.065.16-.177.16-.296V25.57c0-.166-.102-.713-1.428-.713z"/></svg>