<svg xmlns="http://www.w3.org/2000/svg" viewBox="-7.5 16.5 16 16"><path d="M.5 17.486c-1.853 0-3.594.73-4.904 2.054-1.31 1.325-2.032 3.086-2.03 4.96 0 3.868 3.11 7.014 6.934 7.014 1.852 0 3.593-.73 4.903-2.054s2.032-3.087 2.03-4.96c0-3.868-3.11-7.014-6.934-7.014zM4.177 28.22c-.982.994-2.29 1.54-3.677 1.54-2.867 0-5.2-2.36-5.2-5.26 0-1.405.54-2.726 1.522-3.72.982-.994 2.288-1.54 3.677-1.54 2.867 0 5.2 2.36 5.2 5.26 0 1.405-.54 2.726-1.522 3.72z"/><path d="M3.967 24.318h-6.934c-.115 0-.225.046-.306.128-.08.082-.127.194-.127.31 0 2.176 1.75 3.945 3.9 3.945 2.152 0 3.9-1.77 3.9-3.944 0-.24-.193-.438-.433-.438zM.5 27.826c-1.526 0-2.792-1.145-3.003-2.63h6.006c-.21 1.484-1.478 2.63-3.003 2.63zM-2.38 22.875c.032.007.063.01.095.01.2 0 .378-.138.422-.342.05-.225.25-.388.478-.388.23 0 .427.16.478.388.052.237.287.385.518.332.235-.053.382-.287.33-.524-.14-.63-.685-1.072-1.325-1.072-.64 0-1.184.44-1.324 1.074-.05.237.096.47.33.523zM1.39 22.875c.233.054.465-.095.516-.332.05-.225.25-.388.478-.388s.428.163.478.388c.045.204.224.343.422.343.03 0 .063-.003.095-.01.233-.054.38-.288.327-.524-.14-.632-.684-1.074-1.324-1.074-.63 0-1.186.452-1.324 1.074-.052.237.096.47.33.523z"/></svg>