<svg xmlns="http://www.w3.org/2000/svg" viewBox="-7.5 16.5 16 16"><path d="M-3.667 22.104c.615 0 1.114-.466 1.114-1.042v-.521c0-.575-.499-1.042-1.114-1.042-.615 0-1.114.466-1.114 1.042v.521c0 .576.499 1.042 1.114 1.042zM-3.667 22.625a2.49 2.49 0 0 0-1.59.597.254.254 0 0 0-.082.184v3.161c0 .099.06.189.154.233l.428.2.258 2.276c.02.128.137.224.276.224h1.114a.273.273 0 0 0 .276-.224L-2.576 27l.427-.199a.26.26 0 0 0 .154-.233v-3.161a.25.25 0 0 0-.082-.184 2.48 2.48 0 0 0-1.59-.598zM4.667 22.104c.615 0 1.114-.466 1.114-1.042v-.521c0-.575-.499-1.042-1.114-1.042s-1.114.466-1.114 1.042v.521c-.001.576.498 1.042 1.114 1.042zM6.256 23.222c-.026-.024-.649-.597-1.59-.597s-1.564.573-1.59.597a.254.254 0 0 0-.082.184v3.161c0 .099.06.189.154.233l.428.2.258 2.276a.272.272 0 0 0 .276.224h1.114a.273.273 0 0 0 .276-.224L5.757 27l.427-.199a.26.26 0 0 0 .154-.233v-3.161a.25.25 0 0 0-.082-.185zM.5 22.104c.615 0 1.114-.466 1.114-1.042v-.521c0-.575-.499-1.042-1.114-1.042-.615 0-1.114.466-1.114 1.042v.521c0 .576.499 1.042 1.114 1.042zM.5 22.625a2.49 2.49 0 0 0-1.59.597.254.254 0 0 0-.082.184v3.161c0 .099.06.189.154.233l.427.2.258 2.276c.02.128.137.224.276.224h1.114a.273.273 0 0 0 .276-.224L1.591 27l.427-.199a.26.26 0 0 0 .154-.233v-3.161a.25.25 0 0 0-.082-.184 2.483 2.483 0 0 0-1.59-.598z"/></svg>