<svg xmlns="http://www.w3.org/2000/svg" viewBox="0 0 16 16"><title>Artboard 1</title><path d="M11.242 2.69h.13c1.162 0 2.105.957 2.105 2.133 0 .517-.194 1.02-.53 1.408a2.95 2.95 0 0 1 1.28 2.417v1.537c0 .336-.272.607-.608.607h-.143v3.218c0 .336-.27.607-.607.607H7.522a.606.606 0 0 1-.607-.607V10.79H6.72v3.217c0 .336-.27.607-.606.607H3.13a.606.606 0 0 1-.607-.607V10.79H2.38a.606.606 0 0 1-.606-.607V8.646c0-.97.49-1.873 1.28-2.416a2.164 2.164 0 0 1-.53-1.408c0-1.176.942-2.132 2.105-2.132 1.15 0 2.092.956 2.092 2.132 0 .517-.194 1.02-.53 1.408.103.065.194.142.284.22.258-.465.62-.866 1.072-1.15a2.33 2.33 0 0 1-.633-1.59c0-1.278 1.02-2.324 2.287-2.324a2.27 2.27 0 0 1 2.04 1.305zM2.794 8.647v1.11h.336a.42.42 0 0 1 .413.427v3.398h.672v-2.634a.42.42 0 0 1 .413-.426c.22 0 .413.194.413.426v2.635h.66v-3.397c0-.233.194-.426.413-.426h.337v-1.11c0-.285-.065-.544-.18-.79a1.806 1.806 0 0 0-1.642-1.07c-1.007 0-1.834.838-1.834 1.86zm.75-3.824c0 .62.477 1.11 1.084 1.11.594 0 1.072-.49 1.072-1.11 0-.607-.478-1.098-1.072-1.098-.607 0-1.085.49-1.085 1.098zM7.12 7.73c.103.296.155.593.155.916v.646h.245c.22 0 .413.194.413.426v3.863h.853v-3.01c0-.05 0-.09.026-.14a.41.41 0 0 1 .323-.272c.013 0 .04-.013.065-.013.052 0 .09.013.142.04a.41.41 0 0 1 .27.387v3.01h.84V9.718c0-.233.195-.426.414-.426h.426V8c0-.426-.13-.827-.336-1.163l-.103-.142c-.052-.078-.116-.142-.168-.22a2.28 2.28 0 0 0-.4-.297 2.12 2.12 0 0 0-.452-.22 2.12 2.12 0 0 0-.634-.102c-1.07 0-1.95.813-2.078 1.873zm.813-4.02c0 .712.568 1.293 1.266 1.293.09 0 .195-.013.285-.04.142-.025.284-.09.4-.167.35-.233.568-.633.568-1.085v-.076a1.585 1.585 0 0 0-.103-.44c-.207-.45-.646-.774-1.15-.774-.696 0-1.265.58-1.265 1.29zm3.346.027c0 .646-.296 1.214-.748 1.602.284.154.555.348.775.58.026.013.04.013.065.013.607 0 1.085-.49 1.085-1.11 0-.608-.478-1.1-1.085-1.1-.026 0-.052 0-.09.014zM12.12 8v1.718a.42.42 0 0 1-.412.426h-.426v3.436h1.176v-3.398a.42.42 0 0 1 .413-.426h.337v-1.11a1.88 1.88 0 0 0-1.305-1.783c.14.362.22.737.22 1.137z"/></svg>