<svg xmlns="http://www.w3.org/2000/svg" viewBox="0 0 16 16"><title>Artboard 1</title><path d="M12.328 3.67C13.43 4.776 14.11 6.304 14.11 8s-.68 3.225-1.782 4.33S9.698 14.11 8 14.11c-1.697 0-3.225-.678-4.33-1.78S1.89 9.696 1.89 8s.68-3.225 1.782-4.33S6.302 1.89 8 1.89c1.697 0 3.225.678 4.328 1.78zm-7.68.956c-.87.87-1.4 2.08-1.4 3.374s.53 2.504 1.4 3.353c.85.87 2.058 1.4 3.353 1.4 1.294 0 2.504-.53 3.374-1.4.85-.85 1.38-2.058 1.38-3.353s-.53-2.504-1.38-3.374A4.863 4.863 0 0 0 8 3.246a4.77 4.77 0 0 0-3.352 1.38z"/></svg>