<svg xmlns="http://www.w3.org/2000/svg" viewBox="-7.5 16.5 16 16"><path d="M6.875 20.516v7.97c0 .44-.357.796-.797.796H-5.078a.797.797 0 0 1-.797-.797v-7.97c0-.44.357-.796.797-.796H6.078c.44 0 .797.356.797.796zM2.85 27.11l-1.595-3.186a.395.395 0 0 0-.357-.22.397.397 0 0 0-.282.117l-.453.454-1.324-1.986a.4.4 0 0 0-.333-.177c-.008 0-.017 0-.025.002a.4.4 0 0 0-.332.22l-2.39 4.78a.398.398 0 0 0 .356.576H2.49a.398.398 0 0 0 .4-.398.385.385 0 0 0-.04-.18zm-.756-4.204a1.594 1.594 0 1 0 3.19 0 1.594 1.594 0 0 0-3.19 0z"/></svg>