<svg xmlns="http://www.w3.org/2000/svg" viewBox="0 0 16 16"><title>Artboard 1</title><path d="M14.868 13.74c0 .633-.506 1.14-1.138 1.14-.653 0-1.16-.507-1.16-1.14 0-1.39-.273-2.737-.8-4.022a10.4 10.4 0 0 0-2.21-3.266A10.417 10.417 0 0 0 6.293 4.24a10.543 10.543 0 0 0-4.024-.8c-.632 0-1.138-.528-1.138-1.16s.506-1.158 1.138-1.158c1.706 0 3.35.337 4.91.99a12.935 12.935 0 0 1 4 2.718 12.31 12.31 0 0 1 2.698 4.003c.674 1.538.99 3.2.99 4.908zm-4.11-3.6a9.15 9.15 0 0 1 .717 3.6c0 .633-.506 1.14-1.138 1.14a1.138 1.138 0 0 1-1.158-1.14c0-1.853-.717-3.58-2.024-4.886S4.124 6.83 2.27 6.83c-.632 0-1.138-.526-1.138-1.158s.506-1.158 1.138-1.158a9.02 9.02 0 0 1 3.582.737A8.965 8.965 0 0 1 8.78 7.21a9.083 9.083 0 0 1 1.98 2.93zM6.4 9.61c1.097 1.096 1.686 2.57 1.686 4.128 0 .632-.506 1.138-1.138 1.138-.653 0-1.16-.506-1.16-1.138a3.523 3.523 0 0 0-3.517-3.517 1.152 1.152 0 0 1-1.14-1.16c0-.63.507-1.158 1.14-1.158A5.86 5.86 0 0 1 6.4 9.612zm-1.916 3.58c0 .928-.758 1.665-1.664 1.665a1.654 1.654 0 0 1-1.664-1.664c0-.906.737-1.664 1.664-1.664a1.68 1.68 0 0 1 1.664 1.663z" fill="#010101"/></svg>