<svg xmlns="http://www.w3.org/2000/svg" viewBox="-7.5 16.5 16 16"><path d="M5.036 22.269v7.436a.75.75 0 0 1-.756.744h-7.56a.75.75 0 0 1-.756-.744v-10.41a.75.75 0 0 1 .756-.744h5.292c.2 0 .393.078.535.218L4.815 21a.736.736 0 0 1 .221.526v.743zm-7.755.008l.997.53.116 1.162a.256.256 0 0 0 .439.152l.815-.846 1.149.245a.259.259 0 0 0 .258-.097.256.256 0 0 0 .021-.275L.521 22.12l.53-.997a.26.26 0 0 0-.016-.267.254.254 0 0 0-.245-.106l-1.084.153-.815-.894a.256.256 0 0 0-.442.136l-.175 1.197-.984.48a.257.257 0 0 0-.133.304.254.254 0 0 0 .124.151zm5.053 1.671a1.706 1.706 0 1 0 0 3.413 1.706 1.706 0 0 0 0-3.413zm-2.746 2.051c-.076-.312-.328-.386-.56-.164l-1.769 1.69c-.232.222-.17.477.138.567l2.348.687c.308.09.498-.091.422-.403l-.579-2.377z"/></svg>