<svg xmlns="http://www.w3.org/2000/svg" viewBox="0 0 16 16"><title>Artboard 1</title><path d="M13.967 1.18c.466 0 .852.387.852.853v11.933a.858.858 0 0 1-.853.852H2.033a.858.858 0 0 1-.852-.852V2.034c0-.466.387-.852.853-.852h11.934zM2.887 13.14h10.227V2.887H2.886V13.14zm8.203-7.937c.213.173.32.413.32.666a.9.9 0 0 1-.186.532l-3.41 4.26a.852.852 0 0 1-.612.32h-.054a.845.845 0 0 1-.6-.252L4.845 9.026c-.174-.16-.253-.386-.253-.6s.08-.44.254-.6c.16-.172.386-.252.6-.252s.44.08.598.253l1.04 1.026 2.81-3.516a.845.845 0 0 1 .665-.32.9.9 0 0 1 .533.186z"/></svg>