<svg xmlns="http://www.w3.org/2000/svg" viewBox="-7.5 16.5 16 16"><path d="M5.036 22.27v7.435c0 .41-.338.744-.756.744h-7.56c-.418 0-.756-.334-.756-.745v-10.41c0-.41.34-.744.756-.744h5.292c.2 0 .393.08.535.22L4.815 21c.142.14.22.33.22.526v.743zm-7.755.007l.998.53.116 1.162c.01.098.077.183.17.215.053.018.11.018.16.003.04-.012.08-.035.11-.067l.814-.845 1.15.245c.042.01.086.007.127-.006.05-.016.097-.047.13-.09.06-.08.068-.188.02-.276L.522 22.12l.53-.997c.033-.06.04-.13.02-.195-.008-.025-.02-.05-.035-.072-.055-.08-.15-.12-.245-.106l-1.084.153-.815-.894c-.066-.074-.168-.102-.263-.073-.095.03-.164.11-.178.208l-.176 1.197-.984.48c-.086.042-.142.13-.144.225 0 .027.003.054.01.08.02.063.064.117.125.15zm5.054 1.67c-.942 0-1.706.765-1.706 1.707 0 .942.764 1.706 1.706 1.706s1.706-.764 1.706-1.706-.764-1.706-1.706-1.706zM-.412 26c-.076-.313-.328-.387-.56-.165l-1.77 1.69c-.23.222-.17.477.14.567l2.347.687c.308.09.498-.092.422-.404L-.413 26z"/></svg>