<svg xmlns="http://www.w3.org/2000/svg" viewBox="0 0 16 16"><title>Artboard 1</title><path d="M3.697 2.93h8.606c.673 0 1.254.252 1.73.74.487.5.725 1.095.725 1.795v5.07c0 .698-.237 1.293-.726 1.794-.476.487-1.057.738-1.73.738H3.698c-.673 0-1.254-.25-1.73-.74-.487-.5-.725-1.095-.725-1.794V5.466c0-.7.238-1.293.726-1.795.475-.488 1.056-.74 1.73-.74zm3.38 2.536H4c-.17 0-.316.053-.435.17-.12.12-.172.278-.172.463 0 .184.053.33.172.448.12.12.264.185.436.185h3.076c.185 0 .33-.066.45-.185.104-.12.17-.264.17-.45 0-.184-.066-.342-.17-.46-.12-.12-.266-.172-.45-.172zm.303 2.85H3.697c-.198 0-.304.106-.304.318 0 .21.105.316.304.316H7.38c.21 0 .316-.105.316-.316 0-.212-.105-.317-.316-.317zM6.152 9.585H3.697c-.198 0-.304.105-.304.316s.105.317.304.317h2.455c.21 0 .316-.106.316-.317s-.105-.316-.316-.316zm5.663-3.828c-.29-.304-.646-.45-1.056-.45s-.754.146-1.044.45c-.29.29-.436.646-.436 1.07 0 .395.12.712.33.976-.568.422-.845.99-.845 1.69v1.042c0 .132.053.25.132.343.092.093.198.133.33.133h3.075c.12 0 .237-.04.33-.133.08-.092.132-.21.132-.343V9.49c0-.7-.29-1.266-.845-1.688.21-.264.316-.58.316-.977.002-.422-.13-.78-.42-1.07zM9.69 9.49c0-.303.105-.567.316-.79.212-.212.462-.318.753-.318.303 0 .553.105.765.317.21.223.316.487.316.79v.568H9.69V9.49zm.686-3.06c.105-.12.237-.172.383-.172.157 0 .29.053.395.17.105.107.172.24.172.397 0 .172-.066.317-.172.436-.105.106-.237.16-.396.16-.147 0-.278-.053-.384-.16-.12-.118-.172-.263-.172-.435 0-.158.053-.29.172-.396z"/></svg>