<svg xmlns="http://www.w3.org/2000/svg" viewBox="-7.5 16.5 16 16"><path d="M5.417 28.45a.866.866 0 0 1 0 1.22l-.61.61a.85.85 0 0 1-.613.25.852.852 0 0 1-.604-.25l-2.34-2.61 1.46-1.646 2.707 2.427zm1.57-9.753c-.153-.152-.385-.228-.61-.228a.865.865 0 0 0-.61.227L.46 24.005l-.94-.842c.284-.81.26-2.178-.304-2.742-.914-.913-2.97-1.903-2.97-1.903-.102-.052-.228-.076-.305 0-.075.076-.06.21 0 .305l2.134 2.437c.082.105.076.227-.076.38-.152.152-.27.162-.38.076a770.38 770.38 0 0 0-2.666-2.21c-.09-.067-.228-.075-.305 0-.076.077-.068.215 0 .306 0 0 2.068 2.503 2.21 2.665.085.11.075.228-.077.38-.152.153-.275.16-.38.077l-2.438-2.132c-.095-.06-.228-.076-.305 0-.076.076-.052.202 0 .305 0 0 .99 2.056 1.904 2.97.565.564 1.933.588 2.743.305l.842.94-3.13 3.13a.86.86 0 0 0 0 1.218l.61.61a.86.86 0 0 0 1.217 0L2.66 24.85s2.018.42 3.236-.8c.922-.92 1.498-2.527 1.498-4.11 0-.51-.11-.948-.408-1.245z"/></svg>