<svg xmlns="http://www.w3.org/2000/svg" viewBox="-7.5 16.5 16 16"><path d="M5.036 22.27v7.435a.75.75 0 0 1-.756.744h-7.56a.75.75 0 0 1-.756-.745v-10.41c0-.41.34-.744.756-.744h5.292c.2 0 .393.08.535.22L4.815 21c.142.14.22.33.22.526v.743zm-7.755.007l.998.53.116 1.162a.256.256 0 0 0 .44.15l.814-.845 1.15.245a.26.26 0 0 0 .258-.097.256.256 0 0 0 .02-.275L.52 22.12l.53-.997a.26.26 0 0 0-.015-.267.254.254 0 0 0-.245-.106l-1.084.153-.815-.894a.256.256 0 0 0-.44.135l-.176 1.197-.984.48a.257.257 0 0 0-.133.304c.02.064.063.118.124.15zm5.054 1.67a1.706 1.706 0 1 0 0 3.414 1.706 1.706 0 0 0 0-3.412zM-.412 26c-.076-.313-.328-.387-.56-.165l-1.77 1.69c-.23.222-.17.477.14.567l2.347.687c.308.09.498-.092.422-.404L-.413 26z"/></svg>