<svg xmlns="http://www.w3.org/2000/svg" viewBox="-7.5 16.5 16 16"><path d="M4.833 29.267c0 .867-.433 1.733-1.3 2.167 0-.639-.236-1.513-1.055-1.928-.088.243-.178.496-.267.766a.432.432 0 0 1-.411.296H-.8a.433.433 0 0 1-.411-.296c-.09-.269-.179-.522-.267-.766-.819.415-1.055 1.289-1.055 1.928-.867-.433-1.3-1.3-1.3-2.167 0-.844.671-1.689 1.418-2.285a10.075 10.075 0 0 1-.551-3.349c0-2.64 1.672-4.958 3.226-5.994a.428.428 0 0 1 .48 0c1.554 1.036 3.226 3.353 3.226 5.994 0 1.347-.22 2.351-.551 3.349.748.596 1.418 1.44 1.418 2.285zM.5 24.067a1.733 1.733 0 1 0 0-3.466 1.733 1.733 0 0 0 0 3.466z"/></svg>