<svg xmlns="http://www.w3.org/2000/svg" viewBox="-7.5 16.5 16 16"><path d="M.499 17.486a6.848 6.848 0 0 0-4.903 2.054 7.004 7.004 0 0 0-2.031 4.96c0 3.868 3.111 7.014 6.935 7.014 1.852 0 3.593-.729 4.903-2.054s2.032-3.087 2.031-4.96c0-3.868-3.111-7.014-6.935-7.014zM4.178 28.22a5.136 5.136 0 0 1-3.677 1.541c-2.868 0-5.202-2.36-5.202-5.261a5.26 5.26 0 0 1 1.523-3.72 5.134 5.134 0 0 1 3.677-1.541c2.868 0 5.202 2.36 5.202 5.26a5.26 5.26 0 0 1-1.523 3.721z"/><path d="M3.967 24.318h-6.934a.43.43 0 0 0-.306.128.442.442 0 0 0-.127.31c0 2.176 1.75 3.945 3.901 3.945s3.9-1.77 3.9-3.945a.437.437 0 0 0-.434-.438zM.5 27.826c-1.526 0-2.792-1.145-3.003-2.63h6.006c-.211 1.484-1.478 2.63-3.003 2.63zM-2.38 22.875a.433.433 0 0 0 .517-.332.495.495 0 0 1 .478-.388.49.49 0 0 1 .478.388.434.434 0 1 0 .846-.192 1.352 1.352 0 0 0-2.648.001.437.437 0 0 0 .329.523zM1.389 22.875a.43.43 0 0 0 .517-.332c.05-.225.251-.388.478-.388s.428.163.478.388a.435.435 0 0 0 .517.332.437.437 0 0 0 .328-.523 1.353 1.353 0 0 0-1.324-1.074 1.37 1.37 0 0 0-1.324 1.074.44.44 0 0 0 .33.523z"/></svg>