<svg xmlns="http://www.w3.org/2000/svg" viewBox="-7.5 16.5 16 16"><path d="M6.706 19.764l-1.615-1.667a2.058 2.058 0 0 0-2.975 0l-2.353 2.427a2.22 2.22 0 0 0-.121 2.932l1.133-1.171a.553.553 0 0 1 .104-.61l2.352-2.427a.516.516 0 0 1 .744 0l1.615 1.667a.555.555 0 0 1 0 .767L3.237 24.11a.514.514 0 0 1-.606.099l-1.13 1.166c.826.73 2.07.693 2.853-.113l2.352-2.427a2.22 2.22 0 0 0 0-3.071zM.217 26.699a.552.552 0 0 1-.096.626l-2.353 2.427a.514.514 0 0 1-.743 0l-1.616-1.667a.557.557 0 0 1 0-.767l2.353-2.427a.514.514 0 0 1 .592-.107l1.132-1.171a2.055 2.055 0 0 0-2.84.125l-2.353 2.427a2.221 2.221 0 0 0 0 3.07l1.615 1.667a2.058 2.058 0 0 0 2.975 0l2.353-2.427c.782-.807.818-2.09.111-2.944l-1.13 1.168z"/><path d="M-2.441 27.521a.771.771 0 0 0 1.116-.001l4.814-4.966c.309-.318.309-.833 0-1.151s-.808-.318-1.116-.001l-4.814 4.967a.833.833 0 0 0 0 1.152z"/></svg>