<svg xmlns="http://www.w3.org/2000/svg" viewBox="-7.5 16.5 16 16"><path d="M2.462 28.087c-.406-.406-.904-.231-1.338-.665-.197-.197-.287-.448-.287-.759 0-.439.24-.917.575-1.251.33-.33.788-.575 1.253-.575.294 0 .561.091.758.287.468.468.258.932.665 1.338C5.305 27.68 7 24.708 7 24.5s-.079-.416-.238-.575c-1.219-1.219-2.606-1.457-1.387-2.675.406-.406.87-.197 1.338-.665.196-.196.287-.463.287-.757 0-.465-.244-.923-.575-1.253C6.091 18.24 5.613 18 5.174 18c-.312 0-.563.091-.759.287-.434.434-.258.931-.665 1.338-1.219 1.219-1.457-.168-2.675-1.387a.81.81 0 0 0-1.149 0l-5.687 5.687a.815.815 0 0 0-.001 1.15l5.687 5.687A.81.81 0 0 0 .5 31c.208 0 3.18-1.695 1.962-2.913z"/></svg>