<svg xmlns="http://www.w3.org/2000/svg" viewBox="-7.5 16.5 16 16"><path d="M.5 21.5l1.123 3.455h3.633L2.317 27.09l1.123 3.455L.5 28.41l-2.939 2.135 1.123-3.455-2.939-2.135h3.633L.5 21.5m4.756 3.455h.005M.5 20a1.5 1.5 0 0 0-1.427 1.036l-.786 2.418h-2.543a1.5 1.5 0 0 0-.882 2.713l2.057 1.495-.786 2.418a1.5 1.5 0 0 0 2.309 1.677L.5 30.264l2.057 1.495a1.497 1.497 0 0 0 1.764 0 1.5 1.5 0 0 0 .545-1.677l-.786-2.419 2.023-1.47a1.498 1.498 0 0 0-.842-2.738H2.713l-.786-2.418A1.5 1.5 0 0 0 .5 20z"/><path d="M4.5 17.5v3.079l-2.627 1.464-.407-1.198a1 1 0 0 0-.945-.678H.519a1 1 0 0 0-.946.675l-.414 1.206-2.66-1.471V17.5H4.5m1-1h-10v4.667L-.282 23.5l.801-2.333.794 2.333L5.5 21.167V16.5z"/><path fill="none" stroke="#000" stroke-linecap="round" stroke-linejoin="round" stroke-miterlimit="10" d="M-3.5 19h8"/></svg>