<svg xmlns="http://www.w3.org/2000/svg" viewBox="0 0 16 16"><title>Artboard 1</title><path d="M12.914 9.606c.236.11.378.346.378.598v4.19a.645.645 0 0 1-.661.661H3.37a.645.645 0 0 1-.661-.661v-4.19c0-.252.142-.488.378-.598C3.196 9.559 5.874 8.22 8 8.22c2.126 0 4.804 1.339 4.914 1.386zM10.646 3.59v1.323c0 1.465-1.181 2.646-2.646 2.646S5.354 6.378 5.354 4.913V3.59C5.354 2.125 6.536.944 8 .944s2.646 1.182 2.646 2.646zM9.37 9.905l-2.126 2.662-.787-.787A.632.632 0 0 0 6 11.591a.659.659 0 0 0-.457.189.63.63 0 0 0-.189.457c0 .157.063.331.189.457l1.292 1.291a.63.63 0 0 0 .457.189h.031a.618.618 0 0 0 .472-.252l2.567-3.229a.547.547 0 0 0 .157-.394.613.613 0 0 0-.252-.504.608.608 0 0 0-.394-.142.612.612 0 0 0-.503.252z"/></svg>