<svg xmlns="http://www.w3.org/2000/svg" viewBox="-7.5 16.5 16 16"><circle cx="-.333" cy="22.833" r="4.167"/><path d="M3.791 26.958A5.796 5.796 0 0 0 5.5 22.833c0-1.418-.503-2.76-1.424-3.82l.469-.469a.416.416 0 1 0-.59-.59l-1.048 1.048.295.295c.944.944 1.464 2.2 1.464 3.536s-.52 2.591-1.464 3.536c-.944.944-2.2 1.464-3.536 1.464s-2.591-.52-3.536-1.464l-.589.589A5.787 5.787 0 0 0-.751 28.65v1.683h-2.5a.417.417 0 0 0-.417.417v.417H3v-.417a.417.417 0 0 0-.417-.417h-2.5V28.65a5.782 5.782 0 0 0 3.708-1.692z"/></svg>