<svg xmlns="http://www.w3.org/2000/svg" viewBox="0 0 16 16"><title>Artboard 1</title><path d="M13.967 1.181c.466 0 .852.386.852.852v11.933a.858.858 0 0 1-.852.852H2.033a.858.858 0 0 1-.852-.852V2.034c0-.466.386-.852.852-.852h11.934zM2.886 13.141h10.228V2.886H2.886v10.255zm8.204-7.938c.213.173.32.413.32.666a.9.9 0 0 1-.186.533l-3.409 4.261a.852.852 0 0 1-.613.32h-.054a.845.845 0 0 1-.599-.253L4.844 9.026c-.174-.16-.253-.386-.253-.6s.08-.44.253-.599c.16-.173.386-.253.599-.253s.44.08.599.253l1.039 1.026 2.81-3.516a.845.845 0 0 1 .666-.32c.187 0 .373.067.533.186z"/></svg>