<svg xmlns="http://www.w3.org/2000/svg" viewBox="-7.5 16.5 16 16"><path d="M1.87 20.457v.674c0 .745-.614 1.35-1.37 1.35-.757 0-1.37-.604-1.37-1.35v-.673c0-.744.614-1.348 1.37-1.348.757 0 1.37.602 1.37 1.347zm.585 3.468c-.032-.032-.8-.773-1.955-.773-1.156 0-1.923.74-1.955.773-.064.063-.1.15-.1.238v2.696c0 .127.073.243.19.3l.524.258.316 2.184c.024.166.17.29.34.29h1.37c.17 0 .314-.124.338-.29l.317-2.184.526-.258c.116-.057.19-.174.19-.3v-2.697c0-.09-.037-.175-.1-.238zm3.184-2.458v.505c0 .558-.46 1.01-1.03 1.01s-1.027-.452-1.027-1.01v-.505c0-.558.46-1.01 1.028-1.01s1.03.452 1.03 1.01zM4.61 23.49c-1.27 0-1.37.515-1.37.673v2.022c0 .113.058.218.154.28l.38.25.154 1.525c.018.172.165.303.34.303h.686c.176 0 .323-.13.34-.303l.156-1.526.38-.25c.094-.06.152-.167.152-.28v-2.02c0-.16-.1-.675-1.37-.675zm-7.193-2.023v.505c0 .558-.46 1.01-1.028 1.01s-1.03-.452-1.03-1.01v-.505c0-.558.46-1.01 1.03-1.01s1.027.452 1.027 1.01zM-3.61 23.49c-1.272 0-1.37.515-1.37.673v2.022c0 .113.056.218.152.28l.38.25.154 1.525c.018.172.165.303.34.303h.686c.176 0 .323-.13.34-.303l.156-1.526.38-.25c.094-.06.152-.167.152-.28v-2.02c0-.16-.1-.675-1.37-.675z"/></svg>