<svg xmlns="http://www.w3.org/2000/svg" viewBox="0 0 16 16"><title>Artboard 1</title><path d="M11.242 2.69h.13c1.162 0 2.105.957 2.105 2.133 0 .517-.194 1.02-.53 1.408.788.544 1.28 1.448 1.28 2.417v1.537c0 .336-.272.607-.608.607h-.143v3.218c0 .336-.27.607-.607.607H7.522c-.336 0-.607-.27-.607-.607V10.79H6.72v3.217c0 .336-.27.607-.606.607H3.13c-.336 0-.607-.27-.607-.607V10.79H2.38c-.335 0-.606-.27-.606-.607V8.646c0-.97.49-1.873 1.28-2.416-.337-.388-.53-.89-.53-1.408 0-1.176.942-2.132 2.105-2.132 1.15 0 2.092.956 2.092 2.132 0 .517-.194 1.02-.53 1.408.103.065.194.142.284.22.258-.465.62-.866 1.072-1.15-.4-.426-.633-.995-.633-1.59 0-1.278 1.02-2.324 2.287-2.324.865 0 1.653.504 2.04 1.305zM2.794 8.647v1.11h.336c.233 0 .413.195.413.427v3.398h.672v-2.634c0-.233.18-.426.413-.426.22 0 .413.194.413.426v2.635h.66v-3.397c0-.233.194-.426.413-.426h.337v-1.11c0-.285-.065-.544-.18-.79-.285-.632-.918-1.07-1.642-1.07-1.007 0-1.834.838-1.834 1.86zm.75-3.824c0 .62.477 1.11 1.084 1.11.594 0 1.072-.49 1.072-1.11 0-.607-.478-1.098-1.072-1.098-.607 0-1.085.49-1.085 1.098zM7.12 7.73c.103.296.155.593.155.916v.646h.245c.22 0 .413.194.413.426v3.863h.853v-3.01c0-.05 0-.09.026-.14.052-.143.168-.246.323-.272.013 0 .04-.013.065-.013.052 0 .09.013.142.04.155.05.27.206.27.387v3.01h.84V9.718c0-.233.195-.426.414-.426h.426V8c0-.426-.13-.827-.336-1.163l-.103-.142c-.052-.078-.116-.142-.168-.22-.116-.116-.258-.207-.4-.297-.142-.09-.297-.168-.452-.22-.207-.064-.414-.102-.634-.102-1.07 0-1.95.813-2.078 1.873zm.813-4.02c0 .712.568 1.293 1.266 1.293.09 0 .195-.013.285-.04.142-.025.284-.09.4-.167.35-.233.568-.633.568-1.085v-.076c-.013-.155-.052-.31-.103-.44-.207-.45-.646-.774-1.15-.774-.696 0-1.265.58-1.265 1.29zm3.346.027c0 .646-.296 1.214-.748 1.602.284.154.555.348.775.58.026.013.04.013.065.013.607 0 1.085-.49 1.085-1.11 0-.608-.478-1.1-1.085-1.1-.026 0-.052 0-.09.014zM12.12 8v1.718c0 .233-.18.426-.412.426h-.426v3.436h1.176v-3.398c0-.233.18-.426.413-.426h.337v-1.11c0-.84-.555-1.537-1.305-1.783.14.362.22.737.22 1.137z"/></svg>