<svg xmlns="http://www.w3.org/2000/svg" viewBox="-7.5 16.5 16 16"><path d="M7.126 21.634c-.276-1.105-.763-1.665-1.448-1.665-1.342 0-9.412 2.18-11.016 2.62-.005 0-.01.002-.014.003-.64.186-1.053.85-1.053 1.692 0 .84.413 1.505 1.053 1.692.005 0 .01.003.014.004.304.084.842.23 1.522.412v1.346c0 .396.27.74.654.837l1.726.432c.07.017.14.026.21.026.19 0 .377-.063.53-.183.21-.164.332-.415.332-.68v-.874c2.59.66 5.31 1.306 6.042 1.306.684 0 1.17-.56 1.448-1.665.18-.72.28-1.66.28-2.65s-.1-1.935-.28-2.653zm-8.352 6.534l-1.726-.432V26.62c.535.142 1.12.295 1.726.452v1.096zm6.905-.43c-.478 0-.864-1.547-.864-3.453 0-1.907.386-3.452.863-3.452.476 0 .862 1.546.862 3.452s-.387 3.452-.863 3.452z"/></svg>