<svg xmlns="http://www.w3.org/2000/svg" viewBox="-7.5 16.5 16 16"><path d="M5.029 31.086a.835.835 0 0 1-.882-.101L.5 28.068l-3.647 2.917a.832.832 0 0 1-.882.101.834.834 0 0 1-.473-.751v-11.67c0-.46.373-.834.834-.834h8.335c.46 0 .834.373.834.834v11.669a.835.835 0 0 1-.472.752zm-1.63-8.704a.363.363 0 0 0-.29-.247l-1.542-.244-.737-1.558a.366.366 0 0 0-.66 0l-.738 1.558-1.542.244a.366.366 0 0 0-.201.618l1.138 1.138-.326 1.632a.365.365 0 0 0 .535.39L.5 25.1l1.464.813a.36.36 0 0 0 .392-.024.367.367 0 0 0 .143-.366l-.326-1.632 1.138-1.138a.364.364 0 0 0 .088-.371z" fill-rule="evenodd" clip-rule="evenodd"/></svg>