<svg xmlns="http://www.w3.org/2000/svg" viewBox="-7.5 16.5 16 16"><path d="M5.024 22.357a1.43 1.43 0 0 0 1.429-1.429v-.714a1.43 1.43 0 0 0-2.858 0v.714c0 .79.64 1.429 1.429 1.429zM7.062 23.89c-.033-.033-.833-.819-2.038-.819s-2.005.785-2.038.819a.358.358 0 0 0-.105.253V27c0 .135.076.259.197.319l.547.273.331 2.315a.358.358 0 0 0 .354.307h1.429a.358.358 0 0 0 .354-.307l.331-2.315.547-.273A.359.359 0 0 0 7.167 27v-2.857a.358.358 0 0 0-.105-.253zM-4.024 22.357a1.43 1.43 0 0 0 1.429-1.429v-.714a1.43 1.43 0 0 0-2.858 0v.714a1.43 1.43 0 0 0 1.429 1.429zM-4.024 23.071c-1.206 0-2.005.785-2.038.819a.358.358 0 0 0-.105.253V27c0 .135.076.259.197.319l.547.273.331 2.315a.358.358 0 0 0 .354.307h1.429a.358.358 0 0 0 .354-.307l.331-2.315.547-.273A.357.357 0 0 0-1.88 27v-2.857a.358.358 0 0 0-.105-.253c-.034-.033-.833-.819-2.039-.819zM.5 24.321c.592 0 1.071-.48 1.071-1.071v-.536a1.071 1.071 0 1 0-2.142 0v.536A1.07 1.07 0 0 0 .5 24.321zM.5 24.857c-1.326 0-1.429.547-1.429.714v2.143c0 .119.06.231.159.297l.395.264.162 1.618a.357.357 0 0 0 .355.322h.714a.357.357 0 0 0 .355-.322l.162-1.618.395-.264a.358.358 0 0 0 .159-.297v-2.143c.002-.167-.101-.714-1.427-.714z"/></svg>