<svg xmlns="http://www.w3.org/2000/svg" viewBox="-7.5 16.5 16 16"><path d="M5.696 30.943H4.449V29.28h2.078v.831a.832.832 0 0 1-.831.832zm-1.247-3.741h2.078v1.663H4.449v-1.663zm0-2.079h2.078v1.663H4.449v-1.663zm0-2.078h2.078v1.663H4.449v-1.663zm-9.976-2.494a.83.83 0 0 1 .831-.831h.831v-.831a.83.83 0 1 1 1.662 0v.831H3.2v-.831a.83.83 0 1 1 1.662 0v.831h.831a.83.83 0 0 1 .831.831v1.663H-5.527v-1.663zm2.078 4.157h-2.078v-1.663h2.078v1.663zm0 2.078h-2.078v-1.663h2.078v1.663zm0 2.078h-2.078v-1.663h2.078v1.663zm0 2.079h-1.247a.83.83 0 0 1-.831-.831v-.832h2.078v1.663zm2.494-1.663v1.663h-2.078V29.28h2.078zm2.494 0v1.663H-.539V29.28h2.078zm2.494-.416H1.955v-1.663h2.078v1.663zm0-2.078H1.955v-1.663h2.078v1.663zm0-2.078H1.955v-1.663h2.078v1.663zm-2.494 4.156H-.539v-1.663h2.078v1.663zm0-2.078H-.539v-1.663h2.078v1.663zm0-2.078H-.539v-1.663h2.078v1.663zm-2.494 4.156h-2.078v-1.663h2.078v1.663zm0-2.078h-2.078v-1.663h2.078v1.663zm0-2.078h-2.078v-1.663h2.078v1.663zm4.988 4.572v1.663H1.955V29.28h2.078z" fill-rule="evenodd" clip-rule="evenodd"/></svg>