<svg xmlns="http://www.w3.org/2000/svg" viewBox="-7.5 16.5 16 16"><path d="M8.207 20.895L.511 28.591l-3.886.971.971-3.886 7.696-7.696a1 1 0 0 1 1.415.001l1.5 1.5a.999.999 0 0 1 0 1.414zM0 27.688l.25-.25-1.5-1.5-.25.25-.5 2 2-.5zm4.75-4.75l-1.5-1.5-4 4 1.5 1.5 4-4zM6 21.688l-1.5-1.5-.75.75 1.5 1.5.75-.75zm1.5-1.5l-1.5-1.5-.793.793 1.5 1.5.793-.793z"/><path d="M2.5 27.893V30.5h-8v-12h4l2.454 2.454 1.713-1.713-1.963-2.114A2.001 2.001 0 0 0-.75 16.5H-5.5a2 2 0 0 0-2 2v12a2 2 0 0 0 2 2h8a2 2 0 0 0 2-2v-4.607l-2 2z"/></svg>