<svg xmlns="http://www.w3.org/2000/svg" viewBox="-7.5 16.5 16 16"><path d="M6.875 20.516v7.969c0 .44-.357.797-.797.797H-5.078a.797.797 0 0 1-.797-.797v-7.969c0-.44.357-.797.797-.797H6.078c.44 0 .797.357.797.797zm-4.026 6.595l-1.594-3.187a.395.395 0 0 0-.357-.22.397.397 0 0 0-.282.117l-.453.453-1.324-1.986a.399.399 0 0 0-.332-.177l-.025.001a.4.4 0 0 0-.332.219l-2.391 4.781a.398.398 0 0 0 .357.576h6.375a.398.398 0 0 0 .399-.398.385.385 0 0 0-.041-.179zm-.755-4.205a1.594 1.594 0 1 0 3.189 0 1.594 1.594 0 0 0-3.189 0z"/></svg>