<svg xmlns="http://www.w3.org/2000/svg" viewBox="-7.5 16.5 16 16"><path d="M7.493 24.272a6.972 6.972 0 0 0-.601-2.613 6.974 6.974 0 0 0-3.881-3.688 6.984 6.984 0 0 0-6.428.732 6.955 6.955 0 0 0-2.613 3.286 6.972 6.972 0 0 0 .137 5.352 6.974 6.974 0 0 0 3.881 3.688 6.98 6.98 0 0 0 6.427-.732 6.955 6.955 0 0 0 2.613-3.286c.34-.881.496-1.803.465-2.739zm-9.574-4.084c.106.426.159.862.158 1.301a5.418 5.418 0 0 1-.366 1.939 5.417 5.417 0 0 1-1.028 1.685 5.33 5.33 0 0 1-.989.859 4.983 4.983 0 0 1 .116-3.275 4.977 4.977 0 0 1 2.109-2.509zm-.07 5.975c.569-.633 1.016-1.364 1.327-2.173s.47-1.651.471-2.502a6.87 6.87 0 0 0-.261-1.89 5.015 5.015 0 0 1 2.918.212 5.016 5.016 0 0 1 2.308 1.798 6.904 6.904 0 0 0-2.787 3.401 6.974 6.974 0 0 0-.471 2.502 6.87 6.87 0 0 0 .261 1.89 5.015 5.015 0 0 1-2.918-.212 5.016 5.016 0 0 1-2.308-1.798 6.87 6.87 0 0 0 1.46-1.228zm5.232 2.649a5.33 5.33 0 0 1-.158-1.3 5.418 5.418 0 0 1 .366-1.939 5.417 5.417 0 0 1 1.028-1.685c.293-.326.624-.614.989-.859a4.99 4.99 0 0 1-.115 3.275 4.986 4.986 0 0 1-2.11 2.508z"/></svg>