<svg xmlns="http://www.w3.org/2000/svg" viewBox="-7.5 16.5 16 16"><path d="M7.126 21.634c-.276-1.105-.763-1.665-1.448-1.665-1.342 0-9.412 2.182-11.016 2.62l-.014.004c-.64.186-1.053.85-1.053 1.692 0 .841.413 1.505 1.053 1.692l.014.004c.304.083.842.229 1.522.411v1.346c0 .396.27.741.654.837l1.726.432a.86.86 0 0 0 .74-.157.866.866 0 0 0 .332-.68v-.874c2.589.66 5.311 1.306 6.042 1.306.684 0 1.171-.56 1.448-1.665.18-.719.279-1.66.279-2.651s-.099-1.934-.279-2.652zm-8.352 6.534l-1.726-.432V26.62c.535.142 1.12.295 1.726.452v1.096zm6.905-.431c-.477 0-.863-1.546-.863-3.452 0-1.907.386-3.452.863-3.452s.863 1.546.863 3.452-.387 3.452-.863 3.452z"/></svg>