<svg xmlns="http://www.w3.org/2000/svg" viewBox="-7.5 16.5 16 16"><path d="M.518 21.5H7.5a1 1 0 1 0 0-2H.518a1 1 0 0 0 0 2zM7.5 23.5H.518a1 1 0 0 0 0 2H7.5a1 1 0 1 0 0-2zM7.5 27.5H.518a1 1 0 1 0 0 2H7.5a1 1 0 1 0 0-2zM-2.21 25.004h-1.024c-.04 0-.06-.019-.06-.06v-5.166c0-.06-.04-.1-.1-.1h-1.414c-.06 0-.14.01-.231.03l-1.385.3c-.07.02-.1.06-.1.12v1.274c0 .06.04.1.1.1l1.326-.301c.03 0 .05.021.06.051v3.692c0 .04-.02.06-.06.06h-1.225c-.059 0-.1.04-.1.1v1.294c0 .06.04.1.1.1h4.113c.06 0 .1-.04.1-.1v-1.294c0-.06-.04-.1-.1-.1z"/></svg>