<svg xmlns="http://www.w3.org/2000/svg" viewBox="-7.5 16.5 16 16"><path d="M5.466 20.923c-.623-.306-1.557-.613-2.18-.613-.367 0-1.82 1.492-3.203 3.093l-.525-.475c.192-.32.302-.69.302-1.087 0-1.18-.978-2.143-2.18-2.143-1.202 0-2.18.962-2.18 2.144s.978 2.145 2.18 2.145c.28 0 .547-.053.794-.148.19.243.392.498.606.76-.214.262-.418.518-.606.76-.246-.095-.514-.148-.794-.148-1.202 0-2.18.96-2.18 2.143 0 1.182.978 2.144 2.18 2.144 1.202 0 2.18-.962 2.18-2.144 0-.396-.11-.768-.302-1.087l.525-.475 1.32-1.194 4.063-3.673zM-2.32 22.76c-.515 0-.934-.41-.934-.918 0-.507.42-.92.934-.92.515 0 .934.413.934.92 0 .507-.42.92-.934.92zm0 5.515c-.515 0-.934-.412-.934-.92 0-.506.42-.918.934-.918.515 0 .934.412.934.92 0 .505-.42.918-.934.918zm2.336-3.217c-.258 0-.467-.206-.467-.46 0-.253.208-.46.466-.46s.467.207.467.46c0 .255-.21.46-.467.46z"/><path d="M.49 26.26c1.25 1.413 2.465 2.628 2.796 2.628.623 0 1.557-.306 2.18-.613l-3.602-3.26L.49 26.26z"/></svg>