<svg xmlns="http://www.w3.org/2000/svg" viewBox="-7.5 16.5 16 16"><path d="M2.462 28.087c-.406-.406-.904-.23-1.338-.665-.197-.197-.287-.448-.287-.76 0-.438.24-.916.575-1.25.33-.33.788-.575 1.253-.575.294 0 .56.09.758.287.468.468.258.932.665 1.338C5.305 27.68 7 24.708 7 24.5s-.08-.416-.238-.575c-1.22-1.22-2.606-1.457-1.387-2.675.406-.406.87-.197 1.338-.665.196-.196.287-.463.287-.757 0-.465-.244-.923-.575-1.253C6.09 18.24 5.613 18 5.175 18c-.313 0-.564.09-.76.287-.434.434-.258.93-.665 1.338-1.22 1.22-1.457-.168-2.675-1.387C.915 18.078.708 18 .5 18c-.208 0-.416.08-.574.238l-5.687 5.687c-.16.16-.24.372-.24.575 0 .208.08.416.238.575l5.687 5.687c.16.16.367.238.575.238.208 0 3.18-1.695 1.962-2.913z"/></svg>