<svg xmlns="http://www.w3.org/2000/svg" viewBox="-7.5 16.5 16 16"><path d="M5.696 30.943H4.45V29.28h2.077v.83c0 .46-.372.833-.83.833zm-1.247-3.74h2.077v1.662H4.45v-1.663zm0-2.08h2.077v1.663H4.45v-1.663zm0-2.078h2.077v1.663H4.45v-1.663zm-9.977-2.494c0-.458.372-.83.83-.83h.832v-.83a.83.83 0 0 1 1.662 0v.83H3.2v-.83a.83.83 0 0 1 1.662 0v.83h.83c.46 0 .832.372.832.83v1.664h-12.05V20.55zm2.078 4.158h-2.077v-1.663h2.078v1.663zm0 2.078h-2.077v-1.663h2.078v1.663zm0 2.078h-2.077V27.2h2.078v1.664zm0 2.08h-1.246a.83.83 0 0 1-.83-.832v-.832h2.077v1.663zm2.495-1.664v1.663h-2.078V29.28h2.078zm2.494 0v1.663H-.54V29.28h2.08zm2.493-.416H1.955V27.2h2.078v1.664zm0-2.078H1.955v-1.663h2.078v1.663zm0-2.078H1.955v-1.663h2.078v1.663zM1.54 28.864H-.54V27.2h2.08v1.664zm0-2.078H-.54v-1.663h2.08v1.663zm0-2.078H-.54v-1.663h2.08v1.663zm-2.495 4.156h-2.078V27.2h2.078v1.664zm0-2.078h-2.078v-1.663h2.078v1.663zm0-2.078h-2.078v-1.663h2.078v1.663zm4.988 4.572v1.663H1.955V29.28h2.078z" fill-rule="evenodd" clip-rule="evenodd"/></svg>