<svg xmlns="http://www.w3.org/2000/svg" viewBox="-7.5 16.5 16 16"><path d="M5.417 28.451a.866.866 0 0 1 0 1.219l-.609.609a.85.85 0 0 1-.614.252.852.852 0 0 1-.604-.252L1.25 27.67l1.461-1.646 2.706 2.427zm1.569-9.754c-.152-.152-.384-.228-.609-.228a.865.865 0 0 0-.609.228L.46 24.005l-.939-.842c.283-.81.259-2.178-.305-2.742-.914-.914-2.97-1.904-2.97-1.904-.102-.052-.228-.076-.305 0-.076.076-.06.21 0 .305l2.133 2.437c.082.106.076.228-.076.381-.152.152-.271.162-.381.076a770.379 770.379 0 0 0-2.665-2.209c-.09-.068-.228-.076-.305 0-.076.076-.068.214 0 .305 0 0 2.068 2.503 2.209 2.665.086.11.076.228-.076.381-.152.152-.275.158-.381.076l-2.437-2.132c-.095-.059-.228-.076-.305 0-.076.076-.052.202 0 .305 0 0 .99 2.056 1.904 2.97.564.564 1.932.588 2.742.305l.842.939-3.13 3.13a.86.86 0 0 0 0 1.219l.609.609a.86.86 0 0 0 1.218 0l4.818-5.427s2.018.419 3.236-.8c.922-.921 1.498-2.527 1.498-4.11-.001-.511-.111-.948-.408-1.245z"/></svg>