<svg xmlns="http://www.w3.org/2000/svg" viewBox="0 0 48 48"><path d="M44 1c1.65 0 3 1.35 3 3v40c0 1.65-1.35 3-3 3H4c-1.65 0-3-1.35-3-3V4c0-1.65 1.35-3 3-3h40m0-1H4C1.794 0 0 1.794 0 4v40c0 2.206 1.794 4 4 4h40c2.206 0 4-1.794 4-4V4c0-2.206-1.794-4-4-4z"/><path fill="none" stroke="#000" stroke-width="1.5" stroke-linecap="round" stroke-linejoin="round" stroke-miterlimit="10" d="M7 11h8v11H7zM19 11h13v11H19zM7 26h12v11H7zM23 26h5v11h-5z"/><path d="M7 19c3-1.5 8-3 8-3M23 32c4.5 0 5 1.5 5 1.5" fill="none" stroke="#000" stroke-width=".75" stroke-linecap="round" stroke-linejoin="round" stroke-miterlimit="10"/><circle cx="24" cy="16" r="2" fill="none" stroke="#000" stroke-width=".75" stroke-linecap="round" stroke-linejoin="round" stroke-miterlimit="10"/><path d="M22 21.5c0-1.75 0-3.5 2-3.5s2 1.75 2 3.5" fill="none" stroke="#000" stroke-width=".75" stroke-linecap="round" stroke-linejoin="round" stroke-miterlimit="10"/><path fill="none" stroke="#000" stroke-width="1.5" stroke-linecap="round" stroke-linejoin="round" stroke-miterlimit="10" d="M36 11h5v11h-5zM32 26h9v11h-9z"/><path d="M32 32c4.5 0 9 1.5 9 1.5" fill="none" stroke="#000" stroke-width=".75" stroke-linecap="round" stroke-linejoin="round" stroke-miterlimit="10"/><path d="M11.5 29a1.5 1.5 0 1 1 .001 2.999A1.5 1.5 0 0 1 11.5 29m0-.75c-1.241 0-2.25 1.009-2.25 2.25s1.009 2.25 2.25 2.25 2.25-1.009 2.25-2.25-1.009-2.25-2.25-2.25z"/></svg>