<svg xmlns="http://www.w3.org/2000/svg" viewBox="-7.5 16.5 16 16"><path d="M-3 17.5a3.5 3.5 0 1 1 0 7 3.5 3.5 0 0 1 0-7zM-5.5 21a2.5 2.5 0 1 0 5 0 2.5 2.5 0 0 0-5 0z"/><path d="M-2.5 22a.5.5 0 0 1-1 0v-2a.5.5 0 0 1 1 0v2z"/><path d="M-1.5 21a.5.5 0 0 1-.5.5h-2a.5.5 0 0 1 0-1h2a.5.5 0 0 1 .5.5z"/><path fill="none" stroke="#000" stroke-width="2" stroke-linecap="round" stroke-linejoin="round" stroke-miterlimit="10" d="M.5 21.5h5M-4.5 24.5h5M-4.5 27.5h5"/><path d="M4.907 30.51a.743.743 0 1 1 0-1.487.743.743 0 0 1 0 1.487zm.865-2.851l-.122.073v.225a.743.743 0 1 1-1.486 0v-.464c0-.593.482-.887.834-1.102.453-.276.651-.431.651-.755 0-.632-.667-.65-.743-.65-.124 0-.743.031-.743.65a.743.743 0 1 1-1.486 0c0-1.402 1.121-2.136 2.228-2.136 1.08 0 2.228.749 2.228 2.136.003 1.191-.884 1.733-1.361 2.023z"/></svg>