<svg xmlns="http://www.w3.org/2000/svg" viewBox="-7.5 16.5 16 16"><path d="M.5 16.5c-1.654 0-3 1.346-3 3V21c0 1.654 1.346 3 3 3s3-1.346 3-3v-1.5c0-1.654-1.346-3-3-3zM6.085 26.329C5.957 26.265 2.899 24.75.5 24.75s-5.457 1.515-5.585 1.579A.749.749 0 0 0-5.5 27v4.75c0 .414.336.75.75.75h10.5a.75.75 0 0 0 .75-.75V27a.749.749 0 0 0-.415-.671zm-2.89 1.237L.267 31.225a.732.732 0 0 1-.531.274l-.04.001a.735.735 0 0 1-.518-.214l-1.464-1.464a.725.725 0 0 1-.214-.518.728.728 0 0 1 .732-.731c.187 0 .374.072.517.214l.886.886 2.417-3.021a.73.73 0 0 1 1.029-.114.729.729 0 0 1 .114 1.028z"/></svg>