<svg xmlns="http://www.w3.org/2000/svg" viewBox="-7.5 16.5 16 16"><path fill="none" stroke="#000" stroke-width=".5" stroke-linecap="round" stroke-linejoin="round" stroke-miterlimit="10" d="M-5.5 17.5v3h2v-2l-1-1z"/><path d="M-4.5 17.5l1 1v2h-2v-3h1m0-.5h-1a.5.5 0 0 0-.5.5v3a.5.5 0 0 0 .5.5h2a.5.5 0 0 0 .5-.5v-2a.504.504 0 0 0-.146-.354l-1-1A.504.504 0 0 0-4.5 17z"/><path fill="none" stroke="#000" stroke-width=".5" stroke-linecap="round" stroke-linejoin="round" stroke-miterlimit="10" d="M-5.5 23v3h2v-2l-1-1z"/><path d="M-4.5 23l1 1v2h-2v-3h1m0-.5h-1a.5.5 0 0 0-.5.5v3a.5.5 0 0 0 .5.5h2A.5.5 0 0 0-3 26v-2a.504.504 0 0 0-.146-.354l-1-1A.504.504 0 0 0-4.5 22.5z"/><path fill="none" stroke="#000" stroke-width=".5" stroke-linecap="round" stroke-linejoin="round" stroke-miterlimit="10" d="M-5.5 28.5v3h2v-2l-1-1z"/><path d="M-4.5 28.5l1 1v2h-2v-3h1m0-.5h-1a.5.5 0 0 0-.5.5v3a.5.5 0 0 0 .5.5h2a.5.5 0 0 0 .5-.5v-2a.504.504 0 0 0-.146-.354l-1-1A.504.504 0 0 0-4.5 28z"/><path fill="none" stroke="#000" stroke-width="2" stroke-linecap="round" stroke-linejoin="round" stroke-miterlimit="10" d="M-.5 19h7M-.5 24.5h7M-.5 30h7"/></svg>