<svg xmlns="http://www.w3.org/2000/svg" viewBox="-7.5 16.5 16 16"><path d="M3.363 21.611c-.7.699-1.226 1.542-1.679 2.424l-7.621.626c-1.245.102.782 2.68 1.85 2.54 1.972-.258 4.129-1.38 5.227-2.031l-.14.313c-.662 1.476-1.265 3.063-2.127 4.513-.065.109-.131.216-.199.322-2.122.156-3.696-.148-4.404-.731-1.987-1.636-2.52-9.642-.289-10.672 1.532-.707 6.388-.027 10.434 1.908a4.368 4.368 0 0 0-1.052.788zm-6.593-.858c-.77-.355-.532 2.502.149 2.747.734.265 3.79.099 4.254.071.29-.017.44-.587.44-.587l-4.843-2.231zm4.131 8.752c.861-1.513 1.488-3.12 2.089-4.667.284-.73.56-1.452.898-2.139.28-.568.623-1.142 1.134-1.573 1.987 1.046 3.742 2.518 3.409 3.963-.604 2.617-4.581 4.37-7.869 4.98.118-.185.231-.374.339-.564z" fill-rule="evenodd" clip-rule="evenodd"/></svg>