<svg xmlns="http://www.w3.org/2000/svg" viewBox="0 0 16 16"><path d="M11.828 4.026H6.456c-.598 0-1.339.382-1.689.869L3.213 7.073c-.373.52-.373 1.334 0 1.853l1.555 2.179c.349.487 1.091.869 1.688.869h5.372a1.24 1.24 0 0 0 1.239-1.239v-5.47a1.24 1.24 0 0 0-1.239-1.239zm.535 6.709c0 .295-.24.535-.535.535H6.456c-.375 0-.897-.269-1.116-.574L3.785 8.517c-.197-.275-.197-.758 0-1.034L5.34 5.305c.219-.306.741-.575 1.116-.575h5.372c.295 0 .535.24.535.535v5.47z"/><path d="M10.025 7.593H6.77a.407.407 0 0 0 0 .813h3.255a.407.407 0 0 0 0-.813z"/></svg>