<svg xmlns="http://www.w3.org/2000/svg" viewBox="-7.5 16.5 16 16"><path d="M3.5 20.5c-1.092 0-2.222 1.06-2.222 2.364v1.182c0 1.303 1.131 2.364 2.222 2.364s2.222-1.06 2.222-2.364v-1.182c0-1.304-1.13-2.364-2.222-2.364zM7.224 28.224c-.086-.046-2.124-1.133-3.724-1.133-.491 0-1.02.107-1.525.251.328.297.525.722.525 1.184v1.382c0 .21-.042.409-.115.592H7c.276 0 .5-.241.5-.538v-1.256a.545.545 0 0 0-.276-.482zM-3 19.5c-1.228 0-2.5 1.166-2.5 2.6v1.3c0 1.434 1.272 2.6 2.5 2.6s2.5-1.166 2.5-2.6v-1.3c0-1.434-1.272-2.6-2.5-2.6zM1.189 27.997C1.092 27.946-1.2 26.75-3 26.75s-4.092 1.196-4.189 1.247a.595.595 0 0 0-.311.53v1.382c0 .327.252.592.562.592H.937c.311 0 .562-.265.562-.592v-1.382a.592.592 0 0 0-.31-.53z"/></svg>