<svg xmlns="http://www.w3.org/2000/svg" viewBox="-7.5 16.5 16 16"><path d="M5.001 18.797c-1.865-.061-3.127.985-3.788 3.139a2.6 2.6 0 0 1 .993-.211c.68 0 .981.382.901 1.147-.04.463-.34 1.138-.901 2.023-.563.886-.983 1.329-1.262 1.329-.362 0-.692-.685-.994-2.053-.101-.403-.282-1.429-.54-3.08-.242-1.53-.883-2.244-1.925-2.144-.441.04-1.101.444-1.982 1.208-.643.584-1.294 1.168-1.956 1.752l.631.814c.602-.423.954-.633 1.052-.633.462 0 .893.724 1.294 2.172.36 1.33.722 2.658 1.084 3.986.538 1.449 1.202 2.174 1.982 2.174 1.262 0 2.808-1.187 4.631-3.563 1.763-2.274 2.674-4.066 2.735-5.375.08-1.749-.572-2.645-1.955-2.685z"/></svg>