<svg xmlns="http://www.w3.org/2000/svg" viewBox="-7.5 16.5 16 16"><path d="M.921 20.771c0-1.511-.902-3.862-2.645-3.862-.546 0-1.133.273-1.469.693-.357.441-.462 1.007-.462 1.553 0 1.407.819 3.737 2.624 3.737.525 0 1.091-.253 1.428-.588.482-.483.524-1.155.524-1.533z"/><path d="M3.049 16.708l-.47.264H1.278c.482.399 1.49 1.238 1.49 2.834 0 1.553-.882 2.288-1.763 2.981-.272.272-.588.566-.588 1.028 0 .462.315.714.545.903l.756.587c.924.777 1.763 1.491 1.763 2.939 0 1.776-1.551 3.562-4.49 3.904a8 8 0 0 0 4.058-15.44z"/><path d="M-.212 26.292c-.168-.02-.273-.02-.482-.02-.189 0-1.322.041-2.204.336-.462.167-1.805.67-1.805 2.161 0 1.489 1.448 2.56 3.694 2.56 2.015 0 3.085-.965 3.085-2.266 0-1.071-.693-1.638-2.288-2.771z"/><path d="M-4.934 26.648c1.301-.798 3.064-.902 4.008-.965-.294-.378-.629-.776-.629-1.427 0-.357.105-.567.21-.818-.231.02-.462.042-.672.042-2.225 0-3.484-1.659-3.484-3.296 0-.525.135-1.079.398-1.601A7.976 7.976 0 0 0-7.5 24.292c0 1.48.403 2.865 1.104 4.054.208-.588.648-1.215 1.462-1.698z"/></svg>