<svg xmlns="http://www.w3.org/2000/svg" viewBox="0 0 16 16"><path d="M8.018 5H15a1 1 0 1 0 0-2H8.018a1 1 0 0 0 0 2zM15 7H8.018a1 1 0 0 0 0 2H15a1 1 0 1 0 0-2zM15 11H8.018a1 1 0 1 0 0 2H15a1 1 0 1 0 0-2zM3.076 3.083c-.779 0-1.594.101-2.036.239-.069.025-.081.1-.069.176l.081.971c.011.075.104.075.174.063a10.303 10.303 0 0 1 1.443-.126c.907 0 1.233.176 1.233.932v.503c0 .05-.024.064-.07.076l-1.372.189C.749 6.333.482 6.912.482 8.197c0 1.447.628 1.876 2.722 1.876.802 0 1.628-.089 2.035-.227.128-.051.152-.114.152-.189V5.085c0-1.473-.873-2.002-2.315-2.002zm.825 5.781c0 .038-.012.062-.081.088a3.735 3.735 0 0 1-.733.063c-.919 0-1.128-.101-1.128-.995 0-.907.256-1.071 1.093-1.071h.779c.046 0 .07.026.07.076v1.839z"/></svg>