<svg xmlns="http://www.w3.org/2000/svg" viewBox="-7.5 16.5 16 16"><path d="M18.031 19.5v6.171a1.234 1.234 0 0 0 2.468 0V18.5a2.5 2.5 0 1 0-5 0v8.701a3.773 3.773 0 1 0 7.546 0V18.5" fill="none" stroke="#000" stroke-width="1.5" stroke-linecap="round" stroke-miterlimit="10"/><path d="M-1.687 31.634a4.508 4.508 0 0 1-3.198-1.322 4.527 4.527 0 0 1 0-6.396l6.152-6.152a3.251 3.251 0 0 1 4.596 4.596l-5.07 5.07c-.75.75-2.057.75-2.807 0-.375-.375-.581-.873-.581-1.403s.207-1.028.581-1.402l4.364-4.364a.75.75 0 1 1 1.061 1.061l-4.364 4.364a.484.484 0 0 0 0 .685c.182.183.5.183.684 0L4.802 21.3c.331-.33.512-.77.512-1.237a1.74 1.74 0 0 0-.512-1.237 1.754 1.754 0 0 0-2.475 0l-6.152 6.152a3.026 3.026 0 0 0 0 4.275 3.026 3.026 0 0 0 4.274 0L6.602 23.1a.75.75 0 1 1 1.061 1.061L1.51 30.314a4.514 4.514 0 0 1-3.197 1.32z"/><path d="M-17.5 15a2.5 2.5 0 1 1 5 0" fill="none" stroke="#000" stroke-width="1.5" stroke-miterlimit="10"/></svg>