<svg xmlns="http://www.w3.org/2000/svg" viewBox="0 0 16 16"><path d="M12.789 7.075l-1.556-2.18c-.349-.487-1.091-.869-1.688-.869H4.172a1.24 1.24 0 0 0-1.239 1.239v5.47a1.24 1.24 0 0 0 1.239 1.239h5.373c.598 0 1.339-.382 1.688-.869l1.556-2.177c.371-.52.37-1.334 0-1.853zm-.572 1.444l-1.556 2.176c-.219.306-.741.575-1.116.575H4.172a.536.536 0 0 1-.535-.535v-5.47c0-.295.24-.535.535-.535h5.373c.375 0 .897.269 1.116.574l1.556 2.18c.196.275.196.759 0 1.035z"/><path d="M9.249 7.587H8.014V6.354a.411.411 0 1 0-.823 0v1.233H5.956a.413.413 0 0 0 0 .825h1.235v1.234c0 .227.184.413.412.413a.413.413 0 0 0 .411-.413V8.413h1.234a.412.412 0 0 0 .413-.412.412.412 0 0 0-.412-.414z"/></svg>