<?xml version="1.0" encoding="iso-8859-1"?>
<!-- Generator: Adobe Illustrator 17.1.0, SVG Export Plug-In . SVG Version: 6.00 Build 0)  -->
<!DOCTYPE svg PUBLIC "-//W3C//DTD SVG 1.1//EN" "http://www.w3.org/Graphics/SVG/1.1/DTD/svg11.dtd">
<svg version="1.1" id="Layer_1" xmlns="http://www.w3.org/2000/svg" xmlns:xlink="http://www.w3.org/1999/xlink" x="0px" y="0px"
	 viewBox="0 0 16 16" style="enable-background:new 0 0 16 16;" xml:space="preserve">
<title>Artboard 1</title>
<description>Created with Sketch (http://www.bohemiancoding.com/sketch)</description>
<g>
	<path d="M11.242,2.691h0.129c1.163,0,2.106,0.956,2.106,2.132c0,0.517-0.194,1.021-0.53,1.408c0.788,0.543,1.279,1.447,1.279,2.416
		v1.537c0,0.336-0.271,0.607-0.607,0.607h-0.142v3.217c0,0.336-0.271,0.607-0.607,0.607H7.522c-0.336,0-0.607-0.271-0.607-0.607
		V10.79H6.863H6.721v3.217c0,0.336-0.271,0.607-0.607,0.607H3.13c-0.336,0-0.607-0.271-0.607-0.607V10.79H2.381
		c-0.336,0-0.607-0.271-0.607-0.607V8.646c0-0.969,0.491-1.873,1.279-2.416c-0.336-0.388-0.53-0.891-0.53-1.408
		c0-1.176,0.943-2.132,2.106-2.132c1.15,0,2.093,0.956,2.093,2.132c0,0.517-0.194,1.021-0.53,1.408
		c0.103,0.065,0.194,0.142,0.284,0.22c0.258-0.465,0.62-0.866,1.072-1.15c-0.4-0.426-0.633-0.995-0.633-1.589
		c0-1.279,1.021-2.325,2.287-2.325C10.067,1.386,10.855,1.89,11.242,2.691z M2.794,8.646v1.111H3.13
		c0.233,0,0.413,0.194,0.413,0.426v3.398h0.672v-2.635c0-0.233,0.181-0.426,0.413-0.426c0.22,0,0.413,0.194,0.413,0.426v2.635h0.659
		v-3.398c0-0.233,0.194-0.426,0.413-0.426H6.45V8.646c0-0.284-0.065-0.543-0.181-0.788C5.985,7.225,5.352,6.786,4.628,6.786
		C3.621,6.786,2.794,7.625,2.794,8.646z M3.543,4.822c0,0.62,0.478,1.111,1.085,1.111c0.594,0,1.072-0.491,1.072-1.111
		c0-0.607-0.478-1.098-1.072-1.098C4.021,3.724,3.543,4.215,3.543,4.822z M7.122,7.729c0.103,0.297,0.155,0.594,0.155,0.917v0.646
		h0.245c0.22,0,0.413,0.194,0.413,0.426v3.863h0.853v-3.01c0-0.052,0-0.09,0.026-0.142c0.052-0.142,0.168-0.245,0.323-0.271
		c0.013,0,0.039-0.013,0.065-0.013c0.052,0,0.09,0.013,0.142,0.039c0.155,0.052,0.271,0.207,0.271,0.388v3.01h0.84V9.718
		c0-0.233,0.194-0.426,0.413-0.426h0.426V8c0-0.426-0.129-0.827-0.336-1.163l-0.103-0.142c-0.052-0.078-0.116-0.142-0.168-0.22
		c-0.116-0.116-0.258-0.207-0.4-0.297c-0.142-0.09-0.297-0.168-0.452-0.22C9.628,5.894,9.421,5.856,9.201,5.856
		C8.129,5.856,7.251,6.669,7.122,7.729z M7.935,3.711c0,0.711,0.568,1.292,1.266,1.292c0.09,0,0.194-0.013,0.284-0.039
		c0.142-0.026,0.284-0.09,0.4-0.168c0.349-0.233,0.568-0.633,0.568-1.085V3.634c-0.013-0.155-0.052-0.31-0.103-0.439
		c-0.207-0.452-0.646-0.775-1.15-0.775C8.504,2.419,7.935,3.001,7.935,3.711z M11.281,3.737c0,0.646-0.297,1.214-0.749,1.602
		c0.284,0.155,0.555,0.349,0.775,0.581c0.026,0.013,0.039,0.013,0.065,0.013c0.607,0,1.085-0.491,1.085-1.111
		c0-0.607-0.478-1.098-1.085-1.098C11.346,3.724,11.32,3.724,11.281,3.737z M12.121,8v1.718c0,0.233-0.181,0.426-0.413,0.426h-0.426
		v3.436h1.176v-3.398c0-0.233,0.181-0.426,0.413-0.426h0.336V8.646c0-0.84-0.555-1.537-1.305-1.783
		C12.043,7.225,12.121,7.6,12.121,8z"/>
</g>
</svg>
