<?xml version="1.0" encoding="iso-8859-1"?>
<!-- Generator: Adobe Illustrator 17.1.0, SVG Export Plug-In . SVG Version: 6.00 Build 0)  -->
<!DOCTYPE svg PUBLIC "-//W3C//DTD SVG 1.1//EN" "http://www.w3.org/Graphics/SVG/1.1/DTD/svg11.dtd">
<svg version="1.1" id="Layer_1" xmlns="http://www.w3.org/2000/svg" xmlns:xlink="http://www.w3.org/1999/xlink" x="0px" y="0px"
	 viewBox="-7.5 16.5 16 16" style="enable-background:new -7.5 16.5 16 16;" xml:space="preserve">
<g>
	<path d="M-3.667,22.104c0.615,0,1.114-0.466,1.114-1.042v-0.521c0-0.575-0.499-1.042-1.114-1.042c-0.615,0-1.114,0.466-1.114,1.042
		v0.521C-4.781,21.638-4.282,22.104-3.667,22.104z"/>
	<path d="M-3.667,22.625c-0.94,0-1.564,0.573-1.59,0.597c-0.052,0.049-0.082,0.115-0.082,0.184v3.161
		c0,0.099,0.06,0.189,0.154,0.233L-4.757,27l0.258,2.276c0.02,0.128,0.137,0.224,0.276,0.224h1.114c0.139,0,0.256-0.095,0.276-0.224
		L-2.576,27l0.427-0.199c0.094-0.044,0.154-0.134,0.154-0.233v-3.161c0-0.069-0.029-0.135-0.082-0.184
		C-2.103,23.198-2.726,22.625-3.667,22.625z"/>
	<path d="M4.667,22.104c0.615,0,1.114-0.466,1.114-1.042v-0.521c0-0.575-0.499-1.042-1.114-1.042s-1.114,0.466-1.114,1.042v0.521
		C3.552,21.638,4.051,22.104,4.667,22.104z"/>
	<path d="M6.256,23.222c-0.026-0.024-0.649-0.597-1.59-0.597s-1.564,0.573-1.59,0.597c-0.052,0.049-0.082,0.115-0.082,0.184v3.161
		c0,0.099,0.06,0.189,0.154,0.233L3.576,27l0.258,2.276C3.853,29.405,3.971,29.5,4.11,29.5h1.114c0.139,0,0.256-0.095,0.276-0.224
		L5.757,27l0.427-0.199c0.094-0.044,0.154-0.134,0.154-0.233v-3.161C6.338,23.337,6.309,23.271,6.256,23.222z"/>
	<path d="M0.5,22.104c0.615,0,1.114-0.466,1.114-1.042v-0.521c0-0.575-0.499-1.042-1.114-1.042c-0.615,0-1.114,0.466-1.114,1.042
		v0.521C-0.614,21.638-0.115,22.104,0.5,22.104z"/>
	<path d="M0.5,22.625c-0.94,0-1.564,0.573-1.59,0.597c-0.052,0.049-0.082,0.115-0.082,0.184v3.161c0,0.099,0.06,0.189,0.154,0.233
		L-0.591,27l0.258,2.276c0.02,0.128,0.137,0.224,0.276,0.224h1.114c0.139,0,0.256-0.095,0.276-0.224L1.591,27l0.427-0.199
		c0.094-0.044,0.154-0.134,0.154-0.233v-3.161c0-0.069-0.029-0.135-0.082-0.184C2.064,23.198,1.44,22.625,0.5,22.625z"/>
</g>
</svg>
