<?xml version="1.0" encoding="iso-8859-1"?>
<!-- Generator: Adobe Illustrator 17.1.0, SVG Export Plug-In . SVG Version: 6.00 Build 0)  -->
<!DOCTYPE svg PUBLIC "-//W3C//DTD SVG 1.1//EN" "http://www.w3.org/Graphics/SVG/1.1/DTD/svg11.dtd">
<svg version="1.1" id="Layer_1" xmlns="http://www.w3.org/2000/svg" xmlns:xlink="http://www.w3.org/1999/xlink" x="0px" y="0px"
	 viewBox="-7.5 16.5 16 16" style="enable-background:new -7.5 16.5 16 16;" xml:space="preserve">
<g>
	<path d="M5.954,20.627l-3.25-3.5C2.326,16.727,1.8,16.5,1.25,16.5H-3.5c-1.105,0-2,0.895-2,2v12c0,1.105,0.895,2,2,2h8
		c1.105,0,2-0.895,2-2V22C6.5,21.489,6.305,20.998,5.954,20.627z M4.028,21.5H1.5v-2.735L4.028,21.5z M4.5,30.5h-8v-12h4V22
		c0,0.276,0.224,0.5,0.5,0.5h3.5V30.5z"/>
	<rect x="-1.5" y="24.5" width="4" height="1"/>
	<rect x="-1.5" y="26.5" width="3" height="1"/>
</g>
</svg>
