<?xml version="1.0" encoding="iso-8859-1"?>
<!-- Generator: Adobe Illustrator 17.1.0, SVG Export Plug-In . SVG Version: 6.00 Build 0)  -->
<!DOCTYPE svg PUBLIC "-//W3C//DTD SVG 1.1//EN" "http://www.w3.org/Graphics/SVG/1.1/DTD/svg11.dtd">
<svg version="1.1" id="Layer_1" xmlns="http://www.w3.org/2000/svg" xmlns:xlink="http://www.w3.org/1999/xlink" x="0px" y="0px"
	 viewBox="0 0 16 16" style="enable-background:new 0 0 16 16;" xml:space="preserve">
<g>
	<path d="M10.735,3.747H5.265c-0.683,0-1.239,0.556-1.239,1.239V8.73c0,0.599,0.382,1.341,0.869,1.688l2.178,1.557
		c0.251,0.179,0.58,0.278,0.926,0.278s0.675-0.099,0.926-0.278l2.18-1.557c0.487-0.348,0.869-1.09,0.869-1.689V4.986
		C11.974,4.302,11.418,3.747,10.735,3.747z M11.27,8.73c0,0.376-0.268,0.897-0.574,1.116l-2.18,1.557
		c-0.262,0.188-0.772,0.187-1.034,0L5.304,9.845C4.998,9.627,4.73,9.106,4.73,8.73V4.986c0-0.295,0.24-0.535,0.535-0.535h5.471
		c0.295,0,0.535,0.24,0.535,0.535V8.73z"/>
	<path d="M9.646,7.427H8.411V6.192c0-0.227-0.183-0.412-0.41-0.412c-0.229,0-0.412,0.185-0.412,0.412v1.235H6.354
		c-0.229,0-0.412,0.184-0.412,0.412c0,0.227,0.184,0.412,0.412,0.412h1.235v1.233c0,0.229,0.183,0.413,0.412,0.413
		c0.228,0,0.41-0.184,0.41-0.413V8.251h1.235c0.229,0,0.413-0.185,0.413-0.412C10.06,7.611,9.876,7.427,9.646,7.427z"/>
</g>
</svg>
