<?xml version="1.0" encoding="iso-8859-1"?>
<!-- Generator: Adobe Illustrator 17.1.0, SVG Export Plug-In . SVG Version: 6.00 Build 0)  -->
<!DOCTYPE svg PUBLIC "-//W3C//DTD SVG 1.1//EN" "http://www.w3.org/Graphics/SVG/1.1/DTD/svg11.dtd">
<svg version="1.1" id="Layer_1" xmlns="http://www.w3.org/2000/svg" xmlns:xlink="http://www.w3.org/1999/xlink" x="0px" y="0px"
	 viewBox="0 0 16 16" style="enable-background:new 0 0 16 16;" xml:space="preserve">
<title>Artboard 1</title>
<description>Created with Sketch (http://www.bohemiancoding.com/sketch)</description>
<g>
	<path d="M12.328,3.671C13.431,4.775,14.11,6.303,14.11,8s-0.679,3.225-1.782,4.329S9.697,14.111,8,14.111
		c-1.697,0-3.225-0.679-4.329-1.782S1.89,9.697,1.89,8s0.679-3.225,1.782-4.329S6.303,1.889,8,1.889
		C9.697,1.889,11.225,2.568,12.328,3.671z M4.648,4.626c-0.87,0.87-1.4,2.079-1.4,3.374s0.53,2.504,1.4,3.353
		c0.849,0.87,2.058,1.4,3.353,1.4c1.293,0,2.503-0.53,3.373-1.4c0.849-0.849,1.379-2.058,1.379-3.353s-0.53-2.504-1.379-3.374
		C10.503,3.778,9.294,3.247,8,3.247C6.706,3.247,5.497,3.778,4.648,4.626z"/>
</g>
</svg>
