<?xml version="1.0" encoding="iso-8859-1"?>
<!-- Generator: Adobe Illustrator 17.1.0, SVG Export Plug-In . SVG Version: 6.00 Build 0)  -->
<!DOCTYPE svg PUBLIC "-//W3C//DTD SVG 1.1//EN" "http://www.w3.org/Graphics/SVG/1.1/DTD/svg11.dtd">
<svg version="1.1" id="Layer_1" xmlns="http://www.w3.org/2000/svg" xmlns:xlink="http://www.w3.org/1999/xlink" x="0px" y="0px"
	 viewBox="-7.5 16.5 16 16" style="enable-background:new -7.5 16.5 16 16;" xml:space="preserve">
<g>
	<path style="fill-rule:evenodd;clip-rule:evenodd;" d="M5.696,30.943H4.449V29.28h2.078v0.831
		C6.527,30.57,6.155,30.943,5.696,30.943z M4.449,27.202h2.078v1.663H4.449V27.202z M4.449,25.123h2.078v1.663H4.449V25.123z
		 M4.449,23.045h2.078v1.663H4.449V23.045z M-5.527,20.551c0-0.459,0.372-0.831,0.831-0.831h0.831v-0.831
		c0-0.459,0.372-0.831,0.831-0.831s0.831,0.372,0.831,0.831v0.831h5.403v-0.831c0-0.459,0.372-0.831,0.831-0.831
		c0.459,0,0.831,0.372,0.831,0.831v0.831h0.831c0.459,0,0.831,0.372,0.831,0.831v1.663H-5.527V20.551z M-3.449,24.708h-2.078v-1.663
		h2.078V24.708z M-3.449,26.786h-2.078v-1.663h2.078V26.786z M-3.449,28.864h-2.078v-1.663h2.078V28.864z M-3.449,30.943h-1.247
		c-0.459,0-0.831-0.372-0.831-0.831V29.28h2.078V30.943z M-0.955,29.28v1.663h-2.078V29.28H-0.955z M1.539,29.28v1.663h-2.078V29.28
		H1.539z M4.033,28.864H1.955v-1.663h2.078V28.864z M4.033,26.786H1.955v-1.663h2.078V26.786z M4.033,24.708H1.955v-1.663h2.078
		V24.708z M1.539,28.864h-2.078v-1.663h2.078V28.864z M1.539,26.786h-2.078v-1.663h2.078V26.786z M1.539,24.708h-2.078v-1.663h2.078
		V24.708z M-0.955,28.864h-2.078v-1.663h2.078V28.864z M-0.955,26.786h-2.078v-1.663h2.078V26.786z M-0.955,24.708h-2.078v-1.663
		h2.078V24.708z M4.033,29.28v1.663H1.955V29.28H4.033z"/>
</g>
</svg>
