<?xml version="1.0" encoding="iso-8859-1"?>
<!-- Generator: Adobe Illustrator 17.1.0, SVG Export Plug-In . SVG Version: 6.00 Build 0)  -->
<!DOCTYPE svg PUBLIC "-//W3C//DTD SVG 1.1//EN" "http://www.w3.org/Graphics/SVG/1.1/DTD/svg11.dtd">
<svg version="1.1" id="Layer_1" xmlns="http://www.w3.org/2000/svg" xmlns:xlink="http://www.w3.org/1999/xlink" x="0px" y="0px"
	 viewBox="-7.5 16.5 16 16" style="enable-background:new -7.5 16.5 16 16;" xml:space="preserve">
<path d="M-2.306,28.227c1.125-0.627,2.424-1.475,3.757-2.48c3.175-2.392,5.433-4.838,5.433-5.786c0-0.093-0.025-0.171-0.072-0.233
	c-0.081-0.107-0.226-0.166-0.426-0.166c-0.574,0-1.603,0.377-2.874,1.066c-0.823-0.666-1.87-1.066-3.011-1.066
	c-2.644,0-4.788,2.144-4.788,4.788c0,0.655,0.133,1.278,0.371,1.846c-1.218,1.221-1.967,2.247-1.967,2.792
	c0,0.101,0.022,0.186,0.072,0.252c0.081,0.108,0.227,0.197,0.429,0.197c0.596,0,1.713-0.451,3.075-1.21l0,0
	C-2.307,28.228-2.307,28.227-2.306,28.227z M5.311,20.23c0.119,0.158-0.236,0.65-0.916,1.337c-0.204-0.285-0.439-0.547-0.7-0.781
	C4.586,20.29,5.189,20.067,5.311,20.23z M-4.787,27.84c-0.123-0.162,0.258-0.681,0.98-1.401c0.154,0.317,0.342,0.614,0.559,0.888
	C-4.096,27.792-4.668,27.997-4.787,27.84z M5.274,24.001c0.008,0.116,0.014,0.232,0.014,0.349c0,2.644-2.144,4.788-4.788,4.788
	c-0.589,0-1.154-0.107-1.675-0.302c1.045-0.604,2.221-1.384,3.424-2.291C3.398,25.68,4.427,24.807,5.274,24.001z"/>
</svg>
