<?xml version="1.0" encoding="iso-8859-1"?>
<!-- Generator: Adobe Illustrator 17.1.0, SVG Export Plug-In . SVG Version: 6.00 Build 0)  -->
<!DOCTYPE svg PUBLIC "-//W3C//DTD SVG 1.1//EN" "http://www.w3.org/Graphics/SVG/1.1/DTD/svg11.dtd">
<svg version="1.1" id="Layer_1" xmlns="http://www.w3.org/2000/svg" xmlns:xlink="http://www.w3.org/1999/xlink" x="0px" y="0px"
	 viewBox="-7.5 16.5 16 16" style="enable-background:new -7.5 16.5 16 16;" xml:space="preserve">
<g>
	<path d="M-3.5,20c0,0.275-0.225,0.5-0.5,0.5h-3c-0.275,0-0.5-0.225-0.5-0.5v-3c0-0.275,0.225-0.5,0.5-0.5h3
		c0.275,0,0.5,0.225,0.5,0.5V20z M2.5,17c0-0.275-0.225-0.5-0.5-0.5h-3c-0.275,0-0.5,0.225-0.5,0.5v3c0,0.275,0.225,0.5,0.5,0.5h3
		c0.275,0,0.5-0.225,0.5-0.5V17z M8.5,17c0-0.275-0.225-0.5-0.5-0.5H5c-0.275,0-0.5,0.225-0.5,0.5v3c0,0.275,0.225,0.5,0.5,0.5h3
		c0.275,0,0.5-0.225,0.5-0.5V17z M-3.5,23c0-0.275-0.225-0.5-0.5-0.5h-3c-0.275,0-0.5,0.225-0.5,0.5v3c0,0.275,0.225,0.5,0.5,0.5h3
		c0.275,0,0.5-0.225,0.5-0.5V23z M2.5,23c0-0.275-0.225-0.5-0.5-0.5h-3c-0.275,0-0.5,0.225-0.5,0.5v3c0,0.275,0.225,0.5,0.5,0.5h3
		c0.275,0,0.5-0.225,0.5-0.5V23z M8.5,23c0-0.275-0.225-0.5-0.5-0.5H5c-0.275,0-0.5,0.225-0.5,0.5v3c0,0.275,0.225,0.5,0.5,0.5h3
		c0.275,0,0.5-0.225,0.5-0.5V23z M-3.5,29c0-0.275-0.225-0.5-0.5-0.5h-3c-0.275,0-0.5,0.225-0.5,0.5v3c0,0.275,0.225,0.5,0.5,0.5h3
		c0.275,0,0.5-0.225,0.5-0.5V29z M2.5,29c0-0.275-0.225-0.5-0.5-0.5h-3c-0.275,0-0.5,0.225-0.5,0.5v3c0,0.275,0.225,0.5,0.5,0.5h3
		c0.275,0,0.5-0.225,0.5-0.5V29z M8.5,29c0-0.275-0.225-0.5-0.5-0.5H5c-0.275,0-0.5,0.225-0.5,0.5v3c0,0.275,0.225,0.5,0.5,0.5h3
		c0.275,0,0.5-0.225,0.5-0.5V29z"/>
</g>
</svg>
