<?xml version="1.0" encoding="iso-8859-1"?>
<!-- Generator: Adobe Illustrator 17.1.0, SVG Export Plug-In . SVG Version: 6.00 Build 0)  -->
<!DOCTYPE svg PUBLIC "-//W3C//DTD SVG 1.1//EN" "http://www.w3.org/Graphics/SVG/1.1/DTD/svg11.dtd">
<svg version="1.1" id="Layer_1" xmlns="http://www.w3.org/2000/svg" xmlns:xlink="http://www.w3.org/1999/xlink" x="0px" y="0px"
	 viewBox="0 0 16 16" style="enable-background:new 0 0 16 16;" xml:space="preserve">
<title>Artboard 1</title>
<description>Created with Sketch (http://www.bohemiancoding.com/sketch)</description>
<g>
	<path d="M12.862,1.516c0.443,0,0.836,0.152,1.152,0.469c0.304,0.317,0.469,0.709,0.469,1.152v9.725c0,0.443-0.165,0.823-0.469,1.14
		c-0.317,0.317-0.709,0.481-1.152,0.481H3.138c-0.443,0-0.823-0.165-1.14-0.481c-0.317-0.317-0.481-0.697-0.481-1.14V3.137
		c0-0.443,0.165-0.836,0.481-1.152s0.697-0.469,1.14-0.469H12.862z M3.138,4.758h9.725V3.137H3.138V4.758z M9.62,8H6.379V5.569
		H3.138V8h3.241v2.431H3.138v2.431h3.241v-2.431H9.62v2.431h3.242v-2.431H9.62V8h3.242V5.569H9.62V8z"/>
</g>
</svg>
