<?xml version="1.0" encoding="iso-8859-1"?>
<!-- Generator: Adobe Illustrator 17.1.0, SVG Export Plug-In . SVG Version: 6.00 Build 0)  -->
<!DOCTYPE svg PUBLIC "-//W3C//DTD SVG 1.1//EN" "http://www.w3.org/Graphics/SVG/1.1/DTD/svg11.dtd">
<svg version="1.1" id="Layer_1" xmlns="http://www.w3.org/2000/svg" xmlns:xlink="http://www.w3.org/1999/xlink" x="0px" y="0px"
	 viewBox="-7.5 16.5 16 16" style="enable-background:new -7.5 16.5 16 16;" xml:space="preserve">
<path d="M0.5,17.5c-3.866,0-7,3.134-7,7c0,3.866,3.134,7,7,7s7-3.134,7-7C7.5,20.634,4.366,17.5,0.5,17.5z M0.5,29.5
	c-2.761,0-5-2.239-5-5s2.239-5,5-5s5,2.239,5,5S3.261,29.5,0.5,29.5z"/>
<polygon style="stroke:#000000;stroke-width:0.5;stroke-linecap:round;stroke-linejoin:round;stroke-miterlimit:10;" points="
	1.75,22.5 -0.75,22.5 -1.25,22.5 -1.25,26.5 -0.75,26.5 1.75,26.5 2.25,26.5 2.25,22.5 "/>
</svg>
