<?xml version="1.0" encoding="iso-8859-1"?>
<!-- Generator: Adobe Illustrator 17.1.0, SVG Export Plug-In . SVG Version: 6.00 Build 0)  -->
<!DOCTYPE svg PUBLIC "-//W3C//DTD SVG 1.1//EN" "http://www.w3.org/Graphics/SVG/1.1/DTD/svg11.dtd">
<svg version="1.1" id="Layer_1" xmlns="http://www.w3.org/2000/svg" xmlns:xlink="http://www.w3.org/1999/xlink" x="0px" y="0px"
	 viewBox="-7.5 16.5 16 16" style="enable-background:new -7.5 16.5 16 16;" xml:space="preserve">
<g>
	<path d="M-3.093,18.593c-1.748,0-3.165,0.431-3.165,0.962c0,0,0,7.406,0,8.5c0,0.51,0.353,0.366,0.904,0.289
		c0.533-0.075,1.15-0.129,1.809-0.129c1.649,0,3.19,0.293,3.626,0.695c0.092,0.085,0.142,0.063,0.142-0.017c0-0.081,0-9.337,0-9.337
		C0.222,19.024-1.345,18.593-3.093,18.593z"/>
	<path d="M0.08,29.391c-0.436-0.401-1.977-0.695-3.626-0.695c-0.659,0-1.276,0.053-1.809,0.129c-0.144,0.02-0.904,0.139-0.904,0.405
		c0,0.094,0,0.171,0,0.269c0,0.51,0.353,0.366,0.904,0.289c0.533-0.075,1.15-0.129,1.809-0.129c1.649,0,3.19,0.293,3.626,0.695
		c0.092,0.085,0.142,0.063,0.142-0.017c0-0.013,0-0.252,0-0.711C0.222,29.536,0.172,29.476,0.08,29.391z"/>
	<path d="M4.093,18.593c1.748,0,3.165,0.431,3.165,0.962c0,0,0,7.406,0,8.5c0,0.51-0.353,0.366-0.904,0.289
		c-0.533-0.075-1.15-0.129-1.809-0.129c-1.649,0-3.19,0.293-3.626,0.695c-0.092,0.085-0.142,0.063-0.142-0.017
		c0-0.081,0-9.337,0-9.337C0.778,19.024,2.345,18.593,4.093,18.593z"/>
	<path d="M0.92,29.391c0.436-0.401,1.977-0.695,3.626-0.695c0.659,0,1.276,0.053,1.809,0.129c0.144,0.02,0.904,0.139,0.904,0.405
		c0,0.094,0,0.171,0,0.269c0,0.51-0.353,0.366-0.904,0.289c-0.533-0.075-1.15-0.129-1.809-0.129c-1.649,0-3.19,0.293-3.626,0.695
		c-0.092,0.085-0.142,0.063-0.142-0.017c0-0.013,0-0.252,0-0.711C0.778,29.536,0.828,29.476,0.92,29.391z"/>
</g>
</svg>
