<?xml version="1.0" encoding="iso-8859-1"?>
<!-- Generator: Adobe Illustrator 17.1.0, SVG Export Plug-In . SVG Version: 6.00 Build 0)  -->
<!DOCTYPE svg PUBLIC "-//W3C//DTD SVG 1.1//EN" "http://www.w3.org/Graphics/SVG/1.1/DTD/svg11.dtd">
<svg version="1.1" id="Layer_1" xmlns="http://www.w3.org/2000/svg" xmlns:xlink="http://www.w3.org/1999/xlink" x="0px" y="0px"
	 viewBox="-7.5 16.5 16 16" style="enable-background:new -7.5 16.5 16 16;" xml:space="preserve">
<path d="M1.5,22v1.5h2V22c0-0.511-0.195-1.002-0.546-1.373l-2.25-2.5C0.326,17.727-0.2,17.5-0.75,17.5H-5.5c-1.105,0-2,0.895-2,2v10
	c0,1.105,0.895,2,2,2h7c1.105,0,2-0.895,2-2v-3h-2v3h-7v-10H-1L1.5,22z"/>
<line style="fill:none;stroke:#000000;stroke-linecap:round;stroke-linejoin:round;stroke-miterlimit:10;" x1="-2.5" y1="25" x2="7.5" y2="25"/>
<line style="fill:none;stroke:#000000;stroke-linecap:round;stroke-linejoin:round;stroke-miterlimit:10;" x1="7.5" y1="25" x2="5.5" y2="22.5"/>
<line style="fill:none;stroke:#000000;stroke-linecap:round;stroke-linejoin:round;stroke-miterlimit:10;" x1="7.5" y1="25" x2="5.5" y2="27.5"/>
</svg>
