<?xml version="1.0" encoding="iso-8859-1"?>
<!-- Generator: Adobe Illustrator 17.1.0, SVG Export Plug-In . SVG Version: 6.00 Build 0)  -->
<!DOCTYPE svg PUBLIC "-//W3C//DTD SVG 1.1//EN" "http://www.w3.org/Graphics/SVG/1.1/DTD/svg11.dtd">
<svg version="1.1" id="Layer_1" xmlns="http://www.w3.org/2000/svg" xmlns:xlink="http://www.w3.org/1999/xlink" x="0px" y="0px"
	 viewBox="-7.5 16.5 16 16" style="enable-background:new -7.5 16.5 16 16;" xml:space="preserve">
<polyline style="fill:none;stroke:#000000;stroke-width:2;stroke-linecap:round;stroke-linejoin:round;stroke-miterlimit:10;" points="
	-5.5,18.5 -5.5,30.5 7.5,30.5 "/>
<g>
	<path d="M6.5,23.5v7h-3v-7H6.5 M6.5,22.5h-3c-0.552,0-1,0.448-1,1v7c0,0.552,0.448,1,1,1h3c0.552,0,1-0.448,1-1v-7
		C7.5,22.948,7.052,22.5,6.5,22.5L6.5,22.5z"/>
</g>
<g>
	<path d="M0.5,20.5v10h-3v-10H0.5 M0.5,19.5h-3c-0.552,0-1,0.448-1,1v10c0,0.552,0.448,1,1,1h3c0.552,0,1-0.448,1-1v-10
		C1.5,19.948,1.052,19.5,0.5,19.5L0.5,19.5z"/>
</g>
<line style="fill:none;stroke:#000000;stroke-linecap:round;stroke-linejoin:round;stroke-miterlimit:10;" x1="-2.5" y1="26.5" x2="0.5" y2="26.5"/>
<line style="fill:none;stroke:#000000;stroke-linecap:round;stroke-linejoin:round;stroke-miterlimit:10;" x1="-2.5" y1="22.5" x2="0.5" y2="22.5"/>
<line style="fill:none;stroke:#000000;stroke-linecap:round;stroke-linejoin:round;stroke-miterlimit:10;" x1="3.5" y1="25.5" x2="6.5" y2="25.5"/>
</svg>
