<?xml version="1.0" encoding="iso-8859-1"?>
<!-- Generator: Adobe Illustrator 17.1.0, SVG Export Plug-In . SVG Version: 6.00 Build 0)  -->
<!DOCTYPE svg PUBLIC "-//W3C//DTD SVG 1.1//EN" "http://www.w3.org/Graphics/SVG/1.1/DTD/svg11.dtd">
<svg version="1.1" id="Layer_1" xmlns="http://www.w3.org/2000/svg" xmlns:xlink="http://www.w3.org/1999/xlink" x="0px" y="0px"
	 viewBox="-7.5 16.5 16 16" style="enable-background:new -7.5 16.5 16 16;" xml:space="preserve">
<path d="M0.076,23.209c-0.603,0-0.831,0.416-0.831,1.3l-0.025,0.007h0.559c0.163,0,0.297,0.134,0.297,0.297v1.726
	c0,0.163-0.134,0.297-0.297,0.297h-1.5c-0.163,0-0.297-0.133-0.297-0.297v-1.726c0-0.015,0.002-0.03,0.005-0.045
	c0.01-1.31,0.302-2.499,2.091-2.605V23.209z M3.02,23.209c-0.603,0-0.831,0.416-0.831,1.3l-0.025,0.007h0.559
	c0.163,0,0.297,0.134,0.297,0.297v1.726c0,0.163-0.133,0.297-0.297,0.297h-1.5c-0.163,0-0.297-0.133-0.297-0.297v-1.726
	c0-0.015,0.002-0.03,0.005-0.045c0.01-1.31,0.302-2.499,2.09-2.605V23.209z M6.5,19.5c0-0.55-0.45-1-1-1h-10c-0.55,0-1,0.45-1,1v10
	c0,0.55,0.45,1,1,1h10c0.55,0,1-0.45,1-1V19.5z"/>
</svg>
