<?xml version="1.0" encoding="iso-8859-1"?>
<!-- Generator: Adobe Illustrator 17.1.0, SVG Export Plug-In . SVG Version: 6.00 Build 0)  -->
<!DOCTYPE svg PUBLIC "-//W3C//DTD SVG 1.1//EN" "http://www.w3.org/Graphics/SVG/1.1/DTD/svg11.dtd">
<svg version="1.1" id="Layer_1" xmlns="http://www.w3.org/2000/svg" xmlns:xlink="http://www.w3.org/1999/xlink" x="0px" y="0px"
	 viewBox="-7.5 16.5 16 16" style="enable-background:new -7.5 16.5 16 16;" xml:space="preserve">
<g>
	<path d="M1.87,20.457v0.674c0,0.744-0.614,1.348-1.37,1.348c-0.757,0-1.37-0.603-1.37-1.348v-0.674c0-0.744,0.614-1.348,1.37-1.348
		C1.257,19.109,1.87,19.712,1.87,20.457z M2.455,23.925c-0.032-0.032-0.799-0.773-1.955-0.773c-1.156,0-1.923,0.741-1.955,0.773
		c-0.064,0.063-0.1,0.149-0.1,0.238v2.696c0,0.128,0.073,0.244,0.189,0.301l0.525,0.258l0.317,2.184
		c0.024,0.166,0.169,0.289,0.339,0.289h1.37c0.17,0,0.315-0.123,0.339-0.289l0.317-2.184l0.525-0.258
		c0.116-0.057,0.189-0.174,0.189-0.301v-2.696C2.556,24.074,2.519,23.988,2.455,23.925z M5.639,21.467v0.505
		c0,0.558-0.46,1.011-1.028,1.011s-1.028-0.453-1.028-1.011v-0.505c0-0.558,0.46-1.011,1.028-1.011S5.639,20.909,5.639,21.467z
		 M4.611,23.489c-1.272,0-1.37,0.516-1.37,0.674v2.022c0,0.113,0.057,0.218,0.153,0.28l0.379,0.249l0.155,1.526
		c0.018,0.172,0.165,0.303,0.341,0.303h0.685c0.176,0,0.323-0.131,0.341-0.303l0.155-1.526l0.379-0.249
		c0.095-0.062,0.153-0.168,0.153-0.28v-2.022C5.982,24.005,5.883,23.489,4.611,23.489z M-2.583,21.467v0.505
		c0,0.558-0.46,1.011-1.028,1.011s-1.028-0.453-1.028-1.011v-0.505c0-0.558,0.46-1.011,1.028-1.011S-2.583,20.909-2.583,21.467z
		 M-3.611,23.489c-1.271,0-1.37,0.516-1.37,0.674v2.022c0,0.113,0.057,0.218,0.153,0.28l0.379,0.249l0.155,1.526
		c0.018,0.172,0.165,0.303,0.341,0.303h0.685c0.176,0,0.323-0.131,0.341-0.303l0.155-1.526l0.379-0.249
		c0.095-0.062,0.153-0.168,0.153-0.28v-2.022C-2.241,24.005-2.34,23.489-3.611,23.489z"/>
</g>
</svg>
