<?xml version="1.0" encoding="iso-8859-1"?>
<!-- Generator: Adobe Illustrator 17.1.0, SVG Export Plug-In . SVG Version: 6.00 Build 0)  -->
<!DOCTYPE svg PUBLIC "-//W3C//DTD SVG 1.1//EN" "http://www.w3.org/Graphics/SVG/1.1/DTD/svg11.dtd">
<svg version="1.1" id="Layer_1" xmlns="http://www.w3.org/2000/svg" xmlns:xlink="http://www.w3.org/1999/xlink" x="0px" y="0px"
	 viewBox="0 0 16 16" style="enable-background:new 0 0 16 16;" xml:space="preserve">
<g>
	<path d="M8.018,5H15c0.553,0,1-0.448,1-1s-0.447-1-1-1H8.018c-0.552,0-1,0.448-1,1S7.466,5,8.018,5z"/>
	<path d="M15,7H8.018c-0.552,0-1,0.448-1,1c0,0.553,0.448,1,1,1H15c0.553,0,1-0.447,1-1C16,7.448,15.553,7,15,7z"/>
	<path d="M15,11H8.018c-0.552,0-1,0.447-1,1s0.448,1,1,1H15c0.553,0,1-0.447,1-1S15.553,11,15,11z"/>
	<path d="M3.076,3.083c-0.779,0-1.594,0.101-2.036,0.239c-0.069,0.025-0.081,0.1-0.069,0.176l0.081,0.971
		c0.011,0.075,0.104,0.075,0.174,0.063c0.372-0.063,1.023-0.127,1.443-0.126c0.907,0,1.233,0.176,1.233,0.932v0.503
		c0,0.05-0.024,0.064-0.07,0.076L2.46,6.106C0.749,6.333,0.482,6.912,0.482,8.197c0,1.447,0.628,1.876,2.722,1.876
		c0.802,0,1.628-0.089,2.035-0.227c0.128-0.051,0.152-0.114,0.152-0.189V5.085C5.391,3.612,4.518,3.083,3.076,3.083z M3.901,8.864
		c0,0.038-0.012,0.062-0.081,0.088C3.669,8.99,3.354,9.015,3.087,9.015c-0.919,0-1.128-0.101-1.128-0.995
		c0-0.907,0.256-1.071,1.093-1.071h0.779c0.046,0,0.07,0.026,0.07,0.076V8.864z"/>
</g>
</svg>
