<?xml version="1.0" encoding="iso-8859-1"?>
<!-- Generator: Adobe Illustrator 17.1.0, SVG Export Plug-In . SVG Version: 6.00 Build 0)  -->
<!DOCTYPE svg PUBLIC "-//W3C//DTD SVG 1.1//EN" "http://www.w3.org/Graphics/SVG/1.1/DTD/svg11.dtd">
<svg version="1.1" id="Layer_1" xmlns="http://www.w3.org/2000/svg" xmlns:xlink="http://www.w3.org/1999/xlink" x="0px" y="0px"
	 viewBox="0.5 16.5 16 16" style="enable-background:new 0.5 16.5 16 16;" xml:space="preserve">
<path d="M8.5,17.5c-3.86,0-7,3.14-7,7c0,3.859,3.14,7,7,7c3.86,0,7-3.141,7-7C15.5,20.64,12.36,17.5,8.5,17.5z M6.913,18.661
	c-0.578,0.625-1.054,1.384-1.408,2.236c-0.469-0.17-0.916-0.378-1.333-0.628C4.916,19.508,5.858,18.947,6.913,18.661z M3.565,21
	c0.506,0.314,1.051,0.577,1.627,0.785c-0.21,0.711-0.338,1.465-0.375,2.242H2.466C2.553,22.905,2.947,21.868,3.565,21z
	 M2.466,24.971h2.351c0.037,0.778,0.165,1.534,0.375,2.244C4.617,27.422,4.074,27.686,3.565,28
	C2.947,27.13,2.553,26.094,2.466,24.971z M4.172,28.73c0.419-0.249,0.865-0.458,1.334-0.629c0.353,0.854,0.832,1.612,1.409,2.238
	C5.858,30.052,4.916,29.491,4.172,28.73z M8.028,30.111c-0.675-0.583-1.226-1.367-1.619-2.282c0.526-0.126,1.066-0.205,1.619-0.234
	V30.111z M8.028,26.651c-0.66,0.031-1.309,0.13-1.938,0.287c-0.181-0.621-0.294-1.284-0.332-1.968h2.269V26.651z M8.028,24.027
	H5.759c0.038-0.683,0.151-1.346,0.332-1.967c0.628,0.158,1.277,0.257,1.938,0.289V24.027z M8.028,21.405
	c-0.553-0.03-1.092-0.109-1.619-0.235c0.393-0.915,0.944-1.701,1.619-2.281V21.405z M12.827,20.269
	c-0.417,0.249-0.866,0.456-1.335,0.628c-0.351-0.852-0.829-1.611-1.406-2.236C11.142,18.947,12.083,19.508,12.827,20.269z
	 M8.972,18.889c0.674,0.58,1.225,1.366,1.616,2.281c-0.523,0.126-1.067,0.205-1.616,0.235V18.889z M8.972,22.349
	c0.659-0.032,1.309-0.13,1.937-0.29c0.18,0.622,0.295,1.285,0.331,1.968H8.972V22.349z M8.972,24.971h2.268
	c-0.035,0.684-0.151,1.347-0.332,1.969c-0.626-0.159-1.276-0.258-1.935-0.289V24.971z M8.972,30.111v-2.516
	c0.55,0.029,1.092,0.108,1.616,0.234C10.197,28.743,9.645,29.53,8.972,30.111z M10.086,30.339c0.576-0.625,1.053-1.384,1.406-2.236
	c0.468,0.171,0.918,0.378,1.335,0.628C12.083,29.491,11.141,30.052,10.086,30.339z M13.434,28c-0.506-0.313-1.052-0.577-1.627-0.785
	c0.209-0.71,0.337-1.466,0.375-2.244h2.352C14.445,26.094,14.053,27.13,13.434,28z M12.182,24.027
	c-0.038-0.778-0.166-1.532-0.375-2.242c0.575-0.208,1.121-0.473,1.627-0.785c0.62,0.868,1.012,1.905,1.1,3.027H12.182z"/>
<circle style="fill:none;stroke:#000000;stroke-width:2;stroke-miterlimit:10;" cx="8.5" cy="24.5" r="7"/>
</svg>
