<?xml version="1.0" encoding="iso-8859-1"?>
<!-- Generator: Adobe Illustrator 17.1.0, SVG Export Plug-In . SVG Version: 6.00 Build 0)  -->
<!DOCTYPE svg PUBLIC "-//W3C//DTD SVG 1.1//EN" "http://www.w3.org/Graphics/SVG/1.1/DTD/svg11.dtd">
<svg version="1.1" id="Layer_1" xmlns="http://www.w3.org/2000/svg" xmlns:xlink="http://www.w3.org/1999/xlink" x="0px" y="0px"
	 viewBox="-7.5 16.5 16 16" style="enable-background:new -7.5 16.5 16 16;" xml:space="preserve">
<g>
	<path d="M-3.5,18.5v2h-2v-2H-3.5 M-3.5,17.5h-2c-0.55,0-1,0.45-1,1v2c0,0.55,0.45,1,1,1h2c0.55,0,1-0.45,1-1v-2
		C-2.5,17.95-2.95,17.5-3.5,17.5L-3.5,17.5z"/>
</g>
<g>
	<path d="M1.5,18.5v2h-2v-2H1.5 M1.5,17.5h-2c-0.55,0-1,0.45-1,1v2c0,0.55,0.45,1,1,1h2c0.55,0,1-0.45,1-1v-2
		C2.5,17.95,2.05,17.5,1.5,17.5L1.5,17.5z"/>
</g>
<g>
	<path d="M6.5,18.5v2h-2v-2H6.5 M6.5,17.5h-2c-0.55,0-1,0.45-1,1v2c0,0.55,0.45,1,1,1h2c0.55,0,1-0.45,1-1v-2
		C7.5,17.95,7.05,17.5,6.5,17.5L6.5,17.5z"/>
</g>
<g>
	<path d="M-3.5,23.5v2h-2v-2H-3.5 M-3.5,22.5h-2c-0.55,0-1,0.45-1,1v2c0,0.55,0.45,1,1,1h2c0.55,0,1-0.45,1-1v-2
		C-2.5,22.95-2.95,22.5-3.5,22.5L-3.5,22.5z"/>
</g>
<g>
	<path d="M1.5,23.5v2h-2v-2H1.5 M1.5,22.5h-2c-0.55,0-1,0.45-1,1v2c0,0.55,0.45,1,1,1h2c0.55,0,1-0.45,1-1v-2
		C2.5,22.95,2.05,22.5,1.5,22.5L1.5,22.5z"/>
</g>
<g>
	<path d="M6.5,23.5v2h-2v-2H6.5 M6.5,22.5h-2c-0.55,0-1,0.45-1,1v2c0,0.55,0.45,1,1,1h2c0.55,0,1-0.45,1-1v-2
		C7.5,22.95,7.05,22.5,6.5,22.5L6.5,22.5z"/>
</g>
<g>
	<path d="M-3.5,28.5v2h-2v-2H-3.5 M-3.5,27.5h-2c-0.55,0-1,0.45-1,1v2c0,0.55,0.45,1,1,1h2c0.55,0,1-0.45,1-1v-2
		C-2.5,27.95-2.95,27.5-3.5,27.5L-3.5,27.5z"/>
</g>
<g>
	<path d="M1.5,28.5v2h-2v-2H1.5 M1.5,27.5h-2c-0.55,0-1,0.45-1,1v2c0,0.55,0.45,1,1,1h2c0.55,0,1-0.45,1-1v-2
		C2.5,27.95,2.05,27.5,1.5,27.5L1.5,27.5z"/>
</g>
<g>
	<path d="M6.5,28.5v2h-2v-2H6.5 M6.5,27.5h-2c-0.55,0-1,0.45-1,1v2c0,0.55,0.45,1,1,1h2c0.55,0,1-0.45,1-1v-2
		C7.5,27.95,7.05,27.5,6.5,27.5L6.5,27.5z"/>
</g>
<line style="fill:none;stroke:#000000;stroke-linejoin:round;stroke-miterlimit:10;" x1="-4.5" y1="20.5" x2="-4.5" y2="23.5"/>
<line style="fill:none;stroke:#000000;stroke-linejoin:round;stroke-miterlimit:10;" x1="-3.5" y1="19.5" x2="-0.5" y2="19.5"/>
<line style="fill:none;stroke:#000000;stroke-linejoin:round;stroke-miterlimit:10;" x1="1.5" y1="19.5" x2="4.5" y2="19.5"/>
<line style="fill:none;stroke:#000000;stroke-linejoin:round;stroke-miterlimit:10;" x1="5.5" y1="20.5" x2="5.5" y2="23.5"/>
<line style="fill:none;stroke:#000000;stroke-linejoin:round;stroke-miterlimit:10;" x1="0.5" y1="20.5" x2="0.5" y2="23.5"/>
<line style="fill:none;stroke:#000000;stroke-linejoin:round;stroke-miterlimit:10;" x1="-3.5" y1="24.5" x2="-0.5" y2="24.5"/>
<line style="fill:none;stroke:#000000;stroke-linejoin:round;stroke-miterlimit:10;" x1="1.5" y1="24.5" x2="4.5" y2="24.5"/>
<line style="fill:none;stroke:#000000;stroke-linejoin:round;stroke-miterlimit:10;" x1="5.5" y1="25.5" x2="5.5" y2="28.5"/>
<line style="fill:none;stroke:#000000;stroke-linejoin:round;stroke-miterlimit:10;" x1="4.5" y1="29.5" x2="1.5" y2="29.5"/>
<line style="fill:none;stroke:#000000;stroke-linejoin:round;stroke-miterlimit:10;" x1="0.5" y1="28.5" x2="0.5" y2="25.5"/>
<line style="fill:none;stroke:#000000;stroke-linejoin:round;stroke-miterlimit:10;" x1="-4.5" y1="25.5" x2="-4.5" y2="28.5"/>
<line style="fill:none;stroke:#000000;stroke-linejoin:round;stroke-miterlimit:10;" x1="-3.5" y1="29.5" x2="-0.5" y2="29.5"/>
</svg>
