<?xml version="1.0" encoding="iso-8859-1"?>
<!-- Generator: Adobe Illustrator 17.1.0, SVG Export Plug-In . SVG Version: 6.00 Build 0)  -->
<!DOCTYPE svg PUBLIC "-//W3C//DTD SVG 1.1//EN" "http://www.w3.org/Graphics/SVG/1.1/DTD/svg11.dtd">
<svg version="1.1" id="Layer_1" xmlns="http://www.w3.org/2000/svg" xmlns:xlink="http://www.w3.org/1999/xlink" x="0px" y="0px"
	 viewBox="-7.5 16.5 16 16" style="enable-background:new -7.5 16.5 16 16;" xml:space="preserve">
<path d="M5.036,22.269v7.436c0,0.411-0.338,0.744-0.756,0.744H-3.28c-0.418,0-0.756-0.333-0.756-0.744v-10.41
	c0-0.411,0.339-0.744,0.756-0.744h4.536h0.756c0.2,0,0.393,0.078,0.535,0.218L4.815,21c0.142,0.139,0.221,0.329,0.221,0.526V22.269z
	 M-2.719,22.277l0.997,0.53l0.116,1.162c0.01,0.099,0.077,0.184,0.171,0.216c0.052,0.018,0.108,0.018,0.159,0.003
	c0.041-0.012,0.079-0.035,0.109-0.067l0.815-0.846l1.149,0.245c0.043,0.009,0.087,0.007,0.128-0.006
	c0.051-0.016,0.097-0.047,0.13-0.091c0.06-0.08,0.068-0.187,0.021-0.275L0.521,22.12l0.53-0.997
	c0.032-0.061,0.038-0.131,0.019-0.195c-0.008-0.025-0.019-0.05-0.035-0.072c-0.055-0.079-0.15-0.12-0.245-0.106l-1.084,0.153
	l-0.815-0.894c-0.067-0.073-0.169-0.101-0.264-0.072c-0.095,0.029-0.164,0.11-0.178,0.208l-0.175,1.197l-0.984,0.48
	c-0.086,0.042-0.142,0.129-0.144,0.225c-0.001,0.027,0.003,0.054,0.011,0.079C-2.824,22.19-2.78,22.244-2.719,22.277z M2.334,23.948
	c-0.942,0-1.706,0.764-1.706,1.706c0,0.942,0.764,1.706,1.706,1.706s1.706-0.764,1.706-1.706C4.04,24.712,3.276,23.948,2.334,23.948
	z M-0.412,25.999c-0.076-0.312-0.328-0.386-0.56-0.164l-1.769,1.69c-0.232,0.222-0.17,0.477,0.138,0.567l2.348,0.687
	c0.308,0.09,0.498-0.091,0.422-0.403L-0.412,25.999z"/>
</svg>
