<?xml version="1.0" encoding="iso-8859-1"?>
<!-- Generator: Adobe Illustrator 17.1.0, SVG Export Plug-In . SVG Version: 6.00 Build 0)  -->
<!DOCTYPE svg PUBLIC "-//W3C//DTD SVG 1.1//EN" "http://www.w3.org/Graphics/SVG/1.1/DTD/svg11.dtd">
<svg version="1.1" id="Layer_1" xmlns="http://www.w3.org/2000/svg" xmlns:xlink="http://www.w3.org/1999/xlink" x="0px" y="0px"
	 viewBox="0 0 16 16" style="enable-background:new 0 0 16 16;" xml:space="preserve">
<title>Artboard 1</title>
<description>Created with Sketch (http://www.bohemiancoding.com/sketch)</description>
<g>
	<path d="M13.967,1.181c0.466,0,0.852,0.386,0.852,0.852v11.933c0,0.466-0.386,0.852-0.852,0.852H2.033
		c-0.466,0-0.852-0.386-0.852-0.852V2.034c0-0.466,0.386-0.852,0.852-0.852H13.967z M2.886,13.141h10.228V2.886H2.886V13.141z
		 M11.09,5.203c0.213,0.173,0.32,0.413,0.32,0.666c0,0.186-0.067,0.373-0.186,0.533l-3.409,4.261
		c-0.147,0.186-0.373,0.306-0.613,0.32H7.148c-0.226,0-0.44-0.093-0.599-0.253L4.844,9.026C4.67,8.866,4.591,8.64,4.591,8.426
		s0.08-0.44,0.253-0.599c0.16-0.173,0.386-0.253,0.599-0.253s0.44,0.08,0.599,0.253l1.039,1.026l2.81-3.516
		c0.173-0.213,0.413-0.32,0.666-0.32C10.744,5.017,10.93,5.084,11.09,5.203z"/>
</g>
</svg>
