<?xml version="1.0" encoding="iso-8859-1"?>
<!-- Generator: Adobe Illustrator 17.1.0, SVG Export Plug-In . SVG Version: 6.00 Build 0)  -->
<!DOCTYPE svg PUBLIC "-//W3C//DTD SVG 1.1//EN" "http://www.w3.org/Graphics/SVG/1.1/DTD/svg11.dtd">
<svg version="1.1" id="Layer_3" xmlns="http://www.w3.org/2000/svg" xmlns:xlink="http://www.w3.org/1999/xlink" x="0px" y="0px"
	 viewBox="0 0 48 48" style="enable-background:new 0 0 48 48;" xml:space="preserve">
<g>
	<path d="M35,11c0-1.103-0.897-2-2-2H15c-1.103,0-2,0.897-2,2v18c0,1.103,0.897,2,2,2h18c1.103,0,2-0.897,2-2V11z M32.998,25.948
		c-1.518-0.893-4.336-2.445-7.708-3.788c1.299-0.928,4.757-3.224,7.709-3.692L32.998,25.948z M33,11l-0.001,6.708
		c-3.575,0.514-7.697,3.494-8.541,4.129c-2.953-1.114-6.263-2.022-9.458-2.184V11H33z M15,29v-8.596c7.406,0.388,15,4.899,18,6.416
		V29H15z"/>
	<path d="M23.5,17.75c1.241,0,2.25-1.009,2.25-2.25s-1.009-2.25-2.25-2.25s-2.25,1.009-2.25,2.25S22.259,17.75,23.5,17.75z M23.5,14
		c0.829,0,1.5,0.671,1.5,1.5c0,0.829-0.671,1.5-1.5,1.5c-0.829,0-1.5-0.671-1.5-1.5C22,14.671,22.671,14,23.5,14z"/>
	<path d="M9,23.5c0.144,0,0.286-0.061,0.385-0.18c0.177-0.212,0.148-0.528-0.064-0.705L6.781,20.5l2.539-2.116
		c0.212-0.177,0.241-0.492,0.064-0.705c-0.178-0.212-0.492-0.24-0.705-0.064l-3,2.5C5.566,20.211,5.5,20.352,5.5,20.5
		s0.066,0.289,0.18,0.384l3,2.5C8.773,23.462,8.887,23.5,9,23.5z"/>
	<path d="M42.32,20.116l-3-2.5c-0.211-0.175-0.526-0.148-0.704,0.064c-0.177,0.212-0.148,0.528,0.063,0.705l2.539,2.116
		l-2.539,2.116c-0.212,0.177-0.24,0.492-0.063,0.705c0.099,0.119,0.241,0.18,0.384,0.18c0.113,0,0.227-0.038,0.32-0.116l3-2.5
		c0.114-0.095,0.18-0.236,0.18-0.384S42.435,20.211,42.32,20.116z"/>
	<path d="M11.5,34h-3C7.673,34,7,34.673,7,35.5v3C7,39.327,7.673,40,8.5,40h3c0.827,0,1.5-0.673,1.5-1.5v-3
		C13,34.673,12.327,34,11.5,34z M12,38.5c0,0.275-0.224,0.5-0.5,0.5h-3C8.224,39,8,38.775,8,38.5v-3C8,35.225,8.224,35,8.5,35h3
		c0.276,0,0.5,0.225,0.5,0.5V38.5z"/>
	<path d="M18.5,34h-3c-0.827,0-1.5,0.673-1.5,1.5v3c0,0.827,0.673,1.5,1.5,1.5h3c0.827,0,1.5-0.673,1.5-1.5v-3
		C20,34.673,19.327,34,18.5,34z M19,38.5c0,0.275-0.224,0.5-0.5,0.5h-3c-0.276,0-0.5-0.225-0.5-0.5v-3c0-0.275,0.224-0.5,0.5-0.5h3
		c0.276,0,0.5,0.225,0.5,0.5V38.5z"/>
	<path d="M25.5,34h-3c-0.827,0-1.5,0.673-1.5,1.5v3c0,0.827,0.673,1.5,1.5,1.5h3c0.827,0,1.5-0.673,1.5-1.5v-3
		C27,34.673,26.327,34,25.5,34z M26,38.5c0,0.275-0.225,0.5-0.5,0.5h-3c-0.276,0-0.5-0.225-0.5-0.5v-3c0-0.275,0.224-0.5,0.5-0.5h3
		c0.275,0,0.5,0.225,0.5,0.5V38.5z"/>
	<path d="M32.5,34h-3c-0.827,0-1.5,0.673-1.5,1.5v3c0,0.827,0.673,1.5,1.5,1.5h3c0.827,0,1.5-0.673,1.5-1.5v-3
		C34,34.673,33.327,34,32.5,34z M33,38.5c0,0.275-0.225,0.5-0.5,0.5h-3c-0.275,0-0.5-0.225-0.5-0.5v-3c0-0.275,0.225-0.5,0.5-0.5h3
		c0.275,0,0.5,0.225,0.5,0.5V38.5z"/>
	<path d="M39.5,34h-3c-0.827,0-1.5,0.673-1.5,1.5v3c0,0.827,0.673,1.5,1.5,1.5h3c0.827,0,1.5-0.673,1.5-1.5v-3
		C41,34.673,40.327,34,39.5,34z M40,38.5c0,0.275-0.225,0.5-0.5,0.5h-3c-0.275,0-0.5-0.225-0.5-0.5v-3c0-0.275,0.225-0.5,0.5-0.5h3
		c0.275,0,0.5,0.225,0.5,0.5V38.5z"/>
</g>
</svg>
