<?xml version="1.0" encoding="iso-8859-1"?>
<!-- Generator: Adobe Illustrator 17.1.0, SVG Export Plug-In . SVG Version: 6.00 Build 0)  -->
<!DOCTYPE svg PUBLIC "-//W3C//DTD SVG 1.1//EN" "http://www.w3.org/Graphics/SVG/1.1/DTD/svg11.dtd">
<svg version="1.1" id="Layer_1" xmlns="http://www.w3.org/2000/svg" xmlns:xlink="http://www.w3.org/1999/xlink" x="0px" y="0px"
	 viewBox="0 0 16 16" style="enable-background:new 0 0 16 16;" xml:space="preserve">
<title>Artboard 1</title>
<description>Created with Sketch (http://www.bohemiancoding.com/sketch)</description>
<g>
	<path d="M12.914,9.606c0.236,0.11,0.378,0.346,0.378,0.598v4.19c0,0.378-0.283,0.661-0.661,0.661H3.37
		c-0.378,0-0.661-0.283-0.661-0.661v-4.19c0-0.252,0.142-0.488,0.378-0.598C3.196,9.559,5.874,8.22,8,8.22
		C10.126,8.22,12.804,9.559,12.914,9.606z M10.646,3.59v1.323c0,1.465-1.181,2.646-2.646,2.646S5.354,6.378,5.354,4.913V3.59
		c0-1.465,1.182-2.646,2.646-2.646S10.646,2.126,10.646,3.59z M9.37,9.905l-2.126,2.662L6.457,11.78
		C6.331,11.654,6.173,11.591,6,11.591c-0.157,0-0.331,0.063-0.457,0.189c-0.126,0.126-0.189,0.283-0.189,0.457
		c0,0.157,0.063,0.331,0.189,0.457l1.292,1.291c0.126,0.126,0.283,0.189,0.457,0.189h0.031c0.189-0.016,0.362-0.094,0.472-0.252
		l2.567-3.229c0.11-0.11,0.157-0.252,0.157-0.394c0-0.189-0.079-0.378-0.252-0.504c-0.11-0.094-0.252-0.142-0.394-0.142
		C9.685,9.653,9.496,9.732,9.37,9.905z"/>
</g>
</svg>
