<?xml version="1.0" encoding="iso-8859-1"?>
<!-- Generator: Adobe Illustrator 17.1.0, SVG Export Plug-In . SVG Version: 6.00 Build 0)  -->
<!DOCTYPE svg PUBLIC "-//W3C//DTD SVG 1.1//EN" "http://www.w3.org/Graphics/SVG/1.1/DTD/svg11.dtd">
<svg version="1.1" id="Layer_4" xmlns="http://www.w3.org/2000/svg" xmlns:xlink="http://www.w3.org/1999/xlink" x="0px" y="0px"
	 viewBox="0 0 48 48" style="enable-background:new 0 0 48 48;" xml:space="preserve">
<g>
	<path d="M44,1c1.65,0,3,1.35,3,3v40c0,1.65-1.35,3-3,3H4c-1.65,0-3-1.35-3-3V4c0-1.65,1.35-3,3-3H44 M44,0H4C1.794,0,0,1.794,0,4
		v40c0,2.206,1.794,4,4,4h40c2.206,0,4-1.794,4-4V4C48,1.794,46.206,0,44,0L44,0z"/>
</g>
<rect x="7" y="11" style="fill:none;stroke:#000000;stroke-width:1.5;stroke-linecap:round;stroke-linejoin:round;stroke-miterlimit:10;" width="8" height="11"/>
<rect x="19" y="11" style="fill:none;stroke:#000000;stroke-width:1.5;stroke-linecap:round;stroke-linejoin:round;stroke-miterlimit:10;" width="13" height="11"/>
<rect x="7" y="26" style="fill:none;stroke:#000000;stroke-width:1.5;stroke-linecap:round;stroke-linejoin:round;stroke-miterlimit:10;" width="12" height="11"/>
<rect x="23" y="26" style="fill:none;stroke:#000000;stroke-width:1.5;stroke-linecap:round;stroke-linejoin:round;stroke-miterlimit:10;" width="5" height="11"/>
<path style="fill:none;stroke:#000000;stroke-width:0.75;stroke-linecap:round;stroke-linejoin:round;stroke-miterlimit:10;" d="
	M7,19c3-1.5,8-3,8-3"/>
<path style="fill:none;stroke:#000000;stroke-width:0.75;stroke-linecap:round;stroke-linejoin:round;stroke-miterlimit:10;" d="
	M23,32c4.5,0,5,1.5,5,1.5"/>
<circle style="fill:none;stroke:#000000;stroke-width:0.75;stroke-linecap:round;stroke-linejoin:round;stroke-miterlimit:10;" cx="24" cy="16" r="2"/>
<path style="fill:none;stroke:#000000;stroke-width:0.75;stroke-linecap:round;stroke-linejoin:round;stroke-miterlimit:10;" d="
	M22,21.5c0-1.75,0-3.5,2-3.5s2,1.75,2,3.5"/>
<rect x="36" y="11" style="fill:none;stroke:#000000;stroke-width:1.5;stroke-linecap:round;stroke-linejoin:round;stroke-miterlimit:10;" width="5" height="11"/>
<rect x="32" y="26" style="fill:none;stroke:#000000;stroke-width:1.5;stroke-linecap:round;stroke-linejoin:round;stroke-miterlimit:10;" width="9" height="11"/>
<path style="fill:none;stroke:#000000;stroke-width:0.75;stroke-linecap:round;stroke-linejoin:round;stroke-miterlimit:10;" d="
	M32,32c4.5,0,9,1.5,9,1.5"/>
<g>
	<path d="M11.5,29c0.829,0,1.5,0.671,1.5,1.5S12.329,32,11.5,32c-0.829,0-1.5-0.671-1.5-1.5S10.671,29,11.5,29 M11.5,28.25
		c-1.241,0-2.25,1.009-2.25,2.25s1.009,2.25,2.25,2.25s2.25-1.009,2.25-2.25S12.741,28.25,11.5,28.25L11.5,28.25z"/>
</g>
</svg>
