<?xml version="1.0" encoding="iso-8859-1"?>
<!-- Generator: Adobe Illustrator 17.1.0, SVG Export Plug-In . SVG Version: 6.00 Build 0)  -->
<!DOCTYPE svg PUBLIC "-//W3C//DTD SVG 1.1//EN" "http://www.w3.org/Graphics/SVG/1.1/DTD/svg11.dtd">
<svg version="1.1" id="Layer_1" xmlns="http://www.w3.org/2000/svg" xmlns:xlink="http://www.w3.org/1999/xlink" x="0px" y="0px"
	 viewBox="0 0 16 16" style="enable-background:new 0 0 16 16;" xml:space="preserve">
<title>Artboard 1</title>
<description>Created with Sketch (http://www.bohemiancoding.com/sketch)</description>
<g>
	<path style="fill:#010101;" d="M3.897,6.331c0,0.739-0.58,1.332-1.319,1.332c-0.738,0-1.332-0.594-1.332-1.332
		S1.84,5.012,2.578,5.012C3.317,5.012,3.897,5.593,3.897,6.331z M6.285,10.302c0,1.293-1.069,2.361-2.388,2.361
		c-1.293,0-2.361-1.069-2.361-2.361c0-1.306,1.068-2.374,2.361-2.374C5.216,7.927,6.285,8.996,6.285,10.302z M1.866,6.331
		c0,0.396,0.316,0.712,0.712,0.712c0.369,0,0.686-0.317,0.686-0.712c0-0.369-0.317-0.686-0.686-0.686
		C2.182,5.645,1.866,5.962,1.866,6.331z M2.934,6.331c0,0.224-0.158,0.383-0.356,0.383c-0.211,0-0.383-0.158-0.383-0.383
		c0-0.198,0.171-0.356,0.383-0.356C2.776,5.975,2.934,6.133,2.934,6.331z M11.152,4.761c0,1.886-1.53,3.417-3.417,3.417
		s-3.43-1.53-3.43-3.417s1.543-3.43,3.43-3.43S11.152,2.875,11.152,4.761z M6.865,13.692c0,0.541-0.422,0.976-0.963,0.976
		s-0.989-0.435-0.989-0.976c0-0.541,0.449-0.976,0.989-0.976S6.865,13.151,6.865,13.692z M5.361,13.692
		c0,0.303,0.251,0.528,0.541,0.528c0.29,0,0.528-0.224,0.528-0.528c0-0.29-0.237-0.541-0.528-0.541
		C5.612,13.151,5.361,13.402,5.361,13.692z M5.863,4.761c0,1.016,0.844,1.847,1.873,1.847s1.86-0.831,1.86-1.847
		c0-1.029-0.831-1.873-1.86-1.873S5.863,3.733,5.863,4.761z M12.538,11.502c0,1.557-1.253,2.823-2.823,2.823
		c-1.557,0-2.81-1.266-2.81-2.823c0-1.57,1.253-2.836,2.81-2.836C11.284,8.666,12.538,9.933,12.538,11.502z M8.25,11.502
		c0,0.805,0.646,1.477,1.464,1.477c0.831,0,1.477-0.673,1.477-1.477c0-0.818-0.646-1.477-1.477-1.477
		C8.897,10.025,8.25,10.684,8.25,11.502z M10.506,11.502c0,0.422-0.343,0.778-0.791,0.778c-0.435,0-0.778-0.356-0.778-0.778
		c0-0.449,0.343-0.805,0.778-0.805C10.163,10.698,10.506,11.054,10.506,11.502z M14.754,7.413c0,0.976-0.765,1.754-1.741,1.754
		c-0.963,0-1.754-0.778-1.754-1.754c0-0.963,0.791-1.754,1.754-1.754C13.989,5.659,14.754,6.45,14.754,7.413z M14.477,10.355
		c0,0.369-0.317,0.686-0.712,0.686c-0.369,0-0.686-0.317-0.686-0.686c0-0.396,0.317-0.712,0.686-0.712
		C14.16,9.642,14.477,9.959,14.477,10.355z"/>
</g>
</svg>
