<?xml version="1.0" encoding="iso-8859-1"?>
<!-- Generator: Adobe Illustrator 17.1.0, SVG Export Plug-In . SVG Version: 6.00 Build 0)  -->
<!DOCTYPE svg PUBLIC "-//W3C//DTD SVG 1.1//EN" "http://www.w3.org/Graphics/SVG/1.1/DTD/svg11.dtd">
<svg version="1.1" id="Layer_1" xmlns="http://www.w3.org/2000/svg" xmlns:xlink="http://www.w3.org/1999/xlink" x="0px" y="0px"
	 viewBox="-7.5 16.5 16 16" style="enable-background:new -7.5 16.5 16 16;" xml:space="preserve">
<path d="M0.5,16.5c-1.654,0-3,1.346-3,3V21c0,1.654,1.346,3,3,3s3-1.346,3-3v-1.5C3.5,17.846,2.154,16.5,0.5,16.5z"/>
<path d="M6.085,26.329C5.957,26.265,2.899,24.75,0.5,24.75s-5.457,1.515-5.585,1.579C-5.34,26.456-5.5,26.716-5.5,27v4.75
	c0,0.414,0.336,0.75,0.75,0.75h10.5c0.414,0,0.75-0.336,0.75-0.75V27C6.5,26.716,6.34,26.456,6.085,26.329z M3.195,27.566
	l-2.928,3.659c-0.13,0.163-0.323,0.262-0.531,0.274C-0.277,31.5-0.291,31.5-0.304,31.5c-0.194,0-0.38-0.077-0.518-0.214
	l-1.464-1.464c-0.143-0.143-0.215-0.33-0.214-0.518c0-0.187,0.071-0.374,0.214-0.517c0.143-0.143,0.331-0.215,0.518-0.214
	c0.187,0,0.374,0.072,0.517,0.214l0.886,0.886l2.417-3.021c0.145-0.181,0.357-0.275,0.572-0.275c0.161,0,0.322,0.053,0.457,0.161
	c0.181,0.144,0.275,0.357,0.275,0.572C3.355,27.269,3.303,27.431,3.195,27.566z"/>
</svg>
