<?xml version="1.0" encoding="iso-8859-1"?>
<!-- Generator: Adobe Illustrator 17.1.0, SVG Export Plug-In . SVG Version: 6.00 Build 0)  -->
<!DOCTYPE svg PUBLIC "-//W3C//DTD SVG 1.1//EN" "http://www.w3.org/Graphics/SVG/1.1/DTD/svg11.dtd">
<svg version="1.1" id="Layer_1" xmlns="http://www.w3.org/2000/svg" xmlns:xlink="http://www.w3.org/1999/xlink" x="0px" y="0px"
	 viewBox="0 0 16 16" style="enable-background:new 0 0 16 16;" xml:space="preserve">
<g>
	<path d="M13.982,3H3C2.448,3,2,3.448,2,4s0.448,1,1,1h10.982c0.553,0,1-0.448,1-1S14.535,3,13.982,3z"/>
	<path d="M3,9h7.982c0.553,0,1-0.447,1-1c0-0.552-0.447-1-1-1H3C2.448,7,2,7.448,2,8C2,8.553,2.448,9,3,9z"/>
	<path d="M12.982,11H3c-0.552,0-1,0.447-1,1s0.448,1,1,1h9.982c0.553,0,1-0.447,1-1S13.535,11,12.982,11z"/>
</g>
</svg>
