<?xml version="1.0" encoding="iso-8859-1"?>
<!-- Generator: Adobe Illustrator 17.1.0, SVG Export Plug-In . SVG Version: 6.00 Build 0)  -->
<!DOCTYPE svg PUBLIC "-//W3C//DTD SVG 1.1//EN" "http://www.w3.org/Graphics/SVG/1.1/DTD/svg11.dtd">
<svg version="1.1" id="Layer_1" xmlns="http://www.w3.org/2000/svg" xmlns:xlink="http://www.w3.org/1999/xlink" x="0px" y="0px"
	 viewBox="-7.5 16.5 16 16" style="enable-background:new -7.5 16.5 16 16;" xml:space="preserve">
<g>
	<path d="M-4.594,31.496c-1.052,0-1.906-0.853-1.906-1.905c0-1.053,0.853-1.906,1.906-1.906c1.052,0,1.906,0.853,1.906,1.906
		C-2.688,30.644-3.542,31.496-4.594,31.496z M0.185,31.5c-0.018-1.773-0.71-3.435-1.957-4.688c-1.262-1.268-2.94-1.965-4.726-1.965
		v-2.752c5.18,0,9.396,4.213,9.434,9.405H0.185z M5.046,31.5c-0.039-6.365-5.2-11.531-11.54-11.531v-2.751
		c7.857,0,14.252,6.4,14.291,14.282H5.046z"/>
</g>
</svg>
