<?xml version="1.0" encoding="iso-8859-1"?>
<!-- Generator: Adobe Illustrator 17.1.0, SVG Export Plug-In . SVG Version: 6.00 Build 0)  -->
<!DOCTYPE svg PUBLIC "-//W3C//DTD SVG 1.1//EN" "http://www.w3.org/Graphics/SVG/1.1/DTD/svg11.dtd">
<svg version="1.1" id="Layer_1" xmlns="http://www.w3.org/2000/svg" xmlns:xlink="http://www.w3.org/1999/xlink" x="0px" y="0px"
	 viewBox="-7.5 16.5 16 16" style="enable-background:new -7.5 16.5 16 16;" xml:space="preserve">
<path d="M0.5,17.5c-2.761,0-5,2.239-5,5c0,0.356,0.04,0.703,0.111,1.038c0.116,0.55,0.336,1.058,0.617,1.525l3.252,5.545
	c0.561,0.946,1.479,0.946,2.041,0l3.252-5.545c0.281-0.467,0.5-0.975,0.617-1.525C5.46,23.203,5.5,22.856,5.5,22.5
	C5.5,19.739,3.261,17.5,0.5,17.5z M0.5,26C-1.433,26-3,24.433-3,22.5S-1.433,19,0.5,19S4,20.567,4,22.5S2.433,26,0.5,26z"/>
<circle cx="0.5" cy="22.5" r="2"/>
</svg>
