<?xml version="1.0" encoding="utf-8"?>
<!-- Generator: Adobe Illustrator 19.1.0, SVG Export Plug-In . SVG Version: 6.00 Build 0)  -->
<svg version="1.1" id="Layer_1" xmlns="http://www.w3.org/2000/svg" xmlns:xlink="http://www.w3.org/1999/xlink" x="0px" y="0px"
	 viewBox="-7.5 16.5 16 16" enable-background="new -7.5 16.5 16 16" xml:space="preserve">
<g>
	<path d="M1.5,30.5h-7v-7h2v-2h-2c-1.105,0-2,0.895-2,2v7c0,1.105,0.895,2,2,2h7c1.105,0,2-0.895,2-2v-2h-2V30.5z"/>
	<path d="M6.5,16.5h-7c-1.105,0-2,0.895-2,2v7c0,1.105,0.895,2,2,2h7c1.105,0,2-0.895,2-2v-7C8.5,17.395,7.605,16.5,6.5,16.5z
		 M6.5,25.5h-7v-7h7V25.5z"/>
</g>
</svg>
