<?xml version="1.0" encoding="iso-8859-1"?>
<!-- Generator: Adobe Illustrator 17.1.0, SVG Export Plug-In . SVG Version: 6.00 Build 0)  -->
<!DOCTYPE svg PUBLIC "-//W3C//DTD SVG 1.1//EN" "http://www.w3.org/Graphics/SVG/1.1/DTD/svg11.dtd">
<svg version="1.1" id="Layer_1" xmlns="http://www.w3.org/2000/svg" xmlns:xlink="http://www.w3.org/1999/xlink" x="0px" y="0px"
	 viewBox="-7.5 16.5 16 16" style="enable-background:new -7.5 16.5 16 16;" xml:space="preserve">
<g>
	<path d="M-0.76,20.759c-0.538,0.065-1.046,0.215-1.508,0.447c-0.461,0.231-0.862,0.527-1.193,0.88
		c-0.331,0.351-0.593,0.764-0.775,1.227c-0.183,0.462-0.266,0.964-0.248,1.487v3.494c0,0.114,0.1,0.206,0.224,0.206h3.53
		c0.123,0,0.223-0.092,0.223-0.206v-3.515c0-0.115-0.1-0.206-0.223-0.206h-1.41c0.023-0.436,0.13-0.813,0.314-1.123
		c0.203-0.339,0.596-0.603,1.169-0.783c0.089-0.028,0.152-0.106,0.152-0.194v-1.508c0-0.06-0.028-0.116-0.076-0.155
		C-0.632,20.771-0.697,20.753-0.76,20.759z"/>
</g>
<g>
	<path d="M5.245,20.759c-0.538,0.065-1.046,0.215-1.508,0.447c-0.461,0.231-0.862,0.527-1.193,0.88
		c-0.331,0.351-0.593,0.764-0.775,1.227c-0.183,0.462-0.266,0.964-0.248,1.487v3.494c0,0.114,0.1,0.206,0.224,0.206h3.53
		c0.123,0,0.223-0.092,0.223-0.206v-3.515c0-0.115-0.1-0.206-0.223-0.206h-1.41c0.023-0.436,0.13-0.813,0.314-1.123
		c0.203-0.339,0.596-0.603,1.169-0.783C5.437,22.639,5.5,22.561,5.5,22.473v-1.508c0-0.06-0.028-0.116-0.076-0.155
		C5.374,20.771,5.308,20.753,5.245,20.759z"/>
</g>
</svg>
