<?xml version="1.0" encoding="iso-8859-1"?>
<!-- Generator: Adobe Illustrator 17.1.0, SVG Export Plug-In . SVG Version: 6.00 Build 0)  -->
<!DOCTYPE svg PUBLIC "-//W3C//DTD SVG 1.1//EN" "http://www.w3.org/Graphics/SVG/1.1/DTD/svg11.dtd">
<svg version="1.1" id="Layer_1" xmlns="http://www.w3.org/2000/svg" xmlns:xlink="http://www.w3.org/1999/xlink" x="0px" y="0px"
	 viewBox="-7.5 16.5 16 16" style="enable-background:new -7.5 16.5 16 16;" xml:space="preserve">
<path d="M8.5,26.5c0,1.105-0.895,2-2,2h-12c-1.105,0-2-0.895-2-2v-8c0-1.105,0.895-2,2-2h12c1.105,0,2,0.895,2,2V26.5z M6.5,18.5
	h-12v8h12V18.5z"/>
<path d="M5.5,29.5h-10c-0.552,0-1,0.448-1,1v1c0,0.552,0.448,1,1,1h10c0.552,0,1-0.448,1-1v-1C6.5,29.948,6.052,29.5,5.5,29.5z
	 M5.5,31.5h-10v-1h10V31.5z"/>
<path d="M0.5,29.5c-1.657,0-3-0.895-3-2h-1c0,1.657,1.791,3,4,3c2.209,0,4-1.343,4-3h-1C3.5,28.605,2.157,29.5,0.5,29.5z"/>
<path d="M1.5,21.5v-2h-6v4h3v2h7v-4H1.5z M-1.5,22.5h-2v-2h4v1h-2V22.5z M4.5,24.5h-5v-2h5V24.5z"/>
</svg>
