<?xml version="1.0" encoding="iso-8859-1"?>
<!-- Generator: Adobe Illustrator 17.1.0, SVG Export Plug-In . SVG Version: 6.00 Build 0)  -->
<!DOCTYPE svg PUBLIC "-//W3C//DTD SVG 1.1//EN" "http://www.w3.org/Graphics/SVG/1.1/DTD/svg11.dtd">
<svg version="1.1" id="Layer_1" xmlns="http://www.w3.org/2000/svg" xmlns:xlink="http://www.w3.org/1999/xlink" x="0px" y="0px"
	 viewBox="-7.5 16.5 16 16" style="enable-background:new -7.5 16.5 16 16;" xml:space="preserve">
<polyline style="fill:none;stroke:#000000;stroke-width:1.5;stroke-linecap:round;stroke-linejoin:round;stroke-miterlimit:10;" points="
	3.76,27.24 -0.5,30.5 -0.5,27.25 "/>
<path d="M5,16.5c1.933,0,3.5,1.567,3.5,3.5S6.933,23.5,5,23.5S1.5,21.933,1.5,20S3.067,16.5,5,16.5z M2.5,20
	c0,1.381,1.119,2.5,2.5,2.5s2.5-1.119,2.5-2.5S6.381,17.5,5,17.5S2.5,18.619,2.5,20z"/>
<path d="M6.061,20.354c0.195,0.195,0.195,0.512,0,0.707l0,0c-0.195,0.195-0.512,0.195-0.707,0l-1.414-1.414
	c-0.195-0.195-0.195-0.512,0-0.707l0,0c0.195-0.195,0.512-0.195,0.707,0L6.061,20.354z"/>
<path d="M6.061,18.939c0.195,0.195,0.195,0.512,0,0.707l-1.414,1.414c-0.195,0.195-0.512,0.195-0.707,0l0,0
	c-0.195-0.195-0.195-0.512,0-0.707l1.414-1.414C5.549,18.744,5.865,18.744,6.061,18.939L6.061,18.939z"/>
<g>
	<path d="M-4.5,20.5h7.05C2.518,20.338,2.5,20.171,2.5,20c0-0.565,0.195-1.081,0.511-1.5H-4.5c-1.103,0-2,0.897-2,2v6
		c0,1.103,0.897,2,2,2h4v-2h-4V20.5z"/>
	<path d="M5.5,22.45v4.05H3.833l-1.729,2H5.5c1.103,0,2-0.897,2-2v-6c0-0.085-0.015-0.167-0.025-0.25
		C7.364,21.345,6.56,22.234,5.5,22.45z"/>
</g>
</svg>
