<?xml version="1.0" encoding="iso-8859-1"?>
<!-- Generator: Adobe Illustrator 17.1.0, SVG Export Plug-In . SVG Version: 6.00 Build 0)  -->
<!DOCTYPE svg PUBLIC "-//W3C//DTD SVG 1.1//EN" "http://www.w3.org/Graphics/SVG/1.1/DTD/svg11.dtd">
<svg version="1.1" id="Layer_1" xmlns="http://www.w3.org/2000/svg" xmlns:xlink="http://www.w3.org/1999/xlink" x="0px" y="0px"
	 viewBox="0 0 16 16" style="enable-background:new 0 0 16 16;" xml:space="preserve">
<path d="M1,8c0,3.866,3.134,7,7,7s7-3.134,7-7s-3.134-7-7-7S1,4.134,1,8z M10.293,6.293c0.391-0.391,1.023-0.391,1.414,0
	C11.902,6.488,12,6.744,12,7s-0.098,0.512-0.293,0.707l-3,3c-0.391,0.391-1.023,0.391-1.414,0l-3-3
	c-0.391-0.391-0.391-1.023,0-1.414c0.39-0.391,1.023-0.391,1.414,0L8,8.586L10.293,6.293z"/>
</svg>
