<?xml version="1.0" encoding="iso-8859-1"?>
<!-- Generator: Adobe Illustrator 17.1.0, SVG Export Plug-In . SVG Version: 6.00 Build 0)  -->
<!DOCTYPE svg PUBLIC "-//W3C//DTD SVG 1.1//EN" "http://www.w3.org/Graphics/SVG/1.1/DTD/svg11.dtd">
<svg version="1.1" id="Layer_1" xmlns="http://www.w3.org/2000/svg" xmlns:xlink="http://www.w3.org/1999/xlink" x="0px" y="0px"
	 viewBox="-7.5 16.5 16 16" style="enable-background:new -7.5 16.5 16 16;" xml:space="preserve">
<path d="M-2.5,23.5h-2v-4h7v2h2v-2c0-1.103-0.897-2-2-2h-7c-1.103,0-2,0.897-2,2v4c0,1.103,0.897,2,2,2h2V23.5z"/>
<polyline style="fill:none;stroke:#000000;stroke-width:1.5;stroke-linecap:round;stroke-linejoin:round;stroke-miterlimit:10;" points="
	4.76,28.24 0.5,31.5 0.5,28.25 "/>
<path d="M6.5,21.5h-8c-1.103,0-2,0.897-2,2v4c0,1.103,0.897,2,2,2h2v-2h-2v-4h8v4H4.833l-1.729,2H6.5c1.103,0,2-0.897,2-2v-4
	C8.5,22.397,7.603,21.5,6.5,21.5z"/>
</svg>
