<?xml version="1.0" encoding="iso-8859-1"?>
<!-- Generator: Adobe Illustrator 17.1.0, SVG Export Plug-In . SVG Version: 6.00 Build 0)  -->
<!DOCTYPE svg PUBLIC "-//W3C//DTD SVG 1.1//EN" "http://www.w3.org/Graphics/SVG/1.1/DTD/svg11.dtd">
<svg version="1.1" id="Layer_1" xmlns="http://www.w3.org/2000/svg" xmlns:xlink="http://www.w3.org/1999/xlink" x="0px" y="0px"
	 viewBox="-7.5 16.5 16 16" style="enable-background:new -7.5 16.5 16 16;" xml:space="preserve">
<polyline style="fill:none;stroke:#000000;stroke-width:1.5;stroke-linecap:round;stroke-linejoin:round;stroke-miterlimit:10;" points="
	3.76,27.24 -0.5,30.5 -0.5,27.25 "/>
<g>
	<path d="M-4.5,20.5h3.125l0.875-2h-4c-1.103,0-2,0.897-2,2v6c0,1.103,0.897,2,2,2h4v-2h-4V20.5z"/>
	<path d="M5.5,18.5v2v2v4H3.833l-1.729,2H5.5c1.103,0,2-0.897,2-2v-6C7.5,19.397,6.603,18.5,5.5,18.5z"/>
</g>
<polygon style="stroke:#000000;stroke-width:0.5;stroke-linecap:round;stroke-linejoin:round;stroke-miterlimit:10;" points="
	1.608,18.036 0.224,21.32 2.069,21.32 0.685,24.604 4.375,20.382 2.53,20.382 3.914,18.036 "/>
</svg>
