<?xml version="1.0" encoding="iso-8859-1"?>
<!-- Generator: Adobe Illustrator 19.1.0, SVG Export Plug-In . SVG Version: 6.00 Build 0)  -->
<svg version="1.1" id="Layer_1" xmlns="http://www.w3.org/2000/svg" xmlns:xlink="http://www.w3.org/1999/xlink" x="0px" y="0px"
	 viewBox="0 0 10 10" style="enable-background:new 0 0 10 10;" xml:space="preserve">
<g>
	<path id="Exclamation_Point_2_x2C__Caution_2_x2C__Warning_2_11_" d="M5,1c2.206,0,4,1.794,4,4S7.206,9,5,9S1,7.206,1,5
		S2.794,1,5,1 M5,0C2.239,0,0,2.239,0,5s2.239,5,5,5s5-2.239,5-5S7.761,0,5,0L5,0z"/>
	<path style="fill-rule:evenodd;clip-rule:evenodd;" d="M5.625,7.812c0,0.173-0.14,0.312-0.312,0.312H4.688
		c-0.173,0-0.312-0.14-0.312-0.312V7.188c0-0.173,0.14-0.312,0.312-0.312h0.625c0.173,0,0.312,0.14,0.312,0.312V7.812z"/>
	<path style="fill-rule:evenodd;clip-rule:evenodd;" d="M5.625,5.938c0,0.173-0.14,0.312-0.312,0.312H4.688
		c-0.173,0-0.312-0.14-0.312-0.312v-3.75c0-0.173,0.14-0.312,0.312-0.312h0.625c0.173,0,0.312,0.14,0.312,0.312V5.938z"/>
</g>
</svg>
