<?xml version="1.0" encoding="iso-8859-1"?>
<!-- Generator: Adobe Illustrator 17.1.0, SVG Export Plug-In . SVG Version: 6.00 Build 0)  -->
<!DOCTYPE svg PUBLIC "-//W3C//DTD SVG 1.1//EN" "http://www.w3.org/Graphics/SVG/1.1/DTD/svg11.dtd">
<svg version="1.1" id="Layer_1" xmlns="http://www.w3.org/2000/svg" xmlns:xlink="http://www.w3.org/1999/xlink" x="0px" y="0px"
	 viewBox="-7.5 16.5 16 16" style="enable-background:new -7.5 16.5 16 16;" xml:space="preserve">
<path d="M6.5,16.5h-12c-1.105,0-2,0.895-2,2v12c0,1.105,0.895,2,2,2h12c1.105,0,2-0.895,2-2v-12C8.5,17.395,7.605,16.5,6.5,16.5z
	 M-1.5,26.5v-4h4v4H-1.5z M2.5,27.5v3h-4v-3H2.5z M-5.5,22.5h3v4h-3V22.5z M-1.5,21.5v-3h4v3H-1.5z M3.5,22.5h3v4h-3V22.5z
	 M6.5,21.5h-3v-3h3V21.5z M-2.5,18.5v3h-3v-3H-2.5z M-5.5,27.5h3v3h-3V27.5z M3.5,30.5v-3h3v3H3.5z"/>
</svg>
