<?xml version="1.0" encoding="iso-8859-1"?>
<!-- Generator: Adobe Illustrator 17.1.0, SVG Export Plug-In . SVG Version: 6.00 Build 0)  -->
<!DOCTYPE svg PUBLIC "-//W3C//DTD SVG 1.1//EN" "http://www.w3.org/Graphics/SVG/1.1/DTD/svg11.dtd">
<svg version="1.1" id="Layer_1" xmlns="http://www.w3.org/2000/svg" xmlns:xlink="http://www.w3.org/1999/xlink" x="0px" y="0px"
	 viewBox="-7.5 16.5 16 16" style="enable-background:new -7.5 16.5 16 16;" xml:space="preserve">
<g>
	
		<polygon style="fill:none;stroke:#000000;stroke-width:0.5;stroke-linecap:round;stroke-linejoin:round;stroke-miterlimit:10;" points="
		-5.5,17.5 -5.5,20.5 -3.5,20.5 -3.5,18.5 -4.5,17.5 	"/>
	<path d="M-4.5,17.5l1,1v2h-2v-3H-4.5 M-4.5,17h-1C-5.776,17-6,17.224-6,17.5v3c0,0.276,0.224,0.5,0.5,0.5h2
		c0.276,0,0.5-0.224,0.5-0.5v-2c0-0.133-0.053-0.26-0.146-0.354l-1-1C-4.24,17.053-4.367,17-4.5,17L-4.5,17z"/>
</g>
<g>
	
		<polygon style="fill:none;stroke:#000000;stroke-width:0.5;stroke-linecap:round;stroke-linejoin:round;stroke-miterlimit:10;" points="
		-5.5,23 -5.5,26 -3.5,26 -3.5,24 -4.5,23 	"/>
	<path d="M-4.5,23l1,1v2h-2v-3H-4.5 M-4.5,22.5h-1C-5.776,22.5-6,22.724-6,23v3c0,0.276,0.224,0.5,0.5,0.5h2
		c0.276,0,0.5-0.224,0.5-0.5v-2c0-0.133-0.053-0.26-0.146-0.354l-1-1C-4.24,22.553-4.367,22.5-4.5,22.5L-4.5,22.5z"/>
</g>
<g>
	
		<polygon style="fill:none;stroke:#000000;stroke-width:0.5;stroke-linecap:round;stroke-linejoin:round;stroke-miterlimit:10;" points="
		-5.5,28.5 -5.5,31.5 -3.5,31.5 -3.5,29.5 -4.5,28.5 	"/>
	<path d="M-4.5,28.5l1,1v2h-2v-3H-4.5 M-4.5,28h-1C-5.776,28-6,28.224-6,28.5v3c0,0.276,0.224,0.5,0.5,0.5h2
		c0.276,0,0.5-0.224,0.5-0.5v-2c0-0.133-0.053-0.26-0.146-0.354l-1-1C-4.24,28.053-4.367,28-4.5,28L-4.5,28z"/>
</g>
<line style="fill:none;stroke:#000000;stroke-width:2;stroke-linecap:round;stroke-linejoin:round;stroke-miterlimit:10;" x1="-0.5" y1="19" x2="6.5" y2="19"/>
<line style="fill:none;stroke:#000000;stroke-width:2;stroke-linecap:round;stroke-linejoin:round;stroke-miterlimit:10;" x1="-0.5" y1="24.5" x2="6.5" y2="24.5"/>
<line style="fill:none;stroke:#000000;stroke-width:2;stroke-linecap:round;stroke-linejoin:round;stroke-miterlimit:10;" x1="-0.5" y1="30" x2="6.5" y2="30"/>
</svg>
