<?xml version="1.0" encoding="iso-8859-1"?>
<!-- Generator: Adobe Illustrator 17.1.0, SVG Export Plug-In . SVG Version: 6.00 Build 0)  -->
<!DOCTYPE svg PUBLIC "-//W3C//DTD SVG 1.1//EN" "http://www.w3.org/Graphics/SVG/1.1/DTD/svg11.dtd">
<svg version="1.1" id="Layer_1" xmlns="http://www.w3.org/2000/svg" xmlns:xlink="http://www.w3.org/1999/xlink" x="0px" y="0px"
	 viewBox="-7.5 16.5 16 16" style="enable-background:new -7.5 16.5 16 16;" xml:space="preserve">
<g>
	<path d="M6.706,19.764l-1.615-1.667c-0.821-0.848-2.153-0.848-2.975,0l-2.353,2.427c-0.779,0.803-0.818,2.079-0.121,2.932
		l1.133-1.171c-0.089-0.2-0.057-0.446,0.104-0.61l2.352-2.427c0.205-0.211,0.539-0.211,0.744,0l1.615,1.667
		c0.205,0.212,0.205,0.556,0,0.767L3.237,24.11c-0.164,0.169-0.41,0.2-0.606,0.099l-1.13,1.166c0.826,0.73,2.07,0.693,2.853-0.113
		l2.352-2.427C7.528,21.986,7.528,20.612,6.706,19.764z"/>
	<path d="M0.217,26.699c0.099,0.203,0.069,0.457-0.096,0.626l-2.353,2.427c-0.205,0.212-0.539,0.212-0.743,0l-1.616-1.667
		c-0.204-0.212-0.204-0.556,0-0.767l2.353-2.427c0.159-0.165,0.397-0.199,0.592-0.107l1.132-1.171
		c-0.826-0.719-2.062-0.678-2.84,0.125l-2.353,2.427c-0.821,0.848-0.821,2.222,0,3.07l1.615,1.667c0.823,0.848,2.154,0.848,2.975,0
		l2.353-2.427c0.782-0.807,0.818-2.09,0.111-2.944L0.217,26.699z"/>
	<path d="M-2.441,27.521c0.308,0.318,0.808,0.318,1.116-0.001l4.814-4.966c0.309-0.318,0.309-0.833,0-1.151
		s-0.808-0.318-1.116-0.001l-4.814,4.967C-2.749,26.688-2.75,27.204-2.441,27.521z"/>
</g>
</svg>
