<?xml version="1.0" encoding="iso-8859-1"?>
<!-- Generator: Adobe Illustrator 17.1.0, SVG Export Plug-In . SVG Version: 6.00 Build 0)  -->
<!DOCTYPE svg PUBLIC "-//W3C//DTD SVG 1.1//EN" "http://www.w3.org/Graphics/SVG/1.1/DTD/svg11.dtd">
<svg version="1.1" id="Layer_1" xmlns="http://www.w3.org/2000/svg" xmlns:xlink="http://www.w3.org/1999/xlink" x="0px" y="0px"
	 viewBox="-7.5 16.5 16 16" style="enable-background:new -7.5 16.5 16 16;" xml:space="preserve">
<path d="M4.578,17.157c-0.836,0-3.62,0.312-4.972,4.242h-1.13c-0.179,0-0.333,0.127-0.368,0.303l-0.089,0.453
	c-0.021,0.11,0.007,0.224,0.079,0.311s0.177,0.137,0.29,0.137h0.903c-0.314,1.313-0.796,3.73-1.006,4.934
	c-0.528,2.967-0.901,2.997-1.22,3.047c-0.006-0.138-0.005-0.398-0.005-0.4c0-0.821-0.427-1.65-1.38-1.65
	c-0.904,0-1.535,0.648-1.535,1.577c0,1.036,0.906,1.732,2.255,1.732c1.651,0,3.211-1.244,4.174-3.332
	c0.732-1.63,1.405-4.13,1.789-5.907h1.328c0.169,0,0.317-0.113,0.362-0.275l0.125-0.453c0.031-0.113,0.007-0.234-0.063-0.327
	s-0.181-0.147-0.298-0.147H2.638c0.221-0.954,0.454-1.865,0.698-2.354c0.23-0.456,0.436-0.62,0.647-0.673
	c-0.068,0.195-0.097,0.382-0.097,0.597c0,0.798,0.6,1.334,1.493,1.334c0.882,0,1.475-0.609,1.475-1.517
	C6.851,17.728,5.68,17.157,4.578,17.157z"/>
</svg>
