<?xml version="1.0" encoding="iso-8859-1"?>
<!-- Generator: Adobe Illustrator 17.1.0, SVG Export Plug-In . SVG Version: 6.00 Build 0)  -->
<!DOCTYPE svg PUBLIC "-//W3C//DTD SVG 1.1//EN" "http://www.w3.org/Graphics/SVG/1.1/DTD/svg11.dtd">
<svg version="1.1" id="Layer_3" xmlns="http://www.w3.org/2000/svg" xmlns:xlink="http://www.w3.org/1999/xlink" x="0px" y="0px"
	 viewBox="-7.5 16.5 16 16" style="enable-background:new -7.5 16.5 16 16;" xml:space="preserve">
<path d="M4.891,26.663c0,0.179-0.095,0.344-0.25,0.433L0.75,29.343c-0.077,0.045-0.164,0.067-0.25,0.067s-0.173-0.022-0.25-0.067
	l-3.891-2.246c-0.155-0.089-0.25-0.254-0.25-0.433V22.17c0-0.179,0.095-0.344,0.25-0.433l3.891-2.246
	c0.077-0.045,0.164-0.067,0.25-0.067s0.173,0.022,0.25,0.067l3.891,2.246c0.155,0.089,0.25,0.254,0.25,0.433V26.663z M-3.036,22.086
	c-0.118-0.067-0.272-0.027-0.341,0.092c-0.069,0.119-0.028,0.272,0.091,0.342l3.911,2.258v4.06l3.766-2.174v-4.349l-3.515,2.03
	L-3.036,22.086z M2.781,23.952c0.459-0.265,0.779-0.287,0.954-0.267c0.117,0.016,0.125,0.123,0.05,0.287l-0.104,0.232
	c-0.079,0.175-0.183,0.247-0.312,0.242c-0.138,0-0.333,0.025-0.555,0.153c-0.596,0.344-0.842,0.907-0.842,1.336
	c0,0.442,0.267,0.742,0.842,0.41c0.25-0.145,0.467-0.382,0.609-0.565c0.125-0.159,0.233-0.218,0.321-0.144l0.116,0.096
	c0.079,0.071,0.075,0.191-0.037,0.343c-0.188,0.254-0.538,0.665-1.042,0.956c-0.958,0.553-1.563,0.24-1.563-0.645
	C1.218,25.521,1.86,24.484,2.781,23.952z M-1.755,22.039l0.239,0.138c0.116,0.067,0.25,0.072,0.411,0.017l0.542-0.188l0.805,0.465
	l-0.326,0.313c-0.093,0.096-0.083,0.173,0.033,0.24l0.238,0.137c0.145,0.084,0.314,0.061,0.425-0.057l1.782-1.892
	c0.094-0.096,0.08-0.171-0.036-0.238l-0.325-0.188c-0.115-0.067-0.245-0.075-0.411-0.02l-3.277,1.029
	C-1.861,21.858-1.9,21.956-1.755,22.039z M0.896,21.505c0.234-0.081,0.616-0.235,0.616-0.235l0.007,0.004
	c0,0-0.267,0.221-0.407,0.356l-0.435,0.418l-0.509-0.294L0.896,21.505z M-1.109,26.309c0.225,0.001,0.346-0.183,0.346-0.433
	c0-0.513-0.416-1.02-1.013-1.364l-0.867-0.5c-0.15-0.086-0.229-0.053-0.229,0.097v2.521c0,0.151,0.079,0.275,0.229,0.362l0.867,0.5
	c0.592,0.342,1.134,0.417,1.134-0.233c0-0.262-0.125-0.639-0.467-0.941V26.309z M-2.142,24.926l0.362,0.209
	c0.196,0.113,0.275,0.276,0.275,0.412c0,0.142-0.079,0.23-0.262,0.124l-0.375-0.216V24.926z M-1.705,26.907l-0.437-0.252v-0.617
	l0.442,0.255c0.213,0.123,0.313,0.318,0.313,0.484C-1.388,26.945-1.492,27.03-1.705,26.907z"/>
</svg>
