<?xml version="1.0" encoding="iso-8859-1"?>
<!-- Generator: Adobe Illustrator 17.1.0, SVG Export Plug-In . SVG Version: 6.00 Build 0)  -->
<!DOCTYPE svg PUBLIC "-//W3C//DTD SVG 1.1//EN" "http://www.w3.org/Graphics/SVG/1.1/DTD/svg11.dtd">
<svg version="1.1" id="Layer_1" xmlns="http://www.w3.org/2000/svg" xmlns:xlink="http://www.w3.org/1999/xlink" x="0px" y="0px"
	 viewBox="-7.5 16.5 16 16" style="enable-background:new -7.5 16.5 16 16;" xml:space="preserve">
<path style="fill:none;stroke:#000000;stroke-width:1.5;stroke-linecap:round;stroke-miterlimit:10;" d="M18.031,19.5v6.171
	c0,0.682,0.553,1.234,1.234,1.234c0.682,0,1.234-0.553,1.234-1.234V18.5c0-1.381-1.119-2.5-2.5-2.5s-2.5,1.119-2.5,2.5v8.701
	c0,2.084,1.689,3.773,3.773,3.773s3.773-1.689,3.773-3.773V18.5"/>
<g>
	<path d="M-1.687,31.634c-1.158,0-2.316-0.44-3.198-1.322c-1.764-1.764-1.764-4.633,0-6.396l6.152-6.152
		c1.267-1.269,3.328-1.268,4.596,0c0.614,0.614,0.952,1.431,0.952,2.298c0,0.868-0.338,1.685-0.952,2.298L0.793,27.43
		c-0.75,0.75-2.057,0.75-2.807,0c-0.375-0.375-0.581-0.873-0.581-1.403s0.207-1.028,0.581-1.402l4.364-4.364
		c0.293-0.293,0.768-0.293,1.061,0s0.293,0.768,0,1.061l-4.364,4.364c-0.091,0.092-0.142,0.213-0.142,0.342
		c0,0.13,0.05,0.251,0.142,0.343c0.182,0.183,0.5,0.183,0.684,0l5.071-5.071c0.331-0.33,0.512-0.77,0.512-1.237
		c0-0.467-0.182-0.906-0.512-1.237c-0.682-0.682-1.792-0.681-2.475,0l-6.152,6.152c-1.179,1.179-1.179,3.097,0,4.275
		c1.179,1.178,3.096,1.178,4.274,0l6.153-6.153c0.293-0.293,0.768-0.293,1.061,0s0.293,0.768,0,1.061l-6.153,6.153
		C0.629,31.193-0.529,31.634-1.687,31.634z"/>
</g>
<path style="fill:none;stroke:#000000;stroke-width:1.5;stroke-miterlimit:10;" d="M-17.5,15c0-1.381,1.119-2.5,2.5-2.5
	s2.5,1.119,2.5,2.5"/>
</svg>
