<?xml version="1.0" encoding="iso-8859-1"?>
<!-- Generator: Adobe Illustrator 17.1.0, SVG Export Plug-In . SVG Version: 6.00 Build 0)  -->
<!DOCTYPE svg PUBLIC "-//W3C//DTD SVG 1.1//EN" "http://www.w3.org/Graphics/SVG/1.1/DTD/svg11.dtd">
<svg version="1.1" id="Layer_1" xmlns="http://www.w3.org/2000/svg" xmlns:xlink="http://www.w3.org/1999/xlink" x="0px" y="0px"
	 viewBox="-7.5 16.5 16 16" style="enable-background:new -7.5 16.5 16 16;" xml:space="preserve">
<g>
	
		<polyline style="fill:none;stroke:#000000;stroke-width:1.5;stroke-linecap:round;stroke-linejoin:round;stroke-miterlimit:10;" points="
		4.5,26.24 1.24,28.5 1.24,26.247 	"/>
	<path d="M6.5,19.5h-8c-1.103,0-2,0.897-2,2v4c0,1.103,0.897,2,2,2h3v-2h-3v-4h8v4h-2l-1.729,2H6.5c1.103,0,2-0.897,2-2v-4
		C8.5,20.397,7.603,19.5,6.5,19.5z"/>
</g>
<path d="M3.5,29.5v1h-8v-12h4h1l3,3h1.928c-0.084-0.324-0.241-0.626-0.474-0.873l-3.25-3.5C1.326,16.727,0.8,16.5,0.25,16.5H-4.5
	c-1.105,0-2,0.895-2,2v12c0,1.105,0.895,2,2,2h8c1.105,0,2-0.895,2-2v-2L3.5,29.5z"/>
</svg>
