<?xml version="1.0" encoding="iso-8859-1"?>
<!-- Generator: Adobe Illustrator 17.1.0, SVG Export Plug-In . SVG Version: 6.00 Build 0)  -->
<!DOCTYPE svg PUBLIC "-//W3C//DTD SVG 1.1//EN" "http://www.w3.org/Graphics/SVG/1.1/DTD/svg11.dtd">
<svg version="1.1" id="Layer_1" xmlns="http://www.w3.org/2000/svg" xmlns:xlink="http://www.w3.org/1999/xlink" x="0px" y="0px"
	 viewBox="0 0 16 16" style="enable-background:new 0 0 16 16;" xml:space="preserve">
<path d="M1,8c0,3.866,3.134,7,7,7s7-3.134,7-7s-3.134-7-7-7S1,4.134,1,8z M8.586,8L6.293,5.707c-0.391-0.391-0.391-1.024,0-1.414
	c0.391-0.391,1.023-0.391,1.414,0l3,3c0.391,0.391,0.391,1.023,0,1.414l-3,3C7.512,11.902,7.256,12,7,12s-0.512-0.098-0.707-0.293
	c-0.391-0.391-0.391-1.023,0-1.414L8.586,8z"/>
</svg>
