<?xml version="1.0" encoding="iso-8859-1"?>
<!-- Generator: Adobe Illustrator 17.1.0, SVG Export Plug-In . SVG Version: 6.00 Build 0)  -->
<!DOCTYPE svg PUBLIC "-//W3C//DTD SVG 1.1//EN" "http://www.w3.org/Graphics/SVG/1.1/DTD/svg11.dtd">
<svg version="1.1" id="Layer_1" xmlns="http://www.w3.org/2000/svg" xmlns:xlink="http://www.w3.org/1999/xlink" x="0px" y="0px"
	 viewBox="-7.5 16.5 16 16" style="enable-background:new -7.5 16.5 16 16;" xml:space="preserve">
<path d="M0.5,29.219c-0.552,0-1-0.448-1-1c0-0.552,0.448-1,1-1s1,0.448,1,1C1.5,28.771,1.052,29.219,0.5,29.219z M1.664,25.38
	c-0.058,0.035-0.113,0.067-0.164,0.099v0.302c0,0.552-0.447,1-1,1s-1-0.448-1-1v-0.625c0-0.798,0.649-1.194,1.123-1.483
	c0.609-0.372,0.877-0.58,0.877-1.017c0-0.851-0.897-0.875-1-0.875c-0.167,0-1,0.042-1,0.875c0,0.552-0.447,1-1,1s-1-0.448-1-1
	c0-1.888,1.509-2.875,3-2.875c1.454,0,3,1.008,3,2.875C3.5,24.261,2.306,24.989,1.664,25.38z"/>
</svg>
