<?xml version="1.0" encoding="iso-8859-1"?>
<!-- Generator: Adobe Illustrator 17.1.0, SVG Export Plug-In . SVG Version: 6.00 Build 0)  -->
<!DOCTYPE svg PUBLIC "-//W3C//DTD SVG 1.1//EN" "http://www.w3.org/Graphics/SVG/1.1/DTD/svg11.dtd">
<svg version="1.1" id="Layer_1" xmlns="http://www.w3.org/2000/svg" xmlns:xlink="http://www.w3.org/1999/xlink" x="0px" y="0px"
	 viewBox="0 0 16 16" style="enable-background:new 0 0 16 16;" xml:space="preserve">
<g>
	<path d="M3,5h10c0.553,0,1-0.448,1-1s-0.447-1-1-1H3C2.448,3,2,3.448,2,4S2.448,5,3,5z"/>
	<path d="M11,7H5C4.448,7,4,7.448,4,8c0,0.553,0.448,1,1,1h6c0.553,0,1-0.447,1-1C12,7.448,11.553,7,11,7z"/>
	<path d="M12,11H4c-0.552,0-1,0.447-1,1s0.448,1,1,1h8c0.553,0,1-0.447,1-1S12.553,11,12,11z"/>
</g>
</svg>
