<?xml version="1.0" encoding="iso-8859-1"?>
<!-- Generator: Adobe Illustrator 17.1.0, SVG Export Plug-In . SVG Version: 6.00 Build 0)  -->
<!DOCTYPE svg PUBLIC "-//W3C//DTD SVG 1.1//EN" "http://www.w3.org/Graphics/SVG/1.1/DTD/svg11.dtd">
<svg version="1.1" id="Layer_1" xmlns="http://www.w3.org/2000/svg" xmlns:xlink="http://www.w3.org/1999/xlink" x="0px" y="0px"
	 viewBox="-7.5 16.5 16 16" style="enable-background:new -7.5 16.5 16 16;" xml:space="preserve">
<path d="M8.449,29.249l-4.032-9.404c-0.143-0.335-0.472-0.552-0.836-0.552s-0.693,0.217-0.836,0.552l-4.03,9.404
	c-0.198,0.462,0.016,0.997,0.478,1.194c0.461,0.199,0.997-0.016,1.195-0.478l0.848-1.978h4.692l0.848,1.978
	c0.147,0.346,0.483,0.551,0.836,0.551c0.12,0,0.242-0.023,0.359-0.074C8.432,30.246,8.646,29.711,8.449,29.249z M2.015,26.167
	l1.565-3.653l1.566,3.653H2.015z"/>
<path d="M-1.858,29.725l-2.275-5.309c-0.179-0.419-0.866-0.419-1.046,0l-2.275,5.309c-0.124,0.288,0.01,0.623,0.299,0.746
	c0.288,0.123,0.623-0.01,0.747-0.298l0.502-1.172h2.5l0.502,1.172c0.093,0.216,0.303,0.345,0.523,0.345
	c0.075,0,0.151-0.015,0.224-0.046C-1.868,30.348-1.734,30.014-1.858,29.725z M-5.418,27.863l0.763-1.779l0.763,1.779H-5.418z"/>
</svg>
