<?xml version="1.0" encoding="iso-8859-1"?>
<!-- Generator: Adobe Illustrator 17.1.0, SVG Export Plug-In . SVG Version: 6.00 Build 0)  -->
<!DOCTYPE svg PUBLIC "-//W3C//DTD SVG 1.1//EN" "http://www.w3.org/Graphics/SVG/1.1/DTD/svg11.dtd">
<svg version="1.1" id="Layer_1" xmlns="http://www.w3.org/2000/svg" xmlns:xlink="http://www.w3.org/1999/xlink" x="0px" y="0px"
	 viewBox="-7.5 16.5 16 16" style="enable-background:new -7.5 16.5 16 16;" xml:space="preserve">
<g>
	<path d="M-6.648,19.383C-7.216,19.969-7.5,20.677-7.5,21.505v6.002c0,0.829,0.284,1.536,0.852,2.122
		c0.568,0.586,1.254,0.879,2.057,0.879H5.591c0.803,0,1.489-0.293,2.057-0.879C8.216,29.043,8.5,28.336,8.5,27.508v-6.002
		c0-0.828-0.284-1.536-0.852-2.122c-0.568-0.586-1.254-0.879-2.057-0.879H-4.591C-5.394,18.504-6.08,18.797-6.648,19.383z
		 M5.523,23.123c0,0.454-0.129,0.836-0.386,1.149c0.667,0.5,1,1.165,1,1.993v1.243c0,0.156-0.053,0.289-0.159,0.399
		c-0.106,0.109-0.235,0.164-0.386,0.164H1.955c-0.152,0-0.281-0.055-0.386-0.164c-0.106-0.109-0.159-0.242-0.159-0.399v-1.243
		c0-0.828,0.333-1.493,1-1.993c-0.258-0.312-0.386-0.695-0.386-1.149c0-0.5,0.17-0.926,0.511-1.278s0.754-0.528,1.239-0.528
		c0.485,0,0.898,0.176,1.239,0.528C5.352,22.197,5.523,22.623,5.523,23.123L5.523,23.123z M-0.068,21.716
		c0.136,0.141,0.205,0.321,0.205,0.539c0,0.219-0.068,0.399-0.205,0.539c-0.136,0.141-0.311,0.211-0.523,0.211h-3.636
		c-0.212,0-0.386-0.07-0.523-0.211c-0.136-0.141-0.205-0.32-0.205-0.539c0-0.219,0.068-0.399,0.205-0.539
		c0.136-0.141,0.31-0.211,0.523-0.211h3.636C-0.379,21.505-0.205,21.576-0.068,21.716z M3.114,23.123
		c0,0.203,0.064,0.372,0.193,0.504c0.128,0.133,0.284,0.199,0.466,0.199s0.337-0.066,0.466-0.199
		c0.129-0.133,0.193-0.301,0.193-0.504c0-0.188-0.065-0.348-0.193-0.481c-0.129-0.133-0.284-0.199-0.466-0.199
		s-0.337,0.067-0.466,0.199C3.178,22.775,3.114,22.935,3.114,23.123L3.114,23.123z M0.136,25.257c0,0.25-0.121,0.375-0.364,0.375
		h-4.364c-0.242,0-0.364-0.125-0.364-0.375c0-0.25,0.121-0.375,0.364-0.375h4.364C0.015,24.882,0.136,25.007,0.136,25.257z
		 M2.5,26.265v0.68h2.545v-0.68c0-0.359-0.125-0.668-0.375-0.926c-0.25-0.258-0.549-0.387-0.898-0.387
		c-0.349,0-0.648,0.129-0.898,0.387C2.625,25.597,2.5,25.906,2.5,26.265L2.5,26.265z M-1.318,26.757c0,0.25-0.121,0.375-0.364,0.375
		h-2.909c-0.242,0-0.364-0.125-0.364-0.375c0-0.25,0.121-0.375,0.364-0.375h2.909C-1.44,26.382-1.318,26.507-1.318,26.757z"/>
</g>
</svg>
