<?xml version="1.0" encoding="iso-8859-1"?>
<!-- Generator: Adobe Illustrator 17.1.0, SVG Export Plug-In . SVG Version: 6.00 Build 0)  -->
<!DOCTYPE svg PUBLIC "-//W3C//DTD SVG 1.1//EN" "http://www.w3.org/Graphics/SVG/1.1/DTD/svg11.dtd">
<svg version="1.1" id="Layer_1" xmlns="http://www.w3.org/2000/svg" xmlns:xlink="http://www.w3.org/1999/xlink" x="0px" y="0px"
	 viewBox="-7.5 16.5 16 16" style="enable-background:new -7.5 16.5 16 16;" xml:space="preserve">
<path d="M3.5,20.5c-1.092,0-2.222,1.06-2.222,2.364v1.182c0,1.303,1.131,2.364,2.222,2.364s2.222-1.06,2.222-2.364v-1.182
	C5.722,21.56,4.592,20.5,3.5,20.5z"/>
<path d="M7.224,28.224C7.138,28.178,5.1,27.091,3.5,27.091c-0.491,0-1.02,0.107-1.525,0.251C2.303,27.639,2.5,28.064,2.5,28.526
	v1.382c0,0.21-0.042,0.409-0.115,0.592H7c0.276,0,0.5-0.241,0.5-0.538v-1.256C7.5,28.502,7.393,28.315,7.224,28.224z"/>
<g>
	<path d="M-3,19.5c-1.228,0-2.5,1.166-2.5,2.6v1.3c0,1.434,1.272,2.6,2.5,2.6s2.5-1.166,2.5-2.6v-1.3C-0.5,20.666-1.772,19.5-3,19.5
		z"/>
</g>
<g>
	<path d="M1.189,27.997C1.092,27.946-1.2,26.75-3,26.75s-4.092,1.196-4.189,1.247c-0.191,0.1-0.311,0.305-0.311,0.53v1.382
		c0,0.327,0.252,0.592,0.562,0.592h7.875c0.311,0,0.562-0.265,0.562-0.592v-1.382C1.5,28.302,1.38,28.097,1.189,27.997z"/>
</g>
</svg>
