<?xml version="1.0" encoding="iso-8859-1"?>
<!-- Generator: Adobe Illustrator 17.1.0, SVG Export Plug-In . SVG Version: 6.00 Build 0)  -->
<!DOCTYPE svg PUBLIC "-//W3C//DTD SVG 1.1//EN" "http://www.w3.org/Graphics/SVG/1.1/DTD/svg11.dtd">
<svg version="1.1" id="Layer_1" xmlns="http://www.w3.org/2000/svg" xmlns:xlink="http://www.w3.org/1999/xlink" x="0px" y="0px"
	 viewBox="-7.5 16.5 16 16" style="enable-background:new -7.5 16.5 16 16;" xml:space="preserve">
<path d="M0.5,16.5c-1.654,0-3,1.346-3,3V21c0,1.654,1.346,3,3,3s3-1.346,3-3v-1.5C3.5,17.846,2.154,16.5,0.5,16.5z"/>
<path d="M6.085,26.329C5.957,26.265,2.899,24.75,0.5,24.75s-5.457,1.515-5.585,1.579C-5.34,26.456-5.5,26.716-5.5,27v4.75
	c0,0.414,0.336,0.75,0.75,0.75h10.5c0.414,0,0.75-0.336,0.75-0.75V27C6.5,26.716,6.34,26.456,6.085,26.329z"/>
</svg>
