<?xml version="1.0" encoding="iso-8859-1"?>
<!-- Generator: Adobe Illustrator 17.1.0, SVG Export Plug-In . SVG Version: 6.00 Build 0)  -->
<!DOCTYPE svg PUBLIC "-//W3C//DTD SVG 1.1//EN" "http://www.w3.org/Graphics/SVG/1.1/DTD/svg11.dtd">
<svg version="1.1" id="Layer_1" xmlns="http://www.w3.org/2000/svg" xmlns:xlink="http://www.w3.org/1999/xlink" x="0px" y="0px"
	 viewBox="-7.5 16.5 16 16" style="enable-background:new -7.5 16.5 16 16;" xml:space="preserve">
<g>
	<path d="M7.5,24h-14C-6.776,24-7,24.224-7,24.5S-6.776,25-6.5,25h14C7.776,25,8,24.776,8,24.5S7.776,24,7.5,24z"/>
	<path d="M-4.438,22.5H5.5c0.552,0,1-0.448,1-1v-3c0-0.552-0.448-1-1-1h-9.938c-0.552,0-1,0.448-1,1v3
		C-5.438,22.052-4.99,22.5-4.438,22.5z"/>
	<path d="M5.5,26.5h-9.938c-0.552,0-1,0.448-1,1v3c0,0.552,0.448,1,1,1H5.5c0.552,0,1-0.448,1-1v-3C6.5,26.948,6.052,26.5,5.5,26.5z
		"/>
</g>
</svg>
