<?xml version="1.0" encoding="iso-8859-1"?>
<!-- Generator: Adobe Illustrator 17.1.0, SVG Export Plug-In . SVG Version: 6.00 Build 0)  -->
<!DOCTYPE svg PUBLIC "-//W3C//DTD SVG 1.1//EN" "http://www.w3.org/Graphics/SVG/1.1/DTD/svg11.dtd">
<svg version="1.1" id="Layer_1" xmlns="http://www.w3.org/2000/svg" xmlns:xlink="http://www.w3.org/1999/xlink" x="0px" y="0px"
	 viewBox="-7.5 16.5 16 16" style="enable-background:new -7.5 16.5 16 16;" xml:space="preserve">
<path d="M5.954,20.627l-3.25-3.5C2.326,16.727,1.8,16.5,1.25,16.5H-3.5c-1.105,0-2,0.895-2,2v4c0,0,2,0,2-1s0-3,0-3h4V22
	c0,0.276,0.224,0.5,0.5,0.5h3.5v8h-8c0,0,0-0.219,0-0.453c0-1-2-0.984-2,0.016c0,0.25,0,0.438,0,0.438c0,1.105,0.895,2,2,2h8
	c1.105,0,2-0.895,2-2V22C6.5,21.489,6.305,20.998,5.954,20.627z M1.5,21.5v-2.735L4.028,21.5H1.5z"/>
<polygon style="fill:none;stroke:#000000;stroke-linecap:round;stroke-linejoin:round;stroke-miterlimit:10;" points="
	-1.903,21.344 -1.587,24.44 1.444,25.145 -1.402,26.402 -1.137,29.503 -3.212,27.184 -6.079,28.395 -4.515,25.704 -6.552,23.352 
	-3.51,24.008 "/>
</svg>
