<?xml version="1.0" encoding="iso-8859-1"?>
<!-- Generator: Adobe Illustrator 17.1.0, SVG Export Plug-In . SVG Version: 6.00 Build 0)  -->
<!DOCTYPE svg PUBLIC "-//W3C//DTD SVG 1.1//EN" "http://www.w3.org/Graphics/SVG/1.1/DTD/svg11.dtd">
<svg version="1.1" id="Layer_1" xmlns="http://www.w3.org/2000/svg" xmlns:xlink="http://www.w3.org/1999/xlink" x="0px" y="0px"
	 viewBox="0 0 16 16" style="enable-background:new 0 0 16 16;" xml:space="preserve">
<path d="M8,1C4.134,1,1,4.134,1,8s3.134,7,7,7s7-3.134,7-7S11.866,1,8,1z M9.783,10.352c0.058,0.077,0.093,0.175,0.093,0.279
	c0,0.259-0.211,0.47-0.47,0.47c-0.009,0-0.016,0-0.024,0H6.618c-0.152,0-0.294-0.073-0.382-0.197
	c-0.089-0.123-0.112-0.281-0.063-0.426l0.75-2.198C6.448,7.939,6.119,7.409,6.119,6.78c0-1.039,0.842-1.881,1.881-1.881
	S9.881,5.741,9.881,6.78c0,0.63-0.329,1.16-0.804,1.501L9.783,10.352z"/>
</svg>
