<?xml version="1.0" encoding="iso-8859-1"?>
<!-- Generator: Adobe Illustrator 17.1.0, SVG Export Plug-In . SVG Version: 6.00 Build 0)  -->
<!DOCTYPE svg PUBLIC "-//W3C//DTD SVG 1.1//EN" "http://www.w3.org/Graphics/SVG/1.1/DTD/svg11.dtd">
<svg version="1.1" id="Layer_1" xmlns="http://www.w3.org/2000/svg" xmlns:xlink="http://www.w3.org/1999/xlink" x="0px" y="0px"
	 viewBox="-7.5 16.5 16 16" style="enable-background:new -7.5 16.5 16 16;" xml:space="preserve">
<g>
	<path d="M0.5,21.5l1.123,3.455h3.633L2.317,27.09l1.123,3.455L0.5,28.41l-2.939,2.135l1.123-3.455l-2.939-2.135h3.633L0.5,21.5
		 M5.256,24.955h0.005 M0.5,20c-0.65,0-1.226,0.418-1.427,1.036l-0.786,2.418h-2.543c-0.65,0-1.226,0.418-1.427,1.036
		c-0.201,0.618,0.019,1.295,0.545,1.677l2.057,1.495l-0.786,2.418c-0.201,0.618,0.019,1.295,0.545,1.677
		c0.263,0.191,0.572,0.286,0.882,0.286s0.619-0.095,0.882-0.286L0.5,30.264l2.057,1.495c0.263,0.191,0.572,0.286,0.882,0.286
		c0.309,0,0.619-0.095,0.882-0.286c0.526-0.382,0.746-1.059,0.545-1.677L4.08,27.663l2.023-1.47c0.395-0.27,0.655-0.724,0.655-1.238
		c0-0.828-0.669-1.5-1.497-1.5H5.256H2.713l-0.786-2.418C1.726,20.418,1.15,20,0.5,20L0.5,20z"/>
</g>
<g>
	<path d="M4.5,17.5v3.079l-2.627,1.464l-0.407-1.198c-0.138-0.405-0.518-0.678-0.945-0.678l-0.002,0
		c-0.427,0-0.807,0.271-0.946,0.675l-0.414,1.206l-2.66-1.471V17.5H4.5 M5.5,16.5h-10v4.667l4.218,2.333l0.801-2.333L1.313,23.5
		L5.5,21.167V16.5L5.5,16.5z"/>
</g>
<line style="fill:none;stroke:#000000;stroke-linecap:round;stroke-linejoin:round;stroke-miterlimit:10;" x1="-3.5" y1="19" x2="4.5" y2="19"/>
</svg>
