<?xml version="1.0" encoding="iso-8859-1"?>
<!-- Generator: Adobe Illustrator 17.1.0, SVG Export Plug-In . SVG Version: 6.00 Build 0)  -->
<!DOCTYPE svg PUBLIC "-//W3C//DTD SVG 1.1//EN" "http://www.w3.org/Graphics/SVG/1.1/DTD/svg11.dtd">
<svg version="1.1" id="Layer_1" xmlns="http://www.w3.org/2000/svg" xmlns:xlink="http://www.w3.org/1999/xlink" x="0px" y="0px"
	 viewBox="-7.5 16.5 16 16" style="enable-background:new -7.5 16.5 16 16;" xml:space="preserve">
<g>
	<path d="M0.518,21.5H7.5c0.553,0,1-0.448,1-1s-0.447-1-1-1H0.518c-0.552,0-1,0.448-1,1S-0.034,21.5,0.518,21.5z"/>
	<path d="M7.5,23.5H0.518c-0.552,0-1,0.448-1,1c0,0.553,0.448,1,1,1H7.5c0.553,0,1-0.447,1-1C8.5,23.948,8.053,23.5,7.5,23.5z"/>
	<path d="M7.5,27.5H0.518c-0.552,0-1,0.447-1,1s0.448,1,1,1H7.5c0.553,0,1-0.447,1-1S8.053,27.5,7.5,27.5z"/>
	<path d="M-2.21,25.004h-1.024c-0.04,0-0.06-0.019-0.06-0.06v-5.166c0-0.06-0.04-0.1-0.1-0.1h-1.414c-0.06,0-0.14,0.01-0.231,0.03
		l-1.385,0.3c-0.07,0.02-0.1,0.06-0.1,0.12v1.274c0,0.06,0.04,0.1,0.1,0.1l1.326-0.301c0.03,0,0.05,0.021,0.06,0.051v3.692
		c0,0.04-0.02,0.06-0.06,0.06h-1.225c-0.059,0-0.1,0.04-0.1,0.1v1.294c0,0.06,0.04,0.1,0.1,0.1h4.113c0.06,0,0.1-0.04,0.1-0.1
		v-1.294C-2.11,25.044-2.15,25.004-2.21,25.004z"/>
</g>
</svg>
