<?xml version="1.0" encoding="iso-8859-1"?>
<!-- Generator: Adobe Illustrator 17.1.0, SVG Export Plug-In . SVG Version: 6.00 Build 0)  -->
<!DOCTYPE svg PUBLIC "-//W3C//DTD SVG 1.1//EN" "http://www.w3.org/Graphics/SVG/1.1/DTD/svg11.dtd">
<svg version="1.1" id="Layer_1" xmlns="http://www.w3.org/2000/svg" xmlns:xlink="http://www.w3.org/1999/xlink" x="0px" y="0px"
	 viewBox="-7.5 16.5 16 16" style="enable-background:new -7.5 16.5 16 16;" xml:space="preserve">
<path d="M7.954,20.627l-3.25-3.5C4.326,16.727,3.8,16.5,3.25,16.5H-1.5c-1.105,0-2,0.895-2,2v1.281h2V18.5h4V22
	c0,0.276,0.224,0.5,0.5,0.5h3.5v8h-8h-1c-0.552,0-1,0.448-1,1c0,0.552,0.448,1,1,1h1h8c1.105,0,2-0.895,2-2V22
	C8.5,21.489,8.305,20.998,7.954,20.627z M3.5,21.5v-2.735L6.028,21.5H3.5z"/>
<g>
	<path d="M-2.5,22v3h-3v-3H-2.5 M-2.5,20.5h-3C-6.328,20.5-7,21.172-7,22v3c0,0.828,0.672,1.5,1.5,1.5h3c0.828,0,1.5-0.672,1.5-1.5
		v-3C-1,21.172-1.672,20.5-2.5,20.5L-2.5,20.5z"/>
</g>
<circle style="fill:none;stroke:#000000;stroke-linecap:round;stroke-linejoin:round;stroke-miterlimit:10;" cx="2.5" cy="26.5" r="2.5"/>
<circle style="fill:none;stroke:#000000;stroke-width:0.5;stroke-linecap:round;stroke-linejoin:round;stroke-miterlimit:10;" cx="-2.5" cy="28.5" r="1"/>
</svg>
