<?xml version="1.0" encoding="iso-8859-1"?>
<!-- Generator: Adobe Illustrator 17.1.0, SVG Export Plug-In . SVG Version: 6.00 Build 0)  -->
<!DOCTYPE svg PUBLIC "-//W3C//DTD SVG 1.1//EN" "http://www.w3.org/Graphics/SVG/1.1/DTD/svg11.dtd">
<svg version="1.1" id="Layer_1" xmlns="http://www.w3.org/2000/svg" xmlns:xlink="http://www.w3.org/1999/xlink" x="0px" y="0px"
	 viewBox="0 0 16 16" style="enable-background:new 0 0 16 16;" xml:space="preserve">
<g>
	<path d="M3,5h10c0.553,0,1-0.448,1-1s-0.447-1-1-1H3C2.448,3,2,3.448,2,4S2.448,5,3,5z"/>
	<path d="M13,7H3C2.448,7,2,7.448,2,8c0,0.553,0.448,1,1,1h10c0.553,0,1-0.447,1-1C14,7.448,13.553,7,13,7z"/>
	<path d="M13,11H3c-0.552,0-1,0.447-1,1s0.448,1,1,1h10c0.553,0,1-0.447,1-1S13.553,11,13,11z"/>
</g>
</svg>
