<?xml version="1.0" encoding="iso-8859-1"?>
<!-- Generator: Adobe Illustrator 17.1.0, SVG Export Plug-In . SVG Version: 6.00 Build 0)  -->
<!DOCTYPE svg PUBLIC "-//W3C//DTD SVG 1.1//EN" "http://www.w3.org/Graphics/SVG/1.1/DTD/svg11.dtd">
<svg version="1.1" id="Layer_1" xmlns="http://www.w3.org/2000/svg" xmlns:xlink="http://www.w3.org/1999/xlink" x="0px" y="0px"
	 viewBox="0 0 16 16" style="enable-background:new 0 0 16 16;" xml:space="preserve">
<g>
	<path style="fill-rule:evenodd;clip-rule:evenodd;" d="M6.407,3.118c-0.233-0.169-0.5-0.258-0.802-0.268
		c-0.4,0.01-0.733,0.172-0.998,0.485C4.384,3.663,4.277,4.03,4.286,4.436c0,0.536,0.156,1.094,0.469,1.673
		c0.151,0.27,0.346,0.5,0.586,0.688c0.239,0.188,0.512,0.282,0.82,0.282c0.388-0.014,0.712-0.154,0.971-0.42
		C7.257,6.471,7.337,6.278,7.373,6.08c0.021-0.198,0.032-0.364,0.032-0.5c0-0.584-0.149-1.173-0.446-1.767
		C6.819,3.528,6.635,3.296,6.407,3.118z"/>
	<path style="fill-rule:evenodd;clip-rule:evenodd;" d="M6.308,9.45c-0.075-0.01-0.268,0-0.578,0.029
		c-0.305,0.043-0.618,0.113-0.937,0.21C4.718,9.717,4.612,9.76,4.476,9.818C4.339,9.881,4.201,9.97,4.06,10.086
		c-0.136,0.12-0.251,0.27-0.345,0.448c-0.108,0.188-0.162,0.414-0.162,0.68c0,0.52,0.235,0.949,0.705,1.287
		c0.446,0.337,1.057,0.511,1.833,0.521c0.695-0.01,1.226-0.164,1.593-0.463c0.357-0.294,0.536-0.672,0.536-1.135
		c0-0.376-0.122-0.704-0.367-0.983c-0.258-0.265-0.662-0.59-1.212-0.976C6.545,9.454,6.435,9.45,6.308,9.45z"/>
	<path style="fill-rule:evenodd;clip-rule:evenodd;" d="M14,0H2C0.9,0,0,0.9,0,2v12c0,1.1,0.9,2,2,2h12c1.1,0,2-0.9,2-2V2
		C16,0.9,15.1,0,14,0z M7.961,3.146c0.111,0.116,0.22,0.258,0.327,0.427C8.39,3.732,8.48,3.919,8.559,4.136
		c0.065,0.217,0.097,0.47,0.097,0.759c-0.009,0.53-0.125,0.954-0.35,1.272c-0.11,0.154-0.227,0.296-0.35,0.427
		c-0.136,0.13-0.281,0.263-0.435,0.398C7.434,7.083,7.352,7.186,7.278,7.302c-0.088,0.12-0.132,0.26-0.132,0.419
		c0,0.154,0.045,0.282,0.135,0.383c0.077,0.096,0.151,0.181,0.223,0.253l0.501,0.412c0.311,0.255,0.584,0.537,0.819,0.846
		c0.221,0.313,0.336,0.723,0.345,1.229c0,0.718-0.316,1.354-0.947,1.908c-0.655,0.573-1.6,0.87-2.835,0.889
		c-1.034-0.01-1.806-0.231-2.315-0.664C2.557,12.573,2.3,12.09,2.3,11.527c0-0.274,0.084-0.58,0.251-0.916
		c0.162-0.337,0.456-0.633,0.882-0.887c0.478-0.274,0.98-0.457,1.506-0.548c0.521-0.077,0.954-0.12,1.298-0.13
		C6.13,8.905,6.036,8.755,5.952,8.595C5.855,8.44,5.807,8.253,5.807,8.035c0-0.131,0.018-0.24,0.055-0.327
		c0.032-0.092,0.062-0.177,0.09-0.254C5.785,7.473,5.627,7.483,5.478,7.483c-0.786-0.01-1.384-0.258-1.796-0.744
		c-0.431-0.453-0.647-0.98-0.647-1.583c0-0.728,0.305-1.388,0.916-1.98c0.42-0.347,0.856-0.573,1.308-0.679
		c0.448-0.091,0.867-0.137,1.259-0.137H9.47L8.558,2.893h-0.91C7.741,2.951,7.845,3.035,7.961,3.146z M14.112,7.886h-1.59v1.552
		h-0.909V7.886h-1.552V7.853h-0.01V6.97h1.562V5.388h0.909V6.97h1.552v0.008h0.038V7.886z"/>
</g>
</svg>
