<?xml version="1.0" encoding="iso-8859-1"?>
<!-- Generator: Adobe Illustrator 17.1.0, SVG Export Plug-In . SVG Version: 6.00 Build 0)  -->
<!DOCTYPE svg PUBLIC "-//W3C//DTD SVG 1.1//EN" "http://www.w3.org/Graphics/SVG/1.1/DTD/svg11.dtd">
<svg version="1.1" id="Layer_1" xmlns="http://www.w3.org/2000/svg" xmlns:xlink="http://www.w3.org/1999/xlink" x="0px" y="0px"
	 viewBox="-7.5 16.5 16 16" style="enable-background:new -7.5 16.5 16 16;" xml:space="preserve">
<path d="M5.5,23.75H5.25V21.5c0-2.619-2.131-4.75-4.75-4.75s-4.75,2.131-4.75,4.75v2.25H-4.5c-0.414,0-0.75,0.336-0.75,0.75v7
	c0,0.414,0.336,0.75,0.75,0.75h10c0.414,0,0.75-0.336,0.75-0.75v-7C6.25,24.086,5.914,23.75,5.5,23.75z M1.636,29.022
	c0.037,0.049,0.059,0.111,0.059,0.178c0,0.165-0.135,0.3-0.3,0.3c-0.006,0-0.01,0-0.015,0h-1.761c-0.097,0-0.187-0.047-0.244-0.125
	c-0.057-0.078-0.071-0.179-0.04-0.272l0.478-1.401c-0.303-0.218-0.512-0.555-0.512-0.957c0-0.662,0.537-1.199,1.199-1.199
	s1.199,0.537,1.199,1.199c0,0.401-0.21,0.739-0.513,0.957L1.636,29.022z M3.75,23.75h-6.5V21.5c0-1.792,1.458-3.25,3.25-3.25
	s3.25,1.458,3.25,3.25V23.75z"/>
</svg>
