<?xml version="1.0" encoding="iso-8859-1"?>
<!-- Generator: Adobe Illustrator 17.1.0, SVG Export Plug-In . SVG Version: 6.00 Build 0)  -->
<!DOCTYPE svg PUBLIC "-//W3C//DTD SVG 1.1//EN" "http://www.w3.org/Graphics/SVG/1.1/DTD/svg11.dtd">
<svg version="1.1" id="Layer_1" xmlns="http://www.w3.org/2000/svg" xmlns:xlink="http://www.w3.org/1999/xlink" x="0px" y="0px"
	 viewBox="-7.5 16.5 16 16" style="enable-background:new -7.5 16.5 16 16;" xml:space="preserve">
<g>
	<path d="M7.447,16.793l-0.692-0.219c-0.365-0.117-0.759,0.074-0.897,0.433l-2.331,6.144l-0.111,0.347
		c-0.308,0.22-0.55,0.537-0.673,0.924C2.58,24.936,2.355,25.64,1.91,26.098l-0.907,0.81l1.208,0.384
		c1.236,0.392,2.104,0.16,2.614-0.105c0.648-0.336,1.136-0.929,1.37-1.669c0.123-0.387,0.107-0.788-0.019-1.144l0.112-0.347
		l1.638-6.363C8.024,17.292,7.813,16.909,7.447,16.793z M5.506,25.297c-0.327,1.036-1.348,1.854-3.074,1.305
		c0.563-0.581,0.822-1.39,1.002-1.962c0.084-0.265,0.262-0.476,0.484-0.606l1.543,0.489C5.566,24.758,5.589,25.031,5.506,25.297z
		 M5.602,23.808l-1.381-0.439l0.514-1.357l1.227,0.389L5.602,23.808z M6.053,22.05l-1.189-0.378l1.674-4.409l0.69,0.22L6.053,22.05z
		"/>
	<path d="M5.029,28.25c-0.271,0-0.49,0.22-0.49,0.49v0.791H0.83c-0.049-0.22-0.311-1.021-0.915-1.021h-3.417v-9.019h7.295
		c0.271,0,0.49-0.22,0.49-0.49s-0.22-0.49-0.49-0.49h-5.628c-0.24-0.418-1.206-1.713-2.954-1.713c-1.98,0-2.207,0.227-2.207,2.207
		c0,1.382,0.913,2.275,1.502,2.707c-0.287,0.471-0.643,1.287-0.643,2.442s0.356,1.972,0.643,2.442
		c-0.59,0.432-1.502,1.326-1.502,2.707c0,1.98,0.227,2.207,2.207,2.207c1.254,0,2.104-0.75,2.575-1.33l0,0
		c0.471,0.58,1.321,1.33,2.575,1.33c0.271,0,0.49-0.22,0.49-0.49v-0.51h4.178c0.13,0,0.255-0.052,0.347-0.143
		c0.092-0.091,0.143-0.217,0.143-0.347v-1.28C5.519,28.469,5.299,28.25,5.029,28.25z"/>
</g>
</svg>
