<?xml version="1.0" encoding="iso-8859-1"?>
<!-- Generator: Adobe Illustrator 17.1.0, SVG Export Plug-In . SVG Version: 6.00 Build 0)  -->
<!DOCTYPE svg PUBLIC "-//W3C//DTD SVG 1.1//EN" "http://www.w3.org/Graphics/SVG/1.1/DTD/svg11.dtd">
<svg version="1.1" id="Layer_4" xmlns="http://www.w3.org/2000/svg" xmlns:xlink="http://www.w3.org/1999/xlink" x="0px" y="0px"
	 viewBox="0 0 48 48" style="enable-background:new 0 0 48 48;" xml:space="preserve">
<g>
	<path d="M16,10.75c0-0.414-0.336-0.75-0.75-0.75h-8.5C6.336,10,6,10.336,6,10.75v11.5C6,22.664,6.336,23,6.75,23h8.5
		c0.414,0,0.75-0.336,0.75-0.75V10.75z M8,21v-1.944c2-1.004,5-1.975,6-2.429V21H8z M14,12v3.839c-1,0.401-4,1.356-6,2.394V12H14z"
		/>
	<path d="M33,10.75c0-0.414-0.336-0.75-0.75-0.75h-13.5C18.336,10,18,10.336,18,10.75v11.5c0,0.414,0.336,0.75,0.75,0.75h13.5
		c0.414,0,0.75-0.336,0.75-0.75V10.75z M24,18.125c1.477,0,1.613,0.875,1.623,2.875h-3.245C22.387,19,22.524,18.125,24,18.125z
		 M22.375,16c0-0.896,0.729-1.625,1.625-1.625s1.625,0.729,1.625,1.625S24.896,17.625,24,17.625S22.375,16.896,22.375,16z M20,12h11
		v9h-4.627c-0.004-1-0.069-2.527-1.045-3.157c0.631-0.427,1.046-1.087,1.046-1.905c0-1.31-1.065-2.344-2.375-2.344
		s-2.375,1.081-2.375,2.391c0,0.818,0.416,1.423,1.046,1.85C21.696,18.465,21.631,20,21.627,21H20V12z"/>
	<path d="M20,25.75c0-0.414-0.336-0.75-0.75-0.75H6.75C6.336,25,6,25.336,6,25.75v11.5C6,37.664,6.336,38,6.75,38h12.5
		c0.414,0,0.75-0.336,0.75-0.75V25.75z M18,36H8v-9h10V36z"/>
	<path d="M29,25.75c0-0.414-0.336-0.75-0.75-0.75h-5.5C22.336,25,22,25.336,22,25.75v11.5c0,0.414,0.336,0.75,0.75,0.75h5.5
		c0.414,0,0.75-0.336,0.75-0.75V25.75z M27,27v5.364c0-0.342-2-0.652-3-0.723V27H27z M24,36v-3.609c2,0.085,3,0.51,3,0.837V36H24z"
		/>
	<path d="M42,10.75c0-0.414-0.336-0.75-0.75-0.75h-5.5C35.336,10,35,10.336,35,10.75v11.5c0,0.414,0.336,0.75,0.75,0.75h5.5
		c0.414,0,0.75-0.336,0.75-0.75V10.75z M40,21h-3v-9h3V21z"/>
	<path d="M42,25.75c0-0.414-0.336-0.75-0.75-0.75h-9.5C31.336,25,31,25.336,31,25.75v11.5c0,0.414,0.336,0.75,0.75,0.75h9.5
		c0.414,0,0.75-0.336,0.75-0.75V25.75z M40,27v5.881c-1-0.404-4-1.135-7-1.241V27H40z M33,36v-3.61c3,0.114,6,0.904,7,1.274V36H33z"
		/>
	<path d="M11.5,32.75c1.241,0,2.25-1.009,2.25-2.25s-1.009-2.25-2.25-2.25s-2.25,1.009-2.25,2.25S10.259,32.75,11.5,32.75z M11.5,29
		c0.829,0,1.5,0.671,1.5,1.5c0,0.829-0.671,1.5-1.5,1.5c-0.829,0-1.5-0.671-1.5-1.5C10,29.671,10.671,29,11.5,29z"/>
</g>
</svg>
