<?xml version="1.0" encoding="iso-8859-1"?>
<!-- Generator: Adobe Illustrator 17.1.0, SVG Export Plug-In . SVG Version: 6.00 Build 0)  -->
<!DOCTYPE svg PUBLIC "-//W3C//DTD SVG 1.1//EN" "http://www.w3.org/Graphics/SVG/1.1/DTD/svg11.dtd">
<svg version="1.1" id="Layer_1" xmlns="http://www.w3.org/2000/svg" xmlns:xlink="http://www.w3.org/1999/xlink" x="0px" y="0px"
	 viewBox="-7.5 16.5 16 16" style="enable-background:new -7.5 16.5 16 16;" xml:space="preserve">
<path d="M5.954,20.627l-3.25-3.5C2.326,16.727,1.8,16.5,1.25,16.5H-3.5c-1.105,0-2,0.895-2,2v1.281h2V18.5h4V22
	c0,0.276,0.224,0.5,0.5,0.5h3.5v8h-8c0,0-1.105,2,0,2h8c1.105,0,2-0.895,2-2V22C6.5,21.489,6.305,20.998,5.954,20.627z M1.5,21.5
	v-2.735L4.028,21.5H1.5z"/>
<polygon style="stroke:#000000;stroke-width:0.5;stroke-linecap:round;stroke-linejoin:round;stroke-miterlimit:10;" points="
	-5.195,20.955 -7,25.239 -4.593,25.239 -6.398,29.523 -1.585,24.015 -3.992,24.015 -2.187,20.955 "/>
<path d="M-5.5,31.5c0,0.552,0.448,1,1,1h1c0.552,0,1-0.448,1-1l0,0c0-0.552-0.448-1-1-1h-1C-5.052,30.5-5.5,30.948-5.5,31.5
	L-5.5,31.5z"/>
</svg>
