<?xml version="1.0" encoding="iso-8859-1"?>
<!-- Generator: Adobe Illustrator 17.1.0, SVG Export Plug-In . SVG Version: 6.00 Build 0)  -->
<!DOCTYPE svg PUBLIC "-//W3C//DTD SVG 1.1//EN" "http://www.w3.org/Graphics/SVG/1.1/DTD/svg11.dtd">
<svg version="1.1" id="Layer_1" xmlns="http://www.w3.org/2000/svg" xmlns:xlink="http://www.w3.org/1999/xlink" x="0px" y="0px"
	 viewBox="-7.5 16.5 16 16" style="enable-background:new -7.5 16.5 16 16;" xml:space="preserve">
<path d="M-2.5,17.5c0,0,1-1,3-1s3,1,3,1s2-1,4-1c1,0,1,0,1,1c0,2-1,4-1,4s1,1,1,3s-1,3-1,3s1,2,1,4c0,1,0,1-1,1c-2,0-4-1-4-1
	s-1,1-3,1s-3-1-3-1s-2,1-4,1c-1,0-1,0-1-1c0-2,1-4,1-4s-1-1-1-3s1-3,1-3s-1-2-1-4c0-1,0-1,1-1C-4.5,16.5-2.5,17.5-2.5,17.5z
	 M6.5,19.5c0-0.552-0.448-1-1-1h-10c-0.552,0-1,0.448-1,1v10c0,0.552,0.448,1,1,1h10c0.552,0,1-0.448,1-1V19.5z"/>
<line style="fill:none;stroke:#000000;stroke-width:2;stroke-linecap:round;stroke-linejoin:round;stroke-miterlimit:10;" x1="-2.5" y1="21.5" x2="3.5" y2="21.5"/>
<line style="fill:none;stroke:#000000;stroke-width:2;stroke-linecap:round;stroke-linejoin:round;stroke-miterlimit:10;" x1="0.5" y1="21.5" x2="0.5" y2="27.5"/>
</svg>
