<?xml version="1.0" encoding="iso-8859-1"?>
<!-- Generator: Adobe Illustrator 17.1.0, SVG Export Plug-In . SVG Version: 6.00 Build 0)  -->
<!DOCTYPE svg PUBLIC "-//W3C//DTD SVG 1.1//EN" "http://www.w3.org/Graphics/SVG/1.1/DTD/svg11.dtd">
<svg version="1.1" id="Layer_1" xmlns="http://www.w3.org/2000/svg" xmlns:xlink="http://www.w3.org/1999/xlink" x="0px" y="0px"
	 viewBox="-7.5 16.5 16 16" style="enable-background:new -7.5 16.5 16 16;" xml:space="preserve">
<line style="fill:none;stroke:#000000;stroke-width:2;stroke-linecap:round;stroke-linejoin:round;stroke-miterlimit:10;" x1="-2.5" y1="21.5" x2="3.5" y2="21.5"/>
<line style="fill:none;stroke:#000000;stroke-width:2;stroke-linecap:round;stroke-linejoin:round;stroke-miterlimit:10;" x1="0.5" y1="21.5" x2="0.5" y2="27.5"/>
<path d="M-4.5,19.5h-3v-3h3V19.5z M-5.5,17.5h-1v1h1V17.5z"/>
<path d="M8.5,19.5h-3v-3h3V19.5z M7.5,17.5h-1v1h1V17.5z"/>
<path d="M8.5,32.5h-3v-3h3V32.5z M7.5,30.5h-1v1h1V30.5z"/>
<path d="M-4.5,32.5h-3v-3h3V32.5z M-5.5,30.5h-1v1h1V30.5z"/>
<rect x="-4.5" y="17.5" width="10" height="1"/>
<rect x="-6.5" y="19.5" width="1" height="10"/>
<rect x="-4.5" y="30.5" width="10" height="1"/>
<rect x="6.5" y="19.5" width="1" height="10"/>
</svg>
