<?xml version="1.0" encoding="iso-8859-1"?>
<!-- Generator: Adobe Illustrator 17.1.0, SVG Export Plug-In . SVG Version: 6.00 Build 0)  -->
<!DOCTYPE svg PUBLIC "-//W3C//DTD SVG 1.1//EN" "http://www.w3.org/Graphics/SVG/1.1/DTD/svg11.dtd">
<svg version="1.1" id="Layer_1" xmlns="http://www.w3.org/2000/svg" xmlns:xlink="http://www.w3.org/1999/xlink" x="0px" y="0px"
	 viewBox="-7.5 16.5 16 16" style="enable-background:new -7.5 16.5 16 16;" xml:space="preserve">
<g>
	<path style="fill-rule:evenodd;clip-rule:evenodd;" d="M3.363,21.611c-0.7,0.699-1.226,1.542-1.679,2.424
		C0.19,24.157-5.08,24.59-5.937,24.661c-1.245,0.102,0.782,2.68,1.85,2.54c1.972-0.258,4.129-1.38,5.227-2.031
		C1.094,25.274,1.047,25.379,1,25.483c-0.662,1.476-1.265,3.063-2.127,4.513c-0.065,0.109-0.131,0.216-0.199,0.322
		c-2.122,0.156-3.696-0.148-4.404-0.731c-1.987-1.636-2.52-9.642-0.289-10.672c1.532-0.707,6.388-0.027,10.434,1.908
		C4.019,21.028,3.666,21.31,3.363,21.611z M-3.23,20.753c-0.77-0.355-0.532,2.502,0.149,2.747c0.734,0.265,3.79,0.099,4.254,0.071
		c0.29-0.017,0.44-0.587,0.44-0.587S-2.838,20.934-3.23,20.753z M0.901,29.505c0.861-1.513,1.488-3.12,2.089-4.667
		c0.284-0.73,0.56-1.452,0.898-2.139c0.28-0.568,0.623-1.142,1.134-1.573c1.987,1.046,3.742,2.518,3.409,3.963
		c-0.604,2.617-4.581,4.37-7.869,4.98C0.68,29.884,0.793,29.695,0.901,29.505z"/>
</g>
</svg>
