<?xml version="1.0" encoding="iso-8859-1"?>
<!-- Generator: Adobe Illustrator 17.1.0, SVG Export Plug-In . SVG Version: 6.00 Build 0)  -->
<!DOCTYPE svg PUBLIC "-//W3C//DTD SVG 1.1//EN" "http://www.w3.org/Graphics/SVG/1.1/DTD/svg11.dtd">
<svg version="1.1" id="Layer_1" xmlns="http://www.w3.org/2000/svg" xmlns:xlink="http://www.w3.org/1999/xlink" x="0px" y="0px"
	 viewBox="0 0 16 16" style="enable-background:new 0 0 16 16;" xml:space="preserve">
<g>
	<path d="M11.105,5.576L8.928,4.022c-0.502-0.359-1.352-0.359-1.853,0l-2.18,1.555C4.408,5.925,4.026,6.667,4.026,7.265v3.744
		c0,0.683,0.556,1.239,1.239,1.239h5.471c0.683,0,1.239-0.556,1.239-1.239V7.265C11.974,6.667,11.592,5.925,11.105,5.576z
		 M11.27,11.009c0,0.295-0.24,0.535-0.535,0.535H5.265c-0.295,0-0.535-0.24-0.535-0.535V7.265c0-0.375,0.269-0.897,0.574-1.116
		l2.18-1.555C7.615,4.5,7.803,4.446,8.001,4.446S8.387,4.5,8.518,4.594l2.177,1.554c0.306,0.219,0.575,0.741,0.575,1.116V11.009z"/>
	<path d="M9.627,7.923H6.372c-0.225,0-0.405,0.183-0.405,0.407c0,0.226,0.181,0.407,0.405,0.407h3.255
		c0.225,0,0.407-0.182,0.407-0.407C10.034,8.106,9.852,7.923,9.627,7.923z"/>
</g>
</svg>
