<?xml version="1.0" encoding="iso-8859-1"?>
<!-- Generator: Adobe Illustrator 17.1.0, SVG Export Plug-In . SVG Version: 6.00 Build 0)  -->
<!DOCTYPE svg PUBLIC "-//W3C//DTD SVG 1.1//EN" "http://www.w3.org/Graphics/SVG/1.1/DTD/svg11.dtd">
<svg version="1.1" id="Layer_1" xmlns="http://www.w3.org/2000/svg" xmlns:xlink="http://www.w3.org/1999/xlink" x="0px" y="0px"
	 viewBox="-7.5 16.5 16 16" style="enable-background:new -7.5 16.5 16 16;" xml:space="preserve">
<g>
	<path d="M8.482,22.421c-0.103-0.775-0.424-1.575-1.052-1.935c-0.326-0.187-0.647-0.327-1.044-0.327h-7.739
		c-0.793,0-1.608,0.6-2.022,1.245c-0.248,0.387-0.38,0.786-0.38,1.287v4.221c0,0.334,0.051,0.545,0.168,0.835
		c0.146,0.363,0.373,0.681,0.657,0.928c0.114,0.099,0.237,0.187,0.367,0.261c0.326,0.187,0.814,0.227,1.21,0.227v1.689
		c0,0.327,0.073,0.618,0.359,0.743c0.095,0.041,0.195,0.061,0.293,0.061c0.07,0,0.138-0.014,0.205-0.033
		c0.125-0.037,0.242-0.103,0.337-0.204l2.007-2.256h4.285c0.079,0,0.158-0.004,0.235-0.013c1.087-0.117,2.021-0.968,2.125-2.115
		c0.007-0.076,0.01-0.154,0.01-0.232V22.76C8.504,22.645,8.496,22.531,8.482,22.421z"/>
	<path d="M4.518,19.033L4.501,19.02c0-0.502-0.019-1.301-0.267-1.689C3.82,16.686,3.176,16.5,2.383,16.5h-7.739
		c-0.397,0-0.718,0.094-1.044,0.281c-0.628,0.36-0.983,0.81-1.086,1.585c-0.015,0.111-0.005,0.224-0.005,0.339v4.04
		c0,0.078-0.014,0.161-0.007,0.238c0.104,1.148,0.723,2.101,1.809,2.217c0.077,0.008,0.156,0.012,0.235,0.012l0.365,0.013v-2.533
		c0-0.747,0.192-1.473,0.589-2.092c0.661-1.03,1.663-1.42,2.881-1.567H4.518z"/>
</g>
</svg>
