<?xml version="1.0" encoding="iso-8859-1"?>
<!-- Generator: Adobe Illustrator 17.1.0, SVG Export Plug-In . SVG Version: 6.00 Build 0)  -->
<!DOCTYPE svg PUBLIC "-//W3C//DTD SVG 1.1//EN" "http://www.w3.org/Graphics/SVG/1.1/DTD/svg11.dtd">
<svg version="1.1" id="Layer_1" xmlns="http://www.w3.org/2000/svg" xmlns:xlink="http://www.w3.org/1999/xlink" x="0px" y="0px"
	 viewBox="-7.5 16.5 16 16" style="enable-background:new -7.5 16.5 16 16;" xml:space="preserve">
<path d="M-3,17.5c1.933,0,3.5,1.567,3.5,3.5s-1.567,3.5-3.5,3.5s-3.5-1.567-3.5-3.5S-4.933,17.5-3,17.5z M-5.5,21
	c0,1.381,1.119,2.5,2.5,2.5s2.5-1.119,2.5-2.5s-1.119-2.5-2.5-2.5S-5.5,19.619-5.5,21z"/>
<path d="M-2.5,22c0,0.276-0.224,0.5-0.5,0.5l0,0c-0.276,0-0.5-0.224-0.5-0.5v-2c0-0.276,0.224-0.5,0.5-0.5l0,0
	c0.276,0,0.5,0.224,0.5,0.5V22z"/>
<path d="M-1.5,21c0,0.276-0.224,0.5-0.5,0.5h-2c-0.276,0-0.5-0.224-0.5-0.5l0,0c0-0.276,0.224-0.5,0.5-0.5h2
	C-1.724,20.5-1.5,20.724-1.5,21L-1.5,21z"/>
<line style="fill:none;stroke:#000000;stroke-width:2;stroke-linecap:round;stroke-linejoin:round;stroke-miterlimit:10;" x1="0.5" y1="21.5" x2="5.5" y2="21.5"/>
<line style="fill:none;stroke:#000000;stroke-width:2;stroke-linecap:round;stroke-linejoin:round;stroke-miterlimit:10;" x1="-4.5" y1="24.5" x2="0.5" y2="24.5"/>
<line style="fill:none;stroke:#000000;stroke-width:2;stroke-linecap:round;stroke-linejoin:round;stroke-miterlimit:10;" x1="-4.5" y1="27.5" x2="0.5" y2="27.5"/>
<path d="M4.907,30.51c-0.41,0-0.743-0.333-0.743-0.743c0-0.41,0.333-0.743,0.743-0.743s0.743,0.332,0.743,0.743
	C5.65,30.178,5.317,30.51,4.907,30.51z M5.772,27.659c-0.043,0.026-0.084,0.05-0.122,0.073v0.225c0,0.41-0.332,0.743-0.743,0.743
	s-0.743-0.333-0.743-0.743v-0.464c0-0.593,0.482-0.887,0.834-1.102c0.453-0.276,0.651-0.431,0.651-0.755
	c0-0.632-0.667-0.65-0.743-0.65c-0.124,0-0.743,0.031-0.743,0.65c0,0.41-0.332,0.743-0.743,0.743s-0.743-0.333-0.743-0.743
	c0-1.402,1.121-2.136,2.228-2.136c1.08,0,2.228,0.749,2.228,2.136C7.136,26.827,6.249,27.369,5.772,27.659z"/>
</svg>
