<?xml version="1.0" encoding="iso-8859-1"?>
<!-- Generator: Adobe Illustrator 17.1.0, SVG Export Plug-In . SVG Version: 6.00 Build 0)  -->
<!DOCTYPE svg PUBLIC "-//W3C//DTD SVG 1.1//EN" "http://www.w3.org/Graphics/SVG/1.1/DTD/svg11.dtd">
<svg version="1.1" id="Layer_1" xmlns="http://www.w3.org/2000/svg" xmlns:xlink="http://www.w3.org/1999/xlink" x="0px" y="0px"
	 viewBox="-7.5 16.5 16 16" style="enable-background:new -7.5 16.5 16 16;" xml:space="preserve">
<g>
	<path d="M0.518,21.493H7.5c0.553,0,1-0.444,1-0.992s-0.447-0.992-1-0.992H0.518c-0.552,0-1,0.444-1,0.992
		S-0.034,21.493,0.518,21.493z"/>
	<path d="M7.5,23.509H0.518c-0.552,0-1,0.444-1,0.992c0,0.549,0.448,0.992,1,0.992H7.5c0.553,0,1-0.444,1-0.992
		S8.053,23.509,7.5,23.509z"/>
	<path d="M7.5,27.524H0.518c-0.552,0-1,0.44-1,0.984s0.448,0.984,1,0.984H7.5c0.553,0,1-0.44,1-0.984S8.053,27.524,7.5,27.524z"/>
	<path d="M-3.177,26.114v-3.21l-3.755,0.068l-0.166,1.08l1.222,0.11c0.118,0.03,0.153,0.1,0.153,0.21v1.731
		c0,0.15-0.023,0.18-0.188,0.2l-1.045,0.15v1.04l4.911-0.045v-1.04l-0.944-0.094C-3.165,26.294-3.177,26.274-3.177,26.114z"/>
	<ellipse cx="-4.489" cy="20.67" rx="1.601" ry="1.449"/>
</g>
</svg>
