<?xml version="1.0" encoding="iso-8859-1"?>
<!-- Generator: Adobe Illustrator 17.1.0, SVG Export Plug-In . SVG Version: 6.00 Build 0)  -->
<!DOCTYPE svg PUBLIC "-//W3C//DTD SVG 1.1//EN" "http://www.w3.org/Graphics/SVG/1.1/DTD/svg11.dtd">
<svg version="1.1" id="Layer_1" xmlns="http://www.w3.org/2000/svg" xmlns:xlink="http://www.w3.org/1999/xlink" x="0px" y="0px"
	 viewBox="-7.5 16.5 16 16" style="enable-background:new -7.5 16.5 16 16;" xml:space="preserve">
<path d="M4.061,23.181l-1.45,1.534l1.038,1.837c0.143,0.254,0.106,0.571-0.093,0.784c-0.199,0.214-0.512,0.273-0.776,0.149
	l-1.906-0.905l-1.426,1.555c-0.099,0.108-0.228,0.177-0.365,0.204c-0.135,0.026-0.279,0.011-0.41-0.05
	c-0.264-0.123-0.418-0.402-0.38-0.692l0.272-2.093l-1.92-0.876c-0.265-0.121-0.422-0.4-0.386-0.689
	c0.035-0.29,0.25-0.519,0.54-0.576l2.075-0.388l0.239-2.097c0.033-0.289,0.25-0.524,0.536-0.58c0.286-0.056,0.575,0.08,0.714,0.336
	l1.01,1.853l2.068-0.42c0.295-0.043,0.575,0.076,0.717,0.331C4.302,22.652,4.262,22.969,4.061,23.181z"/>
</svg>
