<?xml version="1.0" encoding="iso-8859-1"?>
<!-- Generator: Adobe Illustrator 20.1.0, SVG Export Plug-In . SVG Version: 6.00 Build 0)  -->
<svg version="1.1" id="Layer_1" xmlns="http://www.w3.org/2000/svg" xmlns:xlink="http://www.w3.org/1999/xlink" x="0px" y="0px"
	 viewBox="0 0 24 24" style="enable-background:new 0 0 24 24;" xml:space="preserve">
<g>
	<path d="M15.001,10.883h-1.5V4.195c0-0.829-0.674-1.5-1.5-1.5c-0.829,0-1.5,0.671-1.5,1.5v6.689h-1.5
		c-1.652,0-2.159,1.055-1.128,2.344l3.191,3.984c0.516,0.644,1.359,0.644,1.872,0l3.19-3.984
		C17.158,11.938,16.651,10.883,15.001,10.883z"/>
	<path d="M19,21.305H5c-0.552,0-1-0.448-1-1v0c0-0.552,0.448-1,1-1h14c0.552,0,1,0.448,1,1v0C20,20.857,19.552,21.305,19,21.305z"/>
</g>
</svg>
