<?xml version="1.0" encoding="utf-8"?>
<!-- Generator: Adobe Illustrator 17.1.0, SVG Export Plug-In . SVG Version: 6.00 Build 0)  -->
<!DOCTYPE svg PUBLIC "-//W3C//DTD SVG 1.1//EN" "http://www.w3.org/Graphics/SVG/1.1/DTD/svg11.dtd">
<svg xmlns="http://www.w3.org/2000/svg" viewBox="0 0 20 20">
	<circle cx="10" cy="10" r="10"/>
	<path d="M8.857 14c.02 0 .042 0 .063-.002.324-.018.626-.173.83-.427l4.57-5.713c.17-.21.25-.463.25-.713 0-.335-.147-.667-.43-.893-.208-.168-.46-.25-.71-.25-.336 0-.668.147-.894.43l-3.774 4.716L7.38 9.763c-.223-.223-.516-.334-.808-.334-.293 0-.585.11-.81.334-.222.223-.334.515-.334.807 0 .294.11.586.335.81l2.286 2.286c.214.214.505.334.807.334z" fill="#FFF"/>
</svg>