<?xml version="1.0" encoding="iso-8859-1"?>
<!-- Generator: Adobe Illustrator 20.1.0, SVG Export Plug-In . SVG Version: 6.00 Build 0)  -->
<svg version="1.1" id="Layer_1" xmlns="http://www.w3.org/2000/svg" xmlns:xlink="http://www.w3.org/1999/xlink" x="0px" y="0px"
	 viewBox="0 0 24 24" style="enable-background:new 0 0 24 24;" xml:space="preserve">
<g>
	<path d="M12.987,2.598c-0.207-0.436-0.643-0.726-1.121-0.726c-0.477,0-0.913,0.291-1.1,0.726L5.413,15.091
		c-0.27,0.602,0.021,1.328,0.622,1.577c0.622,0.27,1.328-0.021,1.598-0.623l1.121-2.635h6.226l1.121,2.635
		c0.207,0.457,0.643,0.726,1.121,0.726c0.166,0,0.311-0.021,0.477-0.104c0.602-0.249,0.892-0.975,0.643-1.577L12.987,2.598z
		 M9.792,11.003l2.075-4.856l2.075,4.856H9.792z"/>
	<path d="M21.499,22.127c-0.228,0-0.456-0.077-0.644-0.235l-1.729-1.457l-1.729,1.457c-0.373,0.313-0.916,0.313-1.289,0
		l-1.729-1.457l-1.729,1.457c-0.373,0.313-0.916,0.313-1.289,0L9.63,20.435l-1.731,1.458c-0.372,0.313-0.916,0.313-1.288,0
		l-1.734-1.458l-1.734,1.458c-0.423,0.356-1.053,0.302-1.409-0.122c-0.355-0.422-0.301-1.053,0.122-1.409l2.377-2
		c0.372-0.313,0.915-0.313,1.287,0l1.734,1.458l1.732-1.458c0.372-0.313,0.916-0.313,1.289,0l1.729,1.457l1.729-1.457
		c0.373-0.313,0.916-0.313,1.289,0l1.729,1.457l1.729-1.457c0.373-0.313,0.916-0.313,1.289,0l2.374,2
		c0.422,0.355,0.476,0.986,0.12,1.409C22.067,22.006,21.784,22.127,21.499,22.127z"/>
</g>
</svg>
