<?xml version="1.0" encoding="iso-8859-1"?>
<!-- Generator: Adobe Illustrator 20.1.0, SVG Export Plug-In . SVG Version: 6.00 Build 0)  -->
<svg version="1.1" id="Layer_1" xmlns="http://www.w3.org/2000/svg" xmlns:xlink="http://www.w3.org/1999/xlink" x="0px" y="0px"
	 viewBox="0 0 24 24" style="enable-background:new 0 0 24 24;" xml:space="preserve">
<g id="Reply_to_All_1_4_">
	<path d="M15.429,7.246V7.092V4.734c0-1.065-0.64-1.393-1.413-0.723L7.15,9.919c-0.389,0.335-0.387,0.874,0.002,1.207l6.868,5.91
		c0.77,0.665,1.41,0.34,1.41-0.725v-2.36h1.706c3.013,0.544,4.831,3.235,5.96,6.057c0.176,0.441,0.434,0.441,0.556-0.018
		C23.874,19.158,24,18.284,24,17.381C24,12.284,20.574,8.064,15.429,7.246z"/>
	<path d="M3.722,11.126c-0.389-0.333-0.39-0.872-0.002-1.207l4.2-3.614c0.358-0.31,0.65-0.787,0.65-1.065V4.734
		c0-1.065-0.64-1.393-1.413-0.723L0.291,9.919c-0.389,0.335-0.387,0.874,0.002,1.207l6.868,5.91c0.77,0.665,1.41,0.34,1.41-0.725
		c0,0,0-0.226,0-0.507c0-0.28-0.291-0.757-0.65-1.065L3.722,11.126z"/>
</g>
</svg>
