<?xml version="1.0" encoding="iso-8859-1"?>
<!-- Generator: Adobe Illustrator 20.1.0, SVG Export Plug-In . SVG Version: 6.00 Build 0)  -->
<svg version="1.1" id="Layer_1" xmlns="http://www.w3.org/2000/svg" xmlns:xlink="http://www.w3.org/1999/xlink" x="0px" y="0px"
	 viewBox="0 0 24 24" style="enable-background:new 0 0 24 24;" xml:space="preserve">
<g>
	<path d="M16.118,13.3L10.99,8.172c-0.096-0.096-0.221-0.144-0.347-0.144L6.39,8.71c-0.316,0-0.597,0.202-0.698,0.502L1.083,20.226
		c-0.108,0.322,0.018,0.676,0.305,0.857c0.121,0.076,0.257,0.114,0.393,0.114c0.186,0,0.371-0.07,0.512-0.207l5.621-5.432
		c-0.172-0.292-0.272-0.631-0.272-0.994c0-1.084,0.879-1.964,1.963-1.964s1.964,0.879,1.964,1.964c0,1.084-0.879,1.964-1.964,1.964
		c-0.272,0-0.532-0.056-0.768-0.156l-5.552,5.364c-0.246,0.237-0.296,0.612-0.122,0.906C3.298,22.868,3.541,23,3.795,23
		c0.073,0,0.148-0.011,0.22-0.034l10.932-4.48c0.307-0.096,0.516-0.381,0.516-0.703l0.799-4.135
		C16.262,13.522,16.214,13.396,16.118,13.3z"/>
	<path d="M22.707,8.235l-6.942-6.942C15.578,1.105,15.323,1,15.058,1s-0.52,0.105-0.707,0.293L10.88,4.764
		c-0.391,0.391-0.391,1.024,0,1.414l6.942,6.942c0.188,0.188,0.442,0.293,0.707,0.293s0.52-0.105,0.707-0.293l3.471-3.471
		C23.098,9.259,23.098,8.625,22.707,8.235z"/>
</g>
</svg>
