<?xml version="1.0" encoding="iso-8859-1"?>
<!-- Generator: Adobe Illustrator 20.1.0, SVG Export Plug-In . SVG Version: 6.00 Build 0)  -->
<svg version="1.1" id="Layer_1" xmlns="http://www.w3.org/2000/svg" xmlns:xlink="http://www.w3.org/1999/xlink" x="0px" y="0px"
	 viewBox="0 0 24 24" style="enable-background:new 0 0 24 24;" xml:space="preserve">
<g>
	<path d="M8.544,5.276C8.337,4.841,7.901,4.55,7.424,4.55s-0.913,0.291-1.1,0.726L0.97,17.769c-0.27,0.602,0.021,1.328,0.622,1.577
		c0.622,0.27,1.328-0.021,1.598-0.623l1.121-2.635h6.226l1.121,2.635c0.207,0.457,0.643,0.726,1.121,0.726
		c0.166,0,0.311-0.021,0.477-0.104c0.602-0.249,0.892-0.975,0.643-1.577L8.544,5.276z M5.348,13.681l2.075-4.856l2.075,4.856H5.348z
		"/>
	<path d="M23.056,17.922c-0.093-0.227-0.195-0.641-0.261-1.054c-0.206-1.308-0.21-5.228-0.193-6.628
		c0.006-0.557-0.441-1.015-0.998-1.021c-0.004,0-0.008,0-0.012,0c-0.552,0-1.003,0.444-1.009,0.998c0,0.009,0,0.029-0.001,0.054
		c-0.78-0.602-1.219-0.963-2.258-0.963c-2.599,0-4.192,2.224-4.192,4.958s1.594,4.958,4.192,4.958c1.212,0,1.795-0.488,2.631-1.282
		c0.061,0.247,0.137,0.511,0.233,0.745c0.16,0.391,0.537,0.627,0.934,0.627c0.128,0,0.257-0.024,0.382-0.076
		C23.021,19.028,23.267,18.438,23.056,17.922z M18.324,17.206c-1.486,0-2.174-1.318-2.174-2.939s0.688-2.939,2.174-2.939
		c1.486,0,2.174,1.318,2.174,2.939S19.81,17.206,18.324,17.206z"/>
</g>
</svg>
