<?xml version="1.0" encoding="iso-8859-1"?>
<!-- Generator: Adobe Illustrator 20.1.0, SVG Export Plug-In . SVG Version: 6.00 Build 0)  -->
<svg version="1.1" id="Layer_1" xmlns="http://www.w3.org/2000/svg" xmlns:xlink="http://www.w3.org/1999/xlink" x="0px" y="0px"
	 viewBox="0 0 24 24" style="enable-background:new 0 0 24 24;" xml:space="preserve">
<path d="M21.5,10.753h-6.166l-2.347-5.477C12.78,4.841,12.344,4.55,11.867,4.55s-0.913,0.291-1.1,0.726L8.42,10.753H2.5
	c-0.552,0-1,0.448-1,1s0.448,1,1,1h5.063l-2.15,5.016c-0.27,0.602,0.021,1.328,0.623,1.577c0.623,0.27,1.328-0.021,1.598-0.623
	l1.121-2.635h6.226l1.121,2.635c0.208,0.457,0.643,0.726,1.121,0.726c0.166,0,0.311-0.021,0.477-0.104
	c0.602-0.249,0.892-0.975,0.643-1.577l-2.15-5.016H21.5c0.552,0,1-0.448,1-1S22.052,10.753,21.5,10.753z M11.867,8.825l0.824,1.928
	h-1.648L11.867,8.825z M13.942,13.681h-4.15l0.396-0.928h3.357L13.942,13.681z"/>
</svg>
