<?xml version="1.0" encoding="iso-8859-1"?>
<!-- Generator: Adobe Illustrator 20.1.0, SVG Export Plug-In . SVG Version: 6.00 Build 0)  -->
<svg version="1.1" id="Layer_1" xmlns="http://www.w3.org/2000/svg" xmlns:xlink="http://www.w3.org/1999/xlink" x="0px" y="0px"
	 viewBox="0 0 24 24" style="enable-background:new 0 0 24 24;" xml:space="preserve">
<g id="Microphone_1_4_">
	<path style="fill-rule:evenodd;clip-rule:evenodd;" d="M17.25,9.75v1.312c0,2.899-2.349,5.25-5.25,5.25s-5.25-2.351-5.25-5.25V9.75
		c0-0.725-0.587-1.312-1.312-1.312l0,0c-0.725,0-1.312,0.587-1.312,1.312v1.312c0,3.902,2.625,7.132,6.562,7.757v1.43H8.075
		c-0.726,0-1.313,0.587-1.313,1.312s0.587,1.312,1.313,1.312h7.875c0.725,0,1.312-0.587,1.312-1.312s-0.587-1.312-1.312-1.312
		h-2.638v-1.43c3.938-0.626,6.562-3.855,6.562-7.757V9.75c0-0.725-0.587-1.312-1.312-1.312l0,0C17.837,8.438,17.25,9.025,17.25,9.75
		z"/>
	<path d="M12,1.125c-1.861,0-3.375,1.514-3.375,3.375v6.562c0,1.861,1.514,3.375,3.375,3.375s3.375-1.514,3.375-3.375V4.5
		C15.375,2.639,13.861,1.125,12,1.125z"/>
</g>
</svg>
