<?xml version="1.0" encoding="utf-8"?>
<!-- Generator: Adobe Illustrator 17.1.0, SVG Export Plug-In . SVG Version: 6.00 Build 0)  -->
<!DOCTYPE svg PUBLIC "-//W3C//DTD SVG 1.1//EN" "http://www.w3.org/Graphics/SVG/1.1/DTD/svg11.dtd">
<svg version="1.1" id="Layer_1" xmlns="http://www.w3.org/2000/svg" xmlns:xlink="http://www.w3.org/1999/xlink" x="0px" y="0px"
	 viewBox="0 0 16 16" style="enable-background:new 0 0 16 16;" xml:space="preserve">
	<path d="M8,1.6C4.5,1.6,1.6,4.5,1.6,8s2.9,6.4,6.4,6.4s6.4-2.9,6.4-6.4S11.5,1.6,8,1.6z M11.2,9.9c0,0.1-0.2,0.3-0.3,0.3
	c-0.1,0-0.1-0.1-0.2-0.3c-0.2-0.3-0.7-1.2-2-0.7v0.9c0,0.1-0.1,0.3-0.3,0.3c-0.1,0-0.3,0.1-0.3,0c-0.1,0-0.2-0.1-0.3-0.2L4.9,8.2
	c-0.1-0.1-0.1-0.3,0-0.4l2.8-2.2c0.1-0.1,0.1-0.1,0.2-0.1c0.1,0,0.2,0,0.4,0c0.2,0.1,0.3,0.3,0.3,0.4V7c0.6,0,1.4,0.3,1.9,0.8
	C11.4,8.8,11.2,9.8,11.2,9.9L11.2,9.9z"/>
	<path fill="#FFFFFF" d="M11.2,9.9c0,0.1-0.2,0.3-0.3,0.3c-0.1,0-0.1-0.1-0.2-0.3c-0.2-0.3-0.7-1.2-2-0.7v0.9c0,0.1-0.1,0.3-0.3,0.3
	c-0.1,0-0.3,0.1-0.3,0c-0.1,0-0.2-0.1-0.3-0.2L4.9,8.2c-0.1-0.1-0.1-0.3,0-0.4l2.8-2.2c0.1-0.1,0.1-0.1,0.2-0.1c0.1,0,0.2,0,0.4,0
	c0.2,0.1,0.3,0.3,0.3,0.4V7c0.6,0,1.4,0.3,1.9,0.8C11.4,8.8,11.2,9.8,11.2,9.9L11.2,9.9z"/>
</svg>
