<?xml version="1.0" encoding="iso-8859-1"?>
<!-- Generator: Adobe Illustrator 20.1.0, SVG Export Plug-In . SVG Version: 6.00 Build 0)  -->
<svg version="1.1" id="Layer_1" xmlns="http://www.w3.org/2000/svg" xmlns:xlink="http://www.w3.org/1999/xlink" x="0px" y="0px"
	 viewBox="0 0 24 24" style="enable-background:new 0 0 24 24;" xml:space="preserve">
<g>
	<polygon points="9.92,13.681 14.071,13.681 11.996,8.825 	"/>
	<path d="M0,3v18h24V3H0z M17.827,19.346c-0.166,0.083-0.311,0.104-0.477,0.104c-0.477,0-0.913-0.27-1.121-0.726l-1.121-2.635H8.883
		l-1.121,2.635c-0.27,0.602-0.975,0.892-1.598,0.623c-0.602-0.249-0.892-0.975-0.623-1.577l5.354-12.493
		c0.187-0.436,0.623-0.726,1.1-0.726s0.913,0.291,1.121,0.726l5.354,12.493C18.719,18.371,18.429,19.097,17.827,19.346z"/>
</g>
</svg>
