<?xml version="1.0" encoding="iso-8859-1"?>
<!-- Generator: Adobe Illustrator 20.1.0, SVG Export Plug-In . SVG Version: 6.00 Build 0)  -->
<svg version="1.1" id="Layer_1" xmlns="http://www.w3.org/2000/svg" xmlns:xlink="http://www.w3.org/1999/xlink" x="0px" y="0px"
	 viewBox="0 0 24 24" style="enable-background:new 0 0 24 24;" xml:space="preserve">
<path d="M18,3H6C4.343,3,3,4.343,3,6v12c0,1.657,1.343,3,3,3h12c1.657,0,3-1.343,3-3V6C21,4.343,19.657,3,18,3L18,3z M17,18H7
	c-0.55,0-1-0.45-1-1V7c0-0.55,0.45-1,1-1h10c0.55,0,1,0.45,1,1v10C18,17.55,17.55,18,17,18z"/>
</svg>
