<?xml version="1.0" encoding="utf-8"?>
<!-- Generator: Adobe Illustrator 17.1.0, SVG Export Plug-In . SVG Version: 6.00 Build 0)  -->
<!DOCTYPE svg PUBLIC "-//W3C//DTD SVG 1.1//EN" "http://www.w3.org/Graphics/SVG/1.1/DTD/svg11.dtd">
<svg version="1.1" xmlns="http://www.w3.org/2000/svg" xmlns:xlink="http://www.w3.org/1999/xlink" x="0px" y="0px"
	 viewBox="0 0 16 16" enable-background="new 0 0 16 16" xml:space="preserve">
	<path d="M8,14.8c-3.7,0-6.8-3.1-6.8-6.8S4.3,1.2,8,1.2s6.8,3.1,6.8,6.8S11.7,14.8,8,14.8z M8,2C4.7,2,2,4.7,2,8
		s2.7,6,6,6s6-2.7,6-6S11.3,2,8,2z"/>
	<path fill="#FFFFFF" d="M8,2C4.7,2,2,4.7,2,8s2.7,6,6,6s6-2.7,6-6S11.3,2,8,2z"/>
	<path d="M7.7,5.6c0.1-0.1,0.1-0.1,0.2-0.1c0.1,0,0.2,0,0.4,0c0.2,0.1,0.3,0.3,0.3,0.4V7c0.6,0,1.4,0.3,1.9,0.8
		c1,1,0.7,2,0.7,2.1c0,0.1-0.2,0.3-0.3,0.3c-0.1,0-0.1-0.1-0.2-0.3c-0.2-0.3-0.7-1.2-2-0.7v0.9c0,0.1-0.1,0.3-0.3,0.3
		c-0.1,0-0.3,0.1-0.3,0c-0.1,0-0.2-0.1-0.3-0.2L4.9,8.2c-0.1-0.1-0.1-0.3,0-0.4L7.7,5.6L7.7,5.6z"/>
</svg>
