<svg xmlns="http://www.w3.org/2000/svg" viewBox="-7.5 16.5 16 16"><path fill="none" stroke="#000" stroke-linecap="round" stroke-linejoin="round" stroke-miterlimit="10" d="M-2 25v4M.5 25h3l-2 4"/><path d="M6.5 18.5h-12c-1.105 0-2 .895-2 2v10c0 1.105.895 2 2 2h12c1.105 0 2-.895 2-2v-10c0-1.105-.895-2-2-2zm0 12h-12v-7h12v7zm0-8h-12v-2h12v2z"/><path d="M-4.5 20c0 .276-.224.5-.5.5s-.5-.224-.5-.5v-2c0-.276.224-.5.5-.5s.5.224.5.5v2zM-2.3 20c0 .276-.224.5-.5.5s-.5-.224-.5-.5v-2c0-.276.224-.5.5-.5s.5.224.5.5v2zM-.1 20c0 .276-.224.5-.5.5s-.5-.224-.5-.5v-2c0-.276.224-.5.5-.5s.5.224.5.5v2zM2.1 20c0 .276-.224.5-.5.5s-.5-.224-.5-.5v-2c0-.276.224-.5.5-.5s.5.224.5.5v2zM4.3 20c0 .276-.224.5-.5.5s-.5-.224-.5-.5v-2c0-.276.224-.5.5-.5s.5.224.5.5v2zM6.5 20c0 .276-.224.5-.5.5s-.5-.224-.5-.5v-2c0-.276.224-.5.5-.5s.5.224.5.5v2z"/></svg>