<svg xmlns="http://www.w3.org/2000/svg" viewBox="-7.5 16.5 16 16"><path d="M5 16.5c1.933 0 3.5 1.567 3.5 3.5S6.933 23.5 5 23.5 1.5 21.933 1.5 20s1.567-3.5 3.5-3.5zM2.5 20c0 1.38 1.12 2.5 2.5 2.5s2.5-1.12 2.5-2.5-1.12-2.5-2.5-2.5-2.5 1.12-2.5 2.5z"/><path d="M5.5 21c0 .276-.224.5-.5.5s-.5-.224-.5-.5v-2c0-.276.224-.5.5-.5s.5.224.5.5v2z"/><path d="M6.5 20c0 .276-.224.5-.5.5H4c-.276 0-.5-.224-.5-.5s.224-.5.5-.5h2c.276 0 .5.224.5.5zM1.5 20c0-.98.406-1.865 1.056-2.5H-5.5c-.552 0-1 .448-1 1v3c0 .552.448 1 1 1h8.056C1.906 21.865 1.5 20.98 1.5 20zM.5 25c0 .276-.224.5-.5.5h-6c-.276 0-.5-.224-.5-.5s.224-.5.5-.5h6c.276 0 .5.224.5.5zM5.5 27c0 .276-.224.5-.5.5H-6c-.276 0-.5-.224-.5-.5s.224-.5.5-.5H5c.276 0 .5.224.5.5zM2.5 29c0 .276-.224.5-.5.5h-8c-.276 0-.5-.224-.5-.5s.224-.5.5-.5h8c.276 0 .5.224.5.5zM-.5 31c0 .276-.224.5-.5.5h-5c-.276 0-.5-.224-.5-.5s.224-.5.5-.5h5c.276 0 .5.224.5.5z"/></svg>