<svg xmlns="http://www.w3.org/2000/svg" viewBox="0 0 16 16"><g fill-rule="evenodd" clip-rule="evenodd"><path d="M6.407 3.118c-.233-.17-.5-.258-.802-.268-.4.01-.733.172-.998.485-.223.328-.33.695-.32 1.1 0 .537.155 1.095.468 1.674.15.27.346.5.586.687.24.188.513.282.82.282.39-.015.713-.155.972-.42.125-.19.205-.382.24-.58.022-.198.033-.364.033-.5 0-.584-.15-1.173-.446-1.767-.14-.285-.325-.517-.553-.695zM6.308 9.45c-.075-.01-.268 0-.578.03-.305.042-.618.112-.937.21-.075.027-.18.07-.317.128-.137.063-.275.152-.416.268-.136.12-.25.27-.345.448-.108.188-.162.414-.162.68 0 .52.235.95.705 1.287.446.338 1.057.512 1.833.522.696-.01 1.227-.164 1.594-.463.357-.295.536-.673.536-1.136 0-.376-.122-.704-.367-.983-.258-.264-.662-.59-1.212-.975-.095-.01-.205-.015-.332-.015z"/><path d="M14 0H2C.9 0 0 .9 0 2v12c0 1.1.9 2 2 2h12c1.1 0 2-.9 2-2V2c0-1.1-.9-2-2-2zM7.96 3.146c.112.116.22.258.328.427.102.16.192.346.27.563.066.217.098.47.098.76-.01.53-.125.953-.35 1.27-.11.155-.227.297-.35.428-.136.13-.28.263-.435.398-.086.09-.168.194-.242.31-.088.12-.132.26-.132.42 0 .153.045.28.135.382.078.096.152.18.224.253l.5.412c.312.254.585.536.82.845.22.313.336.723.345 1.23 0 .717-.317 1.353-.948 1.907-.655.573-1.6.87-2.835.89-1.034-.01-1.806-.232-2.315-.665-.515-.404-.772-.887-.772-1.45 0-.274.084-.58.25-.916.163-.336.457-.632.883-.886.478-.274.98-.457 1.506-.548.52-.077.953-.12 1.297-.13-.107-.14-.2-.29-.285-.45-.097-.156-.145-.343-.145-.56 0-.132.018-.24.055-.328l.09-.254c-.167.02-.325.03-.474.03-.786-.01-1.384-.26-1.796-.745-.43-.454-.647-.98-.647-1.584 0-.728.305-1.388.916-1.98.42-.347.857-.573 1.31-.68.447-.09.866-.136 1.258-.136H9.47l-.912.533h-.91c.093.058.197.142.313.253zm6.152 4.74h-1.59v1.552h-.91V7.886h-1.55v-.033h-.01V6.97h1.56V5.388h.91V6.97h1.552v.008h.038v.908z"/></g></svg>