<svg xmlns="http://www.w3.org/2000/svg" viewBox="0 0 16 16"><title>Artboard 1</title><path d="M12.914 9.606c.236.11.378.346.378.598v4.19c0 .378-.283.66-.66.66H3.37c-.378 0-.66-.282-.66-.66v-4.19c0-.252.14-.488.377-.598C3.197 9.56 5.874 8.22 8 8.22c2.126 0 4.804 1.34 4.914 1.386zM10.646 3.59v1.323c0 1.465-1.18 2.646-2.646 2.646S5.354 6.377 5.354 4.912V3.59C5.354 2.125 6.536.944 8 .944s2.646 1.182 2.646 2.646zM9.37 9.905l-2.126 2.662-.787-.787c-.126-.126-.284-.19-.457-.19-.157 0-.33.064-.457.19-.126.126-.19.283-.19.457 0 .157.064.33.19.457l1.292 1.29c.126.127.283.19.457.19h.03c.19-.016.363-.094.473-.252l2.567-3.23c.11-.11.157-.25.157-.393 0-.19-.08-.38-.253-.505-.11-.094-.252-.142-.394-.142-.188 0-.377.08-.503.252z"/></svg>