<svg xmlns="http://www.w3.org/2000/svg" viewBox="-7.5 16.5 16 16"><path fill="none" stroke="#000" stroke-width="1.5" stroke-linecap="round" stroke-linejoin="round" stroke-miterlimit="10" d="M3.76 27.24L-.5 30.5v-3.25"/><path d="M-4.5 20.5h3.125l.875-2h-4c-1.103 0-2 .897-2 2v6c0 1.103.897 2 2 2h4v-2h-4v-6zM5.5 18.5v8H3.833l-1.73 2H5.5c1.103 0 2-.897 2-2v-6c0-1.103-.897-2-2-2z"/><path stroke="#000" stroke-width=".5" stroke-linecap="round" stroke-linejoin="round" stroke-miterlimit="10" d="M1.608 18.036L.224 21.32H2.07L.684 24.604l3.69-4.222H2.53l1.384-2.346z"/></svg>