<svg xmlns="http://www.w3.org/2000/svg" viewBox="-7.5 16.5 16 16"><path fill="none" stroke="#000" stroke-width="1.5" stroke-linecap="round" stroke-linejoin="round" stroke-miterlimit="10" d="M3.76 27.24L-.5 30.5v-3.25"/><path d="M5 16.5c1.933 0 3.5 1.567 3.5 3.5S6.933 23.5 5 23.5 1.5 21.933 1.5 20s1.567-3.5 3.5-3.5zM2.5 20c0 1.38 1.12 2.5 2.5 2.5s2.5-1.12 2.5-2.5-1.12-2.5-2.5-2.5-2.5 1.12-2.5 2.5z"/><path d="M6.06 20.354c.196.195.196.512 0 .707-.194.196-.51.196-.706 0L3.94 19.648c-.195-.195-.195-.512 0-.707.195-.195.512-.195.707 0l1.414 1.414z"/><path d="M6.06 18.94c.196.194.196.51 0 .706L4.648 21.06c-.195.195-.512.195-.707 0-.195-.195-.195-.512 0-.707l1.414-1.414c.195-.196.51-.196.707 0zM-4.5 20.5h7.05c-.032-.162-.05-.33-.05-.5 0-.565.195-1.08.51-1.5H-4.5c-1.103 0-2 .897-2 2v6c0 1.103.897 2 2 2h4v-2h-4v-6zM5.5 22.45v4.05H3.833l-1.73 2H5.5c1.103 0 2-.897 2-2v-6c0-.085-.015-.167-.025-.25-.11 1.095-.915 1.984-1.975 2.2z"/></svg>