<svg xmlns="http://www.w3.org/2000/svg" viewBox="0 0 48 48"><path d="M16 10.75c0-.414-.336-.75-.75-.75h-8.5c-.414 0-.75.336-.75.75v11.5c0 .414.336.75.75.75h8.5c.414 0 .75-.336.75-.75v-11.5zM8 21v-1.944c2-1.004 5-1.975 6-2.43V21H8zm6-9v3.84c-1 .4-4 1.355-6 2.393V12h6zM33 10.75c0-.414-.336-.75-.75-.75h-13.5c-.414 0-.75.336-.75.75v11.5c0 .414.336.75.75.75h13.5c.414 0 .75-.336.75-.75v-11.5zm-9 7.375c1.477 0 1.613.875 1.623 2.875h-3.245c.01-2 .146-2.875 1.622-2.875zM22.375 16c0-.896.73-1.625 1.625-1.625s1.625.73 1.625 1.625-.73 1.625-1.625 1.625-1.625-.73-1.625-1.625zM20 12h11v9h-4.627c-.004-1-.07-2.527-1.045-3.157.63-.427 1.046-1.087 1.046-1.905 0-1.31-1.065-2.344-2.375-2.344s-2.376 1.08-2.376 2.39c0 .82.416 1.424 1.046 1.85-.974.63-1.04 2.166-1.043 3.166H20v-9zM20 25.75c0-.414-.336-.75-.75-.75H6.75c-.414 0-.75.336-.75.75v11.5c0 .414.336.75.75.75h12.5c.414 0 .75-.336.75-.75v-11.5zM18 36H8v-9h10v9zM29 25.75c0-.414-.336-.75-.75-.75h-5.5c-.414 0-.75.336-.75.75v11.5c0 .414.336.75.75.75h5.5c.414 0 .75-.336.75-.75v-11.5zM27 27v5.364c0-.342-2-.652-3-.723V27h3zm-3 9v-3.61c2 .086 3 .51 3 .838V36h-3zM42 10.75c0-.414-.336-.75-.75-.75h-5.5c-.414 0-.75.336-.75.75v11.5c0 .414.336.75.75.75h5.5c.414 0 .75-.336.75-.75v-11.5zM40 21h-3v-9h3v9zM42 25.75c0-.414-.336-.75-.75-.75h-9.5c-.414 0-.75.336-.75.75v11.5c0 .414.336.75.75.75h9.5c.414 0 .75-.336.75-.75v-11.5zM40 27v5.88c-1-.403-4-1.134-7-1.24V27h7zm-7 9v-3.61c3 .114 6 .904 7 1.274V36h-7z"/><path d="M11.5 32.75c1.24 0 2.25-1.01 2.25-2.25s-1.01-2.25-2.25-2.25-2.25 1.01-2.25 2.25 1.01 2.25 2.25 2.25zm0-3.75c.83 0 1.5.67 1.5 1.5s-.67 1.5-1.5 1.5-1.5-.67-1.5-1.5.67-1.5 1.5-1.5z"/></svg>