<svg xmlns="http://www.w3.org/2000/svg" viewBox="-7.5 16.5 16 16"><path d="M-3 17.5c1.933 0 3.5 1.567 3.5 3.5s-1.567 3.5-3.5 3.5-3.5-1.567-3.5-3.5 1.567-3.5 3.5-3.5zM-5.5 21c0 1.38 1.12 2.5 2.5 2.5S-.5 22.38-.5 21s-1.12-2.5-2.5-2.5-2.5 1.12-2.5 2.5z"/><path d="M-2.5 22c0 .276-.224.5-.5.5s-.5-.224-.5-.5v-2c0-.276.224-.5.5-.5s.5.224.5.5v2z"/><path d="M-1.5 21c0 .276-.224.5-.5.5h-2c-.276 0-.5-.224-.5-.5s.224-.5.5-.5h2c.276 0 .5.224.5.5z"/><path fill="none" stroke="#000" stroke-width="2" stroke-linecap="round" stroke-linejoin="round" stroke-miterlimit="10" d="M.5 21.5h5M-4.5 24.5h5M-4.5 27.5h5"/><path d="M4.907 30.51c-.41 0-.743-.333-.743-.743s.333-.743.743-.743.743.332.743.743c0 .41-.333.743-.743.743zm.865-2.85l-.122.072v.225c0 .41-.332.743-.743.743s-.743-.333-.743-.743v-.464c0-.593.482-.887.834-1.102.453-.275.65-.43.65-.754 0-.632-.666-.65-.742-.65-.124 0-.743.03-.743.65 0 .41-.332.743-.743.743s-.743-.334-.743-.744c0-1.402 1.12-2.136 2.228-2.136 1.08 0 2.228.75 2.228 2.136.003 1.19-.884 1.733-1.36 2.023z"/></svg>