<svg xmlns="http://www.w3.org/2000/svg" viewBox="0.5 16.5 16 16"><path d="M8.5 17.5c-3.86 0-7 3.14-7 7s3.14 7 7 7 7-3.14 7-7-3.14-7-7-7zm-1.587 1.16c-.578.626-1.054 1.385-1.408 2.237-.47-.17-.916-.378-1.333-.628.744-.762 1.686-1.323 2.74-1.61zM3.565 21c.506.314 1.05.577 1.627.785-.21.71-.338 1.465-.375 2.242h-2.35c.086-1.122.48-2.16 1.098-3.027zm-1.1 3.97h2.352c.037.78.165 1.535.375 2.245-.575.207-1.118.47-1.627.785-.618-.87-1.012-1.906-1.1-3.03zm1.707 3.76c.42-.25.865-.458 1.334-.63.353.855.832 1.613 1.41 2.24-1.058-.288-2-.85-2.744-1.61zm3.856 1.38c-.675-.582-1.226-1.366-1.62-2.28.527-.127 1.067-.206 1.62-.235v2.516zm0-3.46c-.66.032-1.31.13-1.938.288-.18-.62-.294-1.284-.332-1.968h2.27v1.68zm0-2.623h-2.27c.04-.683.152-1.346.333-1.967.63.158 1.278.257 1.94.29v1.677zm0-2.622c-.553-.03-1.092-.11-1.62-.235.394-.915.945-1.7 1.62-2.28v2.515zm4.8-1.136c-.418.248-.867.455-1.336.627-.35-.852-.83-1.61-1.406-2.236 1.056.287 1.997.848 2.74 1.61zM8.97 18.89c.674.58 1.225 1.365 1.616 2.28-.523.126-1.067.205-1.616.235V18.89zm0 3.46c.66-.033 1.31-.13 1.937-.29.18.62.294 1.284.33 1.967H8.972V22.35zm0 2.62h2.268c-.035.685-.15 1.348-.332 1.97-.626-.16-1.276-.258-1.935-.29v-1.68zm0 5.14v-2.515c.55.03 1.092.108 1.616.234-.39.913-.943 1.7-1.616 2.28zm1.114.23c.576-.626 1.053-1.385 1.406-2.237.468.17.918.378 1.335.628-.744.76-1.686 1.322-2.74 1.61zM13.434 28c-.506-.313-1.052-.577-1.627-.785.21-.71.337-1.466.375-2.244h2.352c-.09 1.124-.48 2.16-1.1 3.03zm-1.252-3.973c-.038-.778-.166-1.532-.375-2.242.575-.208 1.12-.473 1.627-.785.62.868 1.012 1.905 1.1 3.027h-2.352z"/><circle cx="8.5" cy="24.5" r="7" fill="none" stroke="#000" stroke-width="2" stroke-miterlimit="10"/></svg>