<svg xmlns="http://www.w3.org/2000/svg" viewBox="-7.5 16.5 16 16"><path d="M5 18.797c-1.864-.06-3.126.985-3.787 3.14.34-.14.67-.212.993-.212.68 0 .98.382.9 1.147-.04.463-.34 1.138-.9 2.023-.563.886-.983 1.33-1.262 1.33-.362 0-.692-.686-.994-2.054-.1-.402-.282-1.428-.54-3.08-.242-1.53-.883-2.243-1.925-2.143-.44.04-1.1.444-1.982 1.208-.643.584-1.294 1.168-1.956 1.752l.63.814c.603-.422.955-.632 1.053-.632.462 0 .893.724 1.294 2.172.36 1.33.722 2.658 1.084 3.986.538 1.45 1.202 2.174 1.982 2.174 1.262 0 2.808-1.187 4.63-3.563 1.764-2.274 2.675-4.066 2.736-5.375.08-1.75-.572-2.645-1.955-2.685z"/></svg>