<svg xmlns="http://www.w3.org/2000/svg" viewBox="-7.5 16.5 16 16"><path d="M.076 23.21c-.603 0-.83.415-.83 1.3l-.026.006h.56c.162 0 .296.134.296.297v1.726c0 .162-.134.296-.297.296h-1.5c-.164 0-.298-.133-.298-.297v-1.727c0-.015.002-.03.005-.045.01-1.31.302-2.5 2.09-2.605v1.046zm2.944 0c-.603 0-.83.415-.83 1.3l-.026.006h.56c.162 0 .296.134.296.297v1.726c0 .162-.133.296-.297.296h-1.5c-.163 0-.297-.133-.297-.297v-1.727c0-.015.002-.03.005-.045.01-1.31.303-2.5 2.09-2.605v1.046zM6.5 19.5c0-.55-.45-1-1-1h-10c-.55 0-1 .45-1 1v10c0 .55.45 1 1 1h10c.55 0 1-.45 1-1v-10z"/></svg>