<svg xmlns="http://www.w3.org/2000/svg" viewBox="-7.5 16.5 16 16"><path d="M3.5 20.5c-1.092 0-2.222 1.06-2.222 2.364v1.182c0 1.303 1.13 2.364 2.222 2.364s2.222-1.06 2.222-2.364v-1.182c0-1.304-1.13-2.364-2.222-2.364zM7.224 28.224C7.138 28.178 5.1 27.09 3.5 27.09c-.49 0-1.02.108-1.525.252.328.297.525.722.525 1.184v1.382c0 .21-.042.41-.115.592H7c.276 0 .5-.24.5-.538v-1.256c0-.204-.107-.39-.276-.482zM-3 19.5c-1.228 0-2.5 1.166-2.5 2.6v1.3c0 1.434 1.272 2.6 2.5 2.6s2.5-1.166 2.5-2.6v-1.3c0-1.434-1.272-2.6-2.5-2.6zM1.19 27.997C1.09 27.947-1.2 26.75-3 26.75s-4.092 1.196-4.19 1.247c-.19.1-.31.305-.31.53v1.382c0 .326.252.59.562.59H.937c.31 0 .562-.264.562-.59v-1.383c0-.225-.12-.43-.31-.53z"/></svg>