<svg xmlns="http://www.w3.org/2000/svg" viewBox="0 0 16 16"><title>Artboard 1</title><path d="M14.868 13.74c0 .633-.506 1.14-1.138 1.14-.653 0-1.16-.507-1.16-1.14 0-1.39-.273-2.737-.8-4.022-.526-1.222-1.263-2.318-2.21-3.266-.95-.948-2.044-1.685-3.266-2.212-1.285-.527-2.634-.8-4.024-.8-.632 0-1.138-.528-1.138-1.16s.506-1.158 1.138-1.158c1.706 0 3.35.337 4.91.99 1.495.653 2.843 1.56 4 2.718 1.16 1.16 2.066 2.486 2.698 4.003.674 1.538.99 3.2.99 4.908zm-4.11-3.6c.486 1.136.717 2.358.717 3.6 0 .633-.506 1.14-1.138 1.14-.652 0-1.158-.507-1.158-1.14 0-1.853-.717-3.58-2.024-4.886S4.124 6.83 2.27 6.83c-.632 0-1.138-.526-1.138-1.158s.506-1.158 1.138-1.158c1.243 0 2.465.253 3.582.737 1.116.465 2.085 1.118 2.928 1.96.864.864 1.517 1.833 1.98 2.93zM6.4 9.61c1.097 1.096 1.686 2.57 1.686 4.128 0 .632-.506 1.138-1.138 1.138-.653 0-1.16-.506-1.16-1.138 0-1.938-1.58-3.517-3.517-3.517-.633 0-1.14-.527-1.14-1.16 0-.63.507-1.158 1.14-1.158 1.56 0 3.013.612 4.13 1.707zm-1.916 3.58c0 .928-.758 1.665-1.664 1.665-.927 0-1.664-.737-1.664-1.664 0-.906.737-1.664 1.664-1.664.906-.002 1.664.757 1.664 1.663z" fill="#010101"/></svg>