<svg xmlns="http://www.w3.org/2000/svg" viewBox="-7.5 16.5 16 16"><path d="M6.706 19.764L5.09 18.097c-.82-.848-2.152-.848-2.974 0l-2.353 2.427c-.78.803-.818 2.08-.12 2.932l1.132-1.17c-.09-.2-.057-.447.104-.61l2.35-2.428c.206-.21.54-.21.745 0l1.615 1.667c.205.212.205.556 0 .767L3.237 24.11c-.164.17-.41.2-.606.1L1.5 25.374c.827.73 2.07.693 2.854-.113l2.352-2.427c.822-.85.822-2.223 0-3.07zM.217 26.7c.1.202.07.456-.096.625l-2.352 2.427c-.205.212-.54.212-.743 0l-1.616-1.667c-.205-.212-.205-.556 0-.767l2.352-2.427c.16-.164.397-.198.592-.106l1.132-1.17c-.826-.72-2.062-.68-2.84.124l-2.353 2.427c-.82.848-.82 2.222 0 3.07l1.615 1.667c.823.848 2.154.848 2.975 0l2.353-2.427c.782-.807.818-2.09.11-2.944L.217 26.7z"/><path d="M-2.44 27.52c.307.32.807.32 1.115 0l4.814-4.966c.308-.318.308-.833 0-1.15s-.81-.32-1.117-.002L-2.44 26.37c-.31.318-.31.834 0 1.15z"/></svg>