<svg xmlns="http://www.w3.org/2000/svg" viewBox="-7.5 16.5 16 16"><path d="M4.833 29.267c0 .867-.433 1.733-1.3 2.167 0-.64-.236-1.513-1.055-1.928-.088.243-.178.496-.267.766-.058.177-.223.296-.41.296H-.8c-.186 0-.352-.12-.41-.296-.09-.27-.18-.522-.268-.766-.82.415-1.055 1.29-1.055 1.928-.867-.433-1.3-1.3-1.3-2.167 0-.844.67-1.69 1.418-2.285-.33-.998-.55-2.002-.55-3.35 0-2.64 1.67-4.957 3.225-5.993.073-.05.157-.074.24-.074s.168.024.24.073c1.554 1.035 3.226 3.352 3.226 5.993 0 1.347-.22 2.35-.55 3.35.747.595 1.417 1.44 1.417 2.284zM.5 24.067c.957 0 1.733-.776 1.733-1.733 0-.957-.776-1.733-1.733-1.733-.957 0-1.733.777-1.733 1.734S-.457 24.067.5 24.067z"/></svg>