<svg xmlns="http://www.w3.org/2000/svg" viewBox="-5.5 10.5 16 16"><path d="M2.5 24s-6-3.973-6-7.473C-3.5 14.807-2.09 13-.35 13 .913 13 2 13.74 2.5 14.8c.504-1.06 1.59-1.8 2.85-1.8 1.74 0 3.15 1.807 3.15 3.527 0 3.39-6 7.473-6 7.473z" fill="none" stroke="#272525" stroke-linecap="round" stroke-linejoin="round"/><path d="M5.35 14c1.19 0 2.15 1.382 2.15 2.527 0 1.906-2.87 4.672-5.004 6.25-1.73-1.268-4.996-4.1-4.996-6.25C-2.5 15.382-1.54 14-.35 14c.83 0 1.593.482 1.947 1.228.166.35.517.57.903.57s.737-.22.903-.57C3.758 14.482 4.523 14 5.35 14m0-1c-1.26 0-2.346.74-2.85 1.8C1.997 13.74.912 13-.35 13c-1.74 0-3.15 1.807-3.15 3.527 0 3.5 6 7.473 6 7.473s6-4.084 6-7.473C8.5 14.807 7.09 13 5.35 13z"/></svg>