<svg xmlns="http://www.w3.org/2000/svg" viewBox="-7.5 16.5 16 16"><path d="M.5 16.5c-1.654 0-3 1.346-3 3V21c0 1.654 1.346 3 3 3s3-1.346 3-3v-1.5c0-1.654-1.346-3-3-3zM6.085 26.33C5.957 26.264 2.9 24.75.5 24.75s-5.457 1.515-5.585 1.58c-.255.126-.415.386-.415.67v4.75c0 .414.336.75.75.75h10.5c.414 0 .75-.336.75-.75V27c0-.284-.16-.544-.415-.67zm-2.89 1.236l-2.928 3.66c-.13.162-.323.26-.53.273h-.04c-.195 0-.38-.077-.52-.214l-1.463-1.464c-.143-.143-.215-.33-.214-.518 0-.187.07-.374.214-.517.143-.143.33-.215.518-.214.187 0 .374.072.517.214l.885.886 2.417-3.02c.145-.182.357-.276.572-.276.16 0 .322.053.457.16.182.145.276.358.276.573 0 .16-.053.32-.16.456z"/></svg>