<svg xmlns="http://www.w3.org/2000/svg" viewBox="-5.5 10.5 16 16"><path d="M2.5 24s-6-3.973-6-7.473C-3.5 14.807-2.089 13-.349 13c1.261 0 2.347.739 2.85 1.799A3.154 3.154 0 0 1 5.351 13C7.089 13 8.5 14.807 8.5 16.527c0 3.389-6 7.473-6 7.473z" fill="none" stroke="#272525" stroke-linecap="round" stroke-linejoin="round"/><path d="M5.351 14c1.19 0 2.149 1.382 2.149 2.527 0 1.906-2.869 4.672-5.004 6.249C.766 21.509-2.5 18.677-2.5 16.527-2.5 15.382-1.541 14-.349 14c.828 0 1.592.482 1.946 1.228a1 1 0 0 0 1.806 0A2.167 2.167 0 0 1 5.351 14m0-1A3.156 3.156 0 0 0 2.5 14.799 3.152 3.152 0 0 0-.349 13c-1.74 0-3.151 1.807-3.151 3.527 0 3.5 6 7.473 6 7.473s6-4.084 6-7.473C8.5 14.807 7.089 13 5.351 13z"/></svg>