<svg xmlns="http://www.w3.org/2000/svg" viewBox="-7.5 16.5 16 16"><path d="M.5 21.5l1.123 3.455h3.633l-2.94 2.135 1.124 3.455L.5 28.41l-2.94 2.135 1.124-3.455-2.94-2.135H-.62L.5 21.5m4.756 3.455h.005M.5 20c-.65 0-1.226.418-1.427 1.036l-.786 2.418h-2.543c-.65 0-1.226.418-1.427 1.036-.2.618.02 1.295.545 1.677l2.057 1.495-.787 2.418c-.2.618.02 1.295.545 1.677.263.19.572.286.882.286s.62-.095.882-.286L.5 30.264l2.057 1.495c.263.19.572.285.882.285.308 0 .618-.095.88-.286.527-.383.747-1.06.546-1.678l-.786-2.42 2.023-1.47c.395-.27.655-.723.655-1.237 0-.828-.67-1.5-1.497-1.5H2.714l-.786-2.418C1.727 20.417 1.15 20 .5 20z"/><path d="M4.5 17.5v3.08l-2.627 1.463-.407-1.198c-.138-.405-.518-.678-.945-.678-.428 0-.808.27-.947.675l-.414 1.206-2.66-1.47V17.5h8m1-1h-10v4.667L-.282 23.5l.8-2.333.795 2.333L5.5 21.167V16.5z"/><path fill="none" stroke="#000" stroke-linecap="round" stroke-linejoin="round" stroke-miterlimit="10" d="M-3.5 19h8"/></svg>