<svg xmlns="http://www.w3.org/2000/svg" viewBox="-7.5 16.5 16 16"><path d="M.5 17.5c-3.866 0-7 3.134-7 7s3.134 7 7 7 7-3.134 7-7-3.134-7-7-7zm0 11.72c-.552 0-1-.45-1-1 0-.553.448-1 1-1s1 .447 1 1c0 .55-.448 1-1 1zm1.164-3.84c-.058.035-.113.067-.164.1v.3c0 .553-.447 1-1 1s-1-.447-1-1v-.624c0-.798.65-1.194 1.123-1.483.61-.372.877-.58.877-1.017 0-.85-.897-.875-1-.875-.167 0-1 .043-1 .876 0 .552-.447 1-1 1s-1-.448-1-1c0-1.888 1.51-2.875 3-2.875 1.454 0 3 1.01 3 2.876 0 1.605-1.194 2.333-1.836 2.724z"/></svg>