<svg xmlns="http://www.w3.org/2000/svg" viewBox="0.5 16.5 16 16"><path d="M8.5 17.5c-3.86 0-7 3.14-7 7 0 3.859 3.14 7 7 7s7-3.141 7-7c0-3.86-3.14-7-7-7zm-1.587 1.161a7.55 7.55 0 0 0-1.408 2.236 7.674 7.674 0 0 1-1.333-.628 6.042 6.042 0 0 1 2.741-1.608zM3.565 21a8.664 8.664 0 0 0 1.627.785 9.522 9.522 0 0 0-.375 2.242H2.466A6.01 6.01 0 0 1 3.565 21zm-1.099 3.971h2.351c.037.778.165 1.534.375 2.244A8.722 8.722 0 0 0 3.565 28a6.02 6.02 0 0 1-1.099-3.029zm1.706 3.759a7.909 7.909 0 0 1 1.334-.629 7.55 7.55 0 0 0 1.409 2.238 6.05 6.05 0 0 1-2.743-1.609zm3.856 1.381c-.675-.583-1.226-1.367-1.619-2.282a8.95 8.95 0 0 1 1.619-.234v2.516zm0-3.46c-.66.031-1.309.13-1.938.287a8.791 8.791 0 0 1-.332-1.968h2.269v1.681zm0-2.624H5.759a8.792 8.792 0 0 1 .332-1.967 9.907 9.907 0 0 0 1.938.289v1.678zm0-2.622a9.053 9.053 0 0 1-1.619-.235c.393-.915.944-1.701 1.619-2.281v2.516zm4.799-1.136a7.92 7.92 0 0 1-1.335.628 7.505 7.505 0 0 0-1.406-2.236 6.037 6.037 0 0 1 2.741 1.608zm-3.855-1.38c.674.58 1.225 1.366 1.616 2.281a9.02 9.02 0 0 1-1.616.235v-2.516zm0 3.46a9.772 9.772 0 0 0 1.937-.29c.18.622.295 1.285.331 1.968H8.972v-1.678zm0 2.622h2.268a8.642 8.642 0 0 1-.332 1.969 9.73 9.73 0 0 0-1.935-.289v-1.68zm0 5.14v-2.516a8.93 8.93 0 0 1 1.616.234c-.391.914-.943 1.701-1.616 2.282zm1.114.228a7.566 7.566 0 0 0 1.406-2.236c.468.171.918.378 1.335.628a6.06 6.06 0 0 1-2.741 1.608zM13.434 28a8.757 8.757 0 0 0-1.627-.785c.209-.71.337-1.466.375-2.244h2.352a6.03 6.03 0 0 1-1.1 3.029zm-1.252-3.973a9.608 9.608 0 0 0-.375-2.242A8.82 8.82 0 0 0 13.434 21a6.002 6.002 0 0 1 1.1 3.027h-2.352z"/><circle cx="8.5" cy="24.5" r="7" fill="none" stroke="#000" stroke-width="2" stroke-miterlimit="10"/></svg>