<svg xmlns="http://www.w3.org/2000/svg" viewBox="-7.5 16.5 16 16"><path fill="none" stroke="#000" stroke-width="1.5" stroke-linecap="round" stroke-linejoin="round" stroke-miterlimit="10" d="M4.5 26.24L1.24 28.5v-2.253"/><path d="M6.5 19.5h-8c-1.103 0-2 .897-2 2v4c0 1.103.897 2 2 2h3v-2h-3v-4h8v4h-2l-1.73 2H6.5c1.103 0 2-.897 2-2v-4c0-1.103-.897-2-2-2z"/><path d="M3.5 29.5v1h-8v-12h5l3 3h1.928c-.084-.324-.24-.626-.474-.873l-3.25-3.5C1.326 16.727.8 16.5.25 16.5H-4.5c-1.105 0-2 .895-2 2v12c0 1.105.895 2 2 2h8c1.105 0 2-.895 2-2v-2l-2 1z"/></svg>