<svg xmlns="http://www.w3.org/2000/svg" viewBox="-7.5 17.5 16 16"><path d="M3.07 19.426l-.418 4.54 3.994 2.2-4.448 1.005-.858 4.48-2.33-3.92-4.523.57 3.006-3.428-1.938-4.127 4.19 1.8 3.326-3.12m0-1.853c-.46 0-.916.172-1.267.5l-2.442 2.29-3.073-1.322c-.236-.1-.485-.15-.73-.15-.493 0-.977.196-1.334.564-.536.553-.673 1.38-.346 2.077l1.422 3.03-2.207 2.514c-.508.578-.604 1.412-.244 2.09.323.612.957.986 1.636.986.077 0 .154-.005.232-.015l3.32-.417 1.708 2.875c.338.568.947.907 1.593.907.106 0 .212-.01.32-.028.758-.133 1.356-.72 1.5-1.477l.63-3.286 3.265-.74c.75-.17 1.32-.785 1.427-1.548s-.267-1.512-.94-1.884L4.61 22.923l.307-3.332c.07-.766-.34-1.496-1.032-1.834-.26-.12-.538-.184-.814-.184z"/></svg>