<svg xmlns="http://www.w3.org/2000/svg" viewBox="0 0 16 16"><title>Artboard 1</title><path d="M3.897 6.33c0 .74-.58 1.333-1.32 1.333-.737 0-1.33-.594-1.33-1.332s.593-1.318 1.33-1.318c.74 0 1.32.58 1.32 1.32zm2.388 3.972c0 1.293-1.07 2.36-2.388 2.36a2.376 2.376 0 0 1-2.36-2.36 2.378 2.378 0 0 1 2.36-2.374 2.384 2.384 0 0 1 2.388 2.374zm-4.42-3.97c0 .395.317.71.713.71.37 0 .686-.316.686-.71a.7.7 0 0 0-.686-.687.704.704 0 0 0-.712.686zm1.07 0c0 .223-.16.382-.357.382a.375.375 0 0 1-.383-.383c0-.197.17-.355.383-.355.198 0 .356.158.356.356zm8.217-1.57c0 1.885-1.53 3.416-3.417 3.416s-3.43-1.53-3.43-3.417 1.543-3.43 3.43-3.43 3.417 1.545 3.417 3.43zm-4.287 8.93c0 .54-.422.976-.963.976s-.99-.435-.99-.976c0-.54.45-.976.99-.976s.963.435.963.976zm-1.504 0c0 .303.252.528.542.528a.52.52 0 0 0 .528-.528.54.54 0 0 0-.528-.54c-.29 0-.54.25-.54.54zm.503-8.93c0 1.015.844 1.846 1.873 1.846s1.86-.83 1.86-1.847c0-1.028-.83-1.872-1.86-1.872s-1.873.845-1.873 1.873zm6.675 6.74a2.817 2.817 0 0 1-5.633 0 2.817 2.817 0 0 1 2.81-2.836 2.82 2.82 0 0 1 2.823 2.836zm-4.288 0a1.47 1.47 0 0 0 1.464 1.477c.83 0 1.477-.674 1.477-1.478 0-.818-.645-1.477-1.476-1.477-.817 0-1.464.66-1.464 1.477zm2.256 0a.782.782 0 0 1-.79.778.78.78 0 0 1-.78-.778c0-.45.344-.805.78-.805a.79.79 0 0 1 .79.805zm4.248-4.09c0 .977-.765 1.755-1.74 1.755a1.753 1.753 0 0 1 0-3.508c.975 0 1.74.79 1.74 1.753zm-.277 2.943c0 .37-.317.686-.712.686a.7.7 0 0 1-.686-.685c0-.396.316-.712.685-.712.395 0 .712.316.712.712z" fill="#010101"/></svg>