<svg xmlns="http://www.w3.org/2000/svg" viewBox="-7.5 16.5 16 16"><path fill="none" stroke="#000" stroke-width=".5" stroke-linecap="round" stroke-linejoin="round" stroke-miterlimit="10" d="M-5.5 17.5v3h2v-2l-1-1z"/><path d="M-4.5 17.5l1 1v2h-2v-3h1m0-.5h-1c-.276 0-.5.224-.5.5v3c0 .276.224.5.5.5h2c.276 0 .5-.224.5-.5v-2c0-.133-.053-.26-.146-.354l-1-1C-4.24 17.053-4.366 17-4.5 17z"/><path fill="none" stroke="#000" stroke-width=".5" stroke-linecap="round" stroke-linejoin="round" stroke-miterlimit="10" d="M-5.5 23v3h2v-2l-1-1z"/><path d="M-4.5 23l1 1v2h-2v-3h1m0-.5h-1c-.276 0-.5.224-.5.5v3c0 .276.224.5.5.5h2c.276 0 .5-.224.5-.5v-2c0-.133-.053-.26-.146-.354l-1-1c-.094-.093-.22-.146-.354-.146z"/><path fill="none" stroke="#000" stroke-width=".5" stroke-linecap="round" stroke-linejoin="round" stroke-miterlimit="10" d="M-5.5 28.5v3h2v-2l-1-1z"/><path d="M-4.5 28.5l1 1v2h-2v-3h1m0-.5h-1c-.276 0-.5.224-.5.5v3c0 .276.224.5.5.5h2c.276 0 .5-.224.5-.5v-2c0-.133-.053-.26-.146-.354l-1-1C-4.24 28.053-4.366 28-4.5 28z"/><path fill="none" stroke="#000" stroke-width="2" stroke-linecap="round" stroke-linejoin="round" stroke-miterlimit="10" d="M-.5 19h7M-.5 24.5h7M-.5 30h7"/></svg>