<svg xmlns="http://www.w3.org/2000/svg" viewBox="-7.5 16.5 16 16"><path d="M-.76 20.759a4.571 4.571 0 0 0-1.508.447 4.21 4.21 0 0 0-1.193.88 3.813 3.813 0 0 0-.775 1.227 3.675 3.675 0 0 0-.248 1.487v3.494c0 .114.1.206.224.206h3.53c.123 0 .223-.092.223-.206v-3.515c0-.115-.1-.206-.223-.206h-1.41c.023-.436.13-.813.314-1.123.203-.339.596-.603 1.169-.783a.21.21 0 0 0 .152-.194v-1.508a.2.2 0 0 0-.076-.155.257.257 0 0 0-.179-.051zM5.245 20.759a4.571 4.571 0 0 0-1.508.447 4.21 4.21 0 0 0-1.193.88 3.813 3.813 0 0 0-.775 1.227 3.675 3.675 0 0 0-.248 1.487v3.494c0 .114.1.206.224.206h3.53c.123 0 .223-.092.223-.206v-3.515c0-.115-.1-.206-.223-.206h-1.41c.023-.436.13-.813.314-1.123.203-.339.596-.603 1.169-.783a.21.21 0 0 0 .152-.194v-1.508a.2.2 0 0 0-.076-.155.255.255 0 0 0-.179-.051z"/></svg>