<svg xmlns="http://www.w3.org/2000/svg" viewBox="0 0 48 48"><path d="M44 1c1.65 0 3 1.35 3 3v40c0 1.65-1.35 3-3 3H4c-1.65 0-3-1.35-3-3V4c0-1.65 1.35-3 3-3h40m0-1H4C1.794 0 0 1.794 0 4v40c0 2.206 1.794 4 4 4h40c2.206 0 4-1.794 4-4V4c0-2.206-1.794-4-4-4z"/><path d="M14 11c0-.55.45-1 1-1h18c.55 0 1 .45 1 1v18c0 .55-.45 1-1 1H15c-.55 0-1-.45-1-1V11z" fill="none" stroke="#000" stroke-width="2" stroke-linecap="round" stroke-linejoin="round" stroke-miterlimit="10"/><path d="M14 20c9.333 0 20 7 20 7" fill="none" stroke="#000" stroke-width=".75" stroke-linecap="round" stroke-linejoin="round" stroke-miterlimit="10"/><path d="M23.5 14a1.5 1.5 0 1 1 0 3 1.5 1.5 0 0 1 0-3m0-.75c-1.24 0-2.25 1.01-2.25 2.25s1.01 2.25 2.25 2.25 2.25-1.01 2.25-2.25-1.01-2.25-2.25-2.25z"/><path d="M34 18c-4 0-9.47 4.253-9.47 4.253" fill="none" stroke="#000" stroke-width=".75" stroke-linecap="round" stroke-linejoin="round" stroke-miterlimit="10"/><path fill="none" stroke="#000" stroke-linecap="round" stroke-linejoin="round" stroke-miterlimit="10" d="M9 23l-3-2.5L9 18M39 23l3-2.5-3-2.5M12.5 38.5c0 .55-.45 1-1 1h-3c-.55 0-1-.45-1-1v-3c0-.55.45-1 1-1h3c.55 0 1 .45 1 1v3zM19.5 38.5c0 .55-.45 1-1 1h-3c-.55 0-1-.45-1-1v-3c0-.55.45-1 1-1h3c.55 0 1 .45 1 1v3zM26.5 38.5c0 .55-.45 1-1 1h-3c-.55 0-1-.45-1-1v-3c0-.55.45-1 1-1h3c.55 0 1 .45 1 1v3zM33.5 38.5c0 .55-.45 1-1 1h-3c-.55 0-1-.45-1-1v-3c0-.55.45-1 1-1h3c.55 0 1 .45 1 1v3zM40.5 38.5c0 .55-.45 1-1 1h-3c-.55 0-1-.45-1-1v-3c0-.55.45-1 1-1h3c.55 0 1 .45 1 1v3z"/></svg>