<svg xmlns="http://www.w3.org/2000/svg" viewBox="-15.5 8.5 32 32"><path d="M-3.954 13.5l1.718 2.638.888 1.362h13.581c.687 0 1.267.454 1.267.99v14.02c0 .537-.58.99-1.267.99h-23.467c-.687 0-1.267-.454-1.267-.99V14.49c0-.537.58-.99 1.266-.99h7.28m.5-3h-7.78c-2.352 0-4.266 1.79-4.266 3.99v18.02c0 2.2 1.914 3.99 4.267 3.99h23.467c2.353 0 4.267-1.79 4.267-3.99V18.49c0-2.2-1.913-3.99-4.266-3.99H.278l-2.225-3.415a2.21 2.21 0 0 0-1.508-.585z"/><path d="M-14.5 15.5h15v2h-15zM6 29.5H0c-.91 0-1.5-.59-1.5-1.5v-5.578a.5.5 0 0 1 1 0V28c0 .415.2.5.5.5h6a.5.5 0 0 1 0 1z"/><path d="M2 25.5a.502.502 0 0 1-.355-.147L-1 22.707l-2.647 2.646a.5.5 0 0 1-.707-.707l3-3a.5.5 0 0 1 .707 0l3 3A.5.5 0 0 1 2 25.5z"/></svg>