<svg xmlns="http://www.w3.org/2000/svg" viewBox="-7.5 16.5 16 16"><path d="M18.03 19.5v6.17a1.234 1.234 0 0 0 2.47 0V18.5a2.5 2.5 0 0 0-5 0v8.7a3.773 3.773 0 0 0 7.545 0v-8.7" fill="none" stroke="#000" stroke-width="1.5" stroke-linecap="round" stroke-miterlimit="10"/><path d="M-1.687 31.634a4.508 4.508 0 0 1-3.198-1.322 4.527 4.527 0 0 1 0-6.396l6.152-6.152a3.25 3.25 0 1 1 4.596 4.596l-5.07 5.07c-.75.75-2.057.75-2.807 0-.375-.375-.58-.873-.58-1.403s.206-1.028.58-1.402L2.35 20.26a.75.75 0 0 1 1.06 1.062l-4.363 4.364a.484.484 0 0 0 0 .685c.182.184.5.184.684 0l5.072-5.07c.33-.33.512-.77.512-1.237a1.74 1.74 0 0 0-.512-1.237 1.754 1.754 0 0 0-2.475 0l-6.152 6.152a3.026 3.026 0 0 0 0 4.275 3.026 3.026 0 0 0 4.274 0L6.6 23.1a.75.75 0 0 1 1.06 1.06L1.51 30.315c-.88.88-2.04 1.32-3.197 1.32z"/><path d="M-17.5 15a2.5 2.5 0 0 1 5 0" fill="none" stroke="#000" stroke-width="1.5" stroke-miterlimit="10"/></svg>