<svg xmlns="http://www.w3.org/2000/svg" viewBox="-7.5 16.5 16 16"><path d="M.5 17.5c-3.866 0-7 3.134-7 7s3.134 7 7 7 7-3.134 7-7-3.134-7-7-7zm3.56 5.68l-1.45 1.535 1.04 1.837c.142.254.105.57-.094.784-.2.214-.512.273-.776.15L.874 26.58l-1.426 1.555c-.1.108-.228.177-.365.204-.135.025-.28.01-.41-.05-.264-.124-.418-.403-.38-.693l.272-2.093-1.92-.876c-.265-.12-.422-.4-.386-.69.034-.29.25-.518.54-.575l2.074-.388.24-2.097c.032-.29.25-.524.535-.58.285-.056.574.08.713.336l1.01 1.853 2.068-.42c.296-.043.576.076.718.33.144.255.104.572-.097.784z"/></svg>