<svg xmlns="http://www.w3.org/2000/svg" viewBox="-7.5 16.5 16 16"><path d="M18.03 19.5v6.17c0 .683.554 1.235 1.235 1.235.682 0 1.234-.553 1.234-1.234V18.5c0-1.38-1.12-2.5-2.5-2.5s-2.5 1.12-2.5 2.5v8.7c0 2.085 1.688 3.774 3.772 3.774s3.773-1.69 3.773-3.773v-8.7" fill="none" stroke="#000" stroke-width="1.5" stroke-linecap="round" stroke-miterlimit="10"/><path d="M-1.687 31.634c-1.158 0-2.316-.44-3.198-1.322-1.764-1.764-1.764-4.633 0-6.396l6.152-6.152c1.267-1.27 3.328-1.268 4.596 0 .614.614.952 1.43.952 2.298 0 .868-.338 1.685-.952 2.298l-5.07 5.07c-.75.75-2.057.75-2.807 0-.375-.375-.58-.873-.58-1.403s.206-1.028.58-1.402L2.35 20.26c.293-.292.768-.292 1.06 0s.294.77 0 1.062l-4.363 4.364c-.09.092-.142.213-.142.342 0 .13.05.25.142.343.182.184.5.184.684 0l5.072-5.07c.33-.33.512-.77.512-1.237 0-.467-.182-.906-.512-1.237-.682-.682-1.792-.68-2.475 0l-6.152 6.152c-1.18 1.18-1.18 3.097 0 4.275 1.18 1.178 3.096 1.178 4.274 0L6.6 23.1c.293-.293.768-.293 1.06 0s.294.768 0 1.06L1.51 30.315c-.88.88-2.04 1.32-3.197 1.32z"/><path d="M-17.5 15c0-1.38 1.12-2.5 2.5-2.5s2.5 1.12 2.5 2.5" fill="none" stroke="#000" stroke-width="1.5" stroke-miterlimit="10"/></svg>