<svg xmlns="http://www.w3.org/2000/svg" viewBox="0 0 48 48"><path d="M35 11c0-1.103-.897-2-2-2H15c-1.103 0-2 .897-2 2v18c0 1.103.897 2 2 2h18c1.103 0 2-.897 2-2V11zm-2.002 14.948c-1.518-.893-4.336-2.445-7.708-3.788 1.3-.928 4.757-3.224 7.71-3.692l-.002 7.48zM33 11v6.708c-3.576.514-7.698 3.494-8.542 4.13-2.953-1.115-6.263-2.023-9.458-2.185V11h18zM15 29v-8.596c7.406.388 15 4.9 18 6.416V29H15z"/><path d="M23.5 17.75c1.24 0 2.25-1.01 2.25-2.25s-1.01-2.25-2.25-2.25-2.25 1.01-2.25 2.25 1.01 2.25 2.25 2.25zm0-3.75c.83 0 1.5.67 1.5 1.5s-.67 1.5-1.5 1.5-1.5-.67-1.5-1.5.67-1.5 1.5-1.5zM9 23.5c.144 0 .286-.06.385-.18.177-.212.148-.528-.064-.705L6.78 20.5l2.54-2.116c.212-.177.24-.492.064-.705-.178-.213-.492-.24-.705-.065l-3 2.5c-.114.096-.18.237-.18.385s.066.29.18.384l3 2.5c.093.078.207.116.32.116zM42.32 20.116l-3-2.5c-.21-.175-.526-.148-.704.064-.177.212-.148.528.063.705l2.538 2.116-2.54 2.117c-.21.177-.24.492-.062.705.1.12.24.18.384.18.113 0 .227-.038.32-.116l3-2.5c.114-.095.18-.236.18-.384s-.065-.29-.18-.386zM11.5 34h-3c-.827 0-1.5.673-1.5 1.5v3c0 .827.673 1.5 1.5 1.5h3c.827 0 1.5-.673 1.5-1.5v-3c0-.827-.673-1.5-1.5-1.5zm.5 4.5c0 .275-.224.5-.5.5h-3c-.276 0-.5-.225-.5-.5v-3c0-.275.224-.5.5-.5h3c.276 0 .5.225.5.5v3zM18.5 34h-3c-.827 0-1.5.673-1.5 1.5v3c0 .827.673 1.5 1.5 1.5h3c.827 0 1.5-.673 1.5-1.5v-3c0-.827-.673-1.5-1.5-1.5zm.5 4.5c0 .275-.224.5-.5.5h-3c-.276 0-.5-.225-.5-.5v-3c0-.275.224-.5.5-.5h3c.276 0 .5.225.5.5v3zM25.5 34h-3c-.827 0-1.5.673-1.5 1.5v3c0 .827.673 1.5 1.5 1.5h3c.827 0 1.5-.673 1.5-1.5v-3c0-.827-.673-1.5-1.5-1.5zm.5 4.5c0 .275-.225.5-.5.5h-3c-.276 0-.5-.225-.5-.5v-3c0-.275.224-.5.5-.5h3c.275 0 .5.225.5.5v3zM32.5 34h-3c-.827 0-1.5.673-1.5 1.5v3c0 .827.673 1.5 1.5 1.5h3c.827 0 1.5-.673 1.5-1.5v-3c0-.827-.673-1.5-1.5-1.5zm.5 4.5c0 .275-.225.5-.5.5h-3c-.275 0-.5-.225-.5-.5v-3c0-.275.225-.5.5-.5h3c.275 0 .5.225.5.5v3zM39.5 34h-3c-.827 0-1.5.673-1.5 1.5v3c0 .827.673 1.5 1.5 1.5h3c.827 0 1.5-.673 1.5-1.5v-3c0-.827-.673-1.5-1.5-1.5zm.5 4.5c0 .275-.225.5-.5.5h-3c-.275 0-.5-.225-.5-.5v-3c0-.275.225-.5.5-.5h3c.275 0 .5.225.5.5v3z"/></svg>