<svg xmlns="http://www.w3.org/2000/svg" viewBox="-7.5 16.5 16 16"><path d="M6.5 16.5h-12a2 2 0 0 0-2 2v12a2 2 0 0 0 2 2h12a2 2 0 0 0 2-2v-12a2 2 0 0 0-2-2zm0 2v6.542c-1.376.107-3.062.417-4.865.91-.013-.007-.022-.02-.037-.028-1.53-.766-4.51-1.583-7.098-1.764V18.5h12zm-12 6.66c1.956.142 4.12.665 5.646 1.235-1.9.607-3.853 1.397-5.646 2.345v-3.58zm0 5.34v-.626c3.95-2.19 8.833-3.574 12-3.83V30.5h-12z"/><path d="M3.008 24.006c1.1 0 1.992-.894 1.992-1.992s-.894-1.992-1.992-1.992-1.992.894-1.992 1.992.894 1.992 1.992 1.992zm0-2.985a.993.993 0 0 1 0 1.985.993.993 0 0 1 0-1.984z"/></svg>