<svg xmlns="http://www.w3.org/2000/svg" viewBox="-7.5 16.5 16 16"><path d="M-3.036 22.086a.252.252 0 0 0-.34.092.25.25 0 0 0 .09.342l3.91 2.258v4.06l3.767-2.174v-4.35l-3.514 2.03-3.912-2.258zm5.817 1.866c.46-.265.78-.287.955-.267.117.016.125.123.05.287l-.104.232c-.078.175-.182.247-.31.242-.14 0-.334.025-.556.153-.596.343-.842.906-.842 1.335 0 .442.267.742.842.41.25-.145.467-.382.61-.565.124-.16.232-.218.32-.144l.116.096c.08.07.075.19-.037.343a3.546 3.546 0 0 1-1.042.956c-.957.554-1.562.24-1.562-.644 0-.865.642-1.902 1.563-2.434z"/><path d="M-1.755 22.04l.24.137c.115.067.25.072.41.017l.542-.188.805.465-.326.314c-.093.096-.083.173.033.24l.237.137c.145.085.314.062.425-.056l1.782-1.892c.094-.096.08-.17-.036-.238l-.325-.188c-.115-.067-.245-.075-.41-.02l-3.278 1.03c-.206.062-.245.16-.1.243zm2.65-.535c.235-.08.617-.235.617-.235l.007.004s-.268.22-.408.356l-.435.418-.51-.294.73-.25zM-1.11 26.31c.226 0 .347-.184.347-.434 0-.513-.416-1.02-1.013-1.364l-.867-.5c-.15-.086-.23-.053-.23.097v2.52c0 .15.08.275.23.362l.867.5c.592.342 1.134.417 1.134-.233 0-.263-.125-.64-.467-.942v-.01zm-1.032-1.384l.362.21c.196.112.275.275.275.41 0 .143-.08.23-.262.125l-.375-.215v-.53zm.437 1.98l-.437-.25v-.618l.442.255c.213.123.313.318.313.484 0 .168-.105.253-.318.13z"/><path d="M.5 17.5a7 7 0 1 0 0 14 7 7 0 0 0 0-14zm4.39 9.163a.5.5 0 0 1-.25.433L.75 29.343a.496.496 0 0 1-.5 0l-3.89-2.246a.5.5 0 0 1-.25-.433V22.17a.5.5 0 0 1 .25-.433L.25 19.49a.496.496 0 0 1 .5 0l3.89 2.247a.5.5 0 0 1 .25.433v4.493z"/></svg>