<svg xmlns="http://www.w3.org/2000/svg" viewBox="-7.5 16.5 16 16"><path fill="none" stroke="#000" stroke-width="1.5" stroke-linecap="round" stroke-linejoin="round" stroke-miterlimit="10" d="M3.76 27.24L-.5 30.5v-3.25"/><path d="M5 16.5a3.5 3.5 0 1 1 0 7 3.5 3.5 0 0 1 0-7zM2.5 20a2.5 2.5 0 1 0 5 0 2.5 2.5 0 0 0-5 0z"/><path d="M6.061 20.354a.5.5 0 0 1-.707.707L3.94 19.647a.5.5 0 0 1 .707-.707l1.414 1.414z"/><path d="M6.061 18.939a.5.5 0 0 1 0 .707L4.647 21.06a.5.5 0 0 1-.707-.707l1.414-1.414a.5.5 0 0 1 .707 0zM-4.5 20.5h7.05a2.482 2.482 0 0 1 .461-2H-4.5c-1.103 0-2 .897-2 2v6c0 1.103.897 2 2 2h4v-2h-4v-6zM5.5 22.45v4.05H3.833l-1.729 2H5.5c1.103 0 2-.897 2-2v-6c0-.085-.015-.167-.025-.25a2.495 2.495 0 0 1-1.975 2.2z"/></svg>