<svg xmlns="http://www.w3.org/2000/svg" viewBox="0 0 16 16"><path d="M11.105 5.576L8.928 4.022c-.502-.36-1.352-.36-1.853 0l-2.18 1.555c-.487.348-.87 1.09-.87 1.688v3.744c0 .682.557 1.238 1.24 1.238h5.47c.684 0 1.24-.556 1.24-1.24V7.266c0-.598-.383-1.34-.87-1.69zm.165 5.433c0 .294-.24.534-.535.534h-5.47c-.295 0-.535-.24-.535-.535V7.264c0-.375.27-.897.574-1.116l2.18-1.556c.13-.094.32-.148.517-.148s.387.054.518.148l2.177 1.554c.306.22.575.74.575 1.116v3.745z"/><path d="M9.627 7.923H6.372c-.225 0-.405.183-.405.407 0 .226.18.407.405.407h3.255c.225 0 .407-.182.407-.407 0-.224-.182-.407-.407-.407z"/></svg>