<svg xmlns="http://www.w3.org/2000/svg" viewBox="-7.5 16.5 16 16"><path d="M-3.036 22.086a.252.252 0 0 0-.341.092.251.251 0 0 0 .091.342l3.911 2.258v4.06l3.766-2.174v-4.349l-3.515 2.03-3.912-2.259zm5.817 1.866c.459-.265.779-.287.954-.267.117.016.125.123.05.287l-.104.232c-.079.175-.183.247-.312.242-.138 0-.333.025-.555.153-.596.344-.842.907-.842 1.336 0 .442.267.742.842.41.25-.145.467-.382.609-.565.125-.159.233-.218.321-.144l.116.096c.079.071.075.191-.037.343a3.546 3.546 0 0 1-1.042.956c-.958.553-1.563.24-1.563-.645 0-.865.642-1.902 1.563-2.434z"/><path d="M-1.755 22.039l.239.138c.116.067.25.072.411.017l.542-.188.805.465-.326.313c-.093.096-.083.173.033.24l.238.137a.338.338 0 0 0 .425-.057l1.782-1.892c.094-.096.08-.171-.036-.238l-.325-.188c-.115-.067-.245-.075-.411-.02l-3.277 1.029c-.206.063-.245.161-.1.244zm2.651-.534c.234-.081.616-.235.616-.235l.007.004s-.267.221-.407.356l-.435.418-.509-.294.728-.249zM-1.109 26.309c.225.001.346-.183.346-.433 0-.513-.416-1.02-1.013-1.364l-.867-.5c-.15-.086-.229-.053-.229.097v2.521c0 .151.079.275.229.362l.867.5c.592.342 1.134.417 1.134-.233 0-.262-.125-.639-.467-.941v-.009zm-1.033-1.383l.362.209c.196.113.275.276.275.412 0 .142-.079.23-.262.124l-.375-.216v-.529zm.437 1.981l-.437-.252v-.617l.442.255c.213.123.313.318.313.484-.001.168-.105.253-.318.13z"/><path d="M.5 17.5a7 7 0 1 0 0 14 7 7 0 0 0 0-14zm4.391 9.163a.499.499 0 0 1-.25.433L.75 29.343a.496.496 0 0 1-.5 0l-3.891-2.246a.499.499 0 0 1-.25-.433V22.17c0-.179.095-.344.25-.433L.25 19.491a.496.496 0 0 1 .5 0l3.891 2.246c.155.089.25.254.25.433v4.493z"/></svg>