<svg xmlns="http://www.w3.org/2000/svg" viewBox="-7.5 16.5 16 16"><path d="M.518 21.493H7.5c.553 0 1-.444 1-.992s-.447-.99-1-.99H.518c-.552 0-1 .443-1 .99s.448.993 1 .993zM7.5 23.51H.518c-.552 0-1 .443-1 .99 0 .55.448.993 1 .993H7.5c.553 0 1-.444 1-.992s-.447-.99-1-.99zM7.5 27.524H.518c-.552 0-1 .44-1 .984s.448.984 1 .984H7.5c.553 0 1-.44 1-.984s-.447-.984-1-.984zM-3.177 26.114v-3.21l-3.755.068-.166 1.08 1.222.11c.118.03.153.1.153.21v1.73c0 .15-.023.18-.188.2l-1.046.15v1.04l4.91-.044v-1.04l-.943-.094c-.175-.02-.187-.04-.187-.2z"/><ellipse cx="-4.489" cy="20.67" rx="1.601" ry="1.449"/></svg>