<svg xmlns="http://www.w3.org/2000/svg" viewBox="-7.5 17.5 16 16"><path d="M3.07 19.426l-.418 4.54 3.994 2.2-4.448 1.005-.858 4.48-2.33-3.92-4.523.57 3.006-3.428-1.938-4.127 4.19 1.8 3.326-3.12m0-1.853c-.46 0-.916.172-1.267.5l-2.442 2.29-3.073-1.322a1.858 1.858 0 0 0-2.064.414 1.853 1.853 0 0 0-.346 2.077l1.422 3.03-2.207 2.514a1.854 1.854 0 0 0 1.625 3.06l3.32-.416 1.708 2.875a1.855 1.855 0 0 0 3.415-.598l.63-3.286 3.265-.74a1.854 1.854 0 0 0 .486-3.432l-2.93-1.615.307-3.332a1.853 1.853 0 0 0-1.032-1.834 1.93 1.93 0 0 0-.814-.184z"/></svg>