<svg xmlns="http://www.w3.org/2000/svg" viewBox="-7.5 16.5 16 16"><path d="M8.482 22.421c-.103-.775-.424-1.575-1.052-1.935-.326-.187-.647-.327-1.044-.327h-7.739c-.793 0-1.608.6-2.022 1.245-.248.387-.38.786-.38 1.287v4.221c0 .334.051.545.168.835.146.363.373.681.657.928.114.099.237.187.367.261.326.187.814.227 1.21.227v1.689c0 .327.073.618.359.743a.74.74 0 0 0 .293.061.75.75 0 0 0 .205-.033.749.749 0 0 0 .337-.204l2.007-2.256h4.285c.079 0 .158-.004.235-.013 1.087-.117 2.021-.968 2.125-2.115a2.54 2.54 0 0 0 .01-.232V22.76a2.52 2.52 0 0 0-.021-.339z"/><path d="M4.518 19.033l-.017-.013c0-.502-.019-1.301-.267-1.689-.414-.645-1.058-.831-1.851-.831h-7.739c-.397 0-.718.094-1.044.281-.628.36-.983.81-1.086 1.585-.015.111-.005.224-.005.339v4.04c0 .078-.014.161-.007.238.104 1.148.723 2.101 1.809 2.217.077.008.156.012.235.012l.365.013v-2.533c0-.747.192-1.473.589-2.092.661-1.03 1.663-1.42 2.881-1.567h6.137z"/></svg>