<svg xmlns="http://www.w3.org/2000/svg" viewBox="-7.5 16.5 16 16"><path d="M-6.648 19.383c-.568.586-.852 1.294-.852 2.122v6.002c0 .83.284 1.536.852 2.122.568.585 1.254.878 2.057.878H5.59c.804 0 1.49-.293 2.058-.88.568-.585.852-1.292.852-2.12v-6.002c0-.828-.284-1.536-.852-2.122-.568-.586-1.254-.88-2.057-.88H-4.59c-.804 0-1.49.293-2.058.88zm12.17 3.74c0 .454-.128.836-.385 1.15.667.5 1 1.164 1 1.992v1.243c0 .156-.053.29-.16.4-.105.108-.234.163-.385.163H1.955c-.152 0-.28-.054-.386-.163-.107-.11-.16-.242-.16-.4v-1.242c0-.828.333-1.493 1-1.993-.258-.312-.386-.695-.386-1.15 0-.5.17-.925.51-1.277s.755-.528 1.24-.528.898.176 1.24.528c.338.352.51.778.51 1.278zm-5.59-1.407c.136.14.205.32.205.54 0 .218-.068.398-.205.538-.136.14-.31.21-.523.21h-3.637c-.212 0-.386-.07-.523-.21-.136-.14-.205-.32-.205-.54 0-.218.068-.398.205-.538.136-.14.31-.21.523-.21H-.59c.21 0 .385.07.522.21zm3.182 1.407c0 .203.064.372.193.504.128.133.284.2.466.2s.337-.067.466-.2c.128-.133.192-.3.192-.504 0-.188-.065-.348-.193-.48-.13-.134-.285-.2-.467-.2s-.337.067-.466.2c-.13.132-.193.292-.193.48zM.136 25.257c0 .25-.12.375-.364.375h-4.364c-.242 0-.364-.125-.364-.375s.12-.375.364-.375h4.364c.243 0 .364.125.364.375zM2.5 26.265v.68h2.545v-.68c0-.36-.125-.668-.375-.926-.25-.26-.55-.388-.898-.388-.35 0-.648.13-.898.387s-.374.566-.374.925zm-3.818.492c0 .25-.12.375-.364.375h-2.91c-.24 0-.363-.125-.363-.375s.12-.375.364-.375h2.908c.242 0 .364.125.364.375z"/></svg>