<svg xmlns="http://www.w3.org/2000/svg" viewBox="0 0 48 48"><path d="M35 11c0-1.103-.897-2-2-2H15c-1.103 0-2 .897-2 2v18c0 1.103.897 2 2 2h18c1.103 0 2-.897 2-2V11zm-2.002 14.948a57.922 57.922 0 0 0-7.708-3.788c1.3-.928 4.757-3.224 7.71-3.692l-.002 7.48zM33 11v6.708c-3.576.514-7.698 3.494-8.542 4.13-2.953-1.115-6.263-2.023-9.458-2.185V11h18zM15 29v-8.596c7.406.388 15 4.9 18 6.416V29H15z"/><path d="M23.5 17.75c1.24 0 2.25-1.01 2.25-2.25s-1.01-2.25-2.25-2.25-2.25 1.01-2.25 2.25 1.01 2.25 2.25 2.25zm0-3.75a1.5 1.5 0 1 1 0 3 1.5 1.5 0 0 1 0-3zM9 23.5a.5.5 0 0 0 .32-.885L6.78 20.5l2.54-2.116a.5.5 0 0 0-.64-.77l-3 2.5a.5.5 0 0 0 0 .77l3 2.5A.497.497 0 0 0 9 23.5zM42.32 20.116l-3-2.5a.502.502 0 0 0-.64.77l2.538 2.115-2.54 2.117a.5.5 0 1 0 .642.77l3-2.5a.5.5 0 0 0 0-.77zM11.5 34h-3c-.827 0-1.5.673-1.5 1.5v3c0 .827.673 1.5 1.5 1.5h3c.827 0 1.5-.673 1.5-1.5v-3c0-.827-.673-1.5-1.5-1.5zm.5 4.5a.5.5 0 0 1-.5.5h-3a.5.5 0 0 1-.5-.5v-3a.5.5 0 0 1 .5-.5h3a.5.5 0 0 1 .5.5v3zM18.5 34h-3c-.827 0-1.5.673-1.5 1.5v3c0 .827.673 1.5 1.5 1.5h3c.827 0 1.5-.673 1.5-1.5v-3c0-.827-.673-1.5-1.5-1.5zm.5 4.5a.5.5 0 0 1-.5.5h-3a.5.5 0 0 1-.5-.5v-3a.5.5 0 0 1 .5-.5h3a.5.5 0 0 1 .5.5v3zM25.5 34h-3c-.827 0-1.5.673-1.5 1.5v3c0 .827.673 1.5 1.5 1.5h3c.827 0 1.5-.673 1.5-1.5v-3c0-.827-.673-1.5-1.5-1.5zm.5 4.5a.5.5 0 0 1-.5.5h-3a.5.5 0 0 1-.5-.5v-3a.5.5 0 0 1 .5-.5h3a.5.5 0 0 1 .5.5v3zM32.5 34h-3c-.827 0-1.5.673-1.5 1.5v3c0 .827.673 1.5 1.5 1.5h3c.827 0 1.5-.673 1.5-1.5v-3c0-.827-.673-1.5-1.5-1.5zm.5 4.5a.5.5 0 0 1-.5.5h-3a.5.5 0 0 1-.5-.5v-3a.5.5 0 0 1 .5-.5h3a.5.5 0 0 1 .5.5v3zM39.5 34h-3c-.827 0-1.5.673-1.5 1.5v3c0 .827.673 1.5 1.5 1.5h3c.827 0 1.5-.673 1.5-1.5v-3c0-.827-.673-1.5-1.5-1.5zm.5 4.5a.5.5 0 0 1-.5.5h-3a.5.5 0 0 1-.5-.5v-3a.5.5 0 0 1 .5-.5h3a.5.5 0 0 1 .5.5v3z"/></svg>