<svg xmlns="http://www.w3.org/2000/svg" viewBox="-7.5 16.5 16 16"><path d="M3 27.5H0c-.911 0-1.5-.589-1.5-1.5v-2.578a.5.5 0 0 1 1 0V26c0 .415.2.5.5.5h3a.5.5 0 0 1 0 1z"/><path d="M1 25.5a.502.502 0 0 1-.354-.146L-1 23.708l-1.646 1.646a.5.5 0 0 1-.707-.707l2-2a.5.5 0 0 1 .707 0l2 2A.5.5 0 0 1 1 25.5z"/><path d="M-2.111 19.526l.679 1.04.624.933H6.5v7.033h-12V19.52l3.389.006m.633-1.995h-3.889c-1.177 0-2.133.895-2.133 1.995v8.978c0 1.1.957 1.995 2.133 1.995H6.367c1.177 0 2.133-.895 2.133-1.995v-6.983c0-1.1-.957-1.995-2.133-1.995H.389l-1.113-1.703a1.105 1.105 0 0 0-.754-.292z"/><path d="M-6.099 21.061H-.41v.439h-5.689z"/></svg>