<svg xmlns="http://www.w3.org/2000/svg" viewBox="-15.5 8.5 32 32"><path d="M-3.954 13.5l1.718 2.638.888 1.362h13.581c.687 0 1.267.454 1.267.99v14.02c0 .537-.58.99-1.267.99h-23.467c-.687 0-1.267-.454-1.267-.99V14.49c0-.537.58-.99 1.266-.99h7.28m.5-3h-7.78c-2.352 0-4.266 1.79-4.266 3.99v18.02c0 2.2 1.914 3.99 4.267 3.99h23.467c2.353 0 4.267-1.79 4.267-3.99V18.49c0-2.2-1.913-3.99-4.266-3.99H.278l-2.225-3.415c-.4-.375-.943-.585-1.508-.585z"/><path d="M-14.5 15.5h15v2h-15zM6 29.5H0c-.91 0-1.5-.59-1.5-1.5v-5.578c0-.276.224-.5.5-.5s.5.224.5.5V28c0 .415.2.5.5.5h6c.276 0 .5.224.5.5s-.224.5-.5.5z"/><path d="M2 25.5c-.13 0-.257-.05-.355-.147L-1 22.707l-2.647 2.646c-.195.195-.512.195-.707 0s-.195-.512 0-.707l3-3c.195-.195.512-.195.707 0l3 3c.195.195.195.512 0 .707-.098.097-.226.146-.354.146z"/></svg>