<svg xmlns="http://www.w3.org/2000/svg" viewBox="-7.5 16.5 16 16"><path d="M.5 27a.5.5 0 0 1-1 0v-4a.5.5 0 0 1 1 0v4z"/><path d="M2.5 25a.5.5 0 0 1-.5.5h-4a.5.5 0 0 1 0-1h4a.5.5 0 0 1 .5.5z"/><path d="M-2.11 19.526l.678 1.04.624.933H6.5v7.032h-12V19.52l3.39.006m.632-1.995h-3.89c-1.176 0-2.132.896-2.132 1.996v8.978c0 1.1.957 1.995 2.133 1.995H6.367c1.177 0 2.133-.896 2.133-1.996V21.52c0-1.1-.957-1.994-2.133-1.994H.39l-1.114-1.703c-.2-.187-.47-.292-.754-.292z"/><path d="M-6.1 21.06h5.69v.44H-6.1z"/></svg>