<svg xmlns="http://www.w3.org/2000/svg" viewBox="-7.5 16.5 16 16"><path d="M-6.5 22.5c2.333-1 7-2 7-2M.5 28.5c3.5 0 7 2 7 2" fill="none" stroke="#000" stroke-width=".75" stroke-linecap="round" stroke-linejoin="round" stroke-miterlimit="10"/><circle cx="4.5" cy="21.499" r="1" fill="none" stroke="#000" stroke-width=".75" stroke-linecap="round" stroke-linejoin="round" stroke-miterlimit="10"/><path d="M3.5 24.5c0-1 0-2 1-2s1 1 1 2" fill="none" stroke="#000" stroke-width=".75" stroke-linecap="round" stroke-linejoin="round" stroke-miterlimit="10"/><path d="M-2 26.5c.276 0 .5.223.5.5s-.224.5-.5.5-.5-.225-.5-.5.224-.5.5-.5m0-.75c-.69 0-1.25.56-1.25 1.25s.56 1.25 1.25 1.25S-.75 27.687-.75 27s-.56-1.25-1.25-1.25z"/><path fill="none" stroke="#000" stroke-width="1.5" stroke-linecap="round" stroke-linejoin="round" stroke-miterlimit="10" d="M-6.5 17.5h14v14h-14z"/><path fill="none" stroke="#000" stroke-linecap="round" stroke-linejoin="round" stroke-miterlimit="10" d="M.5 17.5v14M-6.5 24.5h14"/></svg>