<svg xmlns="http://www.w3.org/2000/svg" viewBox="-7.5 16.5 16 16"><path d="M5.954 20.627l-3.25-3.5c-.378-.4-.904-.627-1.454-.627H-3.5c-1.105 0-2 .895-2 2v1.28h2V18.5h4V22c0 .276.224.5.5.5h3.5v8h-8s-1.105 2 0 2h8c1.105 0 2-.895 2-2V22c0-.51-.195-1.002-.546-1.373zM1.5 21.5v-2.735L4.028 21.5H1.5z"/><path stroke="#000" stroke-width=".5" stroke-linecap="round" stroke-linejoin="round" stroke-miterlimit="10" d="M-5.195 20.955L-7 25.24h2.407l-1.805 4.283 4.813-5.508h-2.407l1.805-3.06z"/><path d="M-5.5 31.5c0 .552.448 1 1 1h1c.552 0 1-.448 1-1s-.448-1-1-1h-1c-.552 0-1 .448-1 1z"/></svg>