<svg xmlns="http://www.w3.org/2000/svg" viewBox="0 0 16 16"><title>Artboard 1</title><path d="M3.897 6.331c0 .739-.58 1.332-1.319 1.332-.738 0-1.332-.594-1.332-1.332s.594-1.319 1.332-1.319c.739 0 1.319.581 1.319 1.319zm2.388 3.971c0 1.293-1.069 2.361-2.388 2.361a2.376 2.376 0 0 1-2.361-2.361 2.378 2.378 0 0 1 2.361-2.374 2.384 2.384 0 0 1 2.388 2.374zM1.866 6.331c0 .396.316.712.712.712a.705.705 0 0 0 .686-.712.699.699 0 0 0-.686-.686.704.704 0 0 0-.712.686zm1.068 0c0 .224-.158.383-.356.383a.375.375 0 0 1-.383-.383c0-.198.171-.356.383-.356.198 0 .356.158.356.356zm8.218-1.57c0 1.886-1.53 3.417-3.417 3.417s-3.43-1.53-3.43-3.417 1.543-3.43 3.43-3.43 3.417 1.544 3.417 3.43zm-4.287 8.931c0 .541-.422.976-.963.976s-.989-.435-.989-.976c0-.541.449-.976.989-.976s.963.435.963.976zm-1.504 0c0 .303.251.528.541.528.29 0 .528-.224.528-.528a.54.54 0 0 0-.528-.541.553.553 0 0 0-.541.541zm.502-8.931c0 1.016.844 1.847 1.873 1.847s1.86-.831 1.86-1.847c0-1.029-.831-1.873-1.86-1.873s-1.873.845-1.873 1.873zm6.675 6.741a2.817 2.817 0 1 1-5.633 0 2.817 2.817 0 0 1 2.81-2.836 2.821 2.821 0 0 1 2.823 2.836zm-4.288 0c0 .805.646 1.477 1.464 1.477.831 0 1.477-.673 1.477-1.477 0-.818-.646-1.477-1.477-1.477-.817 0-1.464.659-1.464 1.477zm2.256 0a.782.782 0 0 1-.791.778.78.78 0 0 1-.778-.778c0-.449.343-.805.778-.805a.79.79 0 0 1 .791.805zm4.248-4.089c0 .976-.765 1.754-1.741 1.754a1.753 1.753 0 1 1 0-3.508c.976 0 1.741.791 1.741 1.754zm-.277 2.942a.705.705 0 0 1-.712.686.699.699 0 0 1-.686-.686c0-.396.317-.712.686-.712a.708.708 0 0 1 .712.712z" fill="#010101"/></svg>