<svg xmlns="http://www.w3.org/2000/svg" viewBox="-7.5 16.5 16 16"><path d="M-3.037 25.778c0 2.104 1.712 3.815 3.815 3.815s3.815-1.712 3.815-3.815c0-1.775-1.218-3.27-2.862-3.695v1.31c0 .185-.106.353-.274.432-.065.03-.133.045-.202.045-.11 0-.218-.037-.306-.11l-2.862-2.386c-.11-.09-.172-.225-.172-.366 0-.142.063-.276.172-.366l2.862-2.385c.087-.073.196-.11.306-.11.07 0 .138.014.202.044.167.08.275.248.275.433v1.512c2.704.456 4.77 2.812 4.77 5.642C6.5 28.933 3.933 31.5.777 31.5s-5.723-2.567-5.723-5.723h1.91z"/></svg>