<svg xmlns="http://www.w3.org/2000/svg" viewBox="0 0 48 48"><path d="M23.5 20.75c1.24 0 2.25-1.01 2.25-2.25s-1.01-2.25-2.25-2.25-2.25 1.01-2.25 2.25 1.01 2.25 2.25 2.25zm0-3.75c.83 0 1.5.67 1.5 1.5s-.67 1.5-1.5 1.5-1.5-.67-1.5-1.5.67-1.5 1.5-1.5z"/><path d="M44.803 18.078c-.085-.085-.235-.188-.472-.188l-3.297.536c-.01.002-.022.01-.033.012V16.5c0-.552-.58-.923-1.124-.923L35 16.4V14c0-1.103-.897-2-2-2H15c-1.103 0-2 .897-2 2v2.4l-4.673-.808-.173-.014c-.484 0-1.154.32-1.154.922v1.887l-2.673-.482-.174-.015c-.483 0-1.153.32-1.153.922v9.375c0 .552.533.922 1.03.922L7 28.63v1.87c0 .552.554.923 1.07.923L13 30.62V32c0 1.103.897 2 2 2h18c1.103 0 2-.897 2-2v-1.382l4.784.79.168.015c.23 0 .472-.077.66-.212.246-.175.388-.434.388-.71v-1.965c.055.017.107.03.154.038l2.893.522.164.014c.274 0 .512-.13.65-.357.094-.152.14-.338.14-.565v-9.44c.002-.21.005-.466-.197-.67zm-11.805 10.87c-1.498-.882-4.262-2.402-7.574-3.734C26.68 24.28 30.06 21.946 33 21.47l-.002 7.478zM36 23.878c-.372 0-.71-.13-.986-.342l.006-2.572c.273-.208.61-.337.98-.337.895 0 1.624.73 1.624 1.625s-.728 1.626-1.624 1.626zM33 14v6.71c-3.552.522-7.56 3.53-8.395 4.184-2.99-1.14-6.356-2.075-9.605-2.24V14h18zM8 16.616c.044-.02.107-.04.158-.04L13 17.5v8.034c-1.298-.074-3.61-.506-5-2.506v-6.413zM4.018 28.11l-.018.5v-9.682c.044-.02.105-.038.154-.04l2.825.478c.005.01.02.055.02.138v8.113l-2.982.492zm8.96 1.497l-4.94.815-.038.5v-.5s.022-.006 0-.015V24.21c1.59 1.655 3.74 2.02 5 2.077V29.5c0 .046-.02.08-.022.107zM15 32v-8.596c7.406.388 15 4.9 18 6.416V32H15zm20-2.5l.01-4.537c.256-.206.56-.335.955-.335 1.756 0 1.968 2.152 1.985 5.464l-2.944-.487c-.004-.025-.006-.06-.006-.105zm5 .913c-.016.006-.032.01-.048.01l-1.248-.206c-.004-2.534-.075-5.046-1.427-5.967.66-.423 1.1-1.157 1.1-1.996 0-1.31-1.066-2.375-2.376-2.375-.348 0-.677.08-.976.215l.007-2.685 4.848-.832c.04 0 .088.014.124.03v13.805zm3.994-2.344l-2.666-.482c-.102-.018-.26-.104-.328-.167v-7.875c.03-.047.133-.12.2-.133l2.8-.466-.006 9.123z"/></svg>