<svg xmlns="http://www.w3.org/2000/svg" viewBox="-7.5 16.5 16 16"><path fill="none" stroke="#000" stroke-width="1.5" stroke-linecap="round" stroke-linejoin="round" stroke-miterlimit="10" d="M3.76 27.24L-.5 30.5v-3.25"/><path d="M5 16.5c1.933 0 3.5 1.567 3.5 3.5S6.933 23.5 5 23.5 1.5 21.933 1.5 20s1.567-3.5 3.5-3.5zM2.5 20c0 1.38 1.12 2.5 2.5 2.5s2.5-1.12 2.5-2.5-1.12-2.5-2.5-2.5-2.5 1.12-2.5 2.5z"/><path d="M5.5 21c0 .276-.224.5-.5.5s-.5-.224-.5-.5v-2c0-.276.224-.5.5-.5s.5.224.5.5v2z"/><path d="M6.5 20c0 .276-.224.5-.5.5H4c-.276 0-.5-.224-.5-.5s.224-.5.5-.5h2c.276 0 .5.224.5.5zM-4.5 20.5h7.05c-.032-.162-.05-.33-.05-.5 0-.565.195-1.08.51-1.5H-4.5c-1.103 0-2 .897-2 2v6c0 1.103.897 2 2 2h4v-2h-4v-6zM5.5 22.45v4.05H3.833l-1.73 2H5.5c1.103 0 2-.897 2-2v-6c0-.085-.015-.167-.025-.25-.11 1.095-.915 1.984-1.975 2.2z"/></svg>