<svg xmlns="http://www.w3.org/2000/svg" viewBox="-7.5 16.5 16 16"><path d="M-2.11 19.526l.678 1.04.624.933H6.5v7.032h-12V19.52l3.39.006m.632-1.995h-3.89c-1.176 0-2.132.896-2.132 1.996v8.978c0 1.1.957 1.995 2.133 1.995H6.367c1.177 0 2.133-.896 2.133-1.996V21.52c0-1.1-.957-1.994-2.133-1.994H.39l-1.114-1.703c-.2-.187-.47-.292-.754-.292z"/><path d="M-6.1 21.06h5.69v.44H-6.1zM1 23l1 1v3h-3v-4h2m0-1h-2a1 1 0 0 0-1 1v4a1 1 0 0 0 1 1h3a1 1 0 0 0 1-1v-3a.997.997 0 0 0-.293-.707l-1-1A.997.997 0 0 0 1 22z"/><path fill="none" stroke="#000" stroke-width=".5" stroke-miterlimit="10" d="M.656 22.61v1.67H2.36"/></svg>