<svg xmlns="http://www.w3.org/2000/svg" viewBox="-7.5 16.5 16 16"><path d="M7.447 16.793l-.692-.22c-.365-.116-.76.075-.897.434l-2.33 6.144-.112.348c-.308.22-.55.537-.673.924-.163.514-.388 1.218-.833 1.676l-.907.81 1.208.384c1.237.392 2.105.16 2.615-.105.648-.336 1.136-.93 1.37-1.67.123-.386.107-.787-.02-1.143l.113-.347 1.638-6.363c.098-.372-.113-.755-.48-.87zm-1.94 8.504c-.328 1.036-1.35 1.854-3.075 1.305.563-.58.822-1.39 1.002-1.962.084-.265.262-.476.484-.606l1.543.49c.106.234.13.507.046.773zm.095-1.49l-1.38-.438.513-1.358 1.227.39-.36 1.406zm.45-1.757l-1.188-.378 1.674-4.41.69.22-1.175 4.568z"/><path d="M5.03 28.25c-.272 0-.49.22-.49.49v.79H.83c-.05-.22-.31-1.02-.915-1.02h-3.417v-9.02h7.295c.27 0 .49-.22.49-.49s-.22-.49-.49-.49h-5.628c-.24-.417-1.206-1.712-2.954-1.712-1.98 0-2.206.227-2.206 2.207 0 1.382.913 2.275 1.502 2.707-.287.47-.643 1.287-.643 2.442s.356 1.972.643 2.442c-.59.432-1.502 1.326-1.502 2.707 0 1.98.227 2.207 2.207 2.207 1.255 0 2.105-.75 2.576-1.33.47.58 1.32 1.33 2.575 1.33.272 0 .49-.22.49-.49v-.51h4.18c.13 0 .254-.052.346-.143.092-.09.143-.217.143-.347v-1.28c0-.27-.22-.49-.49-.49z"/></svg>