<svg xmlns="http://www.w3.org/2000/svg" viewBox="0 0 48 48"><path d="M16 10.75a.75.75 0 0 0-.75-.75h-8.5a.75.75 0 0 0-.75.75v11.5c0 .414.336.75.75.75h8.5a.75.75 0 0 0 .75-.75v-11.5zM8 21v-1.944c2-1.004 5-1.975 6-2.429V21H8zm6-9v3.839c-1 .401-4 1.356-6 2.394V12h6zM33 10.75a.75.75 0 0 0-.75-.75h-13.5a.75.75 0 0 0-.75.75v11.5c0 .414.336.75.75.75h13.5a.75.75 0 0 0 .75-.75v-11.5zm-9 7.375c1.477 0 1.613.875 1.623 2.875h-3.245c.009-2 .146-2.875 1.622-2.875zM22.375 16c0-.896.729-1.625 1.625-1.625s1.625.729 1.625 1.625-.729 1.625-1.625 1.625-1.625-.729-1.625-1.625zM20 12h11v9h-4.627c-.004-1-.069-2.527-1.045-3.157.631-.427 1.046-1.087 1.046-1.905 0-1.31-1.065-2.344-2.375-2.344s-2.375 1.081-2.375 2.391c0 .818.416 1.423 1.046 1.85-.974.63-1.039 2.165-1.043 3.165H20v-9zM20 25.75a.75.75 0 0 0-.75-.75H6.75a.75.75 0 0 0-.75.75v11.5c0 .414.336.75.75.75h12.5a.75.75 0 0 0 .75-.75v-11.5zM18 36H8v-9h10v9zM29 25.75a.75.75 0 0 0-.75-.75h-5.5a.75.75 0 0 0-.75.75v11.5c0 .414.336.75.75.75h5.5a.75.75 0 0 0 .75-.75v-11.5zM27 27v5.364c0-.342-2-.652-3-.723V27h3zm-3 9v-3.609c2 .085 3 .51 3 .837V36h-3zM42 10.75a.75.75 0 0 0-.75-.75h-5.5a.75.75 0 0 0-.75.75v11.5c0 .414.336.75.75.75h5.5a.75.75 0 0 0 .75-.75v-11.5zM40 21h-3v-9h3v9zM42 25.75a.75.75 0 0 0-.75-.75h-9.5a.75.75 0 0 0-.75.75v11.5c0 .414.336.75.75.75h9.5a.75.75 0 0 0 .75-.75v-11.5zM40 27v5.881c-1-.404-4-1.135-7-1.241V27h7zm-7 9v-3.61c3 .114 6 .904 7 1.274V36h-7z"/><path d="M11.5 32.75c1.241 0 2.25-1.009 2.25-2.25s-1.009-2.25-2.25-2.25-2.25 1.009-2.25 2.25 1.009 2.25 2.25 2.25zm0-3.75a1.5 1.5 0 1 1 .001 2.999A1.5 1.5 0 0 1 11.5 29z"/></svg>