<svg xmlns="http://www.w3.org/2000/svg" viewBox="0 0 48 48"><path d="M23.5 20.75c1.24 0 2.25-1.01 2.25-2.25s-1.01-2.25-2.25-2.25-2.25 1.01-2.25 2.25 1.01 2.25 2.25 2.25zm0-3.75a1.5 1.5 0 1 1 0 3 1.5 1.5 0 0 1 0-3z"/><path d="M44.803 18.078a.646.646 0 0 0-.472-.188l-3.297.536c-.01.002-.022.01-.033.012V16.5c0-.552-.58-.923-1.124-.923L35 16.4V14c0-1.103-.897-2-2-2H15c-1.103 0-2 .897-2 2v2.4l-4.673-.808-.173-.014c-.484 0-1.154.32-1.154.922v1.887l-2.673-.482-.174-.015c-.483 0-1.153.32-1.153.922v9.375c0 .552.533.922 1.03.922L7 28.63v1.87c0 .552.554.923 1.07.923L13 30.62V32c0 1.103.897 2 2 2h18c1.103 0 2-.897 2-2v-1.382l4.784.79.168.015c.23 0 .472-.077.66-.212A.878.878 0 0 0 41 30.5v-1.965c.055.017.107.03.154.038l2.893.522.164.014c.274 0 .512-.13.65-.357a1.06 1.06 0 0 0 .14-.565v-9.44c.002-.21.005-.466-.197-.67zm-11.805 10.87a58.156 58.156 0 0 0-7.574-3.734C26.68 24.28 30.06 21.946 33 21.47l-.002 7.478zM36 23.878c-.372 0-.71-.13-.986-.342l.006-2.572a1.61 1.61 0 0 1 .98-.337c.895 0 1.624.73 1.624 1.625s-.728 1.626-1.624 1.626zM33 14v6.71c-3.552.522-7.56 3.53-8.395 4.184-2.99-1.14-6.356-2.075-9.605-2.24V14h18zM8 16.616a.422.422 0 0 1 .158-.04L13 17.5v8.034c-1.298-.074-3.61-.506-5-2.506v-6.413zM4.018 28.11l-.018.5v-9.682a.432.432 0 0 1 .154-.04l2.825.478c.005.01.02.055.02.138v8.113l-2.982.492zm8.96 1.497l-4.94.815-.038.5v-.5s.022-.006 0-.015V24.21c1.59 1.655 3.74 2.02 5 2.077V29.5c0 .046-.02.08-.022.107zM15 32v-8.596c7.406.388 15 4.9 18 6.416V32H15zm20-2.5l.01-4.537c.256-.206.56-.335.955-.335 1.756 0 1.968 2.152 1.985 5.464l-2.944-.487A.696.696 0 0 1 35 29.5zm5 .913a.137.137 0 0 1-.048.01l-1.248-.206c-.004-2.534-.075-5.046-1.427-5.967a2.37 2.37 0 0 0 1.1-1.996A2.377 2.377 0 0 0 36 19.88c-.348 0-.677.08-.976.215l.007-2.685 4.848-.832c.04 0 .088.014.124.03v13.805zm3.994-2.344l-2.666-.482A.817.817 0 0 1 41 27.42v-7.875a.4.4 0 0 1 .2-.133l2.8-.466-.006 9.123z"/></svg>