<svg xmlns="http://www.w3.org/2000/svg" viewBox="-7.5 16.5 16 16"><path d="M-.76 20.76a4.57 4.57 0 0 0-1.508.446 4.21 4.21 0 0 0-1.193.88c-.332.35-.594.764-.776 1.227a3.675 3.675 0 0 0-.248 1.487v3.494c0 .114.1.206.224.206h3.53c.123 0 .223-.092.223-.206V24.78c0-.116-.1-.207-.223-.207h-1.41c.023-.436.13-.813.314-1.123.203-.34.596-.603 1.17-.783a.21.21 0 0 0 .15-.194v-1.508a.2.2 0 0 0-.075-.155.257.257 0 0 0-.18-.05zM5.245 20.76a4.57 4.57 0 0 0-1.508.446 4.21 4.21 0 0 0-1.193.88c-.33.35-.593.764-.775 1.227a3.675 3.675 0 0 0-.25 1.487v3.494c0 .114.1.206.225.206h3.53c.123 0 .223-.092.223-.206V24.78c0-.116-.1-.207-.223-.207h-1.41c.023-.436.13-.813.314-1.123.202-.34.595-.603 1.168-.783a.21.21 0 0 0 .152-.194v-1.508a.2.2 0 0 0-.076-.155.255.255 0 0 0-.18-.05z"/></svg>