<svg xmlns="http://www.w3.org/2000/svg" viewBox="0 0 16 16"><title>Artboard 1</title><path d="M3.897 6.33c0 .74-.58 1.333-1.32 1.333-.737 0-1.33-.594-1.33-1.332s.593-1.318 1.33-1.318c.74 0 1.32.58 1.32 1.32zm2.388 3.972c0 1.293-1.07 2.36-2.388 2.36-1.293 0-2.36-1.068-2.36-2.36 0-1.306 1.067-2.374 2.36-2.374 1.32 0 2.388 1.068 2.388 2.374zm-4.42-3.97c0 .395.317.71.713.71.37 0 .686-.316.686-.71 0-.37-.317-.687-.686-.687-.396 0-.712.317-.712.686zm1.07 0c0 .223-.16.382-.357.382-.21 0-.383-.158-.383-.383 0-.197.17-.355.383-.355.198 0 .356.158.356.356zm8.217-1.57c0 1.885-1.53 3.416-3.417 3.416s-3.43-1.53-3.43-3.417 1.543-3.43 3.43-3.43 3.417 1.545 3.417 3.43zm-4.287 8.93c0 .54-.422.976-.963.976s-.99-.435-.99-.976c0-.54.45-.976.99-.976s.963.435.963.976zm-1.504 0c0 .303.252.528.542.528.29 0 .528-.224.528-.528 0-.29-.237-.54-.528-.54-.29 0-.54.25-.54.54zm.503-8.93c0 1.015.844 1.846 1.873 1.846s1.86-.83 1.86-1.847c0-1.028-.83-1.872-1.86-1.872s-1.873.845-1.873 1.873zm6.675 6.74c0 1.557-1.253 2.823-2.823 2.823-1.557 0-2.81-1.266-2.81-2.823 0-1.57 1.253-2.836 2.81-2.836 1.57 0 2.823 1.267 2.823 2.836zm-4.288 0c0 .805.646 1.477 1.464 1.477.83 0 1.477-.674 1.477-1.478 0-.818-.645-1.477-1.476-1.477-.817 0-1.464.66-1.464 1.477zm2.256 0c0 .422-.343.778-.79.778-.436 0-.78-.356-.78-.778 0-.45.344-.805.78-.805.447 0 .79.357.79.805zm4.248-4.09c0 .977-.765 1.755-1.74 1.755-.964 0-1.755-.778-1.755-1.754 0-.963.79-1.754 1.753-1.754.976 0 1.74.79 1.74 1.753zm-.277 2.943c0 .37-.317.686-.712.686-.37 0-.686-.316-.686-.685 0-.396.316-.712.685-.712.395 0 .712.316.712.712z" fill="#010101"/></svg>