<svg xmlns="http://www.w3.org/2000/svg" viewBox="-7.5 16.5 16 16"><path d="M8.207 20.895L.51 28.59l-3.885.972.97-3.886 7.697-7.696c.196-.195.452-.292.708-.292.256 0 .512.098.707.293l1.5 1.5c.39.39.39 1.024 0 1.415zM0 27.688l.25-.25-1.5-1.5-.25.25-.5 2 2-.5zm4.75-4.75l-1.5-1.5-4 4 1.5 1.5 4-4zM6 21.688l-1.5-1.5-.75.75 1.5 1.5.75-.75zm1.5-1.5l-1.5-1.5-.793.793 1.5 1.5.793-.792z"/><path d="M2.5 27.893V30.5h-8v-12h4l2.454 2.454 1.713-1.713-1.963-2.113C.326 16.727-.2 16.5-.75 16.5H-5.5c-1.105 0-2 .895-2 2v12c0 1.105.895 2 2 2h8c1.105 0 2-.895 2-2v-4.607l-2 2z"/></svg>