<svg xmlns="http://www.w3.org/2000/svg" viewBox="-7.5 16.5 16 16"><path fill="none" stroke="#000" stroke-width="1.5" stroke-linecap="round" stroke-linejoin="round" stroke-miterlimit="10" d="M3.76 27.24L-.5 30.5v-3.25"/><path d="M5 16.5a3.5 3.5 0 1 1 0 7 3.5 3.5 0 0 1 0-7zM2.5 20a2.5 2.5 0 1 0 5 0 2.5 2.5 0 0 0-5 0z"/><path d="M5.5 21a.5.5 0 0 1-1 0v-2a.5.5 0 0 1 1 0v2z"/><path d="M6.5 20a.5.5 0 0 1-.5.5H4a.5.5 0 0 1 0-1h2a.5.5 0 0 1 .5.5zM-4.5 20.5h7.05a2.482 2.482 0 0 1 .46-2H-4.5c-1.103 0-2 .897-2 2v6c0 1.103.897 2 2 2h4v-2h-4v-6zM5.5 22.45v4.05H3.833l-1.73 2H5.5c1.103 0 2-.897 2-2v-6c0-.085-.015-.167-.025-.25a2.495 2.495 0 0 1-1.975 2.2z"/></svg>