<svg xmlns="http://www.w3.org/2000/svg" viewBox="0 0 16 16"><path d="M10.735 3.747h-5.47a1.24 1.24 0 0 0-1.24 1.24V8.73c0 .6.383 1.34.87 1.688l2.178 1.557c.25.18.58.278.926.278s.674-.1.925-.278l2.18-1.557c.487-.348.87-1.09.87-1.69V4.987a1.24 1.24 0 0 0-1.24-1.24zm.535 4.983c0 .376-.268.897-.574 1.116l-2.18 1.557c-.262.188-.772.187-1.034 0L5.304 9.845c-.306-.218-.574-.74-.574-1.115V4.986c0-.295.24-.535.535-.535h5.47c.296 0 .536.24.536.536V8.73z"/><path d="M9.646 7.427H8.41V6.192a.41.41 0 0 0-.82 0v1.235H6.353a.412.412 0 0 0 0 .824H7.59v1.232a.41.41 0 0 0 .82 0V8.25h1.236a.412.412 0 1 0 0-.823z"/></svg>