<svg xmlns="http://www.w3.org/2000/svg" viewBox="-7.5 16.5 16 16"><path d="M6.278 25.132c.024-.208.035-.42.035-.632 0-.214-.01-.425-.035-.632l-1.766-.44a4.125 4.125 0 0 0-.417-1.004l.938-1.563a5.794 5.794 0 0 0-.893-.89l-1.563.936c-.31-.18-.647-.32-1.004-.417l-.44-1.767a5.75 5.75 0 0 0-1.264 0l-.442 1.766a4.132 4.132 0 0 0-1.004.416l-1.563-.937c-.328.263-.63.563-.893.89l.938 1.564c-.18.31-.32.647-.417 1.003l-1.766.44a5.723 5.723 0 0 0 0 1.264l1.766.442c.096.356.236.692.417 1.003l-.938 1.562c.264.328.564.63.893.893l1.563-.936c.31.18.647.32 1.004.417l.44 1.767a5.75 5.75 0 0 0 1.264 0l.442-1.766a4.132 4.132 0 0 0 1.004-.416l1.563.937c.33-.263.63-.563.893-.89l-.938-1.564c.18-.31.32-.647.417-1.003l1.766-.44zM.5 26.992a2.49 2.49 0 1 1 0-4.982 2.49 2.49 0 0 1 0 4.98z" stroke="#000" stroke-width=".25" stroke-miterlimit="10"/></svg>