<svg xmlns="http://www.w3.org/2000/svg" viewBox="-7.5 16.5 16 16"><path d="M5.954 20.627l-3.25-3.5A2 2 0 0 0 1.25 16.5H-3.5a2 2 0 0 0-2 2v1.28h2V18.5h4V22a.5.5 0 0 0 .5.5h3.5v8h-8s-1.105 2 0 2h8a2 2 0 0 0 2-2V22c0-.51-.195-1.002-.546-1.373zM1.5 21.5v-2.735L4.028 21.5H1.5z"/><path stroke="#000" stroke-width=".5" stroke-linecap="round" stroke-linejoin="round" stroke-miterlimit="10" d="M-5.195 20.955L-7 25.24h2.407l-1.805 4.283 4.813-5.508h-2.407l1.805-3.06z"/><path d="M-5.5 31.5a1 1 0 0 0 1 1h1a1 1 0 0 0 0-2h-1a1 1 0 0 0-1 1z"/></svg>