<svg xmlns="http://www.w3.org/2000/svg" viewBox="-7.5 16.5 16 16"><path d="M3.363 21.61c-.7.7-1.226 1.543-1.68 2.425l-7.62.626c-1.245.103.782 2.68 1.85 2.54 1.972-.257 4.13-1.38 5.227-2.03l-.14.313c-.662 1.476-1.265 3.063-2.127 4.513-.065.11-.13.216-.2.322-2.12.156-3.695-.148-4.403-.73-1.987-1.637-2.52-9.643-.29-10.673 1.533-.707 6.39-.027 10.435 1.908-.396.205-.75.487-1.052.788zm-6.593-.857c-.77-.355-.532 2.502.15 2.747.733.265 3.79.1 4.253.07.29-.016.44-.586.44-.586l-4.843-2.23zM.9 29.505c.862-1.513 1.49-3.12 2.09-4.667.284-.73.56-1.452.898-2.14.28-.567.623-1.14 1.134-1.572 1.987 1.046 3.742 2.518 3.41 3.963-.605 2.616-4.582 4.37-7.87 4.98.118-.186.23-.375.34-.565z" fill-rule="evenodd" clip-rule="evenodd"/></svg>