<svg xmlns="http://www.w3.org/2000/svg" viewBox="0 0 16 16"><g fill-rule="evenodd" clip-rule="evenodd"><path d="M6.407 3.118a1.412 1.412 0 0 0-.802-.268 1.3 1.3 0 0 0-.998.485c-.223.328-.33.695-.321 1.101 0 .536.156 1.094.469 1.673.151.27.346.5.586.688.239.188.512.282.82.282.388-.014.712-.154.971-.42a1.54 1.54 0 0 0 .241-.579c.021-.198.032-.364.032-.5 0-.584-.149-1.173-.446-1.767a1.963 1.963 0 0 0-.552-.695zM6.308 9.45c-.075-.01-.268 0-.578.029a6.2 6.2 0 0 0-.937.21 7.964 7.964 0 0 0-.317.129 1.93 1.93 0 0 0-.416.268c-.136.12-.251.27-.345.448a1.342 1.342 0 0 0-.162.68c0 .52.235.949.705 1.287.446.337 1.057.511 1.833.521.695-.01 1.226-.164 1.593-.463.357-.294.536-.672.536-1.135 0-.376-.122-.704-.367-.983-.258-.265-.662-.59-1.212-.976a2.98 2.98 0 0 0-.333-.015z"/><path d="M14 0H2C.9 0 0 .9 0 2v12c0 1.1.9 2 2 2h12c1.1 0 2-.9 2-2V2c0-1.1-.9-2-2-2zM7.961 3.146a2.838 2.838 0 0 1 .598.99c.065.217.097.47.097.759-.009.53-.125.954-.35 1.272-.11.154-.227.296-.35.427-.136.13-.281.263-.435.398a2.02 2.02 0 0 0-.243.31.69.69 0 0 0-.132.419c0 .154.045.282.135.383.077.096.151.181.223.253l.501.412c.311.255.584.537.819.846.221.313.336.723.345 1.229 0 .718-.316 1.354-.947 1.908-.655.573-1.6.87-2.835.889-1.034-.01-1.806-.231-2.315-.664-.515-.404-.772-.887-.772-1.45 0-.274.084-.58.251-.916.162-.337.456-.633.882-.887a4.58 4.58 0 0 1 1.506-.548c.521-.077.954-.12 1.298-.13a3.211 3.211 0 0 1-.285-.451 1.035 1.035 0 0 1-.145-.56.84.84 0 0 1 .055-.327l.09-.254a4.207 4.207 0 0 1-.474.029c-.786-.01-1.384-.258-1.796-.744-.431-.453-.647-.98-.647-1.583 0-.728.305-1.388.916-1.98.42-.347.856-.573 1.308-.679a6.34 6.34 0 0 1 1.259-.137H9.47l-.912.533h-.91c.093.058.197.142.313.253zm6.151 4.74h-1.59v1.552h-.909V7.886h-1.552v-.033h-.01V6.97h1.562V5.388h.909V6.97h1.552v.008h.038v.908z"/></g></svg>