<svg xmlns="http://www.w3.org/2000/svg" viewBox="-7.5 16.5 16 16"><path d="M-.76 20.76c-.538.064-1.046.214-1.508.446-.46.23-.862.527-1.193.88-.332.35-.594.764-.776 1.227-.183.462-.266.964-.248 1.487v3.494c0 .114.1.206.224.206h3.53c.123 0 .223-.092.223-.206V24.78c0-.116-.1-.207-.223-.207h-1.41c.023-.436.13-.813.314-1.123.203-.34.596-.603 1.17-.783.088-.028.15-.106.15-.194v-1.508c0-.06-.027-.116-.075-.155-.052-.04-.117-.057-.18-.05zM5.245 20.76c-.538.064-1.046.214-1.508.446-.46.23-.862.527-1.193.88-.33.35-.593.764-.775 1.227-.184.462-.267.964-.25 1.487v3.494c0 .114.1.206.225.206h3.53c.123 0 .223-.092.223-.206V24.78c0-.116-.1-.207-.223-.207h-1.41c.023-.436.13-.813.314-1.123.202-.34.595-.603 1.168-.783.09-.028.152-.106.152-.194v-1.508c0-.06-.028-.116-.076-.155-.05-.04-.116-.057-.18-.05z"/></svg>