<svg xmlns="http://www.w3.org/2000/svg" viewBox="-7.5 16.5 16 16"><path d="M7.954 20.627l-3.25-3.5c-.378-.4-.904-.627-1.454-.627H-1.5c-1.105 0-2 .895-2 2v1.28h2V18.5h4V22c0 .276.224.5.5.5h3.5v8h-9c-.552 0-1 .448-1 1s.448 1 1 1h9c1.105 0 2-.895 2-2V22c0-.51-.195-1.002-.546-1.373zM3.5 21.5v-2.735L6.028 21.5H3.5z"/><path d="M-2.5 22v3h-3v-3h3m0-1.5h-3c-.828 0-1.5.672-1.5 1.5v3c0 .828.672 1.5 1.5 1.5h3c.828 0 1.5-.672 1.5-1.5v-3c0-.828-.672-1.5-1.5-1.5z"/><circle cx="2.5" cy="26.5" r="2.5" fill="none" stroke="#000" stroke-linecap="round" stroke-linejoin="round" stroke-miterlimit="10"/><circle cx="-2.5" cy="28.5" r="1" fill="none" stroke="#000" stroke-width=".5" stroke-linecap="round" stroke-linejoin="round" stroke-miterlimit="10"/></svg>