<svg xmlns="http://www.w3.org/2000/svg" viewBox="-7.5 16.5 16 16"><path fill="none" stroke="#000" stroke-linecap="round" stroke-linejoin="round" stroke-miterlimit="10" d="M-2 25v4M.5 25h3l-2 4"/><path d="M6.5 18.5h-12a2 2 0 0 0-2 2v10a2 2 0 0 0 2 2h12a2 2 0 0 0 2-2v-10a2 2 0 0 0-2-2zm0 12h-12v-7h12v7zm0-8h-12v-2h12v2z"/><path d="M-4.5 20a.5.5 0 0 1-1 0v-2a.5.5 0 0 1 1 0v2zM-2.3 20a.5.5 0 0 1-1 0v-2a.5.5 0 0 1 1 0v2zM-.1 20a.5.5 0 0 1-1 0v-2a.5.5 0 0 1 1 0v2zM2.1 20a.5.5 0 0 1-1 0v-2a.5.5 0 0 1 1 0v2zM4.3 20a.5.5 0 0 1-1 0v-2a.5.5 0 0 1 1 0v2zM6.5 20a.5.5 0 0 1-1 0v-2a.5.5 0 0 1 1 0v2z"/></svg>