<svg xmlns="http://www.w3.org/2000/svg" viewBox="-7.5 16.5 16 16"><path d="M-2.5 17.5s1-1 3-1 3 1 3 1 2-1 4-1c1 0 1 0 1 1 0 2-1 4-1 4s1 1 1 3-1 3-1 3 1 2 1 4c0 1 0 1-1 1-2 0-4-1-4-1s-1 1-3 1-3-1-3-1-2 1-4 1c-1 0-1 0-1-1 0-2 1-4 1-4s-1-1-1-3 1-3 1-3-1-2-1-4c0-1 0-1 1-1 2 0 4 1 4 1zm9 2a1 1 0 0 0-1-1h-10a1 1 0 0 0-1 1v10a1 1 0 0 0 1 1h10a1 1 0 0 0 1-1v-10z"/><path fill="none" stroke="#000" stroke-width="2" stroke-linecap="round" stroke-linejoin="round" stroke-miterlimit="10" d="M-2.5 21.5h6M.5 21.5v6"/></svg>