<svg xmlns="http://www.w3.org/2000/svg" viewBox="-7.5 16.5 16 16"><path d="M8.482 22.42c-.103-.774-.424-1.574-1.052-1.934-.326-.187-.647-.327-1.044-.327h-7.74c-.792 0-1.607.6-2.02 1.244-.25.387-.38.786-.38 1.287v4.222c0 .334.05.545.167.835.146.363.373.68.657.928.114.1.237.187.367.26.326.188.814.228 1.21.228v1.69c0 .326.073.617.36.742a.74.74 0 0 0 .292.06.75.75 0 0 0 .204-.032.75.75 0 0 0 .337-.204l2.008-2.257h4.285c.08 0 .158-.004.235-.013 1.087-.117 2.02-.968 2.125-2.115a2.54 2.54 0 0 0 .01-.232V22.76c0-.115-.007-.23-.02-.34z"/><path d="M4.518 19.033L4.5 19.02c0-.502-.018-1.3-.266-1.69-.414-.644-1.058-.83-1.85-.83h-7.74c-.397 0-.718.094-1.044.28-.628.36-.983.81-1.086 1.586-.015.11-.005.224-.005.34v4.04c0 .077-.015.16-.008.237.104 1.148.723 2.1 1.81 2.217.076.008.155.012.234.012l.365.013v-2.533c0-.747.193-1.473.59-2.092.66-1.03 1.663-1.42 2.88-1.567H4.52z"/></svg>