<svg xmlns="http://www.w3.org/2000/svg" viewBox="-7.5 16.5 16 16"><path d="M.92 20.77c0-1.51-.9-3.86-2.644-3.86-.546 0-1.133.272-1.47.692-.356.44-.46 1.007-.46 1.553 0 1.407.818 3.737 2.623 3.737.524 0 1.09-.253 1.427-.588C.88 21.82.92 21.15.92 20.77z"/><path d="M3.05 16.708l-.47.264H1.277c.482.4 1.49 1.238 1.49 2.834 0 1.553-.882 2.288-1.763 2.98-.272.273-.588.567-.588 1.03 0 .46.315.713.545.902l.756.587c.924.777 1.763 1.49 1.763 2.94 0 1.775-1.55 3.56-4.49 3.903.49.093.994.144 1.51.144 4.418 0 8-3.582 8-8 0-3.528-2.283-6.52-5.45-7.584z"/><path d="M-.212 26.292c-.168-.02-.273-.02-.482-.02-.19 0-1.322.04-2.204.336-.462.167-1.805.67-1.805 2.16 0 1.49 1.448 2.56 3.694 2.56 2.016 0 3.086-.964 3.086-2.265 0-1.07-.693-1.638-2.288-2.77z"/><path d="M-4.934 26.648c1.3-.798 3.064-.902 4.008-.965-.294-.378-.63-.776-.63-1.427 0-.357.106-.567.21-.818-.23.02-.46.042-.67.042-2.226 0-3.485-1.66-3.485-3.296 0-.525.134-1.08.397-1.6-1.48 1.45-2.397 3.472-2.397 5.708 0 1.48.403 2.865 1.104 4.054.208-.588.648-1.215 1.462-1.698z"/></svg>