<svg xmlns="http://www.w3.org/2000/svg" viewBox="-7.5 16.5 16 16"><path d="M3.27 27.382l-.354-6.34-1.7 1.288s-4.04-4.56-7.62-1.85c0 0 1.933-.5 3.986 1.632.336.35.822.897 1.52 1.82l-1.838 1.392 6.006 2.058z" fill="#231F20"/><circle cx="-6.5" cy="27.5" r="1"/><circle cx="7.5" cy="27.5" r="1"/><circle cx="7.5" cy="24.5" r="1"/><circle cx="7.5" cy="21.5" r="1"/><circle cx="-2.5" cy="31.5" r="1"/><circle cx=".5" cy="31.5" r="1"/><circle cx="3.5" cy="31.5" r="1"/><circle cx=".5" cy="17.5" r="1"/><circle cx="3.5" cy="17.5" r="1"/><path d="M-5.5 32.5h-1c-.552 0-1-.447-1-1v-1c0-.553.448-1 1-1s1 .447 1 1c.552 0 1 .447 1 1s-.448 1-1 1zM8.5 30.5v1c0 .552-.447 1-1 1h-1c-.553 0-1-.448-1-1s.447-1 1-1c0-.552.447-1 1-1s1 .448 1 1zM6.5 16.5h1c.552 0 1 .447 1 1v1c0 .553-.448 1-1 1s-1-.447-1-1c-.552 0-1-.447-1-1s.448-1 1-1z"/></svg>