<svg xmlns="http://www.w3.org/2000/svg" viewBox="0 0 16 16"><path d="M12.79 7.075l-1.557-2.18c-.35-.487-1.09-.87-1.688-.87H4.172a1.24 1.24 0 0 0-1.24 1.24v5.47c0 .683.557 1.24 1.24 1.24h5.373c.598 0 1.34-.383 1.688-.87l1.556-2.177c.37-.52.37-1.334 0-1.853zm-.573 1.444l-1.556 2.175c-.218.306-.74.575-1.115.575H4.172a.536.536 0 0 1-.535-.535v-5.47c0-.295.24-.535.535-.535h5.373c.375 0 .897.27 1.116.574l1.557 2.18c.196.275.196.76 0 1.035z"/><path d="M9.25 7.587H8.013V6.354a.41.41 0 0 0-.823 0v1.233H5.957a.413.413 0 0 0 0 .825H7.19v1.234a.413.413 0 0 0 .823 0V8.412H9.25c.23 0 .413-.184.413-.412a.412.412 0 0 0-.41-.413z"/></svg>