<svg xmlns="http://www.w3.org/2000/svg" viewBox="-7.5 16.5 16 16"><path d="M3.27 27.382l-.354-6.34-1.7 1.288s-4.04-4.56-7.62-1.85c0 0 1.933-.5 3.986 1.632.336.35.822.897 1.52 1.82l-1.838 1.392 6.006 2.058z" fill="#231f20"/><circle cx="-6.5" cy="27.5" r="1"/><circle cx="7.5" cy="27.5" r="1"/><circle cx="7.5" cy="24.5" r="1"/><circle cx="7.5" cy="21.5" r="1"/><circle cx="-2.5" cy="31.5" r="1"/><circle cx=".5" cy="31.5" r="1"/><circle cx="3.5" cy="31.5" r="1"/><circle cx=".5" cy="17.5" r="1"/><circle cx="3.5" cy="17.5" r="1"/><path d="M-5.5 32.5h-1a1 1 0 0 1-1-1v-1a1 1 0 0 1 2 0 1 1 0 0 1 0 2zM8.5 30.5v1a1 1 0 0 1-1 1h-1a1 1 0 0 1 0-2 1 1 0 0 1 2 0zM6.5 16.5h1a1 1 0 0 1 1 1v1a1 1 0 0 1-2 0 1 1 0 0 1 0-2z"/></svg>