<svg xmlns="http://www.w3.org/2000/svg" viewBox="-7.5 16.5 16 16"><path d="M3 27.5H0c-.91 0-1.5-.59-1.5-1.5v-2.578a.5.5 0 0 1 1 0V26c0 .415.2.5.5.5h3a.5.5 0 0 1 0 1z"/><path d="M1 25.5a.502.502 0 0 1-.354-.146L-1 23.708l-1.646 1.646a.5.5 0 0 1-.707-.707l2-2a.5.5 0 0 1 .707 0l2 2A.5.5 0 0 1 1 25.5z"/><path d="M-2.11 19.526l.678 1.04.624.933H6.5v7.032h-12V19.52l3.39.006m.632-1.995h-3.89c-1.176 0-2.132.896-2.132 1.996v8.978c0 1.1.957 1.995 2.133 1.995H6.367c1.177 0 2.133-.896 2.133-1.996V21.52c0-1.1-.957-1.994-2.133-1.994H.39l-1.114-1.703c-.2-.187-.47-.292-.754-.292z"/><path d="M-6.1 21.06h5.69v.44H-6.1z"/></svg>