<svg xmlns="http://www.w3.org/2000/svg" viewBox="-7.5 16.5 16 16"><path d="M6.706 19.764L5.09 18.097a2.058 2.058 0 0 0-2.974 0l-2.353 2.427a2.22 2.22 0 0 0-.12 2.932l1.132-1.17a.553.553 0 0 1 .104-.61l2.35-2.428c.206-.21.54-.21.745 0l1.615 1.667a.555.555 0 0 1 0 .767L3.237 24.11c-.164.17-.41.2-.606.1L1.5 25.374c.827.73 2.07.693 2.854-.113l2.352-2.427a2.22 2.22 0 0 0 0-3.07zM.217 26.7c.1.202.07.456-.096.625l-2.352 2.427a.514.514 0 0 1-.743 0l-1.616-1.667a.557.557 0 0 1 0-.767l2.352-2.427c.16-.164.397-.198.592-.106l1.132-1.17a2.055 2.055 0 0 0-2.84.124l-2.353 2.427a2.22 2.22 0 0 0 0 3.07l1.615 1.667a2.058 2.058 0 0 0 2.975 0l2.353-2.427a2.22 2.22 0 0 0 .11-2.944L.217 26.7z"/><path d="M-2.44 27.52a.77.77 0 0 0 1.115 0l4.814-4.966c.308-.318.308-.833 0-1.15s-.81-.32-1.117-.002L-2.44 26.37a.833.833 0 0 0 0 1.15z"/></svg>