<svg xmlns="http://www.w3.org/2000/svg" viewBox="-7.5 16.5 16 16"><path d="M-3.5 20c0 .275-.225.5-.5.5h-3a.501.501 0 0 1-.5-.5v-3c0-.275.225-.5.5-.5h3c.275 0 .5.225.5.5v3zm6-3c0-.275-.225-.5-.5-.5h-3c-.275 0-.5.225-.5.5v3c0 .275.225.5.5.5h3c.275 0 .5-.225.5-.5v-3zm6 0c0-.275-.225-.5-.5-.5H5c-.275 0-.5.225-.5.5v3c0 .275.225.5.5.5h3c.275 0 .5-.225.5-.5v-3zm-12 6c0-.275-.225-.5-.5-.5h-3c-.275 0-.5.225-.5.5v3c0 .275.225.5.5.5h3c.275 0 .5-.225.5-.5v-3zm6 0c0-.275-.225-.5-.5-.5h-3c-.275 0-.5.225-.5.5v3c0 .275.225.5.5.5h3c.275 0 .5-.225.5-.5v-3zm6 0c0-.275-.225-.5-.5-.5H5c-.275 0-.5.225-.5.5v3c0 .275.225.5.5.5h3c.275 0 .5-.225.5-.5v-3zm-12 6c0-.275-.225-.5-.5-.5h-3c-.275 0-.5.225-.5.5v3c0 .275.225.5.5.5h3c.275 0 .5-.225.5-.5v-3zm6 0c0-.275-.225-.5-.5-.5h-3c-.275 0-.5.225-.5.5v3c0 .275.225.5.5.5h3c.275 0 .5-.225.5-.5v-3zm6 0c0-.275-.225-.5-.5-.5H5c-.275 0-.5.225-.5.5v3c0 .275.225.5.5.5h3c.275 0 .5-.225.5-.5v-3z"/></svg>