<svg xmlns="http://www.w3.org/2000/svg" viewBox="0.5 16.5 16 16"><path d="M15.914 17.086A1.926 1.926 0 0 0 14.5 16.5h-12c-.552 0-1.023.195-1.414.586-.39.39-.586.862-.586 1.414v12c0 .552.195 1.023.586 1.414.39.39.862.586 1.414.586h12c.552 0 1.023-.195 1.414-.586.39-.39.586-.862.586-1.414v-12c0-.552-.195-1.023-.586-1.414zM2.5 18.5h12v2h-12v-2zm12 12h-.002v.006H10.5V27.5h-4v3.006H2.506V30.5H2.5v-3h4v-3h-4v-3h.006v-.003H6.5V24.5h4v-3.003h3.998v.003h.002v3h-4v3h4v3z" fill-rule="evenodd" clip-rule="evenodd"/></svg>