<svg xmlns="http://www.w3.org/2000/svg" viewBox="-7.5 16.5 16 16"><path d="M5.5 23.75h-.25V21.5c0-2.62-2.13-4.75-4.75-4.75s-4.75 2.13-4.75 4.75v2.25h-.25c-.414 0-.75.336-.75.75v7c0 .414.336.75.75.75h10c.414 0 .75-.336.75-.75v-7c0-.414-.336-.75-.75-.75zm-3.864 5.272c.037.05.06.11.06.178 0 .165-.136.3-.3.3H-.38c-.098 0-.188-.047-.245-.125-.057-.078-.07-.18-.04-.272l.478-1.4c-.303-.22-.512-.556-.512-.958 0-.662.538-1.2 1.2-1.2s1.2.538 1.2 1.2c0 .4-.21.74-.514.957l.45 1.32zM3.75 23.75h-6.5V21.5c0-1.792 1.458-3.25 3.25-3.25s3.25 1.458 3.25 3.25v2.25z"/></svg>