<svg xmlns="http://www.w3.org/2000/svg" viewBox="0.5 16.5 16 16"><path d="M8.5 17.5c-3.86 0-7 3.14-7 7s3.14 7 7 7 7-3.14 7-7-3.14-7-7-7zm-1.587 1.16a7.55 7.55 0 0 0-1.408 2.237 7.674 7.674 0 0 1-1.333-.628 6.042 6.042 0 0 1 2.74-1.61zM3.565 21c.506.314 1.05.577 1.627.785a9.522 9.522 0 0 0-.375 2.242h-2.35A6.01 6.01 0 0 1 3.564 21zm-1.1 3.97h2.352a9.52 9.52 0 0 0 .375 2.245A8.722 8.722 0 0 0 3.565 28a6.02 6.02 0 0 1-1.1-3.03zm1.707 3.76a7.91 7.91 0 0 1 1.334-.63 7.55 7.55 0 0 0 1.41 2.24 6.05 6.05 0 0 1-2.744-1.61zm3.856 1.38c-.675-.582-1.226-1.366-1.62-2.28a8.95 8.95 0 0 1 1.62-.235v2.516zm0-3.46c-.66.032-1.31.13-1.938.288a8.79 8.79 0 0 1-.332-1.968h2.27v1.68zm0-2.623h-2.27c.04-.683.152-1.346.333-1.967a9.907 9.907 0 0 0 1.94.29v1.677zm0-2.622a9.053 9.053 0 0 1-1.62-.235c.394-.915.945-1.7 1.62-2.28v2.515zm4.8-1.136a7.92 7.92 0 0 1-1.336.627 7.505 7.505 0 0 0-1.406-2.236 6.037 6.037 0 0 1 2.74 1.61zM8.97 18.89c.674.58 1.225 1.365 1.616 2.28a9.02 9.02 0 0 1-1.616.235V18.89zm0 3.46c.66-.033 1.31-.13 1.937-.29.18.62.294 1.284.33 1.967H8.972V22.35zm0 2.62h2.268a8.642 8.642 0 0 1-.332 1.97 9.73 9.73 0 0 0-1.935-.29v-1.68zm0 5.14v-2.515a8.93 8.93 0 0 1 1.616.234c-.39.913-.943 1.7-1.616 2.28zm1.114.23a7.566 7.566 0 0 0 1.406-2.237c.468.17.918.378 1.335.628a6.06 6.06 0 0 1-2.74 1.61zM13.434 28a8.757 8.757 0 0 0-1.627-.785c.21-.71.337-1.466.375-2.244h2.352a6.03 6.03 0 0 1-1.1 3.03zm-1.252-3.973a9.608 9.608 0 0 0-.375-2.242A8.82 8.82 0 0 0 13.434 21a6.002 6.002 0 0 1 1.1 3.027h-2.352z"/><circle cx="8.5" cy="24.5" r="7" fill="none" stroke="#000" stroke-width="2" stroke-miterlimit="10"/></svg>