<svg xmlns="http://www.w3.org/2000/svg" viewBox="-7.5 16.5 16 16"><path d="M.5 17.5c-3.866 0-7 3.134-7 7s3.134 7 7 7 7-3.134 7-7-3.134-7-7-7zm3.535 9.122c.39.39.39 1.024 0 1.414-.195.195-.45.293-.707.293-.256 0-.512-.1-.707-.294L.5 25.914l-2.12 2.12c-.196.196-.452.294-.708.294-.256 0-.512-.098-.707-.293-.39-.39-.39-1.024 0-1.414l2.12-2.12-2.12-2.12c-.39-.392-.39-1.025 0-1.415.39-.39 1.024-.39 1.414 0l2.12 2.12 2.12-2.12c.392-.39 1.024-.39 1.415 0 .39.39.39 1.023 0 1.414l-2.12 2.12 2.12 2.122z"/></svg>