<svg xmlns="http://www.w3.org/2000/svg" viewBox="-7.5 16.5 16 16"><path d="M7.954 20.627l-3.25-3.5A2 2 0 0 0 3.25 16.5H-1.5a2 2 0 0 0-2 2v1.28h2V18.5h4V22a.5.5 0 0 0 .5.5h3.5v8h-9a1 1 0 0 0 0 2h9a2 2 0 0 0 2-2V22c0-.51-.195-1.002-.546-1.373zM3.5 21.5v-2.735L6.028 21.5H3.5z"/><path d="M-2.5 22v3h-3v-3h3m0-1.5h-3A1.5 1.5 0 0 0-7 22v3a1.5 1.5 0 0 0 1.5 1.5h3A1.5 1.5 0 0 0-1 25v-3a1.5 1.5 0 0 0-1.5-1.5z"/><circle cx="2.5" cy="26.5" r="2.5" fill="none" stroke="#000" stroke-linecap="round" stroke-linejoin="round" stroke-miterlimit="10"/><circle cx="-2.5" cy="28.5" r="1" fill="none" stroke="#000" stroke-width=".5" stroke-linecap="round" stroke-linejoin="round" stroke-miterlimit="10"/></svg>