<svg xmlns="http://www.w3.org/2000/svg" viewBox="-7.5 16.5 16 16"><path d="M-1.24 20.22h.434c.385 0 .536-.15.72-.484l.57-.87h.03l.553.87c.2.335.335.485.735.485h.436c.485 0 .618-.367.3-.85l-.67-.97c-.215-.318-.465-.452-.85-.452H-.018c-.385 0-.636.134-.853.452l-.668.97c-.32.482-.187.85.3.85zM.712 21.527c-1.354 0-2.39.446-2.98.75-.427.232-.5.587-.284.998l.177.338c.213.43.553.5 1 .305.428-.23 1.124-.517 1.892-.517.927 0 1.694.41 1.694 1.606v.213h-.373c-2.033 0-5.314.444-5.314 3.103 0 1.66 1.355 2.73 3.013 2.73 2 0 2.855-1.713 2.855-1.713h.035s-.034.142-.034.392v.357c0 .498.25.748.73.748h.608c.5 0 .748-.25.748-.75v-4.94c0-2.302-1.41-3.62-3.764-3.62zm1.516 5.404c0 1.107-.82 2.39-2.088 2.39-.907 0-1.37-.587-1.372-1.194 0-1.356 1.944-1.534 3.086-1.534h.374v.34z"/></svg>