<svg xmlns="http://www.w3.org/2000/svg" viewBox="0 0 16 16"><path d="M8.018 5H15c.553 0 1-.448 1-1s-.447-1-1-1H8.018c-.552 0-1 .448-1 1s.448 1 1 1zM15 7H8.018c-.552 0-1 .448-1 1 0 .553.448 1 1 1H15c.553 0 1-.447 1-1 0-.552-.447-1-1-1zM15 11H8.018c-.552 0-1 .447-1 1s.448 1 1 1H15c.553 0 1-.447 1-1s-.447-1-1-1zM3.076 3.083c-.78 0-1.594.1-2.036.24-.07.024-.08.1-.07.175l.082.97c.01.076.104.076.174.064.372-.063 1.023-.127 1.443-.126.906 0 1.232.176 1.232.932v.503c0 .05-.024.065-.07.077l-1.372.19C.75 6.332.482 6.91.482 8.196c0 1.447.628 1.876 2.722 1.876.802 0 1.628-.09 2.035-.227.127-.05.15-.114.15-.19v-4.57c0-1.474-.872-2.003-2.314-2.003zm.825 5.78c0 .04-.01.063-.08.09-.15.037-.466.062-.733.062-.92 0-1.128-.1-1.128-.995 0-.907.255-1.07 1.092-1.07h.78c.045 0 .07.025.07.075v1.84z"/></svg>