<svg xmlns="http://www.w3.org/2000/svg" viewBox="-7.5 16.5 16 16"><path d="M-1 17.5c-3.037 0-5.5 2.462-5.5 5.5 0 3.037 2.463 5.5 5.5 5.5 3.038 0 5.5-2.463 5.5-5.5 0-3.038-2.462-5.5-5.5-5.5zm0 10c-2.485 0-4.5-2.015-4.5-4.5s2.015-4.5 4.5-4.5 4.5 2.015 4.5 4.5-2.015 4.5-4.5 4.5z"/><path d="M7.237 31.237c-.382.382-1.002.382-1.385 0l-3.565-3.565c-.382-.382-.382-1.002 0-1.385.382-.382 1.002-.382 1.385 0l3.565 3.565c.382.382.382 1.002 0 1.385zM1.5 23c0 .276-.224.5-.5.5h-4c-.276 0-.5-.224-.5-.5s.224-.5.5-.5h4c.276 0 .5.224.5.5z"/></svg>