<svg xmlns="http://www.w3.org/2000/svg" viewBox="-7.5 16.5 16 16"><path d="M4.578 17.157c-.836 0-3.62.312-4.972 4.242h-1.13c-.18 0-.333.126-.368.302l-.09.453c-.02.11.008.224.08.31s.177.138.29.138h.903c-.313 1.313-.795 3.73-1.005 4.934-.528 2.967-.9 2.997-1.22 3.047-.006-.138-.005-.398-.005-.4 0-.82-.427-1.65-1.38-1.65-.904 0-1.535.648-1.535 1.577 0 1.037.906 1.733 2.255 1.733 1.65 0 3.21-1.244 4.174-3.332.732-1.63 1.405-4.13 1.79-5.906H3.69c.17 0 .318-.113.363-.275l.125-.454c.03-.113.007-.234-.063-.327s-.18-.148-.298-.148h-1.18c.222-.954.455-1.865.7-2.354.23-.456.435-.62.646-.673-.068.195-.097.382-.097.597 0 .798.6 1.334 1.493 1.334.88 0 1.474-.61 1.474-1.517-.003-1.062-1.174-1.633-2.276-1.633z"/></svg>