<svg xmlns="http://www.w3.org/2000/svg" viewBox="-7.5 16.5 16 16"><path d="M7.5 16.5h-14c-.552 0-1 .448-1 1v14c0 .552.448 1 1 1h14c.552 0 1-.448 1-1v-14c0-.552-.448-1-1-1zm-.996 14.032H-5.5V18.5H6.504v12.032z"/><path d="M-1.207 27.707c.188.188.443.293.707.293.018 0 .037 0 .055-.002.284-.016.548-.152.726-.374l4-5c.15-.184.22-.405.22-.624 0-.293-.128-.584-.375-.78C3.94 21.07 3.72 21 3.5 21c-.293 0-.584.13-.78.375l-3.303 4.128-1.21-1.21c-.195-.195-.45-.293-.706-.293-.255 0-.51.097-.707.293-.195.195-.293.45-.293.707 0 .256.098.512.293.707l2 2z"/></svg>