<svg xmlns="http://www.w3.org/2000/svg" viewBox="-7.5 16.5 16 16"><path d="M6.488 22.367c.405-.472.633-1.076.633-1.698 0-1.43-1.137-2.59-2.536-2.59-.052 0-.103.004-.16.01-.463-.968-1.417-1.584-2.478-1.584-1.52 0-2.757 1.263-2.757 2.815 0 .716.273 1.4.76 1.924-.537.344-.983.823-1.293 1.387-.108-.094-.22-.182-.338-.262.404-.47.632-1.076.632-1.698 0-1.428-1.138-2.59-2.536-2.59-1.4 0-2.537 1.162-2.537 2.59 0 .622.227 1.227.632 1.698-.955.65-1.537 1.745-1.537 2.926v1.85c0 .408.327.74.728.74h.176v3.883c0 .408.326.74.727.74h3.617c.402 0 .728-.332.728-.74v-3.883h.176c.02 0 .04 0 .06-.003v3.887c0 .408.328.74.73.74H6.39c.402 0 .73-.332.73-.74v-3.883h.175c.4 0 .728-.332.728-.74v-1.85c0-1.182-.582-2.278-1.537-2.927zM-3.584 19.33c.72 0 1.308.6 1.308 1.34 0 .737-.587 1.337-1.308 1.337-.72 0-1.308-.6-1.308-1.338 0-.74.587-1.34 1.308-1.34zm2.212 7.3h-.405c-.275 0-.5.23-.5.512v4.112h-.807v-3.187c0-.283-.224-.51-.5-.51s-.5.228-.5.51v3.187h-.808v-4.112c0-.283-.224-.512-.5-.512h-.404v-1.338c0-1.248.992-2.263 2.212-2.263.883 0 1.642.535 1.996 1.302.135.292.217.615.217.96v1.338zm5.844-7.287c.038-.003.074-.012.112-.012.72 0 1.308.6 1.308 1.34 0 .737-.587 1.337-1.308 1.337-.03 0-.06-.007-.088-.01-.27-.285-.582-.525-.93-.708.545-.472.9-1.164.906-1.947zm-2.526-1.585c.622 0 1.155.383 1.394.93.073.166.114.348.125.54.002.03.01.06.01.093 0 .547-.278 1.028-.695 1.307-.147.098-.312.17-.488.212-.112.025-.227.043-.347.043-.842 0-1.528-.7-1.528-1.562s.686-1.562 1.53-1.562zm1.528 8.822v4.674H2.446v-3.637c0-.22-.135-.402-.323-.475-.055-.02-.114-.037-.177-.037-.026 0-.05.01-.074.016-.183.03-.332.152-.392.326-.02.054-.034.11-.034.172v3.637H.418V26.58c0-.283-.224-.512-.5-.512h-.29v-.776c0-.39-.07-.763-.192-1.11.158-1.28 1.217-2.277 2.51-2.277.27 0 .523.055.767.134.197.063.384.147.557.256.17.107.332.227.473.37.078.08.143.172.21.26.042.057.086.11.123.168.258.407.412.89.412 1.41v1.562h-.514c-.277.002-.5.23-.5.514zm3.322.05h-.404c-.277 0-.5.23-.5.512v4.112H4.474v-4.162h.514c.277 0 .5-.23.5-.512v-2.074c0-.484-.095-.945-.264-1.368.907.283 1.572 1.136 1.572 2.154v1.338z"/></svg>