<svg xmlns="http://www.w3.org/2000/svg" viewBox="0 0 16 16"><path d="M11.828 4.026H6.456c-.598 0-1.34.382-1.69.87L3.214 7.072c-.373.52-.373 1.334 0 1.853l1.555 2.18c.35.486 1.09.868 1.688.868h5.372c.683 0 1.24-.556 1.24-1.24v-5.47c0-.682-.557-1.238-1.24-1.238zm.535 6.71c0 .294-.24.534-.535.534H6.456c-.375 0-.897-.27-1.116-.574l-1.555-2.18c-.197-.274-.197-.757 0-1.033L5.34 5.305c.22-.306.74-.575 1.116-.575h5.372c.295 0 .535.24.535.535v5.47z"/><path d="M10.025 7.593H6.77c-.225 0-.406.184-.406.408s.182.406.406.406h3.255c.225 0 .405-.18.405-.405s-.18-.407-.405-.407z"/></svg>