<svg xmlns="http://www.w3.org/2000/svg" viewBox="-7.5 16.5 16 16"><path d="M6.278 25.132c.024-.208.035-.42.035-.632 0-.214-.01-.425-.035-.632l-1.766-.44c-.096-.357-.236-.693-.417-1.004l.938-1.563c-.264-.327-.564-.628-.893-.89l-1.563.936c-.31-.18-.647-.32-1.004-.417l-.44-1.767c-.208-.022-.42-.035-.633-.035s-.424.012-.632.035l-.44 1.766c-.358.095-.693.235-1.005.416l-1.563-.937c-.328.263-.63.563-.893.89l.938 1.564c-.18.31-.32.647-.417 1.003l-1.766.44c-.022.21-.035.42-.035.633 0 .214.012.425.035.632l1.766.44c.096.357.236.693.417 1.004l-.938 1.562c.264.328.564.63.893.893l1.563-.936c.31.18.647.32 1.004.417l.44 1.767c.21.022.42.035.633.035s.424-.012.632-.035l.44-1.766c.358-.095.693-.235 1.005-.416l1.563.937c.33-.263.63-.563.893-.89l-.938-1.564c.18-.31.32-.647.417-1.003l1.766-.44zM.5 26.992c-1.376 0-2.49-1.116-2.49-2.492S-.877 22.01.5 22.01s2.49 1.114 2.49 2.49S1.877 26.99.5 26.99z" stroke="#000" stroke-width=".25" stroke-miterlimit="10"/></svg>