<svg xmlns="http://www.w3.org/2000/svg" viewBox="0 0 16 16"><path d="M10.735 3.747h-5.47c-.683 0-1.24.556-1.24 1.24V8.73c0 .6.383 1.34.87 1.688l2.178 1.557c.25.18.58.278.926.278s.674-.1.925-.278l2.18-1.557c.487-.348.87-1.09.87-1.69V4.987c0-.684-.557-1.24-1.24-1.24zm.535 4.983c0 .376-.268.897-.574 1.116l-2.18 1.557c-.262.188-.772.187-1.034 0L5.304 9.845c-.306-.218-.574-.74-.574-1.115V4.986c0-.295.24-.535.535-.535h5.47c.296 0 .536.24.536.536V8.73z"/><path d="M9.646 7.427H8.41V6.192c0-.227-.182-.412-.41-.412-.228 0-.41.185-.41.412v1.235H6.353c-.23 0-.412.184-.412.412 0 .226.184.41.412.41H7.59v1.234c0 .23.182.413.41.413.23 0 .41-.184.41-.413V8.25h1.236c.23 0 .413-.184.413-.41 0-.23-.184-.413-.414-.413z"/></svg>