<?xml version="1.0" encoding="iso-8859-1"?>
<!-- Generator: Adobe Illustrator 19.1.0, SVG Export Plug-In . SVG Version: 6.00 Build 0)  -->
<svg version="1.1" id="Layer_1" xmlns="http://www.w3.org/2000/svg" xmlns:xlink="http://www.w3.org/1999/xlink" x="0px" y="0px"
	 viewBox="0 0 20 16" style="enable-background:new 0 0 20 16;" xml:space="preserve">
<path d="M0.305,7.408l10.181-7.273C10.612,0.046,10.76,0,10.909,0c0.114,0,0.228,0.027,0.333,0.081
	c0.242,0.125,0.394,0.374,0.394,0.646v3.778c2-0.062,4.58,0.812,6.128,2.47c3.025,3.24,2.115,6.356,2.086,6.557
	c-0.147,1.046-0.991,1.449-1.099,0.903c-0.507-2.566-4.883-4.211-7.115-2.935v3.772c0,0.272-0.152,0.522-0.394,0.646
	C11.137,15.973,11.023,16,10.909,16c-0.149,0-0.297-0.045-0.423-0.135L0.305,8.592C0.114,8.455,0,8.235,0,8
	C0,7.765,0.114,7.545,0.305,7.408z"/>
</svg>
