<?xml version="1.0" encoding="iso-8859-1"?>
<!-- Generator: Adobe Illustrator 19.1.0, SVG Export Plug-In . SVG Version: 6.00 Build 0)  -->
<svg version="1.1" id="Layer_1" xmlns="http://www.w3.org/2000/svg" xmlns:xlink="http://www.w3.org/1999/xlink" x="0px" y="0px"
	 viewBox="0 0 16 16" style="enable-background:new 0 0 16 16;" xml:space="preserve">
<g>
	<path d="M8,4v3H5V4H8 M9,3H4v5h5V3L9,3z"/>
	<path d="M13,2v12H3V2H13 M12,0H3C1.895,0,1,0.895,1,2v12c0,1.105,0.895,2,2,2h10c1.105,0,2-0.895,2-2V3C15,1.346,13.654,0,12,0
		L12,0z"/>
	<rect x="4" y="9" width="8" height="1"/>
	<rect x="4" y="11" width="8" height="1"/>
	<rect x="10" y="7" width="2" height="1"/>
	<rect x="10" y="5" width="2" height="1"/>
	<rect x="10" y="3" width="2" height="1"/>
</g>
</svg>
