<?xml version="1.0" encoding="iso-8859-1"?>
<!-- Generator: Adobe Illustrator 17.1.0, SVG Export Plug-In . SVG Version: 6.00 Build 0)  -->
<!DOCTYPE svg PUBLIC "-//W3C//DTD SVG 1.1//EN" "http://www.w3.org/Graphics/SVG/1.1/DTD/svg11.dtd">
<svg version="1.1" id="Layer_1" xmlns="http://www.w3.org/2000/svg" xmlns:xlink="http://www.w3.org/1999/xlink" x="0px" y="0px"
	 viewBox="-7.5 16.5 16 16" style="enable-background:new -7.5 16.5 16 16;" xml:space="preserve">
<g>
	<path style="fill:#231F20;" d="M3.27,27.382l-0.354-6.34l-1.7,1.288c0,0-4.039-4.561-7.621-1.849c0,0,1.934-0.501,3.987,1.631
		c0.336,0.349,0.822,0.897,1.521,1.82l-1.839,1.392L3.27,27.382z"/>
</g>
<circle cx="-6.5" cy="27.5" r="1"/>
<circle cx="7.5" cy="27.5" r="1"/>
<circle cx="7.5" cy="24.5" r="1"/>
<circle cx="7.5" cy="21.5" r="1"/>
<circle cx="-2.5" cy="31.5" r="1"/>
<circle cx="0.5" cy="31.5" r="1"/>
<circle cx="3.5" cy="31.5" r="1"/>
<circle cx="0.5" cy="17.5" r="1"/>
<circle cx="3.5" cy="17.5" r="1"/>
<g>
	<path d="M-5.5,32.5h-1c-0.552,0-1-0.447-1-1v-1c0-0.553,0.448-1,1-1s1,0.447,1,1c0.552,0,1,0.447,1,1S-4.948,32.5-5.5,32.5z"/>
</g>
<g>
	<path d="M8.5,30.5v1c0,0.552-0.447,1-1,1h-1c-0.553,0-1-0.448-1-1s0.447-1,1-1c0-0.552,0.447-1,1-1S8.5,29.948,8.5,30.5z"/>
</g>
<g>
	<path d="M6.5,16.5h1c0.552,0,1,0.447,1,1v1c0,0.553-0.448,1-1,1s-1-0.447-1-1c-0.552,0-1-0.447-1-1S5.948,16.5,6.5,16.5z"/>
</g>
</svg>
