<?xml version="1.0" encoding="iso-8859-1"?>
<!-- Generator: Adobe Illustrator 17.1.0, SVG Export Plug-In . SVG Version: 6.00 Build 0)  -->
<!DOCTYPE svg PUBLIC "-//W3C//DTD SVG 1.1//EN" "http://www.w3.org/Graphics/SVG/1.1/DTD/svg11.dtd">
<svg version="1.1" id="Layer_1" xmlns="http://www.w3.org/2000/svg" xmlns:xlink="http://www.w3.org/1999/xlink" x="0px" y="0px"
	 viewBox="-7.5 16.5 16 16" style="enable-background:new -7.5 16.5 16 16;" xml:space="preserve">
<path d="M-4.5,21.167c-0.551,0-1,0.449-1,1v0.5c0,0.551,0.449,1,1,1s1-0.449,1-1v-0.5C-3.5,21.616-3.949,21.167-4.5,21.167z"/>
<path d="M-2.638,24.443C-2.681,24.422-3.7,23.917-4.5,23.917s-1.819,0.505-1.862,0.526C-6.447,24.486-6.5,24.572-6.5,24.667v1.583
	c0,0.138,0.112,0.25,0.25,0.25h3.5c0.138,0,0.25-0.112,0.25-0.25v-1.583C-2.5,24.572-2.553,24.486-2.638,24.443z"/>
<path d="M0.5,23.167c-0.551,0-1,0.449-1,1v0.5c0,0.551,0.449,1,1,1s1-0.449,1-1v-0.5C1.5,23.616,1.051,23.167,0.5,23.167z"/>
<path d="M2.362,26.443C2.319,26.422,1.3,25.917,0.5,25.917s-1.819,0.505-1.862,0.526C-1.447,26.486-1.5,26.572-1.5,26.667v1.583
	c0,0.138,0.112,0.25,0.25,0.25h3.5c0.138,0,0.25-0.112,0.25-0.25v-1.583C2.5,26.572,2.447,26.486,2.362,26.443z"/>
<path d="M5.5,18.167c-0.551,0-1,0.449-1,1v0.5c0,0.551,0.449,1,1,1s1-0.449,1-1v-0.5C6.5,18.615,6.051,18.167,5.5,18.167z"/>
<path d="M7.362,21.443C7.319,21.422,6.3,20.917,5.5,20.917s-1.819,0.505-1.862,0.526C3.553,21.485,3.5,21.572,3.5,21.667v1.583
	c0,0.138,0.112,0.25,0.25,0.25h3.5c0.138,0,0.25-0.112,0.25-0.25v-1.583C7.5,21.572,7.447,21.485,7.362,21.443z"/>
<g>
	<path d="M-2.5,30.5c0,0.55-0.45,1-1,1h-2c-0.55,0-1-0.45-1-1v-2c0-0.55,0.45-1,1-1h2c0.55,0,1,0.45,1,1V30.5z"/>
</g>
<g>
	<path d="M2.5,30.5c0,0.55-0.45,1-1,1h-2c-0.55,0-1-0.45-1-1l0,0c0-0.55,0.45-1,1-1h2C2.05,29.5,2.5,29.95,2.5,30.5L2.5,30.5z"/>
</g>
<g>
	<path d="M7.5,30.5c0,0.55-0.45,1-1,1h-2c-0.55,0-1-0.45-1-1v-5c0-0.55,0.45-1,1-1h2c0.55,0,1,0.45,1,1V30.5z"/>
</g>
</svg>
