<?xml version="1.0" encoding="iso-8859-1"?>
<!-- Generator: Adobe Illustrator 17.1.0, SVG Export Plug-In . SVG Version: 6.00 Build 0)  -->
<!DOCTYPE svg PUBLIC "-//W3C//DTD SVG 1.1//EN" "http://www.w3.org/Graphics/SVG/1.1/DTD/svg11.dtd">
<svg version="1.1" id="Layer_1" xmlns="http://www.w3.org/2000/svg" xmlns:xlink="http://www.w3.org/1999/xlink" x="0px" y="0px"
	 viewBox="-7.5 16.5 16 16" style="enable-background:new -7.5 16.5 16 16;" xml:space="preserve">
<path d="M6.5,16.5h-12c-1.105,0-2,0.895-2,2v12c0,1.105,0.895,2,2,2h12c1.105,0,2-0.895,2-2v-12C8.5,17.395,7.605,16.5,6.5,16.5z
	 M6.5,30.5h-12v-9h12V30.5z M6.5,20.5h-12v-2h12V20.5z"/>
<line style="fill:none;stroke:#000000;stroke-width:0.5;stroke-miterlimit:10;" x1="-3.667" y1="21.5" x2="-3.667" y2="30.5"/>
<line style="fill:none;stroke:#000000;stroke-width:0.5;stroke-miterlimit:10;" x1="-5.75" y1="21.5" x2="-5.75" y2="30.5"/>
<line style="fill:none;stroke:#000000;stroke-width:0.5;stroke-miterlimit:10;" x1="-1.583" y1="21.5" x2="-1.583" y2="30.5"/>
<line style="fill:none;stroke:#000000;stroke-width:0.5;stroke-miterlimit:10;" x1="0.5" y1="21.5" x2="0.5" y2="30.5"/>
<line style="fill:none;stroke:#000000;stroke-width:0.5;stroke-miterlimit:10;" x1="2.583" y1="21.5" x2="2.583" y2="30.5"/>
<line style="fill:none;stroke:#000000;stroke-width:0.5;stroke-miterlimit:10;" x1="4.667" y1="21.5" x2="4.667" y2="30.5"/>
<line style="fill:none;stroke:#000000;stroke-width:0.5;stroke-miterlimit:10;" x1="6.75" y1="21.5" x2="6.75" y2="30.5"/>
<line style="fill:none;stroke:#000000;stroke-width:0.5;stroke-miterlimit:10;" x1="-5.5" y1="23.5" x2="6.5" y2="23.5"/>
<line style="fill:none;stroke:#000000;stroke-width:0.5;stroke-miterlimit:10;" x1="-5.5" y1="26" x2="6.5" y2="26"/>
<line style="fill:none;stroke:#000000;stroke-width:0.5;stroke-miterlimit:10;" x1="-5.5" y1="28.5" x2="6.5" y2="28.5"/>
</svg>
