<?xml version="1.0" encoding="iso-8859-1"?>
<!-- Generator: Adobe Illustrator 17.1.0, SVG Export Plug-In . SVG Version: 6.00 Build 0)  -->
<!DOCTYPE svg PUBLIC "-//W3C//DTD SVG 1.1//EN" "http://www.w3.org/Graphics/SVG/1.1/DTD/svg11.dtd">
<svg version="1.1" id="Layer_1" xmlns="http://www.w3.org/2000/svg" xmlns:xlink="http://www.w3.org/1999/xlink" x="0px" y="0px"
	 viewBox="-7.5 16.5 16 16" style="enable-background:new -7.5 16.5 16 16;" xml:space="preserve">
<path d="M5.5,30.5h-3h-2H-3c-0.276,0-0.5-0.224-0.5-0.5c0-0.276,0.224-0.5,0.5-0.5h8.5v-2h1v-9c0-1.105-0.895-2-2-2h-8
	c-1.105,0-2,0.895-2,2v12c0,1.105,0.895,2,2,2h4h2h3c0.552,0,1-0.448,1-1C6.5,30.948,6.052,30.5,5.5,30.5z M-3.5,18.5h8v10h-8V18.5z
	"/>
<path d="M6.5,28.5c0,0.552-0.448,1-1,1l0,0c-0.552,0-1-0.448-1-1v-2c0-0.552,0.448-1,1-1l0,0c0.552,0,1,0.448,1,1V28.5z"/>
<path d="M5.5,30c0-0.552,0.448-1,1-1v-0.5h-2v3h2V31C5.948,31,5.5,30.552,5.5,30z"/>
<rect x="-1.5" y="20.5" width="4" height="1"/>
<rect x="-1.5" y="22.5" width="4" height="1"/>
</svg>
