<?xml version="1.0" encoding="iso-8859-1"?>
<!-- Generator: Adobe Illustrator 17.1.0, SVG Export Plug-In . SVG Version: 6.00 Build 0)  -->
<!DOCTYPE svg PUBLIC "-//W3C//DTD SVG 1.1//EN" "http://www.w3.org/Graphics/SVG/1.1/DTD/svg11.dtd">
<svg version="1.1" id="Layer_1" xmlns="http://www.w3.org/2000/svg" xmlns:xlink="http://www.w3.org/1999/xlink" x="0px" y="0px"
	 viewBox="-7.5 16.5 16 16" style="enable-background:new -7.5 16.5 16 16;" xml:space="preserve">
<path d="M8.207,20.895l-7.696,7.696l-3.886,0.971l0.971-3.886l7.696-7.696C5.488,17.785,5.744,17.688,6,17.688
	c0.256,0,0.512,0.098,0.707,0.293l1.5,1.5C8.598,19.871,8.598,20.504,8.207,20.895z M0,27.688l0.25-0.25l-1.5-1.5l-0.25,0.25l-0.5,2
	L0,27.688z M4.75,22.938l-1.5-1.5l-4,4l1.5,1.5L4.75,22.938z M6,21.688l-1.5-1.5l-0.75,0.75l1.5,1.5L6,21.688z M7.5,20.188l-1.5-1.5
	l-0.793,0.793l1.5,1.5L7.5,20.188z"/>
<path d="M2.5,27.893V30.5h-8v-12h4l2.454,2.454l1.713-1.713l-1.963-2.114C0.326,16.727-0.2,16.5-0.75,16.5H-5.5
	c-1.105,0-2,0.895-2,2v12c0,1.105,0.895,2,2,2h8c1.105,0,2-0.895,2-2v-4.607L2.5,27.893z"/>
</svg>
