<?xml version="1.0" encoding="iso-8859-1"?>
<!-- Generator: Adobe Illustrator 17.1.0, SVG Export Plug-In . SVG Version: 6.00 Build 0)  -->
<!DOCTYPE svg PUBLIC "-//W3C//DTD SVG 1.1//EN" "http://www.w3.org/Graphics/SVG/1.1/DTD/svg11.dtd">
<svg version="1.1" id="Layer_1" xmlns="http://www.w3.org/2000/svg" xmlns:xlink="http://www.w3.org/1999/xlink" x="0px" y="0px"
	 viewBox="-7.5 16.5 16 16" style="enable-background:new -7.5 16.5 16 16;" xml:space="preserve">
<g>
	<path d="M-4.746,31.488v-0.89l4.32-5.843l-3.987-6.366V17.5h9.839v3.551H4.087c-0.115-0.425-0.222-0.776-0.319-1.052
		c-0.098-0.276-0.221-0.513-0.369-0.708C3.25,19.094,3.06,18.945,2.826,18.84c-0.232-0.104-0.528-0.155-0.886-0.155H-0.72
		l2.874,4.563v0.719l-3.613,4.796h4.008c0.27,0,0.474-0.017,0.612-0.051c0.138-0.033,0.263-0.094,0.375-0.182
		c0.111-0.088,0.219-0.218,0.323-0.394c0.105-0.175,0.198-0.384,0.279-0.624c0.081-0.238,0.141-0.486,0.182-0.743h1.427
		l-0.342,4.718H-4.746z"/>
</g>
</svg>
