<?xml version="1.0" encoding="iso-8859-1"?>
<!-- Generator: Adobe Illustrator 19.1.0, SVG Export Plug-In . SVG Version: 6.00 Build 0)  -->
<svg version="1.1" id="Layer_1" xmlns="http://www.w3.org/2000/svg" xmlns:xlink="http://www.w3.org/1999/xlink" x="0px" y="0px"
	 viewBox="0 0 20 16" style="enable-background:new 0 0 20 16;" xml:space="preserve">
<path d="M19.695,7.408L9.514,0.135C9.388,0.046,9.24,0,9.091,0C8.977,0,8.863,0.027,8.759,0.081
	C8.516,0.205,8.364,0.455,8.364,0.727v3.778c-2-0.062-4.58,0.812-6.128,2.47c-3.025,3.24-2.115,6.356-2.086,6.557
	c0.147,1.046,0.991,1.449,1.099,0.903c0.507-2.566,4.883-4.211,7.115-2.935v3.772c0,0.272,0.152,0.522,0.394,0.646
	C8.863,15.973,8.977,16,9.091,16c0.149,0,0.297-0.045,0.423-0.135l10.181-7.273C19.886,8.455,20,8.235,20,8
	S19.886,7.545,19.695,7.408z"/>
</svg>
