<?xml version="1.0" encoding="iso-8859-1"?>
<!-- Generator: Adobe Illustrator 17.1.0, SVG Export Plug-In . SVG Version: 6.00 Build 0)  -->
<!DOCTYPE svg PUBLIC "-//W3C//DTD SVG 1.1//EN" "http://www.w3.org/Graphics/SVG/1.1/DTD/svg11.dtd">
<svg version="1.1" id="Layer_1" xmlns="http://www.w3.org/2000/svg" xmlns:xlink="http://www.w3.org/1999/xlink" x="0px" y="0px"
	 viewBox="-7.5 16.5 16 16" style="enable-background:new -7.5 16.5 16 16;" xml:space="preserve">
<g>
	<path d="M6.5,16.5h-12c-1.105,0-2,0.895-2,2v12c0,1.105,0.895,2,2,2h12c1.105,0,2-0.895,2-2v-12C8.5,17.395,7.605,16.5,6.5,16.5z
		 M6.5,30.5h-12v-12h12V30.5z"/>
	<path d="M5.5,25v-1h-2v-4.5h-6V24h-2v1h2v4.5h6V25H5.5z M2.5,28.5h-4V25h1v-1h-1v-3.5h4V24h-1v1h1V28.5z"/>
</g>
</svg>
