<?xml version="1.0" encoding="iso-8859-1"?>
<!-- Generator: Adobe Illustrator 17.1.0, SVG Export Plug-In . SVG Version: 6.00 Build 0)  -->
<!DOCTYPE svg PUBLIC "-//W3C//DTD SVG 1.1//EN" "http://www.w3.org/Graphics/SVG/1.1/DTD/svg11.dtd">
<svg version="1.1" id="Layer_1" xmlns="http://www.w3.org/2000/svg" xmlns:xlink="http://www.w3.org/1999/xlink" x="0px" y="0px"
	 viewBox="0 0 16 16" style="enable-background:new 0 0 16 16;" xml:space="preserve">
<g>
	<path d="M11.828,4.026H6.456c-0.598,0-1.339,0.382-1.689,0.869L3.213,7.073c-0.373,0.52-0.373,1.334,0,1.853l1.555,2.179
		c0.349,0.487,1.091,0.869,1.688,0.869h5.372c0.683,0,1.239-0.556,1.239-1.239V5.265C13.067,4.582,12.511,4.026,11.828,4.026z
		 M12.363,10.735c0,0.295-0.24,0.535-0.535,0.535H6.456c-0.375,0-0.897-0.269-1.116-0.574L3.785,8.517
		c-0.197-0.275-0.197-0.758,0-1.034L5.34,5.305C5.559,4.999,6.081,4.73,6.456,4.73h5.372c0.295,0,0.535,0.24,0.535,0.535V10.735z"/>
	<path d="M10.025,7.593H6.77c-0.225,0-0.406,0.184-0.406,0.408S6.546,8.406,6.77,8.406h3.255c0.225,0,0.405-0.181,0.405-0.405
		S10.25,7.593,10.025,7.593z"/>
</g>
</svg>
