<?xml version="1.0" encoding="iso-8859-1"?>
<!-- Generator: Adobe Illustrator 17.1.0, SVG Export Plug-In . SVG Version: 6.00 Build 0)  -->
<!DOCTYPE svg PUBLIC "-//W3C//DTD SVG 1.1//EN" "http://www.w3.org/Graphics/SVG/1.1/DTD/svg11.dtd">
<svg version="1.1" id="Layer_1" xmlns="http://www.w3.org/2000/svg" xmlns:xlink="http://www.w3.org/1999/xlink" x="0px" y="0px"
	 viewBox="-7.5 16.5 16 16" style="enable-background:new -7.5 16.5 16 16;" xml:space="preserve">
<path d="M5,16.5c1.933,0,3.5,1.567,3.5,3.5S6.933,23.5,5,23.5S1.5,21.933,1.5,20S3.067,16.5,5,16.5z M2.5,20
	c0,1.381,1.119,2.5,2.5,2.5s2.5-1.119,2.5-2.5S6.381,17.5,5,17.5S2.5,18.619,2.5,20z"/>
<path d="M5.5,21c0,0.276-0.224,0.5-0.5,0.5l0,0c-0.276,0-0.5-0.224-0.5-0.5v-2c0-0.276,0.224-0.5,0.5-0.5l0,0
	c0.276,0,0.5,0.224,0.5,0.5V21z"/>
<path d="M6.5,20c0,0.276-0.224,0.5-0.5,0.5H4c-0.276,0-0.5-0.224-0.5-0.5l0,0c0-0.276,0.224-0.5,0.5-0.5h2
	C6.276,19.5,6.5,19.724,6.5,20L6.5,20z"/>
<path d="M1.5,20c0-0.981,0.406-1.865,1.056-2.5H-5.5c-0.552,0-1,0.448-1,1v3c0,0.552,0.448,1,1,1h8.056
	C1.906,21.865,1.5,20.981,1.5,20z"/>
<path d="M0.5,25c0,0.276-0.224,0.5-0.5,0.5h-6c-0.276,0-0.5-0.224-0.5-0.5l0,0c0-0.276,0.224-0.5,0.5-0.5h6
	C0.276,24.5,0.5,24.724,0.5,25L0.5,25z"/>
<path d="M5.5,27c0,0.276-0.224,0.5-0.5,0.5H-6c-0.276,0-0.5-0.224-0.5-0.5l0,0c0-0.276,0.224-0.5,0.5-0.5H5
	C5.276,26.5,5.5,26.724,5.5,27L5.5,27z"/>
<path d="M2.5,29c0,0.276-0.224,0.5-0.5,0.5h-8c-0.276,0-0.5-0.224-0.5-0.5l0,0c0-0.276,0.224-0.5,0.5-0.5h8
	C2.276,28.5,2.5,28.724,2.5,29L2.5,29z"/>
<path d="M-0.5,31c0,0.276-0.224,0.5-0.5,0.5h-5c-0.276,0-0.5-0.224-0.5-0.5l0,0c0-0.276,0.224-0.5,0.5-0.5h5
	C-0.724,30.5-0.5,30.724-0.5,31L-0.5,31z"/>
</svg>
