<?xml version="1.0" encoding="iso-8859-1"?>
<!-- Generator: Adobe Illustrator 17.1.0, SVG Export Plug-In . SVG Version: 6.00 Build 0)  -->
<!DOCTYPE svg PUBLIC "-//W3C//DTD SVG 1.1//EN" "http://www.w3.org/Graphics/SVG/1.1/DTD/svg11.dtd">
<svg version="1.1" id="Layer_1" xmlns="http://www.w3.org/2000/svg" xmlns:xlink="http://www.w3.org/1999/xlink" x="0px" y="0px"
	 viewBox="-7.5 16.5 16 16" style="enable-background:new -7.5 16.5 16 16;" xml:space="preserve">
<path d="M5.5,24.5c0,0.552-0.448,1-1,1h-3v3c0,0.552-0.448,1-1,1c-0.552,0-1-0.448-1-1v-3h-3c-0.552,0-1-0.448-1-1
	c0-0.552,0.448-1,1-1h3v-3c0-0.552,0.448-1,1-1c0.552,0,1,0.448,1,1v3h3C5.052,23.5,5.5,23.948,5.5,24.5z"/>
</svg>
