<svg xmlns="http://www.w3.org/2000/svg" viewBox="-7.5 16.5 16 16"><path d="M-4.5 21.167c-.551 0-1 .449-1 1v.5c0 .551.449 1 1 1s1-.449 1-1v-.5c0-.551-.449-1-1-1zM-2.638 24.443c-.043-.021-1.062-.526-1.862-.526s-1.819.505-1.862.526a.25.25 0 0 0-.138.224v1.583c0 .138.112.25.25.25h3.5a.25.25 0 0 0 .25-.25v-1.583a.25.25 0 0 0-.138-.224zM.5 23.167c-.551 0-1 .449-1 1v.5c0 .551.449 1 1 1s1-.449 1-1v-.5c0-.551-.449-1-1-1zM2.362 26.443c-.043-.021-1.062-.526-1.862-.526s-1.819.505-1.862.526a.25.25 0 0 0-.138.224v1.583c0 .138.112.25.25.25h3.5a.25.25 0 0 0 .25-.25v-1.583a.25.25 0 0 0-.138-.224zM5.5 18.167c-.551 0-1 .449-1 1v.5c0 .551.449 1 1 1s1-.449 1-1v-.5c0-.552-.449-1-1-1zM7.362 21.443c-.043-.021-1.062-.526-1.862-.526s-1.819.505-1.862.526a.25.25 0 0 0-.138.224v1.583c0 .138.112.25.25.25h3.5a.25.25 0 0 0 .25-.25v-1.583a.25.25 0 0 0-.138-.224zM-2.5 30.5c0 .55-.45 1-1 1h-2c-.55 0-1-.45-1-1v-2c0-.55.45-1 1-1h2c.55 0 1 .45 1 1v2zM2.5 30.5c0 .55-.45 1-1 1h-2c-.55 0-1-.45-1-1s.45-1 1-1h2c.55 0 1 .45 1 1zM7.5 30.5c0 .55-.45 1-1 1h-2c-.55 0-1-.45-1-1v-5c0-.55.45-1 1-1h2c.55 0 1 .45 1 1v5z"/></svg>