<svg xmlns="http://www.w3.org/2000/svg" viewBox="-7.5 16.5 16 16"><path d="M-6.648 19.383a2.94 2.94 0 0 0-.852 2.122v6.002c0 .829.284 1.536.852 2.122.568.586 1.254.879 2.057.879H5.591c.803 0 1.489-.293 2.057-.879a2.937 2.937 0 0 0 .852-2.121v-6.002a2.94 2.94 0 0 0-.852-2.122c-.568-.586-1.254-.879-2.057-.879H-4.591c-.803-.001-1.489.292-2.057.878zm12.171 3.74c0 .454-.129.836-.386 1.149.667.5 1 1.165 1 1.993v1.243a.554.554 0 0 1-.545.563H1.955a.516.516 0 0 1-.386-.164.55.55 0 0 1-.159-.399v-1.243c0-.828.333-1.493 1-1.993-.258-.312-.386-.695-.386-1.149 0-.5.17-.926.511-1.278s.754-.528 1.239-.528c.485 0 .898.176 1.239.528.339.352.51.778.51 1.278zm-5.591-1.407a.746.746 0 0 1 .205.539.739.739 0 0 1-.205.539.695.695 0 0 1-.523.211h-3.636a.697.697 0 0 1-.523-.211.744.744 0 0 1-.205-.539c0-.219.068-.399.205-.539a.694.694 0 0 1 .523-.211h3.636a.7.7 0 0 1 .523.211zm3.182 1.407c0 .203.064.372.193.504.128.133.284.199.466.199s.337-.066.466-.199a.694.694 0 0 0 .193-.504.669.669 0 0 0-.193-.481c-.129-.133-.284-.199-.466-.199s-.337.067-.466.199a.665.665 0 0 0-.193.481zM.136 25.257c0 .25-.121.375-.364.375h-4.364c-.242 0-.364-.125-.364-.375s.121-.375.364-.375h4.364c.243 0 .364.125.364.375zM2.5 26.265v.68h2.545v-.68c0-.359-.125-.668-.375-.926a1.206 1.206 0 0 0-.898-.387c-.349 0-.648.129-.898.387a1.288 1.288 0 0 0-.374.926zm-3.818.492c0 .25-.121.375-.364.375h-2.909c-.242 0-.364-.125-.364-.375s.121-.375.364-.375h2.909c.242 0 .364.125.364.375z"/></svg>