<svg xmlns="http://www.w3.org/2000/svg" viewBox="-7.5 16.5 16 16"><path d="M6.278 25.132c.024-.208.035-.419.035-.632 0-.214-.011-.425-.035-.632l-1.766-.441a4.125 4.125 0 0 0-.417-1.003l.938-1.563a5.794 5.794 0 0 0-.893-.892l-1.563.937a4.155 4.155 0 0 0-1.004-.417l-.441-1.766a5.737 5.737 0 0 0-1.264 0l-.441 1.766a4.132 4.132 0 0 0-1.004.417l-1.563-.937a5.884 5.884 0 0 0-.893.892l.938 1.563c-.18.311-.321.647-.417 1.003l-1.766.441a5.723 5.723 0 0 0 0 1.264l1.766.441c.096.356.236.692.417 1.003l-.938 1.562c.264.328.564.629.893.893l1.563-.937c.311.18.647.321 1.004.417l.441 1.766a5.737 5.737 0 0 0 1.264 0l.441-1.766a4.132 4.132 0 0 0 1.004-.417l1.563.937c.329-.264.629-.564.893-.892l-.938-1.563c.18-.311.321-.647.417-1.003l1.766-.441zM.5 26.991a2.49 2.49 0 1 1 0-4.981 2.49 2.49 0 0 1 0 4.981z" stroke="#000" stroke-width=".25" stroke-miterlimit="10"/></svg>