<svg xmlns="http://www.w3.org/2000/svg" viewBox="-7.5 16.5 16 16"><path d="M4.578 17.157c-.836 0-3.62.312-4.972 4.242h-1.13a.376.376 0 0 0-.368.303l-.089.453a.376.376 0 0 0 .369.448h.903a105.46 105.46 0 0 0-1.006 4.934c-.528 2.967-.901 2.997-1.22 3.047-.006-.138-.005-.398-.005-.4 0-.821-.427-1.65-1.38-1.65-.904 0-1.535.648-1.535 1.577 0 1.036.906 1.732 2.255 1.732 1.651 0 3.211-1.244 4.174-3.332.732-1.63 1.405-4.13 1.789-5.907h1.328a.376.376 0 0 0 .362-.275l.125-.453a.373.373 0 0 0-.361-.474H2.638c.221-.954.454-1.865.698-2.354.23-.456.436-.62.647-.673a1.747 1.747 0 0 0-.097.597c0 .798.6 1.334 1.493 1.334.882 0 1.475-.609 1.475-1.517-.003-1.061-1.174-1.632-2.276-1.632z"/></svg>