<svg xmlns="http://www.w3.org/2000/svg" viewBox="0 0 48 48"><path d="M23.5 20.75c1.241 0 2.25-1.009 2.25-2.25s-1.009-2.25-2.25-2.25-2.25 1.009-2.25 2.25 1.009 2.25 2.25 2.25zm0-3.75a1.5 1.5 0 1 1 .001 2.999A1.5 1.5 0 0 1 23.5 17z"/><path d="M44.803 18.078a.646.646 0 0 0-.472-.188l-3.298.536c-.011.002-.022.009-.033.012V16.5c0-.552-.581-.923-1.124-.923L35 16.4V14c0-1.103-.897-2-2-2H15c-1.103 0-2 .897-2 2v2.399l-4.673-.807-.173-.014c-.484 0-1.154.32-1.154.922v1.887l-2.673-.482-.174-.015c-.483 0-1.153.321-1.153.922v9.375c0 .552.533.922 1.031.922L7 28.63v1.87c0 .552.554.923 1.071.923L13 30.62V32c0 1.103.897 2 2 2h18c1.103 0 2-.897 2-2v-1.382l4.784.791.168.014c.231 0 .472-.077.66-.212A.878.878 0 0 0 41 30.5v-1.965c.055.017.107.03.154.038l2.893.522.164.014c.273 0 .511-.13.65-.356.093-.152.139-.338.139-.565v-9.441c.002-.208.005-.465-.197-.669zm-11.805 10.87a58.156 58.156 0 0 0-7.574-3.734c1.256-.935 4.636-3.268 7.575-3.745l-.001 7.479zM36 23.878c-.372 0-.711-.131-.986-.342l.006-2.572a1.61 1.61 0 0 1 .979-.337c.896 0 1.625.729 1.625 1.625s-.728 1.626-1.624 1.626zM33 14l-.001 6.71c-3.551.522-7.559 3.53-8.394 4.184-2.99-1.14-6.356-2.075-9.605-2.241V14h18zM8 16.616a.422.422 0 0 1 .158-.039L13 17.5v8.034c-1.298-.074-3.609-.506-5-2.506v-6.412zM4.018 28.109l-.018.5v-9.681a.432.432 0 0 1 .154-.039l2.825.477c.006.01.021.055.021.138v8.113l-2.982.492zm8.96 1.498l-4.939.815-.039.501v-.5s.022-.007 0-.016v-6.196c1.591 1.654 3.739 2.018 5 2.076V29.5c0 .046-.02.081-.022.107zM15 32v-8.596c7.406.388 15 4.899 18 6.416V32H15zm20-2.5l.011-4.537c.255-.206.558-.335.954-.335 1.756 0 1.968 2.152 1.985 5.464l-2.944-.487A.696.696 0 0 1 35 29.5zm5 .913a.137.137 0 0 1-.048.01l-1.248-.206c-.004-2.534-.075-5.046-1.427-5.967a2.37 2.37 0 0 0 1.099-1.996 2.377 2.377 0 0 0-2.375-2.375c-.349 0-.678.08-.977.216l.007-2.685 4.847-.832c.04 0 .088.014.124.03v13.805zm3.994-2.344l-2.666-.481a.817.817 0 0 1-.328-.167v-7.876a.4.4 0 0 1 .2-.133l2.8-.466-.006 9.123z"/></svg>