<svg xmlns="http://www.w3.org/2000/svg" viewBox="-7.5 16.5 16 16"><path fill="none" stroke="#000" stroke-width="2" stroke-linecap="round" stroke-linejoin="round" stroke-miterlimit="10" d="M-5.5 18.5v12h13"/><path d="M6.5 23.5v7h-3v-7h3m0-1h-3a1 1 0 0 0-1 1v7a1 1 0 0 0 1 1h3a1 1 0 0 0 1-1v-7a1 1 0 0 0-1-1zM.5 20.5v10h-3v-10h3m0-1h-3a1 1 0 0 0-1 1v10a1 1 0 0 0 1 1h3a1 1 0 0 0 1-1v-10a1 1 0 0 0-1-1z"/><path fill="none" stroke="#000" stroke-linecap="round" stroke-linejoin="round" stroke-miterlimit="10" d="M-2.5 26.5h3M-2.5 22.5h3M3.5 25.5h3"/></svg>