<svg xmlns="http://www.w3.org/2000/svg" viewBox="-7.5 17.5 16 16"><path d="M3.071 19.426l-.419 4.54 3.994 2.2-4.448 1.005-.858 4.478-2.329-3.918-4.524.568 3.006-3.427-1.938-4.127 4.189 1.801 3.327-3.12m0-1.854c-.462 0-.917.172-1.268.501l-2.442 2.289-3.074-1.322a1.858 1.858 0 0 0-2.064.414 1.853 1.853 0 0 0-.346 2.077l1.422 3.028-2.206 2.515a1.854 1.854 0 0 0 1.625 3.061l3.319-.417 1.709 2.875a1.855 1.855 0 0 0 3.415-.598l.63-3.286 3.264-.738a1.854 1.854 0 0 0 .486-3.433L4.61 22.923l.307-3.332a1.853 1.853 0 0 0-1.032-1.835 1.93 1.93 0 0 0-.814-.184z"/></svg>