<svg xmlns="http://www.w3.org/2000/svg" viewBox="0 0 48 48"><path d="M44 1c1.65 0 3 1.35 3 3v40c0 1.65-1.35 3-3 3H4c-1.65 0-3-1.35-3-3V4c0-1.65 1.35-3 3-3h40m0-1H4C1.794 0 0 1.794 0 4v40c0 2.206 1.794 4 4 4h40c2.206 0 4-1.794 4-4V4c0-2.206-1.794-4-4-4z"/><circle cx="36" cy="22.253" r="2" fill="none" stroke="#000" stroke-width=".75" stroke-linecap="round" stroke-linejoin="round" stroke-miterlimit="10"/><path d="M33.601 30.625c0-3.186 0-6.372 2.364-6.372s2.364 3.186 2.364 6.372M7.627 23.156C9.76 26.349 14 25.902 14 25.902" fill="none" stroke="#000" stroke-width=".75" stroke-linecap="round" stroke-linejoin="round" stroke-miterlimit="10"/><path d="M14 14c0-.55.45-1 1-1h18c.55 0 1 .45 1 1v18c0 .55-.45 1-1 1H15c-.55 0-1-.45-1-1V14z" fill="none" stroke="#000" stroke-width="2" stroke-linecap="round" stroke-linejoin="round" stroke-miterlimit="10"/><path d="M14 23c9.333 0 20 7 20 7" fill="none" stroke="#000" stroke-width=".75" stroke-linecap="round" stroke-linejoin="round" stroke-miterlimit="10"/><path d="M23.5 17a1.5 1.5 0 1 1 .001 2.999A1.5 1.5 0 0 1 23.5 17m0-.75c-1.241 0-2.25 1.009-2.25 2.25s1.009 2.25 2.25 2.25 2.25-1.009 2.25-2.25-1.009-2.25-2.25-2.25z"/><path d="M34 21c-4 0-9.319 4.311-9.319 4.311" fill="none" stroke="#000" stroke-width=".75" stroke-linecap="round" stroke-linejoin="round" stroke-miterlimit="10"/><path d="M7.5 16.5c0-.275.472-.462.743-.416l4.811.831c.271.046.446.309.446.584v12c0 .275-.05.538-.321.584l-5.022.831c-.271.048-.657-.139-.657-.414v-14z" fill="none" stroke="#000" stroke-miterlimit="10"/><path d="M3.5 18.812c0-.275.472-.462.743-.415l2.89.521c.271.047.368.31.368.585v7.992c0 .275.028.538-.243.585l-3.14.521c-.271.048-.618-.139-.618-.413v-9.376zM44.5 18.812c0-.275.028-.462-.243-.415l-3.14.521c-.271.047-.618.31-.618.585v7.992c0 .275.472.538.743.585l2.89.521c.271.047.368-.14.368-.415v-9.374z" fill="none" stroke="#000" stroke-miterlimit="10"/><path d="M40.5 16.5c0-.275-.441-.462-.712-.416l-4.844.832c-.271.046-.444.309-.444.584v12c0 .275.064.538.335.584l5.033.832c.271.046.633-.141.633-.416v-14z" fill="none" stroke="#000" stroke-miterlimit="10"/></svg>