<svg xmlns="http://www.w3.org/2000/svg" viewBox="0 0 16 16"><path d="M10.735 3.747h-5.47a1.24 1.24 0 0 0-1.239 1.239V8.73c0 .599.382 1.341.869 1.688l2.178 1.557c.251.179.58.278.926.278s.675-.099.926-.278l2.18-1.557c.487-.348.869-1.09.869-1.689V4.986a1.24 1.24 0 0 0-1.239-1.239zm.535 4.983c0 .376-.268.897-.574 1.116l-2.18 1.557c-.262.188-.772.187-1.034 0L5.304 9.845c-.306-.218-.574-.739-.574-1.115V4.986c0-.295.24-.535.535-.535h5.471c.295 0 .535.24.535.535V8.73z"/><path d="M9.646 7.427H8.411V6.192a.411.411 0 1 0-.822 0v1.235H6.354a.412.412 0 0 0 0 .824h1.235v1.233a.411.411 0 1 0 .822 0V8.251h1.235a.412.412 0 1 0 0-.824z"/></svg>