<svg xmlns="http://www.w3.org/2000/svg" viewBox="-7.5 16.5 16 16"><path d="M7.447 16.793l-.692-.219a.726.726 0 0 0-.897.433l-2.331 6.144-.111.347c-.308.22-.55.537-.673.924-.163.514-.388 1.218-.833 1.676l-.907.81 1.208.384c1.236.392 2.104.16 2.614-.105.648-.336 1.136-.929 1.37-1.669a1.795 1.795 0 0 0-.019-1.144l.112-.347 1.638-6.363a.72.72 0 0 0-.479-.871zm-1.941 8.504c-.327 1.036-1.348 1.854-3.074 1.305.563-.581.822-1.39 1.002-1.962a1.08 1.08 0 0 1 .484-.606l1.543.489c.105.235.128.508.045.774zm.096-1.489l-1.381-.439.514-1.357 1.227.389-.36 1.407zm.451-1.758l-1.189-.378 1.674-4.409.69.22-1.175 4.567z"/><path d="M5.029 28.25a.49.49 0 0 0-.49.49v.791H.83c-.049-.22-.311-1.021-.915-1.021h-3.417v-9.019h7.295a.49.49 0 0 0 0-.98h-5.628c-.24-.418-1.206-1.713-2.954-1.713-1.98 0-2.207.227-2.207 2.207 0 1.382.913 2.275 1.502 2.707-.287.471-.643 1.287-.643 2.442s.356 1.972.643 2.442c-.59.432-1.502 1.326-1.502 2.707 0 1.98.227 2.207 2.207 2.207 1.254 0 2.104-.75 2.575-1.33.471.58 1.321 1.33 2.575 1.33a.49.49 0 0 0 .49-.49v-.51h4.178a.489.489 0 0 0 .49-.49v-1.28a.49.49 0 0 0-.49-.49z"/></svg>