<svg xmlns="http://www.w3.org/2000/svg" viewBox="-7.5 16.5 16 16"><path d="M6.488 22.367a2.616 2.616 0 0 0 .633-1.698c0-1.428-1.138-2.589-2.537-2.589-.052 0-.103.004-.161.01a2.745 2.745 0 0 0-2.477-1.584c-1.52 0-2.757 1.263-2.757 2.815 0 .715.274 1.4.76 1.923a3.857 3.857 0 0 0-1.292 1.387 3.524 3.524 0 0 0-.338-.263 2.614 2.614 0 0 0 .633-1.698c0-1.428-1.138-2.589-2.536-2.589-1.399 0-2.537 1.161-2.537 2.589 0 .622.228 1.227.633 1.698a3.538 3.538 0 0 0-1.537 2.926v1.85c0 .408.327.74.728.74h.176v3.883c0 .408.327.74.728.74h3.617a.735.735 0 0 0 .728-.74v-3.883h.176a.608.608 0 0 0 .061-.003v3.886c0 .408.327.74.728.74h6.475a.735.735 0 0 0 .729-.74v-3.883h.176a.735.735 0 0 0 .728-.74v-1.85a3.537 3.537 0 0 0-1.537-2.927zm-10.072-3.036c.721 0 1.308.6 1.308 1.338 0 .738-.587 1.338-1.308 1.338-.721 0-1.308-.6-1.308-1.338 0-.738.587-1.338 1.308-1.338zm2.212 7.299h-.404c-.276 0-.5.229-.5.512v4.112h-.808v-3.187c0-.283-.224-.511-.5-.511s-.5.229-.5.511v3.187h-.808v-4.112a.506.506 0 0 0-.5-.512h-.404v-1.338c0-1.248.992-2.263 2.212-2.263.883 0 1.642.536 1.996 1.303.135.292.217.615.217.96v1.338zm5.844-7.287c.038-.003.074-.012.112-.012.721 0 1.308.6 1.308 1.338 0 .738-.587 1.338-1.308 1.338-.03 0-.059-.007-.088-.009a3.548 3.548 0 0 0-.929-.709 2.597 2.597 0 0 0 .905-1.946zm-2.526-1.585c.622 0 1.155.383 1.394.929.073.167.114.349.125.54.002.032.009.062.009.094a1.57 1.57 0 0 1-.694 1.306c-.147.098-.312.17-.488.212a1.527 1.527 0 0 1-.347.044c-.842 0-1.528-.701-1.528-1.562s.686-1.563 1.529-1.563zm1.528 8.822v4.674H2.446v-3.637a.507.507 0 0 0-.5-.512c-.026 0-.049.011-.074.016a.49.49 0 0 0-.392.325.516.516 0 0 0-.034.172v3.637H.418V26.58a.506.506 0 0 0-.5-.512h-.289v-.776c0-.39-.07-.763-.193-1.111.158-1.279 1.217-2.276 2.51-2.276.269 0 .523.055.767.134a2.571 2.571 0 0 1 1.03.628c.078.08.143.171.21.26.042.056.086.108.123.167.258.407.412.889.412 1.41v1.562h-.514a.508.508 0 0 0-.5.514zm3.322.05h-.404c-.277 0-.5.229-.5.512v4.112H4.474v-4.162h.514c.277 0 .5-.229.5-.512v-2.074c0-.484-.095-.945-.264-1.368a2.251 2.251 0 0 1 1.572 2.154v1.338z"/></svg>