<svg xmlns="http://www.w3.org/2000/svg" viewBox="0 0 18 18"><path d="M2.642 2.641C4.403.881 6.522 0 9 0s4.597.881 6.358 2.642S18 6.522 18 9c0 2.479-.881 4.598-2.642 6.359S11.478 18 9 18s-4.597-.881-6.358-2.642S0 11.478 0 9c0-2.478.881-4.598 2.642-6.359zm7.614 10.247c-.342-.342-.761-.513-1.256-.513s-.914.171-1.256.512c-.342.342-.512.76-.512 1.256s.171.914.512 1.256c.342.341.761.512 1.256.512s.914-.171 1.256-.512c.342-.342.512-.76.512-1.256s-.171-.914-.512-1.255zm-.352-9.935c-.254-.254-.555-.382-.904-.382s-.65.128-.904.382a1.236 1.236 0 0 0-.382.904v6.007c0 .349.128.65.382.904s.555.382.904.382.65-.128.904-.382.382-.555.382-.904V3.857c0-.349-.128-.65-.382-.904z"/></svg>