<svg xmlns="http://www.w3.org/2000/svg" viewBox="-7.5 16.5 16 16"><path d="M-3.5 18.5v2h-2v-2h2m0-1h-2c-.55 0-1 .45-1 1v2c0 .55.45 1 1 1h2c.55 0 1-.45 1-1v-2c0-.55-.45-1-1-1zM1.5 18.5v2h-2v-2h2m0-1h-2c-.55 0-1 .45-1 1v2c0 .55.45 1 1 1h2c.55 0 1-.45 1-1v-2c0-.55-.45-1-1-1zM6.5 18.5v2h-2v-2h2m0-1h-2c-.55 0-1 .45-1 1v2c0 .55.45 1 1 1h2c.55 0 1-.45 1-1v-2c0-.55-.45-1-1-1zM-3.5 23.5v2h-2v-2h2m0-1h-2c-.55 0-1 .45-1 1v2c0 .55.45 1 1 1h2c.55 0 1-.45 1-1v-2c0-.55-.45-1-1-1zM1.5 23.5v2h-2v-2h2m0-1h-2c-.55 0-1 .45-1 1v2c0 .55.45 1 1 1h2c.55 0 1-.45 1-1v-2c0-.55-.45-1-1-1zM6.5 23.5v2h-2v-2h2m0-1h-2c-.55 0-1 .45-1 1v2c0 .55.45 1 1 1h2c.55 0 1-.45 1-1v-2c0-.55-.45-1-1-1zM-3.5 28.5v2h-2v-2h2m0-1h-2c-.55 0-1 .45-1 1v2c0 .55.45 1 1 1h2c.55 0 1-.45 1-1v-2c0-.55-.45-1-1-1zM1.5 28.5v2h-2v-2h2m0-1h-2c-.55 0-1 .45-1 1v2c0 .55.45 1 1 1h2c.55 0 1-.45 1-1v-2c0-.55-.45-1-1-1zM6.5 28.5v2h-2v-2h2m0-1h-2c-.55 0-1 .45-1 1v2c0 .55.45 1 1 1h2c.55 0 1-.45 1-1v-2c0-.55-.45-1-1-1z"/><path fill="none" stroke="#000" stroke-linejoin="round" stroke-miterlimit="10" d="M-4.5 20.5v3M-3.5 19.5h3M1.5 19.5h3M5.5 20.5v3M.5 20.5v3M-3.5 24.5h3M1.5 24.5h3M5.5 25.5v3M4.5 29.5h-3M.5 28.5v-3M-4.5 25.5v3M-3.5 29.5h3"/></svg>