<svg xmlns="http://www.w3.org/2000/svg" viewBox="-7.5 16.5 16 16"><path d="M5.954 20.627l-3.25-3.5A2.001 2.001 0 0 0 1.25 16.5H-3.5a2 2 0 0 0-2 2v4s2 0 2-1v-3h4V22a.5.5 0 0 0 .5.5h3.5v8h-8v-.453c0-1-2-.984-2 .016v.438a2 2 0 0 0 2 2h8a2 2 0 0 0 2-2V22c0-.511-.195-1.002-.546-1.373zM1.5 21.5v-2.735L4.028 21.5H1.5z"/><path fill="none" stroke="#000" stroke-linecap="round" stroke-linejoin="round" stroke-miterlimit="10" d="M-1.903 21.344l.316 3.096 3.031.705-2.846 1.257.265 3.101-2.075-2.319-2.867 1.211 1.564-2.691-2.037-2.352 3.042.656z"/></svg>