<svg xmlns="http://www.w3.org/2000/svg" viewBox="-7.5 16.5 16 16"><path d="M-2.111 19.526l.679 1.04.624.933H6.5v7.033h-12V19.52l3.389.006m.633-1.995h-3.889c-1.177 0-2.133.895-2.133 1.995v8.978c0 1.1.957 1.995 2.133 1.995H6.367c1.177 0 2.133-.895 2.133-1.995v-6.983c0-1.1-.957-1.995-2.133-1.995H.389l-1.113-1.703a1.105 1.105 0 0 0-.754-.292z"/><path d="M-6.099 21.061H-.41v.439h-5.689zM1 23l1 1v3h-3v-4h2m0-1h-2a1 1 0 0 0-1 1v4a1 1 0 0 0 1 1h3a1 1 0 0 0 1-1v-3a.997.997 0 0 0-.293-.707l-1-1A.997.997 0 0 0 1 22z"/><path fill="none" stroke="#000" stroke-width=".5" stroke-miterlimit="10" d="M.656 22.609v1.672h1.703"/></svg>