<?xml version="1.0" encoding="iso-8859-1"?>
<!-- Generator: Adobe Illustrator 17.1.0, SVG Export Plug-In . SVG Version: 6.00 Build 0)  -->
<!DOCTYPE svg PUBLIC "-//W3C//DTD SVG 1.1//EN" "http://www.w3.org/Graphics/SVG/1.1/DTD/svg11.dtd">
<svg version="1.1" id="Layer_1" xmlns="http://www.w3.org/2000/svg" xmlns:xlink="http://www.w3.org/1999/xlink" x="0px" y="0px"
	 viewBox="-7.5 16.5 16 16" style="enable-background:new -7.5 16.5 16 16;" xml:space="preserve">
<path d="M0.5,27c0,0.276-0.224,0.5-0.5,0.5l0,0c-0.276,0-0.5-0.224-0.5-0.5v-4c0-0.276,0.224-0.5,0.5-0.5l0,0
	c0.276,0,0.5,0.224,0.5,0.5V27z"/>
<path d="M2.5,25c0,0.276-0.224,0.5-0.5,0.5h-4c-0.276,0-0.5-0.224-0.5-0.5l0,0c0-0.276,0.224-0.5,0.5-0.5h4
	C2.276,24.5,2.5,24.724,2.5,25L2.5,25z"/>
<g>
	<g>
		<path d="M-2.111,19.526l0.679,1.04l0.624,0.933h1.197H6.5v7.033h-12v-9.012L-2.111,19.526 M-1.478,17.531h-3.889
			c-1.177,0-2.133,0.895-2.133,1.995v8.978c0,1.1,0.957,1.995,2.133,1.995H6.367c1.177,0,2.133-0.895,2.133-1.995v-6.983
			c0-1.1-0.957-1.995-2.133-1.995H0.389l-1.113-1.703C-0.924,17.636-1.195,17.531-1.478,17.531L-1.478,17.531z"/>
	</g>
</g>
<rect x="-6.099" y="21.061" width="5.689" height="0.439"/>
</svg>
