<?xml version="1.0" encoding="iso-8859-1"?>
<!-- Generator: Adobe Illustrator 17.1.0, SVG Export Plug-In . SVG Version: 6.00 Build 0)  -->
<!DOCTYPE svg PUBLIC "-//W3C//DTD SVG 1.1//EN" "http://www.w3.org/Graphics/SVG/1.1/DTD/svg11.dtd">
<svg version="1.1" id="Layer_3" xmlns="http://www.w3.org/2000/svg" xmlns:xlink="http://www.w3.org/1999/xlink" x="0px" y="0px"
	 viewBox="0 0 48 48" style="enable-background:new 0 0 48 48;" xml:space="preserve">
<g>
	<path d="M23.5,20.75c1.241,0,2.25-1.009,2.25-2.25s-1.009-2.25-2.25-2.25s-2.25,1.009-2.25,2.25S22.259,20.75,23.5,20.75z M23.5,17
		c0.829,0,1.5,0.671,1.5,1.5c0,0.829-0.671,1.5-1.5,1.5c-0.829,0-1.5-0.671-1.5-1.5C22,17.671,22.671,17,23.5,17z"/>
	<path d="M44.803,18.078c-0.085-0.085-0.235-0.188-0.472-0.188l-3.298,0.536c-0.011,0.002-0.022,0.009-0.033,0.012V16.5
		c0-0.552-0.581-0.923-1.124-0.923L35,16.4V14c0-1.103-0.897-2-2-2H15c-1.103,0-2,0.897-2,2v2.399l-4.673-0.807l-0.173-0.014
		C7.67,15.578,7,15.898,7,16.5v1.887l-2.673-0.482L4.153,17.89C3.67,17.89,3,18.211,3,18.812v9.375c0,0.552,0.533,0.922,1.031,0.922
		L7,28.63v1.87c0,0.552,0.554,0.923,1.071,0.923L13,30.62V32c0,1.103,0.897,2,2,2h18c1.103,0,2-0.897,2-2v-1.382l4.784,0.791
		l0.168,0.014c0.231,0,0.472-0.077,0.66-0.212C40.858,31.035,41,30.776,41,30.5v-1.965c0.055,0.017,0.107,0.03,0.154,0.038
		l2.893,0.522l0.164,0.014c0.273,0,0.511-0.13,0.65-0.356C44.954,28.601,45,28.415,45,28.188v-9.441
		C45.002,18.539,45.005,18.282,44.803,18.078z M32.998,28.948c-1.498-0.882-4.262-2.402-7.574-3.734
		c1.256-0.935,4.636-3.268,7.575-3.745L32.998,28.948z M36,23.878c-0.372,0-0.711-0.131-0.986-0.342l0.006-2.572
		c0.273-0.208,0.61-0.337,0.979-0.337c0.896,0,1.625,0.729,1.625,1.625S36.896,23.878,36,23.878z M33,14l-0.001,6.71
		c-3.551,0.522-7.559,3.53-8.394,4.184c-2.99-1.14-6.356-2.075-9.605-2.241V14H33z M8,16.616c0.044-0.02,0.107-0.039,0.158-0.039
		L13,17.5v8.034c-1.298-0.074-3.609-0.506-5-2.506v-3.523V16.616z M4.018,28.109L4,28.609v-0.5v-0.011v-9.17
		c0.044-0.02,0.105-0.038,0.154-0.039l2.825,0.477C6.985,19.376,7,19.421,7,19.504v8.068v0.045L4.018,28.109z M12.978,29.607
		l-4.939,0.815L8,30.923v-0.5c0,0,0.022-0.007,0-0.016v-2.911v-3.285c1.591,1.654,3.739,2.018,5,2.076V29.5
		C13,29.546,12.98,29.581,12.978,29.607z M15,32v-8.596c7.406,0.388,15,4.899,18,6.416V32H15z M35,29.5l0.011-4.537
		c0.255-0.206,0.558-0.335,0.954-0.335c1.756,0,1.968,2.152,1.985,5.464l-2.944-0.487C35.002,29.58,35,29.546,35,29.5z M40,30.413
		c-0.016,0.006-0.032,0.01-0.048,0.01l-1.248-0.206c-0.004-2.534-0.075-5.046-1.427-5.967c0.659-0.423,1.099-1.157,1.099-1.996
		c0-1.31-1.065-2.375-2.375-2.375c-0.349,0-0.678,0.08-0.977,0.216l0.007-2.685l4.847-0.832c0.04,0,0.088,0.014,0.124,0.03v2.897
		v7.992V30.413z M43.994,28.069l-2.666-0.481c-0.102-0.018-0.261-0.104-0.328-0.167v-7.876c0.031-0.047,0.133-0.121,0.2-0.133
		l2.8-0.466L43.994,28.069z"/>
</g>
</svg>
