<?xml version="1.0" encoding="iso-8859-1"?>
<!-- Generator: Adobe Illustrator 17.1.0, SVG Export Plug-In . SVG Version: 6.00 Build 0)  -->
<!DOCTYPE svg PUBLIC "-//W3C//DTD SVG 1.1//EN" "http://www.w3.org/Graphics/SVG/1.1/DTD/svg11.dtd">
<svg version="1.1" id="Layer_1" xmlns="http://www.w3.org/2000/svg" xmlns:xlink="http://www.w3.org/1999/xlink" x="0px" y="0px"
	 viewBox="-7.5 16.5 16 16" style="enable-background:new -7.5 16.5 16 16;" xml:space="preserve">
<g>
	<path d="M-1.239,20.22h0.433c0.385,0,0.536-0.151,0.719-0.484l0.57-0.87h0.031l0.553,0.87c0.2,0.335,0.335,0.485,0.735,0.485h0.436
		c0.485,0,0.618-0.368,0.3-0.852L1.869,18.4c-0.216-0.318-0.466-0.452-0.852-0.452h-1.034c-0.385,0-0.636,0.134-0.853,0.452
		l-0.668,0.969C-1.858,19.852-1.725,20.22-1.239,20.22z"/>
	<path d="M0.712,21.527c-1.354,0-2.389,0.446-2.979,0.749c-0.428,0.233-0.5,0.588-0.285,0.999l0.177,0.338
		c0.213,0.429,0.553,0.5,0.999,0.305c0.429-0.231,1.125-0.517,1.893-0.517c0.927,0,1.694,0.41,1.694,1.605v0.213H1.837
		c-2.033,0-5.314,0.445-5.314,3.104c0,1.659,1.355,2.729,3.013,2.729c1.999,0,2.855-1.712,2.855-1.712h0.034
		c0,0-0.034,0.142-0.034,0.392v0.357c0,0.499,0.248,0.749,0.73,0.749h0.607c0.499,0,0.748-0.25,0.748-0.749v-4.942
		C4.475,22.846,3.066,21.527,0.712,21.527z M2.228,26.931c0,1.106-0.82,2.39-2.088,2.39c-0.907,0-1.371-0.588-1.372-1.195
		c0-1.356,1.944-1.534,3.086-1.534h0.374L2.228,26.931z"/>
</g>
</svg>
