<?xml version="1.0" encoding="iso-8859-1"?>
<!-- Generator: Adobe Illustrator 17.1.0, SVG Export Plug-In . SVG Version: 6.00 Build 0)  -->
<!DOCTYPE svg PUBLIC "-//W3C//DTD SVG 1.1//EN" "http://www.w3.org/Graphics/SVG/1.1/DTD/svg11.dtd">
<svg version="1.1" id="Layer_1" xmlns="http://www.w3.org/2000/svg" xmlns:xlink="http://www.w3.org/1999/xlink" x="0px" y="0px"
	 viewBox="-7.5 16.5 16 16" style="enable-background:new -7.5 16.5 16 16;" xml:space="preserve">
<path id="Vimeo" d="M5.001,18.797c-1.865-0.061-3.127,0.985-3.788,3.139c0.34-0.14,0.671-0.211,0.993-0.211
	c0.68,0,0.981,0.382,0.901,1.147c-0.04,0.463-0.34,1.138-0.901,2.023c-0.563,0.886-0.983,1.329-1.262,1.329
	c-0.362,0-0.692-0.685-0.994-2.053c-0.101-0.403-0.282-1.429-0.54-3.08c-0.242-1.53-0.883-2.244-1.925-2.144
	c-0.441,0.04-1.101,0.444-1.982,1.208c-0.643,0.584-1.294,1.168-1.956,1.752l0.631,0.814c0.602-0.423,0.954-0.633,1.052-0.633
	c0.462,0,0.893,0.724,1.294,2.172c0.36,1.33,0.722,2.658,1.084,3.986c0.538,1.449,1.202,2.174,1.982,2.174
	c1.262,0,2.808-1.187,4.631-3.563c1.763-2.274,2.674-4.066,2.735-5.375C7.036,19.733,6.384,18.837,5.001,18.797z"/>
</svg>
