<?xml version="1.0" encoding="iso-8859-1"?>
<!-- Generator: Adobe Illustrator 19.1.0, SVG Export Plug-In . SVG Version: 6.00 Build 0)  -->
<svg version="1.1" id="Layer_1" xmlns="http://www.w3.org/2000/svg" xmlns:xlink="http://www.w3.org/1999/xlink" x="0px" y="0px"
	 viewBox="0 0 18 18" style="enable-background:new 0 0 18 18;" xml:space="preserve">
<g>
	<path d="M2.642,2.641C4.403,0.881,6.522,0,9,0s4.597,0.881,6.358,2.642S18,6.522,18,9c0,2.479-0.881,4.598-2.642,6.359
		S11.478,18,9,18s-4.597-0.881-6.358-2.642S0,11.478,0,9C0,6.522,0.881,4.402,2.642,2.641z M10.256,12.888
		C9.914,12.546,9.495,12.375,9,12.375s-0.914,0.171-1.256,0.512c-0.342,0.342-0.512,0.76-0.512,1.256s0.171,0.914,0.512,1.256
		C8.086,15.74,8.505,15.911,9,15.911s0.914-0.171,1.256-0.512c0.342-0.342,0.512-0.76,0.512-1.256S10.597,13.229,10.256,12.888z
		 M9.904,2.953C9.65,2.699,9.349,2.571,9,2.571S8.35,2.699,8.096,2.953C7.842,3.207,7.714,3.508,7.714,3.857v6.007
		c0,0.349,0.128,0.65,0.382,0.904C8.35,11.022,8.651,11.15,9,11.15s0.65-0.128,0.904-0.382s0.382-0.555,0.382-0.904V3.857
		C10.286,3.508,10.158,3.207,9.904,2.953z"/>
</g>
</svg>
