<?xml version="1.0" encoding="iso-8859-1"?>
<!-- Generator: Adobe Illustrator 17.1.0, SVG Export Plug-In . SVG Version: 6.00 Build 0)  -->
<!DOCTYPE svg PUBLIC "-//W3C//DTD SVG 1.1//EN" "http://www.w3.org/Graphics/SVG/1.1/DTD/svg11.dtd">
<svg version="1.1" id="Layer_1" xmlns="http://www.w3.org/2000/svg" xmlns:xlink="http://www.w3.org/1999/xlink" x="0px" y="0px"
	 viewBox="-7.5 16.5 16 16" style="enable-background:new -7.5 16.5 16 16;" xml:space="preserve">
<g>
	<path d="M2.435,16.5h-8.896c-0.574,0-1.039,0.488-1.039,1.091v11.891V30.9c0,0.643,0.219,1.6,0.831,1.6h9.312
		c0.306,0,0.831-0.697,0.831-1.018c0-0.321-0.248-0.582-0.554-0.582h-8.896v-1.6h0.554h0.138h7.649c0.574,0,1.108-0.561,1.108-1.164
		V17.591C3.474,16.988,3.009,16.5,2.435,16.5z"/>
	<path d="M7,16.5c-0.828,0-1.5,0.781-1.5,1.745v10.763L7,32.5l1.5-3.491V18.245C8.5,17.281,7.828,16.5,7,16.5z M7.21,30.173H6.655
		l-0.569-1.454H7h0.75L7.21,30.173z"/>
</g>
</svg>
