<?xml version="1.0" encoding="iso-8859-1"?>
<!-- Generator: Adobe Illustrator 17.1.0, SVG Export Plug-In . SVG Version: 6.00 Build 0)  -->
<!DOCTYPE svg PUBLIC "-//W3C//DTD SVG 1.1//EN" "http://www.w3.org/Graphics/SVG/1.1/DTD/svg11.dtd">
<svg version="1.1" id="Layer_1" xmlns="http://www.w3.org/2000/svg" xmlns:xlink="http://www.w3.org/1999/xlink" x="0px" y="0px"
	 viewBox="-7.5 16.5 16 16" style="enable-background:new -7.5 16.5 16 16;" xml:space="preserve">
<g>
	<path d="M7.5,16.5h-14c-0.552,0-1,0.448-1,1v14c0,0.552,0.448,1,1,1h14c0.552,0,1-0.448,1-1v-14C8.5,16.948,8.052,16.5,7.5,16.5z
		 M6.504,30.532H-5.5V18.5H6.504V30.532z"/>
	<path d="M-1.207,27.707C-1.019,27.895-0.764,28-0.5,28c0.018,0,0.037-0.001,0.055-0.002c0.284-0.016,0.548-0.152,0.726-0.374l4-5
		C4.429,22.44,4.5,22.219,4.5,22c0-0.293-0.128-0.584-0.375-0.781C3.94,21.072,3.72,21,3.5,21c-0.293,0-0.584,0.129-0.781,0.375
		l-3.302,4.128l-1.21-1.21C-1.988,24.098-2.244,24-2.499,24c-0.256,0-0.512,0.097-0.708,0.293C-3.402,24.488-3.5,24.744-3.5,25
		c0,0.256,0.098,0.512,0.293,0.707L-1.207,27.707z"/>
</g>
</svg>
