<?xml version="1.0" encoding="iso-8859-1"?>
<!-- Generator: Adobe Illustrator 17.1.0, SVG Export Plug-In . SVG Version: 6.00 Build 0)  -->
<!DOCTYPE svg PUBLIC "-//W3C//DTD SVG 1.1//EN" "http://www.w3.org/Graphics/SVG/1.1/DTD/svg11.dtd">
<svg version="1.1" id="Layer_1" xmlns="http://www.w3.org/2000/svg" xmlns:xlink="http://www.w3.org/1999/xlink" x="0px" y="0px"
	 viewBox="-7.5 16.5 16 16" style="enable-background:new -7.5 16.5 16 16;" xml:space="preserve">
<g>
	<path d="M6.5,16.5h-12c-1.105,0-2,0.895-2,2v12c0,1.105,0.895,2,2,2h12c1.105,0,2-0.895,2-2v-12C8.5,17.395,7.605,16.5,6.5,16.5z
		 M6.5,18.5v6.542c-1.376,0.107-3.062,0.417-4.865,0.911c-0.013-0.008-0.022-0.021-0.037-0.029c-1.531-0.766-4.51-1.583-7.098-1.764
		V18.5H6.5z M-5.5,25.16c1.956,0.142,4.121,0.665,5.646,1.235c-1.9,0.607-3.853,1.397-5.646,2.345V25.16z M-5.5,30.5v-0.626
		c3.951-2.191,8.833-3.574,12-3.83V30.5H-5.5z"/>
	<path d="M3.008,24.006C4.107,24.006,5,23.112,5,22.014s-0.894-1.992-1.992-1.992s-1.992,0.894-1.992,1.992
		S1.91,24.006,3.008,24.006z M3.008,21.021C3.555,21.021,4,21.466,4,22.013s-0.445,0.992-0.992,0.992s-0.992-0.445-0.992-0.992
		S2.461,21.021,3.008,21.021z"/>
</g>
</svg>
