<?xml version="1.0" encoding="iso-8859-1"?>
<!-- Generator: Adobe Illustrator 17.1.0, SVG Export Plug-In . SVG Version: 6.00 Build 0)  -->
<!DOCTYPE svg PUBLIC "-//W3C//DTD SVG 1.1//EN" "http://www.w3.org/Graphics/SVG/1.1/DTD/svg11.dtd">
<svg version="1.1" id="Layer_1" xmlns="http://www.w3.org/2000/svg" xmlns:xlink="http://www.w3.org/1999/xlink" x="0px" y="0px"
	 viewBox="0.5 16.5 16 16" style="enable-background:new 0.5 16.5 16 16;" xml:space="preserve">
<path style="fill-rule:evenodd;clip-rule:evenodd;" d="M15.914,17.086C15.523,16.695,15.052,16.5,14.5,16.5h-12
	c-0.552,0-1.023,0.195-1.414,0.586C0.695,17.477,0.5,17.948,0.5,18.5v12c0,0.552,0.195,1.023,0.586,1.414
	C1.477,32.305,1.948,32.5,2.5,32.5h12c0.552,0,1.023-0.195,1.414-0.586c0.391-0.391,0.586-0.862,0.586-1.414v-12
	C16.5,17.948,16.305,17.477,15.914,17.086z M2.5,18.5h12v2h-12V18.5z M14.5,30.5h-0.002v0.006H10.5V27.5h-4v3.006H2.506V30.5H2.5v0
	h0v-3h4v-3h-4v-3h0h0.006v-0.003H6.5V24.5h4v-3.003h3.998V21.5H14.5v3h-4v3h4V30.5L14.5,30.5z"/>
</svg>
