<?xml version="1.0" encoding="iso-8859-1"?>
<!-- Generator: Adobe Illustrator 17.1.0, SVG Export Plug-In . SVG Version: 6.00 Build 0)  -->
<!DOCTYPE svg PUBLIC "-//W3C//DTD SVG 1.1//EN" "http://www.w3.org/Graphics/SVG/1.1/DTD/svg11.dtd">
<svg version="1.1" id="Layer_1" xmlns="http://www.w3.org/2000/svg" xmlns:xlink="http://www.w3.org/1999/xlink" x="0px" y="0px"
	 viewBox="-7.5 16.5 16 16" style="enable-background:new -7.5 16.5 16 16;" xml:space="preserve">
<g>
	<path d="M6.875,20.516v7.969c0,0.44-0.357,0.797-0.797,0.797H-5.078c-0.44,0-0.797-0.357-0.797-0.797v-7.969
		c0-0.44,0.357-0.797,0.797-0.797H6.078C6.518,19.719,6.875,20.076,6.875,20.516z M2.849,27.111l-1.594-3.187
		c-0.057-0.115-0.166-0.195-0.293-0.215c-0.021-0.004-0.043-0.005-0.064-0.005c-0.105,0-0.206,0.041-0.282,0.117l-0.453,0.453
		l-1.324-1.986c-0.074-0.111-0.199-0.177-0.332-0.177c-0.008,0-0.017,0-0.025,0.001c-0.142,0.009-0.268,0.092-0.332,0.219
		l-2.391,4.781c-0.028,0.056-0.042,0.117-0.042,0.178c0,0.073,0.02,0.146,0.06,0.209c0.073,0.117,0.201,0.189,0.339,0.189h6.375
		c0.138,0,0.266-0.071,0.339-0.189c0.04-0.064,0.06-0.137,0.06-0.209C2.891,27.228,2.877,27.167,2.849,27.111z M2.094,22.906
		c0,0.88,0.714,1.594,1.594,1.594c0.88,0,1.594-0.714,1.594-1.594c0-0.88-0.714-1.594-1.594-1.594
		C2.807,21.312,2.094,22.026,2.094,22.906z"/>
</g>
</svg>
