<?xml version="1.0" encoding="iso-8859-1"?>
<!-- Generator: Adobe Illustrator 17.1.0, SVG Export Plug-In . SVG Version: 6.00 Build 0)  -->
<!DOCTYPE svg PUBLIC "-//W3C//DTD SVG 1.1//EN" "http://www.w3.org/Graphics/SVG/1.1/DTD/svg11.dtd">
<svg version="1.1" id="Layer_1" xmlns="http://www.w3.org/2000/svg" xmlns:xlink="http://www.w3.org/1999/xlink" x="0px" y="0px"
	 viewBox="0 0 16 16" style="enable-background:new 0 0 16 16;" xml:space="preserve">
<path d="M10.137,7.671V7.638c0.899-0.515,1.381-1.53,1.381-2.528C11.518,3.064,9.855,2,7.476,2H4.017
	C3.418,2,3.102,2.316,3.102,2.915v10.062c0,0.599,0.316,0.915,0.915,0.915h3.459c2.362,0,4.524-0.948,4.524-3.542
	C12,9.302,11.501,8.087,10.137,7.671z M6.013,4.494h1.446c0.783,0,1.098,0.466,1.098,1.015c0,0.566-0.316,1.098-1.048,1.098
	L6.013,6.606V4.494z M7.759,11.397H6.013V8.935h1.763c0.849,0,1.247,0.549,1.247,1.214S8.607,11.397,7.759,11.397z"/>
</svg>
