<?xml version="1.0" encoding="iso-8859-1"?>
<!-- Generator: Adobe Illustrator 17.1.0, SVG Export Plug-In . SVG Version: 6.00 Build 0)  -->
<!DOCTYPE svg PUBLIC "-//W3C//DTD SVG 1.1//EN" "http://www.w3.org/Graphics/SVG/1.1/DTD/svg11.dtd">
<svg version="1.1" id="Layer_1" xmlns="http://www.w3.org/2000/svg" xmlns:xlink="http://www.w3.org/1999/xlink" x="0px" y="0px"
	 viewBox="-7.5 16.5 16 16" style="enable-background:new -7.5 16.5 16 16;" xml:space="preserve">
<g>
	<path d="M6.488,22.367c0.405-0.472,0.633-1.076,0.633-1.698c0-1.428-1.138-2.589-2.537-2.589c-0.052,0-0.103,0.004-0.161,0.01
		c-0.462-0.968-1.416-1.584-2.477-1.584c-1.52,0-2.757,1.263-2.757,2.815c0,0.715,0.274,1.4,0.76,1.923
		c-0.536,0.344-0.982,0.823-1.292,1.387c-0.108-0.095-0.221-0.183-0.338-0.263c0.405-0.471,0.633-1.076,0.633-1.698
		c0-1.428-1.138-2.589-2.536-2.589c-1.399,0-2.537,1.161-2.537,2.589c0,0.622,0.228,1.227,0.633,1.698
		c-0.955,0.65-1.537,1.745-1.537,2.926v1.85c0,0.408,0.327,0.74,0.728,0.74h0.176v3.883c0,0.408,0.327,0.74,0.728,0.74h3.617
		c0.402,0,0.728-0.332,0.728-0.74v-3.883h0.176c0.021,0,0.041-0.001,0.061-0.003v3.886c0,0.408,0.327,0.74,0.728,0.74h6.475
		c0.402,0,0.729-0.332,0.729-0.74v-3.883h0.176c0.401,0,0.728-0.332,0.728-0.74v-1.85C8.025,24.112,7.443,23.016,6.488,22.367z
		 M-3.584,19.331c0.721,0,1.308,0.6,1.308,1.338c0,0.738-0.587,1.338-1.308,1.338c-0.721,0-1.308-0.6-1.308-1.338
		C-4.892,19.931-4.305,19.331-3.584,19.331z M-1.372,26.63h-0.215h-0.189c-0.276,0-0.5,0.229-0.5,0.512v4.112h-0.808v-3.187
		c0-0.283-0.224-0.511-0.5-0.511s-0.5,0.229-0.5,0.511v3.187h-0.808v-4.112c0-0.283-0.224-0.512-0.5-0.512h-0.404v-1.338
		c0-1.248,0.992-2.263,2.212-2.263c0.883,0,1.642,0.536,1.996,1.303c0.135,0.292,0.217,0.615,0.217,0.96V26.63z M4.472,19.343
		c0.038-0.003,0.074-0.012,0.112-0.012c0.721,0,1.308,0.6,1.308,1.338c0,0.738-0.587,1.338-1.308,1.338
		c-0.03,0-0.059-0.007-0.088-0.009c-0.269-0.286-0.582-0.526-0.929-0.709C4.111,20.818,4.465,20.126,4.472,19.343z M1.946,17.758
		c0.622,0,1.155,0.383,1.394,0.929c0.073,0.167,0.114,0.349,0.125,0.54c0.002,0.032,0.009,0.062,0.009,0.094
		c0,0.546-0.277,1.027-0.694,1.306c-0.147,0.098-0.312,0.17-0.488,0.212c-0.112,0.026-0.227,0.044-0.347,0.044
		c-0.842,0-1.528-0.701-1.528-1.562S1.103,17.758,1.946,17.758z M3.474,26.58v4.674H3.276h-0.5h-0.33v-3.637
		c0-0.219-0.135-0.402-0.323-0.475c-0.055-0.021-0.114-0.037-0.177-0.037c-0.026,0-0.049,0.011-0.074,0.016
		c-0.183,0.029-0.332,0.151-0.392,0.325c-0.019,0.054-0.034,0.111-0.034,0.172v3.637H0.418V26.58c0-0.283-0.224-0.512-0.5-0.512
		h-0.289v-0.776c0-0.39-0.07-0.763-0.193-1.111c0.158-1.279,1.217-2.276,2.51-2.276c0.269,0,0.523,0.055,0.767,0.134
		c0.197,0.064,0.384,0.148,0.557,0.257c0.17,0.107,0.332,0.227,0.473,0.371c0.078,0.08,0.143,0.171,0.21,0.26
		c0.042,0.056,0.086,0.108,0.123,0.167c0.258,0.407,0.412,0.889,0.412,1.41v1.562H3.974C3.697,26.068,3.474,26.297,3.474,26.58z
		 M6.796,26.63H6.392c-0.277,0-0.5,0.229-0.5,0.512v4.112H4.474v-4.162h0.514c0.277,0,0.5-0.229,0.5-0.512v-2.074
		c0-0.484-0.095-0.945-0.264-1.368c0.907,0.283,1.572,1.136,1.572,2.154V26.63z"/>
</g>
</svg>
