<?xml version="1.0" encoding="iso-8859-1"?>
<!-- Generator: Adobe Illustrator 17.1.0, SVG Export Plug-In . SVG Version: 6.00 Build 0)  -->
<!DOCTYPE svg PUBLIC "-//W3C//DTD SVG 1.1//EN" "http://www.w3.org/Graphics/SVG/1.1/DTD/svg11.dtd">
<svg version="1.1" id="Layer_1" xmlns="http://www.w3.org/2000/svg" xmlns:xlink="http://www.w3.org/1999/xlink" x="0px" y="0px"
	 viewBox="-7.5 16.5 16 16" style="enable-background:new -7.5 16.5 16 16;" xml:space="preserve">
<path d="M-1,17.5c-3.037,0-5.5,2.462-5.5,5.5c0,3.037,2.463,5.5,5.5,5.5c3.038,0,5.5-2.463,5.5-5.5C4.5,19.962,2.038,17.5-1,17.5z
	 M-1,27.5c-2.485,0-4.5-2.015-4.5-4.5c0-2.485,2.015-4.5,4.5-4.5c2.485,0,4.5,2.015,4.5,4.5C3.5,25.485,1.485,27.5-1,27.5z"/>
<path d="M7.237,31.237c-0.382,0.382-1.002,0.382-1.385,0l-3.565-3.565c-0.382-0.382-0.382-1.002,0-1.385l0,0
	c0.382-0.382,1.002-0.382,1.385,0l3.565,3.565C7.619,30.234,7.619,30.854,7.237,31.237L7.237,31.237z"/>
<path d="M1.5,23c0,0.276-0.224,0.5-0.5,0.5h-4c-0.276,0-0.5-0.224-0.5-0.5l0,0c0-0.276,0.224-0.5,0.5-0.5h4
	C1.276,22.5,1.5,22.724,1.5,23L1.5,23z"/>
</svg>
