<?xml version="1.0" encoding="iso-8859-1"?>
<!-- Generator: Adobe Illustrator 17.1.0, SVG Export Plug-In . SVG Version: 6.00 Build 0)  -->
<!DOCTYPE svg PUBLIC "-//W3C//DTD SVG 1.1//EN" "http://www.w3.org/Graphics/SVG/1.1/DTD/svg11.dtd">
<svg version="1.1" id="Layer_1" xmlns="http://www.w3.org/2000/svg" xmlns:xlink="http://www.w3.org/1999/xlink" x="0px" y="0px"
	 viewBox="-7.5 17.5 16 16" style="enable-background:new -7.5 17.5 16 16;" xml:space="preserve">
<g>
	<path d="M3.071,19.426l-0.419,4.54l3.994,2.2l-4.448,1.005L1.34,31.649l-2.329-3.918l-4.524,0.568l3.006-3.427l-1.938-4.127
		l4.189,1.801L3.071,19.426 M3.071,17.572c-0.462,0-0.917,0.172-1.268,0.501l-2.442,2.289l-3.074-1.322
		c-0.236-0.101-0.485-0.151-0.731-0.151c-0.492,0-0.976,0.197-1.333,0.565c-0.536,0.553-0.673,1.38-0.346,2.077l1.422,3.028
		l-2.206,2.515c-0.508,0.578-0.604,1.412-0.244,2.091c0.324,0.611,0.958,0.985,1.637,0.985c0.077,0,0.154-0.005,0.232-0.015
		l3.319-0.417l1.709,2.875C0.084,33.161,0.693,33.5,1.339,33.5c0.107,0,0.213-0.009,0.321-0.028
		c0.758-0.133,1.356-0.721,1.501-1.477l0.63-3.286l3.264-0.738c0.751-0.17,1.319-0.786,1.427-1.549s-0.267-1.512-0.941-1.884
		L4.61,22.923l0.307-3.332c0.07-0.767-0.34-1.497-1.032-1.835C3.626,17.635,3.347,17.572,3.071,17.572L3.071,17.572z"/>
</g>
</svg>
