<?xml version="1.0" encoding="iso-8859-1"?>
<!-- Generator: Adobe Illustrator 17.1.0, SVG Export Plug-In . SVG Version: 6.00 Build 0)  -->
<!DOCTYPE svg PUBLIC "-//W3C//DTD SVG 1.1//EN" "http://www.w3.org/Graphics/SVG/1.1/DTD/svg11.dtd">
<svg version="1.1" id="Layer_1" xmlns="http://www.w3.org/2000/svg" xmlns:xlink="http://www.w3.org/1999/xlink" x="0px" y="0px"
	 viewBox="-7.5 16.5 16 16" style="enable-background:new -7.5 16.5 16 16;" xml:space="preserve">
<path d="M-3.209,21.39c-1.289,1.123-1.992,3.656-0.993,5.48c0.429-0.77,1.19-1.613,2.009-2.328c1.895-1.652,3.715-2.552,5.119-2.73
	c-0.863,0.509-2.548,1.643-3.564,2.529c-1.865,1.625-2.8,2.952-3.77,4.46c-0.107,0.167-0.09,0.377,0.037,0.523
	c0.026,0.03,0.056,0.056,0.091,0.079c0.167,0.108,0.38,0.088,0.522-0.037c0.03-0.026,0.057-0.056,0.079-0.091
	c0.246-0.379,0.49-0.731,0.738-1.066c2.067,1.746,4.142,0.874,5.445-0.262c2.623-2.285,3.531-6.538,3.044-8.42
	C3.011,20.585-0.586,19.105-3.209,21.39z"/>
</svg>
