<?xml version="1.0" encoding="iso-8859-1"?>
<!-- Generator: Adobe Illustrator 17.1.0, SVG Export Plug-In . SVG Version: 6.00 Build 0)  -->
<!DOCTYPE svg PUBLIC "-//W3C//DTD SVG 1.1//EN" "http://www.w3.org/Graphics/SVG/1.1/DTD/svg11.dtd">
<svg version="1.1" id="Layer_1" xmlns="http://www.w3.org/2000/svg" xmlns:xlink="http://www.w3.org/1999/xlink" x="0px" y="0px"
	 viewBox="-7.5 16.5 16 16" style="enable-background:new -7.5 16.5 16 16;" xml:space="preserve">
<path d="M1.834,19.167c0.177,0,0.346,0.07,0.471,0.195l2,2C4.43,21.487,4.5,21.657,4.5,21.833H1.834V19.167z M1.167,22.5L1.167,22.5
	l0-3.333h-4c-0.368,0-0.667,0.299-0.667,0.667v9.333c0,0.368,0.298,0.667,0.667,0.667h6.667c0.368,0,0.667-0.299,0.667-0.667V22.5
	H1.167z M2.635,25.429l-2.54,2.584C0,28.118-0.135,28.167-0.262,28.167s-0.262-0.048-0.357-0.153l-1.016-1.034
	c-0.198-0.202-0.198-0.525,0-0.727c0.198-0.202,0.516-0.202,0.714,0l0.659,0.662l2.183-2.213c0.198-0.202,0.516-0.202,0.714,0
	C2.833,24.904,2.833,25.227,2.635,25.429z"/>
</svg>
