<?xml version="1.0" encoding="iso-8859-1"?>
<!-- Generator: Adobe Illustrator 17.1.0, SVG Export Plug-In . SVG Version: 6.00 Build 0)  -->
<!DOCTYPE svg PUBLIC "-//W3C//DTD SVG 1.1//EN" "http://www.w3.org/Graphics/SVG/1.1/DTD/svg11.dtd">
<svg version="1.1" id="Layer_1" xmlns="http://www.w3.org/2000/svg" xmlns:xlink="http://www.w3.org/1999/xlink" x="0px" y="0px"
	 viewBox="-7.5 16.5 16 16" style="enable-background:new -7.5 16.5 16 16;" xml:space="preserve">
<g>
	<path d="M3.5,24.984v2c0,0.55,0.318,0.682,0.707,0.293L6.5,24.984H3.5z"/>
	<g>
		<path d="M6.5,18.5h-8c-0.55,0-1,0.45-1,1v2h3c1.1,0,2,0.9,2,2v2h4c0.55,0,1-0.45,1-1v-5C7.5,18.95,7.05,18.5,6.5,18.5z"/>
		<path d="M1.5,27.5c0,0.55-0.45,1-1,1h-6c-0.55,0-1-0.45-1-1v-4c0-0.55,0.45-1,1-1h6c0.55,0,1,0.45,1,1V27.5z"/>
	</g>
	<path d="M-1.5,27.984v2c0,0.55-0.318,0.682-0.707,0.293L-4.5,27.984H-1.5z"/>
</g>
</svg>
