<?xml version="1.0" encoding="iso-8859-1"?>
<!-- Generator: Adobe Illustrator 17.1.0, SVG Export Plug-In . SVG Version: 6.00 Build 0)  -->
<!DOCTYPE svg PUBLIC "-//W3C//DTD SVG 1.1//EN" "http://www.w3.org/Graphics/SVG/1.1/DTD/svg11.dtd">
<svg version="1.1" id="Layer_1" xmlns="http://www.w3.org/2000/svg" xmlns:xlink="http://www.w3.org/1999/xlink" x="0px" y="0px"
	 viewBox="-7.5 16.5 16 16" style="enable-background:new -7.5 16.5 16 16;" xml:space="preserve">
<g>
	<path d="M0.499,17.486c-1.852,0-3.593,0.729-4.903,2.054c-1.31,1.325-2.032,3.086-2.031,4.96c0,3.868,3.111,7.014,6.935,7.014
		c1.852,0,3.593-0.729,4.903-2.054s2.032-3.087,2.031-4.96C7.434,20.632,4.323,17.486,0.499,17.486z M4.178,28.22
		c-0.982,0.994-2.289,1.541-3.677,1.541c-2.868,0-5.202-2.36-5.202-5.261c0-1.405,0.541-2.726,1.523-3.72
		c0.982-0.994,2.288-1.541,3.677-1.541c2.868,0,5.202,2.36,5.202,5.26C5.701,25.905,5.16,27.226,4.178,28.22z"/>
	<path d="M3.967,24.318h-6.934c-0.115,0-0.225,0.046-0.306,0.128c-0.081,0.082-0.127,0.194-0.127,0.31
		c0,2.176,1.75,3.945,3.901,3.945c2.151,0,3.9-1.77,3.9-3.945C4.4,24.515,4.207,24.318,3.967,24.318z M0.5,27.826
		c-1.526,0-2.792-1.145-3.003-2.63h6.006C3.292,26.68,2.025,27.826,0.5,27.826z"/>
	<path d="M-2.38,22.875c0.032,0.007,0.063,0.011,0.095,0.011c0.199,0,0.378-0.139,0.422-0.343c0.05-0.225,0.251-0.388,0.478-0.388
		c0.231,0,0.427,0.16,0.478,0.388c0.052,0.237,0.287,0.385,0.518,0.332c0.234-0.053,0.381-0.287,0.328-0.524
		c-0.14-0.632-0.684-1.073-1.324-1.073c-0.64,0-1.184,0.441-1.324,1.074C-2.761,22.589-2.614,22.823-2.38,22.875z"/>
	<path d="M1.389,22.875c0.234,0.054,0.466-0.095,0.517-0.332c0.05-0.225,0.251-0.388,0.478-0.388s0.428,0.163,0.478,0.388
		c0.045,0.204,0.224,0.343,0.422,0.343c0.031,0,0.063-0.003,0.095-0.011c0.234-0.053,0.381-0.287,0.328-0.523
		c-0.139-0.632-0.684-1.074-1.324-1.074c-0.63,0-1.186,0.452-1.324,1.074C1.008,22.589,1.156,22.823,1.389,22.875z"/>
</g>
</svg>
