<?xml version="1.0" encoding="iso-8859-1"?>
<!-- Generator: Adobe Illustrator 17.1.0, SVG Export Plug-In . SVG Version: 6.00 Build 0)  -->
<!DOCTYPE svg PUBLIC "-//W3C//DTD SVG 1.1//EN" "http://www.w3.org/Graphics/SVG/1.1/DTD/svg11.dtd">
<svg version="1.1" id="Layer_1" xmlns="http://www.w3.org/2000/svg" xmlns:xlink="http://www.w3.org/1999/xlink" x="0px" y="0px"
	 viewBox="-7.5 16.5 16 16" style="enable-background:new -7.5 16.5 16 16;" xml:space="preserve">
<path d="M5.417,28.451c0.168,0.169,0.252,0.391,0.252,0.611c0,0.22-0.084,0.44-0.252,0.608l-0.609,0.609
	c-0.17,0.17-0.385,0.252-0.614,0.252c-0.219,0-0.437-0.085-0.604-0.252L1.25,27.67l1.461-1.646L5.417,28.451z M6.986,18.697
	c-0.152-0.152-0.384-0.228-0.609-0.228c-0.228,0-0.457,0.076-0.609,0.228l-5.308,5.308l-0.939-0.842
	c0.283-0.81,0.259-2.178-0.305-2.742c-0.914-0.914-2.97-1.904-2.97-1.904c-0.102-0.052-0.228-0.076-0.305,0
	c-0.076,0.076-0.06,0.21,0,0.305l2.133,2.437c0.082,0.106,0.076,0.228-0.076,0.381c-0.152,0.152-0.271,0.162-0.381,0.076
	c-0.162-0.141-2.665-2.209-2.665-2.209c-0.09-0.068-0.228-0.076-0.305,0c-0.076,0.076-0.068,0.214,0,0.305
	c0,0,2.068,2.503,2.209,2.665c0.086,0.11,0.076,0.228-0.076,0.381c-0.152,0.152-0.275,0.158-0.381,0.076l-2.437-2.132
	c-0.095-0.059-0.228-0.076-0.305,0c-0.076,0.076-0.052,0.202,0,0.305c0,0,0.99,2.056,1.904,2.97
	c0.564,0.564,1.932,0.588,2.742,0.305l0.842,0.939l-3.13,3.13c-0.168,0.168-0.252,0.389-0.252,0.61c0,0.22,0.084,0.441,0.252,0.609
	l0.609,0.609c0.168,0.168,0.389,0.252,0.609,0.252c0.221,0,0.441-0.084,0.609-0.252l4.818-5.427c0,0,2.018,0.419,3.236-0.8
	c0.922-0.921,1.498-2.527,1.498-4.11C7.393,19.431,7.283,18.994,6.986,18.697z"/>
</svg>
