<?xml version="1.0" encoding="iso-8859-1"?>
<!-- Generator: Adobe Illustrator 17.1.0, SVG Export Plug-In . SVG Version: 6.00 Build 0)  -->
<!DOCTYPE svg PUBLIC "-//W3C//DTD SVG 1.1//EN" "http://www.w3.org/Graphics/SVG/1.1/DTD/svg11.dtd">
<svg version="1.1" id="Layer_1" xmlns="http://www.w3.org/2000/svg" xmlns:xlink="http://www.w3.org/1999/xlink" x="0px" y="0px"
	 viewBox="-7.5 16.5 16 16" style="enable-background:new -7.5 16.5 16 16;" xml:space="preserve">
<g>
	<path d="M5.024,22.357c0.789,0,1.429-0.64,1.429-1.429v-0.714c0-0.789-0.64-1.429-1.429-1.429s-1.429,0.64-1.429,1.429v0.714
		C3.595,21.718,4.235,22.357,5.024,22.357z"/>
	<path d="M7.062,23.89c-0.033-0.033-0.833-0.819-2.038-0.819s-2.005,0.785-2.038,0.819c-0.067,0.067-0.105,0.158-0.105,0.253V27
		c0,0.135,0.076,0.259,0.197,0.319l0.547,0.273l0.331,2.315c0.025,0.176,0.176,0.307,0.354,0.307h1.429
		c0.178,0,0.328-0.131,0.354-0.307l0.331-2.315l0.547-0.273C7.09,27.259,7.167,27.135,7.167,27v-2.857
		C7.167,24.048,7.129,23.957,7.062,23.89z"/>
	<path d="M-4.024,22.357c0.789,0,1.429-0.64,1.429-1.429v-0.714c0-0.789-0.64-1.429-1.429-1.429s-1.429,0.64-1.429,1.429v0.714
		C-5.452,21.718-4.813,22.357-4.024,22.357z"/>
	<path d="M-4.024,23.071c-1.206,0-2.005,0.785-2.038,0.819c-0.067,0.067-0.105,0.158-0.105,0.253V27
		c0,0.135,0.076,0.259,0.197,0.319l0.547,0.273l0.331,2.315c0.025,0.176,0.176,0.307,0.354,0.307h1.429
		c0.178,0,0.328-0.131,0.354-0.307l0.331-2.315l0.547-0.273c0.121-0.061,0.197-0.184,0.197-0.319v-2.857
		c0-0.095-0.038-0.186-0.105-0.253C-2.019,23.857-2.818,23.071-4.024,23.071z"/>
	<path d="M0.5,24.321c0.592,0,1.071-0.48,1.071-1.071v-0.536c0-0.592-0.48-1.071-1.071-1.071s-1.071,0.48-1.071,1.071v0.536
		C-0.571,23.842-0.092,24.321,0.5,24.321z"/>
	<path d="M0.5,24.857c-1.326,0-1.429,0.547-1.429,0.714v2.143c0,0.119,0.06,0.231,0.159,0.297l0.395,0.264l0.162,1.618
		c0.018,0.183,0.172,0.322,0.355,0.322h0.714c0.183,0,0.337-0.139,0.355-0.322l0.162-1.618l0.395-0.264
		c0.099-0.066,0.159-0.178,0.159-0.297v-2.143C1.929,25.404,1.826,24.857,0.5,24.857z"/>
</g>
</svg>
