<?xml version="1.0" encoding="iso-8859-1"?>
<!-- Generator: Adobe Illustrator 17.1.0, SVG Export Plug-In . SVG Version: 6.00 Build 0)  -->
<!DOCTYPE svg PUBLIC "-//W3C//DTD SVG 1.1//EN" "http://www.w3.org/Graphics/SVG/1.1/DTD/svg11.dtd">
<svg version="1.1" id="Layer_1" xmlns="http://www.w3.org/2000/svg" xmlns:xlink="http://www.w3.org/1999/xlink" x="0px" y="0px"
	 viewBox="-7.5 16.5 16 16" style="enable-background:new -7.5 16.5 16 16;" xml:space="preserve">
<path d="M7.493,24.272c-0.03-0.904-0.232-1.783-0.601-2.613c-0.369-0.83-0.886-1.569-1.537-2.197
	c-0.674-0.65-1.463-1.152-2.344-1.491c-0.807-0.311-1.652-0.468-2.51-0.468c-1.399,0-2.754,0.415-3.918,1.2
	c-1.192,0.804-2.095,1.94-2.613,3.286c-0.339,0.881-0.495,1.803-0.464,2.739c0.03,0.904,0.232,1.783,0.601,2.613
	c0.369,0.83,0.886,1.569,1.537,2.197c0.674,0.65,1.463,1.152,2.344,1.491c0.807,0.311,1.652,0.468,2.51,0.468h0
	c1.399,0,2.753-0.415,3.917-1.2c1.192-0.804,2.095-1.94,2.613-3.286C7.368,26.13,7.524,25.208,7.493,24.272z M-2.081,20.188
	c0.106,0.426,0.159,0.862,0.158,1.301c-0.001,0.659-0.125,1.311-0.366,1.939c-0.242,0.628-0.587,1.195-1.028,1.685
	c-0.293,0.326-0.625,0.614-0.989,0.859c-0.33-1.071-0.293-2.213,0.116-3.275C-3.782,21.634-3.044,20.761-2.081,20.188z
	 M-2.151,26.163c0.569-0.633,1.016-1.364,1.327-2.173s0.47-1.651,0.471-2.502c0.001-0.64-0.086-1.273-0.261-1.89
	c0.365-0.084,0.738-0.126,1.113-0.126c0.615,0,1.222,0.114,1.805,0.338c0.56,0.215,1.069,0.522,1.514,0.912
	c0.3,0.263,0.565,0.56,0.794,0.886c-0.543,0.341-1.032,0.753-1.46,1.228c-0.569,0.633-1.016,1.364-1.327,2.173
	c-0.311,0.809-0.47,1.651-0.471,2.502c-0.001,0.64,0.086,1.273,0.261,1.89c-0.365,0.084-0.738,0.126-1.113,0.126
	c-0.615,0-1.222-0.114-1.805-0.338c-0.56-0.215-1.069-0.522-1.514-0.912c-0.3-0.263-0.565-0.56-0.794-0.886
	C-3.069,27.051-2.579,26.639-2.151,26.163z M3.081,28.812c-0.106-0.426-0.159-0.862-0.158-1.3c0.001-0.659,0.125-1.311,0.366-1.939
	c0.242-0.628,0.587-1.195,1.028-1.685c0.293-0.326,0.624-0.614,0.989-0.859c0.33,1.071,0.293,2.213-0.115,3.275
	C4.782,27.366,4.044,28.239,3.081,28.812z"/>
</svg>
