<?xml version="1.0" encoding="iso-8859-1"?>
<!-- Generator: Adobe Illustrator 17.1.0, SVG Export Plug-In . SVG Version: 6.00 Build 0)  -->
<!DOCTYPE svg PUBLIC "-//W3C//DTD SVG 1.1//EN" "http://www.w3.org/Graphics/SVG/1.1/DTD/svg11.dtd">
<svg version="1.1" id="Layer_1" xmlns="http://www.w3.org/2000/svg" xmlns:xlink="http://www.w3.org/1999/xlink" x="0px" y="0px"
	 viewBox="0 0 16 16" style="enable-background:new 0 0 16 16;" xml:space="preserve">
<title>Artboard 1</title>
<description>Created with Sketch (http://www.bohemiancoding.com/sketch)</description>
<g>
	<path style="fill:#010101;" d="M14.868,13.741c0,0.632-0.506,1.138-1.138,1.138c-0.653,0-1.159-0.506-1.159-1.138
		c0-1.39-0.274-2.738-0.801-4.023C11.244,8.496,10.507,7.4,9.559,6.452C8.611,5.504,7.516,4.767,6.294,4.24
		C5.009,3.713,3.66,3.439,2.27,3.439c-0.632,0-1.138-0.527-1.138-1.159S1.638,1.122,2.27,1.122c1.706,0,3.35,0.337,4.909,0.99
		c1.496,0.653,2.844,1.559,4.002,2.718c1.159,1.159,2.065,2.486,2.697,4.003C14.552,10.371,14.868,12.034,14.868,13.741z
		 M10.759,10.139c0.485,1.137,0.716,2.359,0.716,3.602c0,0.632-0.506,1.138-1.138,1.138c-0.652,0-1.158-0.506-1.158-1.138
		c0-1.854-0.716-3.581-2.023-4.887S4.124,6.831,2.27,6.831c-0.632,0-1.138-0.527-1.138-1.159S1.638,4.514,2.27,4.514
		c1.243,0,2.465,0.253,3.582,0.737C6.968,5.715,7.937,6.368,8.78,7.21C9.644,8.074,10.297,9.043,10.759,10.139z M6.399,9.612
		c1.096,1.096,1.685,2.569,1.685,4.128c0,0.632-0.506,1.138-1.138,1.138c-0.653,0-1.159-0.506-1.159-1.138
		c0-1.938-1.58-3.517-3.518-3.517c-0.632,0-1.138-0.527-1.138-1.159c0-0.632,0.506-1.159,1.138-1.159
		C3.829,7.906,5.283,8.517,6.399,9.612z M4.482,13.193c0,0.927-0.758,1.664-1.664,1.664c-0.927,0-1.664-0.737-1.664-1.664
		c0-0.906,0.737-1.664,1.664-1.664C3.724,11.528,4.482,12.287,4.482,13.193z"/>
</g>
</svg>
