<?xml version="1.0" encoding="iso-8859-1"?>
<!-- Generator: Adobe Illustrator 17.1.0, SVG Export Plug-In . SVG Version: 6.00 Build 0)  -->
<!DOCTYPE svg PUBLIC "-//W3C//DTD SVG 1.1//EN" "http://www.w3.org/Graphics/SVG/1.1/DTD/svg11.dtd">
<svg version="1.1" id="Layer_1" xmlns="http://www.w3.org/2000/svg" xmlns:xlink="http://www.w3.org/1999/xlink" x="0px" y="0px"
	 viewBox="-7.5 16.5 16 16" style="enable-background:new -7.5 16.5 16 16;" xml:space="preserve">
<path d="M-3.037,25.778c0,2.104,1.712,3.815,3.815,3.815s3.815-1.712,3.815-3.815c0-1.775-1.218-3.27-2.862-3.695v1.31
	c0,0.185-0.107,0.353-0.275,0.432c-0.065,0.03-0.133,0.045-0.202,0.045c-0.11,0-0.218-0.037-0.306-0.111l-2.862-2.385
	c-0.109-0.091-0.172-0.225-0.172-0.366c0-0.142,0.063-0.276,0.172-0.366l2.862-2.385c0.087-0.073,0.196-0.111,0.306-0.111
	c0.069,0,0.138,0.015,0.202,0.045c0.167,0.078,0.275,0.247,0.275,0.432v1.511c0,0,0,0,0,0.001C4.434,20.591,6.5,22.947,6.5,25.777
	c0,3.156-2.567,5.723-5.723,5.723s-5.723-2.567-5.723-5.723L-3.037,25.778L-3.037,25.778z"/>
</svg>
