<?xml version="1.0" encoding="iso-8859-1"?>
<!-- Generator: Adobe Illustrator 17.1.0, SVG Export Plug-In . SVG Version: 6.00 Build 0)  -->
<!DOCTYPE svg PUBLIC "-//W3C//DTD SVG 1.1//EN" "http://www.w3.org/Graphics/SVG/1.1/DTD/svg11.dtd">
<svg version="1.1" id="Layer_1" xmlns="http://www.w3.org/2000/svg" xmlns:xlink="http://www.w3.org/1999/xlink" x="0px" y="0px"
	 viewBox="0 0 16 16" style="enable-background:new 0 0 16 16;" xml:space="preserve">
<title>Artboard 1</title>
<description>Created with Sketch (http://www.bohemiancoding.com/sketch)</description>
<g>
	<path d="M3.697,2.931h8.606c0.673,0,1.254,0.251,1.729,0.739c0.488,0.501,0.726,1.095,0.726,1.795v5.069
		c0,0.699-0.237,1.294-0.726,1.795c-0.476,0.488-1.057,0.739-1.729,0.739H3.697c-0.673,0-1.254-0.251-1.729-0.739
		c-0.488-0.501-0.726-1.096-0.726-1.795V5.466c0-0.7,0.238-1.293,0.726-1.795C2.443,3.182,3.024,2.931,3.697,2.931z M7.076,5.466
		H4.001c-0.172,0-0.317,0.053-0.436,0.171C3.446,5.756,3.393,5.914,3.393,6.099c0,0.185,0.053,0.33,0.172,0.449
		c0.119,0.119,0.264,0.185,0.436,0.185h3.075c0.185,0,0.33-0.066,0.449-0.185C7.63,6.429,7.696,6.284,7.696,6.099
		c0-0.185-0.066-0.343-0.171-0.462C7.406,5.518,7.26,5.466,7.076,5.466z M7.38,8.317H3.697c-0.198,0-0.304,0.105-0.304,0.317
		c0,0.211,0.105,0.316,0.304,0.316H7.38c0.211,0,0.316-0.105,0.316-0.316C7.696,8.422,7.591,8.317,7.38,8.317z M6.152,9.584H3.697
		c-0.198,0-0.304,0.105-0.304,0.316s0.105,0.317,0.304,0.317h2.455c0.211,0,0.316-0.106,0.316-0.317S6.363,9.584,6.152,9.584z
		 M11.815,5.756c-0.29-0.304-0.646-0.449-1.056-0.449s-0.753,0.145-1.043,0.449c-0.29,0.29-0.436,0.646-0.436,1.069
		c0,0.396,0.119,0.713,0.33,0.977c-0.568,0.422-0.845,0.99-0.845,1.689v1.043c0,0.132,0.053,0.251,0.132,0.343
		c0.092,0.093,0.198,0.133,0.33,0.133h3.075c0.119,0,0.237-0.04,0.33-0.133c0.079-0.092,0.132-0.211,0.132-0.343V9.491
		c0-0.7-0.29-1.267-0.845-1.689c0.211-0.264,0.317-0.581,0.317-0.977C12.238,6.403,12.105,6.046,11.815,5.756z M9.69,9.491
		c0-0.304,0.105-0.568,0.316-0.792c0.212-0.211,0.462-0.317,0.753-0.317c0.304,0,0.554,0.105,0.766,0.317
		c0.211,0.224,0.316,0.488,0.316,0.792v0.567H9.69V9.491z M10.376,6.429c0.105-0.119,0.237-0.171,0.383-0.171
		c0.158,0,0.29,0.053,0.396,0.171c0.105,0.106,0.172,0.238,0.172,0.396c0,0.172-0.066,0.317-0.172,0.436
		c-0.105,0.105-0.237,0.159-0.396,0.159c-0.146,0-0.277-0.053-0.383-0.159c-0.119-0.119-0.172-0.264-0.172-0.436
		C10.204,6.667,10.257,6.535,10.376,6.429z"/>
</g>
</svg>
