<?xml version="1.0" encoding="iso-8859-1"?>
<!-- Generator: Adobe Illustrator 17.1.0, SVG Export Plug-In . SVG Version: 6.00 Build 0)  -->
<!DOCTYPE svg PUBLIC "-//W3C//DTD SVG 1.1//EN" "http://www.w3.org/Graphics/SVG/1.1/DTD/svg11.dtd">
<svg version="1.1" id="Layer_1" xmlns="http://www.w3.org/2000/svg" xmlns:xlink="http://www.w3.org/1999/xlink" x="0px" y="0px"
	 viewBox="-7.5 16.5 16 16" style="enable-background:new -7.5 16.5 16 16;" xml:space="preserve">
<g>
	<path d="M6.278,23.943l-5.312-5.224C0.818,18.573,0.624,18.5,0.43,18.5c-0.194,0-0.388,0.073-0.536,0.219l-5.312,5.224
		c-0.145,0.143-0.222,0.333-0.222,0.528c0,0.096,0.019,0.193,0.058,0.286c0.117,0.279,0.394,0.461,0.701,0.461h0.759v4.478
		c0,0.412,0.34,0.746,0.759,0.746h2.276v-3.731h3.035v3.731h2.276c0.419,0,0.759-0.334,0.759-0.746v-4.478h0.759
		c0.307,0,0.584-0.182,0.701-0.461C6.481,24.664,6.5,24.566,6.5,24.47C6.5,24.276,6.423,24.085,6.278,23.943z"/>
</g>
</svg>
