<?xml version="1.0" encoding="iso-8859-1"?>
<!-- Generator: Adobe Illustrator 17.1.0, SVG Export Plug-In . SVG Version: 6.00 Build 0)  -->
<!DOCTYPE svg PUBLIC "-//W3C//DTD SVG 1.1//EN" "http://www.w3.org/Graphics/SVG/1.1/DTD/svg11.dtd">
<svg version="1.1" id="Layer_1" xmlns="http://www.w3.org/2000/svg" xmlns:xlink="http://www.w3.org/1999/xlink" x="0px" y="0px"
	 viewBox="-7.5 16.5 16 16" style="enable-background:new -7.5 16.5 16 16;" xml:space="preserve">
<g>
	<path d="M5.466,20.923c-0.623-0.306-1.557-0.613-2.18-0.613c-0.367,0-1.819,1.492-3.203,3.093l-0.525-0.475
		c0.192-0.319,0.302-0.69,0.302-1.087c0-1.182-0.978-2.144-2.18-2.144c-1.202,0-2.18,0.962-2.18,2.144s0.978,2.144,2.18,2.144
		c0.28,0,0.547-0.053,0.794-0.148c0.189,0.243,0.392,0.498,0.606,0.76c-0.214,0.262-0.418,0.518-0.606,0.76
		c-0.246-0.095-0.514-0.148-0.794-0.148c-1.202,0-2.18,0.962-2.18,2.144c0,1.182,0.978,2.144,2.18,2.144
		c1.202,0,2.18-0.962,2.18-2.144c0-0.396-0.11-0.768-0.302-1.087l0.525-0.475h0l1.321-1.195L5.466,20.923z M-2.32,22.761
		c-0.515,0-0.934-0.412-0.934-0.919c0-0.507,0.419-0.919,0.934-0.919c0.515,0,0.934,0.412,0.934,0.919
		C-1.385,22.349-1.805,22.761-2.32,22.761z M-2.32,28.275c-0.515,0-0.934-0.412-0.934-0.919c0-0.507,0.419-0.919,0.934-0.919
		c0.515,0,0.934,0.412,0.934,0.919C-1.385,27.862-1.805,28.275-2.32,28.275z M0.016,25.058c-0.258,0-0.467-0.206-0.467-0.459
		c0-0.254,0.209-0.46,0.467-0.46c0.258,0,0.467,0.206,0.467,0.46C0.483,24.853,0.274,25.058,0.016,25.058z"/>
	<path d="M0.49,26.259c1.251,1.414,2.465,2.629,2.796,2.629c0.623,0,1.557-0.306,2.18-0.613l-3.602-3.259L0.49,26.259z"/>
</g>
</svg>
