<?xml version="1.0" encoding="iso-8859-1"?>
<!-- Generator: Adobe Illustrator 17.1.0, SVG Export Plug-In . SVG Version: 6.00 Build 0)  -->
<!DOCTYPE svg PUBLIC "-//W3C//DTD SVG 1.1//EN" "http://www.w3.org/Graphics/SVG/1.1/DTD/svg11.dtd">
<svg version="1.1" id="Layer_3" xmlns="http://www.w3.org/2000/svg" xmlns:xlink="http://www.w3.org/1999/xlink" x="0px" y="0px"
	 viewBox="0 0 48 48" style="enable-background:new 0 0 48 48;" xml:space="preserve">
<g>
	<path d="M44,1c1.65,0,3,1.35,3,3v40c0,1.65-1.35,3-3,3H4c-1.65,0-3-1.35-3-3V4c0-1.65,1.35-3,3-3H44 M44,0H4C1.794,0,0,1.794,0,4
		v40c0,2.206,1.794,4,4,4h40c2.206,0,4-1.794,4-4V4C48,1.794,46.206,0,44,0L44,0z"/>
</g>
<g>
	<path style="fill:none;stroke:#000000;stroke-width:2;stroke-linecap:round;stroke-linejoin:round;stroke-miterlimit:10;" d="
		M14,11c0-0.55,0.45-1,1-1h18c0.55,0,1,0.45,1,1v18c0,0.55-0.45,1-1,1H15c-0.55,0-1-0.45-1-1V11z"/>
</g>
<path style="fill:none;stroke:#000000;stroke-width:0.75;stroke-linecap:round;stroke-linejoin:round;stroke-miterlimit:10;" d="
	M14,20c9.333,0,20,7,20,7"/>
<g>
	<path d="M23.5,14c0.829,0,1.5,0.671,1.5,1.5c0,0.829-0.671,1.5-1.5,1.5c-0.829,0-1.5-0.671-1.5-1.5C22,14.671,22.671,14,23.5,14
		 M23.5,13.25c-1.241,0-2.25,1.009-2.25,2.25s1.009,2.25,2.25,2.25s2.25-1.009,2.25-2.25S24.741,13.25,23.5,13.25L23.5,13.25z"/>
</g>
<path style="fill:none;stroke:#000000;stroke-width:0.75;stroke-linecap:round;stroke-linejoin:round;stroke-miterlimit:10;" d="
	M34,18c-4,0-9.47,4.253-9.47,4.253"/>
<polyline style="fill:none;stroke:#000000;stroke-linecap:round;stroke-linejoin:round;stroke-miterlimit:10;" points="9,23 6,20.5 
	9,18 "/>
<polyline style="fill:none;stroke:#000000;stroke-linecap:round;stroke-linejoin:round;stroke-miterlimit:10;" points="39,23 
	42,20.5 39,18 "/>
<g>
	<path style="fill:none;stroke:#000000;stroke-linecap:round;stroke-linejoin:round;stroke-miterlimit:10;" d="M12.5,38.5
		c0,0.55-0.45,1-1,1h-3c-0.55,0-1-0.45-1-1v-3c0-0.55,0.45-1,1-1h3c0.55,0,1,0.45,1,1V38.5z"/>
</g>
<g>
	<path style="fill:none;stroke:#000000;stroke-linecap:round;stroke-linejoin:round;stroke-miterlimit:10;" d="M19.5,38.5
		c0,0.55-0.45,1-1,1h-3c-0.55,0-1-0.45-1-1v-3c0-0.55,0.45-1,1-1h3c0.55,0,1,0.45,1,1V38.5z"/>
</g>
<g>
	<path style="fill:none;stroke:#000000;stroke-linecap:round;stroke-linejoin:round;stroke-miterlimit:10;" d="M26.5,38.5
		c0,0.55-0.45,1-1,1h-3c-0.55,0-1-0.45-1-1v-3c0-0.55,0.45-1,1-1h3c0.55,0,1,0.45,1,1V38.5z"/>
</g>
<g>
	<path style="fill:none;stroke:#000000;stroke-linecap:round;stroke-linejoin:round;stroke-miterlimit:10;" d="M33.5,38.5
		c0,0.55-0.45,1-1,1h-3c-0.55,0-1-0.45-1-1v-3c0-0.55,0.45-1,1-1h3c0.55,0,1,0.45,1,1V38.5z"/>
</g>
<g>
	<path style="fill:none;stroke:#000000;stroke-linecap:round;stroke-linejoin:round;stroke-miterlimit:10;" d="M40.5,38.5
		c0,0.55-0.45,1-1,1h-3c-0.55,0-1-0.45-1-1v-3c0-0.55,0.45-1,1-1h3c0.55,0,1,0.45,1,1V38.5z"/>
</g>
</svg>
