<?xml version="1.0" encoding="iso-8859-1"?>
<!-- Generator: Adobe Illustrator 17.1.0, SVG Export Plug-In . SVG Version: 6.00 Build 0)  -->
<!DOCTYPE svg PUBLIC "-//W3C//DTD SVG 1.1//EN" "http://www.w3.org/Graphics/SVG/1.1/DTD/svg11.dtd">
<svg version="1.1" id="Layer_1" xmlns="http://www.w3.org/2000/svg" xmlns:xlink="http://www.w3.org/1999/xlink" x="0px" y="0px"
	 viewBox="0 0 16 16" style="enable-background:new 0 0 16 16;" xml:space="preserve">
<title>Artboard 1</title>
<description>Created with Sketch (http://www.bohemiancoding.com/sketch)</description>
<g>
	<path d="M9.643,1.218c0.49,0,0.874,0.411,0.874,0.927v8.941c0,0.503-0.45,0.98-0.94,0.98h-7.06v1.364h7.537
		c0.252,0,0.464,0.212,0.464,0.49c0,0.265-0.437,0.861-0.702,0.861H1.92c-0.517,0-0.702-0.808-0.702-1.351V2.145
		c0-0.517,0.397-0.927,0.874-0.927H9.643z M14.782,2.702v9.126l-1.272,2.954l-1.272-2.954V2.702c0-0.821,0.57-1.483,1.272-1.483
		S14.782,1.881,14.782,2.702z M13.219,12.808h0.464l0.464-1.232h-1.417L13.219,12.808z"/>
</g>
</svg>
