<?xml version="1.0" encoding="iso-8859-1"?>
<!-- Generator: Adobe Illustrator 17.1.0, SVG Export Plug-In . SVG Version: 6.00 Build 0)  -->
<!DOCTYPE svg PUBLIC "-//W3C//DTD SVG 1.1//EN" "http://www.w3.org/Graphics/SVG/1.1/DTD/svg11.dtd">
<svg version="1.1" id="Layer_1" xmlns="http://www.w3.org/2000/svg" xmlns:xlink="http://www.w3.org/1999/xlink" x="0px" y="0px"
	 viewBox="-7.5 16.5 16 16" style="enable-background:new -7.5 16.5 16 16;" xml:space="preserve">
<path d="M2.462,28.087c-0.406-0.406-0.904-0.231-1.338-0.665c-0.197-0.197-0.287-0.448-0.287-0.759c0-0.439,0.24-0.917,0.575-1.251
	c0.33-0.33,0.788-0.575,1.253-0.575c0.294,0,0.561,0.091,0.758,0.287c0.468,0.468,0.258,0.932,0.665,1.338
	C5.305,27.68,7,24.708,7,24.5s-0.079-0.416-0.238-0.575c-1.219-1.219-2.606-1.457-1.387-2.675c0.406-0.406,0.87-0.197,1.338-0.665
	C6.909,20.389,7,20.122,7,19.828c0-0.465-0.244-0.923-0.575-1.253C6.091,18.24,5.613,18,5.174,18c-0.312,0-0.563,0.091-0.759,0.287
	c-0.434,0.434-0.258,0.931-0.665,1.338c-1.219,1.219-1.457-0.168-2.675-1.387C0.916,18.079,0.708,18,0.5,18
	c-0.208,0-0.416,0.079-0.574,0.238l-5.687,5.687C-5.921,24.084-6,24.297-6,24.5c0,0.208,0.079,0.416,0.238,0.575l5.687,5.687
	C0.084,30.921,0.292,31,0.5,31C0.708,31,3.68,29.305,2.462,28.087z"/>
</svg>
