<?xml version="1.0" encoding="iso-8859-1"?>
<!-- Generator: Adobe Illustrator 17.1.0, SVG Export Plug-In . SVG Version: 6.00 Build 0)  -->
<!DOCTYPE svg PUBLIC "-//W3C//DTD SVG 1.1//EN" "http://www.w3.org/Graphics/SVG/1.1/DTD/svg11.dtd">
<svg version="1.1" id="Layer_1" xmlns="http://www.w3.org/2000/svg" xmlns:xlink="http://www.w3.org/1999/xlink" x="0px" y="0px"
	 viewBox="-15.5 8.5 32 32" style="enable-background:new -15.5 8.5 32 32;" xml:space="preserve">
<g>
	<path d="M-3.954,13.5l1.718,2.638l0.888,1.362h1.626h11.955c0.687,0,1.267,0.454,1.267,0.99V32.51c0,0.537-0.58,0.99-1.267,0.99
		h-23.467c-0.687,0-1.267-0.454-1.267-0.99V14.49c0-0.537,0.58-0.99,1.267-0.99H-3.954 M-3.455,10.5h-7.778
		c-2.353,0-4.267,1.79-4.267,3.99V32.51c0,2.201,1.914,3.99,4.267,3.99h23.467c2.353,0,4.267-1.79,4.267-3.99V18.49
		c0-2.201-1.914-3.99-4.267-3.99H0.278l-2.225-3.415C-2.348,10.71-2.89,10.5-3.455,10.5L-3.455,10.5z"/>
</g>
<rect x="-14.5" y="15.5" width="15" height="2"/>
</svg>
