<?xml version="1.0" encoding="iso-8859-1"?>
<!-- Generator: Adobe Illustrator 17.1.0, SVG Export Plug-In . SVG Version: 6.00 Build 0)  -->
<!DOCTYPE svg PUBLIC "-//W3C//DTD SVG 1.1//EN" "http://www.w3.org/Graphics/SVG/1.1/DTD/svg11.dtd">
<svg version="1.1" id="Layer_1" xmlns="http://www.w3.org/2000/svg" xmlns:xlink="http://www.w3.org/1999/xlink" x="0px" y="0px"
	 viewBox="-7.5 16.5 16 16" style="enable-background:new -7.5 16.5 16 16;" xml:space="preserve">
<g>
	<path d="M0.921,20.771c0-1.511-0.902-3.862-2.645-3.862c-0.546,0-1.133,0.273-1.469,0.693c-0.357,0.441-0.462,1.007-0.462,1.553
		c0,1.407,0.819,3.737,2.624,3.737c0.525,0,1.091-0.253,1.428-0.588C0.879,21.821,0.921,21.149,0.921,20.771z"/>
	<path d="M3.049,16.708l-0.47,0.264H1.278c0.482,0.399,1.49,1.238,1.49,2.834c0,1.553-0.882,2.288-1.763,2.981
		c-0.272,0.272-0.588,0.566-0.588,1.028c0,0.462,0.315,0.714,0.545,0.903l0.756,0.587c0.924,0.777,1.763,1.491,1.763,2.939
		c0,1.776-1.551,3.562-4.49,3.904c0.489,0.093,0.993,0.144,1.509,0.144c4.418,0,8-3.582,8-8C8.5,20.764,6.217,17.773,3.049,16.708z"
		/>
	<path d="M-0.212,26.292c-0.168-0.02-0.273-0.02-0.482-0.02c-0.189,0-1.322,0.041-2.204,0.336c-0.462,0.167-1.805,0.67-1.805,2.161
		c0,1.489,1.448,2.56,3.694,2.56c2.015,0,3.085-0.965,3.085-2.266C2.076,27.992,1.383,27.425-0.212,26.292z"/>
	<path d="M-4.934,26.648c1.301-0.798,3.064-0.902,4.008-0.965c-0.294-0.378-0.629-0.776-0.629-1.427c0-0.357,0.105-0.567,0.21-0.818
		c-0.231,0.02-0.462,0.042-0.672,0.042c-2.225,0-3.484-1.659-3.484-3.296c0-0.525,0.135-1.079,0.398-1.601
		C-6.582,20.035-7.5,22.056-7.5,24.292c0,1.48,0.403,2.865,1.104,4.054C-6.188,27.758-5.748,27.131-4.934,26.648z"/>
</g>
</svg>
