<?xml version="1.0" encoding="iso-8859-1"?>
<!-- Generator: Adobe Illustrator 17.1.0, SVG Export Plug-In . SVG Version: 6.00 Build 0)  -->
<!DOCTYPE svg PUBLIC "-//W3C//DTD SVG 1.1//EN" "http://www.w3.org/Graphics/SVG/1.1/DTD/svg11.dtd">
<svg version="1.1" id="Layer_1" xmlns="http://www.w3.org/2000/svg" xmlns:xlink="http://www.w3.org/1999/xlink" x="0px" y="0px"
	 viewBox="-7.5 16.5 16 16" style="enable-background:new -7.5 16.5 16 16;" xml:space="preserve">
<g>
	<path d="M7.126,21.634c-0.276-1.105-0.763-1.665-1.448-1.665c-1.342,0-9.412,2.182-11.016,2.62
		c-0.005,0.001-0.009,0.003-0.014,0.004c-0.64,0.186-1.053,0.85-1.053,1.692c0,0.841,0.413,1.505,1.053,1.692
		c0.005,0.001,0.009,0.003,0.014,0.004c0.304,0.083,0.842,0.229,1.522,0.411v1.346c0,0.396,0.27,0.741,0.654,0.837l1.726,0.432
		c0.069,0.017,0.139,0.026,0.209,0.026c0.191,0,0.378-0.063,0.531-0.183c0.209-0.164,0.332-0.415,0.332-0.68v-0.874
		c2.589,0.66,5.311,1.306,6.042,1.306c0.684,0,1.171-0.56,1.448-1.665c0.18-0.719,0.279-1.66,0.279-2.651S7.306,22.352,7.126,21.634
		z M-1.226,28.168l-1.726-0.432V26.62c0.535,0.142,1.12,0.295,1.726,0.452V28.168z M5.679,27.737c-0.477,0-0.863-1.546-0.863-3.452
		c0-1.907,0.386-3.452,0.863-3.452c0.477,0,0.863,1.546,0.863,3.452C6.542,26.191,6.155,27.737,5.679,27.737z"/>
</g>
</svg>
