<?xml version="1.0" encoding="iso-8859-1"?>
<!-- Generator: Adobe Illustrator 17.1.0, SVG Export Plug-In . SVG Version: 6.00 Build 0)  -->
<!DOCTYPE svg PUBLIC "-//W3C//DTD SVG 1.1//EN" "http://www.w3.org/Graphics/SVG/1.1/DTD/svg11.dtd">
<svg version="1.1" id="Layer_1" xmlns="http://www.w3.org/2000/svg" xmlns:xlink="http://www.w3.org/1999/xlink" x="0px" y="0px"
	 viewBox="-7.5 16.5 16 16" style="enable-background:new -7.5 16.5 16 16;" xml:space="preserve">
<g>
	<circle cx="-0.333" cy="22.833" r="4.167"/>
	<path d="M3.791,26.958C4.893,25.856,5.5,24.391,5.5,22.833c0-1.418-0.503-2.76-1.424-3.82l0.469-0.469
		c0.081-0.081,0.122-0.188,0.122-0.295c0-0.107-0.041-0.213-0.122-0.295c-0.081-0.081-0.188-0.122-0.295-0.122
		s-0.213,0.041-0.295,0.122l-1.048,1.048l0.295,0.295c0.944,0.944,1.464,2.2,1.464,3.536s-0.52,2.591-1.464,3.536
		c-0.944,0.944-2.2,1.464-3.536,1.464s-2.591-0.52-3.536-1.464l-0.589,0.589c1.003,1.003,2.307,1.594,3.708,1.692v1.683h-2.5
		c-0.23,0-0.417,0.186-0.417,0.417v0l0,0v0.417H3V30.75l0,0v0c0-0.23-0.187-0.417-0.417-0.417h-2.5V28.65
		C1.485,28.552,2.789,27.961,3.791,26.958z"/>
</g>
</svg>
