<?xml version="1.0" encoding="iso-8859-1"?>
<!-- Generator: Adobe Illustrator 17.1.0, SVG Export Plug-In . SVG Version: 6.00 Build 0)  -->
<!DOCTYPE svg PUBLIC "-//W3C//DTD SVG 1.1//EN" "http://www.w3.org/Graphics/SVG/1.1/DTD/svg11.dtd">
<svg version="1.1" id="Layer_1" xmlns="http://www.w3.org/2000/svg" xmlns:xlink="http://www.w3.org/1999/xlink" x="0px" y="0px"
	 viewBox="-7.5 16.5 16 16" style="enable-background:new -7.5 16.5 16 16;" xml:space="preserve">
<g>
	<path d="M4.833,29.267c0,0.867-0.433,1.733-1.3,2.167c0-0.639-0.236-1.513-1.055-1.928c-0.088,0.243-0.178,0.496-0.267,0.766
		c-0.059,0.177-0.224,0.296-0.411,0.296h-2.6c-0.186,0-0.352-0.119-0.411-0.296c-0.09-0.269-0.179-0.522-0.267-0.766
		c-0.819,0.415-1.055,1.289-1.055,1.928c-0.867-0.433-1.3-1.3-1.3-2.167c0-0.844,0.671-1.689,1.418-2.285
		c-0.33-0.998-0.551-2.002-0.551-3.349c0-2.64,1.672-4.958,3.226-5.994c0.073-0.048,0.157-0.073,0.24-0.073s0.168,0.024,0.24,0.073
		c1.554,1.036,3.226,3.353,3.226,5.994c0,1.347-0.22,2.351-0.551,3.349C4.163,27.578,4.833,28.422,4.833,29.267z M0.5,24.067
		c0.957,0,1.733-0.776,1.733-1.733c0-0.957-0.776-1.733-1.733-1.733c-0.957,0-1.733,0.776-1.733,1.733
		C-1.233,23.291-0.457,24.067,0.5,24.067z"/>
</g>
</svg>
