<?xml version="1.0" encoding="iso-8859-1"?>
<!-- Generator: Adobe Illustrator 17.1.0, SVG Export Plug-In . SVG Version: 6.00 Build 0)  -->
<!DOCTYPE svg PUBLIC "-//W3C//DTD SVG 1.1//EN" "http://www.w3.org/Graphics/SVG/1.1/DTD/svg11.dtd">
<svg version="1.1" id="Layer_1" xmlns="http://www.w3.org/2000/svg" xmlns:xlink="http://www.w3.org/1999/xlink" x="0px" y="0px"
	 viewBox="-7.5 16.5 16 16" style="enable-background:new -7.5 16.5 16 16;" xml:space="preserve">
<g>
	<path style="fill-rule:evenodd;clip-rule:evenodd;" d="M5.029,31.086c-0.115,0.055-0.238,0.082-0.361,0.082
		c-0.186,0-0.37-0.062-0.521-0.183L0.5,28.068l-3.647,2.917c-0.151,0.121-0.335,0.183-0.521,0.183c-0.123,0-0.246-0.027-0.361-0.082
		c-0.289-0.139-0.473-0.431-0.473-0.751V18.665c0-0.46,0.373-0.834,0.834-0.834h8.335c0.46,0,0.834,0.373,0.834,0.834v11.669
		C5.501,30.655,5.317,30.947,5.029,31.086z M3.399,22.382c-0.042-0.13-0.154-0.226-0.29-0.247l-1.542-0.244L0.83,20.333
		c-0.06-0.127-0.189-0.209-0.33-0.209s-0.269,0.081-0.33,0.209l-0.738,1.558l-1.542,0.244c-0.135,0.021-0.247,0.117-0.29,0.247
		c-0.012,0.037-0.018,0.075-0.018,0.113c0,0.095,0.037,0.188,0.107,0.258l1.138,1.138l-0.326,1.632
		c-0.028,0.139,0.028,0.282,0.143,0.366c0.064,0.047,0.139,0.07,0.215,0.07c0.061,0,0.122-0.015,0.177-0.046L0.5,25.1l1.464,0.813
		c0.055,0.031,0.116,0.046,0.177,0.046c0.076,0,0.151-0.024,0.215-0.07c0.115-0.084,0.17-0.227,0.143-0.366l-0.326-1.632
		l1.138-1.138c0.07-0.07,0.107-0.163,0.107-0.258C3.417,22.457,3.411,22.419,3.399,22.382z"/>
</g>
</svg>
