<?xml version="1.0" encoding="iso-8859-1"?>
<!-- Generator: Adobe Illustrator 17.1.0, SVG Export Plug-In . SVG Version: 6.00 Build 0)  -->
<!DOCTYPE svg PUBLIC "-//W3C//DTD SVG 1.1//EN" "http://www.w3.org/Graphics/SVG/1.1/DTD/svg11.dtd">
<svg version="1.1" id="Layer_1" xmlns="http://www.w3.org/2000/svg" xmlns:xlink="http://www.w3.org/1999/xlink" x="0px" y="0px"
	 viewBox="-7.5 16.5 16 16" style="enable-background:new -7.5 16.5 16 16;" xml:space="preserve">
<g>
	<path d="M-6.5,24.5c0-3.866,3.134-7,7-7c3.866,0,7,3.134,7,7c0,3.866-3.134,7-7,7C-3.366,31.5-6.5,28.366-6.5,24.5z M3.853,26.735
		c0.268-0.402,0.16-0.945-0.243-1.213l-2.235-1.49v-3.907c0-0.483-0.392-0.875-0.875-0.875c-0.483,0-0.875,0.392-0.875,0.875V24.5
		c0,0.293,0.146,0.566,0.39,0.728l2.625,1.75c0.149,0.099,0.318,0.147,0.485,0.147C3.407,27.125,3.684,26.988,3.853,26.735z"/>
</g>
</svg>
