<?xml version="1.0" encoding="iso-8859-1"?>
<!-- Generator: Adobe Illustrator 17.1.0, SVG Export Plug-In . SVG Version: 6.00 Build 0)  -->
<!DOCTYPE svg PUBLIC "-//W3C//DTD SVG 1.1//EN" "http://www.w3.org/Graphics/SVG/1.1/DTD/svg11.dtd">
<svg version="1.1" id="Layer_1" xmlns="http://www.w3.org/2000/svg" xmlns:xlink="http://www.w3.org/1999/xlink" x="0px" y="0px"
	 viewBox="-7.5 16.5 16 16" style="enable-background:new -7.5 16.5 16 16;" xml:space="preserve">
<g>
	<path d="M0.5,19.5c2.757,0,5,2.243,5,5s-2.243,5-5,5s-5-2.243-5-5S-2.257,19.5,0.5,19.5 M0.5,17.5c-3.866,0-7,3.134-7,7
		s3.134,7,7,7s7-3.134,7-7S4.366,17.5,0.5,17.5L0.5,17.5z"/>
</g>
<path d="M0.5,25c0,0.276-0.224,0.5-0.5,0.5l0,0c-0.276,0-0.5-0.224-0.5-0.5v-4c0-0.276,0.224-0.5,0.5-0.5l0,0
	c0.276,0,0.5,0.224,0.5,0.5V25z"/>
<path d="M3.088,26.647c-0.13,0.244-0.433,0.336-0.676,0.206l-2.647-1.412c-0.244-0.13-0.336-0.433-0.206-0.676l0,0
	c0.13-0.244,0.433-0.336,0.676-0.206l2.647,1.412C3.126,26.101,3.218,26.404,3.088,26.647L3.088,26.647z"/>
</svg>
