<?xml version="1.0" encoding="iso-8859-1"?>
<!-- Generator: Adobe Illustrator 17.1.0, SVG Export Plug-In . SVG Version: 6.00 Build 0)  -->
<!DOCTYPE svg PUBLIC "-//W3C//DTD SVG 1.1//EN" "http://www.w3.org/Graphics/SVG/1.1/DTD/svg11.dtd">
<svg version="1.1" id="Layer_1" xmlns="http://www.w3.org/2000/svg" xmlns:xlink="http://www.w3.org/1999/xlink" x="0px" y="0px"
	 viewBox="0 0 16 16" style="enable-background:new 0 0 16 16;" xml:space="preserve">
<g>
	<path d="M12.789,7.075l-1.556-2.18c-0.349-0.487-1.091-0.869-1.688-0.869H4.172c-0.683,0-1.239,0.556-1.239,1.239v5.47
		c0,0.683,0.556,1.239,1.239,1.239h5.373c0.598,0,1.339-0.382,1.688-0.869l1.556-2.177C13.16,8.408,13.159,7.594,12.789,7.075z
		 M12.217,8.519l-1.556,2.176c-0.219,0.306-0.741,0.575-1.116,0.575H4.172c-0.295,0-0.535-0.24-0.535-0.535v-5.47
		c0-0.295,0.24-0.535,0.535-0.535h5.373c0.375,0,0.897,0.269,1.116,0.574l1.556,2.18C12.413,7.759,12.413,8.243,12.217,8.519z"/>
	<path d="M9.249,7.587H8.014V6.354c0-0.228-0.184-0.412-0.411-0.412c-0.229,0-0.412,0.184-0.412,0.412v1.233H5.956
		C5.729,7.587,5.544,7.773,5.544,8c0,0.228,0.186,0.412,0.412,0.412h1.235v1.234c0,0.227,0.184,0.413,0.412,0.413
		c0.227,0,0.411-0.186,0.411-0.413V8.413h1.234c0.229,0,0.413-0.184,0.413-0.412C9.662,7.773,9.478,7.587,9.249,7.587z"/>
</g>
</svg>
