<?xml version="1.0" encoding="iso-8859-1"?>
<!-- Generator: Adobe Illustrator 17.1.0, SVG Export Plug-In . SVG Version: 6.00 Build 0)  -->
<!DOCTYPE svg PUBLIC "-//W3C//DTD SVG 1.1//EN" "http://www.w3.org/Graphics/SVG/1.1/DTD/svg11.dtd">
<svg version="1.1" id="Layer_1" xmlns="http://www.w3.org/2000/svg" xmlns:xlink="http://www.w3.org/1999/xlink" x="0px" y="0px"
	 viewBox="-7.5 16.5 16 16" style="enable-background:new -7.5 16.5 16 16;" xml:space="preserve">
<g>
	<path d="M6.092,28.15l-2.495-2.495c0.384-0.707,0.585-1.497,0.585-2.314c0-2.669-2.172-4.841-4.841-4.841S-5.5,20.671-5.5,23.341
		c0,2.669,2.171,4.841,4.841,4.841c0.817,0,1.607-0.201,2.314-0.585l2.486,2.486c0.255,0.265,0.612,0.418,0.98,0.418
		c0.364,0,0.717-0.149,0.971-0.408c0.26-0.254,0.408-0.607,0.408-0.971C6.5,28.753,6.348,28.395,6.092,28.15z M-0.659,20.523
		c1.554,0,2.818,1.264,2.818,2.818c0,1.554-1.264,2.818-2.818,2.818s-2.818-1.264-2.818-2.818
		C-3.477,21.787-2.213,20.523-0.659,20.523z"/>
</g>
</svg>
