<?xml  version="1.0" encoding="UTF-8"?>
<!DOCTYPE svg PUBLIC "-//W3C//DTD SVG 1.0//EN" "http://www.w3.org/TR/2001/REC-SVG-20010904/DTD/svg10.dtd" >
<svg xmlns="http://www.w3.org/2000/svg" >
<metadata>
<version>1.0</version>
<id><![CDATA[Akko W01 Regular]]></id>
<vendor>Monotype Imaging Inc.</vendor>
<credits>
<name>Fonts.com WebFonts</name>
<URL>http://webfonts.fonts.com</URL>
<role>Home of the Web fonts</role>
</credits>
<license>
<URL>http://webfonts.fonts.com/Legal</URL>
</license>
<copyright><![CDATA[Copyright © 2011 Linotype Corp., www.linotype.com. All rights reserved. This font software may not be reproduced, modified, disclosed or transferred without the express written approval of Linotype Corp. Akko is a trademark of Linotype Corp. and may be registered in certain jurisdictions in the name of Linotype Corp. or its licensee Linotype GmbH. This typeface is original artwork of Akira Kobayashi. The design may be protected in certain jurisdictions.]]></copyright>
<trademark><![CDATA[Akko is a trademark of Linotype Corp. and may be registered in certain jurisdictions in the name of Linotype Corp. or its licensee Linotype GmbH.]]></trademark>
<licensee>
<name></name>
</licensee>
</metadata>
<defs >
<font horiz-adv-x="505" id="a780ffb6-dac6-463b-b3a7-cce65fef64e5">
<font-face font-family="" panose-1="2 11 5 3 6 3 3 6 3 3" ascent="750" descent="-250" units-per-em="1000" alphabetic="0">
</font-face>
<missing-glyph horiz-adv-x="200" />

<glyph unicode="&#xA;" />
<glyph unicode="&#xD;" horiz-adv-x="0" />
<glyph unicode=" " horiz-adv-x="200" />
<glyph unicode="!" horiz-adv-x="280" d="M118 225Q108 225 108 235L88 670Q88 680 98 680H192Q202 680 202 670L182 235Q182 225 172 225H118ZM93 0Q83 0 83 10V112Q83 122 93 122H188Q198 122 198 112V10Q198 0 188 0H93Z"  />
<glyph unicode="&quot;" horiz-adv-x="360" d="M74 469Q64 469 64 479L50 734Q50 744 60 744H140Q150 744 150 734L134 479Q134 469 124 469H74ZM234 469Q224 469 224 479L210 734Q210 744 220 744H300Q310 744 310 734L294 479Q294 469 284 469H234Z"  />
<glyph unicode="#" horiz-adv-x="550" d="M160 441Q161 447 155 447H88Q78 447 80 457L89 505Q91 515 100 515H167Q173 515 175 521L202 670Q204 680 213 680H267Q278 680 276 670L249 521Q247 515 253 515H340Q344 515 346 521L373 670Q375 680 384 680H440Q451 680 449 670L422 521Q420 515 426 515H494Q505 515 503 505L494 457Q492 447 482 447H414Q408 447 407 441L376 259Q374 253 381 253H449Q459 253 457 243L449 197Q447 187 438 187H370Q363 187 363 182L332 10Q330 0 321 0H265Q254 0 256 10L286 181Q287 187 282 187H197Q190 187 190 182L159 10Q157 0 148 0H94Q83 0 85 10L115 181Q116 187 111 187H45Q34 187 36 197L43 243Q45 253 55 253H122Q127 253 129 259L160 441ZM331 441Q332 447 326 447H241Q235 447 234 441L203 259Q201 253 208 253H295Q298 253 300 259L331 441Z"  />
<glyph unicode="$" horiz-adv-x="560" d="M261 760Q261 770 271 770H326Q336 770 336 760V682Q336 677 338 676Q373 674 403 669T449 658Q454 655 454 650L450 590Q450 588 448 586T442 585Q433 588 418 591T383 596T342 600T303 601Q240 601 216 583T191 517Q191 503 193 491T204 467Q216 450 247 427T324 372Q366 343 395 317T440 265Q454 243 456 222T459 180Q459 99 425 57T322 6V-87Q322 -97 312 -97H257Q247 -97 247 -87V-1Q247 1 245 3Q204 5 163 10T92 23Q87 24 87 31L91 95Q91 102 99 100Q183 85 268 85Q316 85 340 102T365 171Q365 185 363 201T352 230Q340 247 311 270T233 325Q191 354 161 380T114 431Q101 454 99 474T96 514Q96 597 135 633T259 676Q261 678 261 681V760Z"  />
<glyph unicode="%" horiz-adv-x="714" d="M537 670Q539 674 542 677T551 680H588Q599 680 597 670L181 10Q179 6 176 3T167 0H130Q119 0 121 10L537 670ZM127 518Q127 487 132 456T147 414Q153 408 162 406T183 403Q208 403 219 414Q230 425 234 456T239 518Q239 550 235 581T219 623Q208 634 183 634Q172 634 163 632T147 623Q137 612 132 581T127 518ZM312 518Q312 498 310 476T302 433T288 395T266 368Q249 357 231 352T183 346Q154 346 136 351T100 368Q87 377 79 394T65 432T57 475T54 518Q54 538 56 560T64 603T78 641T100 668Q117 680 135 685T183 690Q212 690 230 685T266 668Q279 659 287 642T301 604T309 561T312 518ZM475 162Q475 131 480 100T495 58Q501 52 510 50T531 47Q556 47 567 58Q578 69 582 100T587 162Q587 194 583 225T567 267Q556 278 531 278Q520 278 511 276T495 267Q485 256 480 225T475 162ZM660 162Q660 142 658 120T650 77T636 39T614 12Q597 1 579 -4T531 -10Q502 -10 484 -5T448 12Q435 21 427 38T413 76T405 119T402 162Q402 182 404 204T412 247T426 285T448 312Q465 324 483 329T531 334Q560 334 578 329T614 312Q627 303 635 286T649 248T657 205T660 162Z"  />
<glyph unicode="&amp;" horiz-adv-x="690" d="M404 150Q404 156 398 162L262 301Q258 305 252 305Q246 305 240 302Q218 289 204 278T182 254T170 223T167 178Q167 118 189 90T270 62Q296 62 314 66T347 78T374 100T398 134Q400 138 402 142T404 150ZM375 533Q375 557 372 573T361 600T337 615T295 620Q244 620 225 604T205 537Q205 514 208 492T221 456Q238 431 255 414T280 397Q285 397 295 400T316 410T340 426T361 448Q369 459 372 481T375 533ZM609 -6Q588 -6 569 -1T533 21L469 90Q467 92 463 93T456 89Q436 59 417 40T377 10T329 -6T270 -10Q217 -10 180 -1T120 29T86 85T75 172Q75 208 81 234T101 280T139 318T195 352Q197 353 199 354T201 360Q201 365 199 366T196 369Q154 405 135 443T115 535Q115 581 126 611T159 658T214 683T291 690Q339 690 372 683T426 658T456 612T466 540Q466 504 461 478T441 431T401 390T335 351Q331 349 331 344Q331 340 334 337L440 232Q444 228 448 228Q453 228 457 236Q471 260 491 308T528 407Q530 414 533 415T541 417H615Q620 417 620 414T619 405Q611 384 597 353T568 290T539 229T514 184Q512 180 512 175Q512 171 515 168Q545 134 564 115T595 85T617 71T637 68Q645 68 649 68T657 70Q660 71 663 71T668 66V11Q668 4 663 2Q649 -3 635 -4T609 -6Z"  />
<glyph unicode="&apos;" horiz-adv-x="200" d="M74 469Q64 469 64 479L50 734Q50 744 60 744H140Q150 744 150 734L134 479Q134 469 124 469H74Z"  />
<glyph unicode="(" horiz-adv-x="360" d="M160 294Q160 196 163 128T179 13T217 -62T287 -109Q291 -110 291 -120V-167Q290 -172 287 -172T280 -173Q272 -173 257 -168T228 -157Q179 -135 148 -100T100 -11T77 118T70 295Q70 396 76 470T100 598T148 686T228 744Q241 750 256 755T280 760Q284 760 287 760T291 754V707Q291 697 287 696Q243 678 218 650T180 575T164 460T160 294Z"  />
<glyph unicode=")" horiz-adv-x="360" d="M200 292Q200 390 197 458T181 573T143 648T73 695Q69 696 69 706V753Q70 758 73 758T80 759Q88 759 103 754T132 743Q181 720 212 685T260 597T283 468T290 291Q290 190 284 116T260 -12T212 -100T132 -158Q119 -164 104 -169T80 -174Q76 -174 73 -174T69 -168V-121Q69 -111 73 -110Q117 -92 142 -64T180 11T196 126T200 292Z"  />
<glyph unicode="*" horiz-adv-x="499" d="M224 312Q214 312 214 322L219 449Q219 459 229 459H269Q279 459 279 449L284 322Q284 312 274 312H224ZM274 745Q284 745 284 735L279 608Q279 598 269 598H229Q219 598 219 608L214 735Q214 745 224 745H274ZM424 399Q419 391 410 395L303 463Q294 468 299 476L319 511Q324 520 332 515L445 456Q454 451 449 443L424 399ZM73 657Q77 666 87 661L194 594Q204 589 198 580L178 545Q173 537 165 542L52 600Q43 605 48 614L73 657ZM448 615Q453 606 445 601L332 542Q324 537 319 545L299 580Q294 589 302 594L409 662Q419 667 423 658L448 615ZM49 440Q44 450 53 454L165 514Q173 519 178 510L199 475Q204 467 195 462L88 394Q79 389 74 397L49 440Z"  />
<glyph unicode="+" horiz-adv-x="560" d="M242 486Q242 497 252 497H309Q320 497 320 486V317Q320 310 326 310H489Q500 310 500 299V249Q500 238 489 238H326Q320 238 320 231V61Q320 50 309 50H252Q242 50 242 61V231Q242 238 235 238H71Q60 238 60 249V299Q60 310 71 310H235Q242 310 242 317V486Z"  />
<glyph unicode="&#x2c;" horiz-adv-x="274" d="M77 -142Q67 -142 67 -132L99 123Q99 133 109 133H192Q202 133 202 123L140 -132Q140 -142 130 -142H77Z"  />
<glyph unicode="-" horiz-adv-x="360" d="M63 261Q53 261 53 271V330Q53 340 63 340H297Q307 340 307 330V271Q307 261 297 261H63Z"  />
<glyph unicode="." horiz-adv-x="274" d="M90 0Q80 0 80 10V112Q80 122 90 122H185Q195 122 195 112V10Q195 0 185 0H90Z"  />
<glyph unicode="/" horiz-adv-x="400" d="M294 718Q296 729 301 729H372Q379 729 377 718L106 -99Q104 -110 99 -110H28Q21 -110 23 -99L294 718Z"  />
<glyph unicode="0" horiz-adv-x="560" d="M162 340Q162 305 164 267T172 193T185 131T204 90Q218 73 236 69T280 65Q308 65 325 69T356 90Q367 103 375 130T388 193T395 266T398 340Q398 375 396 414T388 488T375 551T356 592Q342 609 325 613T280 617Q254 617 236 613T204 592Q193 579 185 551T172 488T165 414T162 340ZM496 340Q496 301 492 255T478 165T453 85T416 31Q402 19 389 12T359 -1T324 -8T280 -10Q255 -10 236 -8T201 -1T172 11T144 31Q122 49 107 85T83 164T69 254T64 340Q64 379 68 425T82 515T107 595T144 649Q158 661 171 668T201 681T236 688T280 690Q305 690 324 688T359 681T388 669T416 649Q438 631 453 595T477 516T491 426T496 340Z"  />
<glyph unicode="1" horiz-adv-x="560" d="M233 677Q242 680 253 680H333Q343 680 343 670V88Q343 82 349 82H472Q482 82 482 72V10Q482 0 472 0H108Q98 0 98 10V72Q98 82 108 82H243Q249 82 249 88V593Q247 598 243 598L98 568Q88 568 88 578V640Q88 647 98 650L233 677Z"  />
<glyph unicode="2" horiz-adv-x="560" d="M73 81Q73 123 82 156T112 221T167 284T253 351Q297 382 323 403T362 443T380 480T384 522Q384 551 376 568T353 595T315 607T265 610Q250 610 231 609T193 605T156 600T125 593Q116 592 115 603L108 660Q108 667 116 670Q147 679 190 684T268 690Q327 690 368 682T434 654T471 604T482 527Q482 487 473 459T446 406T398 360T327 309Q277 275 246 248T196 195T172 144T165 90Q165 82 173 82H468Q478 82 478 72V10Q478 0 468 0H88Q82 0 78 2T73 10V81Z"  />
<glyph unicode="3" horiz-adv-x="560" d="M256 406Q255 405 253 404T251 397Q251 393 253 391T257 389Q318 389 361 374T432 334T472 276T485 204Q485 137 465 95T409 30T327 -1T224 -10Q197 -10 158 -6T81 7Q71 7 71 17L78 73Q78 83 88 83Q121 76 158 73T217 70Q258 70 289 74T342 92T375 132T386 204Q386 237 376 260T341 296T279 316T187 322H139Q129 322 129 332V384Q129 389 131 392T140 401Q178 432 216 465T286 526T336 573T356 597Q356 602 349 602H85Q76 602 76 612V670Q76 680 86 680H463Q473 680 473 673V611Q473 606 471 602T460 589Q426 551 373 505T256 406Z"  />
<glyph unicode="4" horiz-adv-x="560" d="M44 251Q44 258 45 265T52 288T70 329T106 399T166 509T254 670Q260 680 267 680H341Q352 680 352 669Q292 564 250 489T180 365T141 288T128 251Q128 243 135 243H330Q336 243 336 249V465Q336 475 346 475H419Q429 475 429 465V249Q429 243 435 243H514Q524 243 524 233V176Q524 166 514 166H435Q429 166 429 160V10Q429 0 419 0H346Q336 0 336 10V160Q336 166 330 166H54Q44 166 44 176V251Z"  />
<glyph unicode="5" horiz-adv-x="560" d="M202 600Q193 600 192 592L184 426Q184 418 190 418Q263 418 317 409T408 377T462 315T480 215Q480 148 459 105T402 36T316 0T209 -10Q171 -10 137 -6T73 6Q68 7 68 15L75 80Q75 82 77 84T83 85Q108 78 142 74T204 70Q254 70 288 76T342 99T372 142T381 210Q381 253 370 278T331 318T260 336T152 341H113Q99 341 99 359L111 667Q111 675 113 677T122 680H459Q469 680 469 670V610Q469 600 459 600H202Z"  />
<glyph unicode="6" horiz-adv-x="560" d="M407 193Q407 242 401 271T380 315T341 335T282 340Q242 340 217 335T178 314T159 269T154 193Q154 149 161 124T183 86T222 69T282 65Q320 65 344 68T382 85T401 124T407 193ZM388 668Q366 642 339 609T285 540T235 470T199 408Q197 404 197 399Q197 392 205 392Q212 392 220 394T239 400T268 405T310 408Q368 408 405 397T464 362T494 301T503 209Q503 142 491 100T451 33T380 -1T276 -10Q218 -10 177 0T109 35T71 99T58 198Q58 249 66 298T98 403T164 523T276 670Q285 680 301 680H370Q381 680 384 678T388 668Z"  />
<glyph unicode="7" horiz-adv-x="560" d="M473 576Q452 524 427 476T376 382T328 289T289 196Q272 145 267 103T262 12Q262 3 259 2T251 0H186Q180 0 176 2T171 10V38Q171 100 186 159T225 273T276 376T327 466T366 539T382 592Q382 598 376 598H93Q83 598 83 608V670Q83 680 93 680H469Q479 680 479 670V606Q479 601 478 594T473 576Z"  />
<glyph unicode="8" horiz-adv-x="560" d="M171 364Q130 381 100 421T70 523Q70 615 123 652T280 690Q383 690 436 653T490 523Q490 493 482 469T459 425T427 392T388 369Q387 368 385 367T383 360Q383 356 385 355T389 352Q449 320 479 276T509 161Q509 109 493 76T447 23T375 -3T280 -10Q227 -10 185 -3T113 23T67 75T51 161Q51 232 80 275T170 347Q172 348 174 349T176 355Q176 360 174 361T171 364ZM414 159Q414 195 404 225T375 276T333 309T279 321Q250 321 226 309T184 276T156 225T146 159Q146 129 153 111T176 82T217 69T280 65Q317 65 342 68T384 82T407 110T414 159ZM393 521Q393 546 389 564T372 595T339 614T284 620Q248 620 226 614T190 596T172 566T167 521Q167 496 174 473T195 431T230 401T281 389Q309 389 330 400T365 430T386 472T393 521Z"  />
<glyph unicode="9" horiz-adv-x="560" d="M153 487Q153 438 159 409T180 365T219 345T278 340Q318 340 343 345T382 366T401 411T406 487Q406 530 399 555T377 592T338 607T278 610Q240 610 216 607T178 592T159 555T153 487ZM173 12Q194 37 221 72T276 143T326 213T362 272Q364 276 364 281Q364 288 356 288Q349 288 341 286T321 280T292 275T250 272Q192 272 155 283T96 318T66 379T57 471Q57 538 69 580T109 647T180 681T284 690Q342 690 383 680T451 645T489 581T502 482Q502 431 494 382T463 277T397 157T285 10Q276 0 260 0H191Q180 0 177 2T173 12Z"  />
<glyph unicode=":" horiz-adv-x="314" d="M113 0Q103 0 103 10V112Q103 122 113 122H208Q218 122 218 112V10Q218 0 208 0H113ZM113 413Q103 413 103 423V525Q103 535 113 535H208Q218 535 218 525V423Q218 413 208 413H113Z"  />
<glyph unicode=";" horiz-adv-x="314" d="M97 -142Q87 -142 87 -132L119 123Q119 133 129 133H212Q222 133 222 123L160 -132Q160 -142 150 -142H97ZM113 413Q103 413 103 423V525Q103 535 113 535H208Q218 535 218 525V423Q218 413 208 413H113Z"  />
<glyph unicode="&lt;" horiz-adv-x="560" d="M489 440Q489 420 474 416L158 288Q155 283 155 277Q155 269 158 265L474 135Q480 133 484 127T489 111V57Q489 46 478 46L82 217Q71 223 71 233V318Q71 328 82 334L478 505Q489 505 489 494V440Z"  />
<glyph unicode="=" horiz-adv-x="560" d="M82 324Q71 324 71 335V386Q71 397 82 397H478Q489 397 489 386V335Q489 324 478 324H82ZM82 151Q71 151 71 162V212Q71 223 82 223H478Q489 223 489 212V162Q489 151 478 151H82Z"  />
<glyph unicode="&gt;" horiz-adv-x="560" d="M71 110Q71 129 86 134L402 262Q405 266 405 273Q405 280 402 285L86 415Q80 417 76 423T71 439V493Q71 504 82 504L478 333Q489 327 489 317V232Q489 222 478 216L82 45Q71 45 71 56V110Z"  />
<glyph unicode="?" horiz-adv-x="403" d="M57 594Q48 592 48 605L40 656Q40 667 50 667Q76 675 118 682T202 690Q249 690 283 685T338 663T370 618T380 541Q380 502 372 477T349 433T310 399T256 368Q232 355 220 342T201 312T194 273T193 218Q193 207 192 204T186 200H130Q122 200 122 223Q122 260 123 288T132 339T151 378T187 409Q221 430 242 444T274 472T289 501T293 539Q293 558 289 572T275 595T245 608T195 613Q172 613 138 610T57 594ZM111 0Q101 0 101 10V112Q101 122 111 122H206Q216 122 216 112V10Q216 0 206 0H111Z"  />
<glyph unicode="@" horiz-adv-x="857" d="M517 417Q518 421 519 429T521 445T524 460T525 469Q525 475 516 477T471 479Q448 479 432 473T402 448T377 394T355 300Q350 277 348 248T345 202Q345 176 347 158T359 129T385 113T433 108Q451 108 456 110T463 117L517 417ZM797 402Q797 324 783 259T737 147T651 73T518 47Q503 47 493 50T477 58T468 66T462 70Q458 70 454 67T442 59T423 51T393 47Q322 47 289 89T255 203Q255 243 264 297Q277 367 293 414T333 489T392 528T475 540Q556 540 585 532T615 507Q615 501 613 489T609 464L552 140Q551 135 551 131T550 124Q550 112 560 112Q608 112 639 133T690 193T717 285T725 402Q725 469 714 517T675 596T602 641T491 655Q381 655 314 621T208 527T157 388T144 218Q144 143 161 88T216 -5T317 -60T471 -79Q499 -79 526 -77T577 -72T619 -64T646 -57Q652 -54 654 -62L660 -110Q660 -117 654 -119Q640 -125 618 -129T569 -138T513 -144T455 -146Q255 -146 161 -55T66 220Q66 285 73 346T98 462T147 562T225 641T339 692T495 711Q566 711 622 697T717 648T776 553T797 402Z"  />
<glyph unicode="A" horiz-adv-x="556" d="M395 177Q394 184 387 184H164Q155 184 154 177L110 10Q106 0 97 0H18Q8 0 11 10Q18 40 32 91T63 205T100 335T138 466T172 583T199 670Q202 680 211 680H353Q362 680 365 670Q376 633 392 576T426 452T463 317T498 187T527 79T545 10Q548 0 538 0H449Q438 0 436 10L395 177ZM370 260Q377 260 377 267Q372 289 363 329T342 417T318 511T297 593Q296 599 279 599Q262 599 261 593Q251 558 239 511T214 417T192 330T177 267Q177 260 184 260H370Z"  />
<glyph unicode="B" horiz-adv-x="572" d="M291 680Q396 680 447 643T498 512Q498 477 491 454T473 415T446 389T415 368Q407 363 405 361T403 355Q403 349 412 346Q433 338 451 326T482 294T504 247T512 179Q512 129 497 95T456 40T396 10T326 0H97Q87 0 87 10V670Q87 680 97 680H291ZM237 379Q274 379 303 382T354 398T386 435T397 503Q397 532 392 552T371 584T331 601T267 607H191Q185 607 185 601V387Q185 379 193 379H237ZM262 74Q304 74 333 78T379 95T403 131T411 192Q411 231 400 254T370 291T324 308T267 313H193Q185 313 185 304V80Q185 74 190 74H262Z"  />
<glyph unicode="C" horiz-adv-x="488" d="M441 7Q417 -1 383 -5T311 -10Q241 -10 194 12T118 79T77 187T64 335Q64 417 76 482T118 594T194 665T311 690Q355 690 387 685T438 673Q441 671 442 670T443 664L439 598Q439 596 437 594T431 593Q413 600 383 605T322 610Q272 610 241 595T193 546T170 461T164 334Q164 265 170 215T193 133T241 85T322 70Q348 70 377 74T426 83Q430 84 434 84T439 79L445 18Q447 9 441 7Z"  />
<glyph unicode="D" horiz-adv-x="638" d="M472 345Q472 393 466 440T443 524T399 584T328 607H191Q185 607 185 601V80Q185 74 190 74H329Q372 74 399 98T443 160T465 246T472 345ZM344 680Q416 680 460 648T529 567T563 457T572 340Q572 284 563 224T530 114T461 32T344 0H97Q87 0 87 10V670Q87 680 97 680H344Z"  />
<glyph unicode="E" horiz-adv-x="492" d="M87 670Q87 680 97 680H424Q434 680 434 670V608Q434 598 424 598H191Q185 598 185 592V395Q185 389 191 389H411Q421 389 421 379V323Q421 313 411 313H191Q185 313 185 307V88Q185 82 191 82H442Q452 82 452 72V10Q452 0 442 0H97Q87 0 87 10V670Z"  />
<glyph unicode="F" horiz-adv-x="464" d="M87 670Q87 680 97 680H414Q424 680 424 670V608Q424 598 414 598H191Q185 598 185 592V375Q185 369 191 369H401Q411 369 411 359V303Q411 293 401 293H191Q185 293 185 287V10Q185 0 175 0H97Q87 0 87 10V670Z"  />
<glyph unicode="G" horiz-adv-x="590" d="M342 70Q356 70 371 71T400 75T421 79T430 84V296Q430 302 424 302H329Q319 302 319 312V375Q319 385 329 385H513Q523 385 523 375V32Q523 24 517 22Q506 17 487 12T442 1T389 -7T331 -10Q261 -10 211 12T128 79T80 187T64 335Q64 417 79 482T127 594T210 665T331 690Q375 690 418 685T488 673Q493 672 493 664L489 598Q489 591 481 593Q468 596 451 599T414 605T376 608T342 610Q292 610 258 595T203 546T173 461T164 334Q164 265 173 215T203 133T258 85T342 70Z"  />
<glyph unicode="H" horiz-adv-x="635" d="M450 670Q450 680 460 680H538Q548 680 548 670V10Q548 0 538 0H460Q450 0 450 10V307Q450 313 444 313H191Q185 313 185 307V10Q185 0 175 0H97Q87 0 87 10V670Q87 680 97 680H175Q185 680 185 670V395Q185 389 191 389H444Q450 389 450 395V670Z"  />
<glyph unicode="I" horiz-adv-x="272" d="M97 0Q87 0 87 10V670Q87 680 97 680H175Q185 680 185 670V10Q185 0 175 0H97Z"  />
<glyph unicode="J" horiz-adv-x="311" d="M130 670Q130 680 140 680H218Q228 680 228 670V167Q228 117 222 84T198 30T151 0T75 -9Q59 -9 40 -7T10 -2Q4 -1 5 11L10 66Q12 74 22 72Q31 70 41 69T64 68Q87 68 100 72T120 88T128 119T130 170V670Z"  />
<glyph unicode="K" horiz-adv-x="546" d="M195 389Q215 389 224 391T235 397Q252 421 278 459T331 538T381 614T417 670Q419 673 421 676T429 680H517Q525 680 525 670Q515 656 500 634T466 585T427 529T387 473T350 421T320 380Q312 368 311 364T309 356Q309 346 319 332Q332 314 351 286T393 226T437 160T479 97T513 44T534 11Q534 0 526 0H438Q432 0 428 3T422 9Q414 22 400 44T369 93T332 151T295 209T260 263T232 306Q226 316 219 317T191 319Q185 319 185 313V10Q185 0 175 0H97Q87 0 87 10V670Q87 680 97 680H175Q185 680 185 670V395Q185 392 188 391T195 389Z"  />
<glyph unicode="L" horiz-adv-x="400" d="M87 670Q87 680 97 680H175Q185 680 185 670V88Q185 82 191 82H372Q382 82 382 72V10Q382 0 372 0H97Q87 0 87 10V670Z"  />
<glyph unicode="M" horiz-adv-x="759" d="M507 670Q509 680 520 680H662Q672 680 672 670V10Q672 0 662 0H584Q574 0 574 10L578 587Q578 594 577 595T573 597Q568 597 565 586L433 172Q429 161 427 158T416 155H333Q324 155 321 157T314 170L194 585Q192 593 191 595T186 597Q181 597 181 583L185 10Q185 0 175 0H97Q87 0 87 10V670Q87 680 97 680H245Q252 680 256 670L371 255Q375 244 379 244Q385 244 387 255L507 670Z"  />
<glyph unicode="N" horiz-adv-x="652" d="M426 0Q419 0 417 3T411 15L198 550Q194 561 191 566T183 571Q178 571 177 568T176 552L181 10Q181 0 171 0H97Q87 0 87 10V670Q87 680 97 680H228Q237 680 242 668L452 141Q457 130 459 128T466 125Q473 125 473 135L469 670Q469 680 479 680H555Q565 680 565 670V10Q565 0 555 0H426Z"  />
<glyph unicode="O" horiz-adv-x="636" d="M166 340Q166 300 168 262T175 192T187 135T205 98Q220 79 245 75T317 70Q366 70 391 74T431 98Q441 111 448 135T460 191T467 262T470 340Q470 380 468 418T461 488T449 545T431 582Q416 601 391 605T319 610Q270 610 245 606T205 582Q195 569 188 545T176 489T169 418T166 340ZM570 340Q570 244 554 168T506 53Q476 15 431 3T317 -10Q248 -10 204 2T130 53Q99 92 83 168T66 340Q66 436 82 512T130 627Q160 665 205 677T319 690Q388 690 432 678T506 627Q537 588 553 512T570 340Z"  />
<glyph unicode="P" horiz-adv-x="531" d="M271 680Q323 680 363 670T432 637T474 574T488 478Q488 413 471 372T423 306T349 273T254 264H191Q185 264 185 258V10Q185 0 175 0H97Q87 0 87 10V670Q87 680 97 680H271ZM252 339Q288 339 314 344T356 365T379 406T387 476Q387 515 380 540T357 580T315 601T252 607H191Q185 607 185 601V345Q185 339 191 339H252Z"  />
<glyph unicode="Q" horiz-adv-x="636" d="M166 340Q166 300 168 262T175 192T187 135T205 98Q220 79 245 75T317 70Q366 70 391 74T431 98Q441 111 448 135T460 191T467 262T470 340Q470 380 468 418T461 488T449 545T431 582Q416 601 391 605T319 610Q270 610 245 606T205 582Q195 569 188 545T176 489T169 418T166 340ZM269 -4Q221 0 188 11T130 53Q99 92 83 168T66 340Q66 436 82 512T130 627Q160 665 205 677T319 690Q388 690 432 678T506 627Q537 588 553 512T570 340Q570 244 554 170T506 56Q483 27 451 14T374 -4Q368 -5 368 -22Q368 -40 369 -54T376 -79T393 -94T425 -99H515Q524 -99 524 -109L521 -146Q520 -152 519 -155T513 -162Q507 -167 489 -170T427 -173Q384 -173 356 -167T311 -144T287 -99T280 -28Q280 -7 269 -4Z"  />
<glyph unicode="R" horiz-adv-x="576" d="M295 261Q292 265 285 267H191Q185 267 185 261V10Q185 0 175 0H97Q87 0 87 10V670Q87 680 97 680H282Q391 680 442 636T493 492Q493 416 471 370T389 295Q387 294 385 291T385 286L550 11Q553 6 552 3T545 0H448Q443 0 441 2T436 9L295 261ZM252 339Q332 339 362 372T392 477Q392 517 386 542T364 582T321 601T252 607H191Q185 607 185 601V345Q185 339 191 339H252Z"  />
<glyph unicode="S" horiz-adv-x="499" d="M281 604Q249 604 227 600T192 586T172 560T166 518Q166 504 168 492T180 467Q192 450 224 427T302 370Q344 341 374 314T421 261Q435 238 437 216T440 174Q440 79 394 36T254 -7Q206 -7 154 -2T65 13Q60 14 60 22L64 87Q64 94 72 92Q159 77 245 77Q269 77 287 81T318 95T337 122T344 165Q344 179 342 195T331 225Q319 242 287 265T209 322Q167 351 136 378T88 431Q74 454 72 474T69 515Q69 562 81 594T119 646T184 674T278 683Q300 683 323 681T366 676T404 670T430 663Q433 661 434 660T435 654L431 593Q431 591 429 589T423 588Q414 591 398 594T362 599T321 603T281 604Z"  />
<glyph unicode="T" horiz-adv-x="442" d="M172 592Q172 598 166 598H24Q14 598 14 608V670Q14 680 24 680H418Q428 680 428 670V608Q428 598 418 598H276Q270 598 270 592V10Q270 0 260 0H182Q172 0 172 10V592Z"  />
<glyph unicode="U" horiz-adv-x="625" d="M543 149Q543 74 482 32T312 -10Q188 -10 135 32T82 149V670Q82 680 92 680H170Q180 680 180 670V167Q180 136 191 118T221 89T263 76T312 73Q337 73 360 76T403 89T433 118T445 168V670Q445 680 455 680H533Q543 680 543 670V149Z"  />
<glyph unicode="V" horiz-adv-x="558" d="M114 680Q121 680 124 670Q132 633 143 584T168 481T196 371T224 262T249 166T269 93Q271 88 273 86T284 84Q292 84 294 86T298 93Q305 122 316 166T340 261T366 369T393 480T417 584T436 670Q438 680 450 680H523Q533 680 533 670Q531 659 522 621T499 528T466 406T430 269T393 132T359 10Q357 3 353 2T342 0H215Q206 1 203 10Q187 65 169 132T131 269T93 406T61 529T37 621T25 670Q25 680 34 680H114Z"  />
<glyph unicode="W" horiz-adv-x="862" d="M505 650Q511 611 519 562T538 461T558 355T577 253T595 166T610 101Q612 95 614 92T625 88Q635 88 637 90T642 102Q647 127 654 170T669 265T687 376T704 488T718 590T729 670Q730 680 743 680H822Q829 680 829 670Q826 647 819 601T801 496T779 370T755 237T732 112T712 12Q709 0 698 0H554Q544 0 542 10Q538 27 531 62T515 143T496 242T476 350T457 456T441 550Q440 558 430 558Q419 558 418 550Q412 508 403 457T385 352T366 245T348 146T332 65T320 11Q318 0 307 0H156Q146 0 144 10Q136 52 125 113T102 244T78 383T57 513T41 615T33 671Q33 680 42 680H124Q131 680 132 670Q135 638 142 591T157 488T174 375T192 265T209 169T222 101Q224 93 227 91T238 88Q246 88 249 90T254 101Q259 124 267 163T284 250T304 352T323 459T341 561T357 650Q357 660 367 660H495Q505 660 505 650Z"  />
<glyph unicode="X" horiz-adv-x="498" d="M248 291Q243 291 240 285Q227 259 208 219T170 139T135 63T110 9Q109 7 107 4T100 0H16Q9 0 9 11Q13 21 24 43T50 95T82 158T115 224T146 285T171 332Q176 341 177 346T179 356Q179 361 177 365T170 380Q153 411 129 455T81 544T40 623T15 671Q15 680 22 680H111Q118 680 122 670Q131 650 146 616T180 546T214 475T242 419Q245 412 252 412Q256 412 257 413T260 419Q270 440 287 474T322 545T355 616T380 670Q382 673 384 676T391 680H474Q481 680 481 670Q470 648 451 611T409 531T364 448T327 380Q320 368 319 365T317 356Q317 351 319 346T326 332Q336 314 350 286T381 226T415 160T447 97T473 44T489 11Q489 0 482 0H400Q395 0 391 3T386 9Q378 28 362 64T327 140T290 220T258 285Q255 291 248 291Z"  />
<glyph unicode="Y" horiz-adv-x="528" d="M424 669Q431 680 441 680H518Q525 680 522 670Q507 638 484 595T435 505T386 417T344 345Q323 309 316 294T308 268V10Q308 0 298 0H220Q210 0 210 10V269Q210 275 209 280T204 293T194 312T179 340Q162 370 136 417T84 514T36 606T5 670Q2 680 12 680H96Q106 680 110 669Q122 643 140 604T178 524T216 445T248 382Q253 371 255 368T263 365Q268 365 270 368T279 382Q294 406 314 443T354 522T393 602T424 669Z"  />
<glyph unicode="Z" horiz-adv-x="458" d="M42 0Q32 0 32 10V87Q32 92 34 98T46 121L311 566Q316 575 317 580T319 589Q319 598 309 598H74Q64 598 64 608V670Q64 680 74 680H415Q425 680 425 670V593Q425 588 423 582T411 559L140 105Q137 99 137 90Q137 82 142 82H411Q421 82 421 72V10Q421 0 410 0H42Z"  />
<glyph unicode="[" horiz-adv-x="360" d="M87 742Q87 752 97 752H291Q301 752 301 742V690Q301 680 291 680H181Q175 680 175 674V-86Q175 -92 181 -92H291Q301 -92 301 -102V-154Q301 -164 291 -164H97Q87 -164 87 -154V742Z"  />
<glyph unicode="\" horiz-adv-x="400" d="M377 -99Q379 -110 372 -110H301Q296 -110 294 -99L23 718Q21 729 28 729H99Q104 729 106 718L377 -99Z"  />
<glyph unicode="]" horiz-adv-x="360" d="M273 -154Q273 -164 263 -164H69Q59 -164 59 -154V-102Q59 -92 69 -92H179Q185 -92 185 -86V674Q185 680 179 680H69Q59 680 59 690V742Q59 752 69 752H263Q273 752 273 742V-154Z"  />
<glyph unicode="^" horiz-adv-x="560" d="M250 697H307L467 265H406L332 475Q327 490 320 512T306 556T292 600T281 636H279Q274 621 268 600T254 557T239 512T226 475L153 265H93L250 697Z"  />
<glyph unicode="_" horiz-adv-x="500" d="M500 -78V-128H0V-78H500Z"  />
<glyph unicode="`" horiz-adv-x="500" d="M261 610Q248 610 243 612T230 626L115 802Q115 812 125 812H196Q204 812 211 802L298 620Q298 610 288 610H261Z"  />
<glyph unicode="a" horiz-adv-x="529" d="M237 468Q210 468 178 466T121 459Q116 458 112 458T106 464L99 513Q97 524 105 527Q134 535 171 540T260 545Q354 545 401 508T448 382V22Q448 17 446 14T435 7Q414 0 372 -5T278 -10Q213 -10 170 -3T101 21T65 65T54 134Q54 170 60 198T84 246T135 280T224 300L349 315Q355 316 355 321V372Q355 401 349 419T328 449T292 464T237 468ZM355 238Q355 244 349 244H258Q226 244 206 240T173 225T157 195T152 146Q152 116 156 99T173 72T208 60T269 57Q290 57 312 58T346 63Q352 65 353 66T355 70V238Z"  />
<glyph unicode="b" horiz-adv-x="570" d="M259 -10Q208 -10 166 -4T91 11Q82 14 82 21V725Q82 735 92 735H168Q178 735 178 725V544Q178 537 186 537Q195 537 222 541T278 545Q342 545 385 532T456 488T494 408T506 288Q506 211 495 155T457 62T381 8T259 -10ZM178 81Q178 72 185 70Q197 66 219 65T258 63Q307 63 336 73T381 108T401 174T406 278Q406 337 400 374T377 433T334 463T265 471Q239 471 218 468T186 462Q178 459 178 448V81Z"  />
<glyph unicode="c" horiz-adv-x="416" d="M379 4Q359 -2 332 -6T275 -10Q216 -10 175 8T109 60T73 146T62 264Q62 329 73 381T109 469T175 525T275 545Q310 545 336 541T377 531Q381 530 381 524L377 464Q377 457 371 460Q357 465 333 469T285 473Q249 473 226 462T188 427T168 362T162 263Q162 208 168 170T188 109T226 75T285 64Q306 64 329 67T367 74Q370 75 373 75T377 71L383 12Q384 6 379 4Z"  />
<glyph unicode="d" horiz-adv-x="570" d="M312 -10Q238 -10 190 5T114 55T75 143T64 274Q64 417 121 481T307 545Q333 545 354 542T385 538Q392 538 392 547V725Q392 735 402 735H478Q488 735 488 725V23Q488 14 478 11Q447 3 405 -3T312 -10ZM392 450Q392 459 385 462Q374 466 352 468T309 471Q268 471 240 464T195 435T171 376T164 274Q164 212 168 171T188 106T233 73T312 63Q329 63 349 64T383 70Q389 72 390 75T392 81V450Z"  />
<glyph unicode="e" horiz-adv-x="552" d="M161 313Q161 306 167 306H389Q396 306 398 311T401 341Q401 408 377 440T287 473Q249 473 225 461T186 428T167 377T161 313ZM469 19Q403 -10 308 -10Q233 -10 186 12T111 71T73 160T62 268Q62 327 73 378T111 466T181 524T287 545Q349 545 388 528T450 479T481 406T490 313V285Q490 255 484 246T464 236H167Q161 236 161 229Q161 179 172 147T204 97T257 71T328 64Q363 64 398 72T457 90Q459 90 460 90T462 91Q469 91 472 85L476 32V29Q476 22 469 19Z"  />
<glyph unicode="f" horiz-adv-x="330" d="M207 541Q207 535 213 535H316Q326 535 326 525V471Q326 461 316 461H213Q207 461 207 455V10Q207 0 197 0H121Q111 0 111 10V455Q111 461 105 461H25Q15 461 15 471V525Q15 535 25 535H105Q111 535 111 541V590Q111 609 115 634T135 681T182 719T267 735Q296 735 315 733T340 728Q349 725 347 715L342 666Q340 658 330 660Q320 662 306 664T274 666Q254 666 241 660T221 643T210 618T207 587V541Z"  />
<glyph unicode="g" horiz-adv-x="570" d="M488 7Q488 -50 473 -86T430 -144T361 -172T268 -180Q246 -180 221 -178T171 -173T123 -165T83 -154Q77 -153 79 -143L89 -93Q91 -84 101 -87Q114 -91 133 -95T174 -102T217 -106T257 -108Q299 -108 325 -102T367 -81T387 -40T393 27Q393 34 386 34Q351 31 310 31Q236 31 189 43T114 85T75 164T64 286Q64 354 77 403T119 483T193 530T302 545Q320 545 342 544T387 541T434 536T478 528Q488 525 488 515V7ZM312 100Q341 100 359 101T385 106Q392 109 392 118V450Q392 460 385 462Q374 466 352 468T304 471Q263 471 236 464T193 437T171 381T164 286Q164 227 168 191T188 135T233 107T312 100Z"  />
<glyph unicode="h" horiz-adv-x="569" d="M82 725Q82 735 92 735H168Q178 735 178 725V542Q178 534 189 534Q201 535 216 537T246 541T277 544T305 545Q356 545 392 537T450 509T482 453T492 362V10Q492 0 482 0H406Q396 0 396 10V351Q396 386 392 409T375 446T340 465T281 471Q223 471 188 463Q178 460 178 452V10Q178 0 168 0H92Q82 0 82 10V725Z"  />
<glyph unicode="i" horiz-adv-x="269" d="M96 0Q86 0 86 10V525Q86 535 96 535H172Q182 535 182 525V10Q182 0 172 0H96ZM92 640Q82 640 82 650V734Q82 744 92 744H177Q187 744 187 734V650Q187 640 177 640H92Z"  />
<glyph unicode="j" horiz-adv-x="270" d="M93 640Q83 640 83 650V734Q83 744 93 744H178Q188 744 188 734V650Q188 640 178 640H93ZM87 525Q87 535 97 535H173Q183 535 183 525V7Q183 -50 180 -88T163 -148T119 -180T39 -189Q16 -189 -5 -186T-32 -181Q-41 -178 -39 -169L-34 -120Q-32 -112 -22 -114Q-13 -116 0 -117T27 -118Q47 -118 59 -114T77 -97T85 -58T87 10V525Z"  />
<glyph unicode="k" horiz-adv-x="513" d="M178 341Q178 336 181 334T196 332Q213 332 218 336Q236 356 258 382T303 434T345 484T379 526Q383 531 386 533T398 535H483Q499 535 495 526Q488 517 466 492T414 435T353 368T296 307Q289 302 289 295Q289 290 298 281Q310 266 328 243T367 193T409 137T450 84T483 39T504 11Q506 7 505 4T491 0H407Q400 0 397 1T390 8Q375 30 353 62T306 128T259 193T220 245Q218 249 213 252T197 255Q184 255 181 253T178 246V10Q178 0 168 0H92Q82 0 82 10V725Q82 735 92 735H168Q178 735 178 725V341Z"  />
<glyph unicode="l" horiz-adv-x="285" d="M258 -2Q242 -6 226 -8T189 -10Q161 -10 140 -5T106 14T86 50T79 108V725Q79 735 89 735H165Q175 735 175 725V105Q175 82 185 73T216 63H259Q269 63 269 53L267 11Q267 0 258 -2Z"  />
<glyph unicode="m" horiz-adv-x="872" d="M481 10Q481 0 471 0H395Q385 0 385 10V411Q385 447 357 459T286 471Q261 471 233 469T188 463Q178 460 178 452V10Q178 0 168 0H92Q82 0 82 10V514Q82 522 92 524Q104 527 128 530T180 537T236 542T287 545Q331 545 369 541T433 519Q437 517 441 519Q481 534 526 539T609 545Q663 545 699 532T757 497T788 443T797 375V10Q797 0 787 0H711Q701 0 701 10V362Q701 422 673 446T585 471Q563 471 537 469T493 463Q481 460 481 452V10Z"  />
<glyph unicode="n" horiz-adv-x="567" d="M406 0Q396 0 396 10V354Q396 389 392 412T374 448T338 466T276 471Q223 471 188 463Q178 460 178 452V10Q178 0 168 0H92Q82 0 82 10V514Q82 522 92 524Q112 528 136 531T185 538T233 543T276 545Q342 545 384 537T450 508T483 452T492 361V10Q492 0 482 0H406Z"  />
<glyph unicode="o" horiz-adv-x="573" d="M160 272Q160 241 162 213T169 160T181 118T197 89Q209 76 228 71T286 65Q327 65 346 70T376 89Q385 99 392 117T403 160T410 212T413 272Q413 335 404 381T376 447Q365 460 347 465T288 471Q247 471 228 466T197 447Q178 427 169 381T160 272ZM511 272Q511 197 494 137T450 44Q424 15 385 3T286 -10Q226 -10 189 2T125 44Q98 76 80 136T62 272Q62 348 79 405T125 493Q151 522 190 533T288 545Q348 545 386 534T450 493Q477 461 494 405T511 272Z"  />
<glyph unicode="p" horiz-adv-x="570" d="M258 545Q333 545 381 532T456 486T495 402T506 273Q506 202 493 151T452 66T378 16T267 0Q257 0 245 0T221 1T200 2T186 3Q178 3 178 -4V-170Q178 -180 168 -180H92Q82 -180 82 -170V514Q82 522 92 524Q125 532 169 538T258 545ZM178 89Q178 78 188 77Q206 75 223 74T260 73Q301 73 329 81T374 111T398 172T406 274Q406 334 400 372T377 433T332 463T258 471Q208 471 187 463Q178 460 178 450V89Z"  />
<glyph unicode="q" horiz-adv-x="570" d="M304 72Q330 72 348 75T383 83Q389 85 390 88T392 100V453Q392 458 391 459T383 463Q365 468 345 469T307 471Q265 471 238 461T194 427T171 366T164 275Q164 223 169 185T189 121T231 84T304 72ZM326 545Q367 545 406 540T478 528Q488 525 488 518V-170Q488 -180 478 -180H402Q392 -180 392 -170V0Q392 9 387 9Q375 9 352 5T280 0Q219 0 178 16T112 65T75 150T64 273Q64 338 76 388T119 474T199 527T326 545Z"  />
<glyph unicode="r" horiz-adv-x="353" d="M82 514Q82 522 92 524Q125 532 166 538T251 545Q274 545 300 544T343 540Q349 539 349 532L344 468Q344 463 337 464Q299 470 252 470Q238 470 217 468T185 460Q178 456 178 448V10Q178 -2 166 0H92Q82 0 82 10V514H82Z"  />
<glyph unicode="s" horiz-adv-x="401" d="M181 -10Q146 -10 110 -8T50 0Q44 2 44 7L48 71Q48 77 56 75Q82 70 111 68T165 65Q197 65 217 67T247 77T261 99T265 137Q265 151 261 162T245 186T213 214T162 252Q131 274 110 291T75 324T55 359T49 401Q49 478 88 511T226 545Q297 545 340 537Q346 535 346 530L342 466Q342 460 334 462Q314 465 288 468T237 471Q209 471 190 470T160 462T143 444T138 411Q138 394 142 382T159 358T191 332T242 298Q274 277 296 258T331 221T350 184T356 142Q356 98 346 69T315 22T260 -3T181 -10Z"  />
<glyph unicode="t" horiz-adv-x="333" d="M292 -2Q276 -5 258 -7T222 -10Q165 -10 139 17T112 93V455Q112 461 106 461H26Q16 461 16 471V525Q16 535 26 535H106Q112 535 112 541V666Q112 676 122 676H198Q208 676 208 666V541Q208 535 214 535H308Q318 535 318 525V471Q318 461 308 461H214Q208 461 208 455V105Q208 82 218 73T252 63H293Q303 63 303 53L301 11Q301 0 292 -2Z"  />
<glyph unicode="u" horiz-adv-x="567" d="M161 535Q171 535 171 525V188Q171 153 176 130T196 92T234 73T296 67Q319 67 340 69T379 75Q389 78 389 86V525Q389 535 399 535H475Q485 535 485 525V21Q485 13 475 11Q455 7 432 3T384 -4T338 -8T297 -10Q231 -10 188 -1T120 29T85 87T75 178V525Q75 535 85 535H161Z"  />
<glyph unicode="v" horiz-adv-x="492" d="M321 8Q318 0 309 0H179Q175 0 173 3T169 8Q159 35 145 79T115 176T83 283T54 386T31 472T18 526Q18 535 27 535H109Q116 535 118 526Q129 478 144 417T175 295T206 177T234 84Q235 78 248 78Q261 78 263 84Q275 121 290 177T320 294T350 417T376 526Q377 535 389 535H466Q474 535 474 525Q471 509 461 472T438 385T408 281T375 174T345 78T321 8Z"  />
<glyph unicode="w" horiz-adv-x="844" d="M679 8Q676 0 668 0H538Q531 0 530 8Q522 42 510 96T483 211T456 333T432 445Q431 451 422 451Q412 451 410 445Q399 395 385 333T355 210T326 94T303 8Q300 0 292 0H165Q159 0 157 8Q149 34 137 78T111 174T83 281T57 385T36 471T24 526Q24 535 31 535H119Q124 535 126 526Q135 478 147 418T173 296T200 179T222 86Q223 80 234 80Q245 80 246 86Q255 123 268 178T294 295T320 417T342 526Q345 535 352 535H488Q495 535 497 526Q506 478 519 418T546 296T572 179T594 86Q595 80 606 80Q616 80 618 86Q628 123 641 178T670 295T698 417T722 526Q725 535 732 535H814Q820 535 820 525Q817 509 808 472T785 385T757 281T728 174T700 78T679 8Z"  />
<glyph unicode="x" horiz-adv-x="506" d="M251 220Q244 220 241 215Q230 198 213 171T178 113T143 54T116 7Q115 5 113 3T106 0H21Q11 0 14 9Q18 17 29 34T55 75T87 124T122 175T154 221T179 257Q184 263 187 269T190 280Q190 284 187 290T179 301Q164 324 142 358T97 426T57 488T33 527Q31 531 34 533T41 535H124Q138 535 140 527Q160 489 187 443T246 342Q251 333 256 333Q263 333 268 342Q300 396 328 444T376 527Q381 535 391 535H470Q479 535 476 528Q466 510 448 481T408 418T366 354T330 301Q319 285 319 280Q319 272 329 259Q342 239 367 202T418 126T465 54T492 8Q495 0 485 0H401Q396 0 393 2T388 7Q377 26 360 54T325 113T290 170T261 215Q259 217 258 218T251 220Z"  />
<glyph unicode="y" horiz-adv-x="484" d="M229 7Q229 11 214 11H190Q178 11 173 15T165 24Q154 54 140 98T110 193T80 296T52 394T30 475T18 526Q18 535 27 535H110Q117 535 119 526L135 457Q146 410 158 358T183 257T208 163T231 88Q232 82 245 82Q252 82 255 83T260 89Q272 125 286 180T315 296T344 417T369 526Q370 535 383 535H458Q466 535 466 525Q463 509 454 472T430 385T401 281T369 175T340 79T317 9Q298 -47 279 -83T234 -141T177 -171T100 -180Q73 -180 62 -178T50 -165L48 -125Q49 -117 51 -115T61 -113Q100 -113 126 -110T170 -95T200 -64T225 -11Q228 -3 228 0T229 7Z"  />
<glyph unicode="z" horiz-adv-x="448" d="M48 0Q38 0 38 10V87Q38 95 41 100T52 116L303 431Q310 439 311 443T312 453Q312 461 301 461H65Q55 461 55 471V525Q55 535 65 535H397Q407 535 407 525V456Q407 451 405 439T397 419L138 97Q135 93 135 84Q135 76 141 76H405Q415 76 415 66V10Q415 0 404 0H48Z"  />
<glyph unicode="{" horiz-adv-x="360" d="M146 294Q146 290 152 286Q168 274 176 256T184 206Q184 183 183 150T179 84T175 23T173 -18Q173 -44 180 -58T202 -80T239 -90T293 -92Q304 -92 304 -102V-154Q304 -164 293 -164Q246 -164 209 -159T146 -139T107 -100T93 -39Q93 -24 95 10T100 82T105 156T107 210Q107 236 90 248T46 261Q35 261 35 271V317Q35 327 46 327Q73 327 90 339T107 378Q107 396 105 431T100 505T95 578T93 627Q93 664 106 688T146 726T209 746T293 752Q304 752 304 742V690Q304 680 293 680Q262 680 240 678T202 669T180 647T173 606Q173 593 174 565T178 504T182 438T184 382Q184 350 176 332T152 302Q149 300 148 299T146 294Z"  />
<glyph unicode="|" horiz-adv-x="280" d="M109 786H171V-214H109V786Z"  />
<glyph unicode="}" horiz-adv-x="360" d="M214 294Q214 297 213 298T208 302Q192 314 184 332T176 382Q176 404 177 437T181 504T185 565T187 606Q187 632 180 646T158 668T121 678T67 680Q56 680 56 690V742Q56 752 67 752Q114 752 151 746T214 726T253 688T267 627Q267 612 265 578T260 506T255 432T253 378Q253 352 270 340T314 327Q325 327 325 317V271Q325 261 314 261Q287 261 270 249T253 210Q253 192 255 157T260 83T265 10T267 -39Q267 -76 254 -100T214 -138T151 -158T67 -164Q56 -164 56 -154V-102Q56 -92 67 -92Q98 -92 120 -90T158 -81T180 -59T187 -18Q187 -5 186 23T182 84T178 150T176 206Q176 238 184 256T208 286Q214 290 214 294Z"  />
<glyph unicode="~" horiz-adv-x="560" d="M299 307Q324 291 342 283T379 275Q396 275 410 287T435 338Q438 346 440 350T447 354L498 340Q500 339 501 338T503 331Q502 314 494 292T470 250T431 215T375 201Q346 201 320 211T257 245Q227 265 211 272T179 280Q162 280 148 268T123 220Q119 204 111 204L61 218Q57 219 57 224Q57 237 64 259T85 302T123 338T178 354Q194 354 207 352T234 344T263 329T299 307Z"  />
<glyph unicode="&#xA0;" horiz-adv-x="200" />
<glyph unicode="&#xA1;" horiz-adv-x="280" d="M166 310Q176 310 176 300L196 -135Q196 -145 186 -145H92Q82 -145 82 -135L102 300Q102 310 112 310H166ZM191 535Q201 535 201 525V423Q201 413 191 413H96Q86 413 86 423V525Q86 535 96 535H191Z"  />
<glyph unicode="&#xA2;" horiz-adv-x="560" d="M327 -87Q327 -97 317 -97H262Q252 -97 252 -87V-11Q252 -8 250 -6Q161 9 125 77T89 264Q89 321 97 368T125 451T175 509T250 540Q252 542 252 545V628Q252 638 262 638H317Q327 638 327 628V550Q327 545 329 544Q354 542 373 539T404 531Q408 530 408 524L404 464Q404 457 398 460Q384 465 360 469T312 473Q276 473 253 462T215 427T195 362T189 263Q189 208 195 170T215 109T253 75T312 64Q333 64 356 67T394 74Q397 75 400 75T404 71L409 12Q411 4 406 4Q391 -1 371 -4T329 -9Q327 -10 327 -14V-87Z"  />
<glyph unicode="&#xA3;" horiz-adv-x="560" d="M75 0Q65 0 65 10V75Q65 83 75 86Q119 108 135 163T151 316Q151 326 149 328T137 330H75Q65 330 65 340V386Q65 396 75 396H137Q145 396 147 399T150 414Q150 483 158 535T187 621T245 673T340 690Q376 690 409 686T469 674Q474 673 474 665L466 603Q464 597 458 598Q432 603 406 606T345 610Q310 610 290 597T259 560T246 500T243 418Q243 402 244 399T251 396H424Q434 396 434 386V340Q434 330 424 330H250Q242 330 242 320Q242 270 238 236T227 178T211 138T190 105Q182 94 182 89Q182 84 183 83T190 82H494Q504 82 504 72V10Q504 0 494 0H75Z"  />
<glyph unicode="&#xA4;" horiz-adv-x="560" d="M246 266Q281 266 304 290T327 351Q327 388 304 412T246 436Q211 436 188 412T164 351Q164 314 187 290T246 266ZM97 550L167 480Q184 490 203 495T246 501Q268 501 288 496T325 480L395 550L443 502L374 433Q385 416 391 396T397 352Q397 308 375 272L443 204L393 154L325 222Q290 201 246 201Q223 201 203 207T165 224L95 154L47 202L117 272Q95 308 95 352Q95 374 100 393T116 430L47 500L97 550Z"  />
<glyph unicode="&#xA5;" horiz-adv-x="560" d="M436 669Q443 680 453 680H530Q537 680 534 670Q515 638 493 602T448 530T403 459T361 395Q338 361 331 349T324 334Q324 328 330 328H474Q484 328 484 318V275Q484 265 474 265H330Q324 265 324 259V199Q324 195 330 195H474Q484 195 484 185V142Q484 132 474 132H330Q324 132 324 127V10Q324 0 314 0H240Q230 0 230 10V126Q230 132 224 132H79Q69 132 69 142V185Q69 195 79 195H224Q229 195 230 199V259Q230 265 224 265H79Q69 265 69 275V318Q69 328 79 328H224Q230 328 230 334Q230 336 229 338T225 347T216 363T199 390Q180 420 155 459T106 539T60 614T26 670Q24 675 26 677T33 680H117Q125 680 131 669Q145 643 162 612T196 549T231 487T262 432Q267 422 271 419T281 415Q286 415 291 418T302 432Q316 456 333 485T369 546T404 610T436 669Z"  />
<glyph unicode="&#xA6;" horiz-adv-x="280" d="M109 786H171V405H109V786ZM109 167H171V-214H109V167Z"  />
<glyph unicode="&#xA7;" horiz-adv-x="550" d="M392 199Q392 222 388 239T369 275T324 317T242 376Q240 378 236 379T228 381Q223 381 220 379T214 375Q193 358 175 333T156 270Q156 249 161 234T180 204T221 169T291 119Q308 107 317 102T334 97Q338 97 346 103Q357 112 365 124T380 150T389 177T392 199ZM111 544Q111 587 123 615T160 660T221 683T308 690Q327 690 347 689T387 685T422 679T447 672Q450 670 451 669T452 663L448 602Q448 600 446 598T440 597Q422 602 386 606T311 611Q279 611 259 609T227 600T211 581T207 550Q207 533 214 519T236 491T275 460T332 421Q377 391 406 366T452 316T475 265T482 206Q482 112 397 54Q393 51 393 46Q393 41 397 37Q418 14 427 -7T436 -56Q436 -106 422 -138T381 -188T319 -214T241 -221Q221 -221 200 -220T157 -218T117 -214T85 -209Q79 -207 78 -205T76 -199L81 -139Q82 -128 93 -130Q125 -136 161 -138T240 -141Q286 -141 311 -127T337 -74Q337 -53 332 -38T311 -6T269 29T199 77Q160 102 135 124T94 167T73 212T66 263Q66 290 73 311T92 352T122 387T160 419Q167 424 167 429Q167 433 165 435T154 447Q136 466 124 489T111 544Z"  />
<glyph unicode="&#xA8;" horiz-adv-x="500" d="M117 640Q107 640 107 650V723Q107 733 117 733H190Q200 733 200 723V650Q200 640 190 640H117ZM310 640Q300 640 300 650V723Q300 733 310 733H383Q393 733 393 723V650Q393 640 383 640H310Z"  />
<glyph unicode="&#xA9;" horiz-adv-x="840" d="M107 333Q107 438 129 506T192 615T291 671T424 687Q496 687 553 671T650 615T711 511T733 347Q733 239 710 169T645 59T547 2T423 -14Q354 -14 296 2T196 57T131 164T107 333ZM686 341Q686 437 664 496T606 589T522 633T423 645Q364 645 315 632T230 586T174 493T154 341Q154 243 177 182T237 88T323 42T423 30Q477 30 525 42T609 87T665 182T686 341ZM539 130Q520 125 496 122T443 119Q337 119 294 174T250 335Q250 386 260 427T294 498T353 542T443 558Q477 558 500 555T537 547Q541 546 541 541L537 480Q537 474 532 477Q518 481 495 484T449 487Q422 487 402 481T369 457T350 410T343 334Q343 290 349 263T369 221T403 201T449 195Q469 195 491 197T528 203Q531 203 534 203T537 200L542 136Q544 130 539 130Z"  />
<glyph unicode="&#xAA;" horiz-adv-x="380" d="M175 614Q155 614 133 612T93 606Q90 605 87 605T82 609L77 656Q77 659 77 662T81 667Q101 672 128 676T190 680Q263 680 296 654T329 566V315Q329 309 318 305T289 298T248 294T200 292Q154 292 124 297T76 314T51 345T44 393Q44 418 48 437T64 471T100 495T162 510L248 520Q252 520 252 527V560Q252 593 236 603T175 614ZM253 457Q253 461 248 461H190Q170 461 157 459T135 451T124 433T121 402Q121 385 124 375T135 358T158 350T197 348Q215 348 234 349T253 355V457Z"  />
<glyph unicode="&#xAB;" horiz-adv-x="520" d="M65 307Q65 313 68 317T75 326L251 497Q258 503 261 501T265 491V433Q265 427 263 424T256 414L134 282Q131 277 131 272Q131 266 134 262L256 130Q261 124 263 121T265 111V53Q265 46 262 44T251 47L75 218Q71 222 68 226T65 237V307ZM255 307Q255 313 258 317T265 326L441 497Q448 503 451 501T455 491V433Q455 427 453 424T446 414L324 282Q321 277 321 272Q321 266 324 262L446 130Q451 124 453 121T455 111V53Q455 46 452 44T441 47L265 218Q261 222 258 226T255 237V307Z"  />
<glyph unicode="&#xAC;" horiz-adv-x="560" d="M69 370Q58 370 58 381V431Q58 442 69 442H490Q501 442 501 431V173Q501 162 490 162H439Q429 162 429 173V363Q429 370 422 370H69Z"  />
<glyph unicode="&#xAD;" horiz-adv-x="360" d="M63 261Q53 261 53 271V330Q53 340 63 340H297Q307 340 307 330V271Q307 261 297 261H63Z"  />
<glyph unicode="&#xAE;" horiz-adv-x="446" d="M57 507Q57 563 69 599T102 657T155 686T226 695Q265 695 295 687T347 657T379 601T391 514Q391 457 379 420T345 362T293 332T226 323Q188 323 157 331T104 361T70 417T57 507ZM355 512Q355 558 346 587T319 634T279 658T226 665Q193 665 169 658T127 634T102 587T93 512Q93 464 103 434T130 386T172 362T226 355Q256 355 280 361T320 385T346 433T355 512ZM226 479Q225 480 221 482H196Q194 482 194 479V402Q194 398 189 398H153Q149 398 149 402V621Q149 625 153 625H214Q262 625 282 612T303 563Q303 537 296 524T270 497Q267 494 268 493L321 403Q324 398 319 398H275Q272 398 269 402L226 479ZM221 516Q241 516 248 527T256 556Q256 576 250 583T221 590H196Q194 590 194 587V519Q194 516 196 516H221Z"  />
<glyph unicode="&#xAF;" horiz-adv-x="500" d="M114 649Q104 649 104 659V713Q104 723 114 723H387Q397 723 397 713V659Q397 649 387 649H114Z"  />
<glyph unicode="&#xB0;" horiz-adv-x="386" d="M196 722Q226 722 252 710T299 678T331 631T343 573Q343 541 331 514T299 466T252 434T194 422Q162 422 135 434T88 466T56 514T44 574Q44 605 56 632T88 679T136 710T196 722ZM192 668Q173 668 157 661T128 641T108 611T101 573Q101 532 127 505T194 477Q234 477 260 504T286 573Q286 614 260 641T192 668Z"  />
<glyph unicode="&#xB1;" horiz-adv-x="560" d="M242 575Q242 586 252 586H309Q320 586 320 575V406Q320 399 326 399H489Q500 399 500 388V338Q500 327 489 327H326Q320 327 320 320V150Q320 139 309 139H252Q242 139 242 150V320Q242 327 235 327H71Q60 327 60 338V388Q60 399 71 399H235Q242 399 242 406V575ZM71 20Q60 20 60 31V81Q60 92 71 92H489Q500 92 500 81V31Q500 20 489 20H71Z"  />
<glyph unicode="&#xB2;" horiz-adv-x="350" d="M39 488Q39 514 45 534T64 572T99 608T153 648Q175 663 190 675T213 697T224 719T228 745Q228 774 212 783T157 793Q137 793 108 790T63 782Q57 782 57 788L52 845Q52 849 58 851Q79 856 107 859T162 863Q195 863 222 859T270 844T301 811T312 756Q312 731 308 712T292 675T263 642T217 608Q185 587 166 573T137 547T124 525T121 502Q121 497 128 497H304Q311 497 311 491V434Q311 428 304 428H48Q39 428 39 434V488Z"  />
<glyph unicode="&#xB3;" horiz-adv-x="350" d="M178 683Q177 682 176 681T175 677Q175 673 178 673Q250 672 281 641T312 557Q312 515 299 489T264 447T210 427T143 422Q123 422 97 424T45 433Q39 433 39 439L44 492Q44 498 50 498Q70 494 94 492T132 490Q155 490 172 492T201 502T218 524T224 561Q224 596 199 609T106 622H78Q71 622 71 627V670Q71 674 78 681Q103 699 125 717T164 749T191 774T201 786Q201 790 197 790H47Q42 790 42 796V850Q42 856 48 856H298Q304 856 304 852V795Q304 793 303 790T296 782Q276 761 246 737T178 683Z"  />
<glyph unicode="&#xB4;" horiz-adv-x="500" d="M214 610Q204 610 204 620L289 802Q296 812 304 812H375Q385 812 385 802L268 626Q261 615 256 613T237 610H214Z"  />
<glyph unicode="&#xB5;" horiz-adv-x="565" d="M80 525Q80 535 90 535H164Q174 535 174 525V188Q174 152 179 129T199 91T237 72T300 66Q329 66 348 68T384 74Q394 77 394 85V525Q394 535 404 535H478Q488 535 488 525V21Q488 11 478 11Q437 3 388 -3T301 -10Q251 -10 221 -4T182 3Q174 3 174 -4V-170Q174 -180 164 -180H90Q80 -180 80 -170V525Z"  />
<glyph unicode="&#xB6;" horiz-adv-x="550" d="M237 204Q194 204 158 212T96 246T56 318T41 442Q41 520 54 569T104 646T202 684T362 694H488Q498 694 498 684V-167Q498 -177 488 -177H437Q427 -177 427 -167V635Q427 641 421 641H330Q324 641 324 635V-167Q324 -177 314 -177H264Q254 -177 254 -167V195Q254 204 237 204Z"  />
<glyph unicode="&#xB7;" horiz-adv-x="274" d="M90 240Q80 240 80 250V352Q80 362 90 362H185Q195 362 195 352V250Q195 240 185 240H90Z"  />
<glyph unicode="&#xB8;" horiz-adv-x="500" d="M243 -27Q241 -38 240 -45T238 -60Q238 -68 248 -68Q291 -68 315 -83T339 -144Q339 -197 306 -218T192 -240Q181 -240 173 -238T164 -229L159 -201Q159 -195 161 -194T170 -192H194Q232 -192 251 -183T271 -148Q271 -125 258 -117T210 -108H188Q181 -108 181 -102L204 35H257L243 -27Z"  />
<glyph unicode="&#xB9;" horiz-adv-x="350" d="M136 855Q139 856 142 856T149 856H217Q223 856 223 850V502Q223 498 227 498H299Q305 498 305 492V434Q305 428 299 428H57Q51 428 51 434V492Q51 498 57 498H138Q142 498 142 502V783Q140 786 138 786L51 767Q44 767 44 773V830Q44 835 51 837L136 855Z"  />
<glyph unicode="&#xBA;" horiz-adv-x="411" d="M284 486Q284 526 280 551T265 591T241 610T206 615Q183 615 168 610T144 590T130 551T126 486Q126 444 131 419T146 379T171 359T206 354Q227 354 242 359T266 378T279 418T284 486ZM43 480Q43 535 53 573T83 635T134 669T206 680Q289 680 328 636T367 492Q367 432 356 393T323 331T273 299T206 290Q169 290 139 299T88 330T55 388T43 480Z"  />
<glyph unicode="&#xBB;" horiz-adv-x="520" d="M455 237Q455 231 452 227T445 218L269 47Q262 41 259 43T255 53V111Q255 117 257 120T264 130L386 262Q389 266 389 272Q389 277 386 282L264 414Q259 420 257 423T255 433V491Q255 498 258 500T269 497L445 326Q449 322 452 318T455 307V237ZM265 237Q265 231 262 227T255 218L79 47Q72 41 69 43T65 53V111Q65 117 67 120T74 130L196 262Q199 266 199 272Q199 277 196 282L74 414Q69 420 67 423T65 433V491Q65 498 68 500T79 497L255 326Q259 322 262 318T265 307V237Z"  />
<glyph unicode="&#xBC;" horiz-adv-x="880" d="M136 679Q139 680 142 680T149 680H217Q223 680 223 674V326Q223 322 227 322H299Q305 322 305 316V258Q305 252 299 252H57Q51 252 51 258V316Q51 322 57 322H138Q142 322 142 326V607Q140 610 138 610L51 591Q44 591 44 597V654Q44 659 51 661L136 679ZM549 154Q549 162 551 171T563 206T597 282T664 422Q666 428 672 428H738Q745 428 745 421Q680 295 652 235T623 164Q623 159 627 159H726Q729 159 729 163V287Q729 294 736 294H802Q808 294 808 287V163Q808 159 812 159H854Q860 159 860 152V98Q860 92 854 92H812Q808 92 808 88V6Q808 0 802 0H736Q729 0 729 6V88Q729 92 726 92H555Q549 92 549 98V154ZM537 691Q541 701 547 701H610Q618 701 616 691L328 -40Q324 -50 318 -50H257Q249 -50 251 -40L537 691Z"  />
<glyph unicode="&#xBD;" horiz-adv-x="880" d="M568 60Q568 86 574 106T593 144T628 180T682 220Q704 235 719 247T742 269T753 291T757 317Q757 346 741 355T686 365Q666 365 637 362T592 354Q586 354 586 360L581 417Q581 421 587 423Q608 428 636 431T691 435Q724 435 751 431T799 416T830 383T841 328Q841 303 837 284T821 247T792 214T746 180Q714 159 695 145T666 119T653 97T650 74Q650 69 657 69H833Q840 69 840 63V6Q840 0 833 0H577Q568 0 568 6V60ZM537 691Q541 701 547 701H610Q618 701 616 691L328 -40Q324 -50 318 -50H257Q249 -50 251 -40L537 691ZM136 679Q139 680 142 680T149 680H217Q223 680 223 674V326Q223 322 227 322H299Q305 322 305 316V258Q305 252 299 252H57Q51 252 51 258V316Q51 322 57 322H138Q142 322 142 326V607Q140 610 138 610L51 591Q44 591 44 597V654Q44 659 51 661L136 679Z"  />
<glyph unicode="&#xBE;" horiz-adv-x="880" d="M549 154Q549 162 551 171T563 206T597 282T664 422Q666 428 672 428H738Q745 428 745 421Q680 295 652 235T623 164Q623 159 627 159H726Q729 159 729 163V287Q729 294 736 294H802Q808 294 808 287V163Q808 159 812 159H854Q860 159 860 152V98Q860 92 854 92H812Q808 92 808 88V6Q808 0 802 0H736Q729 0 729 6V88Q729 92 726 92H555Q549 92 549 98V154ZM177 507Q176 506 175 505T174 501Q174 497 177 497Q249 496 280 465T311 381Q311 339 298 313T263 271T209 251T142 246Q122 246 96 248T44 257Q38 257 38 263L43 316Q43 322 49 322Q69 318 93 316T131 314Q154 314 171 316T200 326T217 348T223 385Q223 420 198 433T105 446H77Q70 446 70 451V494Q70 498 77 505Q102 523 124 541T163 573T190 598T200 610Q200 614 196 614H46Q41 614 41 620V674Q41 680 47 680H297Q303 680 303 676V619Q303 617 302 614T295 606Q275 585 245 561T177 507ZM537 691Q541 701 547 701H610Q618 701 616 691L328 -40Q324 -50 318 -50H257Q249 -50 251 -40L537 691Z"  />
<glyph unicode="&#xBF;" horiz-adv-x="403" d="M346 -59Q355 -57 355 -70L363 -121Q363 -132 353 -132Q327 -140 285 -147T201 -155Q154 -155 120 -150T65 -128T33 -83T23 -6Q23 33 31 58T54 102T93 135T147 167Q171 180 183 193T202 223T209 262T210 317Q210 328 211 331T217 335H273Q281 335 281 312Q281 275 280 247T271 196T251 156T216 126Q181 105 161 91T129 63T114 34T110 -4Q110 -23 114 -37T128 -60T158 -73T208 -78Q231 -78 265 -75T346 -59ZM292 535Q302 535 302 525V423Q302 413 292 413H197Q187 413 187 423V525Q187 535 197 535H292Z"  />
<glyph unicode="&#xC0;" horiz-adv-x="556" d="M395 177Q394 184 387 184H164Q155 184 154 177L110 10Q106 0 97 0H18Q8 0 11 10Q18 40 32 91T63 205T100 335T138 466T172 583T199 670Q202 680 211 680H353Q362 680 365 670Q376 633 392 576T426 452T463 317T498 187T527 79T545 10Q548 0 538 0H449Q438 0 436 10L395 177ZM370 260Q377 260 377 267Q372 289 363 329T342 417T318 511T297 593Q296 599 279 599Q262 599 261 593Q251 558 239 511T214 417T192 330T177 267Q177 260 184 260H370ZM326 742Q313 742 305 743T288 753L136 888Q132 890 132 897T144 904H230Q235 904 240 901T249 894L367 752Q370 749 368 746T361 742H326Z"  />
<glyph unicode="&#xC1;" horiz-adv-x="556" d="M395 177Q394 184 387 184H164Q155 184 154 177L110 10Q106 0 97 0H18Q8 0 11 10Q18 40 32 91T63 205T100 335T138 466T172 583T199 670Q202 680 211 680H353Q362 680 365 670Q376 633 392 576T426 452T463 317T498 187T527 79T545 10Q548 0 538 0H449Q438 0 436 10L395 177ZM370 260Q377 260 377 267Q372 289 363 329T342 417T318 511T297 593Q296 599 279 599Q262 599 261 593Q251 558 239 511T214 417T192 330T177 267Q177 260 184 260H370ZM217 742Q212 742 210 745T211 752L329 894Q333 898 338 901T348 904H434Q446 904 446 897T442 888L290 753Q281 745 273 744T252 742H217Z"  />
<glyph unicode="&#xC2;" horiz-adv-x="556" d="M395 177Q394 184 387 184H164Q155 184 154 177L110 10Q106 0 97 0H18Q8 0 11 10Q18 40 32 91T63 205T100 335T138 466T172 583T199 670Q202 680 211 680H353Q362 680 365 670Q376 633 392 576T426 452T463 317T498 187T527 79T545 10Q548 0 538 0H449Q438 0 436 10L395 177ZM370 260Q377 260 377 267Q372 289 363 329T342 417T318 511T297 593Q296 599 279 599Q262 599 261 593Q251 558 239 511T214 417T192 330T177 267Q177 260 184 260H370ZM403 742Q386 742 378 743T361 756L290 825Q285 828 280 828Q272 828 268 825L195 756Q185 746 178 744T153 742H123Q113 742 113 752L233 894Q240 904 248 904H309Q317 904 324 894L444 752Q444 742 434 742H403Z"  />
<glyph unicode="&#xC3;" horiz-adv-x="556" d="M395 177Q394 184 387 184H164Q155 184 154 177L110 10Q106 0 97 0H18Q8 0 11 10Q18 40 32 91T63 205T100 335T138 466T172 583T199 670Q202 680 211 680H353Q362 680 365 670Q376 633 392 576T426 452T463 317T498 187T527 79T545 10Q548 0 538 0H449Q438 0 436 10L395 177ZM370 260Q377 260 377 267Q372 289 363 329T342 417T318 511T297 593Q296 599 279 599Q262 599 261 593Q251 558 239 511T214 417T192 330T177 267Q177 260 184 260H370ZM293 835Q330 810 347 810Q363 810 370 822T379 860Q379 864 386 864H431Q438 864 438 855Q438 835 433 816T417 781T390 755T351 745Q329 745 311 751T266 776Q246 790 236 794T214 799Q199 799 191 789T180 753Q180 751 178 748T173 745H127Q120 745 120 754Q120 801 145 832T210 864Q222 864 232 863T251 858T270 850T293 835Z"  />
<glyph unicode="&#xC4;" horiz-adv-x="556" d="M395 177Q394 184 387 184H164Q155 184 154 177L110 10Q106 0 97 0H18Q8 0 11 10Q18 40 32 91T63 205T100 335T138 466T172 583T199 670Q202 680 211 680H353Q362 680 365 670Q376 633 392 576T426 452T463 317T498 187T527 79T545 10Q548 0 538 0H449Q438 0 436 10L395 177ZM370 260Q377 260 377 267Q372 289 363 329T342 417T318 511T297 593Q296 599 279 599Q262 599 261 593Q251 558 239 511T214 417T192 330T177 267Q177 260 184 260H370ZM147 758Q137 758 137 768V841Q137 851 147 851H220Q230 851 230 841V768Q230 758 220 758H147ZM340 758Q330 758 330 768V841Q330 851 340 851H413Q423 851 423 841V768Q423 758 413 758H340Z"  />
<glyph unicode="&#xC5;" horiz-adv-x="556" d="M395 177Q394 184 387 184H164Q155 184 154 177L110 10Q106 0 97 0H18Q8 0 11 10Q18 40 32 91T63 205T100 335T138 466T172 583T199 670Q202 680 211 680H353Q362 680 365 670Q376 633 392 576T426 452T463 317T498 187T527 79T545 10Q548 0 538 0H449Q438 0 436 10L395 177ZM370 260Q377 260 377 267Q372 289 363 329T342 417T318 511T297 593Q296 599 279 599Q262 599 261 593Q251 558 239 511T214 417T192 330T177 267Q177 260 184 260H370ZM344 839Q344 878 328 890T281 902Q246 902 231 890T215 839Q215 797 232 784T281 771Q314 771 329 784T344 839ZM158 832Q158 899 189 925T281 951Q340 951 371 926T403 843Q403 806 394 783T368 746T329 727T281 722Q256 722 234 727T195 744T168 778T158 832Z"  />
<glyph unicode="&#xC6;" horiz-adv-x="745" d="M377 177Q376 184 370 184H160Q151 184 150 177L98 10Q93 0 84 0H5Q-5 0 0 10Q8 40 24 91T61 205T103 335T147 466T187 583T218 670Q223 680 231 680H677Q687 680 687 670V608Q687 598 677 598H404Q398 598 400 592L433 395Q436 389 440 389H664Q674 389 674 379V323Q674 313 664 313H453Q447 313 449 307L485 88Q486 82 492 82H695Q705 82 705 72V10Q705 0 695 0H414Q405 0 404 10L377 177ZM360 260Q365 260 365 267Q362 289 356 329T342 417T327 511T313 593Q312 599 295 599Q278 599 277 593Q265 558 251 511T222 417T195 330T177 267Q177 260 184 260H360Z"  />
<glyph unicode="&#xC7;" horiz-adv-x="488" d="M441 7Q421 1 393 -3T335 -9Q332 -10 329 -11T324 -17Q321 -26 318 -39T315 -59Q315 -65 317 -66T326 -68Q369 -68 393 -83T417 -144Q417 -197 384 -218T270 -240Q259 -240 251 -238T242 -229L237 -201Q237 -195 239 -194T248 -192H272Q310 -192 329 -183T349 -148Q349 -125 336 -117T288 -108H266Q259 -108 259 -102L274 -13Q273 -12 273 -10Q272 -9 272 -8T270 -7Q212 -1 173 24T109 93T75 197T64 335Q64 417 76 482T118 594T194 665T311 690Q355 690 387 685T438 673Q441 671 442 670T443 664L439 598Q439 596 437 594T431 593Q413 600 383 605T322 610Q272 610 241 595T193 546T170 461T164 334Q164 265 170 215T193 133T241 85T322 70Q348 70 377 74T426 83Q430 84 434 84T439 79L445 18Q447 9 441 7Z"  />
<glyph unicode="&#xC8;" horiz-adv-x="492" d="M87 670Q87 680 97 680H424Q434 680 434 670V608Q434 598 424 598H191Q185 598 185 592V395Q185 389 191 389H411Q421 389 421 379V323Q421 313 411 313H191Q185 313 185 307V88Q185 82 191 82H442Q452 82 452 72V10Q452 0 442 0H97Q87 0 87 10V670ZM304 742Q291 742 283 743T266 753L114 888Q110 890 110 897T122 904H208Q213 904 218 901T227 894L345 752Q348 749 346 746T339 742H304Z"  />
<glyph unicode="&#xC9;" horiz-adv-x="492" d="M87 670Q87 680 97 680H424Q434 680 434 670V608Q434 598 424 598H191Q185 598 185 592V395Q185 389 191 389H411Q421 389 421 379V323Q421 313 411 313H191Q185 313 185 307V88Q185 82 191 82H442Q452 82 452 72V10Q452 0 442 0H97Q87 0 87 10V670ZM227 742Q222 742 220 745T221 752L339 894Q343 898 348 901T358 904H444Q456 904 456 897T452 888L300 753Q291 745 283 744T262 742H227Z"  />
<glyph unicode="&#xCA;" horiz-adv-x="492" d="M87 670Q87 680 97 680H424Q434 680 434 670V608Q434 598 424 598H191Q185 598 185 592V395Q185 389 191 389H411Q421 389 421 379V323Q421 313 411 313H191Q185 313 185 307V88Q185 82 191 82H442Q452 82 452 72V10Q452 0 442 0H97Q87 0 87 10V670ZM392 742Q375 742 367 743T350 756L279 825Q274 828 269 828Q261 828 257 825L184 756Q174 746 167 744T142 742H112Q102 742 102 752L222 894Q229 904 237 904H298Q306 904 313 894L433 752Q433 742 423 742H392Z"  />
<glyph unicode="&#xCB;" horiz-adv-x="492" d="M87 670Q87 680 97 680H424Q434 680 434 670V608Q434 598 424 598H191Q185 598 185 592V395Q185 389 191 389H411Q421 389 421 379V323Q421 313 411 313H191Q185 313 185 307V88Q185 82 191 82H442Q452 82 452 72V10Q452 0 442 0H97Q87 0 87 10V670ZM141 758Q131 758 131 768V841Q131 851 141 851H214Q224 851 224 841V768Q224 758 214 758H141ZM334 758Q324 758 324 768V841Q324 851 334 851H407Q417 851 417 841V768Q417 758 407 758H334Z"  />
<glyph unicode="&#xCC;" horiz-adv-x="272" d="M97 0Q87 0 87 10V670Q87 680 97 680H175Q185 680 185 670V10Q185 0 175 0H97ZM167 742Q154 742 146 743T129 753L-23 888Q-27 890 -27 897T-15 904H71Q76 904 81 901T90 894L208 752Q211 749 209 746T202 742H167Z"  />
<glyph unicode="&#xCD;" horiz-adv-x="272" d="M97 0Q87 0 87 10V670Q87 680 97 680H175Q185 680 185 670V10Q185 0 175 0H97ZM87 742Q82 742 80 745T81 752L199 894Q203 898 208 901T218 904H304Q316 904 316 897T312 888L160 753Q151 745 143 744T122 742H87Z"  />
<glyph unicode="&#xCE;" horiz-adv-x="272" d="M97 0Q87 0 87 10V670Q87 680 97 680H175Q185 680 185 670V10Q185 0 175 0H97ZM260 742Q243 742 235 743T218 756L147 825Q142 828 137 828Q129 828 125 825L52 756Q42 746 35 744T10 742H-20Q-30 742 -30 752L90 894Q97 904 105 904H166Q174 904 181 894L301 752Q301 742 291 742H260Z"  />
<glyph unicode="&#xCF;" horiz-adv-x="272" d="M97 0Q87 0 87 10V670Q87 680 97 680H175Q185 680 185 670V10Q185 0 175 0H97ZM5 758Q-5 758 -5 768V841Q-5 851 5 851H78Q88 851 88 841V768Q88 758 78 758H5ZM198 758Q188 758 188 768V841Q188 851 198 851H271Q281 851 281 841V768Q281 758 271 758H198Z"  />
<glyph unicode="&#xD0;" horiz-adv-x="638" d="M344 680Q416 680 460 648T529 567T563 457T572 340Q572 284 563 224T530 114T461 32T344 0H97Q87 0 87 10V311Q85 316 81 316H22Q12 316 12 326V372Q12 382 22 382H81Q86 382 87 386V670Q87 680 97 680H344ZM472 345Q472 393 466 440T443 524T399 584T328 607H191Q185 607 185 601V388Q185 382 191 382H282Q292 382 292 372V326Q292 316 282 316H191Q185 316 185 310V80Q185 74 190 74H329Q372 74 399 98T443 160T465 246T472 345Z"  />
<glyph unicode="&#xD1;" horiz-adv-x="652" d="M426 0Q419 0 417 3T411 15L198 550Q194 561 191 566T183 571Q178 571 177 568T176 552L181 10Q181 0 171 0H97Q87 0 87 10V670Q87 680 97 680H228Q237 680 242 668L452 141Q457 130 459 128T466 125Q473 125 473 135L469 670Q469 680 479 680H555Q565 680 565 670V10Q565 0 555 0H426ZM356 835Q393 810 410 810Q426 810 433 822T442 860Q442 864 449 864H494Q501 864 501 855Q501 835 496 816T480 781T453 755T414 745Q392 745 374 751T329 776Q309 790 299 794T277 799Q262 799 254 789T243 753Q243 751 241 748T236 745H190Q183 745 183 754Q183 801 208 832T273 864Q285 864 295 863T314 858T333 850T356 835Z"  />
<glyph unicode="&#xD2;" horiz-adv-x="636" d="M166 340Q166 300 168 262T175 192T187 135T205 98Q220 79 245 75T317 70Q366 70 391 74T431 98Q441 111 448 135T460 191T467 262T470 340Q470 380 468 418T461 488T449 545T431 582Q416 601 391 605T319 610Q270 610 245 606T205 582Q195 569 188 545T176 489T169 418T166 340ZM570 340Q570 244 554 168T506 53Q476 15 431 3T317 -10Q248 -10 204 2T130 53Q99 92 83 168T66 340Q66 436 82 512T130 627Q160 665 205 677T319 690Q388 690 432 678T506 627Q537 588 553 512T570 340ZM349 742Q336 742 328 743T311 753L159 888Q155 890 155 897T167 904H253Q258 904 263 901T272 894L390 752Q393 749 391 746T384 742H349Z"  />
<glyph unicode="&#xD3;" horiz-adv-x="636" d="M166 340Q166 300 168 262T175 192T187 135T205 98Q220 79 245 75T317 70Q366 70 391 74T431 98Q441 111 448 135T460 191T467 262T470 340Q470 380 468 418T461 488T449 545T431 582Q416 601 391 605T319 610Q270 610 245 606T205 582Q195 569 188 545T176 489T169 418T166 340ZM570 340Q570 244 554 168T506 53Q476 15 431 3T317 -10Q248 -10 204 2T130 53Q99 92 83 168T66 340Q66 436 82 512T130 627Q160 665 205 677T319 690Q388 690 432 678T506 627Q537 588 553 512T570 340ZM263 742Q258 742 256 745T257 752L375 894Q379 898 384 901T394 904H480Q492 904 492 897T488 888L336 753Q327 745 319 744T298 742H263Z"  />
<glyph unicode="&#xD4;" horiz-adv-x="636" d="M166 340Q166 300 168 262T175 192T187 135T205 98Q220 79 245 75T317 70Q366 70 391 74T431 98Q441 111 448 135T460 191T467 262T470 340Q470 380 468 418T461 488T449 545T431 582Q416 601 391 605T319 610Q270 610 245 606T205 582Q195 569 188 545T176 489T169 418T166 340ZM570 340Q570 244 554 168T506 53Q476 15 431 3T317 -10Q248 -10 204 2T130 53Q99 92 83 168T66 340Q66 436 82 512T130 627Q160 665 205 677T319 690Q388 690 432 678T506 627Q537 588 553 512T570 340ZM439 742Q422 742 414 743T397 756L326 825Q321 828 316 828Q308 828 304 825L231 756Q221 746 214 744T189 742H159Q149 742 149 752L269 894Q276 904 284 904H345Q353 904 360 894L480 752Q480 742 470 742H439Z"  />
<glyph unicode="&#xD5;" horiz-adv-x="636" d="M166 340Q166 300 168 262T175 192T187 135T205 98Q220 79 245 75T317 70Q366 70 391 74T431 98Q441 111 448 135T460 191T467 262T470 340Q470 380 468 418T461 488T449 545T431 582Q416 601 391 605T319 610Q270 610 245 606T205 582Q195 569 188 545T176 489T169 418T166 340ZM570 340Q570 244 554 168T506 53Q476 15 431 3T317 -10Q248 -10 204 2T130 53Q99 92 83 168T66 340Q66 436 82 512T130 627Q160 665 205 677T319 690Q388 690 432 678T506 627Q537 588 553 512T570 340ZM330 835Q367 810 384 810Q400 810 407 822T416 860Q416 864 423 864H468Q475 864 475 855Q475 835 470 816T454 781T427 755T388 745Q366 745 348 751T303 776Q283 790 273 794T251 799Q236 799 228 789T217 753Q217 751 215 748T210 745H164Q157 745 157 754Q157 801 182 832T247 864Q259 864 269 863T288 858T307 850T330 835Z"  />
<glyph unicode="&#xD6;" horiz-adv-x="636" d="M166 340Q166 300 168 262T175 192T187 135T205 98Q220 79 245 75T317 70Q366 70 391 74T431 98Q441 111 448 135T460 191T467 262T470 340Q470 380 468 418T461 488T449 545T431 582Q416 601 391 605T319 610Q270 610 245 606T205 582Q195 569 188 545T176 489T169 418T166 340ZM570 340Q570 244 554 168T506 53Q476 15 431 3T317 -10Q248 -10 204 2T130 53Q99 92 83 168T66 340Q66 436 82 512T130 627Q160 665 205 677T319 690Q388 690 432 678T506 627Q537 588 553 512T570 340ZM183 758Q173 758 173 768V841Q173 851 183 851H256Q266 851 266 841V768Q266 758 256 758H183ZM376 758Q366 758 366 768V841Q366 851 376 851H449Q459 851 459 841V768Q459 758 449 758H376Z"  />
<glyph unicode="&#xD7;" horiz-adv-x="560" d="M471 146Q481 138 471 131L434 94Q427 84 419 94L283 229Q279 233 274 229L139 94Q132 86 124 94L86 131Q79 139 86 146L222 282Q225 287 222 290L86 426Q79 433 86 441L124 479Q132 486 139 479L274 343Q279 340 282 342L419 479Q427 487 434 479L471 441Q481 434 471 426L335 289Q332 286 336 282L471 146Z"  />
<glyph unicode="&#xD8;" horiz-adv-x="636" d="M570 340Q570 244 554 168T506 53Q476 15 431 3T317 -10Q276 -10 245 -7T190 7Q182 8 176 -4L152 -46Q147 -55 136 -55H80Q75 -55 73 -51T74 -41L121 37Q124 42 125 47T125 59Q96 100 81 174T66 340Q66 436 82 512T130 627Q160 665 205 677T319 690Q361 690 392 686T449 671Q457 672 464 683L488 725Q493 734 504 734H560Q565 734 567 730T566 720L517 639Q515 635 513 629T512 618Q540 576 555 504T570 340ZM166 340Q166 300 168 262T175 192T187 135T205 98Q220 79 245 75T317 70Q366 70 391 74T431 98Q441 111 448 135T460 191T467 262T470 340Q470 380 468 418T461 488T449 545T431 582Q416 601 391 605T319 610Q270 610 245 606T205 582Q195 569 188 545T176 489T169 418T166 340Z"  />
<glyph unicode="&#xD9;" horiz-adv-x="625" d="M543 149Q543 74 482 32T312 -10Q188 -10 135 32T82 149V670Q82 680 92 680H170Q180 680 180 670V167Q180 136 191 118T221 89T263 76T312 73Q337 73 360 76T403 89T433 118T445 168V670Q445 680 455 680H533Q543 680 543 670V149ZM346 742Q333 742 325 743T308 753L156 888Q152 890 152 897T164 904H250Q255 904 260 901T269 894L387 752Q390 749 388 746T381 742H346Z"  />
<glyph unicode="&#xDA;" horiz-adv-x="625" d="M543 149Q543 74 482 32T312 -10Q188 -10 135 32T82 149V670Q82 680 92 680H170Q180 680 180 670V167Q180 136 191 118T221 89T263 76T312 73Q337 73 360 76T403 89T433 118T445 168V670Q445 680 455 680H533Q543 680 543 670V149ZM271 742Q266 742 264 745T265 752L383 894Q387 898 392 901T402 904H488Q500 904 500 897T496 888L344 753Q335 745 327 744T306 742H271Z"  />
<glyph unicode="&#xDB;" horiz-adv-x="625" d="M543 149Q543 74 482 32T312 -10Q188 -10 135 32T82 149V670Q82 680 92 680H170Q180 680 180 670V167Q180 136 191 118T221 89T263 76T312 73Q337 73 360 76T403 89T433 118T445 168V670Q445 680 455 680H533Q543 680 543 670V149ZM433 742Q416 742 408 743T391 756L320 825Q315 828 310 828Q302 828 298 825L225 756Q215 746 208 744T183 742H153Q143 742 143 752L263 894Q270 904 278 904H339Q347 904 354 894L474 752Q474 742 464 742H433Z"  />
<glyph unicode="&#xDC;" horiz-adv-x="625" d="M543 149Q543 74 482 32T312 -10Q188 -10 135 32T82 149V670Q82 680 92 680H170Q180 680 180 670V167Q180 136 191 118T221 89T263 76T312 73Q337 73 360 76T403 89T433 118T445 168V670Q445 680 455 680H533Q543 680 543 670V149ZM180 758Q170 758 170 768V841Q170 851 180 851H253Q263 851 263 841V768Q263 758 253 758H180ZM373 758Q363 758 363 768V841Q363 851 373 851H446Q456 851 456 841V768Q456 758 446 758H373Z"  />
<glyph unicode="&#xDD;" horiz-adv-x="528" d="M424 669Q431 680 441 680H518Q525 680 522 670Q507 638 484 595T435 505T386 417T344 345Q323 309 316 294T308 268V10Q308 0 298 0H220Q210 0 210 10V269Q210 275 209 280T204 293T194 312T179 340Q162 370 136 417T84 514T36 606T5 670Q2 680 12 680H96Q106 680 110 669Q122 643 140 604T178 524T216 445T248 382Q253 371 255 368T263 365Q268 365 270 368T279 382Q294 406 314 443T354 522T393 602T424 669ZM227 742Q222 742 220 745T221 752L339 894Q343 898 348 901T358 904H444Q456 904 456 897T452 888L300 753Q291 745 283 744T262 742H227Z"  />
<glyph unicode="&#xDE;" horiz-adv-x="531" d="M252 239Q288 239 314 244T356 265T379 306T387 376Q387 415 380 440T357 480T315 501T252 507H191Q185 507 185 501V245Q185 239 191 239H252ZM271 580Q323 581 363 571T432 537T474 474T488 378Q488 313 471 272T423 206T349 173T254 164H191Q185 164 185 158V10Q185 0 175 0H97Q87 0 87 10V670Q87 680 97 680H175Q185 680 185 670V586Q185 580 191 580H271Z"  />
<glyph unicode="&#xDF;" horiz-adv-x="627" d="M176 10Q176 0 166 0H92Q82 0 82 10V505Q82 570 100 614T150 685T227 723T325 735Q433 735 482 697T531 578Q531 538 513 513T474 468T435 432T417 390Q417 379 419 370T429 350T450 325T487 289Q511 266 529 249T559 215T576 180T582 136Q582 94 572 66T541 21T487 -3T408 -10Q373 -10 336 -8T275 0Q271 1 271 7L275 70Q275 75 281 74Q307 69 337 67T392 64Q425 64 444 66T475 76T489 96T493 131Q493 145 489 157T474 182T447 210T407 248Q383 270 368 287T344 320T332 350T328 383Q328 409 336 427T356 460T383 487T410 512T431 540T439 575Q439 618 413 641T322 665Q244 665 210 628T176 501V10Z"  />
<glyph unicode="&#xE0;" horiz-adv-x="529" d="M237 468Q210 468 178 466T121 459Q116 458 112 458T106 464L99 513Q97 524 105 527Q134 535 171 540T260 545Q354 545 401 508T448 382V22Q448 17 446 14T435 7Q414 0 372 -5T278 -10Q213 -10 170 -3T101 21T65 65T54 134Q54 170 60 198T84 246T135 280T224 300L349 315Q355 316 355 321V372Q355 401 349 419T328 449T292 464T237 468ZM355 238Q355 244 349 244H258Q226 244 206 240T173 225T157 195T152 146Q152 116 156 99T173 72T208 60T269 57Q290 57 312 58T346 63Q352 65 353 66T355 70V238ZM285 610Q272 610 267 612T254 626L139 802Q139 812 149 812H220Q228 812 235 802L322 620Q322 610 312 610H285Z"  />
<glyph unicode="&#xE1;" horiz-adv-x="529" d="M237 468Q210 468 178 466T121 459Q116 458 112 458T106 464L99 513Q97 524 105 527Q134 535 171 540T260 545Q354 545 401 508T448 382V22Q448 17 446 14T435 7Q414 0 372 -5T278 -10Q213 -10 170 -3T101 21T65 65T54 134Q54 170 60 198T84 246T135 280T224 300L349 315Q355 316 355 321V372Q355 401 349 419T328 449T292 464T237 468ZM355 238Q355 244 349 244H258Q226 244 206 240T173 225T157 195T152 146Q152 116 156 99T173 72T208 60T269 57Q290 57 312 58T346 63Q352 65 353 66T355 70V238ZM226 610Q216 610 216 620L301 802Q308 812 316 812H387Q397 812 397 802L280 626Q273 615 268 613T249 610H226Z"  />
<glyph unicode="&#xE2;" horiz-adv-x="529" d="M237 468Q210 468 178 466T121 459Q116 458 112 458T106 464L99 513Q97 524 105 527Q134 535 171 540T260 545Q354 545 401 508T448 382V22Q448 17 446 14T435 7Q414 0 372 -5T278 -10Q213 -10 170 -3T101 21T65 65T54 134Q54 170 60 198T84 246T135 280T224 300L349 315Q355 316 355 321V372Q355 401 349 419T328 449T292 464T237 468ZM355 238Q355 244 349 244H258Q226 244 206 240T173 225T157 195T152 146Q152 116 156 99T173 72T208 60T269 57Q290 57 312 58T346 63Q352 65 353 66T355 70V238ZM403 614Q390 614 384 616T370 628L286 729Q281 732 276 732Q268 732 264 729L178 628Q170 619 165 617T149 614H119Q109 614 109 624L229 796Q236 806 244 806H305Q313 806 320 796L440 624Q440 614 430 614H403Z"  />
<glyph unicode="&#xE3;" horiz-adv-x="529" d="M237 468Q210 468 178 466T121 459Q116 458 112 458T106 464L99 513Q97 524 105 527Q134 535 171 540T260 545Q354 545 401 508T448 382V22Q448 17 446 14T435 7Q414 0 372 -5T278 -10Q213 -10 170 -3T101 21T65 65T54 134Q54 170 60 198T84 246T135 280T224 300L349 315Q355 316 355 321V372Q355 401 349 419T328 449T292 464T237 468ZM355 238Q355 244 349 244H258Q226 244 206 240T173 225T157 195T152 146Q152 116 156 99T173 72T208 60T269 57Q290 57 312 58T346 63Q352 65 353 66T355 70V238ZM298 715Q335 690 352 690Q368 690 375 702T384 740Q384 744 391 744H436Q443 744 443 735Q443 715 438 696T422 661T395 635T356 625Q334 625 316 631T271 656Q251 670 241 674T219 679Q204 679 196 669T185 633Q185 631 183 628T178 625H132Q125 625 125 634Q125 681 150 712T215 744Q227 744 237 743T256 738T275 730T298 715Z"  />
<glyph unicode="&#xE4;" horiz-adv-x="529" d="M237 468Q210 468 178 466T121 459Q116 458 112 458T106 464L99 513Q97 524 105 527Q134 535 171 540T260 545Q354 545 401 508T448 382V22Q448 17 446 14T435 7Q414 0 372 -5T278 -10Q213 -10 170 -3T101 21T65 65T54 134Q54 170 60 198T84 246T135 280T224 300L349 315Q355 316 355 321V372Q355 401 349 419T328 449T292 464T237 468ZM355 238Q355 244 349 244H258Q226 244 206 240T173 225T157 195T152 146Q152 116 156 99T173 72T208 60T269 57Q290 57 312 58T346 63Q352 65 353 66T355 70V238ZM152 640Q142 640 142 650V723Q142 733 152 733H225Q235 733 235 723V650Q235 640 225 640H152ZM345 640Q335 640 335 650V723Q335 733 345 733H418Q428 733 428 723V650Q428 640 418 640H345Z"  />
<glyph unicode="&#xE5;" horiz-adv-x="529" d="M237 468Q210 468 178 466T121 459Q116 458 112 458T106 464L99 513Q97 524 105 527Q134 535 171 540T260 545Q354 545 401 508T448 382V22Q448 17 446 14T435 7Q414 0 372 -5T278 -10Q213 -10 170 -3T101 21T65 65T54 134Q54 170 60 198T84 246T135 280T224 300L349 315Q355 316 355 321V372Q355 401 349 419T328 449T292 464T237 468ZM355 238Q355 244 349 244H258Q226 244 206 240T173 225T157 195T152 146Q152 116 156 99T173 72T208 60T269 57Q290 57 312 58T346 63Q352 65 353 66T355 70V238ZM340 719Q340 758 324 770T277 782Q242 782 227 770T211 719Q211 677 228 664T277 651Q310 651 325 664T340 719ZM154 712Q154 779 185 805T277 831Q336 831 367 806T399 723Q399 686 390 663T364 626T325 607T277 602Q252 602 230 607T191 624T164 658T154 712Z"  />
<glyph unicode="&#xE6;" horiz-adv-x="814" d="M575 -10Q526 -10 485 2T406 46Q404 48 402 48T397 48Q392 48 389 46Q361 24 327 7T237 -10Q187 -10 152 -3T95 21T64 65T54 134Q54 170 60 197T84 245T135 279T224 300L339 315Q345 316 345 321V372Q345 401 340 420T323 450T290 465T236 469Q209 469 177 467T121 460Q116 459 112 459T106 465L99 513Q97 524 105 527Q134 535 171 540T259 545Q313 545 347 533T401 495Q405 491 409 491Q414 491 419 496Q443 520 474 532T554 545Q616 545 655 528T715 479T744 406T752 313V284Q752 255 746 246T726 237H440Q434 237 434 230Q434 180 444 148T474 96T525 70T595 63Q630 63 663 71T719 89Q724 91 728 90T734 84L738 33Q739 24 731 20Q699 5 661 -2T575 -10ZM345 238Q345 244 339 244H257Q225 244 205 240T173 225T157 195T152 146Q152 116 157 98T173 71T203 59T248 56Q299 56 322 72T345 118V238ZM652 306Q659 306 661 311T664 342Q664 409 642 441T554 474Q516 474 493 462T456 429T439 378T434 313Q434 306 440 306H652Z"  />
<glyph unicode="&#xE7;" horiz-adv-x="416" d="M379 4Q359 -2 332 -6T275 -10Q267 -10 265 -17Q262 -26 259 -39T256 -59Q256 -65 258 -66T267 -68Q310 -68 334 -83T358 -144Q358 -197 325 -218T211 -240Q200 -240 192 -238T183 -229L178 -201Q178 -195 180 -194T189 -192H213Q251 -192 270 -183T290 -148Q290 -125 277 -117T229 -108H207Q200 -108 200 -102L215 -13Q215 -7 212 -4Q171 5 143 26T96 81T70 161T62 264Q62 329 73 381T109 469T175 525T275 545Q310 545 336 541T377 531Q381 530 381 524L377 464Q377 457 371 460Q357 465 333 469T285 473Q249 473 226 462T188 427T168 362T162 263Q162 208 168 170T188 109T226 75T285 64Q306 64 329 67T367 74Q370 75 373 75T377 71L383 12Q384 6 379 4Z"  />
<glyph unicode="&#xE8;" horiz-adv-x="552" d="M161 313Q161 306 167 306H389Q396 306 398 311T401 341Q401 408 377 440T287 473Q249 473 225 461T186 428T167 377T161 313ZM469 19Q403 -10 308 -10Q233 -10 186 12T111 71T73 160T62 268Q62 327 73 378T111 466T181 524T287 545Q349 545 388 528T450 479T481 406T490 313V285Q490 255 484 246T464 236H167Q161 236 161 229Q161 179 172 147T204 97T257 71T328 64Q363 64 398 72T457 90Q459 90 460 90T462 91Q469 91 472 85L476 32V29Q476 22 469 19ZM282 610Q269 610 264 612T251 626L136 802Q136 812 146 812H217Q225 812 232 802L319 620Q319 610 309 610H282Z"  />
<glyph unicode="&#xE9;" horiz-adv-x="552" d="M161 313Q161 306 167 306H389Q396 306 398 311T401 341Q401 408 377 440T287 473Q249 473 225 461T186 428T167 377T161 313ZM469 19Q403 -10 308 -10Q233 -10 186 12T111 71T73 160T62 268Q62 327 73 378T111 466T181 524T287 545Q349 545 388 528T450 479T481 406T490 313V285Q490 255 484 246T464 236H167Q161 236 161 229Q161 179 172 147T204 97T257 71T328 64Q363 64 398 72T457 90Q459 90 460 90T462 91Q469 91 472 85L476 32V29Q476 22 469 19ZM251 610Q241 610 241 620L326 802Q333 812 341 812H412Q422 812 422 802L305 626Q298 615 293 613T274 610H251Z"  />
<glyph unicode="&#xEA;" horiz-adv-x="552" d="M161 313Q161 306 167 306H389Q396 306 398 311T401 341Q401 408 377 440T287 473Q249 473 225 461T186 428T167 377T161 313ZM469 19Q403 -10 308 -10Q233 -10 186 12T111 71T73 160T62 268Q62 327 73 378T111 466T181 524T287 545Q349 545 388 528T450 479T481 406T490 313V285Q490 255 484 246T464 236H167Q161 236 161 229Q161 179 172 147T204 97T257 71T328 64Q363 64 398 72T457 90Q459 90 460 90T462 91Q469 91 472 85L476 32V29Q476 22 469 19ZM409 614Q396 614 390 616T376 628L292 729Q287 732 282 732Q274 732 270 729L184 628Q176 619 171 617T155 614H125Q115 614 115 624L235 796Q242 806 250 806H311Q319 806 326 796L446 624Q446 614 436 614H409Z"  />
<glyph unicode="&#xEB;" horiz-adv-x="552" d="M161 313Q161 306 167 306H389Q396 306 398 311T401 341Q401 408 377 440T287 473Q249 473 225 461T186 428T167 377T161 313ZM469 19Q403 -10 308 -10Q233 -10 186 12T111 71T73 160T62 268Q62 327 73 378T111 466T181 524T287 545Q349 545 388 528T450 479T481 406T490 313V285Q490 255 484 246T464 236H167Q161 236 161 229Q161 179 172 147T204 97T257 71T328 64Q363 64 398 72T457 90Q459 90 460 90T462 91Q469 91 472 85L476 32V29Q476 22 469 19ZM142 640Q132 640 132 650V723Q132 733 142 733H215Q225 733 225 723V650Q225 640 215 640H142ZM335 640Q325 640 325 650V723Q325 733 335 733H408Q418 733 418 723V650Q418 640 408 640H335Z"  />
<glyph unicode="&#xEC;" horiz-adv-x="269" d="M96 0Q86 0 86 10V525Q86 535 96 535H172Q182 535 182 525V10Q182 0 172 0H96ZM156 610Q143 610 138 612T125 626L10 802Q10 812 20 812H91Q99 812 106 802L193 620Q193 610 183 610H156Z"  />
<glyph unicode="&#xED;" horiz-adv-x="269" d="M96 0Q86 0 86 10V525Q86 535 96 535H172Q182 535 182 525V10Q182 0 172 0H96ZM91 610Q81 610 81 620L166 802Q173 812 181 812H252Q262 812 262 802L145 626Q138 615 133 613T114 610H91Z"  />
<glyph unicode="&#xEE;" horiz-adv-x="269" d="M96 0Q86 0 86 10V525Q86 535 96 535H172Q182 535 182 525V10Q182 0 172 0H96ZM266 614Q253 614 247 616T233 628L149 729Q144 732 139 732Q131 732 127 729L41 628Q33 619 28 617T12 614H-18Q-28 614 -28 624L92 796Q99 806 107 806H168Q176 806 183 796L303 624Q303 614 293 614H266Z"  />
<glyph unicode="&#xEF;" horiz-adv-x="269" d="M96 0Q86 0 86 10V525Q86 535 96 535H172Q182 535 182 525V10Q182 0 172 0H96ZM5 640Q-5 640 -5 650V723Q-5 733 5 733H78Q88 733 88 723V650Q88 640 78 640H5ZM198 640Q188 640 188 650V723Q188 733 198 733H271Q281 733 281 723V650Q281 640 271 640H198Z"  />
<glyph unicode="&#xF0;" horiz-adv-x="569" d="M156 564Q144 561 144 568V621Q144 626 153 629L253 653Q258 654 260 657T261 663Q235 689 217 705T198 726Q198 735 208 735H279Q295 735 304 727Q327 705 348 680Q353 677 359 679L453 704Q465 707 465 700V650Q465 642 458 641L401 627Q396 624 397 620T400 614Q451 539 479 449T507 260Q507 189 496 138T458 53T389 3T283 -13Q217 -13 175 3T107 51T72 133T62 250Q62 304 70 352T100 436T159 493T255 514Q290 514 317 508T359 501Q367 501 367 508Q367 513 365 517Q357 538 345 559T316 600Q313 603 304 602L156 564ZM158 240Q158 186 163 151T183 94T221 65T283 56Q318 56 342 64T382 93T404 152T411 246Q411 298 406 336T387 398T348 434T283 446Q248 446 224 436T186 401T165 338T158 240Z"  />
<glyph unicode="&#xF1;" horiz-adv-x="567" d="M406 0Q396 0 396 10V354Q396 389 392 412T374 448T338 466T276 471Q223 471 188 463Q178 460 178 452V10Q178 0 168 0H92Q82 0 82 10V514Q82 522 92 524Q112 528 136 531T185 538T233 543T276 545Q342 545 384 537T450 508T483 452T492 361V10Q492 0 482 0H406ZM302 715Q339 690 356 690Q372 690 379 702T388 740Q388 744 395 744H440Q447 744 447 735Q447 715 442 696T426 661T399 635T360 625Q338 625 320 631T275 656Q255 670 245 674T223 679Q208 679 200 669T189 633Q189 631 187 628T182 625H136Q129 625 129 634Q129 681 154 712T219 744Q231 744 241 743T260 738T279 730T302 715Z"  />
<glyph unicode="&#xF2;" horiz-adv-x="573" d="M160 272Q160 241 162 213T169 160T181 118T197 89Q209 76 228 71T286 65Q327 65 346 70T376 89Q385 99 392 117T403 160T410 212T413 272Q413 335 404 381T376 447Q365 460 347 465T288 471Q247 471 228 466T197 447Q178 427 169 381T160 272ZM511 272Q511 197 494 137T450 44Q424 15 385 3T286 -10Q226 -10 189 2T125 44Q98 76 80 136T62 272Q62 348 79 405T125 493Q151 522 190 533T288 545Q348 545 386 534T450 493Q477 461 494 405T511 272ZM302 610Q289 610 284 612T271 626L156 802Q156 812 166 812H237Q245 812 252 802L339 620Q339 610 329 610H302Z"  />
<glyph unicode="&#xF3;" horiz-adv-x="573" d="M160 272Q160 241 162 213T169 160T181 118T197 89Q209 76 228 71T286 65Q327 65 346 70T376 89Q385 99 392 117T403 160T410 212T413 272Q413 335 404 381T376 447Q365 460 347 465T288 471Q247 471 228 466T197 447Q178 427 169 381T160 272ZM511 272Q511 197 494 137T450 44Q424 15 385 3T286 -10Q226 -10 189 2T125 44Q98 76 80 136T62 272Q62 348 79 405T125 493Q151 522 190 533T288 545Q348 545 386 534T450 493Q477 461 494 405T511 272ZM256 610Q246 610 246 620L331 802Q338 812 346 812H417Q427 812 427 802L310 626Q303 615 298 613T279 610H256Z"  />
<glyph unicode="&#xF4;" horiz-adv-x="573" d="M160 272Q160 241 162 213T169 160T181 118T197 89Q209 76 228 71T286 65Q327 65 346 70T376 89Q385 99 392 117T403 160T410 212T413 272Q413 335 404 381T376 447Q365 460 347 465T288 471Q247 471 228 466T197 447Q178 427 169 381T160 272ZM511 272Q511 197 494 137T450 44Q424 15 385 3T286 -10Q226 -10 189 2T125 44Q98 76 80 136T62 272Q62 348 79 405T125 493Q151 522 190 533T288 545Q348 545 386 534T450 493Q477 461 494 405T511 272ZM412 614Q399 614 393 616T379 628L295 729Q290 732 285 732Q277 732 273 729L187 628Q179 619 174 617T158 614H128Q118 614 118 624L238 796Q245 806 253 806H314Q322 806 329 796L449 624Q449 614 439 614H412Z"  />
<glyph unicode="&#xF5;" horiz-adv-x="573" d="M160 272Q160 241 162 213T169 160T181 118T197 89Q209 76 228 71T286 65Q327 65 346 70T376 89Q385 99 392 117T403 160T410 212T413 272Q413 335 404 381T376 447Q365 460 347 465T288 471Q247 471 228 466T197 447Q178 427 169 381T160 272ZM511 272Q511 197 494 137T450 44Q424 15 385 3T286 -10Q226 -10 189 2T125 44Q98 76 80 136T62 272Q62 348 79 405T125 493Q151 522 190 533T288 545Q348 545 386 534T450 493Q477 461 494 405T511 272ZM301 715Q338 690 355 690Q371 690 378 702T387 740Q387 744 394 744H439Q446 744 446 735Q446 715 441 696T425 661T398 635T359 625Q337 625 319 631T274 656Q254 670 244 674T222 679Q207 679 199 669T188 633Q188 631 186 628T181 625H135Q128 625 128 634Q128 681 153 712T218 744Q230 744 240 743T259 738T278 730T301 715Z"  />
<glyph unicode="&#xF6;" horiz-adv-x="573" d="M160 272Q160 241 162 213T169 160T181 118T197 89Q209 76 228 71T286 65Q327 65 346 70T376 89Q385 99 392 117T403 160T410 212T413 272Q413 335 404 381T376 447Q365 460 347 465T288 471Q247 471 228 466T197 447Q178 427 169 381T160 272ZM511 272Q511 197 494 137T450 44Q424 15 385 3T286 -10Q226 -10 189 2T125 44Q98 76 80 136T62 272Q62 348 79 405T125 493Q151 522 190 533T288 545Q348 545 386 534T450 493Q477 461 494 405T511 272ZM151 640Q141 640 141 650V723Q141 733 151 733H224Q234 733 234 723V650Q234 640 224 640H151ZM344 640Q334 640 334 650V723Q334 733 344 733H417Q427 733 427 723V650Q427 640 417 640H344Z"  />
<glyph unicode="&#xF7;" horiz-adv-x="560" d="M71 238Q60 238 60 249V299Q60 310 71 310H489Q500 310 500 299V249Q500 238 489 238H71ZM238 393Q227 393 227 404V483Q227 494 238 494H320Q331 494 331 483V404Q331 393 320 393H238ZM238 51Q227 51 227 62V141Q227 152 238 152H320Q331 152 331 141V62Q331 51 320 51H238Z"  />
<glyph unicode="&#xF8;" horiz-adv-x="573" d="M511 272Q511 197 494 137T450 44Q424 15 385 3T286 -10Q225 -10 187 3Q180 2 177 0T170 -9L149 -46Q144 -55 133 -55H77Q72 -55 70 -51T71 -41L115 32Q117 36 119 41T119 52Q93 85 78 142T62 272Q62 348 79 405T125 493Q151 522 190 533T288 545Q350 545 392 531Q399 531 402 533T410 543L434 582Q439 591 450 591H506Q511 591 513 587T512 577L464 500Q462 496 460 491T459 481Q482 448 496 395T511 272ZM160 272Q160 241 162 213T169 160T181 118T197 89Q209 76 228 71T286 65Q327 65 346 70T376 89Q385 99 392 117T403 160T410 212T413 272Q413 335 404 381T376 447Q365 460 347 465T288 471Q247 471 228 466T197 447Q178 427 169 381T160 272Z"  />
<glyph unicode="&#xF9;" horiz-adv-x="567" d="M161 535Q171 535 171 525V188Q171 153 176 130T196 92T234 73T296 67Q319 67 340 69T379 75Q389 78 389 86V525Q389 535 399 535H475Q485 535 485 525V21Q485 13 475 11Q455 7 432 3T384 -4T338 -8T297 -10Q231 -10 188 -1T120 29T85 87T75 178V525Q75 535 85 535H161ZM284 610Q271 610 266 612T253 626L138 802Q138 812 148 812H219Q227 812 234 802L321 620Q321 610 311 610H284Z"  />
<glyph unicode="&#xFA;" horiz-adv-x="567" d="M161 535Q171 535 171 525V188Q171 153 176 130T196 92T234 73T296 67Q319 67 340 69T379 75Q389 78 389 86V525Q389 535 399 535H475Q485 535 485 525V21Q485 13 475 11Q455 7 432 3T384 -4T338 -8T297 -10Q231 -10 188 -1T120 29T85 87T75 178V525Q75 535 85 535H161ZM252 610Q242 610 242 620L327 802Q334 812 342 812H413Q423 812 423 802L306 626Q299 615 294 613T275 610H252Z"  />
<glyph unicode="&#xFB;" horiz-adv-x="567" d="M161 535Q171 535 171 525V188Q171 153 176 130T196 92T234 73T296 67Q319 67 340 69T379 75Q389 78 389 86V525Q389 535 399 535H475Q485 535 485 525V21Q485 13 475 11Q455 7 432 3T384 -4T338 -8T297 -10Q231 -10 188 -1T120 29T85 87T75 178V525Q75 535 85 535H161ZM409 614Q396 614 390 616T376 628L292 729Q287 732 282 732Q274 732 270 729L184 628Q176 619 171 617T155 614H125Q115 614 115 624L235 796Q242 806 250 806H311Q319 806 326 796L446 624Q446 614 436 614H409Z"  />
<glyph unicode="&#xFC;" horiz-adv-x="567" d="M161 535Q171 535 171 525V188Q171 153 176 130T196 92T234 73T296 67Q319 67 340 69T379 75Q389 78 389 86V525Q389 535 399 535H475Q485 535 485 525V21Q485 13 475 11Q455 7 432 3T384 -4T338 -8T297 -10Q231 -10 188 -1T120 29T85 87T75 178V525Q75 535 85 535H161ZM153 640Q143 640 143 650V723Q143 733 153 733H226Q236 733 236 723V650Q236 640 226 640H153ZM346 640Q336 640 336 650V723Q336 733 346 733H419Q429 733 429 723V650Q429 640 419 640H346Z"  />
<glyph unicode="&#xFD;" horiz-adv-x="484" d="M229 7Q229 11 214 11H190Q178 11 173 15T165 24Q154 54 140 98T110 193T80 296T52 394T30 475T18 526Q18 535 27 535H110Q117 535 119 526L135 457Q146 410 158 358T183 257T208 163T231 88Q232 82 245 82Q252 82 255 83T260 89Q272 125 286 180T315 296T344 417T369 526Q370 535 383 535H458Q466 535 466 525Q463 509 454 472T430 385T401 281T369 175T340 79T317 9Q298 -47 279 -83T234 -141T177 -171T100 -180Q73 -180 62 -178T50 -165L48 -125Q49 -117 51 -115T61 -113Q100 -113 126 -110T170 -95T200 -64T225 -11Q228 -3 228 0T229 7ZM219 610Q209 610 209 620L294 802Q301 812 309 812H380Q390 812 390 802L273 626Q266 615 261 613T242 610H219Z"  />
<glyph unicode="&#xFE;" horiz-adv-x="569" d="M180 90Q180 85 188 82T208 76T234 73T261 72Q310 72 339 80T385 112T405 175T410 278Q410 339 403 376T379 433T335 461T265 468Q227 468 204 464T180 445V90ZM86 725Q86 735 96 735H170Q180 735 180 725V542Q180 535 188 535Q192 535 203 536T228 537T256 539T281 540Q344 540 387 528T458 486T496 408T508 288Q508 211 497 156T459 66T383 15T261 -2Q240 -2 219 0T188 3Q180 3 180 -4V-170Q180 -180 170 -180H96Q86 -180 86 -170V725Z"  />
<glyph unicode="&#xFF;" horiz-adv-x="484" d="M229 7Q229 11 214 11H190Q178 11 173 15T165 24Q154 54 140 98T110 193T80 296T52 394T30 475T18 526Q18 535 27 535H110Q117 535 119 526L135 457Q146 410 158 358T183 257T208 163T231 88Q232 82 245 82Q252 82 255 83T260 89Q272 125 286 180T315 296T344 417T369 526Q370 535 383 535H458Q466 535 466 525Q463 509 454 472T430 385T401 281T369 175T340 79T317 9Q298 -47 279 -83T234 -141T177 -171T100 -180Q73 -180 62 -178T50 -165L48 -125Q49 -117 51 -115T61 -113Q100 -113 126 -110T170 -95T200 -64T225 -11Q228 -3 228 0T229 7ZM115 640Q105 640 105 650V723Q105 733 115 733H188Q198 733 198 723V650Q198 640 188 640H115ZM308 640Q298 640 298 650V723Q298 733 308 733H381Q391 733 391 723V650Q391 640 381 640H308Z"  />
<glyph unicode="&#x110;" horiz-adv-x="638" d="M344 680Q416 680 460 648T529 567T563 457T572 340Q572 284 563 224T530 114T461 32T344 0H97Q87 0 87 10V311Q85 316 81 316H22Q12 316 12 326V372Q12 382 22 382H81Q86 382 87 386V670Q87 680 97 680H344ZM472 345Q472 393 466 440T443 524T399 584T328 607H191Q185 607 185 601V388Q185 382 191 382H282Q292 382 292 372V326Q292 316 282 316H191Q185 316 185 310V80Q185 74 190 74H329Q372 74 399 98T443 160T465 246T472 345Z"  />
<glyph unicode="&#x131;" horiz-adv-x="269" d="M96 0Q86 0 86 10V525Q86 535 96 535H172Q182 535 182 525V10Q182 0 172 0H96Z"  />
<glyph unicode="&#x152;" horiz-adv-x="830" d="M302 0Q230 0 184 32T112 113T75 223T64 340Q64 396 74 456T111 566T184 648T302 680H762Q772 680 772 670V608Q772 598 762 598H539Q533 598 533 592V395Q533 389 539 389H749Q759 389 759 379V323Q759 313 749 313H539Q533 313 533 307V88Q533 82 539 82H780Q790 82 790 72V10Q790 0 780 0H302ZM164 335Q164 287 170 242T193 161T237 104T308 82H439Q445 82 445 88V592Q445 598 440 598H307Q264 598 237 576T193 516T171 432T164 335Z"  />
<glyph unicode="&#x153;" horiz-adv-x="881" d="M639 -10Q576 -10 537 6T470 51Q460 61 455 61Q450 61 448 60T439 52Q413 21 379 6T285 -10Q225 -10 188 2T124 44Q97 76 80 136T62 272Q62 348 79 405T124 493Q150 522 189 533T287 545Q347 545 381 531T442 489Q452 478 457 478Q460 478 463 479T472 487Q498 515 532 530T618 545Q680 545 719 528T781 479T811 406T819 313V284Q819 255 813 246T793 237H500Q494 237 494 230Q494 180 505 148T537 96T588 70T659 63Q694 63 728 71T786 89Q791 91 795 90T801 84L805 33Q806 24 798 20Q733 -10 639 -10ZM158 272Q158 241 160 213T167 160T179 117T195 88Q207 75 226 70T285 64Q326 64 345 69T376 88Q385 98 392 116T403 159T410 212T413 272Q413 335 404 381T376 448Q364 461 346 466T287 472Q246 472 227 467T195 448Q176 428 167 382T158 272ZM719 306Q726 306 728 311T731 342Q731 410 708 442T618 474Q580 474 556 462T518 429T499 378T494 313Q494 306 500 306H719Z"  />
<glyph unicode="&#x160;" horiz-adv-x="499" d="M281 604Q249 604 227 600T192 586T172 560T166 518Q166 504 168 492T180 467Q192 450 224 427T302 370Q344 341 374 314T421 261Q435 238 437 216T440 174Q440 79 394 36T254 -7Q206 -7 154 -2T65 13Q60 14 60 22L64 87Q64 94 72 92Q159 77 245 77Q269 77 287 81T318 95T337 122T344 165Q344 179 342 195T331 225Q319 242 287 265T209 322Q167 351 136 378T88 431Q74 454 72 474T69 515Q69 562 81 594T119 646T184 674T278 683Q300 683 323 681T366 676T404 670T430 663Q433 661 434 660T435 654L431 593Q431 591 429 589T423 588Q414 591 398 594T362 599T321 603T281 604ZM141 892Q158 892 166 891T183 878L254 809Q258 806 264 806Q271 806 276 809L349 878Q359 888 366 890T391 892H421Q431 892 431 882L311 740Q304 730 296 730H235Q227 730 220 740L100 882Q100 892 110 892H141Z"  />
<glyph unicode="&#x161;" horiz-adv-x="401" d="M181 -10Q146 -10 110 -8T50 0Q44 2 44 7L48 71Q48 77 56 75Q82 70 111 68T165 65Q197 65 217 67T247 77T261 99T265 137Q265 151 261 162T245 186T213 214T162 252Q131 274 110 291T75 324T55 359T49 401Q49 478 88 511T226 545Q297 545 340 537Q346 535 346 530L342 466Q342 460 334 462Q314 465 288 468T237 471Q209 471 190 470T160 462T143 444T138 411Q138 394 142 382T159 358T191 332T242 298Q274 277 296 258T331 221T350 184T356 142Q356 98 346 69T315 22T260 -3T181 -10ZM81 796Q94 796 100 794T114 782L198 681Q202 678 208 678Q215 678 220 681L306 782Q314 791 319 793T335 796H365Q375 796 375 786L255 614Q248 604 240 604H179Q171 604 164 614L44 786Q44 796 54 796H81Z"  />
<glyph unicode="&#x178;" horiz-adv-x="528" d="M424 669Q431 680 441 680H518Q525 680 522 670Q507 638 484 595T435 505T386 417T344 345Q323 309 316 294T308 268V10Q308 0 298 0H220Q210 0 210 10V269Q210 275 209 280T204 293T194 312T179 340Q162 370 136 417T84 514T36 606T5 670Q2 680 12 680H96Q106 680 110 669Q122 643 140 604T178 524T216 445T248 382Q253 371 255 368T263 365Q268 365 270 368T279 382Q294 406 314 443T354 522T393 602T424 669ZM135 758Q125 758 125 768V841Q125 851 135 851H208Q218 851 218 841V768Q218 758 208 758H135ZM328 758Q318 758 318 768V841Q318 851 328 851H401Q411 851 411 841V768Q411 758 401 758H328Z"  />
<glyph unicode="&#x17D;" horiz-adv-x="458" d="M42 0Q32 0 32 10V87Q32 92 34 98T46 121L311 566Q316 575 317 580T319 589Q319 598 309 598H74Q64 598 64 608V670Q64 680 74 680H415Q425 680 425 670V593Q425 588 423 582T411 559L140 105Q137 99 137 90Q137 82 142 82H411Q421 82 421 72V10Q421 0 410 0H42ZM123 892Q140 892 148 891T165 878L236 809Q240 806 246 806Q253 806 258 809L331 878Q341 888 348 890T373 892H403Q413 892 413 882L293 740Q286 730 278 730H217Q209 730 202 740L82 882Q82 892 92 892H123Z"  />
<glyph unicode="&#x17E;" horiz-adv-x="448" d="M48 0Q38 0 38 10V87Q38 95 41 100T52 116L303 431Q310 439 311 443T312 453Q312 461 301 461H65Q55 461 55 471V525Q55 535 65 535H397Q407 535 407 525V456Q407 451 405 439T397 419L138 97Q135 93 135 84Q135 76 141 76H405Q415 76 415 66V10Q415 0 404 0H48ZM104 796Q117 796 123 794T137 782L221 681Q225 678 231 678Q238 678 243 681L329 782Q337 791 342 793T358 796H388Q398 796 398 786L278 614Q271 604 263 604H202Q194 604 187 614L67 786Q67 796 77 796H104Z"  />
<glyph unicode="&#x192;" horiz-adv-x="560" d="M255 -42Q252 -61 245 -86T222 -133T179 -171T106 -187Q83 -187 65 -186T42 -182Q36 -180 37 -169L45 -121Q47 -116 50 -115T58 -115Q67 -117 78 -118T100 -119Q137 -119 149 -96T167 -39L228 347Q228 353 223 353H118Q107 353 109 363L117 411Q119 421 128 421H233Q240 421 240 427L266 590Q269 609 276 634T299 681T344 719T420 735Q430 735 442 734T466 732T485 729T496 727Q504 724 501 714L493 666Q491 661 488 660T480 660Q471 662 457 664T426 667Q406 667 393 661T373 644T361 618T354 587L329 427Q329 421 334 421H450Q461 421 459 411L451 363Q449 353 440 353H324Q317 353 317 347L255 -42Z"  />
<glyph unicode="&#x2C6;" horiz-adv-x="500" d="M377 614Q364 614 358 616T344 628L260 729Q255 732 250 732Q242 732 238 729L152 628Q144 619 139 617T123 614H93Q83 614 83 624L203 796Q210 806 218 806H279Q287 806 294 796L414 624Q414 614 404 614H377Z"  />
<glyph unicode="&#x2C7;" horiz-adv-x="500" d="M119 796Q132 796 138 794T152 782L236 681Q240 678 246 678Q253 678 258 681L344 782Q352 791 357 793T373 796H403Q413 796 413 786L293 614Q286 604 278 604H217Q209 604 202 614L82 786Q82 796 92 796H119Z"  />
<glyph unicode="&#x2DA;" horiz-adv-x="500" d="M313 719Q313 758 297 770T250 782Q215 782 200 770T184 719Q184 677 201 664T250 651Q283 651 298 664T313 719ZM127 712Q127 779 158 805T250 831Q309 831 340 806T372 723Q372 686 363 663T337 626T298 607T250 602Q225 602 203 607T164 624T137 658T127 712Z"  />
<glyph unicode="&#x2DC;" horiz-adv-x="500" d="M264 715Q301 690 318 690Q334 690 341 702T350 740Q350 744 357 744H402Q409 744 409 735Q409 715 404 696T388 661T361 635T322 625Q300 625 282 631T237 656Q217 670 207 674T185 679Q170 679 162 669T151 633Q151 631 149 628T144 625H98Q91 625 91 634Q91 681 116 712T181 744Q193 744 203 743T222 738T241 730T264 715Z"  />
<glyph unicode="&#x2013;" horiz-adv-x="480" d="M53 268Q43 268 43 278V323Q43 333 53 333H427Q437 333 437 323V278Q437 268 427 268H53Z"  />
<glyph unicode="&#x2014;" horiz-adv-x="680" d="M53 268Q43 268 43 278V323Q43 333 53 333H627Q637 333 637 323V278Q637 268 627 268H53Z"  />
<glyph unicode="&#x2018;" horiz-adv-x="248" d="M174 741Q184 741 184 731L156 481Q156 471 146 471H75Q70 471 67 473T65 481L113 709Q117 727 123 734T143 741H174Z"  />
<glyph unicode="&#x2019;" horiz-adv-x="248" d="M74 471Q64 471 64 481L92 731Q92 741 102 741H173Q178 741 181 739T183 731L135 503Q131 485 125 478T105 471H74Z"  />
<glyph unicode="&#x201A;" horiz-adv-x="248" d="M74 -89Q64 -89 64 -79L92 171Q92 181 102 181H173Q178 181 181 179T183 171L135 -57Q131 -74 125 -81T105 -89H74Z"  />
<glyph unicode="&#x201C;" horiz-adv-x="408" d="M174 741Q184 741 184 731L156 481Q156 471 146 471H75Q70 471 67 473T65 481L113 709Q117 727 123 734T143 741H174ZM334 741Q344 741 344 731L316 481Q316 471 306 471H235Q230 471 227 473T225 481L273 709Q277 727 283 734T303 741H334Z"  />
<glyph unicode="&#x201D;" horiz-adv-x="408" d="M234 471Q224 471 224 481L252 731Q252 741 262 741H333Q338 741 341 739T343 731L295 503Q291 485 285 478T265 471H234ZM74 471Q64 471 64 481L92 731Q92 741 102 741H173Q178 741 181 739T183 731L135 503Q131 485 125 478T105 471H74Z"  />
<glyph unicode="&#x201E;" horiz-adv-x="408" d="M74 -89Q64 -89 64 -79L92 171Q92 181 102 181H173Q178 181 181 179T183 171L135 -57Q131 -74 125 -81T105 -89H74ZM234 -89Q224 -89 224 -79L252 171Q252 181 262 181H333Q338 181 341 179T343 171L295 -57Q291 -74 285 -81T265 -89H234Z"  />
<glyph unicode="&#x2020;" horiz-adv-x="550" d="M235 691Q235 701 245 701H308Q318 701 318 691V441Q318 435 324 435H501Q511 435 511 425V373Q511 363 501 363H324Q318 363 318 357V-119Q318 -129 308 -129H245Q235 -129 235 -119V357Q235 363 229 363H49Q39 363 39 373V425Q39 435 49 435H229Q235 435 235 441V691Z"  />
<glyph unicode="&#x2021;" horiz-adv-x="550" d="M235 436Q235 442 229 442H49Q39 442 39 452V505Q39 515 49 515H229Q235 515 235 521V691Q235 701 245 701H308Q318 701 318 691V521Q318 515 324 515H501Q511 515 511 505V452Q511 442 501 442H324Q318 442 318 436V136Q318 130 324 130H501Q511 130 511 120V67Q511 57 501 57H324Q318 57 318 52V-119Q318 -129 308 -129H245Q235 -129 235 -119V51Q235 57 229 57H49Q39 57 39 67V120Q39 130 49 130H229Q235 130 235 136V436Z"  />
<glyph unicode="&#x2022;" horiz-adv-x="498" d="M252 519Q286 519 317 505T371 468T407 413T421 346Q421 310 408 279T371 224T316 188T250 174Q214 174 182 187T127 224T90 279T76 347Q76 383 89 414T127 469T183 505T252 519Z"  />
<glyph unicode="&#x2026;" horiz-adv-x="822" d="M90 0Q80 0 80 10V112Q80 122 90 122H185Q195 122 195 112V10Q195 0 185 0H90ZM364 0Q354 0 354 10V112Q354 122 364 122H459Q469 122 469 112V10Q469 0 459 0H364ZM638 0Q628 0 628 10V112Q628 122 638 122H733Q743 122 743 112V10Q743 0 733 0H638Z"  />
<glyph unicode="&#x2030;" horiz-adv-x="1024" d="M537 670Q539 674 542 677T551 680H588Q599 680 597 670L181 10Q179 6 176 3T167 0H130Q119 0 121 10L537 670ZM127 518Q127 487 132 456T147 414Q153 408 162 406T183 403Q208 403 219 414Q230 425 234 456T239 518Q239 550 235 581T219 623Q208 634 183 634Q172 634 163 632T147 623Q137 612 132 581T127 518ZM312 518Q312 498 310 476T302 433T288 395T266 368Q249 357 231 352T183 346Q154 346 136 351T100 368Q87 377 79 394T65 432T57 475T54 518Q54 538 56 560T64 603T78 641T100 668Q117 680 135 685T183 690Q212 690 230 685T266 668Q279 659 287 642T301 604T309 561T312 518ZM475 162Q475 131 480 100T495 58Q501 52 510 50T531 47Q556 47 567 58Q578 69 582 100T587 162Q587 194 583 225T567 267Q556 278 531 278Q520 278 511 276T495 267Q485 256 480 225T475 162ZM660 162Q660 142 658 120T650 77T636 39T614 12Q597 1 579 -4T531 -10Q502 -10 484 -5T448 12Q435 21 427 38T413 76T405 119T402 162Q402 182 404 204T412 247T426 285T448 312Q465 324 483 329T531 334Q560 334 578 329T614 312Q627 303 635 286T649 248T657 205T660 162ZM785 162Q785 131 790 100T805 58Q811 52 820 50T841 47Q866 47 877 58Q888 69 892 100T897 162Q897 194 893 225T877 267Q866 278 841 278Q830 278 821 276T805 267Q795 256 790 225T785 162ZM970 162Q970 142 968 120T960 77T946 39T924 12Q907 1 889 -4T841 -10Q812 -10 794 -5T758 12Q745 21 737 38T723 76T715 119T712 162Q712 182 714 204T722 247T736 285T758 312Q775 324 793 329T841 334Q870 334 888 329T924 312Q937 303 945 286T959 248T967 205T970 162Z"  />
<glyph unicode="&#x2039;" horiz-adv-x="330" d="M65 307Q65 313 68 317T75 326L251 497Q258 503 261 501T265 491V433Q265 427 263 424T256 414L134 282Q131 277 131 272Q131 266 134 262L256 130Q261 124 263 121T265 111V53Q265 46 262 44T251 47L75 218Q71 222 68 226T65 237V307Z"  />
<glyph unicode="&#x203A;" horiz-adv-x="330" d="M265 237Q265 231 262 227T255 218L79 47Q72 41 69 43T65 53V111Q65 117 67 120T74 130L196 262Q199 266 199 272Q199 277 196 282L74 414Q69 420 67 423T65 433V491Q65 498 68 500T79 497L255 326Q259 322 262 318T265 307V237Z"  />
<glyph unicode="&#x2044;" horiz-adv-x="180" d="M187 691Q191 701 197 701H260Q268 701 266 691L-22 -40Q-26 -50 -32 -50H-93Q-101 -50 -99 -40L187 691Z"  />
<glyph unicode="&#x20AC;" horiz-adv-x="560" d="M495 7Q471 -1 437 -5T365 -10Q248 -10 190 52T121 245Q119 247 116 247H59Q49 247 49 257V300Q49 310 59 310H117Q121 310 122 317T124 344Q124 367 123 373T117 380H59Q49 380 49 390V432Q49 442 59 442H120Q124 442 125 444Q135 558 193 624T365 690Q409 690 441 685T492 673Q495 671 496 670T497 664L493 600Q493 598 491 596T485 595Q467 602 437 607T376 612Q299 612 262 571T219 446Q219 442 225 442H431Q441 442 441 432V390Q441 380 431 380H218Q214 380 212 373T210 340Q210 319 212 315T218 310H401Q411 310 411 300V257Q411 247 401 247H223Q217 247 217 243Q222 157 260 113T376 68Q402 68 431 72T480 81Q484 82 488 82T493 77L499 18Q501 9 495 7Z"  />
<glyph unicode="&#x2122;" horiz-adv-x="724" d="M114 621Q114 624 111 624H52Q47 624 47 629V675Q47 680 52 680H248Q253 680 253 675V629Q253 624 248 624H188Q185 624 185 621V347Q185 342 180 342H119Q114 342 114 347V621ZM518 675Q518 680 524 680H610Q615 680 615 675V347Q615 342 610 342H549Q544 342 544 347L546 584Q546 589 544 589Q541 589 540 583L496 438Q494 432 493 431T488 429H437Q432 429 431 430T427 437L387 583Q386 589 383 589Q381 589 381 582L383 347Q383 342 378 342H319Q314 342 314 347V675Q314 680 319 680H408Q411 680 413 675L460 515Q462 509 464 509Q467 509 468 515L518 675Z"  />

</font>
</defs>
</svg>
